<?xml version="1.0" encoding="utf-8"?>
<!-- Generator: Adobe Illustrator 25.4.1, SVG Export Plug-In . SVG Version: 6.00 Build 0)  -->
<svg version="1.1" xmlns="http://www.w3.org/2000/svg" xmlns:xlink="http://www.w3.org/1999/xlink" x="0px" y="0px"
	 viewBox="0 0 271.29 356.19" style="enable-background:new 0 0 271.29 356.19;" xml:space="preserve">
<style type="text/css">
	.st0{fill:#E40521;}
	.st1{fill:#FFFFFF;}
</style>
<g id="bakgrund">
	<g>
		<rect x="1" y="1" class="st0" width="269.29" height="269.29"/>
		<path class="st0" d="M271.29,271.29H0V0h271.29V271.29z M2,269.29h267.29V2H2V269.29z"/>
	</g>
	<rect x="1" y="270.15" class="st1" width="269.29" height="85.04"/>
	<path class="st0" d="M271.29,356.19H0v-87.04h271.29V356.19z M2,354.19h267.29v-83.04H2V354.19z"/>
</g>
<g id="namn">
	<g>
		<path d="M85.4,319.14l-0.85,4.08h-3.9l5.4-21.04h3.66l5.37,21.04h-3.9l-0.85-4.08H85.4z M87.87,307.25l-1.77,8.54h3.54
			L87.87,307.25z"/>
		<path d="M96.74,317.22h3.54c0.04,1.04,0.25,1.8,0.62,2.29c0.38,0.49,0.93,0.73,1.66,0.73s1.27-0.22,1.6-0.67
			c0.33-0.45,0.5-1.16,0.5-2.13c0-0.81-0.19-1.46-0.56-1.94c-0.38-0.48-1.01-0.92-1.91-1.33l-1.43-0.64
			c-1.36-0.61-2.34-1.36-2.94-2.26c-0.6-0.89-0.9-2.09-0.9-3.6c0-1.77,0.51-3.18,1.54-4.24s2.41-1.59,4.16-1.59
			c1.73,0,3.06,0.52,4.01,1.57c0.94,1.05,1.45,2.56,1.51,4.53h-3.45c-0.02-0.96-0.19-1.67-0.5-2.15c-0.31-0.48-0.84-0.72-1.57-0.72
			c-1.36,0-2.04,0.8-2.04,2.41c0,0.73,0.17,1.32,0.5,1.75c0.33,0.44,0.9,0.83,1.69,1.17l1.37,0.61c1.46,0.65,2.53,1.46,3.19,2.44
			c0.66,0.98,0.99,2.28,0.99,3.9c0,1.95-0.51,3.46-1.52,4.51c-1.02,1.06-2.46,1.58-4.33,1.58c-1.85,0-3.26-0.54-4.24-1.62
			S96.76,319.24,96.74,317.22z"/>
		<path d="M122.81,317.13c0,2.13-0.44,3.68-1.31,4.65s-2.36,1.45-4.45,1.45h-5.7v-21.04h5.7c2.05,0,3.52,0.45,4.39,1.36
			c0.87,0.9,1.31,2.34,1.31,4.31c0,1.04-0.17,1.92-0.52,2.65s-0.93,1.29-1.77,1.68c0.91,0.41,1.53,1.01,1.86,1.8
			S122.81,315.83,122.81,317.13z M115.07,310.64h1.58c0.87,0,1.48-0.2,1.83-0.59c0.35-0.4,0.52-1.04,0.52-1.94
			c0-0.93-0.17-1.6-0.52-1.98c-0.34-0.39-0.96-0.58-1.83-0.58h-1.58V310.64z M119.06,316.86c0-1.06-0.19-1.82-0.56-2.29
			s-1-0.7-1.88-0.7h-1.55v6.01h1.55c0.93,0,1.58-0.23,1.92-0.69C118.89,318.73,119.06,317.96,119.06,316.86z"/>
		<path d="M129.88,310.85h4.88v3.35h-4.88v5.67h5.67v3.35h-9.39v-21.04h9.39v3.38h-5.67V310.85z"/>
		<path d="M137.81,317.22h3.54c0.04,1.04,0.25,1.8,0.62,2.29c0.38,0.49,0.93,0.73,1.66,0.73s1.27-0.22,1.6-0.67
			c0.33-0.45,0.5-1.16,0.5-2.13c0-0.81-0.19-1.46-0.56-1.94c-0.38-0.48-1.01-0.92-1.91-1.33l-1.43-0.64
			c-1.36-0.61-2.34-1.36-2.94-2.26c-0.6-0.89-0.9-2.09-0.9-3.6c0-1.77,0.51-3.18,1.54-4.24s2.41-1.59,4.16-1.59
			c1.73,0,3.06,0.52,4.01,1.57c0.94,1.05,1.45,2.56,1.51,4.53h-3.45c-0.02-0.96-0.19-1.67-0.5-2.15c-0.31-0.48-0.84-0.72-1.57-0.72
			c-1.36,0-2.04,0.8-2.04,2.41c0,0.73,0.17,1.32,0.5,1.75c0.33,0.44,0.9,0.83,1.69,1.17l1.37,0.61c1.46,0.65,2.53,1.46,3.19,2.44
			c0.66,0.98,0.99,2.28,0.99,3.9c0,1.95-0.51,3.46-1.52,4.51c-1.02,1.06-2.46,1.58-4.33,1.58c-1.85,0-3.26-0.54-4.24-1.62
			S137.83,319.24,137.81,317.22z"/>
		<path d="M158.64,305.58v17.65h-3.72v-17.65h-3.66v-3.38h11.01v3.38H158.64z"/>
		<path d="M164.46,317.44v-9.48c0-1.99,0.56-3.5,1.68-4.53c1.12-1.03,2.59-1.54,4.42-1.54c1.77,0,3.19,0.51,4.25,1.54
			c1.07,1.03,1.6,2.54,1.6,4.53v9.48c0,1.95-0.56,3.44-1.69,4.48c-1.13,1.04-2.59,1.55-4.37,1.55c-1.81,0-3.24-0.51-4.3-1.54
			C164.99,320.91,164.46,319.41,164.46,317.44z M172.66,317.01v-8.44c0-1.08-0.18-1.9-0.55-2.45c-0.37-0.56-0.91-0.84-1.65-0.84
			c-0.79,0-1.37,0.27-1.72,0.82c-0.36,0.55-0.53,1.37-0.53,2.47v8.44c0,2.05,0.75,3.08,2.26,3.08c0.71,0,1.26-0.27,1.63-0.81
			S172.66,317.99,172.66,317.01z"/>
		<path d="M179.06,317.22h3.54c0.04,1.04,0.25,1.8,0.62,2.29c0.38,0.49,0.93,0.73,1.66,0.73s1.27-0.22,1.6-0.67
			c0.33-0.45,0.5-1.16,0.5-2.13c0-0.81-0.19-1.46-0.56-1.94c-0.38-0.48-1.01-0.92-1.91-1.33l-1.43-0.64
			c-1.36-0.61-2.34-1.36-2.94-2.26c-0.6-0.89-0.9-2.09-0.9-3.6c0-1.77,0.51-3.18,1.54-4.24s2.41-1.59,4.16-1.59
			c1.73,0,3.06,0.52,4.01,1.57c0.94,1.05,1.45,2.56,1.51,4.53h-3.45c-0.02-0.96-0.19-1.67-0.5-2.15c-0.31-0.48-0.84-0.72-1.57-0.72
			c-1.36,0-2.04,0.8-2.04,2.41c0,0.73,0.17,1.32,0.5,1.75c0.33,0.44,0.9,0.83,1.69,1.17l1.37,0.61c1.46,0.65,2.53,1.46,3.19,2.44
			c0.66,0.98,0.99,2.28,0.99,3.9c0,1.95-0.51,3.46-1.52,4.51c-1.02,1.06-2.46,1.58-4.33,1.58c-1.85,0-3.26-0.54-4.24-1.62
			S179.08,319.24,179.06,317.22z"/>
	</g>
</g>
<g id="ikon">
	<path class="st1" d="M238.66,105.23c0.75-0.69,0.5-1.9-0.45-2.29c-2.44-1-4.62-3.29-6.21-4.89c-2.1-2.1-5.79-5.59-8.19-5.59
		s-4.99,2.4-7.19,4.59c-2.2,2.2-6.39,6.39-9.98,6.39c-3.59,0-5.28-2.28-8.39-5.39c-3.29-3.29-4.59-5.39-8.19-5.39
		c-3.19,0-6.09,3.49-7.79,5.19c-1.7,1.7-5.59,5.79-8.39,5.79s-6.19-2.99-8.79-5.59c-2.6-2.6-4.89-5.99-7.79-5.99
		c-2.88,0-5.49,3.49-7.79,5.79c-2.3,2.3-6.19,5.79-9.18,5.79c-2.99,0-5.99-2.4-8.39-4.99c-2.4-2.6-4.79-5.99-7.79-5.99
		c-3,0-4.39,2-8.98,6.19c-3.83,3.49-6.96,4.63-7.9,4.91c-0.19,0.06-0.37,0.16-0.52,0.29l-68.24,62.1c-1.31,1.19,0.41,3.22,1.78,2.1
		c0.26-0.21,0.51-0.43,0.77-0.67c4.59-4.19,5.99-6.19,8.98-6.19s5.39,3.39,7.79,5.99c2.4,2.6,5.39,4.99,8.39,4.99
		c2.99,0,6.89-3.49,9.18-5.79c2.3-2.3,4.86-5.79,7.79-5.79c2.85,0,5.19,3.39,7.79,5.99c2.6,2.6,5.99,5.59,8.79,5.59
		c2.8,0,6.69-4.09,8.39-5.79c1.7-1.7,4.59-5.19,7.79-5.19c3.59,0,4.89,2.1,8.19,5.39c3.11,3.11,4.79,5.39,8.39,5.39
		c3.59,0,7.79-4.19,9.98-6.39c2.2-2.2,4.79-4.59,7.19-4.59c2.4,0,6.09,3.49,8.19,5.59c1.98,1.98,4.84,5.01,8,5.36
		c0.37,0.04,0.74-0.11,1.02-0.37L238.66,105.23z"/>
</g>
</svg>
