<?xml version="1.0" encoding="utf-8"?>
<!-- Generator: Adobe Illustrator 25.4.1, SVG Export Plug-In . SVG Version: 6.00 Build 0)  -->
<svg version="1.1" xmlns="http://www.w3.org/2000/svg" xmlns:xlink="http://www.w3.org/1999/xlink" x="0px" y="0px"
	 viewBox="0 0 271.29 356.19" style="enable-background:new 0 0 271.29 356.19;" xml:space="preserve">
<style type="text/css">
	.st0{fill:#FFFFFF;}
</style>
<g id="bakgrund">
	<g>
		<rect x="1" y="1" width="269.29" height="269.29"/>
		<path d="M271.29,271.29H0V0h271.29V271.29z M2,269.29h267.29V2H2V269.29z"/>
	</g>
	<g>
		<rect x="1" y="270.15" class="st0" width="269.29" height="85.04"/>
		<path d="M271.29,356.19H0v-87.04h271.29V356.19z M2,354.19h267.29v-83.04H2V354.19z"/>
	</g>
</g>
<g id="namn">
	<g>
		<path d="M105.96,319.14l-0.85,4.08h-3.9l5.4-21.04h3.66l5.37,21.04h-3.9l-0.85-4.08H105.96z M108.43,307.25l-1.77,8.54h3.54
			L108.43,307.25z"/>
		<path d="M117.31,317.22h3.54c0.04,1.04,0.25,1.8,0.62,2.29c0.38,0.49,0.93,0.73,1.66,0.73s1.27-0.22,1.6-0.67s0.5-1.16,0.5-2.13
			c0-0.81-0.19-1.46-0.56-1.94c-0.38-0.48-1.01-0.92-1.91-1.33l-1.43-0.64c-1.36-0.61-2.34-1.36-2.94-2.26
			c-0.6-0.89-0.9-2.09-0.9-3.6c0-1.77,0.51-3.18,1.54-4.24c1.03-1.06,2.41-1.58,4.16-1.58c1.73,0,3.06,0.52,4.01,1.57
			c0.94,1.05,1.45,2.56,1.51,4.53h-3.45c-0.02-0.96-0.19-1.67-0.5-2.15c-0.31-0.48-0.84-0.72-1.57-0.72c-1.36,0-2.04,0.8-2.04,2.41
			c0,0.73,0.17,1.32,0.5,1.75c0.33,0.44,0.9,0.83,1.69,1.17l1.37,0.61c1.46,0.65,2.53,1.46,3.19,2.44c0.66,0.98,0.99,2.28,0.99,3.9
			c0,1.95-0.51,3.46-1.52,4.51c-1.02,1.06-2.46,1.58-4.33,1.58c-1.85,0-3.26-0.54-4.24-1.62S117.33,319.24,117.31,317.22z"/>
		<path d="M143.37,323.23h-3.75v-9.02h-3.96v9.02h-3.75v-21.04h3.75v8.66h3.96v-8.66h3.75V323.23z"/>
		<path d="M150.57,310.85h4.88v3.35h-4.88v5.67h5.67v3.35h-9.39v-21.04h9.39v3.38h-5.67V310.85z"/>
		<path d="M158.5,317.22h3.54c0.04,1.04,0.25,1.8,0.62,2.29c0.38,0.49,0.93,0.73,1.66,0.73s1.27-0.22,1.6-0.67s0.5-1.16,0.5-2.13
			c0-0.81-0.19-1.46-0.56-1.94c-0.38-0.48-1.01-0.92-1.91-1.33l-1.43-0.64c-1.36-0.61-2.34-1.36-2.94-2.26
			c-0.6-0.89-0.9-2.09-0.9-3.6c0-1.77,0.51-3.18,1.54-4.24c1.03-1.06,2.41-1.58,4.16-1.58c1.73,0,3.06,0.52,4.01,1.57
			c0.94,1.05,1.45,2.56,1.51,4.53h-3.45c-0.02-0.96-0.19-1.67-0.5-2.15c-0.31-0.48-0.84-0.72-1.57-0.72c-1.36,0-2.04,0.8-2.04,2.41
			c0,0.73,0.17,1.32,0.5,1.75c0.33,0.44,0.9,0.83,1.69,1.17l1.37,0.61c1.46,0.65,2.53,1.46,3.19,2.44c0.66,0.98,0.99,2.28,0.99,3.9
			c0,1.95-0.51,3.46-1.52,4.51c-1.02,1.06-2.46,1.58-4.33,1.58c-1.85,0-3.26-0.54-4.24-1.62S158.52,319.24,158.5,317.22z"/>
	</g>
</g>
<g id="ikon">
	<g>
		<path class="st0" d="M150.85,92.44l26.74-21.95c0,0-9.56,3.88-14.44-3.35c-2.6-3.85-4.52-7.27-5.96-9.46
			c-4.63-7.07-9.4,0.14-9.4,0.14l-10.37,26.73l-3.44-37.86C127.2,66.71,98.72,50.66,104.5,63l16.01,29.44h6.68H150.85z"/>
		<path class="st0" d="M196.69,218.96c-0.26-0.29-1.91-2.22-3.56-5.66c-1.78-3.69-3.49-9.19-3.61-16.4
			c-0.01-0.33-0.08-1.84-0.06-2.29c0.05-1.53,0.1-3.04,0.14-4.52c0.68-18.57,0.38-51.84-9.27-69.87
			c-7.15-13.35-21.33-21.84-29.47-24.38l-1.6,0h-7.5h-21.1h-0.16c-8.16,2.59-22.46,11.09-29.58,24.38
			c-9.65,18.03-9.96,51.31-9.27,69.87l0.12,3.29c0.03,0.87,0.02,1.72,0.01,2.56c-0.01,0.31-0.01,0.62-0.02,0.93
			c-0.37,13.9-6.75,22.68-7.31,23.42c-0.02,0.03-0.16,0.25-0.16,0.25c-0.3,0.42-0.48,0.92-0.48,1.46c0,1.43,1.24,2.6,2.77,2.6
			c0.44,0,0.89-0.11,1.34-0.26c2.27-0.68,13.59-3.91,25.78-3.91c7,0,10.92,0.76,14.71,1.49c1,0.19,7.76,1.5,14.15,1.5
			c7.89,0,15.83-0.51,25.99-6.66c3.92,1.6,8.03,2.81,12.01,3.74c7.2,1.67,14,2.38,18.56,2.68c3.27,0.21,5.4,0.22,5.7,0.22
			c0,0,0.01,0,0.01,0l0.02,0c1.45,0,2.62-1.16,2.62-2.58C197.49,220.08,197.16,219.52,196.69,218.96z M181.56,164.57
			c1.4,0,2.54,1.14,2.54,2.54c0,1.4-1.14,2.54-2.54,2.54c-1.4,0-2.54-1.14-2.54-2.54C179.02,165.7,180.16,164.57,181.56,164.57z
			 M173.5,181.24c1.4,0,2.54,1.14,2.54,2.54c0,1.4-1.14,2.54-2.54,2.54c-1.4,0-2.54-1.14-2.54-2.54
			C170.95,182.37,172.09,181.24,173.5,181.24z M168.15,176.3c0-1.4,1.14-2.54,2.54-2.54c1.4,0,2.54,1.14,2.54,2.54
			c0,1.4-1.14,2.54-2.54,2.54C169.29,178.84,168.15,177.7,168.15,176.3z M175.77,190.38c1.4,0,2.54,1.14,2.54,2.54
			c0,1.4-1.14,2.54-2.54,2.54c-1.4,0-2.54-1.14-2.54-2.54C173.23,191.52,174.37,190.38,175.77,190.38z M178.35,176.78
			c0.36-1.36,1.76-2.16,3.11-1.8s2.16,1.76,1.8,3.11c-0.36,1.36-1.76,2.16-3.11,1.8S177.99,178.13,178.35,176.78z M173.52,159.48
			c0.36-1.36,1.76-2.16,3.11-1.8s2.16,1.76,1.8,3.11c-0.36,1.36-1.76,2.16-3.11,1.8S173.15,160.84,173.52,159.48z M170.82,168.34
			c0.36-1.36,1.76-2.16,3.11-1.8s2.16,1.76,1.8,3.11c-0.36,1.36-1.76,2.16-3.11,1.8C171.26,171.09,170.46,169.69,170.82,168.34z
			 M166.44,152.07c1.4,0,2.54,1.14,2.54,2.54c0,1.4-1.14,2.54-2.54,2.54s-2.54-1.14-2.54-2.54
			C163.89,153.21,165.03,152.07,166.44,152.07z M166.65,159.54c1.4,0,2.54,1.14,2.54,2.54c0,1.4-1.14,2.54-2.54,2.54
			c-1.4,0-2.54-1.14-2.54-2.54C164.11,160.68,165.25,159.54,166.65,159.54z M163.63,171.68c1.4,0,2.54,1.14,2.54,2.54
			c0,1.4-1.14,2.54-2.54,2.54c-1.4,0-2.54-1.14-2.54-2.54C161.09,172.82,162.23,171.68,163.63,171.68z M166.38,185.3
			c-0.36,1.36-1.76,2.16-3.11,1.8c-1.36-0.36-2.16-1.76-1.8-3.11c0.36-1.36,1.76-2.16,3.11-1.8
			C165.94,182.56,166.74,183.95,166.38,185.3z M166.96,189.96c1.4,0,2.54,1.14,2.54,2.54c0,1.4-1.14,2.54-2.54,2.54
			c-1.4,0-2.54-1.14-2.54-2.54C164.42,191.1,165.55,189.96,166.96,189.96z M157.84,148.74c0.36-1.36,1.76-2.16,3.11-1.8
			c1.36,0.36,2.16,1.76,1.8,3.11s-1.76,2.16-3.11,1.8S157.48,150.1,157.84,148.74z M163.06,167.2c0,1.4-1.14,2.54-2.54,2.54
			c-1.4,0-2.54-1.14-2.54-2.54c0-1.4,1.14-2.54,2.54-2.54C161.92,164.66,163.06,165.79,163.06,167.2z M157.6,155.57
			c1.4,0,2.54,1.14,2.54,2.54c0,1.4-1.14,2.54-2.54,2.54c-1.4,0-2.54-1.14-2.54-2.54C155.06,156.71,156.19,155.57,157.6,155.57z
			 M154.03,150.12c0,1.4-1.14,2.54-2.54,2.54c-1.4,0-2.54-1.14-2.54-2.54c0-1.4,1.14-2.54,2.54-2.54
			C152.89,147.58,154.03,148.72,154.03,150.12z M123.99,171.07c0-1.4,1.14-2.54,2.54-2.54c1.4,0,2.54,1.14,2.54,2.54
			c0,1.4-1.14,2.54-2.54,2.54C125.12,173.61,123.99,172.48,123.99,171.07z M125.99,179.61c0,1.4-1.14,2.54-2.54,2.54
			s-2.54-1.14-2.54-2.54c0-1.4,1.14-2.54,2.54-2.54S125.99,178.21,125.99,179.61z M131.41,184.62c-1.36-0.36-2.16-1.76-1.8-3.11
			s1.76-2.16,3.11-1.8c1.36,0.36,2.16,1.76,1.8,3.11C134.16,184.18,132.77,184.99,131.41,184.62z M132.38,197.31
			c0,1.4-1.14,2.54-2.54,2.54c-1.4,0-2.54-1.14-2.54-2.54c0-1.4,1.14-2.54,2.54-2.54C131.24,194.77,132.38,195.91,132.38,197.31z
			 M133.54,173.36c0-1.4,1.14-2.54,2.54-2.54c1.4,0,2.54,1.14,2.54,2.54c0,1.4-1.14,2.54-2.54,2.54
			C134.68,175.91,133.54,174.77,133.54,173.36z M135.78,189.3c1.4,0,2.54,1.14,2.54,2.54c0,1.4-1.14,2.54-2.54,2.54
			s-2.54-1.14-2.54-2.54C133.24,190.44,134.38,189.3,135.78,189.3z M137.86,183.55c0-1.4,1.14-2.54,2.54-2.54
			c1.4,0,2.54,1.14,2.54,2.54c0,1.4-1.14,2.54-2.54,2.54C138.99,186.09,137.86,184.95,137.86,183.55z M139.34,165.85
			c0-1.4,1.14-2.54,2.54-2.54c1.4,0,2.54,1.14,2.54,2.54c0,1.4-1.14,2.54-2.54,2.54C140.48,168.39,139.34,167.25,139.34,165.85z
			 M136.57,198.32c0.36-1.36,1.76-2.16,3.11-1.8c1.36,0.36,2.16,1.76,1.8,3.11s-1.76,2.16-3.11,1.8
			C137.01,201.07,136.2,199.68,136.57,198.32z M142.48,176.12c0-1.4,1.14-2.54,2.54-2.54c1.4,0,2.54,1.14,2.54,2.54
			c0,1.4-1.14,2.54-2.54,2.54C143.62,178.66,142.48,177.52,142.48,176.12z M145.73,157.65c0-1.4,1.14-2.54,2.54-2.54
			c1.4,0,2.54,1.14,2.54,2.54c0,1.4-1.14,2.54-2.54,2.54C146.86,160.19,145.73,159.05,145.73,157.65z M146.24,186.78
			c1.4,0,2.54,1.14,2.54,2.54c0,1.4-1.14,2.54-2.54,2.54c-1.4,0-2.54-1.14-2.54-2.54C143.7,187.92,144.84,186.78,146.24,186.78z
			 M149.42,194.66c1.4,0,2.54,1.14,2.54,2.54c0,1.4-1.14,2.54-2.54,2.54c-1.4,0-2.54-1.14-2.54-2.54
			C146.88,195.8,148.02,194.66,149.42,194.66z M149.62,184.81c-1.4,0-2.54-1.14-2.54-2.54c0-1.4,1.14-2.54,2.54-2.54
			c1.4,0,2.54,1.14,2.54,2.54C152.16,183.67,151.02,184.81,149.62,184.81z M149.82,165.2c0-1.4,1.14-2.54,2.54-2.54
			c1.4,0,2.54,1.14,2.54,2.54s-1.14,2.54-2.54,2.54C150.96,167.74,149.82,166.6,149.82,165.2z M144.4,143.32
			c0.36-1.36,1.76-2.16,3.11-1.8c1.36,0.36,2.16,1.76,1.8,3.11c-0.36,1.36-1.76,2.16-3.11,1.8
			C144.84,146.07,144.03,144.67,144.4,143.32z M99.79,157.36c1.36,0.36,2.16,1.76,1.8,3.11c-0.36,1.36-1.76,2.16-3.11,1.8
			c-1.36-0.36-2.16-1.76-1.8-3.11S98.44,157,99.79,157.36z M133.44,141.27c0.36-1.36,1.76-2.16,3.11-1.8
			c1.36,0.36,2.16,1.76,1.8,3.11s-1.76,2.16-3.11,1.8S133.08,142.63,133.44,141.27z M141.69,148.45c1.4,0,2.54,1.14,2.54,2.54
			c0,1.4-1.14,2.54-2.54,2.54c-1.4,0-2.54-1.14-2.54-2.54C139.15,149.59,140.29,148.45,141.69,148.45z M137.84,155.81
			c1.4,0,2.54,1.14,2.54,2.54c0,1.4-1.14,2.54-2.54,2.54c-1.4,0-2.54-1.14-2.54-2.54C135.3,156.94,136.44,155.81,137.84,155.81z
			 M135.12,164.39c0,1.4-1.14,2.54-2.54,2.54c-1.4,0-2.54-1.14-2.54-2.54s1.14-2.54,2.54-2.54
			C133.98,161.85,135.12,162.99,135.12,164.39z M135.1,149.35c0,1.4-1.14,2.54-2.54,2.54c-1.4,0-2.54-1.14-2.54-2.54
			c0-1.4,1.14-2.54,2.54-2.54C133.96,146.81,135.1,147.95,135.1,149.35z M129.29,154.4c1.36,0.36,2.16,1.76,1.8,3.11
			s-1.76,2.16-3.11,1.8c-1.36-0.36-2.16-1.76-1.8-3.11S127.94,154.03,129.29,154.4z M121.93,144.78c0.36-1.36,1.76-2.16,3.11-1.8
			c1.36,0.36,2.16,1.76,1.8,3.11s-1.76,2.16-3.11,1.8S121.56,146.13,121.93,144.78z M121.28,150.77c1.4,0,2.54,1.14,2.54,2.54
			s-1.14,2.54-2.54,2.54c-1.4,0-2.54-1.14-2.54-2.54S119.88,150.77,121.28,150.77z M121.04,160.49c1.4,0,2.54,1.14,2.54,2.54
			c0,1.4-1.14,2.54-2.54,2.54c-1.4,0-2.54-1.14-2.54-2.54C118.5,161.63,119.64,160.49,121.04,160.49z M117.44,188.62
			c-1.4,0-2.54-1.14-2.54-2.54c0-1.4,1.14-2.54,2.54-2.54c1.4,0,2.54,1.14,2.54,2.54C119.98,187.48,118.84,188.62,117.44,188.62z
			 M117.46,194c0,1.4-1.14,2.54-2.54,2.54c-1.4,0-2.54-1.14-2.54-2.54c0-1.4,1.14-2.54,2.54-2.54
			C116.32,191.46,117.46,192.6,117.46,194z M119.34,175.45c0,1.4-1.14,2.54-2.54,2.54s-2.54-1.14-2.54-2.54
			c0-1.4,1.14-2.54,2.54-2.54S119.34,174.04,119.34,175.45z M114.67,169.66c-1.4,0-2.54-1.14-2.54-2.54c0-1.4,1.14-2.54,2.54-2.54
			c1.4,0,2.54,1.14,2.54,2.54C117.21,168.52,116.07,169.66,114.67,169.66z M113.67,146.58c1.4,0,2.54,1.14,2.54,2.54
			c0,1.4-1.14,2.54-2.54,2.54c-1.4,0-2.54-1.14-2.54-2.54C111.13,147.71,112.27,146.58,113.67,146.58z M112.88,155.44
			c1.4,0,2.54,1.14,2.54,2.54c0,1.4-1.14,2.54-2.54,2.54c-1.4,0-2.54-1.14-2.54-2.54C110.34,156.58,111.48,155.44,112.88,155.44z
			 M110.6,178.5c1.4,0,2.54,1.14,2.54,2.54s-1.14,2.54-2.54,2.54c-1.4,0-2.54-1.14-2.54-2.54S109.2,178.5,110.6,178.5z
			 M110.26,190.4c0,1.4-1.14,2.54-2.54,2.54c-1.4,0-2.54-1.14-2.54-2.54s1.14-2.54,2.54-2.54C109.12,187.86,110.26,189,110.26,190.4
			z M108.7,173.82c-0.36,1.36-1.76,2.16-3.11,1.8c-1.36-0.36-2.16-1.76-1.8-3.11c0.36-1.36,1.76-2.16,3.11-1.8
			S109.06,172.47,108.7,173.82z M108.56,164.12c0,1.4-1.14,2.54-2.54,2.54c-1.4,0-2.54-1.14-2.54-2.54c0-1.4,1.14-2.54,2.54-2.54
			C107.42,161.58,108.56,162.72,108.56,164.12z M100.51,182.68c1.4,0,2.54,1.14,2.54,2.54c0,1.4-1.14,2.54-2.54,2.54
			s-2.54-1.14-2.54-2.54C97.97,183.82,99.1,182.68,100.51,182.68z M96.92,180.34c-1.4,0-2.54-1.14-2.54-2.54s1.14-2.54,2.54-2.54
			c1.4,0,2.54,1.14,2.54,2.54S98.32,180.34,96.92,180.34z M104.53,151.15c1.4,0,2.54,1.14,2.54,2.54c0,1.4-1.14,2.54-2.54,2.54
			c-1.4,0-2.54-1.14-2.54-2.54C101.98,152.29,103.12,151.15,104.53,151.15z M100.76,169.67c0,1.4-1.14,2.54-2.54,2.54
			c-1.4,0-2.54-1.14-2.54-2.54c0-1.4,1.14-2.54,2.54-2.54C99.62,167.13,100.76,168.27,100.76,169.67z M91.49,159.83
			c1.4,0,2.54,1.14,2.54,2.54c0,1.4-1.14,2.54-2.54,2.54c-1.4,0-2.54-1.14-2.54-2.54C88.95,160.97,90.09,159.83,91.49,159.83z
			 M93.45,191.44c0,1.4-1.14,2.54-2.54,2.54c-1.4,0-2.54-1.14-2.54-2.54c0-1.4,1.14-2.54,2.54-2.54
			C92.31,188.89,93.45,190.03,93.45,191.44z M90.44,183.94c-1.4,0-2.54-1.14-2.54-2.54c0-1.4,1.14-2.54,2.54-2.54
			c1.4,0,2.54,1.14,2.54,2.54C92.98,182.8,91.84,183.94,90.44,183.94z M87.62,170.3c0.36-1.36,1.76-2.16,3.11-1.8
			s2.16,1.76,1.8,3.11s-1.76,2.16-3.11,1.8S87.26,171.65,87.62,170.3z M84.62,219.02c-1.4,0-2.54-1.14-2.54-2.54
			c0-1.4,1.14-2.54,2.54-2.54c1.4,0,2.54,1.14,2.54,2.54C87.16,217.88,86.02,219.02,84.62,219.02z M87.14,200.58
			c0.36-1.36,1.76-2.16,3.11-1.8c1.36,0.36,2.16,1.76,1.8,3.11c-0.36,1.36-1.76,2.16-3.11,1.8S86.77,201.94,87.14,200.58z
			 M90.39,213.27c-1.4,0-2.54-1.14-2.54-2.54c0-1.4,1.14-2.54,2.54-2.54s2.54,1.14,2.54,2.54
			C92.93,212.13,91.79,213.27,90.39,213.27z M93.47,204.76c0.36-1.36,1.76-2.16,3.11-1.8c1.36,0.36,2.16,1.76,1.8,3.11
			s-1.76,2.16-3.11,1.8C93.91,207.51,93.11,206.12,93.47,204.76z M98,216.7c-1.4,0-2.54-1.14-2.54-2.54c0-1.4,1.14-2.54,2.54-2.54
			c1.4,0,2.54,1.14,2.54,2.54C100.54,215.57,99.4,216.7,98,216.7z M98.14,197.2c-1.4,0-2.54-1.14-2.54-2.54
			c0-1.4,1.14-2.54,2.54-2.54c1.4,0,2.54,1.14,2.54,2.54C100.68,196.06,99.54,197.2,98.14,197.2z M104.67,210.8
			c-1.4,0-2.54-1.14-2.54-2.54c0-1.4,1.14-2.54,2.54-2.54c1.4,0,2.54,1.14,2.54,2.54C107.21,209.66,106.07,210.8,104.67,210.8z
			 M105.33,202.66c-1.4,0-2.54-1.14-2.54-2.54c0-1.4,1.14-2.54,2.54-2.54c1.4,0,2.54,1.14,2.54,2.54
			C107.88,201.52,106.74,202.66,105.33,202.66z M111.77,215.09c-1.4,0-2.54-1.14-2.54-2.54s1.14-2.54,2.54-2.54
			c1.4,0,2.54,1.14,2.54,2.54S113.17,215.09,111.77,215.09z M113.31,206.44c-1.4,0-2.54-1.14-2.54-2.54c0-1.4,1.14-2.54,2.54-2.54
			c1.4,0,2.54,1.14,2.54,2.54C115.85,205.31,114.71,206.44,113.31,206.44z M118.68,218.37c-1.4,0-2.54-1.14-2.54-2.54
			c0-1.4,1.14-2.54,2.54-2.54c1.4,0,2.54,1.14,2.54,2.54C121.22,217.24,120.09,218.37,118.68,218.37z M122.1,209.16
			c-1.4,0-2.54-1.14-2.54-2.54c0-1.4,1.14-2.54,2.54-2.54c1.4,0,2.54,1.14,2.54,2.54C124.64,208.03,123.5,209.16,122.1,209.16z
			 M121.39,201.67c-1.4,0-2.54-1.14-2.54-2.54s1.14-2.54,2.54-2.54c1.4,0,2.54,1.14,2.54,2.54S122.8,201.67,121.39,201.67z
			 M123.24,188.7c0-1.4,1.14-2.54,2.54-2.54c1.4,0,2.54,1.14,2.54,2.54s-1.14,2.54-2.54,2.54
			C124.38,191.24,123.24,190.11,123.24,188.7z M129.5,216.63c-1.4,0-2.54-1.14-2.54-2.54c0-1.4,1.14-2.54,2.54-2.54
			c1.4,0,2.54,1.14,2.54,2.54C132.04,215.49,130.9,216.63,129.5,216.63z M131.63,208.27c-1.4,0-2.54-1.14-2.54-2.54
			c0-1.4,1.14-2.54,2.54-2.54c1.4,0,2.54,1.14,2.54,2.54C134.17,207.13,133.03,208.27,131.63,208.27z M138.2,219.51
			c-1.4,0-2.54-1.14-2.54-2.54c0-1.4,1.14-2.54,2.54-2.54c1.4,0,2.54,1.14,2.54,2.54C140.74,218.37,139.6,219.51,138.2,219.51z
			 M141.25,210.61c-1.4,0-2.54-1.14-2.54-2.54c0-1.4,1.14-2.54,2.54-2.54s2.54,1.14,2.54,2.54
			C143.79,209.47,142.66,210.61,141.25,210.61z M146.72,216.36c-1.4,0-2.54-1.14-2.54-2.54c0-1.4,1.14-2.54,2.54-2.54
			c1.4,0,2.54,1.14,2.54,2.54C149.26,215.22,148.12,216.36,146.72,216.36z M152,207.5c-1.4,0-2.54-1.14-2.54-2.54
			c0-1.4,1.14-2.54,2.54-2.54c1.4,0,2.54,1.14,2.54,2.54C154.54,206.37,153.41,207.5,152,207.5z M153.26,175.64
			c-1.4,0-2.54-1.14-2.54-2.54c0-1.4,1.14-2.54,2.54-2.54c1.4,0,2.54,1.14,2.54,2.54C155.8,174.5,154.66,175.64,153.26,175.64z
			 M155.38,187.1c1.4,0,2.54,1.14,2.54,2.54c0,1.4-1.14,2.54-2.54,2.54c-1.4,0-2.54-1.14-2.54-2.54
			C152.83,188.24,153.97,187.1,155.38,187.1z M156.11,197.49c0-1.4,1.14-2.54,2.54-2.54c1.4,0,2.54,1.14,2.54,2.54
			c0,1.4-1.14,2.54-2.54,2.54C157.25,200.03,156.11,198.89,156.11,197.49z M159.01,212.63c-1.4,0-2.54-1.14-2.54-2.54
			c0-1.4,1.14-2.54,2.54-2.54c1.4,0,2.54,1.14,2.54,2.54C161.55,211.49,160.41,212.63,159.01,212.63z M158.2,182.74
			c-1.4,0-2.54-1.14-2.54-2.54c0-1.4,1.14-2.54,2.54-2.54c1.4,0,2.54,1.14,2.54,2.54C160.74,181.6,159.6,182.74,158.2,182.74z
			 M162.69,204.19c0-1.4,1.14-2.54,2.54-2.54c1.4,0,2.54,1.14,2.54,2.54c0,1.4-1.14,2.54-2.54,2.54
			C163.83,206.73,162.69,205.59,162.69,204.19z M168.57,215.62c-1.4,0-2.54-1.14-2.54-2.54c0-1.4,1.14-2.54,2.54-2.54
			c1.4,0,2.54,1.14,2.54,2.54C171.11,214.49,169.97,215.62,168.57,215.62z M171.63,203.8c-1.36-0.36-2.16-1.76-1.8-3.11
			s1.76-2.16,3.11-1.8c1.36,0.36,2.16,1.76,1.8,3.11C174.38,203.36,172.99,204.16,171.63,203.8z M174.03,206.3
			c0.36-1.36,1.76-2.16,3.11-1.8c1.36,0.36,2.16,1.76,1.8,3.11c-0.36,1.36-1.76,2.16-3.11,1.8
			C174.47,209.05,173.67,207.66,174.03,206.3z M176.59,217.68c-1.4,0-2.54-1.14-2.54-2.54c0-1.4,1.14-2.54,2.54-2.54
			c1.4,0,2.54,1.14,2.54,2.54C179.13,216.54,177.99,217.68,176.59,217.68z M179.43,187.22c0.36-1.36,1.76-2.16,3.11-1.8
			c1.36,0.36,2.16,1.76,1.8,3.11s-1.76,2.16-3.11,1.8C179.88,189.97,179.07,188.58,179.43,187.22z M179.51,199.5
			c0-1.4,1.14-2.54,2.54-2.54c1.4,0,2.54,1.14,2.54,2.54c0,1.4-1.14,2.54-2.54,2.54C180.64,202.04,179.51,200.9,179.51,199.5z
			 M183.67,212.38c-1.4,0-2.54-1.14-2.54-2.54c0-1.4,1.14-2.54,2.54-2.54c1.4,0,2.54,1.14,2.54,2.54
			C186.21,211.25,185.07,212.38,183.67,212.38z M188.01,219.58c-1.4,0-2.54-1.14-2.54-2.54c0-1.4,1.14-2.54,2.54-2.54
			c1.4,0,2.54,1.14,2.54,2.54C190.55,218.45,189.41,219.58,188.01,219.58z"/>
	</g>
</g>
</svg>
