<?xml version="1.0" encoding="UTF-8" standalone="no"?>
<!-- Created with Inkscape (http://www.inkscape.org/) -->

<svg
   version="1.1"
   id="svg2"
   xml:space="preserve"
   width="361.72131"
   height="474.91333"
   viewBox="0 0 361.72131 474.91333"
   sodipodi:docname="7978f81189c04805996ce13965e595d0.ai"
   xmlns:inkscape="http://www.inkscape.org/namespaces/inkscape"
   xmlns:sodipodi="http://sodipodi.sourceforge.net/DTD/sodipodi-0.dtd"
   xmlns="http://www.w3.org/2000/svg"
   xmlns:svg="http://www.w3.org/2000/svg"><defs
     id="defs6"><clipPath
       clipPathUnits="userSpaceOnUse"
       id="clipPath28"><path
         d="M 0,356.185 H 271.291 V 0 H 0 Z"
         id="path26" /></clipPath></defs><sodipodi:namedview
     id="namedview4"
     pagecolor="#ffffff"
     bordercolor="#666666"
     borderopacity="1.0"
     inkscape:pageshadow="2"
     inkscape:pageopacity="0.0"
     inkscape:pagecheckerboard="0" /><g
     id="g8"
     inkscape:groupmode="layer"
     inkscape:label="7978f81189c04805996ce13965e595d0"
     transform="matrix(1.3333333,0,0,-1.3333333,0,474.91332)"><path
       d="M 1,85.894 H 270.291 V 355.185 H 1 Z"
       style="fill:#004778;fill-opacity:1;fill-rule:nonzero;stroke:none"
       id="path10" /><path
       d="M 0,84.893 H 271.291 V 356.185 H 0 Z M 2,354.185 H 269.291 V 86.894 H 2 Z"
       style="fill:#004778;fill-opacity:1;fill-rule:nonzero;stroke:none"
       id="path12" /><path
       d="M 1,1 H 270.291 V 86.039 H 1 Z"
       style="fill:#ffffff;fill-opacity:1;fill-rule:nonzero;stroke:none"
       id="path14" /><path
       d="M 0,0 H 271.291 V 87.039 H 0 Z M 2,85.039 H 269.291 V 2 H 2 Z"
       style="fill:#004778;fill-opacity:1;fill-rule:nonzero;stroke:none"
       id="path16" /><g
       id="g18"
       transform="translate(94.1495,48.9308)"><path
         d="m 0,0 -1.769,-8.536 h 3.538 z m -2.47,-11.89 -0.853,-4.086 H -7.226 L -1.829,5.061 H 1.829 L 7.195,-15.976 H 3.293 l -0.854,4.086 z"
         style="fill:#1d1d1b;fill-opacity:1;fill-rule:nonzero;stroke:none"
         id="path20" /></g><g
       id="g22"><g
         id="g24"
         clip-path="url(#clipPath28)"><g
           id="g30"
           transform="translate(103.0225,38.9611)"><path
             d="m 0,0 h 3.537 c 0.04,-1.036 0.248,-1.799 0.625,-2.286 0.376,-0.488 0.93,-0.732 1.661,-0.732 0.732,0 1.266,0.224 1.601,0.671 0.335,0.447 0.503,1.159 0.503,2.134 C 7.927,0.6 7.739,1.245 7.362,1.723 6.986,2.2 6.352,2.643 5.457,3.049 L 4.024,3.689 C 2.663,4.299 1.682,5.051 1.082,5.945 0.482,6.84 0.183,8.039 0.183,9.543 c 0,1.769 0.513,3.181 1.54,4.237 1.026,1.057 2.413,1.586 4.161,1.586 1.727,0 3.064,-0.523 4.01,-1.57 0.944,-1.047 1.448,-2.556 1.508,-4.527 H 7.957 C 7.937,10.224 7.77,10.94 7.454,11.418 7.14,11.896 6.616,12.134 5.884,12.134 4.522,12.134 3.842,11.331 3.842,9.726 3.842,8.994 4.009,8.41 4.345,7.973 4.68,7.536 5.244,7.145 6.036,6.799 l 1.372,-0.61 c 1.464,-0.65 2.526,-1.463 3.187,-2.439 0.66,-0.976 0.99,-2.276 0.99,-3.902 0,-1.952 -0.508,-3.455 -1.524,-4.512 -1.016,-1.057 -2.459,-1.585 -4.33,-1.585 -1.849,0 -3.261,0.538 -4.237,1.615 C 0.519,-3.557 0.021,-2.012 0,0"
             style="fill:#1d1d1b;fill-opacity:1;fill-rule:nonzero;stroke:none"
             id="path32" /></g><g
           id="g34"
           transform="translate(125.3096,47.3761)"><path
             d="m 0,0 c 0,1.117 -0.157,1.94 -0.473,2.469 -0.314,0.529 -0.868,0.793 -1.661,0.793 h -1.829 v -6.525 h 1.829 c 0.793,0 1.347,0.265 1.661,0.793 C -0.157,-1.941 0,-1.118 0,0 M 3.75,0 C 3.75,-2.236 3.298,-3.902 2.394,-5 1.489,-6.098 0.021,-6.646 -2.012,-6.646 h -1.951 v -7.775 h -3.72 V 6.615 h 5.671 C 0.062,6.615 1.54,6.066 2.424,4.969 3.309,3.872 3.75,2.215 3.75,0"
             style="fill:#1d1d1b;fill-opacity:1;fill-rule:nonzero;stroke:none"
             id="path36" /></g><g
           id="g38"
           transform="translate(143.2364,32.9552)"><path
             d="M 0,0 H -3.749 V 9.024 H -7.713 V 0 h -3.75 v 21.036 h 3.75 v -8.658 h 3.964 v 8.658 H 0 Z"
             style="fill:#1d1d1b;fill-opacity:1;fill-rule:nonzero;stroke:none"
             id="path40" /></g><g
           id="g42"
           transform="translate(152.8409,48.9308)"><path
             d="m 0,0 -1.769,-8.536 h 3.538 z m -2.47,-11.89 -0.853,-4.086 H -7.226 L -1.829,5.061 H 1.829 L 7.195,-15.976 H 3.293 l -0.854,4.086 z"
             style="fill:#1d1d1b;fill-opacity:1;fill-rule:nonzero;stroke:none"
             id="path44" /></g><g
           id="g46"
           transform="translate(166.1651,53.9914)"><path
             d="m 0,0 v -17.683 h 5.641 v -3.353 H -3.75 V 0 Z"
             style="fill:#1d1d1b;fill-opacity:1;fill-rule:nonzero;stroke:none"
             id="path48" /></g><g
           id="g50"
           transform="translate(180.7393,50.6076)"><path
             d="M 0,0 V -17.652 H -3.72 V 0 H -7.378 V 3.384 H 3.628 V 0 Z"
             style="fill:#1d1d1b;fill-opacity:1;fill-rule:nonzero;stroke:none"
             id="path52" /></g></g></g><g
       id="g54"
       transform="translate(169.4424,236.1725)"><path
         d="M 0,0 H 5.496 L -8.06,-21.072 h -7.084 z m -23.195,-32.278 h 7.927 L -31.591,-57.652 H 73.682 L 45.094,26.386 H 22.471 L 11.804,9.804 H 7.046 L 18.962,26.386 H -4.023 l -137.252,-84.038 h 99.845 z"
         style="fill:#ffffff;fill-opacity:1;fill-rule:nonzero;stroke:none"
         id="path56" /></g></g></svg>
