<?xml version="1.0" encoding="UTF-8" standalone="no"?>
<svg
   xmlns:dc="http://purl.org/dc/elements/1.1/"
   xmlns:cc="http://creativecommons.org/ns#"
   xmlns:rdf="http://www.w3.org/1999/02/22-rdf-syntax-ns#"
   xmlns:svg="http://www.w3.org/2000/svg"
   xmlns="http://www.w3.org/2000/svg"
   xmlns:sodipodi="http://sodipodi.sourceforge.net/DTD/sodipodi-0.dtd"
   xmlns:inkscape="http://www.inkscape.org/namespaces/inkscape"
   version="1.1"
   id="svg2"
   xml:space="preserve"
   width="361.72134"
   height="474.91333"
   viewBox="0 0 361.72134 474.91333"
   sodipodi:docname="batteries.ai"><metadata
     id="metadata8"><rdf:RDF><cc:Work
         rdf:about=""><dc:format>image/svg+xml</dc:format><dc:type
           rdf:resource="http://purl.org/dc/dcmitype/StillImage" /></cc:Work></rdf:RDF></metadata><defs
     id="defs6"><clipPath
       clipPathUnits="userSpaceOnUse"
       id="clipPath26"><path
         d="M 0,356.185 H 271.291 V 0 H 0 Z"
         id="path24" /></clipPath></defs><sodipodi:namedview
     pagecolor="#ffffff"
     bordercolor="#666666"
     borderopacity="1"
     objecttolerance="10"
     gridtolerance="10"
     guidetolerance="10"
     inkscape:pageopacity="0"
     inkscape:pageshadow="2"
     inkscape:window-width="640"
     inkscape:window-height="480"
     id="namedview4" /><g
     id="g10"
     inkscape:groupmode="layer"
     inkscape:label="batteries"
     transform="matrix(1.3333333,0,0,-1.3333333,0,474.91333)"><path
       d="M 1,85.894 H 270.291 V 355.185 H 1 Z"
       style="fill:#f18800;fill-opacity:1;fill-rule:nonzero;stroke:none"
       id="path12" /><path
       d="M 0,84.893 H 271.291 V 356.185 L 0,356.185 Z M 2,354.185 H 269.291 V 86.894 H 2 Z"
       style="fill:#f18800;fill-opacity:1;fill-rule:nonzero;stroke:none"
       id="path14" /><path
       d="M 1,1.04 H 270.291 V 86.079 L 1,86.079 Z"
       style="fill:#ffffff;fill-opacity:1;fill-rule:nonzero;stroke:none"
       id="path16" /><path
       d="M 0,0.04 H 271.291 V 87.079 L 0,87.079 Z M 2,85.079 H 269.291 V 2.041 L 2,2.041 Z"
       style="fill:#f18800;fill-opacity:1;fill-rule:nonzero;stroke:none"
       id="path18" /><g
       id="g20"><g
         id="g22"
         clip-path="url(#clipPath26)"><g
           id="g28"
           transform="translate(86.9546,39.3673)"><path
             d="M 0,0 C 0,1.057 -0.188,1.819 -0.564,2.286 -0.94,2.754 -1.565,2.987 -2.439,2.987 h -1.555 v -6.006 h 1.555 c 0.934,0 1.575,0.229 1.92,0.687 C -0.173,-1.875 0,-1.098 0,0 m -3.994,6.22 h 1.585 c 0.874,0 1.484,0.198 1.829,0.593 0.346,0.397 0.518,1.042 0.518,1.937 0,0.935 -0.172,1.596 -0.518,1.981 -0.345,0.386 -0.955,0.58 -1.829,0.58 h -1.585 z m 7.743,-6.494 c 0,-2.134 -0.436,-3.684 -1.311,-4.65 -0.874,-0.965 -2.357,-1.448 -4.451,-1.448 h -5.701 v 21.036 h 5.701 c 2.053,0 3.517,-0.452 4.391,-1.356 0.874,-0.905 1.31,-2.343 1.31,-4.314 C 3.688,7.957 3.516,7.073 3.17,6.341 2.824,5.609 2.235,5.051 1.402,4.664 2.316,4.258 2.937,3.658 3.262,2.866 3.587,2.073 3.749,1.026 3.749,-0.274"
             style="fill:#1d1d1b;fill-opacity:1;fill-rule:nonzero;stroke:none"
             id="path30" /></g><g
           id="g32"
           transform="translate(100.1861,48.9709)"><path
             d="m 0,0 -1.769,-8.536 h 3.538 z m -2.47,-11.89 -0.853,-4.086 H -7.226 L -1.829,5.061 H 1.829 L 7.195,-15.976 H 3.293 l -0.854,4.086 z"
             style="fill:#1d1d1b;fill-opacity:1;fill-rule:nonzero;stroke:none"
             id="path34" /></g><g
           id="g36"
           transform="translate(115.98,50.6476)"><path
             d="M 0,0 V -17.652 H -3.72 V 0 H -7.378 V 3.384 H 3.628 V 0 Z"
             style="fill:#1d1d1b;fill-opacity:1;fill-rule:nonzero;stroke:none"
             id="path38" /></g><g
           id="g40"
           transform="translate(128.1451,50.6476)"><path
             d="M 0,0 V -17.652 H -3.72 V 0 H -7.378 V 3.384 H 3.628 V 0 Z"
             style="fill:#1d1d1b;fill-opacity:1;fill-rule:nonzero;stroke:none"
             id="path42" /></g><g
           id="g44"
           transform="translate(137.8106,45.3732)"><path
             d="M 0,0 H 4.878 V -3.354 H 0 v -5.67 h 5.671 v -3.354 H -3.72 V 8.658 H 5.671 V 5.274 L 0,5.274 Z"
             style="fill:#1d1d1b;fill-opacity:1;fill-rule:nonzero;stroke:none"
             id="path46" /></g><g
           id="g48"
           transform="translate(152.1407,44.7941)"><path
             d="M 0,0 C 0.752,0 1.271,0.249 1.555,0.747 1.84,1.245 1.981,1.981 1.981,2.957 1.981,3.933 1.845,4.664 1.57,5.152 1.296,5.64 0.772,5.884 0,5.884 H -1.951 V 0 Z m -1.951,-3.354 v -8.445 h -3.75 V 9.237 H 0.03 C 2.104,9.237 3.572,8.739 4.436,7.743 5.3,6.748 5.731,5.152 5.731,2.957 5.731,1.555 5.539,0.386 5.152,-0.549 4.767,-1.483 4.136,-2.185 3.262,-2.652 l 3.14,-9.147 H 2.5 l -2.652,8.445 z"
             style="fill:#1d1d1b;fill-opacity:1;fill-rule:nonzero;stroke:none"
             id="path50" /></g><path
           d="m 165.221,32.995 h -3.72 v 21.036 h 3.72 z"
           style="fill:#1d1d1b;fill-opacity:1;fill-rule:nonzero;stroke:none"
           id="path52" /><g
           id="g54"
           transform="translate(172.5381,45.3732)"><path
             d="M 0,0 H 4.878 V -3.354 H 0 v -5.67 h 5.671 v -3.354 H -3.72 V 8.658 H 5.671 V 5.274 L 0,5.274 Z"
             style="fill:#1d1d1b;fill-opacity:1;fill-rule:nonzero;stroke:none"
             id="path56" /></g><g
           id="g58"
           transform="translate(180.4659,39.0011)"><path
             d="m 0,0 h 3.537 c 0.04,-1.036 0.248,-1.799 0.625,-2.286 0.376,-0.488 0.93,-0.732 1.661,-0.732 0.732,0 1.266,0.224 1.601,0.671 0.335,0.447 0.503,1.159 0.503,2.134 C 7.927,0.6 7.739,1.245 7.362,1.723 6.986,2.2 6.352,2.643 5.457,3.049 L 4.024,3.689 C 2.663,4.299 1.682,5.051 1.082,5.945 0.482,6.84 0.183,8.039 0.183,9.543 c 0,1.769 0.513,3.181 1.54,4.237 1.026,1.057 2.413,1.586 4.161,1.586 1.727,0 3.064,-0.523 4.01,-1.57 0.944,-1.047 1.448,-2.556 1.508,-4.527 H 7.957 C 7.937,10.224 7.77,10.94 7.454,11.418 7.14,11.896 6.616,12.134 5.884,12.134 4.522,12.134 3.842,11.331 3.842,9.726 3.842,8.994 4.009,8.41 4.345,7.973 4.68,7.536 5.244,7.145 6.036,6.799 l 1.372,-0.61 c 1.464,-0.65 2.526,-1.463 3.187,-2.439 0.66,-0.976 0.99,-2.276 0.99,-3.902 0,-1.952 -0.508,-3.455 -1.524,-4.512 -1.016,-1.057 -2.459,-1.585 -4.33,-1.585 -1.849,0 -3.261,0.538 -4.237,1.615 C 0.519,-3.557 0.021,-2.012 0,0"
             style="fill:#1d1d1b;fill-opacity:1;fill-rule:nonzero;stroke:none"
             id="path60" /></g></g></g><g
       id="g62"
       transform="translate(135.6444,279.9351)"><path
         d="M 0,0 H -1.697 V -0.019 H 1.698 V 0 Z"
         style="fill:#ffffff;fill-opacity:1;fill-rule:nonzero;stroke:none"
         id="path64" /></g><g
       id="g66"
       transform="translate(125.0381,152.6652)"><path
         d="M 0,0 V 0.04 H 21.215 V -4.203 H 0 v 0.808 z m 0,119.14 h 8.486 v 8.111 h 4.243 v -8.111 h 8.486 v -4.618 h -8.486 v -8.486 H 8.486 v 8.486 H 0 Z M -21.216,-21.231 H 42.43 v 165.525 h -63.646 z"
         style="fill:#ffffff;fill-opacity:1;fill-rule:nonzero;stroke:none"
         id="path68" /></g><path
       d="m 120.795,301.202 h 29.701 v 8.443 h -29.701 z"
       style="fill:#ffffff;fill-opacity:1;fill-rule:nonzero;stroke:none"
       id="path70" /></g></svg>
