<?xml version="1.0" encoding="utf-8"?>
<!-- Generator: Adobe Illustrator 25.4.1, SVG Export Plug-In . SVG Version: 6.00 Build 0)  -->
<svg version="1.1" xmlns="http://www.w3.org/2000/svg" xmlns:xlink="http://www.w3.org/1999/xlink" x="0px" y="0px"
	 viewBox="0 0 271.29 356.19" style="enable-background:new 0 0 271.29 356.19;" xml:space="preserve">
<style type="text/css">
	.st0{fill:#F18700;}
	.st1{fill:#FFFFFF;}
</style>
<g id="bakgrund">
	<g>
		<rect x="1" y="1" class="st0" width="269.29" height="269.29"/>
		<path class="st0" d="M271.29,271.29H0V0h271.29V271.29z M2,269.29h267.29V2H2V269.29z"/>
	</g>
	<rect x="1" y="270.11" class="st1" width="269.29" height="85.04"/>
	<path class="st0" d="M271.29,356.14H0v-87.04h271.29V356.14z M2,354.14h267.29v-83.04H2V354.14z"/>
</g>
<g id="namn">
	<g>
		<path d="M90.7,317.09c0,2.13-0.44,3.68-1.31,4.65c-0.87,0.96-2.36,1.45-4.45,1.45h-5.7v-21.04h5.7c2.05,0,3.52,0.45,4.39,1.36
			s1.31,2.34,1.31,4.31c0,1.04-0.17,1.92-0.52,2.65c-0.35,0.73-0.93,1.29-1.77,1.68c0.91,0.41,1.53,1.01,1.86,1.8
			C90.54,314.74,90.7,315.79,90.7,317.09z M82.96,310.6h1.58c0.87,0,1.48-0.2,1.83-0.59c0.35-0.4,0.52-1.04,0.52-1.94
			c0-0.93-0.17-1.6-0.52-1.98c-0.34-0.39-0.96-0.58-1.83-0.58h-1.58V310.6z M86.95,316.82c0-1.06-0.19-1.82-0.56-2.29
			c-0.38-0.47-1-0.7-1.88-0.7h-1.55v6.01h1.55c0.93,0,1.58-0.23,1.92-0.69C86.78,318.69,86.95,317.92,86.95,316.82z"/>
		<path d="M97.72,319.1l-0.85,4.09h-3.9l5.4-21.04h3.66l5.37,21.04h-3.9l-0.85-4.09H97.72z M100.19,307.21l-1.77,8.54h3.54
			L100.19,307.21z"/>
		<path d="M115.98,305.54v17.65h-3.72v-17.65h-3.66v-3.38h11.01v3.38H115.98z"/>
		<path d="M128.15,305.54v17.65h-3.72v-17.65h-3.66v-3.38h11.01v3.38H128.15z"/>
		<path d="M137.81,310.81h4.88v3.35h-4.88v5.67h5.67v3.35h-9.39v-21.04h9.39v3.38h-5.67V310.81z"/>
		<path d="M150.19,314.74v8.45h-3.75v-21.04h5.73c2.07,0,3.54,0.5,4.41,1.49c0.86,1,1.3,2.59,1.3,4.79c0,1.4-0.19,2.57-0.58,3.51
			c-0.39,0.93-1.02,1.64-1.89,2.1l3.14,9.15h-3.9l-2.65-8.45H150.19z M152.14,311.39c0.75,0,1.27-0.25,1.55-0.75
			c0.29-0.5,0.43-1.23,0.43-2.21s-0.14-1.71-0.41-2.2c-0.27-0.49-0.8-0.73-1.57-0.73h-1.95v5.88H152.14z"/>
		<path d="M165.22,302.15v21.04h-3.72v-21.04H165.22z"/>
		<path d="M172.54,310.81h4.88v3.35h-4.88v5.67h5.67v3.35h-9.39v-21.04h9.39v3.38h-5.67V310.81z"/>
		<path d="M180.47,317.18H184c0.04,1.04,0.25,1.8,0.62,2.29c0.38,0.49,0.93,0.73,1.66,0.73s1.27-0.22,1.6-0.67
			c0.33-0.45,0.5-1.16,0.5-2.13c0-0.81-0.19-1.46-0.56-1.94c-0.38-0.48-1.01-0.92-1.91-1.33l-1.43-0.64
			c-1.36-0.61-2.34-1.36-2.94-2.26s-0.9-2.09-0.9-3.6c0-1.77,0.51-3.18,1.54-4.24s2.41-1.59,4.16-1.59c1.73,0,3.06,0.52,4.01,1.57
			c0.94,1.05,1.45,2.56,1.51,4.53h-3.45c-0.02-0.96-0.19-1.67-0.5-2.15c-0.31-0.48-0.84-0.72-1.57-0.72c-1.36,0-2.04,0.8-2.04,2.41
			c0,0.73,0.17,1.32,0.5,1.75c0.33,0.44,0.9,0.83,1.69,1.17l1.37,0.61c1.46,0.65,2.53,1.46,3.19,2.44c0.66,0.98,0.99,2.28,0.99,3.9
			c0,1.95-0.51,3.46-1.52,4.51c-1.02,1.06-2.46,1.58-4.33,1.58c-1.85,0-3.26-0.54-4.24-1.62S180.49,319.2,180.47,317.18z"/>
	</g>
</g>
<g id="ikon">
	<g>
		<g>
			<polygon class="st1" points="137.34,76.25 135.64,76.25 133.95,76.25 133.95,76.27 137.34,76.27 			"/>
			<path class="st1" d="M103.82,224.75h63.65V59.23h-63.65V224.75z M125.04,84.38h8.49v-8.11h4.24v8.11h8.49l0,4.62h-8.49v8.49
				h-4.24V89h-8.49L125.04,84.38z M125.04,203.52v-0.04h21.22v4.24h-21.22v-0.81V203.52z"/>
			<rect x="120.79" y="46.54" class="st1" width="29.7" height="8.44"/>
		</g>
	</g>
</g>
</svg>
