<?xml version="1.0" encoding="utf-8"?>
<!-- Generator: Adobe Illustrator 25.4.1, SVG Export Plug-In . SVG Version: 6.00 Build 0)  -->
<svg version="1.1" xmlns="http://www.w3.org/2000/svg" xmlns:xlink="http://www.w3.org/1999/xlink" x="0px" y="0px"
	 viewBox="0 0 271.29 356.19" style="enable-background:new 0 0 271.29 356.19;" xml:space="preserve">
<style type="text/css">
	.st0{fill:#007EBF;}
	.st1{fill:#FFFFFF;}
	.st2{fill:none;stroke:#007EBF;stroke-width:0;stroke-linecap:round;stroke-linejoin:round;}
</style>
<g id="bakgrund">
	<g>
		<rect x="1" y="1" class="st0" width="269.29" height="269.29"/>
		<path class="st0" d="M271.29,271.29H0V0h271.29V271.29z M2,269.29h267.29V2H2V269.29z"/>
	</g>
	<g>
		<rect x="1" y="270.05" class="st1" width="269.29" height="85.04"/>
		<path class="st0" d="M271.29,356.09H0v-87.04h271.29V356.09z M2,354.09h267.29v-83.04H2V354.09z"/>
	</g>
</g>
<g id="namn">
	<g>
		<path d="M111.6,317.04c0,2.13-0.44,3.68-1.31,4.65c-0.87,0.96-2.36,1.45-4.45,1.45h-5.7V302.1h5.7c2.05,0,3.52,0.45,4.39,1.36
			s1.31,2.34,1.31,4.31c0,1.04-0.17,1.92-0.52,2.65c-0.35,0.73-0.93,1.29-1.77,1.68c0.91,0.41,1.53,1.01,1.86,1.8
			C111.44,314.69,111.6,315.74,111.6,317.04z M103.86,310.54h1.58c0.87,0,1.48-0.2,1.83-0.59c0.35-0.4,0.52-1.04,0.52-1.94
			c0-0.93-0.17-1.6-0.52-1.98c-0.34-0.39-0.96-0.58-1.83-0.58h-1.58V310.54z M107.85,316.76c0-1.06-0.19-1.82-0.56-2.29
			c-0.38-0.47-1-0.7-1.88-0.7h-1.55v6.01h1.55c0.93,0,1.58-0.23,1.92-0.69C107.68,318.64,107.85,317.86,107.85,316.76z"/>
		<path d="M114.84,317.34v-9.48c0-1.99,0.56-3.5,1.68-4.53c1.12-1.03,2.59-1.54,4.42-1.54c1.77,0,3.19,0.51,4.25,1.54
			s1.6,2.54,1.6,4.53v9.48c0,1.95-0.56,3.45-1.69,4.48c-1.13,1.04-2.59,1.55-4.37,1.55c-1.81,0-3.24-0.51-4.3-1.54
			C115.36,320.81,114.84,319.31,114.84,317.34z M123.04,316.92v-8.44c0-1.08-0.18-1.9-0.55-2.46c-0.37-0.56-0.91-0.84-1.65-0.84
			c-0.79,0-1.37,0.27-1.72,0.82c-0.36,0.55-0.53,1.37-0.53,2.47v8.44c0,2.05,0.75,3.08,2.26,3.08c0.71,0,1.26-0.27,1.63-0.81
			C122.85,318.65,123.04,317.89,123.04,316.92z"/>
		<path d="M130.02,317.34v-9.48c0-1.99,0.56-3.5,1.68-4.53c1.12-1.03,2.59-1.54,4.42-1.54c1.77,0,3.19,0.51,4.25,1.54
			s1.6,2.54,1.6,4.53v9.48c0,1.95-0.56,3.45-1.69,4.48c-1.13,1.04-2.59,1.55-4.37,1.55c-1.81,0-3.24-0.51-4.3-1.54
			C130.55,320.81,130.02,319.31,130.02,317.34z M138.22,316.92v-8.44c0-1.08-0.18-1.9-0.55-2.46c-0.37-0.56-0.91-0.84-1.65-0.84
			c-0.79,0-1.37,0.27-1.72,0.82c-0.36,0.55-0.53,1.37-0.53,2.47v8.44c0,2.05,0.75,3.08,2.26,3.08c0.71,0,1.26-0.27,1.63-0.81
			C138.03,318.65,138.22,317.89,138.22,316.92z"/>
		<path d="M149.05,318.38v4.76h-3.72V302.1h3.72v9.91l4.48-9.91h3.75l-4.39,8.66l5.06,12.38h-3.99l-3.2-8.14L149.05,318.38z"/>
		<path d="M159.56,317.13h3.54c0.04,1.04,0.25,1.8,0.62,2.29c0.38,0.49,0.93,0.73,1.66,0.73s1.27-0.22,1.6-0.67
			c0.33-0.45,0.5-1.16,0.5-2.13c0-0.81-0.19-1.46-0.56-1.94c-0.38-0.48-1.01-0.92-1.91-1.33l-1.43-0.64
			c-1.36-0.61-2.34-1.36-2.94-2.26s-0.9-2.09-0.9-3.6c0-1.77,0.51-3.18,1.54-4.24s2.41-1.59,4.16-1.59c1.73,0,3.06,0.52,4.01,1.57
			c0.94,1.05,1.45,2.56,1.51,4.53h-3.45c-0.02-0.96-0.19-1.67-0.5-2.15c-0.31-0.48-0.84-0.72-1.57-0.72c-1.36,0-2.04,0.8-2.04,2.41
			c0,0.73,0.17,1.32,0.5,1.75c0.33,0.44,0.9,0.83,1.69,1.17l1.37,0.61c1.46,0.65,2.53,1.46,3.19,2.44c0.66,0.98,0.99,2.28,0.99,3.9
			c0,1.95-0.51,3.46-1.52,4.51c-1.02,1.06-2.46,1.58-4.33,1.58c-1.85,0-3.26-0.54-4.24-1.62S159.59,319.14,159.56,317.13z"/>
	</g>
</g>
<g id="ikon">
	<g>
		<path class="st1" d="M225.46,76.98V189.1c-1.19-0.28-2.39-0.55-3.59-0.81c-13.49-2.9-27.31-4.36-41.35-4.36
			c-14.64,0-29.04,1.59-43.07,4.74l0,0c-0.6,0.13-1.2,0.27-1.8,0.41c-0.6-0.14-1.2-0.28-1.8-0.41l0,0
			c-14.03-3.15-28.43-4.74-43.07-4.74c-14.04,0-27.86,1.46-41.35,4.36c-1.2,0.26-2.4,0.53-3.59,0.81v0v0V76.98h-8.98v118.19h87.42
			c2.02,4.26,6.35,7.2,11.37,7.2c5.02,0,9.35-2.94,11.37-7.2h87.42V76.98H225.46z"/>
		<path class="st1" d="M90.78,68.92c-14.04,0-27.86,1.46-41.35,4.36v111.35c0.39-0.08,0.78-0.16,1.17-0.24
			c13.14-2.69,26.65-4.05,40.18-4.05c13.53,0,27.04,1.36,40.18,4.05c0.97,0.2,1.93,0.4,2.89,0.62l0,0V73.66h0
			C119.82,70.51,105.42,68.92,90.78,68.92z"/>
		<path class="st1" d="M137.44,73.66V185c0.96-0.21,1.93-0.42,2.89-0.62c13.14-2.69,26.65-4.05,40.18-4.05
			c13.53,0,27.04,1.36,40.18,4.05c0.39,0.08,0.78,0.16,1.17,0.24V73.28c-13.49-2.9-27.31-4.36-41.35-4.36
			C165.87,68.92,151.48,70.51,137.44,73.66z"/>
		<line class="st2" x1="45.84" y1="189.1" x2="45.84" y2="189.1"/>
	</g>
</g>
</svg>
