<?xml version="1.0" encoding="UTF-8" standalone="no"?>
<svg
   xmlns:dc="http://purl.org/dc/elements/1.1/"
   xmlns:cc="http://creativecommons.org/ns#"
   xmlns:rdf="http://www.w3.org/1999/02/22-rdf-syntax-ns#"
   xmlns:svg="http://www.w3.org/2000/svg"
   xmlns="http://www.w3.org/2000/svg"
   xmlns:sodipodi="http://sodipodi.sourceforge.net/DTD/sodipodi-0.dtd"
   xmlns:inkscape="http://www.inkscape.org/namespaces/inkscape"
   version="1.1"
   id="svg2"
   xml:space="preserve"
   width="361.72134"
   height="474.91333"
   viewBox="0 0 361.72134 474.91333"
   sodipodi:docname="cardboard.ai"><metadata
     id="metadata8"><rdf:RDF><cc:Work
         rdf:about=""><dc:format>image/svg+xml</dc:format><dc:type
           rdf:resource="http://purl.org/dc/dcmitype/StillImage" /></cc:Work></rdf:RDF></metadata><defs
     id="defs6"><clipPath
       clipPathUnits="userSpaceOnUse"
       id="clipPath26"><path
         d="M 0,356.185 H 271.291 V 0 H 0 Z"
         id="path24" /></clipPath></defs><sodipodi:namedview
     pagecolor="#ffffff"
     bordercolor="#666666"
     borderopacity="1"
     objecttolerance="10"
     gridtolerance="10"
     guidetolerance="10"
     inkscape:pageopacity="0"
     inkscape:pageshadow="2"
     inkscape:window-width="640"
     inkscape:window-height="480"
     id="namedview4" /><g
     id="g10"
     inkscape:groupmode="layer"
     inkscape:label="cardboard"
     transform="matrix(1.3333333,0,0,-1.3333333,0,474.91333)"><path
       d="M 1,0.855 H 270.291 V 85.893 H 1 Z"
       style="fill:#ffffff;fill-opacity:1;fill-rule:nonzero;stroke:none"
       id="path12" /><path
       d="M 0,0 H 271.291 V 86.894 H 0 Z M 2,84.893 H 269.291 V 1.855 L 2,1.855 Z"
       style="fill:#c3a166;fill-opacity:1;fill-rule:nonzero;stroke:none"
       id="path14" /><path
       d="M 1,85.894 H 270.291 V 355.186 H 1 Z"
       style="fill:#c3a166;fill-opacity:1;fill-rule:nonzero;stroke:none"
       id="path16" /><path
       d="M 0,84.893 H 271.291 V 356.185 L 0,356.185 Z M 2,354.185 H 269.291 V 86.894 H 2 Z"
       style="fill:#c3a166;fill-opacity:1;fill-rule:nonzero;stroke:none"
       id="path18" /><g
       id="g20"><g
         id="g22"
         clip-path="url(#clipPath26)"><g
           id="g28"
           transform="translate(68.0821,38.8136)"><path
             d="m 0,0 v 9.481 c 0,1.992 0.56,3.501 1.677,4.528 1.118,1.026 2.592,1.539 4.421,1.539 1.748,0 3.16,-0.508 4.237,-1.525 1.078,-1.015 1.616,-2.56 1.616,-4.633 V 8.75 h -3.75 v 0.609 c 0,0.955 -0.198,1.662 -0.595,2.12 -0.395,0.457 -0.929,0.685 -1.6,0.685 C 5.214,12.164 4.64,11.89 4.284,11.341 3.928,10.792 3.75,9.969 3.75,8.871 V 0.427 c 0,-2.053 0.752,-3.079 2.256,-3.079 0.671,0 1.205,0.233 1.6,0.701 0.397,0.468 0.595,1.158 0.595,2.073 v 0.549 h 3.72 v -0.58 c 0,-2.032 -0.565,-3.562 -1.692,-4.588 -1.128,-1.026 -2.577,-1.539 -4.344,-1.539 -1.81,0 -3.242,0.513 -4.299,1.539 C 0.528,-3.471 0,-1.972 0,0"
             style="fill:#1d1d1b;fill-opacity:1;fill-rule:nonzero;stroke:none"
             id="path30" /></g><g
           id="g32"
           transform="translate(89.5157,48.9962)"><path
             d="m 0,0 -1.769,-8.536 h 3.538 z m -2.47,-11.89 -0.853,-4.086 H -7.226 L -1.829,5.061 H 1.829 L 7.195,-15.976 H 3.293 l -0.854,4.086 z"
             style="fill:#1d1d1b;fill-opacity:1;fill-rule:nonzero;stroke:none"
             id="path34" /></g><g
           id="g36"
           transform="translate(104.7911,44.8195)"><path
             d="M 0,0 C 0.752,0 1.271,0.249 1.555,0.747 1.84,1.245 1.981,1.981 1.981,2.957 1.981,3.933 1.845,4.664 1.57,5.152 1.296,5.64 0.772,5.884 0,5.884 H -1.951 V 0 Z m -1.951,-3.354 v -8.445 h -3.75 V 9.237 H 0.03 C 2.104,9.237 3.572,8.739 4.436,7.743 5.3,6.748 5.731,5.152 5.731,2.957 5.731,1.555 5.538,0.386 5.152,-0.549 4.767,-1.483 4.136,-2.185 3.263,-2.652 l 3.139,-9.147 H 2.5 l -2.652,8.445 z"
             style="fill:#1d1d1b;fill-opacity:1;fill-rule:nonzero;stroke:none"
             id="path38" /></g><g
           id="g40"
           transform="translate(121.3926,37.1974)"><path
             d="m 0,0 c 0.376,0.549 0.563,1.312 0.563,2.287 v 7.896 c 0,1.077 -0.182,1.895 -0.548,2.454 -0.366,0.559 -0.914,0.839 -1.647,0.839 H -3.644 V -0.823 h 2.012 C -0.92,-0.823 -0.377,-0.549 0,0 m -1.54,16.859 c 1.769,0 3.186,-0.507 4.253,-1.524 1.067,-1.016 1.6,-2.521 1.6,-4.512 V 1.86 c 0,-1.971 -0.558,-3.47 -1.676,-4.497 -1.118,-1.026 -2.572,-1.54 -4.36,-1.54 h -5.64 v 21.036 z"
             style="fill:#1d1d1b;fill-opacity:1;fill-rule:nonzero;stroke:none"
             id="path42" /></g><g
           id="g44"
           transform="translate(136.7745,39.3927)"><path
             d="M 0,0 C 0,1.057 -0.188,1.819 -0.564,2.286 -0.94,2.754 -1.565,2.987 -2.439,2.987 h -1.555 v -6.006 h 1.555 c 0.934,0 1.575,0.229 1.92,0.687 C -0.173,-1.875 0,-1.098 0,0 m -3.994,6.22 h 1.585 c 0.874,0 1.484,0.198 1.829,0.593 0.346,0.397 0.518,1.042 0.518,1.937 0,0.935 -0.172,1.596 -0.518,1.981 -0.345,0.386 -0.955,0.58 -1.829,0.58 h -1.585 z m 7.743,-6.494 c 0,-2.134 -0.436,-3.684 -1.311,-4.65 -0.874,-0.965 -2.357,-1.448 -4.451,-1.448 h -5.701 v 21.036 h 5.701 c 2.053,0 3.517,-0.452 4.391,-1.356 0.874,-0.905 1.31,-2.343 1.31,-4.314 C 3.688,7.957 3.516,7.073 3.17,6.341 2.824,5.609 2.235,5.051 1.402,4.664 2.316,4.258 2.937,3.658 3.262,2.866 3.587,2.073 3.749,1.026 3.749,-0.274"
             style="fill:#1d1d1b;fill-opacity:1;fill-rule:nonzero;stroke:none"
             id="path46" /></g><g
           id="g48"
           transform="translate(151.9571,39.2404)"><path
             d="m 0,0 v 8.444 c 0,1.078 -0.183,1.896 -0.549,2.455 -0.365,0.559 -0.914,0.838 -1.646,0.838 -0.792,0 -1.367,-0.274 -1.722,-0.823 -0.356,-0.549 -0.534,-1.372 -0.534,-2.47 V 0 c 0,-2.053 0.752,-3.079 2.256,-3.079 0.712,0 1.256,0.269 1.632,0.808 C -0.187,-1.732 0,-0.976 0,0 m -8.201,-0.427 v 9.482 c 0,1.991 0.559,3.501 1.677,4.527 1.118,1.026 2.591,1.539 4.42,1.539 1.769,0 3.186,-0.513 4.253,-1.539 C 3.217,12.556 3.75,11.046 3.75,9.055 v -9.482 c 0,-1.951 -0.563,-3.445 -1.692,-4.481 -1.128,-1.037 -2.586,-1.555 -4.374,-1.555 -1.81,0 -3.243,0.513 -4.299,1.539 -1.058,1.027 -1.586,2.526 -1.586,4.497"
             style="fill:#1d1d1b;fill-opacity:1;fill-rule:nonzero;stroke:none"
             id="path50" /></g><g
           id="g52"
           transform="translate(165.1895,48.9962)"><path
             d="m 0,0 -1.769,-8.536 h 3.538 z m -2.47,-11.89 -0.853,-4.086 H -7.226 L -1.829,5.061 H 1.829 L 7.195,-15.976 H 3.293 l -0.854,4.086 z"
             style="fill:#1d1d1b;fill-opacity:1;fill-rule:nonzero;stroke:none"
             id="path54" /></g><g
           id="g56"
           transform="translate(180.4649,44.8195)"><path
             d="M 0,0 C 0.752,0 1.271,0.249 1.555,0.747 1.84,1.245 1.981,1.981 1.981,2.957 1.981,3.933 1.845,4.664 1.57,5.152 1.296,5.64 0.772,5.884 0,5.884 H -1.951 V 0 Z m -1.951,-3.354 v -8.445 h -3.75 V 9.237 H 0.03 C 2.104,9.237 3.572,8.739 4.436,7.743 5.3,6.748 5.731,5.152 5.731,2.957 5.731,1.555 5.538,0.386 5.152,-0.549 4.767,-1.483 4.136,-2.185 3.263,-2.652 l 3.139,-9.147 H 2.5 l -2.652,8.445 z"
             style="fill:#1d1d1b;fill-opacity:1;fill-rule:nonzero;stroke:none"
             id="path58" /></g><g
           id="g60"
           transform="translate(197.0665,37.1974)"><path
             d="m 0,0 c 0.376,0.549 0.563,1.312 0.563,2.287 v 7.896 c 0,1.077 -0.182,1.895 -0.548,2.454 -0.366,0.559 -0.914,0.839 -1.647,0.839 H -3.644 V -0.823 h 2.012 C -0.92,-0.823 -0.377,-0.549 0,0 m -1.54,16.859 c 1.769,0 3.186,-0.507 4.253,-1.524 1.067,-1.016 1.6,-2.521 1.6,-4.512 V 1.86 c 0,-1.971 -0.558,-3.47 -1.676,-4.497 -1.118,-1.026 -2.572,-1.54 -4.36,-1.54 h -5.64 v 21.036 z"
             style="fill:#1d1d1b;fill-opacity:1;fill-rule:nonzero;stroke:none"
             id="path62" /></g></g></g><g
       id="g64"
       transform="translate(188.1475,269.1798)"><path
         d="m 0,0 29.004,26.001 h -113.88 v -45.024 h 63.654 l 12.317,11.04 z"
         style="fill:#ffffff;fill-opacity:1;fill-rule:nonzero;stroke:none"
         id="path66" /></g><g
       id="g68"
       transform="translate(99.6124,250.1564)"><path
         d="M 0,0 V 43.865 L -48.931,0 v 0 z"
         style="fill:#ffffff;fill-opacity:1;fill-rule:nonzero;stroke:none"
         id="path70" /></g><g
       id="g72"
       transform="translate(48.9322,205.3996)"><path
         d="m 0,0 v 0 -59.502 h 115.494 v 94.216 0.175 L 101.195,0 Z"
         style="fill:#ffffff;fill-opacity:1;fill-rule:nonzero;stroke:none"
         id="path74" /></g><g
       id="g76"
       transform="translate(157.128,231.9313)"><path
         d="m 0,0 5.931,14.472 -115.258,-0.039 -12.319,-29.969 -3.064,-7.451 115.305,0.039 z"
         style="fill:#ffffff;fill-opacity:1;fill-rule:nonzero;stroke:none"
         id="path78" /></g><g
       id="g80"
       transform="translate(218.8477,237.6818)"><path
         d="m 0,0 v 0 l -32.187,-28.854 -14.472,25.185 -3.759,6.54 V -90.437 L -34.89,-76.516 0,-45.238 Z"
         style="fill:#ffffff;fill-opacity:1;fill-rule:nonzero;stroke:none"
         id="path82" /></g><g
       id="g84"
       transform="translate(238.5254,261.1544)"><path
         d="M 0,0 -18.31,31.861 -69.601,-14.12 -50.943,-46.587 0.348,-0.606 Z"
         style="fill:#ffffff;fill-opacity:1;fill-rule:nonzero;stroke:none"
         id="path86" /></g></g></svg>
