<?xml version="1.0" encoding="utf-8"?>
<!-- Generator: Adobe Illustrator 25.4.1, SVG Export Plug-In . SVG Version: 6.00 Build 0)  -->
<svg version="1.1" xmlns="http://www.w3.org/2000/svg" xmlns:xlink="http://www.w3.org/1999/xlink" x="0px" y="0px"
	 viewBox="0 0 271.29 355.96" style="enable-background:new 0 0 271.29 355.96;" xml:space="preserve">
<style type="text/css">
	.st0{fill:#1DAF8E;}
	.st1{fill:#FFFFFF;}
</style>
<g id="bakgrund">
	<g>
		<rect x="1" y="1" class="st0" width="269.29" height="269.29"/>
		<path class="st0" d="M271.29,271.29H0V0h271.29V271.29z M2,269.29h267.29V2H2V269.29z"/>
	</g>
	<g>
		<rect x="1" y="269.92" class="st1" width="269.29" height="85.04"/>
		<path class="st0" d="M271.29,355.96H0v-87.04h271.29V355.96z M2,353.96h267.29v-83.04H2V353.96z"/>
	</g>
</g>
<g id="namn">
	<g>
		<path d="M99,302.19v-9.48c0-1.99,0.56-3.5,1.68-4.53c1.12-1.03,2.59-1.54,4.42-1.54c1.75,0,3.16,0.51,4.24,1.52
			c1.08,1.02,1.62,2.56,1.62,4.63v0.64h-3.75v-0.61c0-0.96-0.2-1.66-0.59-2.12c-0.4-0.46-0.93-0.69-1.6-0.69
			c-0.79,0-1.37,0.27-1.72,0.82c-0.36,0.55-0.53,1.37-0.53,2.47v8.45c0,2.05,0.75,3.08,2.26,3.08c0.67,0,1.21-0.23,1.6-0.7
			c0.4-0.47,0.59-1.16,0.59-2.07v-0.55h3.72v0.58c0,2.03-0.56,3.56-1.69,4.59s-2.58,1.54-4.34,1.54c-1.81,0-3.24-0.51-4.3-1.54
			C99.53,305.66,99,304.16,99,302.19z"/>
		<path d="M118.05,286.95v17.68h5.64v3.35h-9.39v-21.04H118.05z"/>
		<path d="M130.13,295.61h4.88v3.35h-4.88v5.67h5.67v3.35h-9.39v-21.04h9.39v3.38h-5.67V295.61z"/>
		<path d="M142.41,303.9l-0.85,4.08h-3.9l5.4-21.04h3.66l5.37,21.04h-3.9l-0.85-4.08H142.41z M144.88,292.01l-1.77,8.54h3.54
			L144.88,292.01z"/>
		<path d="M158.21,299.54v8.44h-3.75v-21.04h5.73c2.07,0,3.54,0.5,4.41,1.49c0.86,1,1.3,2.59,1.3,4.79c0,1.4-0.19,2.57-0.58,3.51
			c-0.39,0.93-1.02,1.64-1.89,2.1l3.14,9.15h-3.9l-2.65-8.44H158.21z M160.16,296.19c0.75,0,1.27-0.25,1.55-0.75
			c0.29-0.5,0.43-1.24,0.43-2.21s-0.14-1.71-0.41-2.19c-0.27-0.49-0.8-0.73-1.57-0.73h-1.95v5.88H160.16z"/>
		<path d="M34.32,332.19v-9.48c0-1.99,0.56-3.5,1.68-4.53c1.12-1.03,2.59-1.54,4.42-1.54c1.75,0,3.16,0.5,4.24,1.49
			c1.08,1,1.62,2.47,1.62,4.42v0.64h-3.75v-0.64c0-0.81-0.2-1.44-0.61-1.88c-0.41-0.44-0.94-0.66-1.59-0.66
			c-0.79,0-1.37,0.27-1.72,0.82c-0.36,0.55-0.53,1.37-0.53,2.47v8.45c0,2.05,0.75,3.08,2.26,3.08c0.73,0,1.28-0.25,1.65-0.75
			c0.37-0.5,0.55-1.21,0.55-2.15v-2.23h-2.23v-2.96h5.98v5.43c0,1.95-0.56,3.44-1.69,4.48c-1.13,1.04-2.59,1.55-4.37,1.55
			c-1.81,0-3.24-0.51-4.3-1.54C34.84,335.66,34.32,334.16,34.32,332.19z"/>
		<path d="M53.37,316.95v17.68h5.64v3.35h-9.39v-21.04H53.37z"/>
		<path d="M65.38,333.9l-0.85,4.08h-3.9l5.4-21.04h3.66l5.37,21.04h-3.9l-0.85-4.08H65.38z M67.85,322.01l-1.77,8.54h3.54
			L67.85,322.01z"/>
		<path d="M76.73,331.98h3.54c0.04,1.04,0.25,1.8,0.62,2.29c0.38,0.49,0.93,0.73,1.66,0.73s1.27-0.22,1.6-0.67s0.5-1.16,0.5-2.13
			c0-0.81-0.19-1.46-0.56-1.94c-0.38-0.48-1.01-0.92-1.91-1.33l-1.43-0.64c-1.36-0.61-2.34-1.36-2.94-2.26
			c-0.6-0.89-0.9-2.09-0.9-3.6c0-1.77,0.51-3.18,1.54-4.24c1.03-1.06,2.41-1.58,4.16-1.58c1.73,0,3.06,0.52,4.01,1.57
			c0.94,1.05,1.45,2.56,1.51,4.53h-3.45c-0.02-0.96-0.19-1.67-0.5-2.15c-0.31-0.48-0.84-0.72-1.57-0.72c-1.36,0-2.04,0.8-2.04,2.41
			c0,0.73,0.17,1.32,0.5,1.75c0.33,0.44,0.9,0.83,1.69,1.17l1.37,0.61c1.46,0.65,2.53,1.46,3.19,2.44c0.66,0.98,0.99,2.28,0.99,3.9
			c0,1.95-0.51,3.46-1.52,4.51c-1.02,1.06-2.46,1.58-4.33,1.58c-1.85,0-3.26-0.54-4.24-1.62S76.75,333.99,76.73,331.98z"/>
		<path d="M90.63,331.98h3.54c0.04,1.04,0.25,1.8,0.62,2.29c0.38,0.49,0.93,0.73,1.66,0.73s1.27-0.22,1.6-0.67s0.5-1.16,0.5-2.13
			c0-0.81-0.19-1.46-0.56-1.94c-0.38-0.48-1.01-0.92-1.91-1.33l-1.43-0.64c-1.36-0.61-2.34-1.36-2.94-2.26
			c-0.6-0.89-0.9-2.09-0.9-3.6c0-1.77,0.51-3.18,1.54-4.24c1.03-1.06,2.41-1.58,4.16-1.58c1.73,0,3.06,0.52,4.01,1.57
			c0.94,1.05,1.45,2.56,1.51,4.53h-3.45c-0.02-0.96-0.19-1.67-0.5-2.15c-0.31-0.48-0.84-0.72-1.57-0.72c-1.36,0-2.04,0.8-2.04,2.41
			c0,0.73,0.17,1.32,0.5,1.75c0.33,0.44,0.9,0.83,1.69,1.17l1.37,0.61c1.46,0.65,2.53,1.46,3.19,2.44c0.66,0.98,0.99,2.28,0.99,3.9
			c0,1.95-0.51,3.46-1.52,4.51c-1.02,1.06-2.46,1.58-4.33,1.58c-1.85,0-3.26-0.54-4.24-1.62S90.65,333.99,90.63,331.98z"/>
		<path d="M122.92,323.56c0,2.24-0.45,3.9-1.36,5s-2.37,1.65-4.41,1.65h-1.95v7.77h-3.72v-21.04h5.67c2.07,0,3.55,0.55,4.44,1.65
			C122.48,319.69,122.92,321.35,122.92,323.56z M119.17,323.56c0-1.12-0.16-1.94-0.47-2.47c-0.31-0.53-0.87-0.79-1.66-0.79h-1.83
			v6.52h1.83c0.79,0,1.35-0.26,1.66-0.79C119.01,325.5,119.17,324.68,119.17,323.56z"/>
		<path d="M129.29,333.9l-0.85,4.08h-3.9l5.4-21.04h3.66l5.37,21.04h-3.9l-0.85-4.08H129.29z M131.76,322.01l-1.77,8.54h3.54
			L131.76,322.01z"/>
		<path d="M141.21,332.19v-9.48c0-1.99,0.56-3.5,1.68-4.53c1.12-1.03,2.59-1.54,4.42-1.54c1.75,0,3.16,0.51,4.24,1.52
			c1.08,1.02,1.62,2.56,1.62,4.63v0.64h-3.75v-0.61c0-0.96-0.2-1.66-0.59-2.12c-0.4-0.46-0.93-0.69-1.6-0.69
			c-0.79,0-1.37,0.27-1.72,0.82c-0.36,0.55-0.53,1.37-0.53,2.47v8.45c0,2.05,0.75,3.08,2.26,3.08c0.67,0,1.21-0.23,1.6-0.7
			c0.4-0.47,0.59-1.16,0.59-2.07v-0.55h3.72v0.58c0,2.03-0.56,3.56-1.69,4.59s-2.58,1.54-4.34,1.54c-1.81,0-3.24-0.51-4.3-1.54
			C141.74,335.66,141.21,334.16,141.21,332.19z"/>
		<path d="M160.24,333.23v4.76h-3.72v-21.04h3.72v9.91l4.48-9.91h3.75l-4.39,8.66l5.06,12.38h-3.99l-3.2-8.14L160.24,333.23z"/>
		<path d="M175.11,333.9l-0.85,4.08h-3.9l5.4-21.04h3.66l5.37,21.04h-3.9l-0.85-4.08H175.11z M177.58,322.01l-1.77,8.54h3.54
			L177.58,322.01z"/>
		<path d="M187.04,332.19v-9.48c0-1.99,0.56-3.5,1.68-4.53c1.12-1.03,2.59-1.54,4.42-1.54c1.75,0,3.16,0.5,4.24,1.49
			c1.08,1,1.62,2.47,1.62,4.42v0.64h-3.75v-0.64c0-0.81-0.2-1.44-0.61-1.88c-0.41-0.44-0.94-0.66-1.59-0.66
			c-0.79,0-1.37,0.27-1.72,0.82c-0.36,0.55-0.53,1.37-0.53,2.47v8.45c0,2.05,0.75,3.08,2.26,3.08c0.73,0,1.28-0.25,1.65-0.75
			c0.37-0.5,0.55-1.21,0.55-2.15v-2.23h-2.23v-2.96h5.98v5.43c0,1.95-0.56,3.44-1.69,4.48c-1.13,1.04-2.59,1.55-4.37,1.55
			c-1.81,0-3.24-0.51-4.3-1.54C187.56,335.66,187.04,334.16,187.04,332.19z"/>
		<path d="M206.18,316.95v21.04h-3.72v-21.04H206.18z"/>
		<path d="M221.67,337.98h-3.75l-4.39-11.22v11.22h-3.75v-21.04h3.75l4.39,11.71v-11.71h3.75V337.98z"/>
		<path d="M225.02,332.19v-9.48c0-1.99,0.56-3.5,1.68-4.53c1.12-1.03,2.59-1.54,4.42-1.54c1.75,0,3.16,0.5,4.24,1.49
			c1.08,1,1.62,2.47,1.62,4.42v0.64h-3.75v-0.64c0-0.81-0.2-1.44-0.61-1.88c-0.41-0.44-0.94-0.66-1.59-0.66
			c-0.79,0-1.37,0.27-1.72,0.82c-0.36,0.55-0.53,1.37-0.53,2.47v8.45c0,2.05,0.75,3.08,2.26,3.08c0.73,0,1.28-0.25,1.65-0.75
			c0.37-0.5,0.55-1.21,0.55-2.15v-2.23H231v-2.96h5.98v5.43c0,1.95-0.56,3.44-1.69,4.48c-1.13,1.04-2.59,1.55-4.37,1.55
			c-1.81,0-3.24-0.51-4.3-1.54C225.55,335.66,225.02,334.16,225.02,332.19z"/>
	</g>
</g>
<g id="ikon">
	<g>
		<path class="st1" d="M168.11,152.83L168.11,152.83c0-25.22-5.72-36.64-11.26-47.68c-5.34-10.66-10.38-20.73-10.66-42.69
			l-0.01-26.37c0-1.36-1.11-2.47-2.47-2.47h-16.15c-1.36,0-2.47,1.11-2.47,2.47l-0.01,26.35c-0.28,21.98-5.32,32.05-10.66,42.71
			c-5.53,11.05-11.26,22.47-11.26,47.68l-0.03,84.84h65L168.11,152.83z M156.91,228.91h-42.53c0.72-11.1,9.98-19.91,21.26-19.91
			C146.93,209,156.19,217.81,156.91,228.91z"/>
	</g>
</g>
</svg>
