<?xml version="1.0" encoding="UTF-8" standalone="no"?>
<svg
   xmlns:dc="http://purl.org/dc/elements/1.1/"
   xmlns:cc="http://creativecommons.org/ns#"
   xmlns:rdf="http://www.w3.org/1999/02/22-rdf-syntax-ns#"
   xmlns:svg="http://www.w3.org/2000/svg"
   xmlns="http://www.w3.org/2000/svg"
   xmlns:sodipodi="http://sodipodi.sourceforge.net/DTD/sodipodi-0.dtd"
   xmlns:inkscape="http://www.inkscape.org/namespaces/inkscape"
   version="1.1"
   id="svg2"
   xml:space="preserve"
   width="361.72134"
   height="474.60666"
   viewBox="0 0 361.72134 474.60666"
   sodipodi:docname="clear-glass-packaging.ai"><metadata
     id="metadata8"><rdf:RDF><cc:Work
         rdf:about=""><dc:format>image/svg+xml</dc:format><dc:type
           rdf:resource="http://purl.org/dc/dcmitype/StillImage" /></cc:Work></rdf:RDF></metadata><defs
     id="defs6"><clipPath
       clipPathUnits="userSpaceOnUse"
       id="clipPath26"><path
         d="M 0,355.955 H 271.291 V 0 H 0 Z"
         id="path24" /></clipPath><clipPath
       clipPathUnits="userSpaceOnUse"
       id="clipPath108"><path
         d="M 0,355.955 H 271.291 V 0 H 0 Z"
         id="path106" /></clipPath></defs><sodipodi:namedview
     pagecolor="#ffffff"
     bordercolor="#666666"
     borderopacity="1"
     objecttolerance="10"
     gridtolerance="10"
     guidetolerance="10"
     inkscape:pageopacity="0"
     inkscape:pageshadow="2"
     inkscape:window-width="640"
     inkscape:window-height="480"
     id="namedview4" /><g
     id="g10"
     inkscape:groupmode="layer"
     inkscape:label="clear-glass-packaging"
     transform="matrix(1.3333333,0,0,-1.3333333,0,474.60667)"><path
       d="M 1,85.663 H 270.291 V 354.955 H 1 Z"
       style="fill:#1eaf8e;fill-opacity:1;fill-rule:nonzero;stroke:none"
       id="path12" /><path
       d="M 0,84.664 H 271.291 V 355.956 L 0,355.956 Z M 2,353.955 H 269.291 V 86.664 H 2 Z"
       style="fill:#1eaf8e;fill-opacity:1;fill-rule:nonzero;stroke:none"
       id="path14" /><path
       d="M 1,1 H 270.291 V 86.039 H 1 Z"
       style="fill:#ffffff;fill-opacity:1;fill-rule:nonzero;stroke:none"
       id="path16" /><path
       d="M 0,0 H 271.292 V 87.04 H 0 Z M 2,85.039 H 269.292 V 2.001 L 2,2.001 Z"
       style="fill:#1eaf8e;fill-opacity:1;fill-rule:nonzero;stroke:none"
       id="path18" /><g
       id="g20"><g
         id="g22"
         clip-path="url(#clipPath26)"><g
           id="g28"
           transform="translate(98.9986,53.7631)"><path
             d="m 0,0 v 9.481 c 0,1.993 0.56,3.501 1.677,4.528 1.118,1.026 2.592,1.54 4.421,1.54 1.748,0 3.16,-0.508 4.237,-1.525 1.078,-1.016 1.616,-2.56 1.616,-4.633 V 8.75 h -3.75 v 0.609 c 0,0.956 -0.198,1.662 -0.595,2.12 -0.395,0.457 -0.929,0.686 -1.6,0.686 -0.792,0 -1.366,-0.274 -1.722,-0.823 C 3.928,10.793 3.75,9.97 3.75,8.872 V 0.427 c 0,-2.053 0.752,-3.079 2.256,-3.079 0.671,0 1.205,0.234 1.6,0.701 0.397,0.468 0.595,1.159 0.595,2.073 v 0.549 h 3.72 V 0.092 c 0,-2.032 -0.565,-3.562 -1.692,-4.588 -1.128,-1.026 -2.577,-1.54 -4.344,-1.54 -1.81,0 -3.242,0.514 -4.299,1.54 C 0.528,-3.47 0,-1.972 0,0"
             style="fill:#1d1d1b;fill-opacity:1;fill-rule:nonzero;stroke:none"
             id="path30" /></g><g
           id="g32"
           transform="translate(118.0542,69.0072)"><path
             d="m 0,0 v -17.683 h 5.641 v -3.353 H -3.75 V 0 Z"
             style="fill:#1d1d1b;fill-opacity:1;fill-rule:nonzero;stroke:none"
             id="path34" /></g><g
           id="g36"
           transform="translate(130.1285,60.349)"><path
             d="M 0,0 H 4.877 V -3.354 H 0 v -5.67 h 5.67 v -3.354 H -3.72 V 8.658 H 5.67 V 5.273 l -5.67,0 z"
             style="fill:#1d1d1b;fill-opacity:1;fill-rule:nonzero;stroke:none"
             id="path38" /></g><g
           id="g40"
           transform="translate(144.8838,63.9457)"><path
             d="m 0,0 -1.769,-8.536 h 3.538 z m -2.47,-11.89 -0.853,-4.085 H -7.226 L -1.829,5.062 H 1.829 L 7.195,-15.975 H 3.293 l -0.854,4.085 z"
             style="fill:#1d1d1b;fill-opacity:1;fill-rule:nonzero;stroke:none"
             id="path42" /></g><g
           id="g44"
           transform="translate(160.1592,59.769)"><path
             d="M 0,0 C 0.752,0 1.271,0.249 1.555,0.747 1.84,1.245 1.981,1.982 1.981,2.958 1.981,3.934 1.845,4.665 1.57,5.152 1.296,5.641 0.772,5.885 0,5.885 H -1.951 V 0 Z m -1.951,-3.354 v -8.444 h -3.75 V 9.238 H 0.03 C 2.104,9.238 3.572,8.74 4.436,7.744 5.3,6.748 5.731,5.152 5.731,2.958 5.731,1.556 5.538,0.387 5.152,-0.549 4.767,-1.483 4.136,-2.185 3.263,-2.652 l 3.139,-9.146 H 2.5 l -2.652,8.444 z"
             style="fill:#1d1d1b;fill-opacity:1;fill-rule:nonzero;stroke:none"
             id="path46" /></g><g
           id="g48"
           transform="translate(34.316,23.7631)"><path
             d="m 0,0 v 9.481 c 0,1.993 0.56,3.501 1.677,4.528 1.118,1.026 2.592,1.54 4.421,1.54 1.748,0 3.16,-0.498 4.237,-1.494 1.078,-0.996 1.616,-2.47 1.616,-4.421 v -0.64 h -3.75 v 0.64 c 0,0.813 -0.203,1.438 -0.609,1.875 -0.406,0.437 -0.936,0.656 -1.586,0.656 -0.792,0 -1.366,-0.274 -1.722,-0.823 C 3.928,10.793 3.75,9.97 3.75,8.872 V 0.427 c 0,-2.053 0.752,-3.079 2.256,-3.079 0.732,0 1.281,0.249 1.646,0.747 0.367,0.498 0.549,1.215 0.549,2.149 V 2.47 H 5.976 v 2.957 h 5.975 V 0 c 0,-1.951 -0.563,-3.444 -1.692,-4.481 -1.128,-1.037 -2.586,-1.555 -4.374,-1.555 -1.81,0 -3.242,0.514 -4.299,1.54 C 0.528,-3.47 0,-1.972 0,0"
             style="fill:#1d1d1b;fill-opacity:1;fill-rule:nonzero;stroke:none"
             id="path50" /></g><g
           id="g52"
           transform="translate(53.3716,39.0072)"><path
             d="m 0,0 v -17.683 h 5.641 v -3.353 H -3.75 V 0 Z"
             style="fill:#1d1d1b;fill-opacity:1;fill-rule:nonzero;stroke:none"
             id="path54" /></g><g
           id="g56"
           transform="translate(67.854,33.9457)"><path
             d="m 0,0 -1.769,-8.536 h 3.538 z m -2.47,-11.89 -0.853,-4.085 H -7.226 L -1.829,5.062 H 1.829 L 7.195,-15.975 H 3.293 l -0.854,4.085 z"
             style="fill:#1d1d1b;fill-opacity:1;fill-rule:nonzero;stroke:none"
             id="path58" /></g><g
           id="g60"
           transform="translate(76.7261,23.977)"><path
             d="m 0,0 h 3.537 c 0.04,-1.037 0.248,-1.799 0.625,-2.287 0.376,-0.487 0.93,-0.732 1.661,-0.732 0.732,0 1.266,0.224 1.601,0.671 0.335,0.448 0.503,1.159 0.503,2.134 C 7.927,0.6 7.739,1.245 7.362,1.723 6.986,2.2 6.352,2.642 5.457,3.049 L 4.024,3.688 C 2.663,4.299 1.682,5.051 1.082,5.944 0.482,6.839 0.183,8.038 0.183,9.542 c 0,1.769 0.513,3.181 1.54,4.238 1.026,1.057 2.413,1.585 4.161,1.585 1.727,0 3.064,-0.523 4.01,-1.57 0.944,-1.047 1.448,-2.556 1.508,-4.527 H 7.957 C 7.937,10.224 7.77,10.939 7.454,11.417 7.14,11.895 6.616,12.134 5.884,12.134 4.522,12.134 3.842,11.331 3.842,9.726 3.842,8.993 4.009,8.409 4.345,7.973 4.68,7.535 5.244,7.144 6.036,6.799 L 7.408,6.188 c 1.464,-0.65 2.526,-1.462 3.187,-2.438 0.66,-0.976 0.99,-2.276 0.99,-3.902 0,-1.952 -0.508,-3.455 -1.524,-4.513 C 9.045,-5.722 7.602,-6.25 5.731,-6.25 3.882,-6.25 2.47,-5.711 1.494,-4.634 0.519,-3.557 0.021,-2.013 0,0"
             style="fill:#1d1d1b;fill-opacity:1;fill-rule:nonzero;stroke:none"
             id="path62" /></g><g
           id="g64"
           transform="translate(90.6294,23.977)"><path
             d="m 0,0 h 3.537 c 0.04,-1.037 0.248,-1.799 0.625,-2.287 0.376,-0.487 0.93,-0.732 1.661,-0.732 0.732,0 1.266,0.224 1.601,0.671 0.335,0.448 0.503,1.159 0.503,2.134 C 7.927,0.6 7.739,1.245 7.362,1.723 6.986,2.2 6.352,2.642 5.457,3.049 L 4.024,3.688 C 2.663,4.299 1.682,5.051 1.082,5.944 0.482,6.839 0.183,8.038 0.183,9.542 c 0,1.769 0.513,3.181 1.54,4.238 1.026,1.057 2.414,1.585 4.161,1.585 1.727,0 3.064,-0.523 4.01,-1.57 0.944,-1.047 1.448,-2.556 1.508,-4.527 H 7.957 C 7.937,10.224 7.77,10.939 7.454,11.417 7.14,11.895 6.616,12.134 5.884,12.134 4.522,12.134 3.842,11.331 3.842,9.726 3.842,8.993 4.009,8.409 4.345,7.973 4.68,7.535 5.244,7.144 6.036,6.799 L 7.408,6.188 c 1.464,-0.65 2.526,-1.462 3.187,-2.438 0.66,-0.976 0.99,-2.276 0.99,-3.902 0,-1.952 -0.508,-3.455 -1.524,-4.513 C 9.045,-5.722 7.602,-6.25 5.731,-6.25 3.882,-6.25 2.47,-5.711 1.494,-4.634 0.519,-3.557 0.021,-2.013 0,0"
             style="fill:#1d1d1b;fill-opacity:1;fill-rule:nonzero;stroke:none"
             id="path66" /></g><g
           id="g68"
           transform="translate(119.1665,32.391)"><path
             d="m 0,0 c 0,1.118 -0.157,1.941 -0.473,2.47 -0.314,0.528 -0.868,0.793 -1.661,0.793 h -1.829 v -6.525 h 1.829 c 0.793,0 1.347,0.264 1.661,0.792 C -0.157,-1.94 0,-1.117 0,0 M 3.75,0 C 3.75,-2.235 3.298,-3.902 2.394,-5 1.489,-6.098 0.021,-6.646 -2.012,-6.646 h -1.951 v -7.774 h -3.72 V 6.616 h 5.671 C 0.062,6.616 1.54,6.067 2.424,4.97 3.309,3.872 3.75,2.216 3.75,0"
             style="fill:#1d1d1b;fill-opacity:1;fill-rule:nonzero;stroke:none"
             id="path70" /></g><g
           id="g72"
           transform="translate(131.7583,33.9457)"><path
             d="m 0,0 -1.769,-8.536 h 3.537 z m -2.47,-11.89 -0.853,-4.085 H -7.226 L -1.829,5.062 H 1.829 L 7.195,-15.975 H 3.292 l -0.853,4.085 z"
             style="fill:#1d1d1b;fill-opacity:1;fill-rule:nonzero;stroke:none"
             id="path74" /></g><g
           id="g76"
           transform="translate(141.21,23.7631)"><path
             d="m 0,0 v 9.481 c 0,1.993 0.56,3.501 1.677,4.528 1.118,1.026 2.592,1.54 4.421,1.54 1.748,0 3.16,-0.508 4.237,-1.525 1.078,-1.016 1.616,-2.56 1.616,-4.633 V 8.75 h -3.75 v 0.609 c 0,0.956 -0.198,1.662 -0.595,2.12 -0.395,0.457 -0.929,0.686 -1.6,0.686 -0.792,0 -1.366,-0.274 -1.722,-0.823 C 3.928,10.793 3.75,9.97 3.75,8.872 V 0.427 c 0,-2.053 0.752,-3.079 2.256,-3.079 0.671,0 1.205,0.234 1.6,0.701 0.397,0.468 0.595,1.159 0.595,2.073 v 0.549 h 3.72 V 0.092 c 0,-2.032 -0.565,-3.562 -1.692,-4.588 -1.128,-1.026 -2.577,-1.54 -4.344,-1.54 -1.81,0 -3.242,0.514 -4.299,1.54 C 0.528,-3.47 0,-1.972 0,0"
             style="fill:#1d1d1b;fill-opacity:1;fill-rule:nonzero;stroke:none"
             id="path78" /></g><g
           id="g80"
           transform="translate(160.2354,22.727)"><path
             d="M 0,0 V -4.756 H -3.72 V 16.28 H 0 V 6.372 l 4.481,9.908 h 3.75 L 3.841,7.622 8.902,-4.756 H 4.908 l -3.201,8.14 z"
             style="fill:#1d1d1b;fill-opacity:1;fill-rule:nonzero;stroke:none"
             id="path82" /></g><g
           id="g84"
           transform="translate(177.5831,33.9457)"><path
             d="m 0,0 -1.769,-8.536 h 3.538 z m -2.47,-11.89 -0.853,-4.085 H -7.226 L -1.829,5.062 H 1.829 L 7.195,-15.975 H 3.293 l -0.854,4.085 z"
             style="fill:#1d1d1b;fill-opacity:1;fill-rule:nonzero;stroke:none"
             id="path86" /></g><g
           id="g88"
           transform="translate(187.0352,23.7631)"><path
             d="m 0,0 v 9.481 c 0,1.993 0.56,3.501 1.677,4.528 1.118,1.026 2.592,1.54 4.421,1.54 1.748,0 3.16,-0.498 4.237,-1.494 1.078,-0.996 1.616,-2.47 1.616,-4.421 v -0.64 h -3.75 v 0.64 c 0,0.813 -0.203,1.438 -0.609,1.875 -0.406,0.437 -0.936,0.656 -1.586,0.656 -0.792,0 -1.366,-0.274 -1.722,-0.823 C 3.928,10.793 3.75,9.97 3.75,8.872 V 0.427 c 0,-2.053 0.752,-3.079 2.256,-3.079 0.732,0 1.281,0.249 1.646,0.747 0.367,0.498 0.549,1.215 0.549,2.149 V 2.47 H 5.976 v 2.957 h 5.975 V 0 c 0,-1.951 -0.563,-3.444 -1.692,-4.481 -1.128,-1.037 -2.586,-1.555 -4.374,-1.555 -1.81,0 -3.242,0.514 -4.299,1.54 C 0.528,-3.47 0,-1.972 0,0"
             style="fill:#1d1d1b;fill-opacity:1;fill-rule:nonzero;stroke:none"
             id="path90" /></g><path
           d="m 206.183,17.971 h -3.72 v 21.036 h 3.72 z"
           style="fill:#1d1d1b;fill-opacity:1;fill-rule:nonzero;stroke:none"
           id="path92" /><g
           id="g94"
           transform="translate(221.67,17.9711)"><path
             d="M 0,0 H -3.749 L -8.14,11.219 V 0 h -3.75 v 21.036 h 3.75 L -3.749,9.329 V 21.036 H 0 Z"
             style="fill:#1d1d1b;fill-opacity:1;fill-rule:nonzero;stroke:none"
             id="path96" /></g><g
           id="g98"
           transform="translate(225.0245,23.7631)"><path
             d="m 0,0 v 9.481 c 0,1.993 0.56,3.501 1.677,4.528 1.118,1.026 2.592,1.54 4.421,1.54 1.748,0 3.16,-0.498 4.237,-1.494 1.078,-0.996 1.616,-2.47 1.616,-4.421 v -0.64 h -3.75 v 0.64 c 0,0.813 -0.203,1.438 -0.609,1.875 -0.406,0.437 -0.936,0.656 -1.586,0.656 -0.792,0 -1.366,-0.274 -1.722,-0.823 C 3.928,10.793 3.75,9.97 3.75,8.872 V 0.427 c 0,-2.053 0.752,-3.079 2.256,-3.079 0.732,0 1.281,0.249 1.646,0.747 0.367,0.498 0.549,1.215 0.549,2.149 V 2.47 H 5.976 v 2.957 h 5.975 V 0 c 0,-1.951 -0.563,-3.444 -1.692,-4.481 -1.128,-1.037 -2.586,-1.555 -4.374,-1.555 -1.81,0 -3.242,0.514 -4.299,1.54 C 0.528,-3.47 0,-1.972 0,0"
             style="fill:#1d1d1b;fill-opacity:1;fill-rule:nonzero;stroke:none"
             id="path100" /></g></g></g><g
       id="g102"><g
         id="g104"
         clip-path="url(#clipPath108)"><g
           id="g110"
           transform="translate(156.9082,127.0483)"><path
             d="m 0,0 h -42.525 c 0.721,11.101 9.982,19.911 21.262,19.911 C -9.982,19.911 -0.721,11.101 0,0 m 11.203,76.075 v -0.001 c 0,25.216 -5.722,36.638 -11.256,47.683 -5.34,10.658 -10.384,20.725 -10.66,42.688 l -0.006,26.371 c 0,1.363 -1.108,2.471 -2.47,2.471 h -16.146 c -1.362,0 -2.471,-1.108 -2.472,-2.471 l -0.005,-26.354 c -0.277,-21.98 -5.32,-32.047 -10.661,-42.705 -5.533,-11.045 -11.255,-22.467 -11.255,-47.682 l -0.035,-84.84 h 65 z"
             style="fill:#ffffff;fill-opacity:1;fill-rule:nonzero;stroke:none"
             id="path112" /></g></g></g></g></svg>
