<?xml version="1.0" encoding="UTF-8" standalone="no"?>
<!-- Created with Inkscape (http://www.inkscape.org/) -->

<svg
   version="1.1"
   id="svg2"
   xml:space="preserve"
   width="361.72131"
   height="474.91333"
   viewBox="0 0 361.72131 474.91333"
   sodipodi:docname="412e67a58edab15418c4160532872f91.ai"
   xmlns:inkscape="http://www.inkscape.org/namespaces/inkscape"
   xmlns:sodipodi="http://sodipodi.sourceforge.net/DTD/sodipodi-0.dtd"
   xmlns="http://www.w3.org/2000/svg"
   xmlns:svg="http://www.w3.org/2000/svg"><defs
     id="defs6"><clipPath
       clipPathUnits="userSpaceOnUse"
       id="clipPath24"><path
         d="M 0,356.185 H 271.291 V 0 H 0 Z"
         id="path22" /></clipPath><clipPath
       clipPathUnits="userSpaceOnUse"
       id="clipPath64"><path
         d="M 0,356.185 H 271.291 V 0 H 0 Z"
         id="path62" /></clipPath></defs><sodipodi:namedview
     id="namedview4"
     pagecolor="#ffffff"
     bordercolor="#666666"
     borderopacity="1.0"
     inkscape:pageshadow="2"
     inkscape:pageopacity="0.0"
     inkscape:pagecheckerboard="0" /><g
     id="g8"
     inkscape:groupmode="layer"
     inkscape:label="412e67a58edab15418c4160532872f91"
     transform="matrix(1.3333333,0,0,-1.3333333,0,474.91332)"><path
       d="M 1,85.894 H 270.291 V 355.185 H 1 Z"
       style="fill:#004778;fill-opacity:1;fill-rule:nonzero;stroke:none"
       id="path10" /><path
       d="M 0,84.893 H 271.291 V 356.185 H 0 Z M 2,354.185 H 269.291 V 86.894 H 2 Z"
       style="fill:#004778;fill-opacity:1;fill-rule:nonzero;stroke:none"
       id="path12" /><path
       d="M 1,1 H 270.291 V 86.039 H 1 Z"
       style="fill:#ffffff;fill-opacity:1;fill-rule:nonzero;stroke:none"
       id="path14" /><path
       d="M 0,0 H 271.291 V 87.039 H 0 Z M 2,85.039 H 269.291 V 2 H 2 Z"
       style="fill:#004778;fill-opacity:1;fill-rule:nonzero;stroke:none"
       id="path16" /><g
       id="g18"><g
         id="g20"
         clip-path="url(#clipPath24)"><g
           id="g26"
           transform="translate(80.7041,38.7628)"><path
             d="m 0,0 v 9.482 c 0,1.992 0.56,3.5 1.677,4.528 1.118,1.025 2.592,1.539 4.421,1.539 1.748,0 3.16,-0.508 4.237,-1.525 1.078,-1.016 1.616,-2.56 1.616,-4.633 V 8.75 h -3.75 v 0.609 c 0,0.956 -0.198,1.662 -0.595,2.12 -0.395,0.457 -0.929,0.686 -1.6,0.686 -0.792,0 -1.366,-0.274 -1.722,-0.823 C 3.928,10.793 3.75,9.97 3.75,8.872 V 0.428 c 0,-2.053 0.752,-3.08 2.256,-3.08 0.671,0 1.205,0.234 1.6,0.701 0.397,0.469 0.595,1.159 0.595,2.074 v 0.549 h 3.72 v -0.58 c 0,-2.032 -0.565,-3.562 -1.692,-4.588 -1.128,-1.026 -2.577,-1.539 -4.344,-1.539 -1.81,0 -3.242,0.513 -4.299,1.539 C 0.528,-3.47 0,-1.971 0,0"
             style="fill:#1d1d1b;fill-opacity:1;fill-rule:nonzero;stroke:none"
             id="path28" /></g><g
           id="g30"
           transform="translate(104.0889,39.1906)"><path
             d="m 0,0 v 8.444 c 0,1.077 -0.183,1.896 -0.549,2.454 -0.365,0.559 -0.914,0.839 -1.646,0.839 -0.792,0 -1.367,-0.274 -1.722,-0.823 -0.356,-0.549 -0.534,-1.372 -0.534,-2.47 V 0 c 0,-2.053 0.752,-3.08 2.256,-3.08 0.712,0 1.256,0.269 1.632,0.809 C -0.187,-1.732 0,-0.977 0,0 m -8.201,-0.428 v 9.483 c 0,1.991 0.559,3.5 1.677,4.527 1.118,1.025 2.591,1.539 4.42,1.539 1.769,0 3.186,-0.514 4.253,-1.539 C 3.217,12.555 3.75,11.046 3.75,9.055 v -9.483 c 0,-1.951 -0.563,-3.444 -1.692,-4.48 -1.128,-1.037 -2.586,-1.555 -4.374,-1.555 -1.81,0 -3.243,0.513 -4.299,1.539 -1.058,1.027 -1.586,2.526 -1.586,4.496"
             style="fill:#1d1d1b;fill-opacity:1;fill-rule:nonzero;stroke:none"
             id="path32" /></g><g
           id="g34"
           transform="translate(123.0831,32.9709)"><path
             d="M 0,0 H -3.749 L -8.14,11.22 V 0 h -3.75 v 21.036 h 3.75 L -3.749,9.329 V 21.036 H 0 Z"
             style="fill:#1d1d1b;fill-opacity:1;fill-rule:nonzero;stroke:none"
             id="path36" /></g><g
           id="g38"
           transform="translate(126.4375,38.7628)"><path
             d="m 0,0 v 9.482 c 0,1.992 0.56,3.5 1.677,4.528 1.118,1.025 2.592,1.539 4.421,1.539 1.748,0 3.16,-0.508 4.237,-1.525 1.078,-1.016 1.616,-2.56 1.616,-4.633 V 8.75 h -3.75 v 0.609 c 0,0.956 -0.198,1.662 -0.595,2.12 -0.395,0.457 -0.929,0.686 -1.6,0.686 -0.792,0 -1.366,-0.274 -1.722,-0.823 C 3.928,10.793 3.75,9.97 3.75,8.872 V 0.428 c 0,-2.053 0.752,-3.08 2.256,-3.08 0.671,0 1.205,0.234 1.6,0.701 0.397,0.469 0.595,1.159 0.595,2.074 v 0.549 h 3.72 v -0.58 c 0,-2.032 -0.565,-3.562 -1.692,-4.588 -1.128,-1.026 -2.577,-1.539 -4.344,-1.539 -1.81,0 -3.242,0.513 -4.299,1.539 C 0.528,-3.47 0,-1.971 0,0"
             style="fill:#1d1d1b;fill-opacity:1;fill-rule:nonzero;stroke:none"
             id="path40" /></g><g
           id="g42"
           transform="translate(147.4444,44.7687)"><path
             d="M 0,0 C 0.752,0 1.271,0.25 1.555,0.748 1.84,1.246 1.981,1.982 1.981,2.958 1.981,3.934 1.845,4.665 1.57,5.152 1.296,5.641 0.772,5.885 0,5.885 H -1.951 V 0 Z m -1.951,-3.354 v -8.444 h -3.75 V 9.238 H 0.03 C 2.104,9.238 3.572,8.74 4.436,7.744 5.3,6.748 5.731,5.152 5.731,2.958 5.731,1.556 5.539,0.387 5.152,-0.549 4.767,-1.482 4.136,-2.184 3.262,-2.652 l 3.14,-9.146 H 2.5 l -2.652,8.444 z"
             style="fill:#1d1d1b;fill-opacity:1;fill-rule:nonzero;stroke:none"
             id="path44" /></g><g
           id="g46"
           transform="translate(160.4034,45.3488)"><path
             d="M 0,0 H 4.878 V -3.354 H 0 v -5.67 h 5.671 v -3.354 H -3.72 V 8.658 H 5.671 V 5.273 H 0 Z"
             style="fill:#1d1d1b;fill-opacity:1;fill-rule:nonzero;stroke:none"
             id="path48" /></g><g
           id="g50"
           transform="translate(175.251,50.6222)"><path
             d="M 0,0 V -17.651 H -3.72 V 0 H -7.378 V 3.385 H 3.628 V 0 Z"
             style="fill:#1d1d1b;fill-opacity:1;fill-rule:nonzero;stroke:none"
             id="path52" /></g><g
           id="g54"
           transform="translate(184.9161,45.3488)"><path
             d="M 0,0 H 4.878 V -3.354 H 0 v -5.67 h 5.671 v -3.354 H -3.72 V 8.658 H 5.671 V 5.273 H 0 Z"
             style="fill:#1d1d1b;fill-opacity:1;fill-rule:nonzero;stroke:none"
             id="path56" /></g></g></g><g
       id="g58"><g
         id="g60"
         clip-path="url(#clipPath64)"><g
           id="g66"
           transform="translate(173.6407,199.3141)"><path
             d="m 0,0 c 0,-5.154 -4.217,-9.371 -9.371,-9.371 h -56.99 c -5.154,0 -9.371,4.217 -9.371,9.371 v 42.565 c 0,5.154 4.217,9.371 9.371,9.371 h 56.99 C -4.217,51.936 0,47.719 0,42.565 Z m 27.652,-9.371 c -5.153,0 -9.37,4.217 -9.37,9.371 v 42.565 c 0,5.154 4.217,9.371 9.37,9.371 H 55.768 V 69.91 H -131.758 V 51.936 h 28.373 c 5.154,0 9.371,-4.217 9.371,-9.371 L -94.015,0 c 0,-5.154 -4.216,-9.371 -9.37,-9.371 h -28.373 V -27.459 H 55.768 v 18.088 z"
             style="fill:#ffffff;fill-opacity:1;fill-rule:nonzero;stroke:none"
             id="path68" /></g></g></g></g></svg>
