<?xml version="1.0" encoding="utf-8"?>
<!-- Generator: Adobe Illustrator 25.4.1, SVG Export Plug-In . SVG Version: 6.00 Build 0)  -->
<svg version="1.1" xmlns="http://www.w3.org/2000/svg" xmlns:xlink="http://www.w3.org/1999/xlink" x="0px" y="0px"
	 viewBox="0 0 271.29 355.96" style="enable-background:new 0 0 271.29 355.96;" xml:space="preserve">
<style type="text/css">
	.st0{fill:#86BD40;}
	.st1{fill:#FFFFFF;}
</style>
<g id="bakgrund">
	<g>
		<rect x="1" y="1.15" class="st0" width="269.29" height="269.29"/>
		<path class="st0" d="M271.29,271.44H0V0.15h271.29V271.44z M2,269.44h267.29V2.15H2V269.44z"/>
	</g>
	<g>
		<rect x="1" y="269.92" class="st1" width="269.29" height="85.04"/>
		<path class="st0" d="M271.29,355.96H0v-87.04h271.29V355.96z M2,353.96h267.29v-83.04H2V353.96z"/>
	</g>
</g>
<g id="namn">
	<g>
		<path d="M32.58,301.95c1.77,0,3.19,0.51,4.25,1.52c1.07,1.02,1.6,2.52,1.6,4.51v8.96c0,1.97-0.56,3.47-1.68,4.5
			s-2.57,1.54-4.36,1.54h-5.64v-21.04H32.58z M34.12,318.81c0.38-0.55,0.56-1.31,0.56-2.29v-7.9c0-1.08-0.18-1.9-0.55-2.45
			c-0.37-0.56-0.91-0.84-1.65-0.84h-2.01v14.3h2.01C33.2,319.63,33.74,319.36,34.12,318.81z"/>
		<path d="M45.44,318.9l-0.85,4.08h-3.9l5.4-21.04h3.66l5.37,21.04h-3.9l-0.85-4.08H45.44z M47.91,307.01l-1.77,8.54h3.54
			L47.91,307.01z"/>
		<path d="M72.33,322.98h-3.75v-12.32l-2.68,8.23h-2.01l-2.65-8.14v12.22h-3.75v-21.04h3.75l3.66,11.1l3.69-11.1h3.75V322.98z"/>
		<path d="M79.47,318.9l-0.85,4.08h-3.9l5.4-21.04h3.66l5.37,21.04h-3.9l-0.85-4.08H79.47z M81.94,307.01l-1.77,8.54h3.54
			L81.94,307.01z"/>
		<path d="M91.39,317.19v-9.48c0-1.99,0.56-3.5,1.68-4.53c1.12-1.03,2.59-1.54,4.42-1.54c1.75,0,3.16,0.5,4.24,1.49
			c1.08,1,1.62,2.47,1.62,4.42v0.64h-3.75v-0.64c0-0.81-0.2-1.44-0.61-1.88c-0.41-0.44-0.94-0.66-1.59-0.66
			c-0.79,0-1.37,0.27-1.72,0.82c-0.36,0.55-0.53,1.37-0.53,2.47v8.45c0,2.05,0.75,3.08,2.26,3.08c0.73,0,1.28-0.25,1.65-0.75
			c0.37-0.5,0.55-1.21,0.55-2.15v-2.23h-2.23v-2.96h5.98v5.43c0,1.95-0.56,3.44-1.69,4.48c-1.13,1.04-2.59,1.55-4.37,1.55
			c-1.81,0-3.24-0.51-4.3-1.54C91.92,320.66,91.39,319.16,91.39,317.19z"/>
		<path d="M110.42,310.61h4.88v3.35h-4.88v5.67h5.67v3.35h-9.39v-21.04h9.39v3.38h-5.67V310.61z"/>
		<path d="M124.87,301.95c1.77,0,3.19,0.51,4.25,1.52c1.07,1.02,1.6,2.52,1.6,4.51v8.96c0,1.97-0.56,3.47-1.68,4.5
			c-1.12,1.03-2.57,1.54-4.36,1.54h-5.64v-21.04H124.87z M126.41,318.81c0.38-0.55,0.56-1.31,0.56-2.29v-7.9
			c0-1.08-0.18-1.9-0.55-2.45c-0.37-0.56-0.91-0.84-1.65-0.84h-2.01v14.3h2.01C125.49,319.63,126.03,319.36,126.41,318.81z"/>
		<path d="M140.2,317.19v-9.48c0-1.99,0.56-3.5,1.68-4.53c1.12-1.03,2.59-1.54,4.42-1.54c1.75,0,3.16,0.51,4.24,1.52
			c1.08,1.02,1.62,2.56,1.62,4.63v0.64h-3.75v-0.61c0-0.96-0.2-1.66-0.59-2.12c-0.4-0.46-0.93-0.69-1.6-0.69
			c-0.79,0-1.37,0.27-1.72,0.82c-0.36,0.55-0.53,1.37-0.53,2.47v8.45c0,2.05,0.75,3.08,2.26,3.08c0.67,0,1.21-0.23,1.6-0.7
			c0.4-0.47,0.59-1.16,0.59-2.07v-0.55h3.72v0.58c0,2.03-0.56,3.56-1.69,4.59s-2.58,1.54-4.34,1.54c-1.81,0-3.24-0.51-4.3-1.54
			C140.73,320.66,140.2,319.16,140.2,317.19z"/>
		<path d="M159.26,301.95v17.68h5.64v3.35h-9.39v-21.04H159.26z"/>
		<path d="M167.49,317.19v-9.48c0-1.99,0.56-3.5,1.68-4.53c1.12-1.03,2.59-1.54,4.42-1.54c1.77,0,3.19,0.51,4.25,1.54
			s1.6,2.54,1.6,4.53v9.48c0,1.95-0.56,3.44-1.69,4.48c-1.13,1.04-2.59,1.55-4.37,1.55c-1.81,0-3.24-0.51-4.3-1.54
			C168.02,320.66,167.49,319.16,167.49,317.19z M175.69,316.77v-8.45c0-1.08-0.18-1.9-0.55-2.45c-0.37-0.56-0.91-0.84-1.65-0.84
			c-0.79,0-1.37,0.27-1.72,0.82c-0.36,0.55-0.53,1.37-0.53,2.47v8.45c0,2.05,0.75,3.08,2.26,3.08c0.71,0,1.26-0.27,1.63-0.81
			C175.51,318.5,175.69,317.74,175.69,316.77z"/>
		<path d="M189.02,305.33v17.65h-3.72v-17.65h-3.66v-3.38h11.01v3.38H189.02z"/>
		<path d="M206.43,322.98h-3.75v-9.02h-3.96v9.02h-3.75v-21.04h3.75v8.66h3.96v-8.66h3.75V322.98z"/>
		<path d="M213.74,301.95v21.04h-3.72v-21.04H213.74z"/>
		<path d="M229.23,322.98h-3.75l-4.39-11.22v11.22h-3.75v-21.04h3.75l4.39,11.71v-11.71h3.75V322.98z"/>
		<path d="M232.59,317.19v-9.48c0-1.99,0.56-3.5,1.68-4.53c1.12-1.03,2.59-1.54,4.42-1.54c1.75,0,3.16,0.5,4.24,1.49
			c1.08,1,1.62,2.47,1.62,4.42v0.64h-3.75v-0.64c0-0.81-0.2-1.44-0.61-1.88c-0.41-0.44-0.94-0.66-1.59-0.66
			c-0.79,0-1.37,0.27-1.72,0.82c-0.36,0.55-0.53,1.37-0.53,2.47v8.45c0,2.05,0.75,3.08,2.26,3.08c0.73,0,1.28-0.25,1.65-0.75
			c0.37-0.5,0.55-1.21,0.55-2.15v-2.23h-2.23v-2.96h5.98v5.43c0,1.95-0.56,3.44-1.69,4.48c-1.13,1.04-2.59,1.55-4.37,1.55
			c-1.81,0-3.24-0.51-4.3-1.54C233.11,320.66,232.59,319.16,232.59,317.19z"/>
	</g>
</g>
<g id="ikon">
	<g>
		<g>
			<g>
				<path class="st1" d="M158.87,58.5c-4.16,8.63-13,14.59-23.22,14.59s-19.06-5.96-23.22-14.59H49.75v44.32h34.36V213.1h64.71
					l7.27-9.19l-6.87-7.9l3.69-8.72l-3.46-4.28l3.46-8.71l-4.06-12.75l12.65,17.4l-3.18,6.66l7.57,8.94l-3.52,5.27l9.09,13.27h15.71
					V102.82h34.36V58.5H158.87z"/>
			</g>
		</g>
	</g>
</g>
</svg>
