<?xml version="1.0" encoding="utf-8"?>
<!-- Generator: Adobe Illustrator 25.4.1, SVG Export Plug-In . SVG Version: 6.00 Build 0)  -->
<svg version="1.1" xmlns="http://www.w3.org/2000/svg" xmlns:xlink="http://www.w3.org/1999/xlink" x="0px" y="0px"
	 viewBox="0 0 271.29 356.19" style="enable-background:new 0 0 271.29 356.19;" xml:space="preserve">
<style type="text/css">
	.st0{fill:#E40521;}
	.st1{fill:#FFFFFF;}
</style>
<g id="bakgrund">
	<g>
		<rect x="1" y="1" class="st0" width="269.29" height="269.29"/>
		<path class="st0" d="M271.29,271.29H0V0h271.29V271.29z M2,269.29h267.29V2H2V269.29z"/>
	</g>
	<rect x="1" y="270.15" class="st1" width="269.29" height="85.04"/>
	<path class="st0" d="M271.29,356.19H0v-87.04h271.29V356.19z M2,354.19h267.29v-83.04H2V354.19z"/>
</g>
<g id="namn">
	<g>
		<path d="M30.06,310.94h4.88v3.38h-4.88v8.9h-3.75v-21.04h9.39v3.38h-5.64V310.94z"/>
		<path d="M42.38,302.19v21.04h-3.72v-21.04H42.38z"/>
		<path d="M49.73,314.78v8.44h-3.75v-21.04h5.73c2.07,0,3.54,0.5,4.41,1.49c0.86,1,1.3,2.59,1.3,4.79c0,1.4-0.19,2.57-0.58,3.51
			c-0.39,0.93-1.02,1.64-1.89,2.1l3.14,9.15h-3.9l-2.65-8.44H49.73z M51.68,311.43c0.75,0,1.27-0.25,1.55-0.75
			c0.29-0.5,0.43-1.24,0.43-2.21s-0.14-1.71-0.41-2.19c-0.27-0.49-0.8-0.73-1.57-0.73h-1.95v5.88H51.68z"/>
		<path d="M64.64,310.85h4.88v3.35h-4.88v5.67h5.67v3.35h-9.39v-21.04h9.39v3.38h-5.67V310.85z"/>
		<path d="M83.23,310.85h4.88v3.35h-4.88v5.67h5.67v3.35h-9.39v-21.04h9.39v3.38h-5.67V310.85z"/>
		<path d="M91.07,302.19h3.69l2.16,6.59l2.13-6.59h3.69l-3.99,10.12l4.3,10.91h-3.69l-2.44-7.35l-2.47,7.35h-3.69l4.3-10.91
			L91.07,302.19z"/>
		<path d="M111.65,305.58v17.65h-3.72v-17.65h-3.66v-3.38h11.01v3.38H111.65z"/>
		<path d="M121.44,302.19v21.04h-3.72v-21.04H121.44z"/>
		<path d="M136.93,323.23h-3.75l-4.39-11.22v11.22h-3.75v-21.04h3.75l4.39,11.71v-11.71h3.75V323.23z"/>
		<path d="M140.28,317.44v-9.48c0-1.99,0.56-3.5,1.68-4.53c1.12-1.03,2.59-1.54,4.42-1.54c1.75,0,3.16,0.5,4.24,1.49
			c1.08,1,1.62,2.47,1.62,4.42v0.64h-3.75v-0.64c0-0.81-0.2-1.44-0.61-1.88c-0.41-0.44-0.94-0.66-1.59-0.66
			c-0.79,0-1.37,0.27-1.72,0.82c-0.36,0.55-0.53,1.37-0.53,2.47v8.45c0,2.05,0.75,3.08,2.26,3.08c0.73,0,1.28-0.25,1.65-0.75
			c0.37-0.5,0.55-1.21,0.55-2.15v-2.23h-2.23v-2.96h5.98v5.43c0,1.95-0.56,3.44-1.69,4.48c-1.13,1.04-2.59,1.55-4.37,1.55
			c-1.81,0-3.24-0.51-4.3-1.54C140.81,320.91,140.28,319.41,140.28,317.44z"/>
		<path d="M156.33,320.73c-0.5-0.87-0.75-1.88-0.75-3.02v-15.52h3.75v15.43c0,0.85,0.16,1.48,0.49,1.88s0.82,0.59,1.49,0.59
			c1.32,0,1.98-0.82,1.98-2.47v-15.43h3.75v15.52c0,1.14-0.24,2.14-0.73,3.02c-0.49,0.87-1.17,1.55-2.04,2.03
			c-0.87,0.48-1.86,0.72-2.96,0.72s-2.08-0.24-2.94-0.72C157.51,322.28,156.83,321.6,156.33,320.73z"/>
		<path d="M174.37,302.19v21.04h-3.72v-21.04H174.37z"/>
		<path d="M177.26,317.22h3.54c0.04,1.04,0.25,1.8,0.62,2.29c0.38,0.49,0.93,0.73,1.66,0.73s1.27-0.22,1.6-0.67s0.5-1.16,0.5-2.13
			c0-0.81-0.19-1.46-0.56-1.94c-0.38-0.48-1.01-0.92-1.91-1.33l-1.43-0.64c-1.36-0.61-2.34-1.36-2.94-2.26
			c-0.6-0.89-0.9-2.09-0.9-3.6c0-1.77,0.51-3.18,1.54-4.24c1.03-1.06,2.41-1.58,4.16-1.58c1.73,0,3.06,0.52,4.01,1.57
			c0.94,1.05,1.45,2.56,1.51,4.53h-3.45c-0.02-0.96-0.19-1.67-0.5-2.15c-0.31-0.48-0.84-0.72-1.57-0.72c-1.36,0-2.04,0.8-2.04,2.41
			c0,0.73,0.17,1.32,0.5,1.75c0.33,0.44,0.9,0.83,1.69,1.17l1.37,0.61c1.46,0.65,2.53,1.46,3.19,2.44c0.66,0.98,0.99,2.28,0.99,3.9
			c0,1.95-0.51,3.46-1.52,4.51c-1.02,1.06-2.46,1.58-4.33,1.58c-1.85,0-3.26-0.54-4.24-1.62S177.28,319.24,177.26,317.22z"/>
		<path d="M203.33,323.23h-3.75v-9.02h-3.96v9.02h-3.75v-21.04h3.75v8.66h3.96v-8.66h3.75V323.23z"/>
		<path d="M210.53,310.85h4.88v3.35h-4.88v5.67h5.67v3.35h-9.39v-21.04h9.39v3.38h-5.67V310.85z"/>
		<path d="M222.91,314.78v8.44h-3.75v-21.04h5.73c2.07,0,3.54,0.5,4.41,1.49c0.86,1,1.3,2.59,1.3,4.79c0,1.4-0.19,2.57-0.58,3.51
			c-0.39,0.93-1.02,1.64-1.89,2.1l3.14,9.15h-3.9l-2.65-8.44H222.91z M224.86,311.43c0.75,0,1.27-0.25,1.55-0.75
			c0.29-0.5,0.43-1.24,0.43-2.21s-0.14-1.71-0.41-2.19c-0.27-0.49-0.8-0.73-1.57-0.73h-1.95v5.88H224.86z"/>
		<path d="M233.39,317.22h3.54c0.04,1.04,0.25,1.8,0.62,2.29c0.38,0.49,0.93,0.73,1.66,0.73s1.27-0.22,1.6-0.67s0.5-1.16,0.5-2.13
			c0-0.81-0.19-1.46-0.56-1.94c-0.38-0.48-1.01-0.92-1.91-1.33l-1.43-0.64c-1.36-0.61-2.34-1.36-2.94-2.26
			c-0.6-0.89-0.9-2.09-0.9-3.6c0-1.77,0.51-3.18,1.54-4.24c1.03-1.06,2.41-1.58,4.16-1.58c1.73,0,3.06,0.52,4.01,1.57
			c0.94,1.05,1.45,2.56,1.51,4.53h-3.45c-0.02-0.96-0.19-1.67-0.5-2.15c-0.31-0.48-0.84-0.72-1.57-0.72c-1.36,0-2.04,0.8-2.04,2.41
			c0,0.73,0.17,1.32,0.5,1.75c0.33,0.44,0.9,0.83,1.69,1.17l1.37,0.61c1.46,0.65,2.53,1.46,3.19,2.44c0.66,0.98,0.99,2.28,0.99,3.9
			c0,1.95-0.51,3.46-1.52,4.51c-1.02,1.06-2.46,1.58-4.33,1.58c-1.85,0-3.26-0.54-4.24-1.62S233.42,319.24,233.39,317.22z"/>
	</g>
</g>
<g id="ikon">
	<g>
		<polygon class="st1" points="76.57,226.61 100.27,229.28 100.23,171.23 92.71,171.23 		"/>
		<path class="st1" d="M194.72,73.47v-7.53h-37.71c-4.03,0-5.15-0.9-6.04-2.55c-1.07-1.98,0-4.51,2.53-6.09
			c2.04-1.28,33.67-18.36,33.67-18.36l-3.57-6.64l-34.86,18.81c-0.49,0.29-0.89,0.61-1.29,0.86c-3.95,2.53-14.68,11.67-14.69,11.68
			l0,6.23H119.9c-5.74,0-10.9,0.58-15.34,1.72c-4.89,1.25-9.09,3.23-12.48,5.88c-7.38,5.76-11.11,14.71-11.11,26.61
			c0,9.84,2.43,17.02,5,24.62c3.17,9.38,6.76,20,6.81,38.76h7.53c-0.05-20-3.85-31.25-7.2-41.18c-2.47-7.3-4.6-13.61-4.6-22.21
			c0-9.59,2.69-16.35,8.22-20.67c5.1-3.98,12.9-6,23.19-6h12.86l0,6.35c-14.25,3.23-24.66,13.17-24.83,24.97v130.26h69.66V108.73
			c-0.17-12.14-11.17-22.31-26.04-25.23V73.47H194.72z"/>
	</g>
</g>
</svg>
