<?xml version="1.0" encoding="UTF-8" standalone="no"?>
<svg
   xmlns:dc="http://purl.org/dc/elements/1.1/"
   xmlns:cc="http://creativecommons.org/ns#"
   xmlns:rdf="http://www.w3.org/1999/02/22-rdf-syntax-ns#"
   xmlns:svg="http://www.w3.org/2000/svg"
   xmlns="http://www.w3.org/2000/svg"
   xmlns:sodipodi="http://sodipodi.sourceforge.net/DTD/sodipodi-0.dtd"
   xmlns:inkscape="http://www.inkscape.org/namespaces/inkscape"
   version="1.1"
   id="svg2"
   xml:space="preserve"
   width="361.72134"
   height="474.91333"
   viewBox="0 0 361.72134 474.91333"
   sodipodi:docname="food-waste.ai"><metadata
     id="metadata8"><rdf:RDF><cc:Work
         rdf:about=""><dc:format>image/svg+xml</dc:format><dc:type
           rdf:resource="http://purl.org/dc/dcmitype/StillImage" /></cc:Work></rdf:RDF></metadata><defs
     id="defs6"><clipPath
       clipPathUnits="userSpaceOnUse"
       id="clipPath30"><path
         d="M 0,356.185 H 271.291 V 0 H 0 Z"
         id="path28" /></clipPath><clipPath
       clipPathUnits="userSpaceOnUse"
       id="clipPath70"><path
         d="M 0,356.185 H 271.291 V 0 H 0 Z"
         id="path68" /></clipPath><clipPath
       clipPathUnits="userSpaceOnUse"
       id="clipPath82"><path
         d="m 67.9264,267.399 h 0.0085 v -0.002 h -0.0085 z"
         id="path80" /></clipPath></defs><sodipodi:namedview
     pagecolor="#ffffff"
     bordercolor="#666666"
     borderopacity="1"
     objecttolerance="10"
     gridtolerance="10"
     guidetolerance="10"
     inkscape:pageopacity="0"
     inkscape:pageshadow="2"
     inkscape:window-width="640"
     inkscape:window-height="480"
     id="namedview4" /><g
     id="g10"
     inkscape:groupmode="layer"
     inkscape:label="food-waste"
     transform="matrix(1.3333333,0,0,-1.3333333,0,474.91333)"><path
       d="M 1,85.894 H 270.291 V 355.186 H 1 Z"
       style="fill:#03a64b;fill-opacity:1;fill-rule:nonzero;stroke:none"
       id="path12" /><path
       d="M 0,84.893 H 271.291 V 356.185 L 0,356.185 Z M 2,354.185 H 269.291 V 86.894 H 2 Z"
       style="fill:#03a64b;fill-opacity:1;fill-rule:nonzero;stroke:none"
       id="path14" /><path
       d="M 1,1 H 270.291 V 86.039 H 1 Z"
       style="fill:#ffffff;fill-opacity:1;fill-rule:nonzero;stroke:none"
       id="path16" /><path
       d="M 0,0 H 271.291 V 87.039 H 0 Z M 2,85.039 H 269.291 V 2 H 2 Z"
       style="fill:#03a64b;fill-opacity:1;fill-rule:nonzero;stroke:none"
       id="path18" /><g
       id="g20"
       transform="translate(71.1456,45.2414)"><path
         d="M 0,0 H 4.878 V -3.384 H 0 v -8.902 H -3.75 V 8.75 H 5.641 V 5.366 L 0,5.366 Z"
         style="fill:#1d1d1b;fill-opacity:1;fill-rule:nonzero;stroke:none"
         id="path22" /></g><g
       id="g24"><g
         id="g26"
         clip-path="url(#clipPath30)"><g
           id="g32"
           transform="translate(87.7002,39.175)"><path
             d="m 0,0 v 8.444 c 0,1.078 -0.183,1.896 -0.549,2.455 -0.365,0.559 -0.914,0.838 -1.646,0.838 -0.792,0 -1.367,-0.274 -1.722,-0.823 -0.356,-0.549 -0.534,-1.372 -0.534,-2.47 V 0 c 0,-2.053 0.752,-3.079 2.256,-3.079 0.712,0 1.256,0.269 1.632,0.808 C -0.187,-1.732 0,-0.976 0,0 m -8.201,-0.427 v 9.482 c 0,1.991 0.559,3.501 1.677,4.527 1.118,1.026 2.591,1.539 4.42,1.539 1.769,0 3.186,-0.513 4.253,-1.539 C 3.217,12.556 3.75,11.046 3.75,9.055 v -9.482 c 0,-1.951 -0.563,-3.445 -1.692,-4.481 -1.128,-1.037 -2.586,-1.555 -4.374,-1.555 -1.81,0 -3.243,0.513 -4.299,1.539 -1.058,1.027 -1.586,2.526 -1.586,4.497"
             style="fill:#1d1d1b;fill-opacity:1;fill-rule:nonzero;stroke:none"
             id="path34" /></g><g
           id="g36"
           transform="translate(102.8838,39.175)"><path
             d="m 0,0 v 8.444 c 0,1.078 -0.183,1.896 -0.549,2.455 -0.365,0.559 -0.914,0.838 -1.646,0.838 -0.792,0 -1.367,-0.274 -1.722,-0.823 -0.356,-0.549 -0.534,-1.372 -0.534,-2.47 V 0 c 0,-2.053 0.752,-3.079 2.256,-3.079 0.712,0 1.256,0.269 1.632,0.808 C -0.187,-1.732 0,-0.976 0,0 m -8.201,-0.427 v 9.482 c 0,1.991 0.559,3.501 1.677,4.527 1.118,1.026 2.591,1.539 4.42,1.539 1.769,0 3.186,-0.513 4.253,-1.539 C 3.217,12.556 3.75,11.046 3.75,9.055 v -9.482 c 0,-1.951 -0.563,-3.445 -1.692,-4.481 -1.128,-1.037 -2.586,-1.555 -4.374,-1.555 -1.81,0 -3.243,0.513 -4.299,1.539 -1.058,1.027 -1.586,2.526 -1.586,4.497"
             style="fill:#1d1d1b;fill-opacity:1;fill-rule:nonzero;stroke:none"
             id="path38" /></g><g
           id="g40"
           transform="translate(117.3516,37.132)"><path
             d="m 0,0 c 0.376,0.549 0.563,1.312 0.563,2.287 v 7.896 c 0,1.077 -0.182,1.895 -0.548,2.454 -0.367,0.559 -0.914,0.839 -1.647,0.839 H -3.644 V -0.823 h 2.012 C -0.92,-0.823 -0.377,-0.549 0,0 m -1.54,16.859 c 1.769,0 3.186,-0.507 4.253,-1.524 1.067,-1.016 1.6,-2.521 1.6,-4.512 V 1.86 c 0,-1.971 -0.558,-3.47 -1.676,-4.497 -1.118,-1.026 -2.572,-1.54 -4.36,-1.54 h -5.64 v 21.036 z"
             style="fill:#1d1d1b;fill-opacity:1;fill-rule:nonzero;stroke:none"
             id="path42" /></g><g
           id="g44"
           transform="translate(146.6045,32.9552)"><path
             d="M 0,0 H -4.055 L -6.341,12.927 -8.658,0 h -4.025 l -3.75,21.036 h 3.812 l 2.042,-15.731 1.982,15.731 h 4.573 L -2.042,5.305 0,21.036 h 3.75 z"
             style="fill:#1d1d1b;fill-opacity:1;fill-rule:nonzero;stroke:none"
             id="path46" /></g><g
           id="g48"
           transform="translate(158.8624,48.9308)"><path
             d="m 0,0 -1.769,-8.536 h 3.538 z m -2.47,-11.89 -0.853,-4.086 H -7.226 L -1.829,5.061 H 1.829 L 7.195,-15.976 H 3.293 l -0.854,4.086 z"
             style="fill:#1d1d1b;fill-opacity:1;fill-rule:nonzero;stroke:none"
             id="path50" /></g><g
           id="g52"
           transform="translate(167.7354,38.9611)"><path
             d="m 0,0 h 3.537 c 0.04,-1.036 0.248,-1.799 0.625,-2.286 0.376,-0.488 0.93,-0.732 1.661,-0.732 0.732,0 1.266,0.224 1.601,0.671 0.335,0.447 0.503,1.159 0.503,2.134 C 7.927,0.6 7.739,1.245 7.362,1.723 6.986,2.2 6.352,2.643 5.457,3.049 L 4.024,3.689 C 2.663,4.299 1.682,5.051 1.082,5.945 0.482,6.84 0.183,8.039 0.183,9.543 c 0,1.769 0.513,3.181 1.54,4.237 1.026,1.057 2.413,1.586 4.161,1.586 1.727,0 3.064,-0.523 4.01,-1.57 0.944,-1.047 1.448,-2.556 1.508,-4.527 H 7.957 C 7.937,10.224 7.77,10.94 7.454,11.418 7.14,11.896 6.616,12.134 5.884,12.134 4.522,12.134 3.842,11.331 3.842,9.726 3.842,8.994 4.009,8.41 4.345,7.973 4.68,7.536 5.244,7.145 6.036,6.799 l 1.372,-0.61 c 1.464,-0.65 2.526,-1.463 3.187,-2.439 0.66,-0.976 0.99,-2.276 0.99,-3.902 0,-1.952 -0.508,-3.455 -1.524,-4.512 -1.016,-1.057 -2.459,-1.585 -4.33,-1.585 -1.849,0 -3.261,0.538 -4.237,1.615 C 0.519,-3.557 0.021,-2.012 0,0"
             style="fill:#1d1d1b;fill-opacity:1;fill-rule:nonzero;stroke:none"
             id="path54" /></g><g
           id="g56"
           transform="translate(188.5596,50.6076)"><path
             d="M 0,0 V -17.652 H -3.72 V 0 H -7.378 V 3.384 H 3.628 V 0 Z"
             style="fill:#1d1d1b;fill-opacity:1;fill-rule:nonzero;stroke:none"
             id="path58" /></g><g
           id="g60"
           transform="translate(198.2247,45.3332)"><path
             d="M 0,0 H 4.878 V -3.354 H 0 v -5.67 h 5.671 v -3.354 H -3.72 V 8.658 H 5.671 V 5.274 L 0,5.274 Z"
             style="fill:#1d1d1b;fill-opacity:1;fill-rule:nonzero;stroke:none"
             id="path62" /></g></g></g><g
       id="g64"><g
         id="g66"
         clip-path="url(#clipPath70)"><g
           id="g72"
           transform="translate(137.7188,275.8683)"><path
             d="m 0,0 2.179,35.971 -8.736,0.016 2.171,-35.99 c 0.716,-0.04 1.438,-0.063 2.167,-0.063 0.746,0 1.486,0.023 2.219,0.066"
             style="fill:#ffffff;fill-opacity:1;fill-rule:nonzero;stroke:none"
             id="path74" /></g><g
           id="g76"><g
             id="g78" /><g
             id="g90"><g
               clip-path="url(#clipPath82)"
               opacity="0.5"
               id="g88"><g
                 transform="translate(67.9351,267.3981)"
                 id="g86"><path
                   d="M 0,0 V 0 H -0.009"
                   style="fill:#ffffff;fill-opacity:1;fill-rule:nonzero;stroke:none"
                   id="path84" /></g></g></g></g><g
           id="g92"
           transform="translate(198.0635,146.839)"><path
             d="m 0,0 c 0,0 -0.451,0.01 -0.503,0.012 -0.419,0.01 -1.98,0.093 -2.395,0.123 -13.256,0.922 -24.885,10.784 -32.15,25.588 -4.948,10.082 -7.895,22.406 -7.895,35.772 0,13.733 3.112,26.363 8.31,36.589 5.157,10.148 12.376,17.906 20.781,21.885 3.745,1.773 7.711,2.823 11.833,2.983 0.217,0.009 1.805,0.048 1.805,0.048 h 3.872 0.003 c -1.067,1.081 -2.132,2.165 -3.26,3.187 -6.079,5.467 -14.24,8.813 -23.213,8.813 h -10e-4 -0.001 c -5.72,0 -12.343,-1.36 -17.074,-3.762 l -0.001,0.003 -0.002,-0.001 v 0.001 c -7.085,-3.659 -13.939,-5.754 -22.527,-5.805 -8.588,0.051 -15.442,2.146 -22.527,5.805 v -0.001 l -0.002,0.001 -10e-4,-0.003 C -89.679,133.64 -96.302,135 -102.021,135 h -0.001 -10e-4 c -8.974,0 -17.135,-3.346 -23.214,-8.813 -1.128,-1.022 -2.193,-2.106 -3.26,-3.187 h -0.093 3.968 c 0,0 1.588,-0.039 1.805,-0.048 4.121,-0.16 8.088,-1.21 11.833,-2.983 8.405,-3.979 15.624,-11.737 20.781,-21.885 5.199,-10.226 8.311,-22.856 8.311,-36.589 0,-13.366 -2.948,-25.69 -7.896,-35.772 -7.265,-14.804 -18.893,-24.666 -32.149,-25.588 -0.416,-0.03 -1.978,-0.113 -2.396,-0.123 C -124.384,0.01 -124.835,0 -124.835,0 h -8.079 c 1.88,-2.258 3.773,-4.508 5.855,-6.576 0.044,-0.045 0.084,-0.094 0.129,-0.138 v -10e-4 c 6.214,-6.612 15.045,-10.9 24.836,-10.9 h 10e-4 0.001 0.003 c 1.557,0 7.238,0.163 8.74,0.365 0.506,0.073 1.018,0.128 1.516,0.224 1.118,0.202 2.203,0.49 3.279,0.798 0.91,0.261 1.796,0.559 2.674,0.892 0.815,0.31 1.593,0.653 2.355,1.023 6.069,3.302 12.357,5.308 21.107,5.308 8.741,0 15.177,-2.002 21.244,-5.298 0.768,-0.373 1.551,-0.721 2.373,-1.033 0.877,-0.333 1.763,-0.631 2.673,-0.892 1.077,-0.308 2.161,-0.596 3.278,-0.798 0.499,-0.096 1.012,-0.151 1.518,-0.224 1.501,-0.202 7.028,-0.365 8.586,-0.365 h 0.003 10e-4 0.001 c 9.79,0 18.621,4.288 24.835,10.9 l 0.001,10e-4 c 0.044,0.044 0.084,0.093 0.128,0.138 2.082,2.068 3.974,4.318 5.855,6.576 z"
             style="fill:#ffffff;fill-opacity:1;fill-rule:nonzero;stroke:none"
             id="path94" /></g></g></g></g></svg>
