<?xml version="1.0" encoding="utf-8"?>
<!-- Generator: Adobe Illustrator 25.4.1, SVG Export Plug-In . SVG Version: 6.00 Build 0)  -->
<svg version="1.1" xmlns="http://www.w3.org/2000/svg" xmlns:xlink="http://www.w3.org/1999/xlink" x="0px" y="0px"
	 viewBox="0 0 271.29 355.96" style="enable-background:new 0 0 271.29 355.96;" xml:space="preserve">
<style type="text/css">
	.st0{fill:#86BD40;}
	.st1{fill:#FFFFFF;}
</style>
<g id="bakgrund">
	<g>
		<rect x="1" y="1" class="st0" width="269.29" height="269.29"/>
		<path class="st0" d="M271.29,271.29H0V0h271.29V271.29z M2,269.29h267.29V2H2V269.29z"/>
	</g>
	<g>
		<rect x="1" y="269.92" class="st1" width="269.29" height="85.04"/>
		<path class="st0" d="M271.29,355.96H0v-87.04h271.29V355.96z M2,353.96h267.29v-83.04H2V353.96z"/>
	</g>
</g>
<g id="namn">
	<g>
		<path d="M81.22,310.55h4.88v3.38h-4.88v8.9h-3.75V301.8h9.39v3.38h-5.64V310.55z"/>
		<path d="M90.44,320.33c-0.5-0.87-0.75-1.88-0.75-3.02V301.8h3.75v15.43c0,0.85,0.16,1.48,0.49,1.88c0.33,0.4,0.82,0.59,1.49,0.59
			c1.32,0,1.98-0.82,1.98-2.47V301.8h3.75v15.52c0,1.14-0.24,2.14-0.73,3.02c-0.49,0.87-1.17,1.55-2.04,2.03
			c-0.87,0.48-1.86,0.72-2.96,0.72s-2.08-0.24-2.94-0.72C91.62,321.88,90.94,321.21,90.44,320.33z"/>
		<path d="M108.39,314.39v8.45h-3.75V301.8h5.73c2.07,0,3.54,0.5,4.41,1.49c0.86,1,1.3,2.59,1.3,4.79c0,1.4-0.19,2.57-0.58,3.51
			s-1.02,1.64-1.89,2.1l3.14,9.15h-3.9l-2.65-8.45H108.39z M110.34,311.03c0.75,0,1.27-0.25,1.55-0.75c0.29-0.5,0.43-1.23,0.43-2.21
			s-0.14-1.71-0.41-2.2c-0.27-0.49-0.8-0.73-1.57-0.73h-1.95v5.88H110.34z"/>
		<path d="M131.47,322.83h-3.75l-4.39-11.22v11.22h-3.75V301.8h3.75l4.39,11.71V301.8h3.75V322.83z"/>
		<path d="M138.79,301.8v21.04h-3.72V301.8H138.79z"/>
		<path d="M148.6,305.18v17.65h-3.72v-17.65h-3.66v-3.38h11.01v3.38H148.6z"/>
		<path d="M155.3,320.33c-0.5-0.87-0.75-1.88-0.75-3.02V301.8h3.75v15.43c0,0.85,0.16,1.48,0.49,1.88c0.33,0.4,0.82,0.59,1.49,0.59
			c1.32,0,1.98-0.82,1.98-2.47V301.8h3.75v15.52c0,1.14-0.24,2.14-0.73,3.02c-0.49,0.87-1.17,1.55-2.04,2.03
			c-0.87,0.48-1.86,0.72-2.96,0.72s-2.08-0.24-2.94-0.72C156.47,321.88,155.79,321.21,155.3,320.33z"/>
		<path d="M173.24,314.39v8.45h-3.75V301.8h5.73c2.07,0,3.54,0.5,4.41,1.49c0.86,1,1.3,2.59,1.3,4.79c0,1.4-0.19,2.57-0.58,3.51
			c-0.39,0.93-1.02,1.64-1.89,2.1l3.14,9.15h-3.9l-2.65-8.45H173.24z M175.19,311.03c0.75,0,1.27-0.25,1.55-0.75
			c0.29-0.5,0.43-1.23,0.43-2.21s-0.14-1.71-0.41-2.2c-0.27-0.49-0.8-0.73-1.57-0.73h-1.95v5.88H175.19z"/>
		<path d="M188.15,310.45h4.88v3.35h-4.88v5.67h5.67v3.35h-9.39V301.8h9.39v3.38h-5.67V310.45z"/>
	</g>
</g>
<g id="ikon">
	<g>
		<rect x="54.6" y="171.52" class="st1" width="9.95" height="11.37"/>
		<rect x="209.54" y="171.52" class="st1" width="9.95" height="11.37"/>
		<g>
			<g>
				<path class="st1" d="M130.37,88.4h-73.3c-2.13,0-3.87,1.73-3.87,3.87v54.82c0,2.13,1.73,3.87,3.87,3.87h73.3
					c2.13,0,3.87-1.73,3.87-3.87V92.27C134.24,90.14,132.5,88.4,130.37,88.4z"/>
			</g>
			<g>
				<path class="st1" d="M214.21,88.4h-73.29c-2.13,0-3.87,1.73-3.87,3.87v54.82c0,2.13,1.73,3.87,3.87,3.87h73.29
					c2.13,0,3.87-1.73,3.87-3.87V92.27C218.08,90.14,216.35,88.4,214.21,88.4z"/>
			</g>
		</g>
		<path class="st1" d="M230.67,120.23h-5.19c-2.48,0-4.51,2.03-4.51,4.51v29.32H50.32v-29.32c0-2.48-2.03-4.51-4.51-4.51h-5.19
			c-2.48,0-4.51,2.03-4.51,4.51v39.3c0,2.48,2.03,4.51,4.51,4.51h190.06c2.48,0,4.51-2.03,4.51-4.51v-39.3
			C235.18,122.26,233.15,120.23,230.67,120.23z"/>
	</g>
</g>
</svg>
