<?xml version="1.0" encoding="UTF-8" standalone="no"?>
<svg
   xmlns:dc="http://purl.org/dc/elements/1.1/"
   xmlns:cc="http://creativecommons.org/ns#"
   xmlns:rdf="http://www.w3.org/1999/02/22-rdf-syntax-ns#"
   xmlns:svg="http://www.w3.org/2000/svg"
   xmlns="http://www.w3.org/2000/svg"
   xmlns:sodipodi="http://sodipodi.sourceforge.net/DTD/sodipodi-0.dtd"
   xmlns:inkscape="http://www.inkscape.org/namespaces/inkscape"
   version="1.1"
   id="svg2"
   xml:space="preserve"
   width="361.72134"
   height="474.60666"
   viewBox="0 0 361.72134 474.60666"
   sodipodi:docname="garden-waste.ai"><metadata
     id="metadata8"><rdf:RDF><cc:Work
         rdf:about=""><dc:format>image/svg+xml</dc:format><dc:type
           rdf:resource="http://purl.org/dc/dcmitype/StillImage" /></cc:Work></rdf:RDF></metadata><defs
     id="defs6"><clipPath
       clipPathUnits="userSpaceOnUse"
       id="clipPath26"><path
         d="M 0,355.955 H 271.291 V 0 H 0 Z"
         id="path24" /></clipPath><clipPath
       clipPathUnits="userSpaceOnUse"
       id="clipPath78"><path
         d="M 0,355.955 H 271.291 V 0 H 0 Z"
         id="path76" /></clipPath></defs><sodipodi:namedview
     pagecolor="#ffffff"
     bordercolor="#666666"
     borderopacity="1"
     objecttolerance="10"
     gridtolerance="10"
     guidetolerance="10"
     inkscape:pageopacity="0"
     inkscape:pageshadow="2"
     inkscape:window-width="640"
     inkscape:window-height="480"
     id="namedview4" /><g
     id="g10"
     inkscape:groupmode="layer"
     inkscape:label="garden-waste"
     transform="matrix(1.3333333,0,0,-1.3333333,0,474.60667)"><path
       d="M 1,85.663 H 270.291 V 354.955 H 1 Z"
       style="fill:#06682d;fill-opacity:1;fill-rule:nonzero;stroke:none"
       id="path12" /><path
       d="M 0,84.664 H 271.291 V 355.956 L 0,355.956 Z M 2,353.955 H 269.291 V 86.664 H 2 Z"
       style="fill:#06682d;fill-opacity:1;fill-rule:nonzero;stroke:none"
       id="path14" /><path
       d="M 1,0.999 H 270.291 V 86.038 H 1 Z"
       style="fill:#ffffff;fill-opacity:1;fill-rule:nonzero;stroke:none"
       id="path16" /><path
       d="M 0,0 H 271.291 V 87.04 H 0 Z M 2,85.039 H 269.291 V 2.001 L 2,2.001 Z"
       style="fill:#06682d;fill-opacity:1;fill-rule:nonzero;stroke:none"
       id="path18" /><g
       id="g20"><g
         id="g22"
         clip-path="url(#clipPath26)"><g
           id="g28"
           transform="translate(51.8609,38.7485)"><path
             d="m 0,0 v 9.481 c 0,1.993 0.56,3.501 1.677,4.528 1.118,1.026 2.592,1.54 4.421,1.54 1.748,0 3.16,-0.498 4.237,-1.494 1.078,-0.996 1.616,-2.47 1.616,-4.421 v -0.64 h -3.75 v 0.64 c 0,0.813 -0.203,1.438 -0.609,1.875 -0.406,0.437 -0.936,0.656 -1.586,0.656 -0.792,0 -1.366,-0.274 -1.722,-0.823 C 3.928,10.793 3.75,9.97 3.75,8.872 V 0.427 c 0,-2.053 0.752,-3.079 2.256,-3.079 0.732,0 1.281,0.249 1.646,0.747 0.367,0.498 0.549,1.215 0.549,2.149 V 2.47 H 5.976 v 2.957 h 5.975 V 0 c 0,-1.951 -0.563,-3.444 -1.692,-4.481 -1.128,-1.037 -2.586,-1.555 -4.374,-1.555 -1.81,0 -3.242,0.514 -4.299,1.54 C 0.528,-3.47 0,-1.972 0,0"
             style="fill:#1d1d1b;fill-opacity:1;fill-rule:nonzero;stroke:none"
             id="path30" /></g><g
           id="g32"
           transform="translate(73.2945,48.9311)"><path
             d="m 0,0 -1.769,-8.536 h 3.538 z m -2.47,-11.89 -0.853,-4.085 H -7.226 L -1.829,5.062 H 1.829 L 7.195,-15.975 H 3.293 l -0.854,4.085 z"
             style="fill:#1d1d1b;fill-opacity:1;fill-rule:nonzero;stroke:none"
             id="path34" /></g><g
           id="g36"
           transform="translate(88.5699,44.7543)"><path
             d="M 0,0 C 0.752,0 1.271,0.249 1.555,0.747 1.84,1.245 1.981,1.982 1.981,2.958 1.981,3.934 1.845,4.665 1.57,5.152 1.296,5.641 0.772,5.885 0,5.885 H -1.951 V 0 Z m -1.951,-3.354 v -8.444 h -3.75 V 9.238 H 0.03 C 2.104,9.238 3.572,8.74 4.436,7.744 5.3,6.748 5.731,5.152 5.731,2.958 5.731,1.556 5.538,0.387 5.152,-0.549 4.767,-1.483 4.136,-2.185 3.263,-2.652 l 3.139,-9.146 H 2.5 l -2.652,8.444 z"
             style="fill:#1d1d1b;fill-opacity:1;fill-rule:nonzero;stroke:none"
             id="path38" /></g><g
           id="g40"
           transform="translate(105.1714,37.1332)"><path
             d="m 0,0 c 0.376,0.549 0.563,1.311 0.563,2.286 v 7.897 c 0,1.077 -0.182,1.895 -0.548,2.454 -0.366,0.558 -0.914,0.838 -1.647,0.838 H -3.644 V -0.823 h 2.012 C -0.92,-0.823 -0.377,-0.549 0,0 m -1.54,16.859 c 1.769,0 3.186,-0.508 4.253,-1.524 1.067,-1.017 1.6,-2.521 1.6,-4.513 V 1.859 c 0,-1.971 -0.558,-3.47 -1.676,-4.497 -1.118,-1.026 -2.572,-1.539 -4.36,-1.539 h -5.64 v 21.036 z"
             style="fill:#1d1d1b;fill-opacity:1;fill-rule:nonzero;stroke:none"
             id="path42" /></g><g
           id="g44"
           transform="translate(116.5591,45.3344)"><path
             d="M 0,0 H 4.878 V -3.354 H 0 v -5.67 h 5.671 v -3.354 H -3.72 V 8.658 H 5.671 V 5.273 L 0,5.273 Z"
             style="fill:#1d1d1b;fill-opacity:1;fill-rule:nonzero;stroke:none"
             id="path46" /></g><g
           id="g48"
           transform="translate(137.0782,32.9565)"><path
             d="M 0,0 H -3.75 L -8.14,11.219 V 0 h -3.75 v 21.036 h 3.75 L -3.75,9.329 V 21.036 H 0 Z"
             style="fill:#1d1d1b;fill-opacity:1;fill-rule:nonzero;stroke:none"
             id="path50" /></g><g
           id="g52"
           transform="translate(162.1387,32.9565)"><path
             d="M 0,0 H -4.055 L -6.341,12.926 -8.658,0 h -4.025 l -3.75,21.036 h 3.812 l 2.042,-15.731 1.982,15.731 h 4.573 L -2.042,5.305 0,21.036 h 3.75 z"
             style="fill:#1d1d1b;fill-opacity:1;fill-rule:nonzero;stroke:none"
             id="path54" /></g><g
           id="g56"
           transform="translate(174.3965,48.9311)"><path
             d="m 0,0 -1.769,-8.536 h 3.538 z m -2.47,-11.89 -0.853,-4.085 H -7.226 L -1.829,5.062 H 1.829 L 7.195,-15.975 H 3.293 l -0.854,4.085 z"
             style="fill:#1d1d1b;fill-opacity:1;fill-rule:nonzero;stroke:none"
             id="path58" /></g><g
           id="g60"
           transform="translate(183.2696,38.9623)"><path
             d="m 0,0 h 3.537 c 0.04,-1.037 0.248,-1.799 0.625,-2.287 0.376,-0.487 0.93,-0.732 1.661,-0.732 0.732,0 1.266,0.224 1.601,0.671 0.335,0.448 0.503,1.159 0.503,2.134 C 7.927,0.6 7.739,1.245 7.362,1.723 6.986,2.2 6.352,2.642 5.457,3.049 L 4.024,3.688 C 2.663,4.299 1.682,5.051 1.082,5.944 0.482,6.839 0.183,8.038 0.183,9.542 c 0,1.769 0.513,3.181 1.54,4.238 1.026,1.057 2.414,1.585 4.161,1.585 1.727,0 3.064,-0.523 4.01,-1.57 0.944,-1.047 1.448,-2.556 1.508,-4.527 H 7.957 C 7.937,10.224 7.77,10.939 7.454,11.417 7.14,11.895 6.616,12.134 5.884,12.134 4.522,12.134 3.842,11.331 3.842,9.726 3.842,8.993 4.009,8.409 4.345,7.973 4.68,7.535 5.244,7.144 6.036,6.799 L 7.408,6.188 c 1.464,-0.65 2.526,-1.462 3.187,-2.438 0.66,-0.976 0.99,-2.276 0.99,-3.902 0,-1.952 -0.508,-3.455 -1.524,-4.513 C 9.045,-5.722 7.602,-6.25 5.731,-6.25 3.882,-6.25 2.47,-5.711 1.494,-4.634 0.519,-3.557 0.021,-2.013 0,0"
             style="fill:#1d1d1b;fill-opacity:1;fill-rule:nonzero;stroke:none"
             id="path62" /></g><g
           id="g64"
           transform="translate(204.0938,50.6078)"><path
             d="M 0,0 V -17.651 H -3.72 V 0 H -7.378 V 3.385 H 3.628 V 0 Z"
             style="fill:#1d1d1b;fill-opacity:1;fill-rule:nonzero;stroke:none"
             id="path66" /></g><g
           id="g68"
           transform="translate(213.7588,45.3344)"><path
             d="M 0,0 H 4.878 V -3.354 H 0 v -5.67 h 5.671 v -3.354 H -3.72 V 8.658 H 5.671 V 5.273 L 0,5.273 Z"
             style="fill:#1d1d1b;fill-opacity:1;fill-rule:nonzero;stroke:none"
             id="path70" /></g></g></g><g
       id="g72"><g
         id="g74"
         clip-path="url(#clipPath78)"><g
           id="g80"
           transform="translate(89.5284,215.0414)"><path
             d="m 0,0 c 1.366,-9.572 5.391,-28.152 19.585,-43.97 9.883,-11.012 23.457,-18.404 24.823,-19.133 v 29.868 z"
             style="fill:#ffffff;fill-opacity:1;fill-rule:nonzero;stroke:none"
             id="path82" /></g><g
           id="g84"
           transform="translate(168.5567,277.6947)"><path
             d="m 0,0 c -4.511,6.575 -10.692,13.043 -15.283,18.728 -4.209,5.21 -9.833,10.509 -12.746,17.772 l -3.174,8.658 v -68.511 z"
             style="fill:#ffffff;fill-opacity:1;fill-rule:nonzero;stroke:none"
             id="path86" /></g><g
           id="g88"
           transform="translate(133.9366,215.9487)"><path
             d="m 0,0 -43.399,32.48 c -0.006,-0.027 -0.012,-0.055 -0.018,-0.082 C -45.13,23.987 -45.682,10.62 -44.982,3.791 L 0,-29.874 Z"
             style="fill:#ffffff;fill-opacity:1;fill-rule:nonzero;stroke:none"
             id="path90" /></g><g
           id="g92"
           transform="translate(133.9366,250.0737)"><path
             d="m 0,0 -33.054,24.738 -0.014,-0.024 C -37.473,17.367 -40.763,8.611 -42.536,1.977 L 0,-29.856 Z"
             style="fill:#ffffff;fill-opacity:1;fill-rule:nonzero;stroke:none"
             id="path94" /></g><g
           id="g96"
           transform="translate(133.9366,322.8349)"><path
             d="m 0,0 -3.173,-8.651 c -2.912,-7.263 -8.537,-12.562 -12.745,-17.773 -4.59,-5.682 -10.769,-12.148 -15.28,-18.721 L 0,-68.493 Z"
             style="fill:#ffffff;fill-opacity:1;fill-rule:nonzero;stroke:none"
             id="path98" /></g><g
           id="g100"
           transform="translate(137.3536,181.8061)"><path
             d="m 0,0 v -29.854 -0.003 c 1.358,0.725 14.938,8.117 24.824,19.133 14.189,15.812 18.217,34.384 19.584,43.959 z"
             style="fill:#ffffff;fill-opacity:1;fill-rule:nonzero;stroke:none"
             id="path102" /></g><g
           id="g104"
           transform="translate(137.3536,186.0741)"><path
             d="m 0,0 44.982,33.666 c 0.702,6.826 0.15,20.203 -1.564,28.618 -0.005,0.024 -0.011,0.049 -0.016,0.073 L 0,29.875 Z"
             style="fill:#ffffff;fill-opacity:1;fill-rule:nonzero;stroke:none"
             id="path106" /></g><g
           id="g108"
           transform="translate(137.3536,220.2172)"><path
             d="m 0,0 42.539,31.836 c -1.772,6.636 -5.063,15.396 -9.47,22.746 -0.003,0.005 -0.006,0.011 -0.009,0.016 L 0,29.856 Z"
             style="fill:#ffffff;fill-opacity:1;fill-rule:nonzero;stroke:none"
             id="path110" /></g><path
           d="m 137.355,117.766 h -3.417 v 34.173 h 3.417 z"
           style="fill:#ffffff;fill-opacity:1;fill-rule:nonzero;stroke:none"
           id="path112" /></g></g></g></svg>
