<?xml version="1.0" encoding="utf-8"?>
<!-- Generator: Adobe Illustrator 25.4.1, SVG Export Plug-In . SVG Version: 6.00 Build 0)  -->
<svg version="1.1" xmlns="http://www.w3.org/2000/svg" xmlns:xlink="http://www.w3.org/1999/xlink" x="0px" y="0px"
	 viewBox="0 0 271.29 355.96" style="enable-background:new 0 0 271.29 355.96;" xml:space="preserve">
<style type="text/css">
	.st0{fill:#06682D;}
	.st1{fill:#FFFFFF;}
</style>
<g id="bakgrund">
	<g>
		<rect x="1" y="1" class="st0" width="269.29" height="269.29"/>
		<path class="st0" d="M271.29,271.29H0V0h271.29V271.29z M2,269.29h267.29V2H2V269.29z"/>
	</g>
	<g>
		<rect x="1" y="269.92" class="st1" width="269.29" height="85.04"/>
		<path class="st0" d="M271.29,355.96H0v-87.04h271.29V355.96z M2,353.96h267.29v-83.04H2V353.96z"/>
	</g>
</g>
<g id="namn">
	<g>
		<path d="M51.86,317.21v-9.48c0-1.99,0.56-3.5,1.68-4.53c1.12-1.03,2.59-1.54,4.42-1.54c1.75,0,3.16,0.5,4.24,1.49
			c1.08,1,1.62,2.47,1.62,4.42v0.64h-3.75v-0.64c0-0.81-0.2-1.44-0.61-1.88c-0.41-0.44-0.94-0.66-1.59-0.66
			c-0.79,0-1.37,0.27-1.72,0.82c-0.36,0.55-0.53,1.37-0.53,2.47v8.45c0,2.05,0.75,3.08,2.26,3.08c0.73,0,1.28-0.25,1.65-0.75
			c0.37-0.5,0.55-1.21,0.55-2.15v-2.23h-2.23v-2.96h5.98v5.43c0,1.95-0.56,3.44-1.69,4.48c-1.13,1.04-2.59,1.55-4.37,1.55
			c-1.81,0-3.24-0.51-4.3-1.54C52.39,320.68,51.86,319.18,51.86,317.21z"/>
		<path d="M70.82,318.91L69.97,323h-3.9l5.4-21.04h3.66L80.49,323h-3.9l-0.85-4.08H70.82z M73.29,307.02l-1.77,8.54h3.54
			L73.29,307.02z"/>
		<path d="M86.62,314.55V323h-3.75v-21.04h5.73c2.07,0,3.54,0.5,4.41,1.49c0.86,1,1.3,2.59,1.3,4.79c0,1.4-0.19,2.57-0.58,3.51
			c-0.39,0.93-1.02,1.64-1.89,2.1l3.14,9.15h-3.9l-2.65-8.44H86.62z M88.57,311.2c0.75,0,1.27-0.25,1.55-0.75
			c0.29-0.5,0.43-1.24,0.43-2.21s-0.14-1.71-0.41-2.19c-0.27-0.49-0.8-0.73-1.57-0.73h-1.95v5.88H88.57z"/>
		<path d="M103.63,301.96c1.77,0,3.19,0.51,4.25,1.52c1.07,1.02,1.6,2.52,1.6,4.51v8.96c0,1.97-0.56,3.47-1.68,4.5
			s-2.57,1.54-4.36,1.54h-5.64v-21.04H103.63z M105.17,318.82c0.38-0.55,0.56-1.31,0.56-2.29v-7.9c0-1.08-0.18-1.9-0.55-2.45
			c-0.37-0.56-0.91-0.84-1.65-0.84h-2.01v14.3h2.01C104.25,319.65,104.79,319.37,105.17,318.82z"/>
		<path d="M116.56,310.62h4.88v3.35h-4.88v5.67h5.67V323h-9.39v-21.04h9.39v3.38h-5.67V310.62z"/>
		<path d="M137.08,323h-3.75l-4.39-11.22V323h-3.75v-21.04h3.75l4.39,11.71v-11.71h3.75V323z"/>
		<path d="M162.14,323h-4.05l-2.29-12.93L153.48,323h-4.02l-3.75-21.04h3.81l2.04,15.73l1.98-15.73h4.57l1.98,15.73l2.04-15.73h3.75
			L162.14,323z"/>
		<path d="M171.93,318.91l-0.85,4.08h-3.9l5.4-21.04h3.66l5.37,21.04h-3.9l-0.85-4.08H171.93z M174.4,307.02l-1.77,8.54h3.54
			L174.4,307.02z"/>
		<path d="M183.27,316.99h3.54c0.04,1.04,0.25,1.8,0.62,2.29c0.38,0.49,0.93,0.73,1.66,0.73s1.27-0.22,1.6-0.67s0.5-1.16,0.5-2.13
			c0-0.81-0.19-1.46-0.56-1.94c-0.38-0.48-1.01-0.92-1.91-1.33l-1.43-0.64c-1.36-0.61-2.34-1.36-2.94-2.26
			c-0.6-0.89-0.9-2.09-0.9-3.6c0-1.77,0.51-3.18,1.54-4.24c1.03-1.06,2.41-1.58,4.16-1.58c1.73,0,3.06,0.52,4.01,1.57
			c0.94,1.05,1.45,2.56,1.51,4.53h-3.45c-0.02-0.96-0.19-1.67-0.5-2.15c-0.31-0.48-0.84-0.72-1.57-0.72c-1.36,0-2.04,0.8-2.04,2.41
			c0,0.73,0.17,1.32,0.5,1.75c0.33,0.44,0.9,0.83,1.69,1.17l1.37,0.61c1.46,0.65,2.53,1.46,3.19,2.44c0.66,0.98,0.99,2.28,0.99,3.9
			c0,1.95-0.51,3.46-1.52,4.51c-1.02,1.06-2.46,1.58-4.33,1.58c-1.85,0-3.26-0.54-4.24-1.62S183.29,319.01,183.27,316.99z"/>
		<path d="M204.09,305.35V323h-3.72v-17.65h-3.66v-3.38h11.01v3.38H204.09z"/>
		<path d="M213.76,310.62h4.88v3.35h-4.88v5.67h5.67V323h-9.39v-21.04h9.39v3.38h-5.67V310.62z"/>
	</g>
</g>
<g id="ikon">
	<g>
		<g>
			<g>
				<path class="st1" d="M89.53,140.91c1.37,9.57,5.39,28.15,19.59,43.97c9.88,11.01,23.46,18.4,24.82,19.13v-29.87L89.53,140.91z"
					/>
			</g>
			<g>
				<path class="st1" d="M168.56,78.26c-4.51-6.57-10.69-13.04-15.28-18.73c-4.21-5.21-9.83-10.51-12.75-17.77l-3.17-8.66v68.51
					L168.56,78.26z"/>
			</g>
			<g>
				<path class="st1" d="M133.94,140.01l-43.4-32.48c-0.01,0.03-0.01,0.06-0.02,0.08c-1.71,8.41-2.27,21.78-1.57,28.61l44.98,33.66
					V140.01z"/>
			</g>
			<g>
				<path class="st1" d="M133.94,105.88l-33.05-24.74c0,0.01-0.01,0.02-0.01,0.02c-4.4,7.35-7.69,16.1-9.47,22.74l42.54,31.83
					V105.88z"/>
			</g>
			<g>
				<path class="st1" d="M133.94,33.12l-3.17,8.65c-2.91,7.26-8.54,12.56-12.75,17.77c-4.59,5.68-10.77,12.15-15.28,18.72
					l31.2,23.35V33.12z"/>
			</g>
			<g>
				<path class="st1" d="M137.35,174.15V204h0v0c1.36-0.72,14.94-8.12,24.82-19.13c14.19-15.81,18.22-34.38,19.58-43.96
					L137.35,174.15z"/>
			</g>
			<g>
				<path class="st1" d="M137.35,169.88l44.98-33.67c0.7-6.83,0.15-20.2-1.56-28.62c0-0.02-0.01-0.05-0.02-0.07l-43.4,32.48V169.88z
					"/>
			</g>
			<g>
				<path class="st1" d="M137.35,135.74l42.54-31.84c-1.77-6.64-5.06-15.4-9.47-22.75c0-0.01-0.01-0.01-0.01-0.02l-33.06,24.74
					V135.74z"/>
			</g>
			<g>
				<rect x="133.94" y="204.02" class="st1" width="3.42" height="34.17"/>
			</g>
		</g>
	</g>
</g>
</svg>
