<?xml version="1.0" encoding="utf-8"?>
<!-- Generator: Adobe Illustrator 25.4.1, SVG Export Plug-In . SVG Version: 6.00 Build 0)  -->
<svg version="1.1" xmlns="http://www.w3.org/2000/svg" xmlns:xlink="http://www.w3.org/1999/xlink" x="0px" y="0px"
	 viewBox="0 0 271.29 356.19" style="enable-background:new 0 0 271.29 356.19;" xml:space="preserve">
<style type="text/css">
	.st0{fill:#E40521;}
	.st1{fill:#FFFFFF;}
</style>
<g id="bakgrund">
	<g>
		<rect x="1" y="1" class="st0" width="269.29" height="269.29"/>
		<path class="st0" d="M271.29,271.29H0V0h271.29V271.29z M2,269.29h267.29V2H2V269.29z"/>
	</g>
	<rect x="1" y="270.15" class="st1" width="269.29" height="85.04"/>
	<path class="st0" d="M271.29,356.19H0v-87.04h271.29V356.19z M2,354.19h267.29v-83.04H2V354.19z"/>
</g>
<g id="namn">
	<g>
		<path d="M41.57,323.23h-3.75v-9.02h-3.96v9.02h-3.75v-21.04h3.75v8.66h3.96v-8.66h3.75V323.23z"/>
		<path d="M48.71,319.14l-0.85,4.08h-3.9l5.4-21.04H53l5.37,21.04h-3.9l-0.85-4.08H48.71z M51.17,307.25l-1.77,8.54h3.54
			L51.17,307.25z"/>
		<path d="M69.83,323.23h-9.72v-3.38l5.91-14.27h-5.61v-3.38h9.3v3.38l-5.88,14.27h6.01V323.23z"/>
		<path d="M76.27,319.14l-0.85,4.08h-3.9l5.4-21.04h3.66l5.37,21.04h-3.9l-0.85-4.08H76.27z M78.74,307.25l-1.77,8.54h3.54
			L78.74,307.25z"/>
		<path d="M92.06,314.78v8.44h-3.75v-21.04h5.73c2.07,0,3.54,0.5,4.41,1.49c0.86,1,1.3,2.59,1.3,4.79c0,1.4-0.19,2.57-0.58,3.51
			c-0.39,0.93-1.02,1.64-1.89,2.1l3.14,9.15h-3.9l-2.65-8.44H92.06z M94.01,311.43c0.75,0,1.27-0.25,1.55-0.75
			c0.29-0.5,0.43-1.24,0.43-2.21s-0.14-1.71-0.41-2.19c-0.27-0.49-0.8-0.73-1.57-0.73h-1.95v5.88H94.01z"/>
		<path d="M109.07,302.19c1.77,0,3.19,0.51,4.25,1.52c1.07,1.02,1.6,2.52,1.6,4.51v8.96c0,1.97-0.56,3.47-1.68,4.5
			s-2.57,1.54-4.36,1.54h-5.64v-21.04H109.07z M110.61,319.05c0.38-0.55,0.56-1.31,0.56-2.29v-7.9c0-1.08-0.18-1.9-0.55-2.45
			c-0.37-0.56-0.91-0.84-1.65-0.84h-2.01v14.3h2.01C109.69,319.88,110.24,319.6,110.61,319.05z"/>
		<path d="M118.16,317.44v-9.48c0-1.99,0.56-3.5,1.68-4.53c1.12-1.03,2.59-1.54,4.42-1.54c1.77,0,3.19,0.51,4.25,1.54
			s1.6,2.54,1.6,4.53v9.48c0,1.95-0.56,3.44-1.69,4.48c-1.13,1.04-2.59,1.55-4.37,1.55c-1.81,0-3.24-0.51-4.3-1.54
			C118.69,320.91,118.16,319.41,118.16,317.44z M126.36,317.01v-8.45c0-1.08-0.18-1.9-0.55-2.45c-0.37-0.56-0.91-0.84-1.65-0.84
			c-0.79,0-1.37,0.27-1.72,0.82c-0.36,0.55-0.53,1.37-0.53,2.47v8.45c0,2.05,0.75,3.08,2.26,3.08c0.71,0,1.26-0.27,1.63-0.81
			C126.17,318.74,126.36,317.99,126.36,317.01z"/>
		<path d="M134.21,320.73c-0.5-0.87-0.75-1.88-0.75-3.02v-15.52h3.75v15.43c0,0.85,0.16,1.48,0.49,1.88s0.82,0.59,1.49,0.59
			c1.32,0,1.98-0.82,1.98-2.47v-15.43h3.75v15.52c0,1.14-0.24,2.14-0.73,3.02c-0.49,0.87-1.17,1.55-2.04,2.03
			c-0.87,0.48-1.86,0.72-2.96,0.72s-2.08-0.24-2.94-0.72C135.39,322.28,134.71,321.6,134.21,320.73z"/>
		<path d="M147.7,317.22h3.54c0.04,1.04,0.25,1.8,0.62,2.29c0.38,0.49,0.93,0.73,1.66,0.73s1.27-0.22,1.6-0.67s0.5-1.16,0.5-2.13
			c0-0.81-0.19-1.46-0.56-1.94c-0.38-0.48-1.01-0.92-1.91-1.33l-1.43-0.64c-1.36-0.61-2.34-1.36-2.94-2.26
			c-0.6-0.89-0.9-2.09-0.9-3.6c0-1.77,0.51-3.18,1.54-4.24c1.03-1.06,2.41-1.58,4.16-1.58c1.73,0,3.06,0.52,4.01,1.57
			c0.94,1.05,1.45,2.56,1.51,4.53h-3.45c-0.02-0.96-0.19-1.67-0.5-2.15c-0.31-0.48-0.84-0.72-1.57-0.72c-1.36,0-2.04,0.8-2.04,2.41
			c0,0.73,0.17,1.32,0.5,1.75c0.33,0.44,0.9,0.83,1.69,1.17l1.37,0.61c1.46,0.65,2.53,1.46,3.19,2.44c0.66,0.98,0.99,2.28,0.99,3.9
			c0,1.95-0.51,3.46-1.52,4.51c-1.02,1.06-2.46,1.58-4.33,1.58c-1.85,0-3.26-0.54-4.24-1.62S147.72,319.24,147.7,317.22z"/>
		<path d="M183.89,323.23h-4.05l-2.29-12.93l-2.32,12.93h-4.02l-3.75-21.04h3.81l2.04,15.73l1.98-15.73h4.57l1.98,15.73l2.04-15.73
			h3.75L183.89,323.23z"/>
		<path d="M193.68,319.14l-0.85,4.08h-3.9l5.4-21.04h3.66l5.37,21.04h-3.9l-0.85-4.08H193.68z M196.15,307.25l-1.77,8.54h3.54
			L196.15,307.25z"/>
		<path d="M205.02,317.22h3.54c0.04,1.04,0.25,1.8,0.62,2.29c0.38,0.49,0.93,0.73,1.66,0.73s1.27-0.22,1.6-0.67s0.5-1.16,0.5-2.13
			c0-0.81-0.19-1.46-0.56-1.94c-0.38-0.48-1.01-0.92-1.91-1.33l-1.43-0.64c-1.36-0.61-2.34-1.36-2.94-2.26
			c-0.6-0.89-0.9-2.09-0.9-3.6c0-1.77,0.51-3.18,1.54-4.24c1.03-1.06,2.41-1.58,4.16-1.58c1.73,0,3.06,0.52,4.01,1.57
			c0.94,1.05,1.45,2.56,1.51,4.53h-3.45c-0.02-0.96-0.19-1.67-0.5-2.15c-0.31-0.48-0.84-0.72-1.57-0.72c-1.36,0-2.04,0.8-2.04,2.41
			c0,0.73,0.17,1.32,0.5,1.75c0.33,0.44,0.9,0.83,1.69,1.17l1.37,0.61c1.46,0.65,2.53,1.46,3.19,2.44c0.66,0.98,0.99,2.28,0.99,3.9
			c0,1.95-0.51,3.46-1.52,4.51c-1.02,1.06-2.46,1.58-4.33,1.58c-1.85,0-3.26-0.54-4.24-1.62S205.04,319.24,205.02,317.22z"/>
		<path d="M225.85,305.58v17.65h-3.72v-17.65h-3.66v-3.38h11.01v3.38H225.85z"/>
		<path d="M235.51,310.85h4.88v3.35h-4.88v5.67h5.67v3.35h-9.39v-21.04h9.39v3.38h-5.67V310.85z"/>
	</g>
</g>
<g id="ikon">
	<g>
		<g>
			<path class="st1" d="M230.38,207.64L230.38,207.64L140.4,57.81c-0.97-1.6-2.73-2.68-4.75-2.68c-2.13,0-3.98,1.2-4.91,2.96
				L40.89,207.68l0,0c-0.62,0.98-0.94,2.18-0.83,3.45c0.26,2.9,2.86,5.04,5.77,5.04h179.64c2.92,0,5.53-2.15,5.77-5.07
				C231.35,209.82,231.01,208.62,230.38,207.64z M135.65,196.02c-4.45,0-8.05-3.6-8.05-8.05c0-4.45,3.6-8.05,8.05-8.05
				c4.45,0,8.05,3.6,8.05,8.05C143.7,192.42,140.09,196.02,135.65,196.02z M139.67,172l-8.04-0.01l-4.04-64.4h16.1L139.67,172z"/>
		</g>
	</g>
</g>
</svg>
