<?xml version="1.0" encoding="UTF-8" standalone="no"?>
<svg
   xmlns:dc="http://purl.org/dc/elements/1.1/"
   xmlns:cc="http://creativecommons.org/ns#"
   xmlns:rdf="http://www.w3.org/1999/02/22-rdf-syntax-ns#"
   xmlns:svg="http://www.w3.org/2000/svg"
   xmlns="http://www.w3.org/2000/svg"
   xmlns:sodipodi="http://sodipodi.sourceforge.net/DTD/sodipodi-0.dtd"
   xmlns:inkscape="http://www.inkscape.org/namespaces/inkscape"
   version="1.1"
   id="svg2"
   xml:space="preserve"
   width="361.72134"
   height="474.91333"
   viewBox="0 0 361.72134 474.91333"
   sodipodi:docname="hazardous-waste.ai"><metadata
     id="metadata8"><rdf:RDF><cc:Work
         rdf:about=""><dc:format>image/svg+xml</dc:format><dc:type
           rdf:resource="http://purl.org/dc/dcmitype/StillImage" /></cc:Work></rdf:RDF></metadata><defs
     id="defs6"><clipPath
       clipPathUnits="userSpaceOnUse"
       id="clipPath42"><path
         d="M 0,356.185 H 271.291 V 0 H 0 Z"
         id="path40" /></clipPath><clipPath
       clipPathUnits="userSpaceOnUse"
       id="clipPath90"><path
         d="M 0,356.185 H 271.291 V 0 H 0 Z"
         id="path88" /></clipPath></defs><sodipodi:namedview
     pagecolor="#ffffff"
     bordercolor="#666666"
     borderopacity="1"
     objecttolerance="10"
     gridtolerance="10"
     guidetolerance="10"
     inkscape:pageopacity="0"
     inkscape:pageshadow="2"
     inkscape:window-width="640"
     inkscape:window-height="480"
     id="namedview4" /><g
     id="g10"
     inkscape:groupmode="layer"
     inkscape:label="hazardous-waste"
     transform="matrix(1.3333333,0,0,-1.3333333,0,474.91333)"><path
       d="M 1,85.894 H 270.292 V 355.185 H 1 Z"
       style="fill:#e40521;fill-opacity:1;fill-rule:nonzero;stroke:none"
       id="path12" /><path
       d="M 0,84.893 H 271.291 V 356.185 L 0,356.185 Z M 2,354.185 H 269.291 V 86.894 H 2 Z"
       style="fill:#e40521;fill-opacity:1;fill-rule:nonzero;stroke:none"
       id="path14" /><path
       d="M 1,1 H 270.291 V 86.039 H 1 Z"
       style="fill:#ffffff;fill-opacity:1;fill-rule:nonzero;stroke:none"
       id="path16" /><path
       d="M 0,0 H 271.291 V 87.039 H 0 Z M 2,85.039 H 269.291 V 2 H 2 Z"
       style="fill:#e40521;fill-opacity:1;fill-rule:nonzero;stroke:none"
       id="path18" /><g
       id="g20"
       transform="translate(41.5704,32.9562)"><path
         d="M 0,0 H -3.749 V 9.023 H -7.713 V 0 h -3.75 v 21.036 h 3.75 v -8.658 h 3.964 v 8.658 H 0 Z"
         style="fill:#1d1d1b;fill-opacity:1;fill-rule:nonzero;stroke:none"
         id="path22" /></g><g
       id="g24"
       transform="translate(51.1749,48.9308)"><path
         d="m 0,0 -1.769,-8.536 h 3.538 z m -2.47,-11.89 -0.853,-4.085 H -7.226 L -1.829,5.062 H 1.829 L 7.195,-15.975 H 3.293 l -0.854,4.085 z"
         style="fill:#1d1d1b;fill-opacity:1;fill-rule:nonzero;stroke:none"
         id="path26" /></g><g
       id="g28"
       transform="translate(69.834,32.9562)"><path
         d="m 0,0 h -9.725 v 3.384 l 5.914,14.267 H -9.42 v 3.385 h 9.299 V 17.651 L -6.006,3.384 H 0 Z"
         style="fill:#1d1d1b;fill-opacity:1;fill-rule:nonzero;stroke:none"
         id="path30" /></g><g
       id="g32"
       transform="translate(78.7374,48.9308)"><path
         d="m 0,0 -1.769,-8.536 h 3.538 z m -2.47,-11.89 -0.853,-4.085 H -7.226 L -1.829,5.062 H 1.829 L 7.195,-15.975 H 3.293 l -0.854,4.085 z"
         style="fill:#1d1d1b;fill-opacity:1;fill-rule:nonzero;stroke:none"
         id="path34" /></g><g
       id="g36"><g
         id="g38"
         clip-path="url(#clipPath42)"><g
           id="g44"
           transform="translate(94.0127,44.7541)"><path
             d="M 0,0 C 0.752,0 1.271,0.249 1.555,0.747 1.84,1.245 1.981,1.982 1.981,2.958 1.981,3.934 1.845,4.665 1.57,5.152 1.296,5.641 0.772,5.885 0,5.885 H -1.951 V 0 Z m -1.951,-3.354 v -8.444 h -3.75 V 9.238 H 0.03 C 2.104,9.238 3.572,8.74 4.436,7.744 5.3,6.748 5.731,5.152 5.731,2.958 5.731,1.556 5.538,0.387 5.152,-0.549 4.767,-1.483 4.136,-2.185 3.263,-2.652 l 3.139,-9.146 H 2.5 l -2.652,8.444 z"
             style="fill:#1d1d1b;fill-opacity:1;fill-rule:nonzero;stroke:none"
             id="path46" /></g><g
           id="g48"
           transform="translate(110.6143,37.133)"><path
             d="m 0,0 c 0.376,0.549 0.563,1.311 0.563,2.286 v 7.897 c 0,1.077 -0.182,1.895 -0.548,2.454 -0.366,0.558 -0.914,0.838 -1.647,0.838 H -3.644 V -0.823 h 2.012 C -0.92,-0.823 -0.377,-0.549 0,0 m -1.54,16.859 c 1.769,0 3.186,-0.508 4.253,-1.524 1.067,-1.017 1.6,-2.521 1.6,-4.513 V 1.859 c 0,-1.971 -0.558,-3.47 -1.676,-4.497 -1.118,-1.026 -2.572,-1.539 -4.36,-1.539 h -5.64 v 21.036 z"
             style="fill:#1d1d1b;fill-opacity:1;fill-rule:nonzero;stroke:none"
             id="path50" /></g><g
           id="g52"
           transform="translate(126.3614,39.175)"><path
             d="m 0,0 v 8.445 c 0,1.077 -0.183,1.896 -0.549,2.454 -0.365,0.559 -0.914,0.839 -1.646,0.839 -0.792,0 -1.367,-0.274 -1.722,-0.823 -0.356,-0.549 -0.534,-1.372 -0.534,-2.47 V 0 c 0,-2.053 0.752,-3.079 2.256,-3.079 0.712,0 1.256,0.269 1.632,0.808 C -0.187,-1.732 0,-0.976 0,0 m -8.201,-0.427 v 9.482 c 0,1.992 0.559,3.501 1.677,4.527 1.118,1.026 2.591,1.54 4.42,1.54 1.769,0 3.186,-0.514 4.253,-1.54 C 3.217,12.556 3.75,11.047 3.75,9.055 v -9.482 c 0,-1.951 -0.563,-3.444 -1.692,-4.481 -1.128,-1.036 -2.586,-1.555 -4.374,-1.555 -1.81,0 -3.243,0.514 -4.299,1.54 -1.058,1.027 -1.586,2.525 -1.586,4.496"
             style="fill:#1d1d1b;fill-opacity:1;fill-rule:nonzero;stroke:none"
             id="path54" /></g><g
           id="g56"
           transform="translate(134.2129,35.4562)"><path
             d="m 0,0 c -0.498,0.874 -0.747,1.88 -0.747,3.018 v 15.518 h 3.75 V 3.109 C 3.003,2.256 3.166,1.631 3.491,1.234 3.816,0.838 4.314,0.64 4.984,0.64 c 1.322,0 1.983,0.823 1.983,2.469 v 15.427 h 3.749 V 3.018 C 10.716,1.88 10.473,0.874 9.984,0 9.497,-0.874 8.815,-1.55 7.942,-2.027 7.068,-2.505 6.082,-2.744 4.984,-2.744 3.887,-2.744 2.906,-2.505 2.043,-2.027 1.179,-1.55 0.498,-0.874 0,0"
             style="fill:#1d1d1b;fill-opacity:1;fill-rule:nonzero;stroke:none"
             id="path58" /></g><g
           id="g60"
           transform="translate(147.7041,38.9621)"><path
             d="m 0,0 h 3.537 c 0.04,-1.037 0.248,-1.799 0.625,-2.287 0.376,-0.487 0.93,-0.732 1.661,-0.732 0.732,0 1.266,0.224 1.601,0.671 0.335,0.448 0.503,1.159 0.503,2.134 C 7.927,0.6 7.739,1.245 7.362,1.723 6.986,2.2 6.352,2.642 5.457,3.049 L 4.024,3.688 C 2.663,4.299 1.682,5.051 1.082,5.944 0.482,6.839 0.183,8.038 0.183,9.542 c 0,1.769 0.513,3.181 1.54,4.238 1.026,1.057 2.413,1.585 4.161,1.585 1.727,0 3.064,-0.523 4.01,-1.57 0.944,-1.047 1.448,-2.556 1.508,-4.527 H 7.957 C 7.937,10.224 7.77,10.939 7.454,11.417 7.14,11.895 6.616,12.134 5.884,12.134 4.522,12.134 3.842,11.331 3.842,9.726 3.842,8.993 4.009,8.409 4.345,7.973 4.68,7.535 5.244,7.144 6.036,6.799 L 7.408,6.188 c 1.464,-0.65 2.526,-1.462 3.187,-2.438 0.66,-0.976 0.99,-2.276 0.99,-3.902 0,-1.952 -0.508,-3.455 -1.524,-4.513 C 9.045,-5.722 7.602,-6.25 5.731,-6.25 3.882,-6.25 2.47,-5.711 1.494,-4.634 0.519,-3.557 0.021,-2.013 0,0"
             style="fill:#1d1d1b;fill-opacity:1;fill-rule:nonzero;stroke:none"
             id="path62" /></g><g
           id="g64"
           transform="translate(183.8936,32.9562)"><path
             d="M 0,0 H -4.055 L -6.341,12.926 -8.658,0 h -4.025 l -3.75,21.036 h 3.812 l 2.042,-15.731 1.982,15.731 h 4.573 L -2.042,5.305 0,21.036 h 3.75 z"
             style="fill:#1d1d1b;fill-opacity:1;fill-rule:nonzero;stroke:none"
             id="path66" /></g><g
           id="g68"
           transform="translate(196.1514,48.9308)"><path
             d="m 0,0 -1.769,-8.536 h 3.538 z m -2.47,-11.89 -0.853,-4.085 H -7.226 L -1.829,5.062 H 1.829 L 7.195,-15.975 H 3.293 l -0.854,4.085 z"
             style="fill:#1d1d1b;fill-opacity:1;fill-rule:nonzero;stroke:none"
             id="path70" /></g><g
           id="g72"
           transform="translate(205.0245,38.9621)"><path
             d="m 0,0 h 3.537 c 0.04,-1.037 0.248,-1.799 0.625,-2.287 0.376,-0.487 0.93,-0.732 1.661,-0.732 0.732,0 1.266,0.224 1.601,0.671 0.335,0.448 0.503,1.159 0.503,2.134 C 7.927,0.6 7.739,1.245 7.362,1.723 6.986,2.2 6.352,2.642 5.457,3.049 L 4.024,3.688 C 2.663,4.299 1.682,5.051 1.082,5.944 0.482,6.839 0.183,8.038 0.183,9.542 c 0,1.769 0.513,3.181 1.54,4.238 1.026,1.057 2.413,1.585 4.161,1.585 1.727,0 3.064,-0.523 4.01,-1.57 0.944,-1.047 1.448,-2.556 1.508,-4.527 H 7.957 C 7.937,10.224 7.77,10.939 7.454,11.417 7.14,11.895 6.616,12.134 5.884,12.134 4.522,12.134 3.842,11.331 3.842,9.726 3.842,8.993 4.009,8.409 4.345,7.973 4.68,7.535 5.244,7.144 6.036,6.799 L 7.408,6.188 c 1.464,-0.65 2.526,-1.462 3.187,-2.438 0.66,-0.976 0.99,-2.276 0.99,-3.902 0,-1.952 -0.508,-3.455 -1.524,-4.513 C 9.045,-5.722 7.602,-6.25 5.731,-6.25 3.882,-6.25 2.47,-5.711 1.494,-4.634 0.519,-3.557 0.021,-2.013 0,0"
             style="fill:#1d1d1b;fill-opacity:1;fill-rule:nonzero;stroke:none"
             id="path74" /></g><g
           id="g76"
           transform="translate(225.8477,50.6076)"><path
             d="M 0,0 V -17.651 H -3.72 V 0 H -7.378 V 3.385 H 3.628 V 0 Z"
             style="fill:#1d1d1b;fill-opacity:1;fill-rule:nonzero;stroke:none"
             id="path78" /></g><g
           id="g80"
           transform="translate(235.5127,45.3341)"><path
             d="M 0,0 H 4.878 V -3.354 H 0 v -5.67 h 5.671 v -3.354 H -3.72 V 8.658 H 5.671 V 5.273 L 0,5.273 Z"
             style="fill:#1d1d1b;fill-opacity:1;fill-rule:nonzero;stroke:none"
             id="path82" /></g></g></g><g
       id="g84"><g
         id="g86"
         clip-path="url(#clipPath90)"><g
           id="g92"
           transform="translate(139.6709,184.1828)"><path
             d="m 0,0 -8.037,0.01 -4.04,64.403 H 4.026 Z m -4.025,-24.021 c -4.447,0 -8.052,3.605 -8.052,8.052 0,4.447 3.605,8.052 8.052,8.052 4.447,0 8.051,-3.605 8.051,-8.052 0,-4.447 -3.604,-8.052 -8.051,-8.052 m 94.734,-11.617 10e-4,10e-4 -89.985,149.832 c -0.971,1.605 -2.735,2.678 -4.75,2.678 -2.133,0 -3.983,-1.203 -4.911,-2.964 L -98.785,-35.677 h 10e-4 c -0.623,-0.983 -0.944,-2.175 -0.832,-3.447 0.255,-2.9 2.855,-5.035 5.766,-5.035 H 85.793 c 2.924,0 5.534,2.151 5.775,5.065 0.106,1.278 -0.226,2.473 -0.859,3.456"
             style="fill:#ffffff;fill-opacity:1;fill-rule:nonzero;stroke:none"
             id="path94" /></g></g></g></g></svg>
