<?xml version="1.0" encoding="utf-8"?>
<!-- Generator: Adobe Illustrator 25.4.1, SVG Export Plug-In . SVG Version: 6.00 Build 0)  -->
<svg version="1.1" xmlns="http://www.w3.org/2000/svg" xmlns:xlink="http://www.w3.org/1999/xlink" x="0px" y="0px"
	 viewBox="0 0 271.29 355.96" style="enable-background:new 0 0 271.29 355.96;" xml:space="preserve">
<style type="text/css">
	.st0{fill:#06682D;}
	.st1{fill:#FFFFFF;}
</style>
<g id="bakgrund">
	<g>
		<rect x="1" y="1" class="st0" width="269.29" height="269.29"/>
		<path class="st0" d="M271.29,271.29H0V0h271.29V271.29z M2,269.29h267.29V2H2V269.29z"/>
	</g>
	<g>
		<rect x="1" y="269.92" class="st1" width="269.29" height="85.04"/>
		<path class="st0" d="M271.29,355.96H0v-87.04h271.29V355.96z M2,353.96h267.29v-83.04H2V353.96z"/>
	</g>
</g>
<g id="namn">
	<g>
		<path d="M87.72,286.96V308H84v-21.04H87.72z"/>
		<path d="M103.2,308h-3.75l-4.39-11.22V308h-3.75v-21.04h3.75l4.39,11.71v-11.71h3.75V308z"/>
		<path d="M109.7,286.96l2.53,15.73l2.56-15.73h4.12L114.18,308h-3.87l-4.73-21.04H109.7z"/>
		<path d="M124.94,303.91l-0.85,4.09h-3.9l5.4-21.04h3.66l5.37,21.04h-3.9l-0.85-4.09H124.94z M127.41,292.02l-1.77,8.54h3.54
			L127.41,292.02z"/>
		<path d="M136.29,301.99h3.54c0.04,1.04,0.25,1.8,0.62,2.29c0.38,0.49,0.93,0.73,1.66,0.73s1.27-0.22,1.6-0.67
			c0.33-0.45,0.5-1.16,0.5-2.13c0-0.81-0.19-1.46-0.56-1.94c-0.38-0.48-1.01-0.92-1.91-1.33l-1.43-0.64
			c-1.36-0.61-2.34-1.36-2.94-2.26s-0.9-2.09-0.9-3.6c0-1.77,0.51-3.18,1.54-4.24s2.41-1.59,4.16-1.59c1.73,0,3.06,0.52,4.01,1.57
			c0.94,1.05,1.45,2.56,1.51,4.53h-3.45c-0.02-0.96-0.19-1.67-0.5-2.15c-0.31-0.48-0.84-0.72-1.57-0.72c-1.36,0-2.04,0.8-2.04,2.41
			c0,0.73,0.17,1.32,0.5,1.75c0.33,0.44,0.9,0.83,1.69,1.17l1.37,0.61c1.46,0.65,2.53,1.46,3.19,2.44c0.66,0.98,0.99,2.28,0.99,3.9
			c0,1.95-0.51,3.46-1.52,4.51c-1.02,1.06-2.46,1.58-4.33,1.58c-1.85,0-3.26-0.54-4.24-1.62S136.31,304.01,136.29,301.99z"/>
		<path d="M154.73,286.96V308h-3.72v-21.04H154.73z"/>
		<path d="M161.35,286.96l2.53,15.73l2.56-15.73h4.12L165.83,308h-3.87l-4.73-21.04H161.35z"/>
		<path d="M176.65,295.62h4.88v3.35h-4.88v5.67h5.67V308h-9.39v-21.04h9.39v3.38h-5.67V295.62z"/>
		<path d="M62.12,333.91L61.27,338h-3.9l5.4-21.04h3.66L71.79,338h-3.9l-0.85-4.09H62.12z M64.59,322.02l-1.77,8.54h3.54
			L64.59,322.02z"/>
		<path d="M77.91,316.96v17.68h5.64V338h-9.39v-21.04H77.91z"/>
		<path d="M90.11,316.96V338h-3.72v-21.04H90.11z"/>
		<path d="M97.43,325.62h4.88v3.35h-4.88v5.67h5.67V338h-9.39v-21.04h9.39v3.38h-5.67V325.62z"/>
		<path d="M117.95,338h-3.75l-4.39-11.22V338h-3.75v-21.04h3.75l4.39,11.71v-11.71h3.75V338z"/>
		<path d="M126.97,331.99h3.54c0.04,1.04,0.25,1.8,0.62,2.29c0.38,0.49,0.93,0.73,1.66,0.73s1.27-0.22,1.6-0.67
			c0.33-0.45,0.5-1.16,0.5-2.13c0-0.81-0.19-1.46-0.56-1.94c-0.38-0.48-1.01-0.92-1.91-1.33L131,328.3
			c-1.36-0.61-2.34-1.36-2.94-2.26c-0.6-0.89-0.9-2.09-0.9-3.6c0-1.77,0.51-3.18,1.54-4.24c1.03-1.06,2.41-1.59,4.16-1.59
			c1.73,0,3.06,0.52,4.01,1.57c0.94,1.05,1.45,2.56,1.51,4.53h-3.45c-0.02-0.96-0.19-1.67-0.5-2.15c-0.31-0.48-0.84-0.72-1.57-0.72
			c-1.36,0-2.04,0.8-2.04,2.41c0,0.73,0.17,1.32,0.5,1.75c0.33,0.44,0.9,0.83,1.69,1.17l1.37,0.61c1.46,0.65,2.53,1.46,3.19,2.44
			c0.66,0.98,0.99,2.28,0.99,3.9c0,1.95-0.51,3.46-1.52,4.51c-1.02,1.06-2.46,1.58-4.33,1.58c-1.85,0-3.26-0.54-4.24-1.62
			C127.49,335.55,126.99,334.01,126.97,331.99z"/>
		<path d="M153.01,323.58c0,2.24-0.45,3.9-1.36,5s-2.37,1.65-4.41,1.65h-1.95V338h-3.72v-21.04h5.67c2.07,0,3.55,0.55,4.44,1.65
			C152.57,319.71,153.01,321.36,153.01,323.58z M149.26,323.58c0-1.12-0.16-1.94-0.47-2.47c-0.31-0.53-0.87-0.79-1.66-0.79h-1.83
			v6.52h1.83c0.79,0,1.35-0.26,1.66-0.79C149.1,325.52,149.26,324.7,149.26,323.58z"/>
		<path d="M159.44,325.62h4.88v3.35h-4.88v5.67h5.67V338h-9.39v-21.04h9.39v3.38h-5.67V325.62z"/>
		<path d="M167.95,332.21v-9.48c0-1.99,0.56-3.5,1.68-4.53c1.12-1.03,2.59-1.54,4.42-1.54c1.75,0,3.16,0.51,4.24,1.52
			c1.08,1.02,1.62,2.56,1.62,4.63v0.64h-3.75v-0.61c0-0.96-0.2-1.66-0.59-2.12c-0.4-0.46-0.93-0.69-1.6-0.69
			c-0.79,0-1.37,0.27-1.72,0.82c-0.36,0.55-0.53,1.37-0.53,2.47v8.44c0,2.05,0.75,3.08,2.26,3.08c0.67,0,1.21-0.23,1.6-0.7
			c0.4-0.47,0.59-1.16,0.59-2.07v-0.55h3.72v0.58c0,2.03-0.56,3.56-1.69,4.59s-2.58,1.54-4.34,1.54c-1.81,0-3.24-0.51-4.3-1.54
			C168.48,335.68,167.95,334.18,167.95,332.21z"/>
		<path d="M187.1,316.96V338h-3.72v-21.04H187.1z"/>
		<path d="M194.41,325.62h4.88v3.35h-4.88v5.67h5.67V338h-9.39v-21.04h9.39v3.38h-5.67V325.62z"/>
		<path d="M202.34,331.99h3.54c0.04,1.04,0.25,1.8,0.62,2.29c0.38,0.49,0.93,0.73,1.66,0.73s1.27-0.22,1.6-0.67
			c0.33-0.45,0.5-1.16,0.5-2.13c0-0.81-0.19-1.46-0.56-1.94c-0.38-0.48-1.01-0.92-1.91-1.33l-1.43-0.64
			c-1.36-0.61-2.34-1.36-2.94-2.26s-0.9-2.09-0.9-3.6c0-1.77,0.51-3.18,1.54-4.24s2.41-1.59,4.16-1.59c1.73,0,3.06,0.52,4.01,1.57
			c0.94,1.05,1.45,2.56,1.51,4.53h-3.45c-0.02-0.96-0.19-1.67-0.5-2.15c-0.31-0.48-0.84-0.72-1.57-0.72c-1.36,0-2.04,0.8-2.04,2.41
			c0,0.73,0.17,1.32,0.5,1.75c0.33,0.44,0.9,0.83,1.69,1.17l1.37,0.61c1.46,0.65,2.53,1.46,3.19,2.44c0.66,0.98,0.99,2.28,0.99,3.9
			c0,1.95-0.51,3.46-1.52,4.51c-1.02,1.06-2.46,1.58-4.33,1.58c-1.85,0-3.26-0.54-4.24-1.62S202.36,334.01,202.34,331.99z"/>
	</g>
</g>
<g id="ikon">
	<g>
		<path class="st1" d="M179.89,175.36c-0.02-0.01-0.06,0.01-0.12,0.04C179.86,175.38,179.91,175.36,179.89,175.36z"/>
		<path class="st1" d="M192.14,97.18c0-0.14-0.01-0.21-0.01-0.21S192.13,97.06,192.14,97.18z"/>
		<path class="st1" d="M212.42,136.95c0,0-0.59-1.47-2.84,0.49c-2.25,1.96-3.63,1.96-4.7,1.47c-1.08-0.49-0.88,0.29-3.43,1.08
			c-2.55,0.78-3.92-1.37-3.92-1.37l3.43-2.35c0,0-5.49,0.49-7.84,0.59c-2.35,0.1-2.65-0.88-1.86-2.94c0.78-2.06,4.9-2.94,4.9-2.94
			s-1.86-1.27-1.08-3.92c0.78-2.65,4.51-3.43,4.51-3.43l6.56-4.9c0,0-7.25-2.65-7.54-6.07c-0.29-3.43,4.02-8.33,4.02-8.33
			l-2.45-0.98l-0.1-2.45c0,0,1.27-2.74,1.37-2.94c0.1-0.2,0-7.64,0-7.64s-6.27,8.62-7.84,8.43c-1.21-0.15-1.43-1.12-1.46-1.55
			c0.03,0.94,0.1,4.72-0.5,5.67c-0.69,1.08,0,0-1.18,1.18c-1.18,1.18-4.21-1.08-4.21-1.08v-5.49c0,0-3.23,5-3.43,5.29
			c-0.2,0.29-0.88,3.63-1.96,6.17c-1.08,2.55-2.16,3.72-4.61,4.41c-2.45,0.69-2.65-3.43-2.65-3.43l1.37-3.04c0,0-1.86-1.18-1.08-5
			c0.78-3.82,8.92-7.84,8.92-7.84c-0.78,0.2-3.23,0.29-4.51-0.59c-1.27-0.88,0.88-2.84,0.88-2.84s-0.29-6.96-0.59-6.76
			c-0.29,0.2-2.25,3.23-2.55,3.33c-0.29,0.1-2.65,0-3.72,0.59c-1.08,0.59-2.65,0.59-3.23-0.88c-0.59-1.47,2.45-5.19,2.45-5.19
			l7.05-7.64l-4.9-0.1l-0.1-3.82l4.02-6.86c-3.72,0.49-2.06-10.68-2.06-10.68l-12.35,9.99l-2.55-1.86v8.13l-1.37,3.82l-1.76,0.29
			c0,0,1.86,3.72-1.18,6.27s-5-1.47-5-1.47l0.29-3.53c0,0-1.57-0.98-2.16-2.74s2.65-5.19,2.65-5.19c-1.86-1.18,1.27-5.1,1.27-5.1
			l2.16-6.56c-1.57,2.06-6.17,3.14-8.82,2.94c-2.65-0.2-2.35-2.65-2.06-5.49c0.29-2.84,3.14-6.07,3.14-6.07l-6.07-0.1l-5.39-12.15
			l-3.23,14.4l-9.01-1.67c0,0,2.06,4.7,1.67,4.8s2.84,4.8,1.43,8.23c-1.41,3.43-5.74,1.76-6.03,1.57c-0.29-0.2,5.29,5.98,5.68,7.35
			c0.39,1.37,0.88,2.55-1.18,4.02c-2.06,1.47-4.02,0.49-4.02,0.49l-3.23-4.31c-0.88,2.25-2.35,1.47-2.35,1.47l-3.23-3.04
			c-1.76,0.69-3.43-3.43-3.43-3.43l-4.12-4.12l1.57,6.76l-0.1,3.33c0,0-1.37,0.98-1.76,1.08c-0.39,0.1,8.03,7.64,8.03,7.64
			l-5.78,2.55l7.05,4.7l0.2,4.51c0,0-4.9,2.35-2.35,2.06c2.55-0.29,8.62,4.9,8.7,5.88c0.08,0.98-1.06,1.47-0.47,2.45
			c0.59,0.98,1.08,1.86-1.47,3.53s-4.61-1.57-4.61-1.57v-6.66c-2.74,2.35-4.7-3.33-4.7-3.33l-1.96-0.59l-0.98-8.03
			c-3.82,1.96-4.02-2.06-4.02-2.06h-1.18c0,0,0.29-2.65,0-2.65s-3.53-0.88-3.53-0.88l-4.7-5.78l-0.39,10.58c0,0,1.76,1.08,2.35,4.02
			c0.59,2.94-3.23,3.23-3.23,3.23l2.74,2.74v5.49c0,0-7.64-0.1-6.86,0c0.31,0.04,8.03,7.74,8.03,7.74l-0.59,4.12
			c0,0,3.72,3.04,1.18,5.29c-2.55,2.25-11.27-0.69-11.27-0.69s1.57,2.16,1.96,4.61c0.39,2.45-0.49,2.16-3.43,4.51
			c-2.94,2.35-8.82-8.43-8.82-8.43c-3.82,5-12.35-7.05-12.35-7.05c1.86,8.92-1.57,9.31-1.57,9.31c4.31,1.96,7.84,9.01,7.84,9.01
			l-4.31,1.37c0,0,7.54,1.37,5,5.88c-2.55,4.51-10.19,3.92-10.78,3.82c0,0,1.76,2.74,4.9,3.92c3.14,1.18,5.1,3.23,8.03,5.1
			c2.06,1.3,3.23,1.69,3.56,1.77c-0.01,0-0.02,0-0.03-0.01c-0.59-0.1-1.86,1.67-6.17,3.14c-4.31,1.47-7.15,1.96-7.15,1.96
			s3.33,1.86,6.66,2.45c3.33,0.59,8.92,2.25,11.37,4.12c2.45,1.86,4.02,5.58,4.02,5.58s-1.96,1.27-3.92,0.39
			c-1.96-0.88-8.33-4.12-8.33-4.12s0.2,0.59,0.59,3.33c0.39,2.74-6.17-0.2-6.17-0.2s-4.31-3.72-4.21-2.74
			c0.1,0.98-2.65,5.49-3.43,5.49s-6.47-1.47-6.76-1.67c-0.29-0.2,7.84,6.07,8.62,7.84s-1.57,3.04-1.57,3.04
			c4.61-0.1,8.23,4.51,8.23,4.51s3.72-0.29,5.88,0.1c2.16,0.39,3.82,2.25,3.43,4.61c-0.39,2.35-5.29,6.66-4.51,6.47
			c0.78-0.2,11.66-3.53,13.13-4.21c1.47-0.69,5-4.61,5-4.61s0.88,1.27,0.29,2.94c-0.59,1.67-4.61,7.74-4.61,7.74
			c1.76,0,8.43-5.39,10.39-6.37c1.96-0.98,2.06-0.59,1.76,1.08c-0.29,1.67-8.43,6.56-7.05,6.96c1.37,0.39,1.76,3.43,1.47,3.43
			s-2.35,3.63-2.35,3.63l0.29,3.63l-1.17,0.49v6.56c0,0,1.27-3.72,2.05-5.1c0.78-1.37,3.53-3.14,5.58-2.94
			c2.06,0.2,3.23,7.05,3.23,7.05s1.57-2.45,2.55-4.01c0.98-1.56,3.92-6.67,5.78-8.14c1.86-1.47,4.7,1.57,4.9,2.25
			c0.2,0.69,0.78,6.76,2.74,5.78c1.96-0.98,2.35-9.8,3.14-11.56s3.23,0,4.61,0c1.37,0,2.45-2.35,4.7-2.94
			c2.25-0.59,1.76,5.98,1.76,5.98l1.47-2.45l0.08-14.43l11.4,52.44c0.18,0.84,1.01,1.38,1.85,1.19l0.77-0.17
			c0.84-0.18,1.37-1.01,1.19-1.85l-10.52-48.36l0.4-3.66c1.48,1.61,3.54,3.18,3.54,3.18l9.21,16.66c0,0-0.49-6.37,0.69-8.13
			c1.18-1.76,3.82-1.47,6.86-1.96c3.04-0.49,8.92,6.86,8.92,6.86s1.18-4.7,4.51-5.59c3.33-0.88,9.9,5,9.9,5
			c4.9-7.94,19.5-1.76,19.79-1.76c0.29,0-6.96-7.35-9.01-10.19c-2.06-2.84-0.39-4.12-0.1-4.12c0.29,0-11.95-1.96-14.31-2.94
			c-2.2-0.92,2.27-4.65,3.11-5.06c-1.11,0.18-9.28,0.84-9.28,0.84l-2.55-0.98c0,0,3.04-3.53,3.43-3.82
			c0.39-0.29,4.12,0.49,4.12,0.49l12.44,3.33l-4.12-3.82c0,0-2.55-3.14-0.1-5c2.45-1.86,2.74-0.98,4.41-0.49
			c1.67,0.49,3.14,1.96,4.12,0.88c0.98-1.08,4.12-0.29,6.37-0.29c2.25,0,7.84,0.98,7.84,0.98s-1.96-2.06-3.23-3.14
			c-1.27-1.08-3.53-3.72-3.33-5.78c0.2-2.06,4.51-3.72,6.07-4.31s6.27-3.92,6.27-3.92s-0.88,0.59-2.16,0
			c-1.27-0.59,1.37-3.23,1.47-3.53c0.1-0.29,5.58-5.78,5.58-5.78l0.88-4.51l1.57-4.31L212.42,136.95z"/>
	</g>
</g>
</svg>
