<?xml version="1.0" encoding="UTF-8" standalone="no"?>
<svg
   xmlns:dc="http://purl.org/dc/elements/1.1/"
   xmlns:cc="http://creativecommons.org/ns#"
   xmlns:rdf="http://www.w3.org/1999/02/22-rdf-syntax-ns#"
   xmlns:svg="http://www.w3.org/2000/svg"
   xmlns="http://www.w3.org/2000/svg"
   xmlns:sodipodi="http://sodipodi.sourceforge.net/DTD/sodipodi-0.dtd"
   xmlns:inkscape="http://www.inkscape.org/namespaces/inkscape"
   version="1.1"
   id="svg2"
   xml:space="preserve"
   width="361.72134"
   height="474.91333"
   viewBox="0 0 361.72134 474.91333"
   sodipodi:docname="light-bulbs.ai"><metadata
     id="metadata8"><rdf:RDF><cc:Work
         rdf:about=""><dc:format>image/svg+xml</dc:format><dc:type
           rdf:resource="http://purl.org/dc/dcmitype/StillImage" /></cc:Work></rdf:RDF></metadata><defs
     id="defs6"><clipPath
       clipPathUnits="userSpaceOnUse"
       id="clipPath32"><path
         d="M 0,356.185 H 271.291 V 0 H 0 Z"
         id="path30" /></clipPath><clipPath
       clipPathUnits="userSpaceOnUse"
       id="clipPath72"><path
         d="M 0,356.185 H 271.291 V 0 H 0 Z"
         id="path70" /></clipPath></defs><sodipodi:namedview
     pagecolor="#ffffff"
     bordercolor="#666666"
     borderopacity="1"
     objecttolerance="10"
     gridtolerance="10"
     guidetolerance="10"
     inkscape:pageopacity="0"
     inkscape:pageshadow="2"
     inkscape:window-width="640"
     inkscape:window-height="480"
     id="namedview4" /><g
     id="g10"
     inkscape:groupmode="layer"
     inkscape:label="light-bulbs"
     transform="matrix(1.3333333,0,0,-1.3333333,0,474.91333)"><path
       d="M 1,85.894 H 270.291 V 355.185 H 1 Z"
       style="fill:#f18800;fill-opacity:1;fill-rule:nonzero;stroke:none"
       id="path12" /><path
       d="M 0,84.893 H 271.291 V 356.185 L 0,356.185 Z M 2,354.185 H 269.291 V 86.894 H 2 Z"
       style="fill:#f18800;fill-opacity:1;fill-rule:nonzero;stroke:none"
       id="path14" /><path
       d="M 1,1 H 270.291 V 86.039 H 1 Z"
       style="fill:#ffffff;fill-opacity:1;fill-rule:nonzero;stroke:none"
       id="path16" /><path
       d="M 0,0 H 271.291 V 87.039 H 0 Z M 2,85.039 H 269.291 V 2 H 2 Z"
       style="fill:#f18800;fill-opacity:1;fill-rule:nonzero;stroke:none"
       id="path18" /><g
       id="g20"
       transform="translate(71.5733,53.9914)"><path
         d="m 0,0 v -17.683 h 5.641 v -3.353 H -3.75 V 0 Z"
         style="fill:#1d1d1b;fill-opacity:1;fill-rule:nonzero;stroke:none"
         id="path22" /></g><path
       d="m 83.77,32.955 h -3.72 v 21.036 h 3.72 z"
       style="fill:#1d1d1b;fill-opacity:1;fill-rule:nonzero;stroke:none"
       id="path24" /><g
       id="g26"><g
         id="g28"
         clip-path="url(#clipPath32)"><g
           id="g34"
           transform="translate(87.2442,38.7482)"><path
             d="m 0,0 v 9.481 c 0,1.992 0.56,3.501 1.677,4.528 1.118,1.026 2.592,1.539 4.421,1.539 1.748,0 3.16,-0.498 4.237,-1.493 1.078,-0.996 1.616,-2.47 1.616,-4.421 V 8.993 h -3.75 v 0.641 c 0,0.812 -0.203,1.437 -0.609,1.875 C 7.186,11.945 6.656,12.164 6.006,12.164 5.214,12.164 4.64,11.89 4.284,11.341 3.928,10.792 3.75,9.969 3.75,8.871 V 0.427 c 0,-2.053 0.752,-3.079 2.256,-3.079 0.732,0 1.281,0.249 1.646,0.747 0.367,0.498 0.549,1.214 0.549,2.149 V 2.47 H 5.976 v 2.957 h 5.975 V 0 c 0,-1.951 -0.563,-3.445 -1.692,-4.481 -1.128,-1.038 -2.586,-1.555 -4.374,-1.555 -1.81,0 -3.242,0.513 -4.299,1.539 C 0.528,-3.471 0,-1.972 0,0"
             style="fill:#1d1d1b;fill-opacity:1;fill-rule:nonzero;stroke:none"
             id="path36" /></g><g
           id="g38"
           transform="translate(114.0127,32.9552)"><path
             d="M 0,0 H -3.749 V 9.024 H -7.713 V 0 h -3.75 v 21.036 h 3.75 v -8.658 h 3.964 v 8.658 H 0 Z"
             style="fill:#1d1d1b;fill-opacity:1;fill-rule:nonzero;stroke:none"
             id="path40" /></g><g
           id="g42"
           transform="translate(123.71,50.6076)"><path
             d="M 0,0 V -17.652 H -3.72 V 0 H -7.378 V 3.384 H 3.628 V 0 Z"
             style="fill:#1d1d1b;fill-opacity:1;fill-rule:nonzero;stroke:none"
             id="path44" /></g><g
           id="g46"
           transform="translate(143.6192,39.3273)"><path
             d="M 0,0 C 0,1.057 -0.188,1.819 -0.564,2.286 -0.94,2.754 -1.565,2.987 -2.439,2.987 h -1.555 v -6.006 h 1.555 c 0.934,0 1.575,0.229 1.92,0.687 C -0.173,-1.875 0,-1.098 0,0 m -3.994,6.22 h 1.585 c 0.874,0 1.484,0.198 1.829,0.593 0.346,0.397 0.518,1.042 0.518,1.937 0,0.935 -0.172,1.596 -0.518,1.981 -0.345,0.386 -0.955,0.58 -1.829,0.58 h -1.585 z m 7.743,-6.494 c 0,-2.134 -0.436,-3.684 -1.311,-4.65 -0.874,-0.965 -2.357,-1.448 -4.451,-1.448 h -5.701 v 21.036 h 5.701 c 2.053,0 3.517,-0.452 4.391,-1.356 0.874,-0.905 1.31,-2.343 1.31,-4.314 C 3.688,7.957 3.516,7.073 3.17,6.341 2.824,5.609 2.235,5.051 1.402,4.664 2.316,4.258 2.937,3.658 3.262,2.866 3.587,2.073 3.749,1.026 3.749,-0.274"
             style="fill:#1d1d1b;fill-opacity:1;fill-rule:nonzero;stroke:none"
             id="path48" /></g><g
           id="g50"
           transform="translate(151.4698,35.4552)"><path
             d="m 0,0 c -0.498,0.874 -0.747,1.88 -0.747,3.019 v 15.517 h 3.75 V 3.11 c 0,-0.854 0.163,-1.479 0.488,-1.875 0.325,-0.396 0.822,-0.594 1.493,-0.594 1.322,0 1.983,0.823 1.983,2.469 v 15.426 h 3.749 V 3.019 C 10.716,1.88 10.473,0.874 9.984,0 9.497,-0.874 8.815,-1.55 7.942,-2.027 7.068,-2.505 6.082,-2.743 4.984,-2.743 3.887,-2.743 2.906,-2.505 2.043,-2.027 1.179,-1.55 0.498,-0.874 0,0"
             style="fill:#1d1d1b;fill-opacity:1;fill-rule:nonzero;stroke:none"
             id="path52" /></g><g
           id="g54"
           transform="translate(169.4122,53.9914)"><path
             d="m 0,0 v -17.683 h 5.641 v -3.353 H -3.75 V 0 Z"
             style="fill:#1d1d1b;fill-opacity:1;fill-rule:nonzero;stroke:none"
             id="path56" /></g><g
           id="g58"
           transform="translate(185.4805,39.3273)"><path
             d="M 0,0 C 0,1.057 -0.188,1.819 -0.564,2.286 -0.94,2.754 -1.565,2.987 -2.439,2.987 h -1.555 v -6.006 h 1.555 c 0.934,0 1.575,0.229 1.92,0.687 C -0.173,-1.875 0,-1.098 0,0 m -3.994,6.22 h 1.585 c 0.874,0 1.484,0.198 1.829,0.593 0.346,0.397 0.518,1.042 0.518,1.937 0,0.935 -0.172,1.596 -0.518,1.981 -0.345,0.386 -0.955,0.58 -1.829,0.58 h -1.585 z m 7.743,-6.494 c 0,-2.134 -0.436,-3.684 -1.311,-4.65 -0.874,-0.965 -2.357,-1.448 -4.451,-1.448 h -5.701 v 21.036 h 5.701 c 2.053,0 3.517,-0.452 4.391,-1.356 0.874,-0.905 1.31,-2.343 1.31,-4.314 C 3.688,7.957 3.516,7.073 3.17,6.341 2.824,5.609 2.235,5.051 1.402,4.664 2.316,4.258 2.937,3.658 3.262,2.866 3.587,2.073 3.749,1.026 3.749,-0.274"
             style="fill:#1d1d1b;fill-opacity:1;fill-rule:nonzero;stroke:none"
             id="path60" /></g><g
           id="g62"
           transform="translate(191.8829,38.9611)"><path
             d="m 0,0 h 3.537 c 0.04,-1.036 0.248,-1.799 0.625,-2.286 0.376,-0.488 0.93,-0.732 1.661,-0.732 0.732,0 1.266,0.224 1.601,0.671 0.335,0.447 0.503,1.159 0.503,2.134 C 7.927,0.6 7.739,1.245 7.362,1.723 6.986,2.2 6.352,2.643 5.457,3.049 L 4.024,3.689 C 2.663,4.299 1.682,5.051 1.082,5.945 0.482,6.84 0.183,8.039 0.183,9.543 c 0,1.769 0.513,3.181 1.54,4.237 1.026,1.057 2.414,1.586 4.161,1.586 1.727,0 3.064,-0.523 4.01,-1.57 0.944,-1.047 1.448,-2.556 1.508,-4.527 H 7.957 C 7.937,10.224 7.77,10.94 7.454,11.418 7.14,11.896 6.616,12.134 5.884,12.134 4.522,12.134 3.842,11.331 3.842,9.726 3.842,8.994 4.009,8.41 4.345,7.973 4.68,7.536 5.244,7.145 6.036,6.799 l 1.372,-0.61 c 1.464,-0.65 2.526,-1.463 3.187,-2.439 0.66,-0.976 0.99,-2.276 0.99,-3.902 0,-1.952 -0.508,-3.455 -1.524,-4.512 -1.016,-1.057 -2.459,-1.585 -4.33,-1.585 -1.849,0 -3.261,0.538 -4.237,1.615 C 0.519,-3.557 0.021,-2.012 0,0"
             style="fill:#1d1d1b;fill-opacity:1;fill-rule:nonzero;stroke:none"
             id="path64" /></g></g></g><g
       id="g66"><g
         id="g68"
         clip-path="url(#clipPath72)"><g
           id="g74"
           transform="translate(135.6456,118.7511)"><path
             d="M 0,0 C 14.311,0 25.998,11.222 26.747,25.346 H -26.747 C -25.998,11.222 -14.311,0 0,0"
             style="fill:#ffffff;fill-opacity:1;fill-rule:nonzero;stroke:none"
             id="path76" /></g><g
           id="g78"
           transform="translate(182.9649,225.5509)"><path
             d="m 0,0 h -0.008 c 7.921,10.162 12.642,22.941 12.642,36.824 0,33.111 -26.842,59.952 -59.953,59.952 -33.111,0 -59.953,-26.841 -59.953,-59.952 0,-13.883 4.721,-26.662 12.641,-36.824 h -0.003 c 9.813,-14.232 20.211,-27.464 20.467,-50.812 h 53.699 C -20.211,-27.464 -9.813,-14.232 0,0"
             style="fill:#ffffff;fill-opacity:1;fill-rule:nonzero;stroke:none"
             id="path80" /></g><path
           d="m 108.858,149.199 h 53.574 v 7.668 h -53.574 z"
           style="fill:#ffffff;fill-opacity:1;fill-rule:nonzero;stroke:none"
           id="path82" /><path
           d="m 108.858,161.97 h 53.574 v 7.667 h -53.574 z"
           style="fill:#ffffff;fill-opacity:1;fill-rule:nonzero;stroke:none"
           id="path84" /></g></g></g></svg>
