<?xml version="1.0" encoding="utf-8"?>
<!-- Generator: Adobe Illustrator 25.4.1, SVG Export Plug-In . SVG Version: 6.00 Build 0)  -->
<svg version="1.1" xmlns="http://www.w3.org/2000/svg" xmlns:xlink="http://www.w3.org/1999/xlink" x="0px" y="0px"
	 viewBox="0 0 271.29 356.19" style="enable-background:new 0 0 271.29 356.19;" xml:space="preserve">
<style type="text/css">
	.st0{fill:#F18700;}
	.st1{fill:#FFFFFF;}
</style>
<g id="bakgrund">
	<g>
		<rect x="1" y="1" class="st0" width="269.29" height="269.29"/>
		<path class="st0" d="M271.29,271.29H0V0h271.29V271.29z M2,269.29h267.29V2H2V269.29z"/>
	</g>
	<rect x="1" y="270.15" class="st1" width="269.29" height="85.04"/>
	<path class="st0" d="M271.29,356.19H0v-87.04h271.29V356.19z M2,354.19h267.29v-83.04H2V354.19z"/>
</g>
<g id="namn">
	<g>
		<path d="M71.57,302.19v17.68h5.64v3.35h-9.39v-21.04H71.57z"/>
		<path d="M83.77,302.19v21.04h-3.72v-21.04H83.77z"/>
		<path d="M87.24,317.44v-9.48c0-1.99,0.56-3.5,1.68-4.53c1.12-1.03,2.59-1.54,4.42-1.54c1.75,0,3.16,0.5,4.24,1.49
			c1.08,1,1.62,2.47,1.62,4.42v0.64h-3.75v-0.64c0-0.81-0.2-1.44-0.61-1.88c-0.41-0.44-0.94-0.66-1.59-0.66
			c-0.79,0-1.37,0.27-1.72,0.82c-0.36,0.55-0.53,1.37-0.53,2.47v8.44c0,2.05,0.75,3.08,2.26,3.08c0.73,0,1.28-0.25,1.65-0.75
			c0.37-0.5,0.55-1.21,0.55-2.15v-2.23h-2.23v-2.96h5.98v5.43c0,1.95-0.56,3.45-1.69,4.48c-1.13,1.04-2.59,1.55-4.37,1.55
			c-1.81,0-3.24-0.51-4.3-1.54C87.77,320.91,87.24,319.41,87.24,317.44z"/>
		<path d="M114.01,323.23h-3.75v-9.02h-3.96v9.02h-3.75v-21.04h3.75v8.66h3.96v-8.66h3.75V323.23z"/>
		<path d="M123.71,305.58v17.65h-3.72v-17.65h-3.66v-3.38h11.01v3.38H123.71z"/>
		<path d="M147.37,317.13c0,2.13-0.44,3.68-1.31,4.65c-0.87,0.96-2.36,1.45-4.45,1.45h-5.7v-21.04h5.7c2.05,0,3.52,0.45,4.39,1.36
			s1.31,2.34,1.31,4.31c0,1.04-0.17,1.92-0.52,2.65c-0.35,0.73-0.93,1.29-1.77,1.68c0.91,0.41,1.53,1.01,1.86,1.8
			C147.21,314.78,147.37,315.83,147.37,317.13z M139.63,310.64h1.58c0.87,0,1.48-0.2,1.83-0.59c0.35-0.4,0.52-1.04,0.52-1.94
			c0-0.93-0.17-1.6-0.52-1.98c-0.34-0.39-0.96-0.58-1.83-0.58h-1.58V310.64z M143.62,316.86c0-1.06-0.19-1.82-0.56-2.29
			c-0.38-0.47-1-0.7-1.88-0.7h-1.55v6.01h1.55c0.93,0,1.58-0.23,1.92-0.69C143.45,318.73,143.62,317.96,143.62,316.86z"/>
		<path d="M151.47,320.73c-0.5-0.87-0.75-1.88-0.75-3.02v-15.52h3.75v15.43c0,0.85,0.16,1.48,0.49,1.88
			c0.33,0.4,0.82,0.59,1.49,0.59c1.32,0,1.98-0.82,1.98-2.47v-15.43h3.75v15.52c0,1.14-0.24,2.14-0.73,3.02
			c-0.49,0.87-1.17,1.55-2.04,2.03c-0.87,0.48-1.86,0.72-2.96,0.72s-2.08-0.24-2.94-0.72C152.65,322.28,151.97,321.6,151.47,320.73z
			"/>
		<path d="M169.41,302.19v17.68h5.64v3.35h-9.39v-21.04H169.41z"/>
		<path d="M189.23,317.13c0,2.13-0.44,3.68-1.31,4.65c-0.87,0.96-2.36,1.45-4.45,1.45h-5.7v-21.04h5.7c2.05,0,3.52,0.45,4.39,1.36
			s1.31,2.34,1.31,4.31c0,1.04-0.17,1.92-0.52,2.65c-0.35,0.73-0.93,1.29-1.77,1.68c0.91,0.41,1.53,1.01,1.86,1.8
			C189.07,314.78,189.23,315.83,189.23,317.13z M181.49,310.64h1.58c0.87,0,1.48-0.2,1.83-0.59c0.35-0.4,0.52-1.04,0.52-1.94
			c0-0.93-0.17-1.6-0.52-1.98c-0.34-0.39-0.96-0.58-1.83-0.58h-1.58V310.64z M185.48,316.86c0-1.06-0.19-1.82-0.56-2.29
			c-0.38-0.47-1-0.7-1.88-0.7h-1.55v6.01h1.55c0.93,0,1.58-0.23,1.92-0.69C185.31,318.73,185.48,317.96,185.48,316.86z"/>
		<path d="M191.88,317.22h3.54c0.04,1.04,0.25,1.8,0.62,2.29c0.38,0.49,0.93,0.73,1.66,0.73s1.27-0.22,1.6-0.67
			c0.33-0.45,0.5-1.16,0.5-2.13c0-0.81-0.19-1.46-0.56-1.94c-0.38-0.48-1.01-0.92-1.91-1.33l-1.43-0.64
			c-1.36-0.61-2.34-1.36-2.94-2.26s-0.9-2.09-0.9-3.6c0-1.77,0.51-3.18,1.54-4.24s2.41-1.59,4.16-1.59c1.73,0,3.06,0.52,4.01,1.57
			c0.94,1.05,1.45,2.56,1.51,4.53h-3.45c-0.02-0.96-0.19-1.67-0.5-2.15c-0.31-0.48-0.84-0.72-1.57-0.72c-1.36,0-2.04,0.8-2.04,2.41
			c0,0.73,0.17,1.32,0.5,1.75c0.33,0.44,0.9,0.83,1.69,1.17l1.37,0.61c1.46,0.65,2.53,1.46,3.19,2.44c0.66,0.98,0.99,2.28,0.99,3.9
			c0,1.95-0.51,3.46-1.52,4.51c-1.02,1.06-2.46,1.58-4.33,1.58c-1.85,0-3.26-0.54-4.24-1.62S191.9,319.24,191.88,317.22z"/>
	</g>
</g>
<g id="ikon">
	<g>
		<g>
			<path class="st1" d="M135.65,237.43c14.31,0,26-11.22,26.75-25.35H108.9C109.65,226.21,121.34,237.43,135.65,237.43z"/>
			<path class="st1" d="M182.97,130.63L182.97,130.63c7.91-10.16,12.63-22.94,12.63-36.82c0-33.11-26.84-59.95-59.95-59.95
				S75.69,60.7,75.69,93.81c0,13.88,4.72,26.66,12.64,36.82l0,0c9.81,14.23,20.21,27.46,20.47,50.81h53.7
				C162.75,158.1,173.15,144.87,182.97,130.63z"/>
			<rect x="108.86" y="199.32" class="st1" width="53.57" height="7.67"/>
			<rect x="108.86" y="186.55" class="st1" width="53.57" height="7.67"/>
		</g>
	</g>
</g>
</svg>
