<?xml version="1.0" encoding="utf-8"?>
<!-- Generator: Adobe Illustrator 25.4.1, SVG Export Plug-In . SVG Version: 6.00 Build 0)  -->
<svg version="1.1" xmlns="http://www.w3.org/2000/svg" xmlns:xlink="http://www.w3.org/1999/xlink" x="0px" y="0px"
	 viewBox="0 0 271.29 356.07" style="enable-background:new 0 0 271.29 356.07;" xml:space="preserve">
<style type="text/css">
	.st0{fill:#F18700;}
	.st1{fill:#FFFFFF;}
</style>
<g id="bakgrund">
	<g>
		<rect x="1" y="1" class="st0" width="269.29" height="269.29"/>
		<path class="st0" d="M271.29,271.29H0V0h271.29V271.29z M2,269.29h267.29V2H2V269.29z"/>
	</g>
	<g>
		<rect x="1" y="270.03" class="st1" width="269.29" height="85.04"/>
		<path class="st0" d="M271.29,356.07H0v-87.04h271.29V356.07z M2,354.07h267.29v-83.04H2V354.07z"/>
	</g>
</g>
<g id="namn">
	<g>
		<path d="M33.35,302.31v17.68h5.64v3.35H29.6v-21.04H33.35z"/>
		<path d="M45.54,302.31v21.04h-3.72v-21.04H45.54z"/>
		<path d="M55.36,305.69v17.65h-3.72v-17.65h-3.66v-3.38h11.01v3.38H55.36z"/>
		<path d="M72.77,323.35h-3.75v-9.02h-3.96v9.02H61.3v-21.04h3.75v8.66h3.96v-8.66h3.75V323.35z"/>
		<path d="M80.09,302.31v21.04h-3.72v-21.04H80.09z"/>
		<path d="M84.43,320.85c-0.5-0.87-0.75-1.88-0.75-3.02v-15.52h3.75v15.43c0,0.85,0.16,1.48,0.49,1.88c0.33,0.4,0.82,0.6,1.49,0.6
			c1.32,0,1.98-0.82,1.98-2.47v-15.43h3.75v15.52c0,1.14-0.24,2.14-0.73,3.02c-0.49,0.87-1.17,1.55-2.04,2.03
			c-0.87,0.48-1.86,0.72-2.96,0.72s-2.08-0.24-2.94-0.72C85.61,322.4,84.93,321.72,84.43,320.85z"/>
		<path d="M113.47,323.35h-3.75v-12.32l-2.68,8.23h-2.01l-2.65-8.14v12.23h-3.75v-21.04h3.75l3.66,11.1l3.69-11.1h3.75V323.35z"/>
		<path d="M134.66,317.25c0,2.13-0.44,3.68-1.31,4.65s-2.36,1.45-4.45,1.45h-5.7v-21.04h5.7c2.05,0,3.52,0.45,4.39,1.36
			c0.87,0.9,1.31,2.34,1.31,4.31c0,1.04-0.17,1.92-0.52,2.65s-0.93,1.29-1.77,1.68c0.91,0.41,1.53,1.01,1.86,1.8
			S134.66,315.95,134.66,317.25z M126.92,310.75h1.58c0.87,0,1.48-0.2,1.83-0.59c0.35-0.4,0.52-1.04,0.52-1.94
			c0-0.93-0.17-1.6-0.52-1.98c-0.34-0.39-0.96-0.58-1.83-0.58h-1.58V310.75z M130.91,316.97c0-1.06-0.19-1.82-0.56-2.29
			s-1-0.7-1.88-0.7h-1.55v6.01h1.55c0.93,0,1.58-0.23,1.92-0.69C130.74,318.85,130.91,318.07,130.91,316.97z"/>
		<path d="M141.67,319.26l-0.85,4.08h-3.9l5.4-21.04h3.66l5.37,21.04h-3.9l-0.85-4.08H141.67z M144.14,307.37l-1.77,8.54h3.54
			L144.14,307.37z"/>
		<path d="M159.94,305.69v17.65h-3.72v-17.65h-3.66v-3.38h11.01v3.38H159.94z"/>
		<path d="M172.1,305.69v17.65h-3.72v-17.65h-3.66v-3.38h11.01v3.38H172.1z"/>
		<path d="M181.77,310.97h4.88v3.35h-4.88v5.67h5.67v3.35h-9.39v-21.04h9.39v3.38h-5.67V310.97z"/>
		<path d="M194.15,314.9v8.44h-3.75v-21.04h5.73c2.07,0,3.54,0.5,4.41,1.49c0.86,1,1.3,2.59,1.3,4.79c0,1.4-0.19,2.57-0.58,3.51
			c-0.39,0.93-1.02,1.63-1.89,2.1l3.14,9.15h-3.9l-2.65-8.44H194.15z M196.1,311.55c0.75,0,1.27-0.25,1.55-0.75
			c0.29-0.5,0.43-1.23,0.43-2.21s-0.14-1.71-0.41-2.19c-0.27-0.49-0.8-0.73-1.57-0.73h-1.95v5.88H196.1z"/>
		<path d="M209.18,302.31v21.04h-3.72v-21.04H209.18z"/>
		<path d="M216.5,310.97h4.88v3.35h-4.88v5.67h5.67v3.35h-9.39v-21.04h9.39v3.38h-5.67V310.97z"/>
		<path d="M224.42,317.34h3.54c0.04,1.04,0.25,1.8,0.62,2.29c0.38,0.49,0.93,0.73,1.66,0.73s1.27-0.22,1.6-0.67
			c0.33-0.45,0.5-1.16,0.5-2.13c0-0.81-0.19-1.46-0.56-1.94c-0.38-0.48-1.01-0.92-1.91-1.33l-1.43-0.64
			c-1.36-0.61-2.34-1.36-2.94-2.26c-0.6-0.89-0.9-2.09-0.9-3.6c0-1.77,0.51-3.18,1.54-4.24s2.41-1.59,4.16-1.59
			c1.73,0,3.06,0.52,4.01,1.57c0.94,1.05,1.45,2.56,1.51,4.53h-3.45c-0.02-0.96-0.19-1.67-0.5-2.15c-0.31-0.48-0.84-0.72-1.57-0.72
			c-1.36,0-2.04,0.8-2.04,2.41c0,0.73,0.17,1.32,0.5,1.75c0.33,0.44,0.9,0.83,1.69,1.17l1.37,0.61c1.46,0.65,2.53,1.46,3.19,2.44
			c0.66,0.98,0.99,2.28,0.99,3.9c0,1.95-0.51,3.46-1.52,4.51c-1.02,1.06-2.46,1.58-4.33,1.58c-1.85,0-3.26-0.54-4.24-1.62
			S224.44,319.35,224.42,317.34z"/>
	</g>
</g>
<g id="ikon">
	<path class="st1" d="M184.08,57.86l-25.37,0v-2.34c0-4.33-3.51-7.85-7.85-7.85l-30.44,0c-4.33,0-7.85,3.51-7.85,7.85v2.34l-25.37,0
		c-3.26,0-5.9,2.64-5.9,5.9l0,153.95c0,3.26,2.64,5.9,5.9,5.9l96.87,0c3.26,0,5.9-2.64,5.9-5.9l0-153.95
		C189.98,60.5,187.34,57.86,184.08,57.86z M175.89,202.14c0,3.26-2.64,5.9-5.9,5.9l-71.63,0c-1.63,0-2.95-1.32-2.95-2.95l0-28.42
		c0-1.94,1.84-3.35,3.71-2.85l74.58,19.78c1.29,0.34,2.19,1.51,2.19,2.85V202.14z M176.75,173.97c0,3-2.84,5.19-5.74,4.43
		l-72.19-19.05c-2.01-0.53-3.41-2.35-3.41-4.43l0-17.65c0-3,2.84-5.19,5.74-4.43l72.19,19.05c2.01,0.53,3.41,2.35,3.41,4.43
		L176.75,173.97z M176.75,133.22c0,3-2.84,5.19-5.74,4.43l-72.19-19.05c-2.01-0.53-3.41-2.35-3.41-4.43l0-17.65
		c0-3,2.84-5.19,5.74-4.43l72.19,19.05c2.01,0.53,3.41,2.35,3.41,4.43L176.75,133.22z"/>
</g>
</svg>
