<?xml version="1.0" encoding="UTF-8" standalone="no"?>
<svg
   xmlns:dc="http://purl.org/dc/elements/1.1/"
   xmlns:cc="http://creativecommons.org/ns#"
   xmlns:rdf="http://www.w3.org/1999/02/22-rdf-syntax-ns#"
   xmlns:svg="http://www.w3.org/2000/svg"
   xmlns="http://www.w3.org/2000/svg"
   xmlns:sodipodi="http://sodipodi.sourceforge.net/DTD/sodipodi-0.dtd"
   xmlns:inkscape="http://www.inkscape.org/namespaces/inkscape"
   version="1.1"
   id="svg2"
   xml:space="preserve"
   width="361.72134"
   height="474.91333"
   viewBox="0 0 361.72134 474.91333"
   sodipodi:docname="metal-packaging.ai"><metadata
     id="metadata8"><rdf:RDF><cc:Work
         rdf:about=""><dc:format>image/svg+xml</dc:format><dc:type
           rdf:resource="http://purl.org/dc/dcmitype/StillImage" /></cc:Work></rdf:RDF></metadata><defs
     id="defs6"><clipPath
       clipPathUnits="userSpaceOnUse"
       id="clipPath18"><path
         d="M 0,356.185 H 271.291 V 0 H 0 Z"
         id="path16" /></clipPath><clipPath
       clipPathUnits="userSpaceOnUse"
       id="clipPath58"><path
         d="M 0,356.185 H 271.291 V 0 H 0 Z"
         id="path56" /></clipPath><clipPath
       clipPathUnits="userSpaceOnUse"
       id="clipPath100"><path
         d="M 0,356.185 H 271.291 V 0 H 0 Z"
         id="path98" /></clipPath></defs><sodipodi:namedview
     pagecolor="#ffffff"
     bordercolor="#666666"
     borderopacity="1"
     objecttolerance="10"
     gridtolerance="10"
     guidetolerance="10"
     inkscape:pageopacity="0"
     inkscape:pageshadow="2"
     inkscape:window-width="640"
     inkscape:window-height="480"
     id="namedview4" /><g
     id="g10"
     inkscape:groupmode="layer"
     inkscape:label="metal-packaging"
     transform="matrix(1.3333333,0,0,-1.3333333,0,474.91333)"><g
       id="g12"><g
         id="g14"
         clip-path="url(#clipPath18)"><g
           id="g20"
           transform="translate(177.8624,136.9132)"><path
             d="m 0,0 h -84.586 c -0.691,0 -1.25,0.56 -1.25,1.25 0,0.69 0.559,1.25 1.25,1.25 H 0 C 0.69,2.5 1.25,1.94 1.25,1.25 1.25,0.56 0.69,0 0,0"
             style="fill:#ffffff;fill-opacity:1;fill-rule:nonzero;stroke:none"
             id="path22" /></g><path
           d="M 1,85.894 H 270.291 V 355.185 H 1 Z"
           style="fill:#617179;fill-opacity:1;fill-rule:nonzero;stroke:none"
           id="path24" /><path
           d="M 2,86.894 H 269.291 V 354.186 H 2 Z m 269.291,-2 H 0 v 271.292 h 271.291 z"
           style="fill:#617179;fill-opacity:1;fill-rule:nonzero;stroke:none"
           id="path26" /><path
           d="M 1,1 H 270.291 V 86.039 H 1 Z"
           style="fill:#ffffff;fill-opacity:1;fill-rule:nonzero;stroke:none"
           id="path28" /><path
           d="M 2,2 H 269.291 V 85.039 H 2 Z M 271.291,0 H 0 v 87.039 h 271.291 z"
           style="fill:#617179;fill-opacity:1;fill-rule:nonzero;stroke:none"
           id="path30" /></g></g><g
       id="g32"
       transform="translate(49.3003,32.9718)"><path
         d="M 0,0 H -3.75 V 12.316 L -6.433,4.085 h -2.012 l -2.653,8.14 V 0 h -3.75 v 21.035 h 3.75 L -7.439,9.938 -3.75,21.035 H 0 Z"
         style="fill:#1d1d1b;fill-opacity:1;fill-rule:nonzero;stroke:none"
         id="path34" /></g><g
       id="g36"
       transform="translate(56.4966,45.3488)"><path
         d="M 0,0 H 4.878 V -3.354 H 0 v -5.669 h 5.671 v -3.354 H -3.72 V 8.658 H 5.671 V 5.274 L 0,5.274 Z"
         style="fill:#1d1d1b;fill-opacity:1;fill-rule:nonzero;stroke:none"
         id="path38" /></g><g
       id="g40"
       transform="translate(71.3453,50.6232)"><path
         d="M 0,0 V -17.651 H -3.72 V 0 H -7.378 V 3.384 H 3.628 V 0 Z"
         style="fill:#1d1d1b;fill-opacity:1;fill-rule:nonzero;stroke:none"
         id="path42" /></g><g
       id="g44"
       transform="translate(83.4185,48.9464)"><path
         d="m 0,0 -1.769,-8.536 h 3.538 z m -2.47,-11.89 -0.853,-4.085 H -7.226 L -1.829,5.061 H 1.829 L 7.195,-15.975 H 3.293 l -0.854,4.085 z"
         style="fill:#1d1d1b;fill-opacity:1;fill-rule:nonzero;stroke:none"
         id="path46" /></g><g
       id="g48"
       transform="translate(96.7427,54.007)"><path
         d="m 0,0 v -17.682 h 5.641 v -3.353 H -3.75 V 0 Z"
         style="fill:#1d1d1b;fill-opacity:1;fill-rule:nonzero;stroke:none"
         id="path50" /></g><g
       id="g52"><g
         id="g54"
         clip-path="url(#clipPath58)"><g
           id="g60"
           transform="translate(119.0289,47.3918)"><path
             d="m 0,0 c 0,1.117 -0.157,1.941 -0.473,2.469 -0.314,0.529 -0.868,0.793 -1.661,0.793 h -1.829 v -6.524 h 1.829 c 0.793,0 1.347,0.264 1.661,0.792 C -0.157,-1.941 0,-1.117 0,0 M 3.75,0 C 3.75,-2.236 3.298,-3.902 2.394,-5 1.489,-6.098 0.021,-6.646 -2.012,-6.646 h -1.951 v -7.774 h -3.72 V 6.615 h 5.671 C 0.062,6.615 1.54,6.066 2.424,4.969 3.309,3.872 3.75,2.215 3.75,0"
             style="fill:#1d1d1b;fill-opacity:1;fill-rule:nonzero;stroke:none"
             id="path62" /></g><g
           id="g64"
           transform="translate(131.6216,48.9464)"><path
             d="m 0,0 -1.769,-8.536 h 3.538 z m -2.47,-11.89 -0.853,-4.085 H -7.226 L -1.829,5.061 H 1.829 L 7.196,-15.975 H 3.293 l -0.854,4.085 z"
             style="fill:#1d1d1b;fill-opacity:1;fill-rule:nonzero;stroke:none"
             id="path66" /></g><g
           id="g68"
           transform="translate(141.0733,38.7638)"><path
             d="m 0,0 v 9.481 c 0,1.993 0.56,3.501 1.677,4.528 1.118,1.026 2.592,1.539 4.421,1.539 1.748,0 3.16,-0.508 4.237,-1.524 1.078,-1.016 1.616,-2.56 1.616,-4.634 V 8.75 h -3.75 v 0.609 c 0,0.956 -0.198,1.662 -0.595,2.12 -0.395,0.457 -0.929,0.686 -1.6,0.686 C 5.214,12.165 4.64,11.89 4.284,11.341 3.928,10.792 3.75,9.97 3.75,8.872 V 0.427 c 0,-2.053 0.752,-3.079 2.256,-3.079 0.671,0 1.205,0.233 1.6,0.701 0.397,0.468 0.595,1.159 0.595,2.073 v 0.549 h 3.72 v -0.58 c 0,-2.031 -0.565,-3.561 -1.692,-4.588 -1.128,-1.025 -2.577,-1.539 -4.344,-1.539 -1.81,0 -3.242,0.514 -4.299,1.539 C 0.528,-3.47 0,-1.972 0,0"
             style="fill:#1d1d1b;fill-opacity:1;fill-rule:nonzero;stroke:none"
             id="path70" /></g><g
           id="g72"
           transform="translate(160.0987,37.7277)"><path
             d="M 0,0 V -4.756 H -3.72 V 16.279 H 0 V 6.371 l 4.481,9.908 h 3.75 L 3.841,7.621 8.901,-4.756 H 4.908 l -3.201,8.14 z"
             style="fill:#1d1d1b;fill-opacity:1;fill-rule:nonzero;stroke:none"
             id="path74" /></g><g
           id="g76"
           transform="translate(177.4473,48.9464)"><path
             d="m 0,0 -1.77,-8.536 h 3.538 z m -2.471,-11.89 -0.853,-4.085 H -7.227 L -1.83,5.061 H 1.828 L 7.195,-15.975 H 3.293 l -0.854,4.085 z"
             style="fill:#1d1d1b;fill-opacity:1;fill-rule:nonzero;stroke:none"
             id="path78" /></g><g
           id="g80"
           transform="translate(186.8985,38.7638)"><path
             d="m 0,0 v 9.481 c 0,1.993 0.559,3.501 1.676,4.528 1.119,1.026 2.592,1.539 4.422,1.539 1.748,0 3.16,-0.498 4.236,-1.493 1.078,-0.996 1.617,-2.47 1.617,-4.421 V 8.993 h -3.75 v 0.641 c 0,0.812 -0.203,1.437 -0.609,1.875 -0.406,0.437 -0.936,0.656 -1.586,0.656 -0.793,0 -1.367,-0.275 -1.723,-0.824 C 3.928,10.792 3.75,9.97 3.75,8.872 V 0.427 c 0,-2.053 0.752,-3.079 2.256,-3.079 0.732,0 1.281,0.249 1.646,0.747 0.366,0.498 0.549,1.215 0.549,2.149 V 2.47 H 5.975 v 2.957 h 5.976 V 0 c 0,-1.951 -0.564,-3.444 -1.693,-4.481 -1.127,-1.038 -2.586,-1.555 -4.373,-1.555 -1.811,0 -3.242,0.514 -4.299,1.539 C 0.527,-3.47 0,-1.972 0,0"
             style="fill:#1d1d1b;fill-opacity:1;fill-rule:nonzero;stroke:none"
             id="path82" /></g><path
           d="m 206.045,32.972 h -3.719 v 21.035 h 3.719 z"
           style="fill:#1d1d1b;fill-opacity:1;fill-rule:nonzero;stroke:none"
           id="path84" /><g
           id="g86"
           transform="translate(221.5332,32.9718)"><path
             d="M 0,0 H -3.75 L -8.141,11.219 V 0 h -3.75 v 21.035 h 3.75 L -3.75,9.328 V 21.035 H 0 Z"
             style="fill:#1d1d1b;fill-opacity:1;fill-rule:nonzero;stroke:none"
             id="path88" /></g><g
           id="g90"
           transform="translate(224.8868,38.7638)"><path
             d="m 0,0 v 9.481 c 0,1.993 0.561,3.501 1.678,4.528 1.117,1.026 2.592,1.539 4.42,1.539 1.748,0 3.16,-0.498 4.238,-1.493 1.078,-0.996 1.615,-2.47 1.615,-4.421 V 8.993 h -3.75 v 0.641 c 0,0.812 -0.203,1.437 -0.609,1.875 -0.406,0.437 -0.936,0.656 -1.586,0.656 -0.791,0 -1.365,-0.275 -1.721,-0.824 C 3.928,10.792 3.75,9.97 3.75,8.872 V 0.427 c 0,-2.053 0.752,-3.079 2.256,-3.079 0.732,0 1.281,0.249 1.646,0.747 0.368,0.498 0.549,1.215 0.549,2.149 V 2.47 H 5.977 v 2.957 h 5.974 V 0 c 0,-1.951 -0.562,-3.444 -1.691,-4.481 -1.129,-1.038 -2.586,-1.555 -4.375,-1.555 -1.809,0 -3.242,0.514 -4.299,1.539 C 0.529,-3.47 0,-1.972 0,0"
             style="fill:#1d1d1b;fill-opacity:1;fill-rule:nonzero;stroke:none"
             id="path92" /></g></g></g><g
       id="g94"><g
         id="g96"
         clip-path="url(#clipPath100)"><g
           id="g102"
           transform="translate(178.2911,310.1867)"><path
             d="m 0,0 c 3.764,-7.997 -12.279,-23.861 -35.832,-35.434 -23.552,-11.573 -45.696,-14.473 -49.459,-6.476 -3.763,7.996 12.28,23.861 35.832,35.434 C -25.906,5.097 -3.763,7.996 0,0"
             style="fill:#ffffff;fill-opacity:1;fill-rule:nonzero;stroke:none"
             id="path104" /></g><path
           d="m 92.453,170.631 h 86.386 v 11.843 H 92.453 Z"
           style="fill:#ffffff;fill-opacity:1;fill-rule:nonzero;stroke:none"
           id="path106" /><path
           d="m 92.453,126.374 h 86.386 v 39.827 H 92.453 Z"
           style="fill:#ffffff;fill-opacity:1;fill-rule:nonzero;stroke:none"
           id="path108" /><path
           d="m 92.453,186.904 h 86.386 v 11.842 H 92.453 Z"
           style="fill:#ffffff;fill-opacity:1;fill-rule:nonzero;stroke:none"
           id="path110" /><path
           d="M 178.839,259.276 H 92.453 v -39.827 h 86.386 z"
           style="fill:#ffffff;fill-opacity:1;fill-rule:nonzero;stroke:none"
           id="path112" /><path
           d="m 92.453,203.176 h 86.386 v 11.842 H 92.453 Z"
           style="fill:#ffffff;fill-opacity:1;fill-rule:nonzero;stroke:none"
           id="path114" /></g></g></g></svg>
