<?xml version="1.0" encoding="utf-8"?>
<!-- Generator: Adobe Illustrator 25.4.1, SVG Export Plug-In . SVG Version: 6.00 Build 0)  -->
<svg version="1.1" xmlns="http://www.w3.org/2000/svg" xmlns:xlink="http://www.w3.org/1999/xlink" x="0px" y="0px"
	 viewBox="0 0 271.29 356.19" style="enable-background:new 0 0 271.29 356.19;" xml:space="preserve">
<style type="text/css">
	.st0{fill:#FFFFFF;}
	.st1{fill:#004778;}
</style>
<g id="bakgrund">
	<rect x="1" y="270.15" class="st0" width="269.29" height="85.04"/>
	<path class="st1" d="M271.29,356.19H0v-87.04h271.29V356.19z M2,354.19h267.29v-83.04H2V354.19z"/>
	<g>
		<rect x="1" y="1" class="st1" width="269.29" height="269.29"/>
		<path class="st1" d="M271.29,271.29H0V0h271.29V271.29z M2,269.29h267.29V2H2V269.29z"/>
	</g>
</g>
<g id="namn">
	<g>
		<path d="M68.64,323.21h-3.75V310.9l-2.68,8.23H60.2l-2.65-8.14v12.22H53.8v-21.04h3.75l3.66,11.1l3.69-11.1h3.75V323.21z"/>
		<path d="M75.96,302.18v21.04h-3.72v-21.04H75.96z"/>
		<path d="M91.45,323.21H87.7L83.31,312v11.22h-3.75v-21.04h3.75l4.39,11.71v-11.71h3.75V323.21z"/>
		<path d="M98.65,310.84h4.88v3.35h-4.88v5.67h5.67v3.35h-9.39v-21.04h9.39v3.38h-5.67V310.84z"/>
		<path d="M111.03,314.77v8.44h-3.75v-21.04h5.73c2.07,0,3.54,0.5,4.41,1.49c0.86,1,1.3,2.59,1.3,4.79c0,1.4-0.19,2.57-0.58,3.51
			c-0.39,0.93-1.02,1.64-1.89,2.1l3.14,9.15h-3.9l-2.65-8.44H111.03z M112.98,311.42c0.75,0,1.27-0.25,1.55-0.75
			c0.29-0.5,0.43-1.24,0.43-2.21s-0.14-1.71-0.41-2.19c-0.27-0.49-0.8-0.73-1.57-0.73h-1.95v5.88H112.98z"/>
		<path d="M125.87,319.13l-0.85,4.08h-3.9l5.4-21.04h3.66l5.37,21.04h-3.9l-0.85-4.08H125.87z M128.34,307.24l-1.77,8.54h3.54
			L128.34,307.24z"/>
		<path d="M141.67,302.18v17.68h5.64v3.35h-9.39v-21.04H141.67z"/>
		<path d="M171.61,323.21h-4.05l-2.29-12.93l-2.32,12.93h-4.02l-3.75-21.04h3.81l2.04,15.73l1.98-15.73h4.57l1.98,15.73l2.04-15.73
			h3.75L171.61,323.21z"/>
		<path d="M177.61,317.42v-9.48c0-1.99,0.56-3.5,1.68-4.53c1.12-1.03,2.59-1.54,4.42-1.54c1.77,0,3.19,0.51,4.25,1.54
			s1.6,2.54,1.6,4.53v9.48c0,1.95-0.56,3.44-1.69,4.48c-1.13,1.04-2.59,1.55-4.37,1.55c-1.81,0-3.24-0.51-4.3-1.54
			C178.14,320.89,177.61,319.39,177.61,317.42z M185.82,317v-8.45c0-1.08-0.18-1.9-0.55-2.45c-0.37-0.56-0.91-0.84-1.65-0.84
			c-0.79,0-1.37,0.27-1.72,0.82c-0.36,0.55-0.53,1.37-0.53,2.47V317c0,2.05,0.75,3.08,2.26,3.08c0.71,0,1.26-0.27,1.63-0.81
			C185.63,318.73,185.82,317.97,185.82,317z"/>
		<path d="M192.8,317.42v-9.48c0-1.99,0.56-3.5,1.68-4.53c1.12-1.03,2.59-1.54,4.42-1.54c1.77,0,3.19,0.51,4.25,1.54
			s1.6,2.54,1.6,4.53v9.48c0,1.95-0.56,3.44-1.69,4.48c-1.13,1.04-2.59,1.55-4.37,1.55c-1.81,0-3.24-0.51-4.3-1.54
			C193.33,320.89,192.8,319.39,192.8,317.42z M201,317v-8.45c0-1.08-0.18-1.9-0.55-2.45c-0.37-0.56-0.91-0.84-1.65-0.84
			c-0.79,0-1.37,0.27-1.72,0.82c-0.36,0.55-0.53,1.37-0.53,2.47V317c0,2.05,0.75,3.08,2.26,3.08c0.71,0,1.26-0.27,1.63-0.81
			C200.81,318.73,201,317.97,201,317z"/>
		<path d="M211.85,302.18v17.68h5.64v3.35h-9.39v-21.04H211.85z"/>
	</g>
</g>
<g id="ikon">
	<g>
		<g>
			<g>
				
					<rect x="180.55" y="45.58" transform="matrix(1 -1.698651e-03 1.698651e-03 1 -0.23 0.3214)" class="st0" width="17.08" height="179.96"/>
			</g>
			<g>
				
					<rect x="73.66" y="45.76" transform="matrix(1 -1.698651e-03 1.698651e-03 1 -0.2305 0.1398)" class="st0" width="17.08" height="179.96"/>
			</g>
		</g>
		<path class="st0" d="M121.18,57.69l46.32-0.08l-0.01-8l-46.39,0.08v0c-9.71,0.05-17.58,7.98-17.56,17.69
			c0.02,9.74,7.95,17.65,17.69,17.63l0,0l28.67-0.05c5.32,0,9.66,4.32,9.67,9.65c0.01,5.31-4.29,9.64-9.59,9.68l-28.71,0.05v0
			c-9.74,0.02-17.65,7.95-17.63,17.69c0.02,9.74,7.95,17.65,17.69,17.63v0l28.7-0.05c5.31,0.01,9.63,4.33,9.64,9.65
			c0.01,5.32-4.3,9.66-9.62,9.68L121.36,159v0c-9.74,0.02-17.65,7.95-17.63,17.69c0.02,9.74,7.95,17.65,17.69,17.63v0l28.73-0.05v0
			c5.3,0.03,9.6,4.34,9.61,9.65c0.01,5.33-4.32,9.67-9.65,9.68l-46.32,0.08l0.01,8l46.44-0.08v0c9.69-0.08,17.54-7.99,17.52-17.69
			c-0.02-9.74-7.95-17.65-17.69-17.63v0l-28.67,0.05c-5.32,0-9.66-4.32-9.67-9.65c-0.01-5.32,4.31-9.66,9.63-9.68l0,0l28.68-0.05v0
			c0.02,0,0.04,0,0.06,0l0.01,0v0c9.71-0.05,17.58-7.98,17.56-17.69c-0.02-9.74-7.95-17.65-17.69-17.63l0,0l-28.68,0.05v0
			c-5.32,0-9.66-4.32-9.66-9.65c-0.01-5.32,4.31-9.66,9.63-9.68v0l28.68-0.05v0c9.74-0.02,17.65-7.95,17.63-17.69
			c-0.02-9.72-7.92-17.61-17.62-17.63v0l-0.04,0c-0.01,0-0.02,0-0.03,0v0l-28.68,0.05v0c-5.32,0-9.66-4.32-9.66-9.65
			C111.53,62.04,115.85,57.7,121.18,57.69z"/>
	</g>
</g>
</svg>
