<?xml version="1.0" encoding="UTF-8" standalone="no"?>
<svg
   xmlns:dc="http://purl.org/dc/elements/1.1/"
   xmlns:cc="http://creativecommons.org/ns#"
   xmlns:rdf="http://www.w3.org/1999/02/22-rdf-syntax-ns#"
   xmlns:svg="http://www.w3.org/2000/svg"
   xmlns="http://www.w3.org/2000/svg"
   xmlns:sodipodi="http://sodipodi.sourceforge.net/DTD/sodipodi-0.dtd"
   xmlns:inkscape="http://www.inkscape.org/namespaces/inkscape"
   version="1.1"
   id="svg2"
   xml:space="preserve"
   width="361.72134"
   height="474.91333"
   viewBox="0 0 361.72134 474.91333"
   sodipodi:docname="newspapers.ai"><metadata
     id="metadata8"><rdf:RDF><cc:Work
         rdf:about=""><dc:format>image/svg+xml</dc:format><dc:type
           rdf:resource="http://purl.org/dc/dcmitype/StillImage" /></cc:Work></rdf:RDF></metadata><defs
     id="defs6"><clipPath
       clipPathUnits="userSpaceOnUse"
       id="clipPath38"><path
         d="M 0,356.185 H 271.291 V 0 H 0 Z"
         id="path36" /></clipPath><clipPath
       clipPathUnits="userSpaceOnUse"
       id="clipPath74"><path
         d="M 0,356.185 H 271.291 V 0 H 0 Z"
         id="path72" /></clipPath></defs><sodipodi:namedview
     pagecolor="#ffffff"
     bordercolor="#666666"
     borderopacity="1"
     objecttolerance="10"
     gridtolerance="10"
     guidetolerance="10"
     inkscape:pageopacity="0"
     inkscape:pageshadow="2"
     inkscape:window-width="640"
     inkscape:window-height="480"
     id="namedview4" /><g
     id="g10"
     inkscape:groupmode="layer"
     inkscape:label="newspapers"
     transform="matrix(1.3333333,0,0,-1.3333333,0,474.91333)"><path
       d="M 1,85.894 H 270.291 V 355.186 H 1 Z"
       style="fill:#007ebf;fill-opacity:1;fill-rule:nonzero;stroke:none"
       id="path12" /><path
       d="M 0,84.893 H 271.291 V 356.185 L 0,356.185 Z M 2,354.185 H 269.291 V 86.894 H 2 Z"
       style="fill:#007ebf;fill-opacity:1;fill-rule:nonzero;stroke:none"
       id="path14" /><path
       d="M 1,1 H 270.291 V 86.039 H 1 Z"
       style="fill:#ffffff;fill-opacity:1;fill-rule:nonzero;stroke:none"
       id="path16" /><path
       d="M 0,0 H 271.291 V 87.039 H 0 Z M 2,85.039 H 269.291 V 2 H 2 Z"
       style="fill:#007ebf;fill-opacity:1;fill-rule:nonzero;stroke:none"
       id="path18" /><g
       id="g20"
       transform="translate(74.9097,32.9562)"><path
         d="M 0,0 H -3.749 L -8.14,11.219 V 0 h -3.75 v 21.036 h 3.75 L -3.749,9.329 V 21.036 H 0 Z"
         style="fill:#1d1d1b;fill-opacity:1;fill-rule:nonzero;stroke:none"
         id="path22" /></g><g
       id="g24"
       transform="translate(82.107,45.3341)"><path
         d="M 0,0 H 4.878 V -3.354 H 0 v -5.67 h 5.671 v -3.354 H -3.72 V 8.658 H 5.671 V 5.273 L 0,5.273 Z"
         style="fill:#1d1d1b;fill-opacity:1;fill-rule:nonzero;stroke:none"
         id="path26" /></g><g
       id="g28"
       transform="translate(106.0699,32.9562)"><path
         d="M 0,0 H -4.055 L -6.341,12.926 -8.658,0 h -4.025 l -3.75,21.036 h 3.812 l 2.042,-15.731 1.982,15.731 h 4.573 L -2.042,5.305 0,21.036 h 3.75 z"
         style="fill:#1d1d1b;fill-opacity:1;fill-rule:nonzero;stroke:none"
         id="path30" /></g><g
       id="g32"><g
         id="g34"
         clip-path="url(#clipPath38)"><g
           id="g40"
           transform="translate(111.4986,38.9621)"><path
             d="m 0,0 h 3.537 c 0.04,-1.037 0.248,-1.799 0.625,-2.287 0.376,-0.487 0.93,-0.732 1.661,-0.732 0.732,0 1.266,0.224 1.601,0.671 0.335,0.448 0.503,1.159 0.503,2.134 C 7.927,0.6 7.739,1.245 7.362,1.723 6.986,2.2 6.352,2.642 5.457,3.049 L 4.024,3.688 C 2.663,4.299 1.682,5.051 1.082,5.944 0.482,6.839 0.183,8.038 0.183,9.542 c 0,1.769 0.513,3.181 1.54,4.238 1.026,1.057 2.413,1.585 4.161,1.585 1.727,0 3.064,-0.523 4.01,-1.57 0.944,-1.047 1.448,-2.556 1.508,-4.527 H 7.957 C 7.937,10.224 7.77,10.939 7.454,11.417 7.14,11.895 6.616,12.134 5.884,12.134 4.522,12.134 3.842,11.331 3.842,9.726 3.842,8.993 4.009,8.409 4.345,7.973 4.68,7.535 5.244,7.144 6.036,6.799 L 7.408,6.188 c 1.464,-0.65 2.526,-1.462 3.187,-2.438 0.66,-0.976 0.99,-2.276 0.99,-3.902 0,-1.952 -0.508,-3.455 -1.524,-4.513 C 9.045,-5.722 7.602,-6.25 5.731,-6.25 3.882,-6.25 2.47,-5.711 1.494,-4.634 0.519,-3.557 0.021,-2.013 0,0"
             style="fill:#1d1d1b;fill-opacity:1;fill-rule:nonzero;stroke:none"
             id="path42" /></g><g
           id="g44"
           transform="translate(133.7857,47.3761)"><path
             d="m 0,0 c 0,1.118 -0.157,1.941 -0.473,2.47 -0.314,0.528 -0.868,0.793 -1.661,0.793 h -1.829 v -6.525 h 1.829 c 0.793,0 1.347,0.264 1.661,0.792 C -0.157,-1.94 0,-1.117 0,0 M 3.75,0 C 3.75,-2.235 3.298,-3.902 2.394,-5 1.489,-6.098 0.021,-6.646 -2.012,-6.646 h -1.951 v -7.774 h -3.72 V 6.616 h 5.671 C 0.062,6.616 1.54,6.067 2.423,4.97 3.308,3.872 3.75,2.216 3.75,0"
             style="fill:#1d1d1b;fill-opacity:1;fill-rule:nonzero;stroke:none"
             id="path46" /></g><g
           id="g48"
           transform="translate(146.379,48.9308)"><path
             d="m 0,0 -1.77,-8.536 h 3.538 z m -2.471,-11.89 -0.853,-4.085 H -7.227 L -1.83,5.062 H 1.828 L 7.195,-15.975 H 3.293 l -0.854,4.085 z"
             style="fill:#1d1d1b;fill-opacity:1;fill-rule:nonzero;stroke:none"
             id="path50" /></g><g
           id="g52"
           transform="translate(163.6348,47.3761)"><path
             d="m 0,0 c 0,1.118 -0.158,1.941 -0.473,2.47 -0.314,0.528 -0.869,0.793 -1.662,0.793 h -1.828 v -6.525 h 1.828 c 0.793,0 1.348,0.264 1.662,0.792 C -0.158,-1.94 0,-1.117 0,0 M 3.75,0 C 3.75,-2.235 3.297,-3.902 2.393,-5 1.488,-6.098 0.02,-6.646 -2.012,-6.646 H -3.963 V -14.42 H -7.684 V 6.616 h 5.672 C 0.061,6.616 1.539,6.067 2.424,4.97 3.309,3.872 3.75,2.216 3.75,0"
             style="fill:#1d1d1b;fill-opacity:1;fill-rule:nonzero;stroke:none"
             id="path54" /></g><g
           id="g56"
           transform="translate(173.8184,45.3341)"><path
             d="M 0,0 H 4.879 V -3.354 H 0 v -5.67 h 5.672 v -3.354 H -3.719 V 8.658 H 5.672 V 5.273 L 0,5.273 Z"
             style="fill:#1d1d1b;fill-opacity:1;fill-rule:nonzero;stroke:none"
             id="path58" /></g><g
           id="g60"
           transform="translate(188.1485,44.7541)"><path
             d="M 0,0 C 0.752,0 1.27,0.249 1.555,0.747 1.84,1.245 1.98,1.982 1.98,2.958 1.98,3.934 1.844,4.665 1.57,5.152 1.295,5.641 0.771,5.885 0,5.885 H -1.951 V 0 Z m -1.951,-3.354 v -8.444 h -3.75 V 9.238 h 5.73 C 2.104,9.238 3.572,8.74 4.436,7.744 5.299,6.748 5.73,5.152 5.73,2.958 5.73,1.556 5.539,0.387 5.152,-0.549 4.766,-1.483 4.135,-2.185 3.262,-2.652 l 3.14,-9.146 H 2.5 l -2.652,8.444 z"
             style="fill:#1d1d1b;fill-opacity:1;fill-rule:nonzero;stroke:none"
             id="path62" /></g><g
           id="g64"
           transform="translate(196.6856,38.9621)"><path
             d="m 0,0 h 3.537 c 0.041,-1.037 0.248,-1.799 0.625,-2.287 0.377,-0.487 0.93,-0.732 1.662,-0.732 0.731,0 1.266,0.224 1.6,0.671 C 7.76,-1.9 7.928,-1.189 7.928,-0.214 7.928,0.6 7.74,1.245 7.363,1.723 6.986,2.2 6.352,2.642 5.457,3.049 L 4.025,3.688 C 2.664,4.299 1.682,5.051 1.082,5.944 0.482,6.839 0.184,8.038 0.184,9.542 c 0,1.769 0.513,3.181 1.539,4.238 1.027,1.057 2.414,1.585 4.162,1.585 1.726,0 3.064,-0.523 4.01,-1.57 0.943,-1.047 1.447,-2.556 1.507,-4.527 H 7.957 C 7.937,10.224 7.77,10.939 7.455,11.417 7.141,11.895 6.617,12.134 5.885,12.134 4.523,12.134 3.842,11.331 3.842,9.726 3.842,8.993 4.01,8.409 4.346,7.973 4.68,7.535 5.244,7.144 6.037,6.799 L 7.408,6.188 c 1.465,-0.65 2.526,-1.462 3.188,-2.438 0.66,-0.976 0.99,-2.276 0.99,-3.902 0,-1.952 -0.508,-3.455 -1.525,-4.513 C 9.045,-5.722 7.602,-6.25 5.732,-6.25 3.883,-6.25 2.471,-5.711 1.494,-4.634 0.52,-3.557 0.021,-2.013 0,0"
             style="fill:#1d1d1b;fill-opacity:1;fill-rule:nonzero;stroke:none"
             id="path66" /></g></g></g><g
       id="g68"><g
         id="g70"
         clip-path="url(#clipPath74)"><g
           id="g76"
           transform="translate(45.2295,158.2746)"><path
             d="M 0,0 H 185.939 V 4.767 H -5.073 C -4.894,2.108 -2.704,0 0,0"
             style="fill:#ffffff;fill-opacity:1;fill-rule:nonzero;stroke:none"
             id="path78" /></g><g
           id="g80"
           transform="translate(40.1226,174.1769)"><path
             d="m 0,0 v 1.212 -10e-4 -12.006 -10e-4 1.16 h 191.046 v 4.069 H 0 v 1.5 H 191.046 V 0 Z"
             style="fill:#ffffff;fill-opacity:1;fill-rule:nonzero;stroke:none"
             id="path82" /></g><g
           id="g84"
           transform="translate(57.8858,199.3849)"><path
             d="m 0,0 h 155.52 c 0.414,0 0.75,-0.336 0.75,-0.75 0,-0.414 -0.336,-0.75 -0.75,-0.75 H 0 c -0.414,0 -0.75,0.336 -0.75,0.75 C -0.75,-0.336 -0.414,0 0,0 m 5.234,16.007 h 145.052 c 0.414,0 0.75,-0.336 0.75,-0.75 0,-0.414 -0.336,-0.75 -0.75,-0.75 H 5.234 c -0.414,0 -0.75,0.336 -0.75,0.75 0,0.414 0.336,0.75 0.75,0.75 m 4.108,17.135 9.894,32.817 c 0.121,0.401 0.491,0.676 0.91,0.676 h 52.093 c 0.526,0 0.951,-0.426 0.951,-0.95 V 32.867 c 0,-0.525 -0.425,-0.95 -0.951,-0.95 H 10.252 c -0.637,0 -1.094,0.614 -0.91,1.225 m 70.322,-0.128 h 66.884 c 0.414,0 0.75,-0.336 0.75,-0.75 0,-0.414 -0.336,-0.75 -0.75,-0.75 H 79.664 c -0.414,0 -0.75,0.336 -0.75,0.75 0,0.414 0.336,0.75 0.75,0.75 m 0,15.66 h 64.339 c 0.414,0 0.75,-0.336 0.75,-0.75 0,-0.414 -0.336,-0.75 -0.75,-0.75 H 79.664 c -0.414,0 -0.75,0.336 -0.75,0.75 0,0.414 0.336,0.75 0.75,0.75 m 0,16.355 h 61.69 c 0.414,0 0.75,-0.336 0.75,-0.75 0,-0.414 -0.336,-0.75 -0.75,-0.75 h -61.69 c -0.414,0 -0.75,0.336 -0.75,0.75 0,0.414 0.336,0.75 0.75,0.75 M 172.69,-21.44 144.688,83.419 H 10.712 L -17.103,-21.532 c -0.363,-0.654 -0.586,-1.387 -0.631,-2.176 h 191.017 c -10e-4,0.824 -0.227,1.589 -0.593,2.268"
             style="fill:#ffffff;fill-opacity:1;fill-rule:nonzero;stroke:none"
             id="path86" /></g><g
           id="g88"
           transform="translate(137.5499,262.9142)"><path
             d="m 0,0 h 61.689 c 0.415,0 0.75,0.336 0.75,0.75 0,0.414 -0.335,0.75 -0.75,0.75 H 0 C -0.414,1.5 -0.75,1.164 -0.75,0.75 -0.75,0.336 -0.414,0 0,0"
             style="fill:#007ebf;fill-opacity:1;fill-rule:nonzero;stroke:none"
             id="path90" /></g><g
           id="g92"
           transform="translate(137.5499,246.5587)"><path
             d="m 0,0 h 64.339 c 0.414,0 0.75,0.336 0.75,0.75 0,0.414 -0.336,0.75 -0.75,0.75 H 0 C -0.414,1.5 -0.75,1.164 -0.75,0.75 -0.75,0.336 -0.414,0 0,0"
             style="fill:#007ebf;fill-opacity:1;fill-rule:nonzero;stroke:none"
             id="path94" /></g><g
           id="g96"
           transform="translate(137.5499,230.8991)"><path
             d="m 0,0 h 66.884 c 0.414,0 0.75,0.336 0.75,0.75 0,0.414 -0.336,0.75 -0.75,0.75 H 0 C -0.414,1.5 -0.75,1.164 -0.75,0.75 -0.75,0.336 -0.414,0 0,0"
             style="fill:#007ebf;fill-opacity:1;fill-rule:nonzero;stroke:none"
             id="path98" /></g><g
           id="g100"
           transform="translate(63.1197,213.8922)"><path
             d="m 0,0 h 145.052 c 0.414,0 0.75,0.336 0.75,0.75 0,0.414 -0.336,0.75 -0.75,0.75 H 0 C -0.414,1.5 -0.75,1.164 -0.75,0.75 -0.75,0.336 -0.414,0 0,0"
             style="fill:#007ebf;fill-opacity:1;fill-rule:nonzero;stroke:none"
             id="path102" /></g><g
           id="g104"
           transform="translate(57.8858,197.8849)"><path
             d="m 0,0 h 155.52 c 0.414,0 0.75,0.336 0.75,0.75 0,0.414 -0.336,0.75 -0.75,0.75 H 0 C -0.414,1.5 -0.75,1.164 -0.75,0.75 -0.75,0.336 -0.414,0 0,0"
             style="fill:#007ebf;fill-opacity:1;fill-rule:nonzero;stroke:none"
             id="path106" /></g><path
           d="m 40.123,168.61 h 191.046 v 1.5 H 40.123 Z"
           style="fill:#007ebf;fill-opacity:1;fill-rule:nonzero;stroke:none"
           id="path108" /><g
           id="g110"
           transform="translate(231.169,174.1769)"><path
             d="m 0,0 v 0 1.5 h -191.018 -0.028 V 1.212 0 Z"
             style="fill:#007ebf;fill-opacity:1;fill-rule:nonzero;stroke:none"
             id="path112" /></g><g
           id="g114"
           transform="translate(40.1226,163.381)"><path
             d="m 0,0 v -0.34 h 0.034 191.012 v 1.5 H 0 Z"
             style="fill:#007ebf;fill-opacity:1;fill-rule:nonzero;stroke:none"
             id="path116" /></g><g
           id="g118"
           transform="translate(68.1382,231.3014)"><path
             d="m 0,0 h 61.987 c 0.525,0 0.951,0.426 0.951,0.951 v 32.817 c 0,0.525 -0.426,0.951 -0.951,0.951 H 9.894 c -0.419,0 -0.789,-0.275 -0.91,-0.677 L -0.911,1.225 C -1.095,0.615 -0.638,0 0,0"
             style="fill:#007ebf;fill-opacity:1;fill-rule:nonzero;stroke:none"
             id="path120" /></g></g></g></g></svg>
