<?xml version="1.0" encoding="utf-8"?>
<!-- Generator: Adobe Illustrator 25.4.1, SVG Export Plug-In . SVG Version: 6.00 Build 0)  -->
<svg version="1.1" xmlns="http://www.w3.org/2000/svg" xmlns:xlink="http://www.w3.org/1999/xlink" x="0px" y="0px"
	 viewBox="0 0 271.29 356.19" style="enable-background:new 0 0 271.29 356.19;" xml:space="preserve">
<style type="text/css">
	.st0{fill:#007EBF;}
	.st1{fill:#FFFFFF;}
</style>
<g id="bakgrund">
	<g>
		<rect x="1" y="1" class="st0" width="269.29" height="269.29"/>
		<path class="st0" d="M271.29,271.29H0V0h271.29V271.29z M2,269.29h267.29V2H2V269.29z"/>
	</g>
	<g>
		<rect x="1" y="270.15" class="st1" width="269.29" height="85.04"/>
		<path class="st0" d="M271.29,356.19H0v-87.04h271.29V356.19z M2,354.19h267.29v-83.04H2V354.19z"/>
	</g>
</g>
<g id="namn">
	<g>
		<path d="M74.91,323.23h-3.75l-4.39-11.22v11.22h-3.75v-21.04h3.75l4.39,11.71v-11.71h3.75V323.23z"/>
		<path d="M82.11,310.85h4.88v3.35h-4.88v5.67h5.67v3.35h-9.39v-21.04h9.39v3.38h-5.67V310.85z"/>
		<path d="M106.07,323.23h-4.05l-2.29-12.93l-2.32,12.93h-4.02l-3.75-21.04h3.81l2.04,15.73l1.98-15.73h4.57l1.98,15.73l2.04-15.73
			h3.75L106.07,323.23z"/>
		<path d="M111.5,317.22h3.54c0.04,1.04,0.25,1.8,0.62,2.29c0.38,0.49,0.93,0.73,1.66,0.73s1.27-0.22,1.6-0.67s0.5-1.16,0.5-2.13
			c0-0.81-0.19-1.46-0.56-1.94c-0.38-0.48-1.01-0.92-1.91-1.33l-1.43-0.64c-1.36-0.61-2.34-1.36-2.94-2.26
			c-0.6-0.89-0.9-2.09-0.9-3.6c0-1.77,0.51-3.18,1.54-4.24c1.03-1.06,2.41-1.58,4.16-1.58c1.73,0,3.06,0.52,4.01,1.57
			c0.94,1.05,1.45,2.56,1.51,4.53h-3.45c-0.02-0.96-0.19-1.67-0.5-2.15c-0.31-0.48-0.84-0.72-1.57-0.72c-1.36,0-2.04,0.8-2.04,2.41
			c0,0.73,0.17,1.32,0.5,1.75c0.33,0.44,0.9,0.83,1.69,1.17l1.37,0.61c1.46,0.65,2.53,1.46,3.19,2.44c0.66,0.98,0.99,2.28,0.99,3.9
			c0,1.95-0.51,3.46-1.52,4.51c-1.02,1.06-2.46,1.58-4.33,1.58c-1.85,0-3.26-0.54-4.24-1.62S111.52,319.24,111.5,317.22z"/>
		<path d="M137.54,308.81c0,2.24-0.45,3.9-1.36,5s-2.37,1.65-4.41,1.65h-1.95v7.77h-3.72v-21.04h5.67c2.07,0,3.55,0.55,4.44,1.65
			C137.09,304.94,137.54,306.59,137.54,308.81z M133.79,308.81c0-1.12-0.16-1.94-0.47-2.47c-0.31-0.53-0.87-0.79-1.66-0.79h-1.83
			v6.52h1.83c0.79,0,1.35-0.26,1.66-0.79C133.63,310.75,133.79,309.93,133.79,308.81z"/>
		<path d="M143.91,319.14l-0.85,4.08h-3.9l5.4-21.04h3.66l5.37,21.04h-3.9l-0.85-4.08H143.91z M146.38,307.25l-1.77,8.54h3.54
			L146.38,307.25z"/>
		<path d="M167.38,308.81c0,2.24-0.45,3.9-1.36,5s-2.37,1.65-4.41,1.65h-1.95v7.77h-3.72v-21.04h5.67c2.07,0,3.55,0.55,4.44,1.65
			C166.94,304.94,167.38,306.59,167.38,308.81z M163.63,308.81c0-1.12-0.16-1.94-0.47-2.47c-0.31-0.53-0.87-0.79-1.66-0.79h-1.83
			v6.52h1.83c0.79,0,1.35-0.26,1.66-0.79C163.48,310.75,163.63,309.93,163.63,308.81z"/>
		<path d="M173.82,310.85h4.88v3.35h-4.88v5.67h5.67v3.35h-9.39v-21.04h9.39v3.38h-5.67V310.85z"/>
		<path d="M186.2,314.78v8.44h-3.75v-21.04h5.73c2.07,0,3.54,0.5,4.41,1.49c0.86,1,1.3,2.59,1.3,4.79c0,1.4-0.19,2.57-0.58,3.51
			c-0.39,0.93-1.02,1.64-1.89,2.1l3.14,9.15h-3.9l-2.65-8.44H186.2z M188.15,311.43c0.75,0,1.27-0.25,1.55-0.75
			c0.29-0.5,0.43-1.24,0.43-2.21s-0.14-1.71-0.41-2.19c-0.27-0.49-0.8-0.73-1.57-0.73h-1.95v5.88H188.15z"/>
		<path d="M196.69,317.22h3.54c0.04,1.04,0.25,1.8,0.62,2.29c0.38,0.49,0.93,0.73,1.66,0.73s1.27-0.22,1.6-0.67s0.5-1.16,0.5-2.13
			c0-0.81-0.19-1.46-0.56-1.94c-0.38-0.48-1.01-0.92-1.91-1.33l-1.43-0.64c-1.36-0.61-2.34-1.36-2.94-2.26
			c-0.6-0.89-0.9-2.09-0.9-3.6c0-1.77,0.51-3.18,1.54-4.24c1.03-1.06,2.41-1.58,4.16-1.58c1.73,0,3.06,0.52,4.01,1.57
			c0.94,1.05,1.45,2.56,1.51,4.53h-3.45c-0.02-0.96-0.19-1.67-0.5-2.15c-0.31-0.48-0.84-0.72-1.57-0.72c-1.36,0-2.04,0.8-2.04,2.41
			c0,0.73,0.17,1.32,0.5,1.75c0.33,0.44,0.9,0.83,1.69,1.17l1.37,0.61c1.46,0.65,2.53,1.46,3.19,2.44c0.66,0.98,0.99,2.28,0.99,3.9
			c0,1.95-0.51,3.46-1.52,4.51c-1.02,1.06-2.46,1.58-4.33,1.58c-1.85,0-3.26-0.54-4.24-1.62S196.71,319.24,196.69,317.22z"/>
	</g>
</g>
<g id="ikon">
	<g>
		<path class="st1" d="M45.23,197.91h185.94v-4.77H40.16C40.34,195.8,42.53,197.91,45.23,197.91z"/>
		<polygon class="st1" points="40.12,182.01 40.12,180.8 40.12,180.8 40.12,192.8 40.12,192.8 40.12,191.64 231.17,191.64 
			231.17,187.58 40.12,187.58 40.12,186.08 231.17,186.08 231.17,182.01 		"/>
		<path class="st1" d="M230.58,178.24l-28-104.86H68.6L40.78,178.33c-0.36,0.65-0.59,1.39-0.63,2.18h191.02
			C231.17,179.68,230.94,178.92,230.58,178.24z M137.55,91.77h61.69c0.41,0,0.75,0.34,0.75,0.75s-0.34,0.75-0.75,0.75h-61.69
			c-0.41,0-0.75-0.34-0.75-0.75S137.14,91.77,137.55,91.77z M137.55,108.13h64.34c0.41,0,0.75,0.34,0.75,0.75s-0.34,0.75-0.75,0.75
			h-64.34c-0.41,0-0.75-0.34-0.75-0.75S137.14,108.13,137.55,108.13z M137.55,123.79h66.88c0.41,0,0.75,0.34,0.75,0.75
			s-0.34,0.75-0.75,0.75h-66.88c-0.41,0-0.75-0.34-0.75-0.75S137.14,123.79,137.55,123.79z M67.23,123.66l9.89-32.82
			c0.12-0.4,0.49-0.68,0.91-0.68h52.09c0.53,0,0.95,0.43,0.95,0.95v32.82c0,0.53-0.43,0.95-0.95,0.95H68.14
			C67.5,124.88,67.04,124.27,67.23,123.66z M63.12,140.79h145.05c0.41,0,0.75,0.34,0.75,0.75s-0.34,0.75-0.75,0.75H63.12
			c-0.41,0-0.75-0.34-0.75-0.75S62.71,140.79,63.12,140.79z M57.89,156.8h155.52c0.41,0,0.75,0.34,0.75,0.75s-0.34,0.75-0.75,0.75
			H57.89c-0.41,0-0.75-0.34-0.75-0.75S57.47,156.8,57.89,156.8z"/>
		<path class="st0" d="M137.55,93.27h61.69c0.41,0,0.75-0.34,0.75-0.75s-0.34-0.75-0.75-0.75h-61.69c-0.41,0-0.75,0.34-0.75,0.75
			S137.14,93.27,137.55,93.27z"/>
		<path class="st0" d="M137.55,109.63h64.34c0.41,0,0.75-0.34,0.75-0.75s-0.34-0.75-0.75-0.75h-64.34c-0.41,0-0.75,0.34-0.75,0.75
			S137.14,109.63,137.55,109.63z"/>
		<path class="st0" d="M137.55,125.29h66.88c0.41,0,0.75-0.34,0.75-0.75s-0.34-0.75-0.75-0.75h-66.88c-0.41,0-0.75,0.34-0.75,0.75
			S137.14,125.29,137.55,125.29z"/>
		<path class="st0" d="M63.12,142.29h145.05c0.41,0,0.75-0.34,0.75-0.75s-0.34-0.75-0.75-0.75H63.12c-0.41,0-0.75,0.34-0.75,0.75
			S62.71,142.29,63.12,142.29z"/>
		<path class="st0" d="M57.89,158.3h155.52c0.41,0,0.75-0.34,0.75-0.75s-0.34-0.75-0.75-0.75H57.89c-0.41,0-0.75,0.34-0.75,0.75
			S57.47,158.3,57.89,158.3z"/>
		<polygon class="st0" points="40.12,187.58 231.17,187.58 231.17,187.58 231.17,186.08 231.17,186.08 40.12,186.08 		"/>
		<polygon class="st0" points="231.17,182.01 231.17,182.01 231.17,180.51 231.17,180.51 40.15,180.51 40.12,180.51 40.12,180.8 
			40.12,182.01 		"/>
		<polygon class="st0" points="40.12,192.8 40.12,193.14 40.16,193.14 231.17,193.14 231.17,193.14 231.17,191.64 231.17,191.64 
			40.12,191.64 		"/>
		<path class="st0" d="M68.14,124.88h61.99c0.53,0,0.95-0.43,0.95-0.95V91.12c0-0.53-0.43-0.95-0.95-0.95H78.03
			c-0.42,0-0.79,0.27-0.91,0.68l-9.89,32.82C67.04,124.27,67.5,124.88,68.14,124.88z"/>
	</g>
</g>
</svg>
