<?xml version="1.0" encoding="utf-8"?>
<!-- Generator: Adobe Illustrator 25.4.1, SVG Export Plug-In . SVG Version: 6.00 Build 0)  -->
<svg version="1.1" xmlns="http://www.w3.org/2000/svg" xmlns:xlink="http://www.w3.org/1999/xlink" x="0px" y="0px"
	 viewBox="0 0 271.29 356.19" style="enable-background:new 0 0 271.29 356.19;" xml:space="preserve">
<style type="text/css">
	.st0{fill:#FFFFFF;}
	.st1{fill:#E40521;}
</style>
<g id="bakgrund">
	<rect x="1" y="270.15" class="st0" width="269.29" height="85.04"/>
	<path class="st1" d="M271.29,356.19H0v-87.04h271.29V356.19z M2,354.19h267.29v-83.04H2V354.19z"/>
	<g>
		<rect x="1" y="1" class="st1" width="269.29" height="269.29"/>
		<path class="st1" d="M271.29,271.29H0V0h271.29V271.29z M2,269.29h267.29V2H2V269.29z"/>
	</g>
</g>
<g id="namn">
	<g>
		<path d="M74.04,317.44v-9.48c0-1.99,0.56-3.5,1.68-4.53c1.12-1.03,2.59-1.54,4.42-1.54c1.77,0,3.19,0.51,4.25,1.54
			s1.6,2.54,1.6,4.53v9.48c0,1.95-0.56,3.45-1.69,4.48c-1.13,1.04-2.59,1.55-4.37,1.55c-1.81,0-3.24-0.51-4.3-1.54
			C74.57,320.91,74.04,319.41,74.04,317.44z M82.24,317.01v-8.44c0-1.08-0.18-1.9-0.55-2.46c-0.37-0.56-0.91-0.84-1.65-0.84
			c-0.79,0-1.37,0.27-1.72,0.82c-0.36,0.55-0.53,1.37-0.53,2.47v8.44c0,2.05,0.75,3.08,2.26,3.08c0.71,0,1.26-0.27,1.63-0.81
			C82.06,318.74,82.24,317.99,82.24,317.01z"/>
		<path d="M93.19,302.19v21.04h-3.72v-21.04H93.19z"/>
		<path d="M100.54,302.19v17.68h5.64v3.35h-9.39v-21.04H100.54z"/>
		<path d="M118.89,310.94h4.88v3.38h-4.88v8.9h-3.75v-21.04h9.39v3.38h-5.64V310.94z"/>
		<path d="M131.21,302.19v21.04h-3.72v-21.04H131.21z"/>
		<path d="M138.56,302.19v17.68h5.64v3.35h-9.39v-21.04H138.56z"/>
		<path d="M153.13,305.58v17.65h-3.72v-17.65h-3.66v-3.38h11.01v3.38H153.13z"/>
		<path d="M162.8,310.85h4.88v3.35h-4.88v5.67h5.67v3.35h-9.39v-21.04h9.39v3.38h-5.67V310.85z"/>
		<path d="M175.18,314.78v8.45h-3.75v-21.04h5.73c2.07,0,3.54,0.5,4.41,1.49c0.86,1,1.3,2.59,1.3,4.79c0,1.4-0.19,2.57-0.58,3.51
			c-0.39,0.93-1.02,1.64-1.89,2.1l3.14,9.15h-3.9l-2.65-8.45H175.18z M177.13,311.43c0.75,0,1.27-0.25,1.55-0.75
			c0.29-0.5,0.43-1.24,0.43-2.21c0-0.98-0.14-1.71-0.41-2.2s-0.8-0.73-1.57-0.73h-1.95v5.88H177.13z"/>
		<path d="M185.66,317.22h3.54c0.04,1.04,0.25,1.8,0.62,2.29c0.38,0.49,0.93,0.73,1.66,0.73s1.27-0.22,1.6-0.67
			c0.33-0.45,0.5-1.16,0.5-2.13c0-0.81-0.19-1.46-0.56-1.94c-0.38-0.48-1.01-0.92-1.91-1.33l-1.43-0.64
			c-1.36-0.61-2.34-1.36-2.94-2.26s-0.9-2.09-0.9-3.6c0-1.77,0.51-3.18,1.54-4.24c1.03-1.06,2.41-1.58,4.16-1.58
			c1.73,0,3.06,0.52,4.01,1.57c0.94,1.05,1.45,2.56,1.51,4.53h-3.45c-0.02-0.96-0.19-1.67-0.5-2.15c-0.31-0.48-0.84-0.72-1.57-0.72
			c-1.36,0-2.04,0.8-2.04,2.41c0,0.73,0.17,1.32,0.5,1.75c0.33,0.44,0.9,0.83,1.69,1.17l1.37,0.61c1.46,0.65,2.53,1.46,3.19,2.44
			c0.66,0.97,0.99,2.28,0.99,3.9c0,1.95-0.51,3.46-1.52,4.51c-1.02,1.06-2.46,1.58-4.33,1.58c-1.85,0-3.26-0.54-4.24-1.62
			C186.18,320.78,185.68,319.24,185.66,317.22z"/>
	</g>
</g>
<g id="ikon">
	<g>
		<path class="st0" d="M140.72,198.77c-0.43-3.61-1.96-8.2-4.66-14.03c-2.87-6.18-6.84-13.23-11.59-20.59
			c-2.87-4.45-6.03-9.02-9.39-13.59v0c-4.77-6.47-9.66-12.54-14.43-17.91c-4.16-4.69-8.23-8.85-12.01-12.27
			c-4.65-4.2-8.51-6.99-11.78-8.5c-0.08-0.04-0.16-0.07-0.24-0.11c-3.75-1.68-6.83-1.65-9.17,0.06c-1.08,0.8-1.86,1.85-2.34,3.16
			c-0.09,0.24-0.17,0.5-0.23,0.76c0.09-0.07,0.18-0.14,0.27-0.21c1.37-1.01,2.98-1.52,4.78-1.52h0c2.38,0,5.03,0.91,8.1,2.79
			c2.68,1.64,5.67,4,9.16,7.22c7.64,7.05,16.51,17.26,24.99,28.76c8.48,11.5,15.6,23,20.07,32.38c2.68,5.62,4.22,10.08,4.73,13.62
			c0.3,2.09,0.24,3.86-0.17,5.43c-0.49,1.87-1.53,3.43-2.99,4.5c-0.03,0.02-0.07,0.05-0.1,0.07c0.04,0,0.09,0,0.13,0
			c1.55,0,2.93-0.43,4.11-1.3c1.87-1.38,2.84-3.54,2.9-6.43C140.86,200.35,140.82,199.58,140.72,198.77z"/>
		<path class="st0" d="M127.06,161.4c1.95,2.98,3.78,5.92,5.47,8.76l56.68-41.44c-1.64-2.85-3.45-5.8-5.4-8.82L127.06,161.4z"/>
		<path class="st0" d="M191.04,131.96l-56.64,41.41c1.83,3.22,3.46,6.31,4.85,9.22l56.44-41.26c-0.38-0.87-0.79-1.77-1.24-2.71
			C193.45,136.49,192.3,134.27,191.04,131.96z"/>
		<path class="st0" d="M119.11,149.89c2.06,2.83,4.04,5.65,5.92,8.44l56.77-41.5c-1.86-2.79-3.83-5.62-5.89-8.46L119.11,149.89z"/>
		<path class="st0" d="M197.12,144.84L140.82,186c1.76,4.03,2.88,7.41,3.41,10.27l53.18-38.88l0,0
			C199.61,155.47,199.52,151.33,197.12,144.84z"/>
		<path class="st0" d="M101.51,128.1c2.22,2.46,4.49,5.07,6.76,7.82l56.79-41.52c-2.3-2.76-4.58-5.37-6.81-7.79L101.51,128.1z"/>
		<path class="st0" d="M133.3,70.2l-53.4,39.04c0.64,0.33,1.3,0.69,1.98,1.11c2.09,1.28,4.37,2.98,6.91,5.16l56.42-41.25
			c-4.04-3.12-7.22-4.66-9.62-4.66C134.73,69.59,133.97,69.8,133.3,70.2z"/>
		<path class="st0" d="M206.31,150.7c-0.39-3.64-1.89-8.26-4.56-14.11c-4.56-9.96-11.98-22.12-20.92-34.25
			c-8.94-12.13-18.35-22.83-26.51-30.13c-4.8-4.29-8.76-7.08-12.12-8.54c-3.78-1.64-6.9-1.58-9.27,0.16
			c-1.32,0.97-2.2,2.32-2.66,4.02l0.57-0.42c0-0.01-0.01-0.01,0-0.01c1.37-1.01,2.97-1.52,4.77-1.52h0h0c2.38,0,5.02,0.91,8.08,2.79
			c2.67,1.64,5.66,4,9.14,7.21c7.62,7.04,16.47,17.25,24.93,28.75c8.46,11.5,15.57,22.99,20.03,32.36
			c2.67,5.62,4.21,10.07,4.72,13.61c0.3,2.08,0.24,3.86-0.17,5.43c-0.49,1.87-1.52,3.43-2.98,4.5c-0.01,0-0.01,0.01-0.02,0
			l-0.39,0.29c0.08,0,0.15,0.01,0.23,0.01c1.61,0,3.03-0.45,4.26-1.35C205.78,157.76,206.76,154.8,206.31,150.7z"/>
		<path class="st0" d="M110.6,138.78c2.11,2.62,4.22,5.35,6.32,8.15l56.8-41.52c-2.1-2.81-4.21-5.54-6.32-8.15L110.6,138.78z"/>
		<path class="st0" d="M150.32,78.62c-0.75-0.69-1.47-1.34-2.17-1.95l-56.54,41.34c2.37,2.18,4.84,4.66,7.39,7.36l56.71-41.46
			C153.86,81.99,152.06,80.22,150.32,78.62z"/>
		<path class="st0" d="M128.91,186.76c-4.37-9.17-11.37-20.46-19.71-31.78c-8.34-11.32-17.05-21.35-24.52-28.24
			c-6.55-6.04-11.42-9.03-14.76-9.03c-1,0-1.87,0.27-2.6,0.81c-3.16,2.33-2.27,8.54,2.71,19c4.37,9.18,11.37,20.46,19.71,31.78
			c8.34,11.32,17.05,21.35,24.52,28.24c6.55,6.04,11.42,9.03,14.76,9.03c1,0,1.87-0.27,2.6-0.81
			C134.77,203.44,133.89,197.23,128.91,186.76z M81.73,138.86c-0.82,0.6-3.44-1.56-5.85-4.84c-2.41-3.27-3.7-6.42-2.89-7.02
			c0.82-0.6,3.44,1.56,5.85,4.84C81.26,135.11,82.55,138.25,81.73,138.86z M97.67,172.21c-0.82,0.6-3.44-1.56-5.85-4.84
			c-2.41-3.27-3.7-6.42-2.89-7.02c0.82-0.6,3.44,1.56,5.85,4.84C97.19,168.46,98.49,171.6,97.67,172.21z M114.52,174.14
			c-1.64,1.21-7.86-4.45-13.89-12.64c-6.03-8.19-9.59-15.8-7.96-17c1.64-1.21,7.86,4.45,13.89,12.64
			C112.6,165.32,116.16,172.94,114.52,174.14z M124.76,197.6c-0.82,0.6-3.44-1.56-5.85-4.84c-2.41-3.27-3.7-6.42-2.89-7.02
			c0.82-0.6,3.44,1.56,5.85,4.84C124.29,193.85,125.58,197,124.76,197.6z"/>
	</g>
</g>
</svg>
