<?xml version="1.0" encoding="utf-8"?>
<!-- Generator: Adobe Illustrator 25.4.1, SVG Export Plug-In . SVG Version: 6.00 Build 0)  -->
<svg version="1.1" xmlns="http://www.w3.org/2000/svg" xmlns:xlink="http://www.w3.org/1999/xlink" x="0px" y="0px"
	 viewBox="0 0 271.29 356.18" style="enable-background:new 0 0 271.29 356.18;" xml:space="preserve">
<style type="text/css">
	.st0{fill:#E40521;}
	.st1{fill:#E1261D;}
	.st2{fill:#FFFFFF;}
</style>
<g id="bakgrund">
	<g>
		<rect x="1" y="1.29" class="st0" width="269.29" height="269.29"/>
		<path class="st1" d="M271.29,271.58H0V0.29h271.29V271.58z M2,269.58h267.29V2.29H2V269.58z"/>
	</g>
	<rect x="1" y="270.15" class="st2" width="269.29" height="85.04"/>
	<path class="st0" d="M271.29,356.18H0v-87.04h271.29V356.18z M2,354.18h267.29v-83.04H2V354.18z"/>
</g>
<g id="namn">
	<g>
		<path d="M115.83,306.12c0,2.24-0.45,3.9-1.36,5s-2.37,1.65-4.41,1.65h-1.95v7.78h-3.72V299.5h5.67c2.07,0,3.55,0.55,4.44,1.65
			C115.39,302.25,115.83,303.9,115.83,306.12z M112.08,306.12c0-1.12-0.16-1.94-0.47-2.47c-0.31-0.53-0.87-0.79-1.66-0.79h-1.83
			v6.53h1.83c0.79,0,1.35-0.26,1.66-0.79C111.92,308.06,112.08,307.24,112.08,306.12z"/>
		<path d="M122.2,316.45l-0.85,4.09h-3.9l5.4-21.04h3.66l5.37,21.04h-3.9l-0.85-4.09H122.2z M124.67,304.56l-1.77,8.54h3.54
			L124.67,304.56z"/>
		<path d="M138.08,299.5v21.04h-3.72V299.5H138.08z"/>
		<path d="M153.57,320.54h-3.75l-4.39-11.22v11.22h-3.75V299.5h3.75l4.39,11.71V299.5h3.75V320.54z"/>
		<path d="M163.27,302.89v17.65h-3.72v-17.65h-3.66v-3.38h11.01v3.38H163.27z"/>
	</g>
</g>
<g id="ikon">
	<path class="st2" d="M211.16,135.93c-2.51-9.89-7.49-21.33-14.58-33.53V85.8h-0.01c0-0.11,0.01-0.21,0.01-0.31
		c0-1.34-0.41-3.36-2.36-5.4c-1.17-1.22-2.75-2.33-4.82-3.38c-3.58-1.81-8.6-3.42-14.92-4.77c-12.6-2.7-29.29-4.19-47.01-4.19
		s-34.41,1.49-47.01,4.19c-6.32,1.35-11.34,2.96-14.92,4.77c-2.08,1.05-3.65,2.16-4.82,3.38c-1.95,2.04-2.36,4.07-2.36,5.4
		c0,0.1,0,0.2,0.01,0.31h-0.01v100.88l0,0c0,1.31,0.41,3.3,2.36,5.31c1.17,1.2,2.75,2.29,4.82,3.32c3.58,1.78,8.6,3.36,14.92,4.69
		c12.6,2.65,29.29,4.11,47.01,4.11s34.41-1.46,47.01-4.11c6.32-1.33,11.34-2.91,14.92-4.69c2.08-1.03,3.65-2.12,4.82-3.32
		c1.95-2.01,2.36-3.99,2.36-5.31l0,0v-20.05c-1.65-0.06-3.38-0.32-5.18-0.8c-6.16-1.61-13.33-5.69-21.32-12.11
		c-6.52-5.24-13.54-11.99-20.86-20.05c-11.45-12.62-20.53-25.07-23.8-30.44c0.68,0,1.36,0.01,2.05,0.01c0.79,0,1.58,0,2.37-0.01
		c3.85,5.83,12.15,16.91,22.15,27.93c7.18,7.92,14.06,14.53,20.43,19.65c7.58,6.09,14.29,9.93,19.93,11.41
		c1.5,0.39,2.91,0.62,4.24,0.68v-52.8c5.19,9.72,8.97,18.89,10.96,26.75c1.52,6.01,2,11.14,1.43,15.25
		c-0.55,3.97-2.09,6.87-4.57,8.64c-2.05,1.46-4.4,2.18-7.1,2.18c-0.23,0-0.47-0.01-0.71-0.02v3.73c0.23,0.01,0.46,0.01,0.69,0.01
		c3.49,0,6.6-0.96,9.28-2.86C211.06,160.58,215.52,153.15,211.16,135.93z M192.83,85.8c-0.76,7.6-29.73,13.7-65.36,13.7
		c-4.48,0-8.85-0.1-13.07-0.28c0,0.87,0,1.67,0,1.67v19.25c0,2.06-1.67,3.74-3.74,3.74c-2.06,0-3.74-1.67-3.74-3.47v-5.74
		c-0.66,0.31-1.51,0.92-2.45,0.92c-0.83,0-1.59-0.27-2.21-0.73v10.86c0,2.06-1.67,3.74-3.74,3.74h0c-0.68,0-1.32-0.18-1.86-0.5
		l0.01,13.46c0,3.09-2.51,5.6-5.6,5.61c-3.09,0-5.61-2.51-5.61-5.6l-0.01-8.76c-0.75,0.96-1.79,1.27-2.82,1.27
		c-1.14,0-2.05-0.47-2.79-1.22v23.66c0,3.09-2.51,5.87-5.6,5.87l0,0c-3.1,0-5.6-2.77-5.6-5.87V91.62c-4-1.76-6.33-3.73-6.54-5.81
		c-0.01-0.1-0.02-0.2-0.02-0.31c0-7.74,29.27-14.01,65.38-14.01c36.11,0,65.38,6.27,65.38,14.01
		C192.84,85.6,192.84,85.7,192.83,85.8z"/>
</g>
</svg>
