<?xml version="1.0" encoding="utf-8"?>
<!-- Generator: Adobe Illustrator 25.4.1, SVG Export Plug-In . SVG Version: 6.00 Build 0)  -->
<svg version="1.1" xmlns="http://www.w3.org/2000/svg" xmlns:xlink="http://www.w3.org/1999/xlink" x="0px" y="0px"
	 viewBox="0 0 271.29 355.96" style="enable-background:new 0 0 271.29 355.96;" xml:space="preserve">
<style type="text/css">
	.st0{fill:#004778;}
	.st1{fill:#FFFFFF;}
</style>
<g id="bakgrund">
	<g>
		<rect x="1" y="1" class="st0" width="269.29" height="269.29"/>
		<path class="st0" d="M271.29,271.29H0V0h271.29V271.29z M2,269.29h267.29V2H2V269.29z"/>
	</g>
	<g>
		<rect x="1" y="269.92" class="st1" width="269.29" height="85.04"/>
		<path class="st0" d="M271.29,355.96H0v-87.04h271.29V355.96z M2,353.96h267.29v-83.04H2V353.96z"/>
	</g>
</g>
<g id="namn">
	<g>
		<path d="M102.35,308.81c0,2.24-0.45,3.9-1.36,5s-2.37,1.65-4.41,1.65h-1.95v7.77h-3.72v-21.04h5.67c2.07,0,3.55,0.55,4.44,1.65
			C101.91,304.94,102.35,306.59,102.35,308.81z M98.6,308.81c0-1.12-0.16-1.94-0.47-2.47c-0.31-0.53-0.87-0.79-1.66-0.79h-1.83v6.52
			h1.83c0.79,0,1.35-0.26,1.66-0.79C98.44,310.75,98.6,309.93,98.6,308.81z"/>
		<path d="M108.72,319.14l-0.85,4.08h-3.9l5.4-21.04h3.66l5.37,21.04h-3.9l-0.85-4.08H108.72z M111.19,307.25l-1.77,8.54h3.54
			L111.19,307.25z"/>
		<path d="M124.52,302.19v17.68h5.64v3.35h-9.39v-21.04H124.52z"/>
		<path d="M136.62,302.19v17.68h5.64v3.35h-9.39v-21.04H136.62z"/>
		<path d="M148.69,310.85h4.88v3.35h-4.88v5.67h5.67v3.35h-9.39v-21.04h9.39v3.38h-5.67V310.85z"/>
		<path d="M163.54,305.58v17.65h-3.72v-17.65h-3.66v-3.38h11.01v3.38H163.54z"/>
		<path d="M168.79,317.22h3.54c0.04,1.04,0.25,1.8,0.62,2.29c0.38,0.49,0.93,0.73,1.66,0.73s1.27-0.22,1.6-0.67s0.5-1.16,0.5-2.13
			c0-0.81-0.19-1.46-0.56-1.94c-0.38-0.48-1.01-0.92-1.91-1.33l-1.43-0.64c-1.36-0.61-2.34-1.36-2.94-2.26
			c-0.6-0.89-0.9-2.09-0.9-3.6c0-1.77,0.51-3.18,1.54-4.24c1.03-1.06,2.41-1.58,4.16-1.58c1.73,0,3.06,0.52,4.01,1.57
			c0.94,1.05,1.45,2.56,1.51,4.53h-3.45c-0.02-0.96-0.19-1.67-0.5-2.15c-0.31-0.48-0.84-0.72-1.57-0.72c-1.36,0-2.04,0.8-2.04,2.41
			c0,0.73,0.17,1.32,0.5,1.75c0.33,0.44,0.9,0.83,1.69,1.17l1.37,0.61c1.46,0.65,2.53,1.46,3.19,2.44c0.66,0.98,0.99,2.28,0.99,3.9
			c0,1.95-0.51,3.46-1.52,4.51c-1.02,1.06-2.46,1.58-4.33,1.58c-1.85,0-3.26-0.54-4.24-1.62S168.81,319.24,168.79,317.22z"/>
	</g>
</g>
<g id="ikon">
	<g>
		<polygon class="st1" points="115.67,156.13 102.7,167.76 114.58,167.76 127.55,156.13 		"/>
		<polygon class="st1" points="67.86,156.13 54.9,167.76 66.78,167.76 79.74,156.13 		"/>
		<polygon class="st1" points="171.71,78.44 72.13,167.76 97.35,167.76 196.92,78.44 		"/>
		<polygon class="st1" points="108.76,130.1 121.76,118.44 109.88,118.44 96.88,130.1 		"/>
		<polygon class="st1" points="151.29,91.95 166.35,78.44 154.47,78.44 139.41,91.95 		"/>
		<polygon class="st1" points="219.51,78.44 119.94,167.76 147.34,167.76 246.91,78.44 		"/>
		<polygon class="st1" points="247.18,98.09 247.18,83 234.67,94.23 234.67,109.31 204.24,136.6 204.24,121.52 191.73,132.74 
			191.73,147.82 161.31,175.12 161.31,160.04 148.82,171.24 148.82,191.12 247.19,102.88 247.19,98.08 		"/>
		<rect x="72.24" y="171.34" class="st1" width="25.02" height="21.51"/>
		<rect x="24.27" y="171.34" class="st1" width="25.02" height="21.51"/>
		<rect x="120.21" y="171.34" class="st1" width="25.02" height="21.51"/>
		<polygon class="st1" points="199.09,91.95 214.16,78.44 202.28,78.44 187.21,91.95 		"/>
		<polygon class="st1" points="123.6,78.5 24.1,167.76 49.55,167.76 149.12,78.44 		"/>
		<polygon class="st1" points="156.57,130.1 169.56,118.44 157.68,118.44 144.69,130.1 		"/>
	</g>
</g>
</svg>
