<?xml version="1.0" encoding="UTF-8" standalone="no"?>
<svg
   xmlns:dc="http://purl.org/dc/elements/1.1/"
   xmlns:cc="http://creativecommons.org/ns#"
   xmlns:rdf="http://www.w3.org/1999/02/22-rdf-syntax-ns#"
   xmlns:svg="http://www.w3.org/2000/svg"
   xmlns="http://www.w3.org/2000/svg"
   xmlns:sodipodi="http://sodipodi.sourceforge.net/DTD/sodipodi-0.dtd"
   xmlns:inkscape="http://www.inkscape.org/namespaces/inkscape"
   version="1.1"
   id="svg2"
   xml:space="preserve"
   width="361.72134"
   height="472.24667"
   viewBox="0 0 361.72134 472.24667"
   sodipodi:docname="paper.ai"><metadata
     id="metadata8"><rdf:RDF><cc:Work
         rdf:about=""><dc:format>image/svg+xml</dc:format><dc:type
           rdf:resource="http://purl.org/dc/dcmitype/StillImage" /></cc:Work></rdf:RDF></metadata><defs
     id="defs6"><clipPath
       clipPathUnits="userSpaceOnUse"
       id="clipPath26"><path
         d="M 0,354.185 H 271.291 V 0 H 0 Z"
         id="path24" /></clipPath></defs><sodipodi:namedview
     pagecolor="#ffffff"
     bordercolor="#666666"
     borderopacity="1"
     objecttolerance="10"
     gridtolerance="10"
     guidetolerance="10"
     inkscape:pageopacity="0"
     inkscape:pageshadow="2"
     inkscape:window-width="640"
     inkscape:window-height="480"
     id="namedview4" /><g
     id="g10"
     inkscape:groupmode="layer"
     inkscape:label="paper"
     transform="matrix(1.3333333,0,0,-1.3333333,0,472.24667)"><path
       d="M 1,83.894 H 270.291 V 353.186 H 1 Z"
       style="fill:#007ebf;fill-opacity:1;fill-rule:nonzero;stroke:none"
       id="path12" /><path
       d="M 0,82.894 H 271.291 V 354.186 H 0 Z M 2,352.185 H 269.291 V 84.893 H 2 Z"
       style="fill:#007ebf;fill-opacity:1;fill-rule:nonzero;stroke:none"
       id="path14" /><path
       d="M 1,1 H 270.291 V 86.039 H 1 Z"
       style="fill:#ffffff;fill-opacity:1;fill-rule:nonzero;stroke:none"
       id="path16" /><path
       d="M 0,0 H 271.291 V 87.039 H 0 Z M 2,85.039 H 269.291 V 2 H 2 Z"
       style="fill:#007ebf;fill-opacity:1;fill-rule:nonzero;stroke:none"
       id="path18" /><g
       id="g20"><g
         id="g22"
         clip-path="url(#clipPath26)"><g
           id="g28"
           transform="translate(109.1045,47.422)"><path
             d="m 0,0 c 0,1.117 -0.157,1.94 -0.473,2.469 -0.314,0.529 -0.868,0.793 -1.661,0.793 h -1.829 v -6.525 h 1.829 c 0.793,0 1.347,0.265 1.661,0.793 C -0.157,-1.941 0,-1.118 0,0 M 3.75,0 C 3.75,-2.236 3.298,-3.902 2.394,-5 1.489,-6.098 0.021,-6.646 -2.012,-6.646 h -1.951 v -7.775 h -3.72 V 6.615 h 5.671 C 0.062,6.615 1.54,6.066 2.424,4.969 3.309,3.872 3.75,2.215 3.75,0"
             style="fill:#1d1d1b;fill-opacity:1;fill-rule:nonzero;stroke:none"
             id="path30" /></g><g
           id="g32"
           transform="translate(121.6973,48.9767)"><path
             d="m 0,0 -1.769,-8.536 h 3.538 z m -2.47,-11.89 -0.853,-4.086 H -7.226 L -1.829,5.061 H 1.829 L 7.195,-15.976 H 3.293 l -0.854,4.086 z"
             style="fill:#1d1d1b;fill-opacity:1;fill-rule:nonzero;stroke:none"
             id="path34" /></g><g
           id="g36"
           transform="translate(138.9532,47.422)"><path
             d="m 0,0 c 0,1.117 -0.157,1.94 -0.473,2.469 -0.314,0.529 -0.868,0.793 -1.661,0.793 h -1.829 v -6.525 h 1.829 c 0.793,0 1.347,0.265 1.661,0.793 C -0.157,-1.941 0,-1.118 0,0 M 3.75,0 C 3.75,-2.236 3.298,-3.902 2.394,-5 1.489,-6.098 0.021,-6.646 -2.012,-6.646 h -1.951 v -7.775 h -3.72 V 6.615 h 5.671 C 0.062,6.615 1.54,6.066 2.424,4.969 3.309,3.872 3.75,2.215 3.75,0"
             style="fill:#1d1d1b;fill-opacity:1;fill-rule:nonzero;stroke:none"
             id="path38" /></g><g
           id="g40"
           transform="translate(149.1377,45.3791)"><path
             d="M 0,0 H 4.878 V -3.354 H 0 v -5.67 h 5.671 v -3.354 H -3.72 V 8.658 H 5.671 V 5.274 L 0,5.274 Z"
             style="fill:#1d1d1b;fill-opacity:1;fill-rule:nonzero;stroke:none"
             id="path42" /></g><g
           id="g44"
           transform="translate(163.4668,44.8)"><path
             d="M 0,0 C 0.752,0 1.271,0.249 1.555,0.747 1.84,1.245 1.981,1.981 1.981,2.957 1.981,3.933 1.845,4.664 1.57,5.152 1.296,5.64 0.772,5.884 0,5.884 H -1.951 V 0 Z m -1.951,-3.354 v -8.445 h -3.75 V 9.237 H 0.03 C 2.104,9.237 3.572,8.739 4.436,7.743 5.3,6.748 5.731,5.152 5.731,2.957 5.731,1.555 5.538,0.386 5.152,-0.549 4.767,-1.483 4.136,-2.185 3.263,-2.652 l 3.139,-9.147 H 2.5 l -2.652,8.445 z"
             style="fill:#1d1d1b;fill-opacity:1;fill-rule:nonzero;stroke:none"
             id="path46" /></g></g></g><g
       id="g48"
       transform="translate(134.063,243.8786)"><path
         d="M 0,0 -0.012,51.047 -50.995,0 Z"
         style="fill:#ffffff;fill-opacity:1;fill-rule:nonzero;stroke:none"
         id="path50" /></g><g
       id="g52"
       transform="translate(137.2237,297.6388)"><path
         d="M 0,0 V -56.925 H -56.948 V -158.199 H 53.792 L 53.792,0 Z"
         style="fill:#ffffff;fill-opacity:1;fill-rule:nonzero;stroke:none"
         id="path54" /></g></g></svg>
