<?xml version="1.0" encoding="UTF-8" standalone="no"?>
<svg
   xmlns:dc="http://purl.org/dc/elements/1.1/"
   xmlns:cc="http://creativecommons.org/ns#"
   xmlns:rdf="http://www.w3.org/1999/02/22-rdf-syntax-ns#"
   xmlns:svg="http://www.w3.org/2000/svg"
   xmlns="http://www.w3.org/2000/svg"
   xmlns:sodipodi="http://sodipodi.sourceforge.net/DTD/sodipodi-0.dtd"
   xmlns:inkscape="http://www.inkscape.org/namespaces/inkscape"
   version="1.1"
   id="svg2"
   xml:space="preserve"
   width="361.72134"
   height="474.91333"
   viewBox="0 0 361.72134 474.91333"
   sodipodi:docname="paper-packaging.ai"><metadata
     id="metadata8"><rdf:RDF><cc:Work
         rdf:about=""><dc:format>image/svg+xml</dc:format><dc:type
           rdf:resource="http://purl.org/dc/dcmitype/StillImage" /></cc:Work></rdf:RDF></metadata><defs
     id="defs6"><clipPath
       clipPathUnits="userSpaceOnUse"
       id="clipPath26"><path
         d="M 0,356.185 H 271.291 V 0 H 0 Z"
         id="path24" /></clipPath></defs><sodipodi:namedview
     pagecolor="#ffffff"
     bordercolor="#666666"
     borderopacity="1"
     objecttolerance="10"
     gridtolerance="10"
     guidetolerance="10"
     inkscape:pageopacity="0"
     inkscape:pageshadow="2"
     inkscape:window-width="640"
     inkscape:window-height="480"
     id="namedview4" /><g
     id="g10"
     inkscape:groupmode="layer"
     inkscape:label="paper-packaging"
     transform="matrix(1.3333333,0,0,-1.3333333,0,474.91333)"><path
       d="M 1,85.894 H 270.291 V 355.186 H 1 Z"
       style="fill:#c3a166;fill-opacity:1;fill-rule:nonzero;stroke:none"
       id="path12" /><path
       d="M 0,84.893 H 271.291 V 356.185 L 0,356.185 Z M 2,354.185 H 269.291 V 86.894 H 2 Z"
       style="fill:#c3a166;fill-opacity:1;fill-rule:nonzero;stroke:none"
       id="path14" /><path
       d="M 1,1 H 270.291 V 86.039 H 1 Z"
       style="fill:#ffffff;fill-opacity:1;fill-rule:nonzero;stroke:none"
       id="path16" /><path
       d="M 0,0 H 271.291 V 87.039 H 0 Z M 2,85.039 H 269.291 V 2 H 2 Z"
       style="fill:#c3a166;fill-opacity:1;fill-rule:nonzero;stroke:none"
       id="path18" /><g
       id="g20"><g
         id="g22"
         clip-path="url(#clipPath26)"><g
           id="g28"
           transform="translate(41.8145,47.3918)"><path
             d="m 0,0 c 0,1.117 -0.157,1.94 -0.473,2.469 -0.314,0.529 -0.868,0.793 -1.661,0.793 h -1.829 v -6.525 h 1.829 c 0.793,0 1.347,0.265 1.661,0.793 C -0.157,-1.941 0,-1.118 0,0 M 3.75,0 C 3.75,-2.236 3.298,-3.902 2.394,-5 1.489,-6.098 0.021,-6.646 -2.012,-6.646 h -1.951 v -7.775 h -3.72 V 6.615 h 5.671 C 0.062,6.615 1.54,6.066 2.424,4.969 3.309,3.872 3.75,2.215 3.75,0"
             style="fill:#1d1d1b;fill-opacity:1;fill-rule:nonzero;stroke:none"
             id="path30" /></g><g
           id="g32"
           transform="translate(54.4073,48.9464)"><path
             d="m 0,0 -1.769,-8.536 h 3.538 z m -2.47,-11.89 -0.853,-4.086 H -7.226 L -1.829,5.061 H 1.829 L 7.195,-15.976 H 3.293 l -0.854,4.086 z"
             style="fill:#1d1d1b;fill-opacity:1;fill-rule:nonzero;stroke:none"
             id="path34" /></g><g
           id="g36"
           transform="translate(71.6631,47.3918)"><path
             d="m 0,0 c 0,1.117 -0.157,1.94 -0.473,2.469 -0.314,0.529 -0.868,0.793 -1.661,0.793 h -1.829 v -6.525 h 1.829 c 0.793,0 1.347,0.265 1.661,0.793 C -0.157,-1.941 0,-1.118 0,0 M 3.75,0 C 3.75,-2.236 3.298,-3.902 2.394,-5 1.489,-6.098 0.021,-6.646 -2.012,-6.646 h -1.951 v -7.775 h -3.72 V 6.615 h 5.671 C 0.062,6.615 1.54,6.066 2.424,4.969 3.309,3.872 3.75,2.215 3.75,0"
             style="fill:#1d1d1b;fill-opacity:1;fill-rule:nonzero;stroke:none"
             id="path38" /></g><g
           id="g40"
           transform="translate(81.8477,45.3488)"><path
             d="M 0,0 H 4.878 V -3.354 H 0 v -5.67 h 5.671 v -3.354 H -3.72 V 8.658 H 5.671 V 5.274 L 0,5.274 Z"
             style="fill:#1d1d1b;fill-opacity:1;fill-rule:nonzero;stroke:none"
             id="path42" /></g><g
           id="g44"
           transform="translate(96.1768,44.7697)"><path
             d="M 0,0 C 0.752,0 1.271,0.249 1.555,0.747 1.84,1.245 1.981,1.981 1.981,2.957 1.981,3.933 1.845,4.664 1.57,5.152 1.296,5.64 0.772,5.884 0,5.884 H -1.951 V 0 Z m -1.951,-3.354 v -8.445 h -3.75 V 9.237 H 0.03 C 2.104,9.237 3.572,8.739 4.436,7.743 5.3,6.748 5.731,5.152 5.731,2.957 5.731,1.555 5.539,0.386 5.152,-0.549 4.767,-1.483 4.136,-2.185 3.262,-2.652 l 3.14,-9.147 H 2.5 l -2.652,8.445 z"
             style="fill:#1d1d1b;fill-opacity:1;fill-rule:nonzero;stroke:none"
             id="path46" /></g><g
           id="g48"
           transform="translate(119.3487,47.3918)"><path
             d="m 0,0 c 0,1.117 -0.157,1.94 -0.473,2.469 -0.314,0.529 -0.868,0.793 -1.661,0.793 h -1.829 v -6.525 h 1.829 c 0.793,0 1.347,0.265 1.661,0.793 C -0.157,-1.941 0,-1.118 0,0 M 3.75,0 C 3.75,-2.236 3.298,-3.902 2.394,-5 1.489,-6.098 0.021,-6.646 -2.012,-6.646 h -1.951 v -7.775 h -3.72 V 6.615 h 5.671 C 0.062,6.615 1.54,6.066 2.424,4.969 3.309,3.872 3.75,2.215 3.75,0"
             style="fill:#1d1d1b;fill-opacity:1;fill-rule:nonzero;stroke:none"
             id="path50" /></g><g
           id="g52"
           transform="translate(131.9405,48.9464)"><path
             d="m 0,0 -1.769,-8.536 h 3.538 z m -2.47,-11.89 -0.853,-4.086 H -7.226 L -1.829,5.061 H 1.829 L 7.195,-15.976 H 3.293 l -0.854,4.086 z"
             style="fill:#1d1d1b;fill-opacity:1;fill-rule:nonzero;stroke:none"
             id="path54" /></g><g
           id="g56"
           transform="translate(141.3926,38.7638)"><path
             d="m 0,0 v 9.481 c 0,1.992 0.56,3.501 1.677,4.528 1.118,1.026 2.592,1.539 4.421,1.539 1.748,0 3.16,-0.508 4.237,-1.525 1.078,-1.015 1.616,-2.56 1.616,-4.633 V 8.75 h -3.75 v 0.609 c 0,0.955 -0.198,1.662 -0.595,2.12 -0.395,0.457 -0.929,0.685 -1.6,0.685 C 5.214,12.164 4.64,11.89 4.284,11.341 3.928,10.792 3.75,9.969 3.75,8.871 V 0.427 c 0,-2.053 0.752,-3.079 2.256,-3.079 0.671,0 1.205,0.233 1.6,0.701 0.397,0.468 0.595,1.158 0.595,2.073 v 0.549 h 3.72 v -0.58 c 0,-2.032 -0.565,-3.562 -1.692,-4.588 -1.128,-1.026 -2.577,-1.539 -4.344,-1.539 -1.81,0 -3.242,0.513 -4.299,1.539 C 0.528,-3.471 0,-1.972 0,0"
             style="fill:#1d1d1b;fill-opacity:1;fill-rule:nonzero;stroke:none"
             id="path58" /></g><g
           id="g60"
           transform="translate(160.418,37.7267)"><path
             d="M 0,0 V -4.756 H -3.72 V 16.28 H 0 V 6.372 l 4.481,9.908 h 3.75 L 3.841,7.622 8.902,-4.756 H 4.908 L 1.707,3.385 Z"
             style="fill:#1d1d1b;fill-opacity:1;fill-rule:nonzero;stroke:none"
             id="path62" /></g><g
           id="g64"
           transform="translate(177.7657,48.9464)"><path
             d="m 0,0 -1.769,-8.536 h 3.538 z m -2.47,-11.89 -0.853,-4.086 H -7.226 L -1.829,5.061 H 1.829 L 7.195,-15.976 H 3.293 l -0.854,4.086 z"
             style="fill:#1d1d1b;fill-opacity:1;fill-rule:nonzero;stroke:none"
             id="path66" /></g><g
           id="g68"
           transform="translate(187.2178,38.7638)"><path
             d="m 0,0 v 9.481 c 0,1.992 0.56,3.501 1.677,4.528 1.118,1.026 2.592,1.539 4.421,1.539 1.748,0 3.16,-0.498 4.238,-1.493 1.078,-0.996 1.615,-2.47 1.615,-4.421 V 8.993 h -3.75 v 0.641 c 0,0.812 -0.203,1.437 -0.609,1.875 C 7.186,11.945 6.656,12.164 6.006,12.164 5.215,12.164 4.64,11.89 4.284,11.341 3.928,10.792 3.75,9.969 3.75,8.871 V 0.427 c 0,-2.053 0.752,-3.079 2.256,-3.079 0.732,0 1.281,0.249 1.646,0.747 0.368,0.498 0.549,1.214 0.549,2.149 V 2.47 H 5.977 v 2.957 h 5.974 V 0 c 0,-1.951 -0.562,-3.445 -1.691,-4.481 -1.129,-1.038 -2.586,-1.555 -4.375,-1.555 -1.81,0 -3.242,0.513 -4.299,1.539 C 0.528,-3.471 0,-1.972 0,0"
             style="fill:#1d1d1b;fill-opacity:1;fill-rule:nonzero;stroke:none"
             id="path70" /></g><path
           d="m 206.366,32.971 h -3.721 v 21.036 h 3.721 z"
           style="fill:#1d1d1b;fill-opacity:1;fill-rule:nonzero;stroke:none"
           id="path72" /><g
           id="g74"
           transform="translate(221.8526,32.9709)"><path
             d="M 0,0 H -3.75 L -8.141,11.22 V 0 h -3.75 v 21.036 h 3.75 L -3.75,9.329 V 21.036 H 0 Z"
             style="fill:#1d1d1b;fill-opacity:1;fill-rule:nonzero;stroke:none"
             id="path76" /></g><g
           id="g78"
           transform="translate(225.2081,38.7638)"><path
             d="m 0,0 v 9.481 c 0,1.992 0.559,3.501 1.676,4.528 1.119,1.026 2.592,1.539 4.422,1.539 1.748,0 3.16,-0.498 4.236,-1.493 1.078,-0.996 1.617,-2.47 1.617,-4.421 V 8.993 h -3.75 v 0.641 c 0,0.812 -0.203,1.437 -0.609,1.875 -0.406,0.436 -0.936,0.655 -1.586,0.655 -0.793,0 -1.367,-0.274 -1.723,-0.823 C 3.928,10.792 3.75,9.969 3.75,8.871 V 0.427 c 0,-2.053 0.752,-3.079 2.256,-3.079 0.732,0 1.281,0.249 1.646,0.747 0.366,0.498 0.549,1.214 0.549,2.149 V 2.47 H 5.975 v 2.957 h 5.976 V 0 c 0,-1.951 -0.564,-3.445 -1.693,-4.481 -1.127,-1.038 -2.586,-1.555 -4.373,-1.555 -1.811,0 -3.242,0.513 -4.299,1.539 C 0.527,-3.471 0,-1.972 0,0"
             style="fill:#1d1d1b;fill-opacity:1;fill-rule:nonzero;stroke:none"
             id="path80" /></g></g></g><path
       d="M 153.037,132.997 H 85.725 v 123.856 h 67.312 z"
       style="fill:#ffffff;fill-opacity:1;fill-rule:nonzero;stroke:none"
       id="path82" /><g
       id="g84"
       transform="translate(166.7452,289.3883)"><path
         d="m 0,0 h -67.377 l -13.772,-29.535 h 67.377 z"
         style="fill:#ffffff;fill-opacity:1;fill-rule:nonzero;stroke:none"
         id="path86" /></g><g
       id="g88"
       transform="translate(156.1602,132.9972)"><path
         d="m 0,0 -0.123,123.856 29.658,24.989 V 25.45 Z"
         style="fill:#ffffff;fill-opacity:1;fill-rule:nonzero;stroke:none"
         id="path90" /></g><path
       d="M 166.745,292.388 H 99.184 v 15.693 h 67.561 z"
       style="fill:#ffffff;fill-opacity:1;fill-rule:nonzero;stroke:none"
       id="path92" /><g
       id="g94"
       transform="translate(169.7354,289.3883)"><path
         d="M 0,0 15.96,-4.921 -13.698,-29.535 Z"
         style="fill:#ffffff;fill-opacity:1;fill-rule:nonzero;stroke:none"
         id="path96" /></g></g></svg>
