<?xml version="1.0" encoding="utf-8"?>
<!-- Generator: Adobe Illustrator 25.4.1, SVG Export Plug-In . SVG Version: 6.00 Build 0)  -->
<svg version="1.1" xmlns="http://www.w3.org/2000/svg" xmlns:xlink="http://www.w3.org/1999/xlink" x="0px" y="0px"
	 viewBox="0 0 271.29 356.19" style="enable-background:new 0 0 271.29 356.19;" xml:space="preserve">
<style type="text/css">
	.st0{fill:#E40521;}
	.st1{fill:#FFFFFF;}
</style>
<g id="bakgrund">
	<g>
		<rect x="1" y="1" class="st0" width="269.29" height="269.29"/>
		<path class="st0" d="M271.29,271.29H0V0h271.29V271.29z M2,269.29h267.29V2H2V269.29z"/>
	</g>
	<rect x="1" y="270.15" class="st1" width="269.29" height="85.04"/>
	<path class="st0" d="M271.29,356.19H0v-87.04h271.29V356.19z M2,354.19h267.29v-83.04H2V354.19z"/>
</g>
<g id="namn">
	<g>
		<path d="M42.23,308.81c0,2.24-0.45,3.9-1.36,5s-2.37,1.65-4.41,1.65h-1.95v7.77h-3.72v-21.04h5.67c2.07,0,3.55,0.55,4.44,1.65
			C41.78,304.94,42.23,306.59,42.23,308.81z M38.48,308.81c0-1.12-0.16-1.94-0.47-2.47c-0.31-0.53-0.87-0.79-1.66-0.79h-1.83v6.52
			h1.83c0.79,0,1.35-0.26,1.66-0.79C38.32,310.75,38.48,309.93,38.48,308.81z"/>
		<path d="M56.4,323.23h-3.75v-9.02h-3.96v9.02h-3.75v-21.04h3.75v8.66h3.96v-8.66h3.75V323.23z"/>
		<path d="M63.54,319.14l-0.85,4.08h-3.9l5.4-21.04h3.66l5.37,21.04h-3.9l-0.85-4.08H63.54z M66.01,307.25l-1.77,8.54h3.54
			L66.01,307.25z"/>
		<path d="M79.33,314.78v8.44h-3.75v-21.04h5.73c2.07,0,3.54,0.5,4.41,1.49c0.86,1,1.3,2.59,1.3,4.79c0,1.4-0.19,2.57-0.58,3.51
			c-0.39,0.93-1.02,1.64-1.89,2.1l3.14,9.15h-3.9l-2.65-8.44H79.33z M81.28,311.43c0.75,0,1.27-0.25,1.55-0.75
			c0.29-0.5,0.43-1.23,0.43-2.21c0-0.97-0.14-1.71-0.41-2.19s-0.8-0.73-1.57-0.73h-1.95v5.88H81.28z"/>
		<path d="M105.37,323.23h-3.75v-12.32l-2.68,8.23h-2.01L94.27,311v12.22h-3.75v-21.04h3.75l3.66,11.1l3.69-11.1h3.75V323.23z"/>
		<path d="M112.5,319.14l-0.85,4.08h-3.9l5.4-21.04h3.66l5.37,21.04h-3.9l-0.85-4.08H112.5z M114.97,307.25l-1.77,8.54h3.54
			L114.97,307.25z"/>
		<path d="M124.43,317.44v-9.48c0-1.99,0.56-3.5,1.68-4.53c1.12-1.03,2.59-1.54,4.42-1.54c1.75,0,3.16,0.51,4.24,1.52
			c1.08,1.02,1.62,2.56,1.62,4.63v0.64h-3.75v-0.61c0-0.96-0.2-1.66-0.59-2.12c-0.4-0.46-0.93-0.69-1.6-0.69
			c-0.79,0-1.37,0.28-1.72,0.82c-0.36,0.55-0.53,1.37-0.53,2.47v8.45c0,2.05,0.75,3.08,2.26,3.08c0.67,0,1.21-0.23,1.6-0.7
			c0.4-0.47,0.59-1.16,0.59-2.07v-0.55h3.72v0.58c0,2.03-0.56,3.56-1.69,4.59c-1.13,1.03-2.58,1.54-4.34,1.54
			c-1.81,0-3.24-0.51-4.3-1.54C124.95,320.91,124.43,319.41,124.43,317.44z"/>
		<path d="M143.45,310.85h4.88v3.35h-4.88v5.67h5.67v3.35h-9.39v-21.04h9.39v3.38h-5.67V310.85z"/>
		<path d="M152.83,320.73c-0.5-0.87-0.75-1.88-0.75-3.02v-15.52h3.75v15.43c0,0.85,0.16,1.48,0.49,1.88s0.82,0.59,1.49,0.59
			c1.32,0,1.98-0.82,1.98-2.47v-15.43h3.75v15.52c0,1.14-0.24,2.14-0.73,3.02c-0.49,0.88-1.17,1.55-2.04,2.03
			c-0.87,0.48-1.86,0.72-2.96,0.72s-2.08-0.24-2.94-0.72C154.01,322.28,153.33,321.6,152.83,320.73z"/>
		<path d="M173.24,305.58v17.65h-3.72v-17.65h-3.66v-3.38h11.01v3.38H173.24z"/>
		<path d="M183.03,302.19v21.04h-3.72v-21.04H183.03z"/>
		<path d="M186.5,317.44v-9.48c0-1.99,0.56-3.5,1.68-4.53c1.12-1.03,2.59-1.54,4.42-1.54c1.75,0,3.16,0.51,4.24,1.52
			c1.08,1.02,1.62,2.56,1.62,4.63v0.64h-3.75v-0.61c0-0.96-0.2-1.66-0.59-2.12c-0.4-0.46-0.93-0.69-1.6-0.69
			c-0.79,0-1.37,0.28-1.72,0.82c-0.36,0.55-0.53,1.37-0.53,2.47v8.45c0,2.05,0.75,3.08,2.26,3.08c0.67,0,1.21-0.23,1.6-0.7
			c0.4-0.47,0.59-1.16,0.59-2.07v-0.55h3.72v0.58c0,2.03-0.56,3.56-1.69,4.59c-1.13,1.03-2.58,1.54-4.34,1.54
			c-1.81,0-3.24-0.51-4.3-1.54C187.03,320.91,186.5,319.41,186.5,317.44z"/>
		<path d="M205.47,319.14l-0.85,4.08h-3.9l5.4-21.04h3.66l5.37,21.04h-3.9l-0.85-4.08H205.47z M207.94,307.25l-1.77,8.54h3.54
			L207.94,307.25z"/>
		<path d="M221.26,302.19v17.68h5.64v3.35h-9.39v-21.04H221.26z"/>
		<path d="M228.91,317.22h3.54c0.04,1.04,0.25,1.8,0.62,2.29c0.38,0.49,0.93,0.73,1.66,0.73s1.27-0.22,1.6-0.67s0.5-1.16,0.5-2.13
			c0-0.81-0.19-1.46-0.56-1.94c-0.38-0.48-1.01-0.92-1.91-1.33l-1.43-0.64c-1.36-0.61-2.34-1.36-2.94-2.26
			c-0.6-0.89-0.9-2.09-0.9-3.6c0-1.77,0.51-3.18,1.54-4.24s2.41-1.59,4.16-1.59c1.73,0,3.06,0.52,4.01,1.57
			c0.94,1.05,1.45,2.56,1.51,4.53h-3.45c-0.02-0.96-0.19-1.67-0.5-2.15c-0.31-0.48-0.84-0.72-1.57-0.72c-1.36,0-2.04,0.8-2.04,2.41
			c0,0.73,0.17,1.32,0.5,1.75c0.33,0.44,0.9,0.83,1.69,1.17l1.37,0.61c1.46,0.65,2.53,1.46,3.19,2.44c0.66,0.98,0.99,2.28,0.99,3.9
			c0,1.95-0.51,3.46-1.52,4.51c-1.02,1.06-2.46,1.58-4.33,1.58c-1.85,0-3.26-0.54-4.24-1.62
			C229.43,320.78,228.93,319.24,228.91,317.22z"/>
	</g>
</g>
<g id="ikon">
	<g>
		<g>
			<rect x="103.79" y="61.68" class="st1" width="63.72" height="15.17"/>
		</g>
		<path class="st1" d="M163.56,80.65h-55.83c-0.02,15.57-11.91,9.3-11.91,35.18v52.56v0.01v32.98c0,4.55,3.64,8.24,8.14,8.24h63.37
			c4.5,0,8.14-3.69,8.14-8.24v-85.54C175.47,89.95,163.58,96.22,163.56,80.65z M158.4,156.51h-15.17v15.17h-15.17v-15.17h-15.17
			v-15.17h15.17v-15.17h15.17v15.17h15.17V156.51z"/>
	</g>
</g>
</svg>
