<?xml version="1.0" encoding="UTF-8" standalone="no"?>
<svg
   xmlns:dc="http://purl.org/dc/elements/1.1/"
   xmlns:cc="http://creativecommons.org/ns#"
   xmlns:rdf="http://www.w3.org/1999/02/22-rdf-syntax-ns#"
   xmlns:svg="http://www.w3.org/2000/svg"
   xmlns="http://www.w3.org/2000/svg"
   xmlns:sodipodi="http://sodipodi.sourceforge.net/DTD/sodipodi-0.dtd"
   xmlns:inkscape="http://www.inkscape.org/namespaces/inkscape"
   version="1.1"
   id="svg2"
   xml:space="preserve"
   width="361.72134"
   height="474.91333"
   viewBox="0 0 361.72134 474.91333"
   sodipodi:docname="plastic-packaging.ai"><metadata
     id="metadata8"><rdf:RDF><cc:Work
         rdf:about=""><dc:format>image/svg+xml</dc:format><dc:type
           rdf:resource="http://purl.org/dc/dcmitype/StillImage" /></cc:Work></rdf:RDF></metadata><defs
     id="defs6"><clipPath
       clipPathUnits="userSpaceOnUse"
       id="clipPath26"><path
         d="M 0,356.185 H 271.291 V 0 H 0 Z"
         id="path24" /></clipPath><clipPath
       clipPathUnits="userSpaceOnUse"
       id="clipPath94"><path
         d="M 0,356.185 H 271.291 V 0 H 0 Z"
         id="path92" /></clipPath></defs><sodipodi:namedview
     pagecolor="#ffffff"
     bordercolor="#666666"
     borderopacity="1"
     objecttolerance="10"
     gridtolerance="10"
     guidetolerance="10"
     inkscape:pageopacity="0"
     inkscape:pageshadow="2"
     inkscape:window-width="640"
     inkscape:window-height="480"
     id="namedview4" /><g
     id="g10"
     inkscape:groupmode="layer"
     inkscape:label="plastic-packaging"
     transform="matrix(1.3333333,0,0,-1.3333333,0,474.91333)"><path
       d="M 1,85.894 H 270.291 V 355.185 H 1 Z"
       style="fill:#952a86;fill-opacity:1;fill-rule:nonzero;stroke:none"
       id="path12" /><path
       d="M 0,84.893 H 271.291 V 356.185 L 0,356.185 Z M 2,354.185 H 269.291 V 86.894 H 2 Z"
       style="fill:#952a86;fill-opacity:1;fill-rule:nonzero;stroke:none"
       id="path14" /><path
       d="M 1,1 H 270.291 V 86.039 H 1 Z"
       style="fill:#ffffff;fill-opacity:1;fill-rule:nonzero;stroke:none"
       id="path16" /><path
       d="M 0,0 H 271.291 V 87.039 H 0 Z M 2,85.039 H 269.291 V 2 H 2 Z"
       style="fill:#952a86;fill-opacity:1;fill-rule:nonzero;stroke:none"
       id="path18" /><g
       id="g20"><g
         id="g22"
         clip-path="url(#clipPath26)"><g
           id="g28"
           transform="translate(32.1348,47.3761)"><path
             d="m 0,0 c 0,1.117 -0.157,1.94 -0.473,2.469 -0.314,0.529 -0.868,0.793 -1.661,0.793 h -1.829 v -6.525 h 1.829 c 0.793,0 1.347,0.265 1.661,0.792 C -0.157,-1.941 0,-1.118 0,0 M 3.75,0 C 3.75,-2.236 3.298,-3.902 2.394,-5 1.489,-6.098 0.021,-6.646 -2.012,-6.646 h -1.951 v -7.775 h -3.72 V 6.615 h 5.671 C 0.062,6.615 1.54,6.066 2.424,4.969 3.309,3.871 3.75,2.215 3.75,0"
             style="fill:#1d1d1b;fill-opacity:1;fill-rule:nonzero;stroke:none"
             id="path30" /></g><g
           id="g32"
           transform="translate(42.3497,53.9914)"><path
             d="m 0,0 v -17.683 h 5.641 v -3.353 H -3.75 V 0 Z"
             style="fill:#1d1d1b;fill-opacity:1;fill-rule:nonzero;stroke:none"
             id="path34" /></g><g
           id="g36"
           transform="translate(56.8311,48.9308)"><path
             d="m 0,0 -1.769,-8.537 h 3.538 z m -2.47,-11.891 -0.853,-4.085 H -7.226 L -1.829,5.061 H 1.829 L 7.195,-15.976 H 3.293 l -0.854,4.085 z"
             style="fill:#1d1d1b;fill-opacity:1;fill-rule:nonzero;stroke:none"
             id="path38" /></g><g
           id="g40"
           transform="translate(65.7041,38.9611)"><path
             d="m 0,0 h 3.537 c 0.04,-1.036 0.248,-1.799 0.625,-2.286 0.376,-0.488 0.93,-0.733 1.661,-0.733 0.732,0 1.266,0.225 1.601,0.672 0.335,0.447 0.503,1.159 0.503,2.133 C 7.927,0.6 7.739,1.245 7.362,1.723 6.986,2.2 6.352,2.642 5.457,3.049 L 4.024,3.688 C 2.663,4.299 1.682,5.051 1.082,5.944 0.482,6.839 0.183,8.038 0.183,9.542 c 0,1.77 0.513,3.182 1.54,4.238 1.026,1.057 2.414,1.586 4.161,1.586 1.727,0 3.064,-0.523 4.01,-1.57 0.944,-1.047 1.448,-2.557 1.508,-4.527 H 7.957 C 7.937,10.224 7.77,10.94 7.454,11.417 7.14,11.896 6.616,12.134 5.884,12.134 4.522,12.134 3.842,11.331 3.842,9.726 3.842,8.993 4.009,8.409 4.345,7.973 4.68,7.536 5.244,7.144 6.036,6.799 L 7.408,6.188 c 1.464,-0.65 2.526,-1.462 3.187,-2.438 0.66,-0.976 0.99,-2.276 0.99,-3.902 0,-1.952 -0.508,-3.455 -1.524,-4.513 -1.016,-1.057 -2.459,-1.584 -4.33,-1.584 -1.849,0 -3.261,0.538 -4.237,1.615 C 0.519,-3.557 0.021,-2.013 0,0"
             style="fill:#1d1d1b;fill-opacity:1;fill-rule:nonzero;stroke:none"
             id="path42" /></g><g
           id="g44"
           transform="translate(86.5284,50.6066)"><path
             d="M 0,0 V -17.651 H -3.72 V 0 H -7.378 V 3.385 H 3.628 V 0 Z"
             style="fill:#1d1d1b;fill-opacity:1;fill-rule:nonzero;stroke:none"
             id="path46" /></g><path
           d="m 96.315,32.955 h -3.72 v 21.036 h 3.72 z"
           style="fill:#1d1d1b;fill-opacity:1;fill-rule:nonzero;stroke:none"
           id="path48" /><g
           id="g50"
           transform="translate(99.7901,38.7472)"><path
             d="m 0,0 v 9.482 c 0,1.992 0.56,3.5 1.677,4.528 1.118,1.025 2.592,1.539 4.421,1.539 1.748,0 3.16,-0.508 4.237,-1.525 1.078,-1.016 1.616,-2.56 1.616,-4.633 V 8.75 h -3.75 v 0.609 c 0,0.956 -0.198,1.662 -0.595,2.12 -0.395,0.457 -0.929,0.686 -1.6,0.686 -0.792,0 -1.366,-0.274 -1.722,-0.823 C 3.928,10.793 3.75,9.97 3.75,8.872 V 0.428 c 0,-2.053 0.752,-3.08 2.256,-3.08 0.671,0 1.205,0.234 1.6,0.701 0.397,0.469 0.595,1.159 0.595,2.074 v 0.549 h 3.72 v -0.58 c 0,-2.032 -0.565,-3.562 -1.692,-4.588 -1.128,-1.026 -2.577,-1.539 -4.344,-1.539 -1.81,0 -3.242,0.513 -4.299,1.539 C 0.528,-3.47 0,-1.971 0,0"
             style="fill:#1d1d1b;fill-opacity:1;fill-rule:nonzero;stroke:none"
             id="path52" /></g><g
           id="g54"
           transform="translate(129.0284,47.3761)"><path
             d="m 0,0 c 0,1.117 -0.157,1.94 -0.473,2.469 -0.314,0.529 -0.868,0.793 -1.661,0.793 h -1.829 v -6.525 h 1.829 c 0.793,0 1.347,0.265 1.661,0.792 C -0.157,-1.941 0,-1.118 0,0 M 3.75,0 C 3.75,-2.236 3.298,-3.902 2.394,-5 1.489,-6.098 0.021,-6.646 -2.012,-6.646 h -1.951 v -7.775 h -3.72 V 6.615 h 5.671 C 0.062,6.615 1.54,6.066 2.424,4.969 3.309,3.871 3.75,2.215 3.75,0"
             style="fill:#1d1d1b;fill-opacity:1;fill-rule:nonzero;stroke:none"
             id="path56" /></g><g
           id="g58"
           transform="translate(141.6211,48.9308)"><path
             d="m 0,0 -1.769,-8.537 h 3.538 z m -2.47,-11.891 -0.853,-4.085 H -7.226 L -1.829,5.061 H 1.829 L 7.195,-15.976 H 3.293 l -0.854,4.085 z"
             style="fill:#1d1d1b;fill-opacity:1;fill-rule:nonzero;stroke:none"
             id="path60" /></g><g
           id="g62"
           transform="translate(151.0733,38.7472)"><path
             d="m 0,0 v 9.482 c 0,1.992 0.56,3.5 1.677,4.528 1.118,1.025 2.592,1.539 4.421,1.539 1.748,0 3.16,-0.508 4.237,-1.525 1.078,-1.016 1.616,-2.56 1.616,-4.633 V 8.75 h -3.75 v 0.609 c 0,0.956 -0.198,1.662 -0.595,2.12 -0.395,0.457 -0.929,0.686 -1.6,0.686 -0.792,0 -1.366,-0.274 -1.722,-0.823 C 3.928,10.793 3.75,9.97 3.75,8.872 V 0.428 c 0,-2.053 0.752,-3.08 2.256,-3.08 0.671,0 1.205,0.234 1.6,0.701 0.397,0.469 0.595,1.159 0.595,2.074 v 0.549 h 3.72 v -0.58 c 0,-2.032 -0.565,-3.562 -1.692,-4.588 -1.128,-1.026 -2.577,-1.539 -4.344,-1.539 -1.81,0 -3.242,0.513 -4.299,1.539 C 0.528,-3.47 0,-1.971 0,0"
             style="fill:#1d1d1b;fill-opacity:1;fill-rule:nonzero;stroke:none"
             id="path64" /></g><g
           id="g66"
           transform="translate(170.0977,37.7111)"><path
             d="M 0,0 V -4.756 H -3.72 V 16.28 H 0 V 6.372 l 4.481,9.908 h 3.75 L 3.841,7.622 8.902,-4.756 H 4.908 l -3.201,8.14 z"
             style="fill:#1d1d1b;fill-opacity:1;fill-rule:nonzero;stroke:none"
             id="path68" /></g><g
           id="g70"
           transform="translate(187.4463,48.9308)"><path
             d="m 0,0 -1.769,-8.537 h 3.538 z m -2.47,-11.891 -0.853,-4.085 H -7.226 L -1.829,5.061 H 1.829 L 7.195,-15.976 H 3.293 l -0.854,4.085 z"
             style="fill:#1d1d1b;fill-opacity:1;fill-rule:nonzero;stroke:none"
             id="path72" /></g><g
           id="g74"
           transform="translate(196.8975,38.7472)"><path
             d="m 0,0 v 9.482 c 0,1.992 0.56,3.5 1.677,4.528 1.118,1.025 2.592,1.539 4.421,1.539 1.748,0 3.16,-0.498 4.237,-1.494 1.078,-0.996 1.616,-2.469 1.616,-4.42 V 8.994 h -3.75 v 0.641 c 0,0.812 -0.203,1.437 -0.609,1.875 -0.406,0.436 -0.936,0.655 -1.586,0.655 -0.792,0 -1.366,-0.274 -1.722,-0.823 C 3.928,10.793 3.75,9.97 3.75,8.872 V 0.428 c 0,-2.053 0.752,-3.08 2.256,-3.08 0.732,0 1.281,0.25 1.646,0.748 0.367,0.498 0.549,1.214 0.549,2.148 V 2.471 H 5.976 v 2.957 h 5.975 V 0 c 0,-1.951 -0.563,-3.444 -1.692,-4.48 -1.128,-1.038 -2.586,-1.555 -4.374,-1.555 -1.81,0 -3.242,0.513 -4.299,1.539 C 0.528,-3.47 0,-1.971 0,0"
             style="fill:#1d1d1b;fill-opacity:1;fill-rule:nonzero;stroke:none"
             id="path76" /></g><path
           d="m 216.045,32.955 h -3.72 v 21.036 h 3.72 z"
           style="fill:#1d1d1b;fill-opacity:1;fill-rule:nonzero;stroke:none"
           id="path78" /><g
           id="g80"
           transform="translate(231.5323,32.9552)"><path
             d="M 0,0 H -3.749 L -8.14,11.22 V 0 h -3.75 v 21.036 h 3.75 L -3.749,9.329 V 21.036 H 0 Z"
             style="fill:#1d1d1b;fill-opacity:1;fill-rule:nonzero;stroke:none"
             id="path82" /></g><g
           id="g84"
           transform="translate(234.8877,38.7472)"><path
             d="m 0,0 v 9.482 c 0,1.992 0.56,3.5 1.677,4.528 1.118,1.025 2.592,1.539 4.421,1.539 1.748,0 3.16,-0.498 4.237,-1.494 1.078,-0.996 1.616,-2.469 1.616,-4.42 V 8.994 h -3.75 v 0.641 c 0,0.812 -0.203,1.437 -0.609,1.875 -0.406,0.436 -0.936,0.655 -1.586,0.655 -0.792,0 -1.366,-0.274 -1.722,-0.823 C 3.928,10.793 3.75,9.97 3.75,8.872 V 0.428 c 0,-2.053 0.752,-3.08 2.256,-3.08 0.732,0 1.281,0.25 1.646,0.748 0.367,0.498 0.549,1.214 0.549,2.148 V 2.471 H 5.976 v 2.957 h 5.975 V 0 c 0,-1.951 -0.563,-3.444 -1.692,-4.48 -1.128,-1.038 -2.586,-1.555 -4.374,-1.555 -1.81,0 -3.242,0.513 -4.299,1.539 C 0.528,-3.47 0,-1.971 0,0"
             style="fill:#1d1d1b;fill-opacity:1;fill-rule:nonzero;stroke:none"
             id="path86" /></g></g></g><g
       id="g88"><g
         id="g90"
         clip-path="url(#clipPath94)"><g
           id="g96"
           transform="translate(166.251,193.7116)"><path
             d="m 0,0 c 0,-3.271 -2.677,-5.948 -5.948,-5.948 h -0.049 c -3.272,0 -5.948,2.677 -5.948,5.948 v 39.296 c 0,3.271 2.676,5.948 5.948,5.948 h 0.049 C -2.677,45.244 0,42.567 0,39.296 Z m 4.201,62.033 -26.98,24.489 v 34.082 l -25.596,0.075 V 86.528 L -67.446,60.641 c -6.023,-7.802 -5.811,-16.439 -5.811,-20.602 0,-0.247 -0.008,-0.467 -0.008,-0.72 v -98.85 c 0,-4.137 3.557,-7.492 7.945,-7.492 H 4.104 c 4.388,0 7.945,3.355 7.945,7.492 V 39.56 c 0,0.309 0.005,0.599 0.005,0.914 0,5.129 -0.528,14.722 -7.853,21.559"
             style="fill:#ffffff;fill-opacity:1;fill-rule:nonzero;stroke:none"
             id="path98" /></g></g></g></g></svg>
