<?xml version="1.0" encoding="utf-8"?>
<!-- Generator: Adobe Illustrator 25.4.1, SVG Export Plug-In . SVG Version: 6.00 Build 0)  -->
<svg version="1.1" xmlns="http://www.w3.org/2000/svg" xmlns:xlink="http://www.w3.org/1999/xlink" x="0px" y="0px"
	 viewBox="0 0 271.29 356.19" style="enable-background:new 0 0 271.29 356.19;" xml:space="preserve">
<style type="text/css">
	.st0{fill:#004778;}
	.st1{fill:#FFFFFF;}
</style>
<g id="bakgrund">
	<g>
		<rect x="1" y="1" class="st0" width="269.29" height="269.29"/>
		<path class="st0" d="M271.29,271.29H0V0h271.29V271.29z M2,269.29h267.29V2H2V269.29z"/>
	</g>
	<rect x="1" y="270.15" class="st1" width="269.29" height="85.04"/>
	<path class="st0" d="M271.29,356.19H0v-87.04h271.29V356.19z M2,354.19h267.29v-83.04H2V354.19z"/>
</g>
<g id="namn">
	<g>
		<path d="M105.42,308.57c0,2.24-0.45,3.9-1.36,5s-2.37,1.65-4.41,1.65h-1.95v7.77h-3.72v-21.04h5.67c2.07,0,3.55,0.55,4.44,1.65
			C104.98,304.7,105.42,306.35,105.42,308.57z M101.67,308.57c0-1.12-0.16-1.94-0.47-2.47c-0.31-0.53-0.87-0.79-1.66-0.79h-1.83
			v6.52h1.83c0.79,0,1.35-0.26,1.66-0.79C101.52,310.51,101.67,309.69,101.67,308.57z"/>
		<path d="M111.89,301.95v17.68h5.64v3.35h-9.39v-21.04H111.89z"/>
		<path d="M123.9,318.9l-0.85,4.08h-3.9l5.4-21.04h3.66l5.37,21.04h-3.9l-0.85-4.08H123.9z M126.37,307.01l-1.77,8.54h3.54
			L126.37,307.01z"/>
		<path d="M135.24,316.98h3.54c0.04,1.04,0.25,1.8,0.62,2.29c0.38,0.49,0.93,0.73,1.66,0.73s1.27-0.22,1.6-0.67s0.5-1.16,0.5-2.13
			c0-0.81-0.19-1.46-0.56-1.94c-0.38-0.48-1.01-0.92-1.91-1.33l-1.43-0.64c-1.36-0.61-2.34-1.36-2.94-2.26
			c-0.6-0.89-0.9-2.09-0.9-3.6c0-1.77,0.51-3.18,1.54-4.24c1.03-1.06,2.41-1.58,4.16-1.58c1.73,0,3.06,0.52,4.01,1.57
			c0.94,1.05,1.45,2.56,1.51,4.53h-3.45c-0.02-0.96-0.19-1.67-0.5-2.15c-0.31-0.48-0.84-0.72-1.57-0.72c-1.36,0-2.04,0.8-2.04,2.41
			c0,0.73,0.17,1.32,0.5,1.75c0.33,0.44,0.9,0.83,1.69,1.17l1.37,0.61c1.46,0.65,2.53,1.46,3.19,2.44c0.66,0.98,0.99,2.28,0.99,3.9
			c0,1.95-0.51,3.46-1.52,4.51c-1.02,1.06-2.46,1.58-4.33,1.58c-1.85,0-3.26-0.54-4.24-1.62S135.26,319,135.24,316.98z"/>
		<path d="M156.07,305.34v17.65h-3.72v-17.65h-3.66v-3.38h11.01v3.38H156.07z"/>
		<path d="M165.73,310.61h4.88v3.35h-4.88v5.67h5.67v3.35h-9.39v-21.04h9.39v3.38h-5.67V310.61z"/>
		<path d="M178.11,314.54v8.44h-3.75v-21.04h5.73c2.07,0,3.54,0.5,4.41,1.49c0.86,1,1.3,2.59,1.3,4.79c0,1.4-0.19,2.57-0.58,3.51
			c-0.39,0.93-1.02,1.64-1.89,2.1l3.14,9.15h-3.9l-2.65-8.44H178.11z M180.06,311.19c0.75,0,1.27-0.25,1.55-0.75
			c0.29-0.5,0.43-1.24,0.43-2.21s-0.14-1.71-0.41-2.19c-0.27-0.49-0.8-0.73-1.57-0.73h-1.95v5.88H180.06z"/>
	</g>
</g>
<g id="ikon">
	<g>
		<polygon class="st1" points="173.38,145.27 173.39,154.49 237.72,96.98 237.72,87.73 		"/>
		<polygon class="st1" points="134.08,84.62 33.72,174.35 102.01,174.35 115.1,162.61 132.11,162.61 141.56,149.84 171.42,142.89 
			236.58,84.62 		"/>
		<polygon class="st1" points="133.67,165.69 116.37,165.69 105.14,175.68 105.16,185.15 116.49,174.97 133.73,174.97 143.4,161.76 
			170.32,155.56 170.32,146.32 143.36,152.58 		"/>
		<polygon class="st1" points="33.57,177.43 33.57,186.67 102.08,186.67 102.06,177.43 		"/>
	</g>
</g>
</svg>
