<?xml version="1.0" encoding="utf-8"?>
<!-- Generator: Adobe Illustrator 25.4.1, SVG Export Plug-In . SVG Version: 6.00 Build 0)  -->
<svg version="1.1" xmlns="http://www.w3.org/2000/svg" xmlns:xlink="http://www.w3.org/1999/xlink" x="0px" y="0px"
	 viewBox="0 0 271.29 356.19" style="enable-background:new 0 0 271.29 356.19;" xml:space="preserve">
<style type="text/css">
	.st0{fill:#F18700;}
	.st1{fill:#FFFFFF;}
</style>
<g id="bakgrund">
	<g>
		<rect x="1" y="1" class="st0" width="269.29" height="269.29"/>
		<path class="st0" d="M271.29,271.29H0V0h271.29V271.29z M2,269.29h267.29V2H2V269.29z"/>
	</g>
	<rect x="1" y="270.15" class="st1" width="269.29" height="85.04"/>
	<path class="st0" d="M271.29,356.19H0v-87.04h271.29V356.19z M2,354.19h267.29v-83.04H2V354.19z"/>
</g>
<g id="namn">
	<g>
		<path d="M56.02,297.68v8.44h-3.75v-21.04H58c2.07,0,3.54,0.5,4.41,1.49c0.86,1,1.3,2.59,1.3,4.79c0,1.4-0.19,2.57-0.58,3.51
			c-0.39,0.93-1.02,1.64-1.89,2.1l3.14,9.15h-3.9l-2.65-8.44H56.02z M57.97,294.33c0.75,0,1.27-0.25,1.55-0.75
			c0.29-0.5,0.43-1.24,0.43-2.21s-0.14-1.71-0.41-2.19c-0.27-0.49-0.8-0.73-1.57-0.73h-1.95v5.88H57.97z"/>
		<path d="M70.93,293.75h4.88v3.35h-4.88v5.67h5.67v3.35h-9.39v-21.04h9.39v3.38h-5.67V293.75z"/>
		<path d="M83.31,293.84h4.88v3.38h-4.88v8.9h-3.75v-21.04h9.39v3.38h-5.64V293.84z"/>
		<path d="M95.54,297.68v8.44h-3.75v-21.04h5.73c2.07,0,3.54,0.5,4.41,1.49c0.86,1,1.3,2.59,1.3,4.79c0,1.4-0.19,2.57-0.58,3.51
			c-0.39,0.93-1.02,1.64-1.89,2.1l3.14,9.15h-3.9l-2.65-8.44H95.54z M97.49,294.33c0.75,0,1.27-0.25,1.55-0.75
			c0.29-0.5,0.43-1.24,0.43-2.21s-0.14-1.71-0.41-2.19c-0.27-0.49-0.8-0.73-1.57-0.73h-1.95v5.88H97.49z"/>
		<path d="M110.57,285.09v21.04h-3.72v-21.04H110.57z"/>
		<path d="M114.04,300.33v-9.48c0-1.99,0.56-3.5,1.68-4.53c1.12-1.03,2.59-1.54,4.42-1.54c1.75,0,3.16,0.5,4.24,1.49
			c1.08,1,1.62,2.47,1.62,4.42v0.64h-3.75v-0.64c0-0.81-0.2-1.44-0.61-1.88c-0.41-0.44-0.94-0.66-1.59-0.66
			c-0.79,0-1.37,0.27-1.72,0.82c-0.36,0.55-0.53,1.37-0.53,2.47v8.45c0,2.05,0.75,3.08,2.26,3.08c0.73,0,1.28-0.25,1.65-0.75
			c0.37-0.5,0.55-1.21,0.55-2.15v-2.23h-2.23v-2.96H126v5.43c0,1.95-0.56,3.44-1.69,4.48c-1.13,1.04-2.59,1.55-4.37,1.55
			c-1.81,0-3.24-0.51-4.3-1.54C114.57,303.8,114.04,302.31,114.04,300.33z"/>
		<path d="M133.07,293.75h4.88v3.35h-4.88v5.67h5.67v3.35h-9.39v-21.04h9.39v3.38h-5.67V293.75z"/>
		<path d="M145.45,297.68v8.44h-3.75v-21.04h5.73c2.07,0,3.54,0.5,4.41,1.49c0.86,1,1.3,2.59,1.3,4.79c0,1.4-0.19,2.57-0.58,3.51
			c-0.39,0.93-1.02,1.64-1.89,2.1l3.14,9.15h-3.9l-2.65-8.44H145.45z M147.4,294.33c0.75,0,1.27-0.25,1.55-0.75
			c0.29-0.5,0.43-1.24,0.43-2.21s-0.14-1.71-0.41-2.19c-0.27-0.49-0.8-0.73-1.57-0.73h-1.95v5.88H147.4z"/>
		<path d="M160.3,302.04l-0.85,4.08h-3.9l5.4-21.04h3.66l5.37,21.04h-3.9l-0.85-4.08H160.3z M162.77,290.15l-1.77,8.54h3.54
			L162.77,290.15z"/>
		<path d="M178.56,288.47v17.65h-3.72v-17.65h-3.66v-3.38h11.01v3.38H178.56z"/>
		<path d="M188.35,285.09v21.04h-3.72v-21.04H188.35z"/>
		<path d="M191.82,300.33v-9.48c0-1.99,0.56-3.5,1.68-4.53c1.12-1.03,2.59-1.54,4.42-1.54c1.77,0,3.19,0.51,4.25,1.54
			s1.6,2.54,1.6,4.53v9.48c0,1.95-0.56,3.44-1.69,4.48c-1.13,1.04-2.59,1.55-4.37,1.55c-1.81,0-3.24-0.51-4.3-1.54
			C192.35,303.8,191.82,302.31,191.82,300.33z M200.02,299.91v-8.45c0-1.08-0.18-1.9-0.55-2.45c-0.37-0.56-0.91-0.84-1.65-0.84
			c-0.79,0-1.37,0.27-1.72,0.82c-0.36,0.55-0.53,1.37-0.53,2.47v8.45c0,2.05,0.75,3.08,2.26,3.08c0.71,0,1.26-0.27,1.63-0.81
			C199.84,301.64,200.02,300.88,200.02,299.91z"/>
		<path d="M219.02,306.13h-3.75l-4.39-11.22v11.22h-3.75v-21.04h3.75l4.39,11.71v-11.71h3.75V306.13z"/>
		<path d="M79.97,323.75h4.88v3.35h-4.88v5.67h5.67v3.35h-9.39v-21.04h9.39v3.38h-5.67V323.75z"/>
		<path d="M97.69,335.58l1.37,3.81l-3.17,1.16l-1.49-4.18h-0.03c-1.81,0-3.24-0.51-4.3-1.54c-1.06-1.03-1.59-2.52-1.59-4.5v-9.48
			c0-1.99,0.56-3.5,1.68-4.53c1.12-1.03,2.59-1.54,4.42-1.54c1.77,0,3.19,0.51,4.25,1.54s1.6,2.54,1.6,4.53v9.48
			c0,1.26-0.24,2.33-0.73,3.22C99.21,334.43,98.54,335.11,97.69,335.58z M96.12,332.18c0.38-0.54,0.56-1.29,0.56-2.27v-8.45
			c0-1.08-0.18-1.9-0.55-2.45c-0.37-0.56-0.91-0.84-1.65-0.84c-0.79,0-1.37,0.27-1.72,0.82c-0.36,0.55-0.53,1.37-0.53,2.47v8.45
			c0,2.05,0.75,3.08,2.26,3.08C95.2,332.99,95.74,332.72,96.12,332.18z"/>
		<path d="M104.53,333.63c-0.5-0.87-0.75-1.88-0.75-3.02v-15.52h3.75v15.43c0,0.85,0.16,1.48,0.49,1.88s0.82,0.59,1.49,0.59
			c1.32,0,1.98-0.82,1.98-2.47v-15.43h3.75v15.52c0,1.14-0.24,2.14-0.73,3.02c-0.49,0.87-1.17,1.55-2.04,2.03
			c-0.87,0.48-1.86,0.72-2.96,0.72s-2.08-0.24-2.94-0.72C105.71,335.18,105.03,334.5,104.53,333.63z"/>
		<path d="M122.57,315.09v21.04h-3.72v-21.04H122.57z"/>
		<path d="M137.6,321.71c0,2.24-0.45,3.9-1.36,5s-2.37,1.65-4.41,1.65h-1.95v7.77h-3.72v-21.04h5.67c2.07,0,3.55,0.55,4.44,1.65
			C137.16,317.83,137.6,319.49,137.6,321.71z M133.85,321.71c0-1.12-0.16-1.94-0.47-2.47c-0.31-0.53-0.87-0.79-1.66-0.79h-1.83v6.52
			h1.83c0.79,0,1.35-0.26,1.66-0.79C133.69,323.65,133.85,322.82,133.85,321.71z"/>
		<path d="M155.16,336.13h-3.75v-12.32l-2.68,8.23h-2.01l-2.65-8.14v12.22h-3.75v-21.04h3.75l3.66,11.1l3.69-11.1h3.75V336.13z"/>
		<path d="M162.35,323.75h4.88v3.35h-4.88v5.67h5.67v3.35h-9.39v-21.04h9.39v3.38h-5.67V323.75z"/>
		<path d="M182.87,336.13h-3.75l-4.39-11.22v11.22h-3.75v-21.04h3.75l4.39,11.71v-11.71h3.75V336.13z"/>
		<path d="M192.57,318.47v17.65h-3.72v-17.65h-3.66v-3.38h11.01v3.38H192.57z"/>
	</g>
</g>
<g id="ikon">
	<g>
		<path class="st1" d="M189.67,91.65V25.59H81.62v66.06H189.67z M90.53,73.39h30.01v8H90.53V73.39z"/>
		<path class="st1" d="M81.62,95.65V245.7h108.05V95.65H81.62z M120.54,113.54H90.53v-8h30.01V113.54z"/>
	</g>
</g>
</svg>
