<?xml version="1.0" encoding="utf-8"?>
<!-- Generator: Adobe Illustrator 25.4.1, SVG Export Plug-In . SVG Version: 6.00 Build 0)  -->
<svg version="1.1" xmlns="http://www.w3.org/2000/svg" xmlns:xlink="http://www.w3.org/1999/xlink" x="0px" y="0px"
	 viewBox="0 0 271.29 355.96" style="enable-background:new 0 0 271.29 355.96;" xml:space="preserve">
<style type="text/css">
	.st0{fill:#86BD40;}
	.st1{fill:#FFFFFF;}
</style>
<g id="bakgrund_1_">
	<g>
		<rect x="1" y="1" class="st0" width="269.29" height="269.29"/>
		<path class="st0" d="M271.29,271.29H0V0h271.29V271.29z M2,269.29h267.29V2H2V269.29z"/>
	</g>
	<g>
		<rect x="1" y="269.92" class="st1" width="269.29" height="85.04"/>
		<path class="st0" d="M271.29,355.96H0v-87.04h271.29V355.96z M2,353.96h267.29v-83.04H2V353.96z"/>
	</g>
</g>
<g id="namn">
	<g>
		<path d="M100.31,314.28v8.44h-3.75v-21.04h5.73c2.07,0,3.54,0.5,4.41,1.49c0.86,1,1.3,2.59,1.3,4.79c0,1.4-0.19,2.57-0.58,3.51
			c-0.39,0.93-1.02,1.64-1.89,2.1l3.14,9.15h-3.9l-2.65-8.44H100.31z M102.26,310.93c0.75,0,1.27-0.25,1.55-0.75
			c0.29-0.5,0.43-1.24,0.43-2.21s-0.14-1.71-0.41-2.19c-0.27-0.49-0.8-0.73-1.57-0.73h-1.95v5.88H102.26z"/>
		<path d="M115.21,310.35h4.88v3.35h-4.88v5.67h5.67v3.35h-9.39v-21.04h9.39v3.38h-5.67V310.35z"/>
		<path d="M135.28,308.31c0,2.24-0.45,3.9-1.36,5s-2.37,1.65-4.41,1.65h-1.95v7.77h-3.72v-21.04h5.67c2.07,0,3.55,0.55,4.44,1.65
			C134.83,304.44,135.28,306.09,135.28,308.31z M131.53,308.31c0-1.12-0.16-1.94-0.47-2.47c-0.31-0.53-0.87-0.79-1.66-0.79h-1.83
			v6.52h1.83c0.79,0,1.35-0.26,1.66-0.79C131.37,310.25,131.53,309.43,131.53,308.31z"/>
		<path d="M141.65,318.64l-0.85,4.08h-3.9l5.4-21.04h3.66l5.37,21.04h-3.9l-0.85-4.08H141.65z M144.12,306.75l-1.77,8.54h3.54
			L144.12,306.75z"/>
		<path d="M157.53,301.69v21.04h-3.72v-21.04H157.53z"/>
		<path d="M164.88,314.28v8.44h-3.75v-21.04h5.73c2.07,0,3.54,0.5,4.41,1.49c0.86,1,1.3,2.59,1.3,4.79c0,1.4-0.19,2.57-0.58,3.51
			c-0.39,0.93-1.02,1.64-1.89,2.1l3.14,9.15h-3.9l-2.65-8.44H164.88z M166.83,310.93c0.75,0,1.27-0.25,1.55-0.75
			c0.29-0.5,0.43-1.24,0.43-2.21s-0.14-1.71-0.41-2.19c-0.27-0.49-0.8-0.73-1.57-0.73h-1.95v5.88H166.83z"/>
	</g>
</g>
<g id="ikon">
	<path class="st1" d="M184.59,102.93l0.19-25.51l23.24-16.92c-12.12-4.95-26.44-3.7-37.8,4.57c-12.37,9.01-17.9,23.92-15.54,38.05
		c-0.63,0.35-1.24,0.74-1.84,1.17L46.22,181.93c-7.82,5.69-9.56,16.74-3.86,24.56l0,0c5.69,7.82,16.74,9.56,24.56,3.86l106.63-77.63
		c0.59-0.43,1.15-0.9,1.68-1.39c12.72,6.59,28.61,5.91,40.99-3.1c11.36-8.27,16.95-21.52,15.96-34.57l-23.24,16.92L184.59,102.93z
		 M63.43,203.23c-4.36,3.17-10.47,2.21-13.64-2.15c-3.17-4.36-2.21-10.47,2.15-13.64c4.36-3.17,10.47-2.21,13.64,2.15
		S67.79,200.05,63.43,203.23z"/>
</g>
</svg>
