<?xml version="1.0" encoding="UTF-8" standalone="no"?>
<svg
   xmlns:dc="http://purl.org/dc/elements/1.1/"
   xmlns:cc="http://creativecommons.org/ns#"
   xmlns:rdf="http://www.w3.org/1999/02/22-rdf-syntax-ns#"
   xmlns:svg="http://www.w3.org/2000/svg"
   xmlns="http://www.w3.org/2000/svg"
   xmlns:sodipodi="http://sodipodi.sourceforge.net/DTD/sodipodi-0.dtd"
   xmlns:inkscape="http://www.inkscape.org/namespaces/inkscape"
   version="1.1"
   id="svg2"
   xml:space="preserve"
   width="361.72134"
   height="474.91333"
   viewBox="0 0 361.72134 474.91333"
   sodipodi:docname="residual-waste.ai"><metadata
     id="metadata8"><rdf:RDF><cc:Work
         rdf:about=""><dc:format>image/svg+xml</dc:format><dc:type
           rdf:resource="http://purl.org/dc/dcmitype/StillImage" /></cc:Work></rdf:RDF></metadata><defs
     id="defs6"><clipPath
       clipPathUnits="userSpaceOnUse"
       id="clipPath26"><path
         d="M 0,356.185 H 271.291 V 0 H 0 Z"
         id="path24" /></clipPath><clipPath
       clipPathUnits="userSpaceOnUse"
       id="clipPath84"><path
         d="M 0,356.185 H 271.291 V 0 H 0 Z"
         id="path82" /></clipPath></defs><sodipodi:namedview
     pagecolor="#ffffff"
     bordercolor="#666666"
     borderopacity="1"
     objecttolerance="10"
     gridtolerance="10"
     guidetolerance="10"
     inkscape:pageopacity="0"
     inkscape:pageshadow="2"
     inkscape:window-width="640"
     inkscape:window-height="480"
     id="namedview4" /><g
     id="g10"
     inkscape:groupmode="layer"
     inkscape:label="residual-waste"
     transform="matrix(1.3333333,0,0,-1.3333333,0,474.91333)"><path
       d="M 0,85.893 H 269.291 V 355.185 L 0,355.185 Z"
       style="fill:#1d1d1b;fill-opacity:1;fill-rule:nonzero;stroke:none"
       id="path12" /><path
       d="M 0,84.893 H 271.291 V 356.185 L 0,356.185 Z M 2,354.185 H 269.291 V 86.894 H 2 Z"
       style="fill:#1d1d1b;fill-opacity:1;fill-rule:nonzero;stroke:none"
       id="path14" /><path
       d="M 1,1 H 270.291 V 86.039 H 1 Z"
       style="fill:#ffffff;fill-opacity:1;fill-rule:nonzero;stroke:none"
       id="path16" /><path
       d="M 0,0 H 271.291 V 87.039 H 0 Z M 2,85.039 H 269.291 V 2 H 2 Z"
       style="fill:#1d1d1b;fill-opacity:1;fill-rule:nonzero;stroke:none"
       id="path18" /><g
       id="g20"><g
         id="g22"
         clip-path="url(#clipPath26)"><g
           id="g28"
           transform="translate(48.7051,44.7541)"><path
             d="M 0,0 C 0.752,0 1.271,0.249 1.555,0.747 1.84,1.245 1.981,1.982 1.981,2.957 1.981,3.934 1.845,4.664 1.57,5.152 1.296,5.641 0.772,5.885 0,5.885 H -1.951 V 0 Z m -1.951,-3.354 v -8.445 h -3.75 V 9.238 H 0.03 C 2.104,9.238 3.572,8.74 4.436,7.744 5.3,6.748 5.731,5.152 5.731,2.957 5.731,1.555 5.539,0.387 5.152,-0.549 4.767,-1.483 4.136,-2.185 3.262,-2.652 l 3.14,-9.147 H 2.5 l -2.652,8.445 z"
             style="fill:#1d1d1b;fill-opacity:1;fill-rule:nonzero;stroke:none"
             id="path30" /></g><g
           id="g32"
           transform="translate(61.6631,45.3341)"><path
             d="M 0,0 H 4.878 V -3.354 H 0 v -5.671 h 5.671 v -3.354 H -3.72 V 8.658 H 5.671 V 5.273 L 0,5.273 Z"
             style="fill:#1d1d1b;fill-opacity:1;fill-rule:nonzero;stroke:none"
             id="path34" /></g><g
           id="g36"
           transform="translate(69.5909,38.9611)"><path
             d="m 0,0 h 3.537 c 0.04,-1.036 0.248,-1.799 0.625,-2.286 0.376,-0.487 0.93,-0.732 1.661,-0.732 0.732,0 1.266,0.224 1.601,0.671 0.335,0.447 0.503,1.159 0.503,2.134 0,0.813 -0.188,1.459 -0.565,1.936 -0.376,0.478 -1.01,0.92 -1.905,1.326 L 4.024,3.689 C 2.663,4.299 1.682,5.051 1.082,5.945 0.482,6.84 0.183,8.039 0.183,9.543 c 0,1.769 0.513,3.181 1.54,4.238 1.026,1.057 2.413,1.585 4.161,1.585 1.727,0 3.064,-0.523 4.01,-1.57 0.944,-1.047 1.448,-2.556 1.508,-4.527 H 7.957 C 7.937,10.225 7.77,10.94 7.454,11.418 7.14,11.896 6.616,12.135 5.884,12.135 4.522,12.135 3.842,11.332 3.842,9.727 3.842,8.994 4.009,8.41 4.345,7.973 4.68,7.536 5.244,7.145 6.036,6.799 l 1.372,-0.61 c 1.464,-0.65 2.526,-1.462 3.187,-2.439 0.66,-0.975 0.99,-2.275 0.99,-3.902 0,-1.952 -0.508,-3.455 -1.524,-4.512 -1.016,-1.057 -2.459,-1.585 -4.33,-1.585 -1.849,0 -3.261,0.538 -4.237,1.616 C 0.519,-3.557 0.021,-2.012 0,0"
             style="fill:#1d1d1b;fill-opacity:1;fill-rule:nonzero;stroke:none"
             id="path38" /></g><path
           d="m 88.037,32.955 h -3.72 v 21.037 h 3.72 z"
           style="fill:#1d1d1b;fill-opacity:1;fill-rule:nonzero;stroke:none"
           id="path40" /><g
           id="g42"
           transform="translate(98.9981,37.133)"><path
             d="m 0,0 c 0.376,0.549 0.563,1.311 0.563,2.286 v 7.896 c 0,1.078 -0.182,1.896 -0.548,2.455 -0.367,0.558 -0.914,0.838 -1.647,0.838 H -3.644 V -0.824 h 2.012 C -0.92,-0.824 -0.377,-0.549 0,0 m -1.54,16.859 c 1.769,0 3.186,-0.508 4.253,-1.525 1.067,-1.016 1.6,-2.52 1.6,-4.512 V 1.859 c 0,-1.971 -0.558,-3.47 -1.676,-4.497 -1.118,-1.026 -2.572,-1.54 -4.36,-1.54 h -5.64 v 21.037 z"
             style="fill:#1d1d1b;fill-opacity:1;fill-rule:nonzero;stroke:none"
             id="path44" /></g><g
           id="g46"
           transform="translate(107.4131,35.4552)"><path
             d="m 0,0 c -0.498,0.875 -0.747,1.881 -0.747,3.019 v 15.518 h 3.75 V 3.11 c 0,-0.854 0.163,-1.479 0.488,-1.875 0.325,-0.396 0.822,-0.594 1.493,-0.594 1.322,0 1.983,0.823 1.983,2.469 v 15.427 h 3.749 V 3.019 C 10.716,1.881 10.473,0.875 9.984,0 9.497,-0.873 8.815,-1.549 7.942,-2.027 7.068,-2.504 6.082,-2.743 4.984,-2.743 3.887,-2.743 2.906,-2.504 2.043,-2.027 1.179,-1.549 0.498,-0.873 0,0"
             style="fill:#1d1d1b;fill-opacity:1;fill-rule:nonzero;stroke:none"
             id="path48" /></g><g
           id="g50"
           transform="translate(127.7334,48.9308)"><path
             d="m 0,0 -1.769,-8.536 h 3.538 z m -2.47,-11.89 -0.853,-4.086 H -7.226 L -1.829,5.062 H 1.829 L 7.195,-15.976 H 3.293 l -0.854,4.086 z"
             style="fill:#1d1d1b;fill-opacity:1;fill-rule:nonzero;stroke:none"
             id="path52" /></g><g
           id="g54"
           transform="translate(141.0577,53.9923)"><path
             d="m 0,0 v -17.684 h 5.641 v -3.353 H -3.75 V 0 Z"
             style="fill:#1d1d1b;fill-opacity:1;fill-rule:nonzero;stroke:none"
             id="path56" /></g><g
           id="g58"
           transform="translate(170.9961,32.9552)"><path
             d="M 0,0 H -4.055 L -6.341,12.927 -8.658,0 h -4.025 l -3.75,21.037 h 3.812 l 2.042,-15.732 1.982,15.732 h 4.573 L -2.042,5.305 0,21.037 h 3.75 z"
             style="fill:#1d1d1b;fill-opacity:1;fill-rule:nonzero;stroke:none"
             id="path60" /></g><g
           id="g62"
           transform="translate(183.254,48.9308)"><path
             d="m 0,0 -1.769,-8.536 h 3.538 z m -2.47,-11.89 -0.853,-4.086 H -7.226 L -1.829,5.062 H 1.829 L 7.195,-15.976 H 3.293 l -0.854,4.086 z"
             style="fill:#1d1d1b;fill-opacity:1;fill-rule:nonzero;stroke:none"
             id="path64" /></g><g
           id="g66"
           transform="translate(192.127,38.9611)"><path
             d="m 0,0 h 3.537 c 0.04,-1.036 0.248,-1.799 0.625,-2.286 0.376,-0.487 0.93,-0.732 1.661,-0.732 0.732,0 1.266,0.224 1.601,0.671 0.335,0.447 0.503,1.159 0.503,2.134 0,0.813 -0.188,1.459 -0.565,1.936 -0.376,0.478 -1.01,0.92 -1.905,1.326 L 4.024,3.689 C 2.663,4.299 1.682,5.051 1.082,5.945 0.482,6.84 0.183,8.039 0.183,9.543 c 0,1.769 0.513,3.181 1.54,4.238 1.026,1.057 2.414,1.585 4.161,1.585 1.727,0 3.064,-0.523 4.01,-1.57 0.944,-1.047 1.448,-2.556 1.508,-4.527 H 7.957 C 7.937,10.225 7.77,10.94 7.454,11.418 7.14,11.896 6.616,12.135 5.884,12.135 4.522,12.135 3.842,11.332 3.842,9.727 3.842,8.994 4.009,8.41 4.345,7.973 4.68,7.536 5.244,7.145 6.036,6.799 l 1.372,-0.61 c 1.464,-0.65 2.526,-1.462 3.187,-2.439 0.66,-0.975 0.99,-2.275 0.99,-3.902 0,-1.952 -0.508,-3.455 -1.524,-4.512 -1.016,-1.057 -2.459,-1.585 -4.33,-1.585 -1.849,0 -3.261,0.538 -4.237,1.616 C 0.519,-3.557 0.021,-2.012 0,0"
             style="fill:#1d1d1b;fill-opacity:1;fill-rule:nonzero;stroke:none"
             id="path68" /></g><g
           id="g70"
           transform="translate(212.9512,50.6076)"><path
             d="M 0,0 V -17.652 H -3.72 V 0 H -7.378 V 3.385 H 3.628 V 0 Z"
             style="fill:#1d1d1b;fill-opacity:1;fill-rule:nonzero;stroke:none"
             id="path72" /></g><g
           id="g74"
           transform="translate(222.6163,45.3341)"><path
             d="M 0,0 H 4.878 V -3.354 H 0 v -5.671 h 5.671 v -3.354 H -3.72 V 8.658 H 5.671 V 5.273 L 0,5.273 Z"
             style="fill:#1d1d1b;fill-opacity:1;fill-rule:nonzero;stroke:none"
             id="path76" /></g></g></g><g
       id="g78"><g
         id="g80"
         clip-path="url(#clipPath84)"><g
           id="g86"
           transform="translate(120.5064,263.7448)"><path
             d="m 0,0 h 6.681 23.663 l 26.741,21.948 c 0,0 -9.559,-3.877 -14.44,3.354 -2.598,3.848 -4.524,7.273 -5.956,9.458 -4.632,7.065 -9.404,-0.144 -9.404,-0.144 L 16.91,7.885 13.466,45.744 C 6.697,25.726 -21.787,41.783 -16.006,29.437 Z"
             style="fill:#ffffff;fill-opacity:1;fill-rule:nonzero;stroke:none"
             id="path88" /></g><g
           id="g90"
           transform="translate(196.6944,137.2238)"><path
             d="m 0,0 c -0.259,0.292 -1.905,2.225 -3.564,5.66 -1.781,3.688 -3.49,9.192 -3.606,16.398 -0.012,0.334 -0.076,1.838 -0.06,2.293 0.054,1.529 0.1,3.037 0.138,4.523 0.685,18.565 0.379,51.842 -9.272,69.874 -7.148,13.354 -21.328,21.837 -29.471,24.385 h -1.603 -7.5 -21.097 -0.163 c -8.161,-2.588 -22.461,-11.088 -29.577,-24.385 -9.652,-18.032 -9.958,-51.309 -9.274,-69.874 l 0.118,-3.295 c 0.03,-0.873 0.025,-1.72 0.01,-2.558 -0.006,-0.311 -0.014,-0.619 -0.024,-0.925 -0.373,-13.902 -6.746,-22.679 -7.307,-23.424 -0.022,-0.03 -0.155,-0.248 -0.155,-0.248 -0.304,-0.416 -0.483,-0.919 -0.483,-1.462 0,-1.434 1.243,-2.596 2.775,-2.596 0.444,0 0.889,0.11 1.344,0.264 2.273,0.681 13.588,3.911 25.783,3.911 6.995,0 10.918,-0.756 14.708,-1.487 1.004,-0.194 7.758,-1.499 14.155,-1.499 7.895,0 15.825,0.514 25.985,6.655 3.923,-1.603 8.03,-2.814 12.014,-3.737 7.203,-1.669 13.996,-2.384 18.56,-2.684 3.27,-0.215 5.401,-0.221 5.7,-0.216 0,0 0.011,10e-4 0.015,0.002 l 0.02,-0.001 c 1.449,0 2.623,1.155 2.623,2.58 C 0.792,-1.122 0.468,-0.558 0,0"
             style="fill:#ffffff;fill-opacity:1;fill-rule:nonzero;stroke:none"
             id="path92" /></g></g></g></g></svg>
