<?xml version="1.0" encoding="utf-8"?>
<!-- Generator: Adobe Illustrator 25.4.1, SVG Export Plug-In . SVG Version: 6.00 Build 0)  -->
<svg version="1.1" xmlns="http://www.w3.org/2000/svg" xmlns:xlink="http://www.w3.org/1999/xlink" x="0px" y="0px"
	 viewBox="0 0 271.29 356.19" style="enable-background:new 0 0 271.29 356.19;" xml:space="preserve">
<style type="text/css">
	.st0{fill:#962A86;}
	.st1{fill:#FFFFFF;}
</style>
<g id="bakgrund">
	<g>
		<rect x="1" y="1" class="st0" width="269.29" height="269.29"/>
		<path class="st0" d="M271.29,271.29H0V0h271.29V271.29z M2,269.29h267.29V2H2V269.29z"/>
	</g>
	<rect x="1" y="270.15" class="st1" width="269.29" height="85.04"/>
	<path class="st0" d="M271.29,356.19H0v-87.04h271.29V356.19z M2,354.19h267.29v-83.04H2V354.19z"/>
</g>
<g id="namn">
	<g>
		<path d="M62.61,314.78v8.44h-3.75v-21.04h5.73c2.07,0,3.54,0.5,4.41,1.49c0.86,1,1.3,2.59,1.3,4.79c0,1.4-0.19,2.57-0.58,3.51
			c-0.39,0.93-1.02,1.64-1.89,2.1l3.14,9.15h-3.9l-2.65-8.44H62.61z M64.56,311.43c0.75,0,1.27-0.25,1.55-0.75
			c0.29-0.5,0.43-1.24,0.43-2.21s-0.14-1.71-0.41-2.19c-0.27-0.49-0.8-0.73-1.57-0.73h-1.95v5.88H64.56z"/>
		<path d="M77.64,302.19v21.04h-3.72v-21.04H77.64z"/>
		<path d="M81.12,317.44v-9.48c0-1.99,0.56-3.5,1.68-4.53c1.12-1.03,2.59-1.54,4.42-1.54c1.75,0,3.16,0.5,4.24,1.49
			c1.08,1,1.62,2.47,1.62,4.42v0.64h-3.75v-0.64c0-0.81-0.2-1.44-0.61-1.88c-0.41-0.44-0.94-0.66-1.59-0.66
			c-0.79,0-1.37,0.27-1.72,0.82c-0.36,0.55-0.53,1.37-0.53,2.47v8.45c0,2.05,0.75,3.08,2.26,3.08c0.73,0,1.28-0.25,1.65-0.75
			c0.37-0.5,0.55-1.21,0.55-2.15v-2.23h-2.23v-2.96h5.98v5.43c0,1.95-0.56,3.44-1.69,4.48c-1.13,1.04-2.59,1.55-4.37,1.55
			c-1.81,0-3.24-0.51-4.3-1.54C81.64,320.91,81.12,319.41,81.12,317.44z"/>
		<path d="M100.26,302.19v21.04h-3.72v-21.04H100.26z"/>
		<path d="M109.68,302.19c1.77,0,3.19,0.51,4.25,1.52c1.07,1.02,1.6,2.52,1.6,4.51v8.96c0,1.97-0.56,3.47-1.68,4.5
			s-2.57,1.54-4.36,1.54h-5.64v-21.04H109.68z M111.22,319.05c0.38-0.55,0.56-1.31,0.56-2.29v-7.9c0-1.08-0.18-1.9-0.55-2.45
			c-0.37-0.56-0.91-0.84-1.65-0.84h-2.01v14.3h2.01C110.3,319.88,110.85,319.6,111.22,319.05z"/>
		<path d="M136.57,308.81c0,2.24-0.45,3.9-1.36,5s-2.37,1.65-4.41,1.65h-1.95v7.77h-3.72v-21.04h5.67c2.07,0,3.55,0.55,4.44,1.65
			C136.13,304.94,136.57,306.59,136.57,308.81z M132.82,308.81c0-1.12-0.16-1.94-0.47-2.47c-0.31-0.53-0.87-0.79-1.66-0.79h-1.83
			v6.52h1.83c0.79,0,1.35-0.26,1.66-0.79C132.67,310.75,132.82,309.93,132.82,308.81z"/>
		<path d="M143.04,302.19v17.68h5.64v3.35h-9.39v-21.04H143.04z"/>
		<path d="M155.05,319.14l-0.85,4.08h-3.9l5.4-21.04h3.66l5.37,21.04h-3.9l-0.85-4.08H155.05z M157.52,307.25l-1.77,8.54h3.54
			L157.52,307.25z"/>
		<path d="M166.39,317.22h3.54c0.04,1.04,0.25,1.8,0.62,2.29c0.38,0.49,0.93,0.73,1.66,0.73s1.27-0.22,1.6-0.67s0.5-1.16,0.5-2.13
			c0-0.81-0.19-1.46-0.56-1.94c-0.38-0.48-1.01-0.92-1.91-1.33l-1.43-0.64c-1.36-0.61-2.34-1.36-2.94-2.26
			c-0.6-0.89-0.9-2.09-0.9-3.6c0-1.77,0.51-3.18,1.54-4.24c1.03-1.06,2.41-1.58,4.16-1.58c1.73,0,3.06,0.52,4.01,1.57
			c0.94,1.05,1.45,2.56,1.51,4.53h-3.45c-0.02-0.96-0.19-1.67-0.5-2.15c-0.31-0.48-0.84-0.72-1.57-0.72c-1.36,0-2.04,0.8-2.04,2.41
			c0,0.73,0.17,1.32,0.5,1.75c0.33,0.44,0.9,0.83,1.69,1.17l1.37,0.61c1.46,0.65,2.53,1.46,3.19,2.44c0.66,0.98,0.99,2.28,0.99,3.9
			c0,1.95-0.51,3.46-1.52,4.51c-1.02,1.06-2.46,1.58-4.33,1.58c-1.85,0-3.26-0.54-4.24-1.62S166.42,319.24,166.39,317.22z"/>
		<path d="M187.22,305.58v17.65h-3.72v-17.65h-3.66v-3.38h11.01v3.38H187.22z"/>
		<path d="M197.01,302.19v21.04h-3.72v-21.04H197.01z"/>
		<path d="M200.48,317.44v-9.48c0-1.99,0.56-3.5,1.68-4.53c1.12-1.03,2.59-1.54,4.42-1.54c1.75,0,3.16,0.51,4.24,1.52
			c1.08,1.02,1.62,2.56,1.62,4.63v0.64h-3.75v-0.61c0-0.96-0.2-1.66-0.59-2.12c-0.4-0.46-0.93-0.69-1.6-0.69
			c-0.79,0-1.37,0.27-1.72,0.82c-0.36,0.55-0.53,1.37-0.53,2.47v8.45c0,2.05,0.75,3.08,2.26,3.08c0.67,0,1.21-0.23,1.6-0.7
			c0.4-0.47,0.59-1.16,0.59-2.07v-0.55h3.72v0.58c0,2.03-0.56,3.56-1.69,4.59s-2.58,1.54-4.34,1.54c-1.81,0-3.24-0.51-4.3-1.54
			C201.01,320.91,200.48,319.41,200.48,317.44z"/>
	</g>
</g>
<g id="ikon">
	<path class="st1" d="M189,109.03h-7.59c-2.76,0-3.82-1.78-3.82-3.5V92.07h0c0-5.66-1.11-11.15-3.3-16.33
		c-2.11-5-5.14-9.48-8.99-13.33c-3.85-3.85-8.34-6.87-13.33-8.99c-5.17-2.19-10.67-3.3-16.33-3.3s-11.15,1.11-16.33,3.3
		c-5,2.11-9.48,5.14-13.33,8.99c-3.85,3.85-6.87,8.34-8.99,13.33c-2.19,5.17-3.3,10.67-3.3,16.33v13.46c0,1.73-1.17,3.5-3.94,3.5
		h-7.47c-2.36,0-4.21,2.04-4.02,4.41l6.61,104.5c0.15,1.82,1.65,3.22,3.45,3.22h1.87c1.91,0,3.47-1.57,3.47-3.5v-44.27
		c0.33-14.65,2.53-20.3,13.51-20.5h56.49c11.57,0.08,13.64,5.85,13.97,20.5v44.28c0,1.94,1.55,3.5,3.47,3.5h1.87
		c1.8,0,3.31-1.4,3.45-3.22l6.61-104.5C193.22,111.07,191.36,109.03,189,109.03z M169.03,92.07v13.69h0c0.1,5.36,3.7,9.88,8.6,11.38
		c1.11,0.34,2.29,0.52,3.51,0.53c-0.15,9.14-1.87,14.63-4.48,17.78c-2.09,2.52-4.4,3.54-9.52,3.75h-14.23
		c0.09-11.65,0.77-22.19,2.02-31.37c1.08-7.94,2.59-14.87,4.48-20.62c2.08-6.3,4.17-9.76,5.39-11.42
		C167.56,80.71,169.03,86.27,169.03,92.07z M159.25,68.46c0.5,0.5,0.98,1.02,1.45,1.55c-2.01,2.12-4.86,6.65-7.35,13.76
		c-2.14,6.12-3.83,13.52-5.04,22c-1.39,9.75-2.15,20.98-2.24,33.43h-6.96V58.86C146.71,59.64,153.77,62.98,159.25,68.46z
		 M112.04,68.46c5.5-5.5,12.58-8.84,20.22-9.61v80.35h-7.03c-0.1-12.45-0.85-23.68-2.24-33.43c-1.21-8.47-2.91-15.87-5.05-22
		c-2.48-7.12-5.33-11.65-7.35-13.76C111.06,69.48,111.54,68.96,112.04,68.46z M93.66,117.14c4.9-1.5,8.5-6.02,8.6-11.38h0V92.07
		c0-5.79,1.47-11.36,4.22-16.28c1.22,1.66,3.31,5.11,5.39,11.42c1.89,5.74,3.4,12.68,4.48,20.62c1.25,9.18,1.93,19.72,2.02,31.37
		h-14.23c-5.12-0.21-7.56-1.23-9.64-3.75c-2.61-3.15-4.21-8.64-4.36-17.78C91.37,117.66,92.55,117.48,93.66,117.14z"/>
</g>
</svg>
