<?xml version="1.0" encoding="utf-8"?>
<!-- Generator: Adobe Illustrator 25.4.1, SVG Export Plug-In . SVG Version: 6.00 Build 0)  -->
<svg version="1.1" xmlns="http://www.w3.org/2000/svg" xmlns:xlink="http://www.w3.org/1999/xlink" x="0px" y="0px"
	 viewBox="0 0 271.29 355.96" style="enable-background:new 0 0 271.29 355.96;" xml:space="preserve">
<style type="text/css">
	.st0{fill:#86BD40;}
	.st1{fill:#FFFFFF;}
</style>
<g id="bakgrund">
	<g>
		<rect x="1" y="1" class="st0" width="269.29" height="269.29"/>
		<path class="st0" d="M271.29,271.29H0V0h271.29V271.29z M2,269.29h267.29V2H2V269.29z"/>
	</g>
	<g>
		<rect x="1" y="269.92" class="st1" width="269.29" height="85.04"/>
		<path class="st0" d="M271.29,355.96H0v-87.04h271.29V355.96z M2,353.96h267.29v-83.04H2V353.96z"/>
	</g>
</g>
<g id="namn">
	<g>
		<path d="M101.67,316.99h3.54c0.04,1.04,0.25,1.8,0.62,2.29c0.38,0.49,0.93,0.73,1.66,0.73s1.27-0.22,1.6-0.67
			c0.33-0.45,0.5-1.16,0.5-2.13c0-0.81-0.19-1.46-0.56-1.94c-0.38-0.48-1.01-0.92-1.91-1.33l-1.43-0.64
			c-1.36-0.61-2.34-1.36-2.94-2.26s-0.9-2.09-0.9-3.6c0-1.77,0.51-3.18,1.54-4.24s2.41-1.59,4.16-1.59c1.73,0,3.06,0.52,4.01,1.57
			c0.94,1.05,1.45,2.56,1.51,4.53h-3.45c-0.02-0.96-0.19-1.67-0.5-2.15c-0.31-0.48-0.84-0.72-1.57-0.72c-1.36,0-2.04,0.8-2.04,2.41
			c0,0.73,0.17,1.32,0.5,1.75c0.33,0.44,0.9,0.83,1.69,1.17l1.37,0.61c1.46,0.65,2.53,1.46,3.19,2.44c0.66,0.98,0.99,2.28,0.99,3.9
			c0,1.95-0.51,3.46-1.52,4.51c-1.02,1.06-2.46,1.58-4.33,1.58c-1.85,0-3.26-0.54-4.24-1.62S101.69,319.01,101.67,316.99z"/>
		<path d="M127.73,323h-3.75v-9.02h-3.96V323h-3.75v-21.04h3.75v8.66h3.96v-8.66h3.75V323z"/>
		<path d="M131.09,317.21v-9.48c0-1.99,0.56-3.5,1.68-4.53c1.12-1.03,2.59-1.54,4.42-1.54c1.77,0,3.19,0.51,4.25,1.54
			s1.6,2.54,1.6,4.53v9.48c0,1.95-0.56,3.45-1.69,4.48c-1.13,1.04-2.59,1.55-4.37,1.55c-1.81,0-3.24-0.51-4.3-1.54
			C131.62,320.68,131.09,319.18,131.09,317.21z M139.29,316.78v-8.44c0-1.08-0.18-1.9-0.55-2.46c-0.37-0.56-0.91-0.84-1.65-0.84
			c-0.79,0-1.37,0.27-1.72,0.82c-0.36,0.55-0.53,1.37-0.53,2.47v8.44c0,2.05,0.75,3.08,2.26,3.08c0.71,0,1.26-0.27,1.63-0.81
			C139.1,318.51,139.29,317.76,139.29,316.78z"/>
		<path d="M150.11,310.62h4.88v3.35h-4.88v5.67h5.67V323h-9.39v-21.04h9.39v3.38h-5.67V310.62z"/>
		<path d="M158.04,316.99h3.54c0.04,1.04,0.25,1.8,0.62,2.29c0.38,0.49,0.93,0.73,1.66,0.73s1.27-0.22,1.6-0.67
			c0.33-0.45,0.5-1.16,0.5-2.13c0-0.81-0.19-1.46-0.56-1.94c-0.38-0.48-1.01-0.92-1.91-1.33l-1.43-0.64
			c-1.36-0.61-2.34-1.36-2.94-2.26s-0.9-2.09-0.9-3.6c0-1.77,0.51-3.18,1.54-4.24s2.41-1.59,4.16-1.59c1.73,0,3.06,0.52,4.01,1.57
			c0.94,1.05,1.45,2.56,1.51,4.53H166c-0.02-0.96-0.19-1.67-0.5-2.15c-0.31-0.48-0.84-0.72-1.57-0.72c-1.36,0-2.04,0.8-2.04,2.41
			c0,0.73,0.17,1.32,0.5,1.75c0.33,0.44,0.9,0.83,1.69,1.17l1.37,0.61c1.46,0.65,2.53,1.46,3.19,2.44c0.66,0.98,0.99,2.28,0.99,3.9
			c0,1.95-0.51,3.46-1.52,4.51c-1.02,1.06-2.46,1.58-4.33,1.58c-1.85,0-3.26-0.54-4.24-1.62S158.06,319.01,158.04,316.99z"/>
	</g>
</g>
<g id="ikon">
	<g>
		<path class="st1" d="M32.15,163.54h119.89c24.74,0,45.65-1.5,62.16-4.47c13.17-2.36,20.42-5.14,23.79-6.73
			c-0.06-0.12-0.1-0.19-0.1-0.19c-5.3-9.9-17.89-9.61-37.62-13.14c-20.31-3.64-29.62-11.75-45.76-20.75l-1.49-0.83
			c-0.01-0.01-0.02,0-0.03,0.01l-11.52,16.51l-3.54-2.17l11.57-16.58c-2.9-1.78-6.77-4.16-10.81-6.65c0,0,0,0,0,0l-11.59,16.6
			l-3.54-2.17l11.59-16.61c-8.93-5.49-17.57-10.82-17.57-10.82s-6.74,10.7-11.56,15.46c-8.35,8.24-20.94,13.49-35.02,13.49
			c-12.85,0-24.45-4.37-32.73-11.39c-0.05,0.04-0.09,0.08-0.14,0.13c-7.09,7.1-6.14,27.12-5.97,29.95V163.54z"/>
		<path class="st1" d="M214.91,163.08c-16.74,3.01-37.9,4.53-62.87,4.53H32.15v0.66c0,4.12,3.33,7.46,7.45,7.46h55.67h39.41h18.97
			c29.92,0,54.05-2.17,71.75-6.46c5.87-1.42,10.09-2.87,13.02-4.08c1-3.68,0.99-6.69,0.68-8.88
			C234.8,158.26,227.32,160.85,214.91,163.08z"/>
	</g>
</g>
</svg>
