<?xml version="1.0" encoding="UTF-8" standalone="no"?>
<svg
   xmlns:dc="http://purl.org/dc/elements/1.1/"
   xmlns:cc="http://creativecommons.org/ns#"
   xmlns:rdf="http://www.w3.org/1999/02/22-rdf-syntax-ns#"
   xmlns:svg="http://www.w3.org/2000/svg"
   xmlns="http://www.w3.org/2000/svg"
   xmlns:sodipodi="http://sodipodi.sourceforge.net/DTD/sodipodi-0.dtd"
   xmlns:inkscape="http://www.inkscape.org/namespaces/inkscape"
   version="1.1"
   id="svg2"
   xml:space="preserve"
   width="361.72134"
   height="474.91333"
   viewBox="0 0 361.72134 474.91333"
   sodipodi:docname="small-electronics.ai"><metadata
     id="metadata8"><rdf:RDF><cc:Work
         rdf:about=""><dc:format>image/svg+xml</dc:format><dc:type
           rdf:resource="http://purl.org/dc/dcmitype/StillImage" /></cc:Work></rdf:RDF></metadata><defs
     id="defs6"><clipPath
       clipPathUnits="userSpaceOnUse"
       id="clipPath26"><path
         d="M 0,356.185 H 271.291 V 0 H 0 Z"
         id="path24" /></clipPath><clipPath
       clipPathUnits="userSpaceOnUse"
       id="clipPath96"><path
         d="M 0,356.185 H 271.291 V 0 H 0 Z"
         id="path94" /></clipPath></defs><sodipodi:namedview
     pagecolor="#ffffff"
     bordercolor="#666666"
     borderopacity="1"
     objecttolerance="10"
     gridtolerance="10"
     guidetolerance="10"
     inkscape:pageopacity="0"
     inkscape:pageshadow="2"
     inkscape:window-width="640"
     inkscape:window-height="480"
     id="namedview4" /><g
     id="g10"
     inkscape:groupmode="layer"
     inkscape:label="small-electronics"
     transform="matrix(1.3333333,0,0,-1.3333333,0,474.91333)"><path
       d="M 1,85.894 H 270.291 V 355.185 H 1 Z"
       style="fill:#f18800;fill-opacity:1;fill-rule:nonzero;stroke:none"
       id="path12" /><path
       d="M 0,84.893 H 271.291 V 356.185 L 0,356.185 Z M 2,354.185 H 269.291 V 86.894 H 2 Z"
       style="fill:#f18800;fill-opacity:1;fill-rule:nonzero;stroke:none"
       id="path14" /><path
       d="M 1,1 H 270.291 V 86.039 H 1 Z"
       style="fill:#ffffff;fill-opacity:1;fill-rule:nonzero;stroke:none"
       id="path16" /><path
       d="M 0,0 H 271.291 V 87.039 H 0 Z M 2,85.039 H 269.291 V 2 H 2 Z"
       style="fill:#f18800;fill-opacity:1;fill-rule:nonzero;stroke:none"
       id="path18" /><g
       id="g20"><g
         id="g22"
         clip-path="url(#clipPath26)"><g
           id="g28"
           transform="translate(24.5284,38.9611)"><path
             d="m 0,0 h 3.537 c 0.04,-1.036 0.248,-1.799 0.625,-2.286 0.376,-0.488 0.93,-0.732 1.661,-0.732 0.732,0 1.266,0.224 1.601,0.671 0.335,0.447 0.503,1.159 0.503,2.134 C 7.927,0.6 7.739,1.245 7.362,1.723 6.986,2.2 6.352,2.643 5.457,3.049 L 4.024,3.689 C 2.663,4.299 1.682,5.051 1.082,5.945 0.482,6.84 0.183,8.039 0.183,9.543 c 0,1.769 0.513,3.181 1.54,4.237 1.026,1.057 2.414,1.586 4.161,1.586 1.727,0 3.064,-0.523 4.01,-1.57 0.944,-1.047 1.448,-2.556 1.508,-4.527 H 7.957 C 7.937,10.224 7.77,10.94 7.454,11.418 7.14,11.896 6.616,12.134 5.884,12.134 4.522,12.134 3.842,11.331 3.842,9.726 3.842,8.994 4.009,8.41 4.345,7.973 4.68,7.536 5.244,7.145 6.036,6.799 l 1.372,-0.61 c 1.464,-0.65 2.526,-1.463 3.187,-2.439 0.66,-0.976 0.99,-2.276 0.99,-3.902 0,-1.952 -0.508,-3.455 -1.524,-4.512 -1.016,-1.057 -2.459,-1.585 -4.33,-1.585 -1.849,0 -3.261,0.538 -4.237,1.615 C 0.519,-3.557 0.021,-2.012 0,0"
             style="fill:#1d1d1b;fill-opacity:1;fill-rule:nonzero;stroke:none"
             id="path30" /></g><g
           id="g32"
           transform="translate(53.9805,32.9552)"><path
             d="M 0,0 H -3.75 V 12.317 L -6.433,4.086 h -2.012 l -2.653,8.14 V 0 h -3.75 v 21.036 h 3.75 L -7.439,9.939 -3.75,21.036 H 0 Z"
             style="fill:#1d1d1b;fill-opacity:1;fill-rule:nonzero;stroke:none"
             id="path34" /></g><g
           id="g36"
           transform="translate(63.585,48.9308)"><path
             d="m 0,0 -1.769,-8.536 h 3.538 z m -2.47,-11.89 -0.853,-4.086 H -7.226 L -1.829,5.061 H 1.829 L 7.195,-15.976 H 3.293 l -0.854,4.086 z"
             style="fill:#1d1d1b;fill-opacity:1;fill-rule:nonzero;stroke:none"
             id="path38" /></g><g
           id="g40"
           transform="translate(76.9092,53.9914)"><path
             d="m 0,0 v -17.683 h 5.641 v -3.353 H -3.75 V 0 Z"
             style="fill:#1d1d1b;fill-opacity:1;fill-rule:nonzero;stroke:none"
             id="path42" /></g><g
           id="g44"
           transform="translate(89.0127,53.9914)"><path
             d="m 0,0 v -17.683 h 5.641 v -3.353 H -3.75 V 0 Z"
             style="fill:#1d1d1b;fill-opacity:1;fill-rule:nonzero;stroke:none"
             id="path46" /></g><g
           id="g48"
           transform="translate(107.337,45.3332)"><path
             d="M 0,0 H 4.878 V -3.354 H 0 v -5.67 h 5.671 v -3.354 H -3.72 V 8.658 H 5.671 V 5.274 L 0,5.274 Z"
             style="fill:#1d1d1b;fill-opacity:1;fill-rule:nonzero;stroke:none"
             id="path50" /></g><g
           id="g52"
           transform="translate(119.7159,53.9914)"><path
             d="m 0,0 v -17.683 h 5.641 v -3.353 H -3.75 V 0 Z"
             style="fill:#1d1d1b;fill-opacity:1;fill-rule:nonzero;stroke:none"
             id="path54" /></g><g
           id="g56"
           transform="translate(131.7891,45.3332)"><path
             d="M 0,0 H 4.878 V -3.354 H 0 v -5.67 h 5.671 v -3.354 H -3.72 V 8.658 H 5.671 V 5.274 L 0,5.274 Z"
             style="fill:#1d1d1b;fill-opacity:1;fill-rule:nonzero;stroke:none"
             id="path58" /></g><g
           id="g60"
           transform="translate(140.2959,38.7482)"><path
             d="m 0,0 v 9.481 c 0,1.992 0.56,3.501 1.677,4.528 1.118,1.026 2.592,1.539 4.421,1.539 1.748,0 3.16,-0.508 4.237,-1.525 1.078,-1.015 1.616,-2.56 1.616,-4.633 V 8.75 h -3.75 v 0.609 c 0,0.955 -0.198,1.662 -0.595,2.12 -0.395,0.457 -0.929,0.685 -1.6,0.685 C 5.214,12.164 4.64,11.89 4.284,11.341 3.928,10.792 3.75,9.969 3.75,8.871 V 0.427 c 0,-2.053 0.752,-3.079 2.256,-3.079 0.671,0 1.205,0.233 1.6,0.701 0.397,0.468 0.595,1.158 0.595,2.073 v 0.549 h 3.72 v -0.58 c 0,-2.032 -0.565,-3.562 -1.692,-4.588 -1.128,-1.026 -2.577,-1.539 -4.344,-1.539 -1.81,0 -3.242,0.513 -4.299,1.539 C 0.528,-3.471 0,-1.972 0,0"
             style="fill:#1d1d1b;fill-opacity:1;fill-rule:nonzero;stroke:none"
             id="path62" /></g><g
           id="g64"
           transform="translate(161.8213,50.6076)"><path
             d="M 0,0 V -17.652 H -3.72 V 0 H -7.378 V 3.384 H 3.628 V 0 Z"
             style="fill:#1d1d1b;fill-opacity:1;fill-rule:nonzero;stroke:none"
             id="path66" /></g><g
           id="g68"
           transform="translate(173.4678,44.7541)"><path
             d="M 0,0 C 0.752,0 1.271,0.249 1.555,0.747 1.84,1.245 1.981,1.981 1.981,2.957 1.981,3.933 1.845,4.664 1.57,5.152 1.296,5.64 0.772,5.884 0,5.884 H -1.951 V 0 Z m -1.951,-3.354 v -8.445 h -3.75 V 9.237 H 0.03 C 2.104,9.237 3.572,8.739 4.436,7.743 5.3,6.748 5.731,5.152 5.731,2.957 5.731,1.555 5.539,0.386 5.152,-0.549 4.767,-1.483 4.136,-2.185 3.262,-2.652 l 3.14,-9.147 H 2.5 l -2.652,8.445 z"
             style="fill:#1d1d1b;fill-opacity:1;fill-rule:nonzero;stroke:none"
             id="path70" /></g><g
           id="g72"
           transform="translate(190.7852,39.175)"><path
             d="m 0,0 v 8.444 c 0,1.078 -0.183,1.896 -0.549,2.455 -0.365,0.559 -0.914,0.838 -1.646,0.838 -0.792,0 -1.367,-0.274 -1.722,-0.823 -0.356,-0.549 -0.534,-1.372 -0.534,-2.47 V 0 c 0,-2.053 0.752,-3.079 2.256,-3.079 0.712,0 1.256,0.269 1.632,0.808 C -0.187,-1.732 0,-0.976 0,0 m -8.201,-0.427 v 9.482 c 0,1.991 0.559,3.501 1.677,4.527 1.118,1.026 2.591,1.539 4.42,1.539 1.769,0 3.186,-0.513 4.253,-1.539 C 3.217,12.556 3.75,11.046 3.75,9.055 v -9.482 c 0,-1.951 -0.563,-3.445 -1.692,-4.481 -1.128,-1.037 -2.586,-1.555 -4.374,-1.555 -1.81,0 -3.243,0.513 -4.299,1.539 -1.058,1.027 -1.586,2.526 -1.586,4.497"
             style="fill:#1d1d1b;fill-opacity:1;fill-rule:nonzero;stroke:none"
             id="path74" /></g><g
           id="g76"
           transform="translate(209.7803,32.9552)"><path
             d="M 0,0 H -3.75 L -8.141,11.22 V 0 h -3.75 v 21.036 h 3.75 L -3.75,9.329 V 21.036 H 0 Z"
             style="fill:#1d1d1b;fill-opacity:1;fill-rule:nonzero;stroke:none"
             id="path78" /></g><path
           d="m 217.099,32.955 h -3.72 v 21.036 h 3.72 z"
           style="fill:#1d1d1b;fill-opacity:1;fill-rule:nonzero;stroke:none"
           id="path80" /><g
           id="g82"
           transform="translate(220.5733,38.7482)"><path
             d="m 0,0 v 9.481 c 0,1.992 0.56,3.501 1.677,4.528 1.118,1.026 2.592,1.539 4.421,1.539 1.748,0 3.16,-0.508 4.237,-1.525 1.078,-1.015 1.616,-2.56 1.616,-4.633 V 8.75 h -3.75 v 0.609 c 0,0.955 -0.198,1.662 -0.595,2.12 -0.395,0.457 -0.929,0.685 -1.6,0.685 C 5.214,12.164 4.64,11.89 4.284,11.341 3.928,10.792 3.75,9.969 3.75,8.871 V 0.427 c 0,-2.053 0.752,-3.079 2.256,-3.079 0.671,0 1.205,0.233 1.6,0.701 0.397,0.468 0.595,1.158 0.595,2.073 v 0.549 h 3.72 v -0.58 c 0,-2.032 -0.565,-3.562 -1.692,-4.588 -1.128,-1.026 -2.577,-1.539 -4.344,-1.539 -1.81,0 -3.242,0.513 -4.299,1.539 C 0.528,-3.471 0,-1.972 0,0"
             style="fill:#1d1d1b;fill-opacity:1;fill-rule:nonzero;stroke:none"
             id="path84" /></g><g
           id="g86"
           transform="translate(235.1778,38.9611)"><path
             d="m 0,0 h 3.537 c 0.04,-1.036 0.248,-1.799 0.625,-2.286 0.376,-0.488 0.93,-0.732 1.661,-0.732 0.732,0 1.266,0.224 1.601,0.671 0.335,0.447 0.503,1.159 0.503,2.134 C 7.927,0.6 7.739,1.245 7.362,1.723 6.986,2.2 6.352,2.643 5.457,3.049 L 4.024,3.689 C 2.663,4.299 1.682,5.051 1.082,5.945 0.482,6.84 0.183,8.039 0.183,9.543 c 0,1.769 0.513,3.181 1.54,4.237 1.026,1.057 2.413,1.586 4.161,1.586 1.727,0 3.064,-0.523 4.01,-1.57 0.944,-1.047 1.448,-2.556 1.508,-4.527 H 7.957 C 7.937,10.224 7.77,10.94 7.454,11.418 7.14,11.896 6.616,12.134 5.884,12.134 4.522,12.134 3.842,11.331 3.842,9.726 3.842,8.994 4.009,8.41 4.345,7.973 4.68,7.536 5.244,7.145 6.036,6.799 l 1.372,-0.61 c 1.464,-0.65 2.526,-1.463 3.187,-2.439 0.66,-0.976 0.99,-2.276 0.99,-3.902 0,-1.952 -0.508,-3.455 -1.524,-4.512 -1.016,-1.057 -2.459,-1.585 -4.33,-1.585 -1.849,0 -3.261,0.538 -4.237,1.615 C 0.519,-3.557 0.021,-2.012 0,0"
             style="fill:#1d1d1b;fill-opacity:1;fill-rule:nonzero;stroke:none"
             id="path88" /></g></g></g><g
       id="g90"><g
         id="g92"
         clip-path="url(#clipPath96)"><g
           id="g98"
           transform="translate(171.1905,215.0461)"><path
             d="M 0,0 C 0.006,-2.119 -1.713,-3.848 -3.832,-3.854 L -67.205,-4.03 c -2.119,-0.006 -3.848,1.714 -3.854,3.833 l -0.223,80.657 c -0.006,2.12 1.713,3.849 3.833,3.854 l 63.372,0.176 c 2.12,0.006 3.848,-1.714 3.854,-3.833 z m -3.725,-26.785 c 0.002,-0.621 -0.499,-1.125 -1.119,-1.126 l -13.119,-0.037 c -0.62,-0.001 -1.124,0.5 -1.126,1.12 l -0.019,7.357 c -0.002,0.62 0.499,1.124 1.119,1.126 l 13.119,0.036 c 0.62,0.002 1.124,-0.5 1.126,-1.12 z m 0.054,-19.24 c 0.002,-0.621 -0.5,-1.125 -1.12,-1.126 l -13.118,-0.037 c -0.62,-10e-4 -1.124,0.5 -1.126,1.12 l -0.021,7.357 c -0.002,0.62 0.5,1.124 1.12,1.126 l 13.119,0.036 c 0.62,0.002 1.124,-0.5 1.126,-1.12 z m 0.053,-19.241 c 0.002,-0.62 -0.499,-1.124 -1.119,-1.126 l -13.119,-0.036 c -0.621,-0.002 -1.124,0.499 -1.126,1.119 l -0.02,7.358 c -0.002,0.62 0.499,1.124 1.119,1.126 l 13.119,0.036 c 0.62,0.002 1.124,-0.5 1.126,-1.12 z m -24.155,38.414 c 0.002,-0.62 -0.499,-1.124 -1.12,-1.126 l -13.118,-0.036 c -0.621,-0.002 -1.125,0.499 -1.126,1.119 l -0.021,7.357 c -0.002,0.621 0.5,1.124 1.12,1.126 l 13.118,0.037 c 0.62,0.001 1.125,-0.5 1.126,-1.12 z m 0.053,-19.24 c 10e-4,-0.621 -0.5,-1.125 -1.12,-1.126 l -13.118,-0.037 c -0.621,-10e-4 -1.125,0.5 -1.126,1.12 l -0.02,7.357 c -0.002,0.62 0.499,1.124 1.119,1.126 l 13.119,0.036 c 0.62,0.002 1.124,-0.499 1.126,-1.119 z m 0.053,-19.24 c 0.002,-0.62 -0.499,-1.125 -1.119,-1.127 l -13.119,-0.036 c -0.62,-10e-4 -1.124,0.5 -1.126,1.12 l -0.02,7.356 c -0.002,0.621 0.499,1.125 1.119,1.126 l 13.119,0.038 c 0.62,10e-4 1.125,-0.5 1.126,-1.121 z m -24.155,38.414 c 0.002,-0.621 -0.5,-1.125 -1.12,-1.126 l -13.119,-0.037 c -0.62,-0.002 -1.124,0.499 -1.126,1.12 l -0.02,7.357 c -0.001,0.62 0.5,1.124 1.12,1.125 l 13.119,0.037 c 0.62,0.002 1.124,-0.5 1.126,-1.12 z m 0.053,-19.241 c 0.002,-0.62 -0.5,-1.124 -1.12,-1.126 l -13.118,-0.036 c -0.62,-0.002 -1.124,0.5 -1.126,1.12 l -0.02,7.356 c -0.002,0.62 0.499,1.125 1.119,1.126 l 13.119,0.037 c 0.62,0.001 1.124,-0.5 1.126,-1.12 z m 0.053,-19.24 c 0.002,-0.621 -0.499,-1.124 -1.119,-1.126 l -13.119,-0.037 c -0.62,-0.001 -1.124,0.5 -1.126,1.121 l -0.02,7.356 c -0.002,0.62 0.499,1.124 1.12,1.126 l 13.118,0.036 c 0.62,0.002 1.124,-0.499 1.126,-1.119 z M 1.147,92.019 -72.715,91.814 c -3.454,-0.009 -6.273,-2.843 -6.264,-6.298 l 0.444,-160.285 c 0.01,-3.455 2.844,-6.273 6.298,-6.263 l 73.862,0.204 c 3.455,0.01 6.273,2.844 6.264,6.299 L 7.445,85.755 C 7.436,89.21 4.602,92.029 1.147,92.019"
             style="fill:#ffffff;fill-opacity:1;fill-rule:nonzero;stroke:none"
             id="path100" /></g><g
           id="g102"
           transform="translate(103.9722,214.86)"><path
             d="m 0,0 63.375,0.173 -0.22,80.66 -63.376,-0.174 z"
             style="fill:#ffffff;fill-opacity:1;fill-rule:nonzero;stroke:none"
             id="path104" /></g></g></g></g></svg>
