<?xml version="1.0" encoding="utf-8"?>
<!-- Generator: Adobe Illustrator 25.4.1, SVG Export Plug-In . SVG Version: 6.00 Build 0)  -->
<svg version="1.1" xmlns="http://www.w3.org/2000/svg" xmlns:xlink="http://www.w3.org/1999/xlink" x="0px" y="0px"
	 viewBox="0 0 271.29 356.19" style="enable-background:new 0 0 271.29 356.19;" xml:space="preserve">
<style type="text/css">
	.st0{fill:#F18700;}
	.st1{fill:#FFFFFF;}
	.st2{fill:none;}
</style>
<g id="bakgrund">
	<g>
		<rect x="1" y="1" class="st0" width="269.29" height="269.29"/>
		<path class="st0" d="M271.29,271.29H0V0h271.29V271.29z M2,269.29h267.29V2H2V269.29z"/>
	</g>
	<rect x="1" y="270.15" class="st1" width="269.29" height="85.04"/>
	<path class="st0" d="M271.29,356.19H0v-87.04h271.29V356.19z M2,354.19h267.29v-83.04H2V354.19z"/>
</g>
<g id="namn">
	<g>
		<path d="M55.98,317.22h3.54c0.04,1.04,0.25,1.8,0.62,2.29c0.38,0.49,0.93,0.73,1.66,0.73s1.27-0.22,1.6-0.67
			c0.33-0.45,0.5-1.16,0.5-2.13c0-0.81-0.19-1.46-0.56-1.94c-0.38-0.48-1.01-0.92-1.91-1.33L60,313.53
			c-1.36-0.61-2.34-1.36-2.94-2.26s-0.9-2.09-0.9-3.6c0-1.77,0.51-3.18,1.54-4.24s2.41-1.59,4.16-1.59c1.73,0,3.06,0.52,4.01,1.57
			c0.94,1.05,1.45,2.56,1.51,4.53h-3.45c-0.02-0.96-0.19-1.67-0.5-2.15c-0.31-0.48-0.84-0.72-1.57-0.72c-1.36,0-2.04,0.8-2.04,2.41
			c0,0.73,0.17,1.32,0.5,1.75c0.33,0.44,0.9,0.83,1.69,1.17l1.37,0.61c1.46,0.65,2.53,1.46,3.19,2.44c0.66,0.98,0.99,2.28,0.99,3.9
			c0,1.95-0.51,3.46-1.52,4.51c-1.02,1.06-2.46,1.58-4.33,1.58c-1.85,0-3.26-0.54-4.24-1.62S56,319.24,55.98,317.22z"/>
		<path d="M70.46,317.44v-9.48c0-1.99,0.56-3.5,1.68-4.53c1.12-1.03,2.59-1.54,4.42-1.54c1.77,0,3.19,0.51,4.25,1.54
			s1.6,2.54,1.6,4.53v9.48c0,1.95-0.56,3.45-1.69,4.48c-1.13,1.04-2.59,1.55-4.37,1.55c-1.81,0-3.24-0.51-4.3-1.54
			C70.99,320.91,70.46,319.41,70.46,317.44z M78.66,317.01v-8.44c0-1.08-0.18-1.9-0.55-2.46c-0.37-0.56-0.91-0.84-1.65-0.84
			c-0.79,0-1.37,0.27-1.72,0.82c-0.36,0.55-0.53,1.37-0.53,2.47v8.44c0,2.05,0.75,3.08,2.26,3.08c0.71,0,1.26-0.27,1.63-0.81
			C78.47,318.74,78.66,317.99,78.66,317.01z"/>
		<path d="M89.52,302.19v17.68h5.64v3.35h-9.39v-21.04H89.52z"/>
		<path d="M101.53,319.14l-0.85,4.09h-3.9l5.4-21.04h3.66l5.37,21.04h-3.9l-0.85-4.09H101.53z M104,307.25l-1.77,8.54h3.54
			L104,307.25z"/>
		<path d="M117.32,314.78v8.45h-3.75v-21.04h5.73c2.07,0,3.54,0.5,4.41,1.49c0.86,1,1.3,2.59,1.3,4.79c0,1.4-0.19,2.57-0.58,3.51
			s-1.02,1.64-1.89,2.1l3.14,9.15h-3.9l-2.65-8.45H117.32z M119.27,311.43c0.75,0,1.27-0.25,1.55-0.75c0.29-0.5,0.43-1.23,0.43-2.21
			s-0.14-1.71-0.41-2.2c-0.27-0.49-0.8-0.73-1.57-0.73h-1.95v5.88H119.27z"/>
		<path d="M146.19,308.81c0,2.24-0.45,3.9-1.36,5s-2.37,1.65-4.41,1.65h-1.95v7.77h-3.72v-21.04h5.67c2.07,0,3.55,0.55,4.44,1.65
			C145.75,304.94,146.19,306.59,146.19,308.81z M142.44,308.81c0-1.12-0.16-1.94-0.47-2.47c-0.31-0.53-0.87-0.79-1.66-0.79h-1.83
			v6.52h1.83c0.79,0,1.35-0.26,1.66-0.79C142.29,310.75,142.44,309.93,142.44,308.81z"/>
		<path d="M152.57,319.14l-0.85,4.09h-3.9l5.4-21.04h3.66l5.37,21.04h-3.9l-0.85-4.09H152.57z M155.04,307.25l-1.77,8.54h3.54
			L155.04,307.25z"/>
		<path d="M176.5,323.23h-3.75l-4.39-11.22v11.22h-3.75v-21.04h3.75l4.39,11.71v-11.71h3.75V323.23z"/>
		<path d="M183.7,310.85h4.88v3.35h-4.88v5.67h5.67v3.35h-9.39v-21.04h9.39v3.38h-5.67V310.85z"/>
		<path d="M196.08,302.19v17.68h5.64v3.35h-9.39v-21.04H196.08z"/>
		<path d="M203.73,317.22h3.54c0.04,1.04,0.25,1.8,0.62,2.29c0.38,0.49,0.93,0.73,1.66,0.73s1.27-0.22,1.6-0.67
			c0.33-0.45,0.5-1.16,0.5-2.13c0-0.81-0.19-1.46-0.56-1.94c-0.38-0.48-1.01-0.92-1.91-1.33l-1.43-0.64
			c-1.36-0.61-2.34-1.36-2.94-2.26s-0.9-2.09-0.9-3.6c0-1.77,0.51-3.18,1.54-4.24s2.41-1.59,4.16-1.59c1.73,0,3.06,0.52,4.01,1.57
			c0.94,1.05,1.45,2.56,1.51,4.53h-3.45c-0.02-0.96-0.19-1.67-0.5-2.15c-0.31-0.48-0.84-0.72-1.57-0.72c-1.36,0-2.04,0.8-2.04,2.41
			c0,0.73,0.17,1.32,0.5,1.75c0.33,0.44,0.9,0.83,1.69,1.17l1.37,0.61c1.46,0.65,2.53,1.46,3.19,2.44c0.66,0.98,0.99,2.28,0.99,3.9
			c0,1.95-0.51,3.46-1.52,4.51c-1.02,1.06-2.46,1.58-4.33,1.58c-1.85,0-3.26-0.54-4.24-1.62S203.75,319.24,203.73,317.22z"/>
	</g>
</g>
<g id="ikon">
	<g>
		<polygon class="st1" points="119.67,180.89 97.01,232.76 144.1,232.76 166.76,180.89 		"/>
		<polygon class="st1" points="148.03,232.76 194.61,232.76 217.27,180.89 170.69,180.89 		"/>
		<g>
			<polygon class="st2" points="90.45,132.74 80.85,154.73 90.45,132.74 			"/>
			<path class="st1" d="M90.45,132.74C90.45,132.74,90.45,132.74,90.45,132.74l3.35-7.66h24.29c0.01-0.01,0.02-0.02,0.03-0.03H93.8
				L90.45,132.74z"/>
			<path class="st1" d="M91.44,121.69v-0.24h29.45c2.71-4.21,4.28-9.22,4.28-14.59c0-14.91-12.09-27-27-27c-14.91,0-27,12.09-27,27
				c0,10.96,6.53,20.39,15.91,24.63l4.29-9.83L91.44,121.69z"/>
			<polygon class="st1" points="71.01,177.29 117.31,177.29 140.11,125.08 93.8,125.08 			"/>
			<polygon class="st1" points="172.26,177.29 218.84,177.29 241.64,125.08 195.06,125.08 			"/>
			<polygon class="st1" points="144.04,125.08 121.24,177.29 168.33,177.29 191.13,125.08 			"/>
			<polygon class="st1" points="93.08,232.76 115.74,180.89 69.44,180.89 46.8,232.76 			"/>
		</g>
		<g>
			<path class="st1" d="M54.97,107.08c0-0.01,0-0.02,0-0.03c0-0.01,0-0.02,0-0.03v-1.82h-25.3c-0.01,0.56-0.02,1.12-0.02,1.68
				c0,0.02,0,0.03,0,0.05c0,0.02,0,0.03,0,0.05c0,0.61,0.01,1.22,0.03,1.82h25.29V107.08z"/>
			<path class="st1" d="M96.43,63.79V38.55c-0.04,0-0.08,0-0.13,0v25.24H96.43z"/>
			<path class="st1" d="M69.03,75.16L51.09,57.21c-0.87,0.82-1.72,1.67-2.55,2.54l17.94,17.94C67.3,76.81,68.15,75.97,69.03,75.16z"
				/>
			<path class="st1" d="M166.44,105.21h-25.08v0.57c0.01,0.43,0.02,0.85,0.02,1.28c0,0.43-0.01,0.86-0.02,1.28v0.47h25.08
				c0.02-0.62,0.03-1.24,0.03-1.87C166.47,106.36,166.46,105.78,166.44,105.21z"/>
			<path class="st1" d="M96.43,38.55v25.25h3.47h0.13V38.56c-0.65-0.02-1.31-0.03-1.97-0.03C97.51,38.53,96.97,38.53,96.43,38.55z"
				/>
			<path class="st1" d="M129.86,77.68l17.82-17.82c-0.83-0.87-1.67-1.72-2.54-2.55L127.3,75.15
				C128.19,75.96,129.04,76.8,129.86,77.68z"/>
			<path class="st1" d="M66.35,136.27l-17.83,17.83c0.83,0.87,1.68,1.72,2.55,2.54l17.82-17.82
				C68.01,138.01,67.16,137.16,66.35,136.27z"/>
		</g>
	</g>
</g>
</svg>
