<?xml version="1.0" encoding="utf-8"?>
<!-- Generator: Adobe Illustrator 25.4.1, SVG Export Plug-In . SVG Version: 6.00 Build 0)  -->
<svg version="1.1" xmlns="http://www.w3.org/2000/svg" xmlns:xlink="http://www.w3.org/1999/xlink" x="0px" y="0px"
	 viewBox="0 0 271.29 356.19" style="enable-background:new 0 0 271.29 356.19;" xml:space="preserve">
<style type="text/css">
	.st0{fill:#004772;}
	.st1{fill:#FFFFFF;}
	.st2{fill:#004778;}
</style>
<g id="bakgrund">
	<g>
		<rect x="1.21" y="1.14" class="st0" width="269.29" height="269.29"/>
		<path class="st0" d="M271.5,271.43H0.21V0.14H271.5V271.43z M2.21,269.43H269.5V2.14H2.21V269.43z"/>
	</g>
	<rect x="1" y="270.15" class="st1" width="269.29" height="85.04"/>
	<path class="st2" d="M271.29,356.19H0v-87.04h271.29V356.19z M2,354.19h267.29v-83.04H2V354.19z"/>
</g>
<g id="namn">
	<g>
		<path d="M45.18,317.19h3.54c0.04,1.04,0.25,1.8,0.62,2.29c0.38,0.49,0.93,0.73,1.66,0.73s1.27-0.22,1.6-0.67
			c0.33-0.45,0.5-1.16,0.5-2.13c0-0.81-0.19-1.46-0.56-1.94c-0.38-0.48-1.01-0.92-1.91-1.33l-1.43-0.64
			c-1.36-0.61-2.34-1.36-2.94-2.26c-0.6-0.89-0.9-2.09-0.9-3.6c0-1.77,0.51-3.18,1.54-4.24s2.41-1.59,4.16-1.59
			c1.73,0,3.06,0.52,4.01,1.57c0.94,1.05,1.45,2.56,1.51,4.53h-3.45c-0.02-0.96-0.19-1.67-0.5-2.15c-0.31-0.48-0.84-0.72-1.57-0.72
			c-1.36,0-2.04,0.8-2.04,2.41c0,0.73,0.17,1.32,0.5,1.75c0.33,0.44,0.9,0.83,1.69,1.17l1.37,0.61c1.46,0.65,2.53,1.46,3.19,2.44
			c0.66,0.98,0.99,2.28,0.99,3.9c0,1.95-0.51,3.46-1.52,4.51c-1.02,1.06-2.46,1.58-4.33,1.58c-1.85,0-3.26-0.54-4.24-1.62
			S45.2,319.21,45.18,317.19z"/>
		<path d="M66.01,305.55v17.65h-3.72v-17.65h-3.66v-3.38h11.01v3.38H66.01z"/>
		<path d="M71.83,317.41v-9.48c0-1.99,0.56-3.5,1.68-4.53c1.12-1.03,2.59-1.54,4.42-1.54c1.77,0,3.19,0.51,4.25,1.54
			c1.07,1.03,1.6,2.54,1.6,4.53v9.48c0,1.95-0.56,3.44-1.69,4.48c-1.13,1.04-2.59,1.55-4.37,1.55c-1.81,0-3.24-0.51-4.3-1.54
			C72.36,320.88,71.83,319.38,71.83,317.41z M80.03,316.98v-8.44c0-1.08-0.18-1.9-0.55-2.45c-0.37-0.56-0.91-0.84-1.65-0.84
			c-0.79,0-1.37,0.27-1.72,0.82c-0.36,0.55-0.53,1.37-0.53,2.47v8.44c0,2.05,0.75,3.08,2.26,3.08c0.71,0,1.26-0.27,1.63-0.81
			S80.03,317.96,80.03,316.98z"/>
		<path d="M99.03,323.2h-3.75l-4.39-11.22v11.22h-3.75v-21.04h3.75l4.39,11.71v-11.71h3.75V323.2z"/>
		<path d="M106.22,310.82h4.88v3.35h-4.88v5.67h5.67v3.35h-9.39v-21.04h9.39v3.38h-5.67V310.82z"/>
		<path d="M133.94,320.12h0.37v3.08h-1.46c-0.67,0-1.18-0.12-1.54-0.37s-0.75-0.7-1.17-1.37c-0.57,0.73-1.21,1.25-1.92,1.57
			c-0.71,0.31-1.53,0.47-2.47,0.47c-1.42,0-2.57-0.45-3.44-1.34s-1.31-2.08-1.31-3.57c0-1.06,0.26-2.1,0.78-3.12
			c0.52-1.03,1.39-2.19,2.61-3.49c-0.79-1.3-1.36-2.34-1.69-3.12c-0.33-0.78-0.5-1.57-0.5-2.36c0-1.38,0.44-2.5,1.31-3.35
			s2.01-1.28,3.42-1.28c1.38,0,2.51,0.43,3.38,1.28s1.31,1.97,1.31,3.35c0,0.89-0.23,1.81-0.7,2.74c-0.47,0.93-1.25,1.99-2.35,3.17
			l1.86,3.11l1.4-2.26l2.53,1.74l-2.2,3.42l0.55,0.91c0.16,0.29,0.34,0.49,0.53,0.61C133.41,320.06,133.65,320.12,133.94,320.12z
			 M128.45,318.69l-2.35-3.84c-0.59,0.67-1,1.26-1.23,1.78c-0.23,0.52-0.35,1.05-0.35,1.6c0,0.65,0.15,1.15,0.44,1.49
			c0.29,0.35,0.7,0.52,1.21,0.52c0.41,0,0.78-0.11,1.13-0.33C127.64,319.68,128.02,319.28,128.45,318.69z M125.55,306.31
			c0,0.37,0.09,0.79,0.26,1.27c0.17,0.48,0.49,1.11,0.96,1.9c0.57-0.65,0.95-1.2,1.14-1.66c0.19-0.46,0.29-0.96,0.29-1.51
			s-0.12-0.97-0.35-1.25c-0.23-0.29-0.55-0.43-0.96-0.43c-0.43,0-0.76,0.15-0.99,0.44C125.67,305.37,125.55,305.78,125.55,306.31z"
			/>
		<path d="M143.82,317.41v-9.48c0-1.99,0.56-3.5,1.68-4.53c1.12-1.03,2.59-1.54,4.42-1.54c1.75,0,3.16,0.5,4.24,1.49
			c1.08,1,1.62,2.47,1.62,4.42v0.64h-3.75v-0.64c0-0.81-0.2-1.44-0.61-1.88c-0.41-0.44-0.94-0.66-1.59-0.66
			c-0.79,0-1.37,0.27-1.72,0.82c-0.36,0.55-0.53,1.37-0.53,2.47v8.44c0,2.05,0.75,3.08,2.26,3.08c0.73,0,1.28-0.25,1.65-0.75
			c0.37-0.5,0.55-1.21,0.55-2.15v-2.23h-2.23v-2.96h5.98v5.43c0,1.95-0.56,3.44-1.69,4.48c-1.13,1.04-2.59,1.55-4.37,1.55
			c-1.81,0-3.24-0.51-4.3-1.54C144.35,320.88,143.82,319.38,143.82,317.41z"/>
		<path d="M162.87,314.75v8.44h-3.75v-21.04h5.73c2.07,0,3.54,0.5,4.41,1.49c0.86,1,1.3,2.59,1.3,4.79c0,1.4-0.19,2.57-0.58,3.51
			c-0.39,0.93-1.02,1.63-1.89,2.1l3.14,9.15h-3.9l-2.65-8.44H162.87z M164.82,311.4c0.75,0,1.27-0.25,1.55-0.75
			c0.29-0.5,0.43-1.23,0.43-2.21s-0.14-1.71-0.41-2.19c-0.27-0.49-0.8-0.73-1.57-0.73h-1.95v5.88H164.82z"/>
		<path d="M177.72,319.11l-0.85,4.08h-3.9l5.4-21.04h3.66l5.37,21.04h-3.9l-0.85-4.08H177.72z M180.19,307.22l-1.77,8.54h3.54
			L180.19,307.22z"/>
		<path d="M192.78,302.16l2.53,15.73l2.56-15.73h4.12l-4.73,21.04h-3.87l-4.73-21.04H192.78z"/>
		<path d="M208.09,310.82h4.88v3.35h-4.88v5.67h5.67v3.35h-9.39v-21.04h9.39v3.38h-5.67V310.82z"/>
		<path d="M220.47,302.16v17.68h5.64v3.35h-9.39v-21.04H220.47z"/>
	</g>
</g>
<g id="ikon">
	<g>
		<g>
			<g>
				<path class="st1" d="M130.18,172.28c-2.48,1.95-5.01,0.72-5.28,4.1c-0.2,2.49-1.51,3.32-0.78,6.94
					c0.46,2.27,0.44,4.29,4.01,4.79c2.74,0.39,4.71-0.38,8.58-0.25c2.84,0.1,5.77,2.76,10.54-3.88c1.58-2.21,0.6-2.02,0.58-4.95
					c-0.01-2.92-2.08-2.25-4.01-4.16c-1.93-1.91-3.26-3.27-6.18-3.26C135.18,171.62,131.97,170.86,130.18,172.28z"/>
			</g>
		</g>
		<g>
			<g>
				<path class="st1" d="M87.52,174.51c2.04,2.1,3.94,2.1,6.65,2.14c2.72,0.04,3.68,1.99,5.78-0.04c2.1-2.04,2.66-1.2,3.13-3.87
					c1.41-8.05-2.54-8.29-4.6-10.25c-2.8-2.67-3.62-4.62-5.82-6.31c-2.85-2.19-4.28-0.77-6.23,0.49c-3.1,2-2.78,3.52-4.42,5.4
					c-2.23,2.56,0.43,3.5,0.76,6.64C83.03,170.98,85.82,172.74,87.52,174.51z"/>
			</g>
		</g>
		<g>
			<g>
				<path class="st1" d="M66.91,160.3c2.13-2.01,2.15-3.91,2.22-6.62c0.08-2.71,2.03-3.66,0.03-5.78c-2.01-2.13-1.17-2.67-3.84-3.18
					c-8.03-1.51-8.32,2.44-10.31,4.48c-2.71,2.77-4.66,3.57-6.37,5.74c-2.23,2.83-0.82,4.27,0.41,6.23
					c1.96,3.13,3.49,2.82,5.35,4.48c2.53,2.26,3.51-0.38,6.65-0.68C63.33,164.76,65.13,161.99,66.91,160.3z"/>
			</g>
		</g>
		<g>
			<g>
				<path class="st1" d="M125.82,142.07c-2.63,1.28-3.22,3.09-4.11,5.65c-0.89,2.57-3.04,2.88-1.76,5.51
					c1.28,2.63,0.31,2.9,2.71,4.18c7.21,3.85,8.67,0.17,11.17-1.18c3.41-1.83,5.52-2,7.8-3.57c2.97-2.03,2.06-3.83,1.48-6.07
					c-0.93-3.57-2.48-3.74-3.76-5.88c-1.74-2.92-3.46-0.69-6.55-1.35C130.57,138.89,128.03,140.99,125.82,142.07z"/>
			</g>
		</g>
		<g>
			<g>
				<path class="st1" d="M203.11,131.51c-1.92-2.21-3.82-2.31-6.53-2.49c-2.71-0.19-3.57-2.18-5.78-0.26
					c-2.21,1.92-2.72,1.06-3.33,3.7c-1.83,7.97,2.1,8.41,4.05,10.48c2.66,2.82,3.37,4.8,5.48,6.6c2.73,2.34,4.23,1,6.25-0.16
					c3.21-1.83,2.96-3.37,4.7-5.16c2.36-2.44-0.24-3.52-0.41-6.67C207.41,135.27,204.72,133.36,203.11,131.51z"/>
			</g>
		</g>
		<g>
			<g>
				<path class="st1" d="M159.3,158.22c-0.12,3.15-2.71,4.27-0.31,6.68c1.76,1.77,1.54,3.31,4.77,5.09
					c2.03,1.12,3.55,2.45,6.25,0.07c2.08-1.83,2.77-3.83,5.38-6.68c1.92-2.1,5.85-2.6,3.9-10.54c-0.65-2.64-1.15-1.76-3.38-3.65
					c-2.23-1.89-3.07,0.12-5.77,0.35c-2.71,0.23-4.6,0.35-6.49,2.59C162.05,153.99,159.39,155.94,159.3,158.22z"/>
			</g>
		</g>
		<g>
			<g>
				<path class="st1" d="M229.48,173.19c1.27-2.89,4.08-2.99,2.73-6.1c-0.99-2.29-0.23-3.64-2.58-6.48
					c-1.48-1.79-2.41-3.57-5.79-2.34c-2.6,0.95-3.97,2.55-7.45,4.26c-2.55,1.25-6.39,0.28-7.48,8.39c-0.36,2.69,0.42,2.06,1.81,4.64
					c1.39,2.57,2.9,1.01,5.5,1.79c2.6,0.78,4.41,1.35,6.99-0.04C225.38,176.12,228.57,175.28,229.48,173.19z"/>
			</g>
		</g>
		<g>
			<g>
				<path class="st1" d="M113.18,113.8c0.52-3.11,3.23-3.9,1.15-6.59c-1.52-1.98-1.11-3.47-4.09-5.66
					c-1.87-1.37-3.21-2.87-6.19-0.86c-2.29,1.55-3.23,3.45-6.18,5.95c-2.17,1.84-6.13,1.84-5.2,9.96c0.31,2.7,0.92,1.9,2.89,4.05
					c1.98,2.16,3.06,0.27,5.77,0.39c2.71,0.12,4.61,0.23,6.77-1.75C109.91,117.65,112.8,116.05,113.18,113.8z"/>
			</g>
		</g>
		<g>
			<g>
				<path class="st1" d="M152.69,88.7c-3.13,0.44-4.69-1.91-6.63,0.88c-1.43,2.05-2.98,2.1-4.17,5.6c-0.75,2.2-1.78,3.92,1.04,6.16
					c2.17,1.72,4.26,2.04,7.53,4.11c2.4,1.52,3.59,5.29,11.06,1.97c2.48-1.11,1.53-1.44,3-3.98c1.46-2.53-0.66-3-1.36-5.62
					c-0.7-2.62-1.16-4.47-3.7-5.93C157.34,90.66,154.95,88.38,152.69,88.7z"/>
			</g>
		</g>
		<g>
			<g>
				<path class="st1" d="M31.54,176.16c-2.16,0.4-2.95,1.59-4.1,3.27c-1.15,1.68-2.77,1.47-2.37,3.63c0.4,2.16-0.35,2.16,1.12,3.56
					c4.45,4.22,6.23,1.85,8.31,1.38c2.83-0.64,4.39-0.35,6.35-1.02c2.55-0.87,2.26-2.35,2.28-4.09c0.04-2.77-1.05-3.2-1.54-5
					c-0.68-2.45-2.37-1.19-4.47-2.28C35.61,174.82,33.35,175.83,31.54,176.16z"/>
			</g>
		</g>
		<g>
			<g>
				<path class="st1" d="M73.29,174.3c0.69-2.27,2.77-2.59,1.49-4.79c-0.94-1.62-0.49-2.69-2.5-4.6c-1.26-1.2-2.11-2.45-4.52-1.23
					c-1.85,0.94-2.73,2.25-5.17,3.83c-1.79,1.16-4.74,0.78-4.82,6.91c-0.03,2.04,0.5,1.5,1.76,3.29c1.26,1.79,2.25,0.49,4.25,0.84
					c2.01,0.35,3.41,0.61,5.2-0.65C70.49,176.85,72.8,175.94,73.29,174.3z"/>
			</g>
		</g>
		<g>
			<g>
				<path class="st1" d="M83,188.2c2.34-0.37,3.54,1.37,4.96-0.75c1.04-1.55,2.21-1.62,3.05-4.25c0.53-1.66,1.28-2.97-0.87-4.61
					c-1.65-1.26-3.22-1.47-5.7-2.98c-1.82-1.11-2.77-3.92-8.32-1.32c-1.84,0.86-1.13,1.1-2.19,3.02c-1.06,1.92,0.54,2.24,1.1,4.19
					s0.93,3.33,2.85,4.4C79.49,186.8,81.31,188.47,83,188.2z"/>
			</g>
		</g>
		<g>
			<g>
				<path class="st1" d="M114.25,173.38c-2.36-0.12-3.18-2.07-5.01-0.3c-1.34,1.3-2.49,1.12-3.86,3.53
					c-0.86,1.51-1.87,2.64-0.11,4.68c1.35,1.58,2.85,2.11,4.96,4.1c1.55,1.46,1.9,4.41,7.87,3.02c1.98-0.46,1.33-0.84,2.77-2.5
					c1.44-1.66-0.06-2.3-0.21-4.33c-0.15-2.03-0.22-3.45-1.88-4.89C117.4,175.49,115.96,173.47,114.25,173.38z"/>
			</g>
		</g>
		<g>
			<g>
				<path class="st1" d="M95.86,180.97c-1.25,0.97-2.51,0.34-2.65,2.03c-0.11,1.24-0.77,1.65-0.41,3.47
					c0.23,1.14,0.21,2.14,1.99,2.41c1.37,0.2,2.35-0.18,4.29-0.1c1.42,0.06,2.88,1.4,5.28-1.91c0.8-1.1,0.3-1.01,0.31-2.47
					c0-1.46-1.03-1.13-1.99-2.09c-0.96-0.96-1.62-1.64-3.08-1.65C98.36,180.66,96.76,180.27,95.86,180.97z"/>
			</g>
		</g>
		<g>
			<g>
				<path class="st1" d="M119.1,162.52c0.46-2.32,2.51-2.85,1.01-4.91c-1.1-1.51-0.75-2.63-2.94-4.33
					c-1.37-1.07-2.34-2.23-4.62-0.78c-1.75,1.11-2.5,2.51-4.77,4.32c-1.67,1.33-4.64,1.24-4.12,7.35c0.17,2.03,0.64,1.44,2.08,3.1
					c1.43,1.66,2.29,0.27,4.32,0.42c2.03,0.15,3.45,0.28,5.11-1.16C116.57,165.33,118.77,164.2,119.1,162.52z"/>
			</g>
		</g>
		<g>
			<g>
				<path class="st1" d="M118.79,166.23c-1.03,1.04-1,1.99-0.99,3.35c0.01,1.36-0.95,1.86,0.09,2.89c1.04,1.03,0.63,1.32,1.97,1.52
					c4.04,0.61,4.11-1.37,5.07-2.42c1.3-1.43,2.27-1.87,3.08-2.98c1.06-1.45,0.34-2.15-0.32-3.11c-1.04-1.53-1.79-1.35-2.75-2.14
					c-1.31-1.08-1.75,0.25-3.31,0.46C120.5,163.95,119.65,165.36,118.79,166.23z"/>
			</g>
		</g>
		<g>
			<g>
				<path class="st1" d="M145.73,167.41c1.47-1.85,3.53-1.39,3.15-3.9c-0.28-1.85,0.53-2.68-0.63-5.2
					c-0.73-1.58-1.06-3.05-3.75-2.81c-2.07,0.19-3.37,1.09-6.22,1.66c-2.09,0.42-4.69-1.02-7.03,4.65
					c-0.78,1.88-0.09,1.58,0.43,3.71c0.51,2.13,1.91,1.29,3.65,2.35c1.74,1.06,2.94,1.82,5.07,1.31
					C142.19,168.75,144.67,168.75,145.73,167.41z"/>
			</g>
		</g>
		<g>
			<g>
				<path class="st1" d="M91.2,121.55c-2.69-1.16-4.44-0.43-6.96,0.57c-2.52,1-4.16-0.43-5.32,2.26c-1.16,2.69-2,2.13-1.4,4.78
					c1.78,7.98,5.53,6.68,8.18,7.7c3.61,1.39,5.12,2.88,7.79,3.59c3.48,0.93,4.25-0.93,5.57-2.84c2.1-3.04,1.22-4.32,2.01-6.68
					c1.08-3.22-1.74-3.07-3.25-5.84C96.71,123.08,93.45,122.52,91.2,121.55z"/>
			</g>
		</g>
		<g>
			<g>
				<path class="st1" d="M104.69,153.89c0.8-1.23,0.59-2.15,0.31-3.48c-0.28-1.33,0.56-2.02-0.66-2.81c-1.23-0.8-0.88-1.16-2.24-1.1
					c-4.08,0.2-3.76,2.16-4.49,3.38c-0.99,1.66-1.85,2.28-2.43,3.54c-0.75,1.63,0.1,2.17,0.93,2.98c1.32,1.29,2.03,0.96,3.12,1.55
					c1.5,0.8,1.66-0.6,3.15-1.11C103.47,156.48,104.02,154.92,104.69,153.89z"/>
			</g>
		</g>
		<g>
			<g>
				<path class="st1" d="M79.39,155.24c-1.14-1.09-0.7-2.43-2.4-2.33c-1.24,0.07-1.75-0.52-3.49,0.1c-1.09,0.39-2.09,0.52-2.1,2.32
					c0,1.38,0.52,2.3,0.72,4.23c0.15,1.41-0.97,3.05,2.65,4.95c1.2,0.63,1.04,0.16,2.49-0.05c1.45-0.21,0.97-1.19,1.78-2.27
					c0.81-1.09,1.39-1.84,1.18-3.29C80.06,157.67,80.21,156.03,79.39,155.24z"/>
			</g>
		</g>
		<g>
			<g>
				<path class="st1" d="M67.35,138.72c-0.09,1.58-1.39,2.11-0.21,3.34c0.87,0.9,0.74,1.67,2.34,2.59c1.01,0.58,1.75,1.25,3.12,0.08
					c1.05-0.9,1.41-1.89,2.75-3.3c0.98-1.03,2.95-1.25,2.04-5.24c-0.3-1.32-0.56-0.89-1.66-1.86c-1.1-0.96-1.53,0.03-2.89,0.13
					c-1.35,0.09-2.3,0.14-3.27,1.24C68.77,136.63,67.42,137.58,67.35,138.72z"/>
			</g>
		</g>
		<g>
			<g>
				<path class="st1" d="M84.85,153c2.07,0.73,3.34,0.09,5.18-0.79c1.84-0.88,3.14,0.1,3.86-1.97c0.73-2.07,1.38-1.7,0.8-3.65
					c-1.75-5.87-4.49-4.71-6.52-5.33c-2.78-0.85-3.98-1.88-6.02-2.28c-2.65-0.51-3.13,0.92-4.01,2.42
					c-1.41,2.38-0.68,3.29-1.15,5.11c-0.64,2.47,1.46,2.21,2.74,4.2C80.65,152.15,83.11,152.39,84.85,153z"/>
			</g>
		</g>
		<g>
			<g>
				<path class="st1" d="M235.34,186.93c1.73,1.35,3.14,1.14,5.17,0.89c2.02-0.25,2.94,1.09,4.29-0.64
					c1.35-1.73,1.85-1.17,1.91-3.21c0.2-6.13-2.76-5.89-4.5-7.12c-2.36-1.69-3.18-3.05-4.99-4.07c-2.35-1.32-3.26-0.12-4.57,1.02
					c-2.09,1.81-1.69,2.91-2.71,4.48c-1.38,2.14,0.69,2.56,1.27,4.85C231.62,184.78,233.88,185.8,235.34,186.93z"/>
			</g>
		</g>
		<g>
			<g>
				<path class="st1" d="M222.82,188.35c1.42-0.36,1.89-1.18,2.59-2.34c0.7-1.16,1.78-1.1,1.43-2.51c-0.36-1.42,0.15-1.45-0.89-2.32
					c-3.13-2.63-4.22-0.97-5.59-0.57c-1.86,0.54-2.91,0.41-4.19,0.94c-1.66,0.69-1.4,1.66-1.35,2.82c0.09,1.84,0.83,2.08,1.23,3.26
					c0.55,1.61,1.62,0.69,3.07,1.33C220.17,189.41,221.63,188.65,222.82,188.35z"/>
			</g>
		</g>
		<g>
			<g>
				<path class="st1" d="M171.79,121.51c-2.77-0.95-4.46-0.08-6.9,1.11c-2.44,1.2-4.18-0.1-5.13,2.67
					c-0.95,2.77-1.82,2.28-1.03,4.87c2.4,7.81,6.03,6.23,8.76,7.04c3.71,1.11,5.33,2.47,8.05,2.97c3.54,0.65,4.16-1.26,5.33-3.27
					c1.86-3.19,0.88-4.4,1.48-6.82c0.82-3.29-1.97-2.93-3.7-5.57C177.4,122.61,174.11,122.31,171.79,121.51z"/>
			</g>
		</g>
		<g>
			<g>
				<path class="st1" d="M206.12,149.87c-1.92,1.06-2.3,2.43-2.86,4.39c-0.57,1.96-2.17,2.27-1.11,4.19
					c1.06,1.92,0.34,2.16,2.19,3.03c5.55,2.61,6.5-0.21,8.32-1.31c2.49-1.5,4.06-1.71,5.71-2.97c2.15-1.63,1.4-2.94,0.87-4.6
					c-0.84-2.64-2-2.71-3.04-4.26c-1.41-2.12-2.62-0.38-4.96-0.76C209.56,147.31,207.73,148.99,206.12,149.87z"/>
			</g>
		</g>
		<g>
			<g>
				<path class="st1" d="M188.64,172.35c0.54-2.31,2.6-2.76,1.17-4.88c-1.05-1.55-0.67-2.65-2.79-4.43
					c-1.34-1.11-2.27-2.3-4.59-0.93c-1.79,1.05-2.58,2.43-4.91,4.16c-1.71,1.27-4.67,1.09-4.36,7.21c0.11,2.03,0.6,1.46,1.97,3.17
					c1.38,1.71,2.27,0.35,4.3,0.56c2.03,0.22,3.44,0.39,5.15-0.99C186.02,175.07,188.26,174.02,188.64,172.35z"/>
			</g>
		</g>
		<g>
			<g>
				<path class="st1" d="M192.27,153.01c-1.39-0.45-2.23,0-3.44,0.63c-1.21,0.62-2.09-0.01-2.54,1.39
					c-0.45,1.39-0.89,1.16-0.46,2.45c1.28,3.88,3.08,3.05,4.45,3.43c1.87,0.52,2.69,1.18,4.05,1.4c1.78,0.29,2.07-0.67,2.63-1.69
					c0.89-1.62,0.39-2.21,0.67-3.42c0.38-1.66-1.02-1.44-1.91-2.75C195.09,153.5,193.44,153.38,192.27,153.01z"/>
			</g>
		</g>
		<g>
			<g>
				<path class="st1" d="M194.95,166.54c-1.26,0.74-1.49,1.66-1.83,2.97c-0.34,1.31-1.41,1.55-0.67,2.81
					c0.74,1.26,0.27,1.43,1.51,1.98c3.74,1.64,4.33-0.25,5.53-1.01c1.63-1.04,2.67-1.21,3.76-2.08c1.4-1.13,0.88-1.99,0.51-3.08
					c-0.6-1.75-1.38-1.77-2.1-2.79c-0.98-1.39-1.75-0.21-3.32-0.42C197.2,164.78,196.01,165.92,194.95,166.54z"/>
			</g>
		</g>
		<g>
			<g>
				<path class="st1" d="M207.53,185.61c1.11-2.09,3.22-2.01,2.37-4.42c-0.62-1.77,0.03-2.73-1.58-4.99
					c-1.01-1.42-1.61-2.8-4.2-2.07c-2,0.57-3.11,1.69-5.81,2.78c-1.98,0.8-4.8-0.14-6.05,5.87c-0.41,1.99,0.2,1.57,1.1,3.57
					c0.9,2,2.11,0.91,4.02,1.64c1.9,0.72,3.23,1.25,5.23,0.35C204.3,187.57,206.73,187.12,207.53,185.61z"/>
			</g>
		</g>
		<g>
			<g>
				<path class="st1" d="M159.95,170.61c-1.99-1.29-1.72-3.38-4.19-2.76c-1.81,0.46-2.72-0.27-5.11,1.13c-1.5,0.88-2.94,1.35-2.43,4
					c0.39,2.04,1.41,3.25,2.25,6.03c0.62,2.04-0.56,4.77,5.31,6.55c1.95,0.59,1.58-0.07,3.65-0.78c2.07-0.72,1.1-2.02,1.99-3.86
					c0.89-1.83,1.53-3.1,0.81-5.18C161.63,174,161.39,171.54,159.95,170.61z"/>
			</g>
		</g>
		<g>
			<g>
				<path class="st1" d="M181.74,179.53c-1.46,0.15-2.04,0.9-2.9,1.95c-0.86,1.05-1.92,0.83-1.77,2.29
					c0.15,1.46-0.35,1.42,0.56,2.43c2.73,3.04,4.04,1.56,5.45,1.36c1.92-0.28,2.94,0,4.28-0.34c1.74-0.44,1.62-1.44,1.73-2.6
					c0.17-1.84-0.53-2.18-0.76-3.41c-0.32-1.67-1.51-0.92-2.85-1.75C184.51,178.85,182.96,179.41,181.74,179.53z"/>
			</g>
		</g>
		<g>
			<g>
				<path class="st1" d="M173.5,181.96c-0.42-1.52,0.64-2.45-0.87-3.23c-1.11-0.57-1.24-1.34-3.05-1.7
					c-1.14-0.22-2.06-0.62-2.98,0.92c-0.71,1.19-0.73,2.24-1.54,4c-0.59,1.29-2.39,2.13-0.25,5.61c0.71,1.16,0.82,0.66,2.17,1.22
					c1.35,0.56,1.44-0.53,2.7-1.05c1.25-0.52,2.14-0.87,2.69-2.22C172.84,184.39,173.81,183.06,173.5,181.96z"/>
			</g>
		</g>
		<g>
			<g>
				<path class="st1" d="M180.43,150.55c0.94,1.13,1.88,1.2,3.23,1.32c1.35,0.12,1.76,1.13,2.88,0.2c1.13-0.94,1.37-0.5,1.71-1.81
					c1.01-3.96-0.95-4.23-1.9-5.29c-1.3-1.44-1.63-2.44-2.66-3.36c-1.34-1.2-2.1-0.55-3.12,0.01c-1.62,0.88-1.52,1.65-2.41,2.53
					c-1.21,1.19,0.08,1.76,0.13,3.34C178.32,148.63,179.64,149.61,180.43,150.55z"/>
			</g>
		</g>
		<g>
			<g>
				<path class="st1" d="M186.21,116c-1.08-0.99-2.03-0.93-3.38-0.87c-1.36,0.06-1.9-0.88-2.88,0.19c-0.99,1.08-1.29,0.68-1.45,2.03
					c-0.47,4.06,1.51,4.06,2.6,4.98c1.48,1.25,1.95,2.2,3.09,2.97c1.49,1.01,2.16,0.26,3.09-0.43c1.49-1.09,1.28-1.84,2.04-2.83
					c1.04-1.34-0.32-1.74-0.58-3.29C188.55,117.63,187.11,116.83,186.21,116z"/>
			</g>
		</g>
		<g>
			<g>
				<path class="st1" d="M149.1,155.19c-0.07,1.46,0.58,2.15,1.49,3.16c0.91,1.01,0.53,2.02,1.99,2.09
					c1.46,0.07,1.35,0.56,2.48-0.19c3.42-2.24,2.15-3.76,2.16-5.18c0.02-1.94,0.44-2.9,0.31-4.28c-0.18-1.79-1.18-1.82-2.31-2.1
					c-1.79-0.45-2.24,0.19-3.48,0.24c-1.7,0.06-1.13,1.35-2.16,2.55C148.84,152.34,149.16,153.96,149.1,155.19z"/>
			</g>
		</g>
		<g>
			<g>
				<path class="st1" d="M160.55,140.97c-0.89,1.31-2.28,1.1-1.9,2.75c0.28,1.22-0.22,1.81,0.68,3.42c0.56,1.01,0.86,1.98,2.63,1.68
					c1.37-0.23,2.19-0.89,4.05-1.41c1.37-0.38,3.17,0.45,4.44-3.44c0.42-1.29-0.02-1.05-0.47-2.45c-0.45-1.39-1.33-0.76-2.54-1.38
					c-1.21-0.62-2.05-1.07-3.44-0.62C162.84,139.9,161.19,140.03,160.55,140.97z"/>
			</g>
		</g>
		<g>
			<g>
				<path class="st1" d="M142.65,139.34c0.73,2.25-0.8,3.71,1.51,4.78c1.7,0.79,1.94,1.93,4.68,2.35c1.72,0.26,3.13,0.8,4.41-1.57
					c0.99-1.83,0.95-3.41,2.06-6.1c0.81-1.97,3.44-3.35,0.01-8.43c-1.14-1.69-1.27-0.94-3.33-1.7c-2.06-0.75-2.13,0.88-3.97,1.74
					c-1.85,0.86-3.15,1.44-3.9,3.5C143.49,135.65,142.12,137.71,142.65,139.34z"/>
			</g>
		</g>
		<g>
			<g>
				<path class="st1" d="M176.02,114.4c0.64-2.28,2.72-2.65,1.39-4.82c-0.98-1.59-0.55-2.68-2.6-4.54c-1.29-1.17-2.17-2.4-4.55-1.13
					c-1.83,0.98-2.68,2.31-5.09,3.94c-1.76,1.2-4.72,0.88-4.67,7.01c0.02,2.04,0.53,1.49,1.84,3.25c1.3,1.76,2.26,0.44,4.27,0.75
					c2.01,0.3,3.42,0.54,5.19-0.76C173.27,117.01,175.56,116.05,176.02,114.4z"/>
			</g>
		</g>
		<g>
			<g>
				<path class="st1" d="M127.93,122.36c-1.61,2.45-1.19,4.3-0.64,6.96c0.55,2.66-1.14,4.03,1.3,5.63c2.45,1.61,1.75,2.33,4.46,2.21
					c8.17-0.38,7.53-4.29,9-6.72c2-3.32,3.72-4.54,4.88-7.05c1.52-3.26-0.18-4.34-1.83-5.97c-2.63-2.59-4.04-1.94-6.24-3.13
					c-2.99-1.62-3.33,1.18-6.32,2.19C130.39,117.2,129.28,120.31,127.93,122.36z"/>
			</g>
		</g>
		<g>
			<g>
				<path class="st1" d="M158.63,121.6c0.68-1.3,0.38-2.2-0.02-3.49c-0.4-1.3,0.37-2.06-0.92-2.74c-1.3-0.68-0.99-1.08-2.33-0.88
					c-4.05,0.58-3.54,2.5-4.15,3.78c-0.83,1.75-1.63,2.44-2.09,3.75c-0.6,1.7,0.3,2.15,1.2,2.88c1.43,1.16,2.11,0.77,3.26,1.26
					c1.56,0.66,1.6-0.75,3.04-1.4C157.65,124.28,158.05,122.68,158.63,121.6z"/>
			</g>
		</g>
		<g>
			<g>
				<path class="st1" d="M111.46,134.72c-2.32-0.48-2.83-2.53-4.9-1.05c-1.52,1.09-2.63,0.73-4.35,2.91
					c-1.08,1.37-2.24,2.33-0.81,4.61c1.1,1.76,2.49,2.52,4.29,4.8c1.32,1.68,1.21,4.65,7.32,4.17c2.03-0.16,1.45-0.63,3.12-2.06
					c1.67-1.42,0.29-2.28,0.45-4.31c0.16-2.03,0.3-3.45-1.12-5.12C114.25,137.28,113.13,135.07,111.46,134.72z"/>
			</g>
		</g>
		<g>
			<g>
				<path class="st1" d="M144.73,105.02c-1.54,0.33-2.4-0.79-3.28,0.67c-0.64,1.07-1.41,1.15-1.89,2.94
					c-0.3,1.12-0.75,2.02,0.73,3.04c1.14,0.78,2.19,0.87,3.9,1.79c1.25,0.67,1.98,2.52,5.59,0.6c1.2-0.64,0.72-0.77,1.36-2.09
					c0.64-1.31-0.43-1.47-0.87-2.76c-0.44-1.28-0.73-2.19-2.05-2.83C147.12,105.84,145.85,104.78,144.73,105.02z"/>
			</g>
		</g>
		<g>
			<g>
				<path class="st1" d="M132.86,112.27c1.46-1.86,3.52-1.41,3.12-3.92c-0.29-1.85,0.52-2.69-0.66-5.19
					c-0.74-1.58-1.08-3.05-3.77-2.79c-2.07,0.2-3.36,1.11-6.21,1.7c-2.09,0.43-4.7-0.99-7,4.69c-0.76,1.89-0.08,1.58,0.45,3.71
					c0.53,2.13,1.92,1.27,3.66,2.33c1.74,1.05,2.95,1.81,5.08,1.28C129.33,113.63,131.81,113.62,132.86,112.27z"/>
			</g>
		</g>
		<g>
			<g>
				<path class="st1" d="M110.5,122.26c-1.37-0.52-2.23-0.12-3.47,0.43c-1.24,0.55-2.09-0.13-2.61,1.24
					c-0.52,1.37-0.95,1.11-0.6,2.42c1.06,3.95,2.9,3.22,4.25,3.68c1.83,0.62,2.62,1.33,3.97,1.63c1.76,0.39,2.1-0.55,2.72-1.53
					c0.99-1.56,0.52-2.18,0.86-3.38c0.47-1.63-0.93-1.5-1.75-2.85C113.28,122.92,111.65,122.7,110.5,122.26z"/>
			</g>
		</g>
		<g>
			<g>
				<path class="st1" d="M124.98,131.66c-0.83-1.34-0.07-2.53-1.73-2.86c-1.22-0.24-1.56-0.94-3.4-0.79
					c-1.16,0.1-2.15-0.03-2.61,1.71c-0.35,1.34-0.08,2.36-0.37,4.27c-0.21,1.41-1.7,2.71,1.32,5.46c1,0.91,0.97,0.41,2.42,0.57
					c1.45,0.16,1.24-0.9,2.3-1.75c1.06-0.85,1.81-1.43,1.97-2.88C125.02,134.18,125.58,132.63,124.98,131.66z"/>
			</g>
		</g>
		<g>
			<g>
				<path class="st1" d="M120.87,115.36c-1.2-0.84-2.13-0.65-3.47-0.41c-1.34,0.24-2-0.62-2.83,0.58c-0.84,1.2-1.19,0.84-1.16,2.2
					c0.08,4.09,2.04,3.82,3.24,4.59c1.63,1.04,2.22,1.92,3.46,2.54c1.61,0.8,2.17-0.03,3.01-0.84c1.33-1.28,1.03-1.99,1.65-3.08
					c0.85-1.47-0.55-1.68-1.01-3.19C123.42,116.66,121.88,116.06,120.87,115.36z"/>
			</g>
		</g>
		<g>
			<g>
				<path class="st1" d="M126.96,87.36c-0.59,2.29-2.66,2.7-1.29,4.85c1.01,1.57,0.6,2.67,2.69,4.49c1.31,1.15,2.21,2.36,4.57,1.04
					c1.81-1.01,2.64-2.37,5.01-4.04c1.74-1.23,4.7-0.98,4.53-7.11c-0.06-2.04-0.56-1.48-1.9-3.22c-1.34-1.74-2.27-0.4-4.29-0.66
					c-2.02-0.26-3.43-0.47-5.17,0.87C129.65,84.7,127.39,85.71,126.96,87.36z"/>
			</g>
		</g>
		<g>
			<g>
				<path class="st1" d="M116.27,93.02c-1.4,0.44-1.82,1.29-2.45,2.49c-0.63,1.2-1.72,1.2-1.28,2.59c0.44,1.4-0.06,1.46,1.03,2.27
					c3.28,2.44,4.27,0.73,5.61,0.25c1.82-0.65,2.88-0.58,4.12-1.18c1.62-0.78,1.31-1.74,1.18-2.89c-0.2-1.84-0.95-2.03-1.42-3.19
					c-0.64-1.57-1.66-0.6-3.14-1.15C118.86,91.8,117.44,92.65,116.27,93.02z"/>
			</g>
		</g>
		<g>
			<g>
				<path class="st1" d="M51.85,188.84c1.56-0.22,2.34,0.96,3.31-0.44c0.71-1.02,1.49-1.05,2.09-2.8c0.37-1.1,0.89-1.96-0.52-3.08
					c-1.08-0.86-2.13-1.02-3.76-2.06c-1.2-0.76-1.8-2.65-5.53-0.99c-1.24,0.55-0.77,0.72-1.5,1.99c-0.73,1.27,0.33,1.5,0.68,2.81
					c0.35,1.31,0.58,2.23,1.85,2.97C49.53,187.86,50.72,189,51.85,188.84z"/>
			</g>
		</g>
		<g>
			<g>
				<path class="st1" d="M44.86,176.44c1.93,1.05,3.29,0.62,5.24,0.04c1.95-0.58,3.08,0.6,4.13-1.33c1.05-1.93,1.63-1.46,1.37-3.48
					c-0.8-6.08-3.68-5.36-5.6-6.3c-2.61-1.28-3.63-2.49-5.58-3.2c-2.54-0.92-3.23,0.41-4.35,1.75c-1.77,2.13-1.2,3.15-1.94,4.86
					c-1.02,2.33,1.09,2.41,2.04,4.58C40.84,174.93,43.24,175.56,44.86,176.44z"/>
			</g>
		</g>
		<g>
			<g>
				<path class="st1" d="M63.73,180.98c-1.24,0.97-2.51,0.35-2.65,2.04c-0.11,1.24-0.76,1.66-0.4,3.47
					c0.23,1.14,0.21,2.14,1.99,2.41c1.37,0.2,2.35-0.18,4.29-0.1c1.42,0.06,2.88,1.39,5.28-1.92c0.8-1.1,0.3-1.01,0.3-2.47
					c0-1.46-1.04-1.13-2-2.09c-0.96-0.96-1.62-1.64-3.08-1.64C66.24,180.66,64.63,180.28,63.73,180.98z"/>
			</g>
		</g>
	</g>
</g>
</svg>
