<?xml version="1.0" encoding="UTF-8" standalone="no"?>
<!-- Created with Inkscape (http://www.inkscape.org/) -->

<svg
   version="1.1"
   id="svg2"
   xml:space="preserve"
   width="361.72131"
   height="474.91333"
   viewBox="0 0 361.72131 474.91333"
   sodipodi:docname="072abc2a171ce474766a5421beb34f85.ai"
   xmlns:inkscape="http://www.inkscape.org/namespaces/inkscape"
   xmlns:sodipodi="http://sodipodi.sourceforge.net/DTD/sodipodi-0.dtd"
   xmlns="http://www.w3.org/2000/svg"
   xmlns:svg="http://www.w3.org/2000/svg"><defs
     id="defs6"><clipPath
       clipPathUnits="userSpaceOnUse"
       id="clipPath24"><path
         d="M 0,356.185 H 271.291 V 0 H 0 Z"
         id="path22" /></clipPath><clipPath
       clipPathUnits="userSpaceOnUse"
       id="clipPath76"><path
         d="M 0,356.185 H 271.291 V 0 H 0 Z"
         id="path74" /></clipPath></defs><sodipodi:namedview
     id="namedview4"
     pagecolor="#ffffff"
     bordercolor="#666666"
     borderopacity="1.0"
     inkscape:pageshadow="2"
     inkscape:pageopacity="0.0"
     inkscape:pagecheckerboard="0" /><g
     id="g8"
     inkscape:groupmode="layer"
     inkscape:label="072abc2a171ce474766a5421beb34f85"
     transform="matrix(1.3333333,0,0,-1.3333333,0,474.91332)"><path
       d="M 1,86.044 H 270.291 V 355.335 H 1 Z"
       style="fill:#952a86;fill-opacity:1;fill-rule:nonzero;stroke:none"
       id="path10" /><path
       d="M 0,85.044 H 271.291 V 356.185 H 0 Z M 2,354.335 H 269.291 V 87.044 H 2 Z"
       style="fill:#952a86;fill-opacity:1;fill-rule:nonzero;stroke:none"
       id="path12" /><path
       d="M 1,1 H 270.291 V 86.039 H 1 Z"
       style="fill:#ffffff;fill-opacity:1;fill-rule:nonzero;stroke:none"
       id="path14" /><path
       d="M 0,0 H 271.291 V 87.039 H 0 Z M 2,85.039 H 269.291 V 2 H 2 Z"
       style="fill:#952a86;fill-opacity:1;fill-rule:nonzero;stroke:none"
       id="path16" /><g
       id="g18"><g
         id="g20"
         clip-path="url(#clipPath24)"><g
           id="g26"
           transform="translate(52.5782,38.9621)"><path
             d="m 0,0 h 3.537 c 0.04,-1.037 0.248,-1.799 0.625,-2.287 0.376,-0.487 0.93,-0.732 1.661,-0.732 0.732,0 1.266,0.224 1.601,0.671 0.335,0.448 0.503,1.159 0.503,2.134 C 7.927,0.6 7.739,1.245 7.362,1.723 6.986,2.2 6.352,2.642 5.457,3.049 L 4.024,3.688 C 2.663,4.299 1.682,5.051 1.082,5.944 0.482,6.839 0.183,8.038 0.183,9.542 c 0,1.769 0.513,3.181 1.54,4.238 1.026,1.057 2.414,1.585 4.161,1.585 1.727,0 3.064,-0.523 4.01,-1.57 0.944,-1.047 1.448,-2.556 1.508,-4.527 H 7.957 C 7.937,10.224 7.77,10.939 7.454,11.417 7.14,11.895 6.616,12.134 5.884,12.134 4.522,12.134 3.842,11.331 3.842,9.726 3.842,8.993 4.009,8.409 4.345,7.973 4.68,7.535 5.244,7.144 6.036,6.799 L 7.408,6.188 c 1.464,-0.65 2.526,-1.462 3.187,-2.438 0.66,-0.976 0.99,-2.276 0.99,-3.902 0,-1.952 -0.508,-3.455 -1.524,-4.513 C 9.045,-5.722 7.602,-6.25 5.731,-6.25 3.882,-6.25 2.47,-5.711 1.494,-4.634 0.519,-3.557 0.021,-2.013 0,0"
             style="fill:#1d1d1b;fill-opacity:1;fill-rule:nonzero;stroke:none"
             id="path28" /></g><g
           id="g30"
           transform="translate(73.4024,50.6076)"><path
             d="M 0,0 V -17.651 H -3.72 V 0 H -7.378 V 3.385 H 3.628 V 0 Z"
             style="fill:#1d1d1b;fill-opacity:1;fill-rule:nonzero;stroke:none"
             id="path32" /></g><g
           id="g34"
           transform="translate(85.0489,44.7541)"><path
             d="M 0,0 C 0.752,0 1.271,0.249 1.555,0.747 1.84,1.245 1.981,1.982 1.981,2.958 1.981,3.934 1.845,4.665 1.57,5.152 1.296,5.641 0.772,5.885 0,5.885 H -1.951 V 0 Z m -1.951,-3.354 v -8.444 h -3.75 V 9.238 H 0.03 C 2.104,9.238 3.572,8.74 4.436,7.744 5.3,6.748 5.731,5.152 5.731,2.958 5.731,1.556 5.539,0.387 5.152,-0.549 4.767,-1.483 4.136,-2.185 3.262,-2.652 l 3.14,-9.146 H 2.5 l -2.652,8.444 z"
             style="fill:#1d1d1b;fill-opacity:1;fill-rule:nonzero;stroke:none"
             id="path36" /></g><g
           id="g38"
           transform="translate(98.0069,45.3341)"><path
             d="M 0,0 H 4.878 V -3.354 H 0 v -5.67 h 5.671 v -3.354 H -3.72 V 8.658 H 5.671 V 5.273 H 0 Z"
             style="fill:#1d1d1b;fill-opacity:1;fill-rule:nonzero;stroke:none"
             id="path40" /></g><g
           id="g42"
           transform="translate(112.8555,50.6076)"><path
             d="M 0,0 V -17.651 H -3.72 V 0 H -7.378 V 3.385 H 3.628 V 0 Z"
             style="fill:#1d1d1b;fill-opacity:1;fill-rule:nonzero;stroke:none"
             id="path44" /></g><g
           id="g46"
           transform="translate(118.6788,38.7482)"><path
             d="m 0,0 v 9.481 c 0,1.993 0.56,3.501 1.677,4.528 1.118,1.026 2.592,1.54 4.421,1.54 1.748,0 3.16,-0.508 4.237,-1.525 1.078,-1.016 1.616,-2.56 1.616,-4.633 V 8.75 h -3.75 v 0.609 c 0,0.956 -0.198,1.662 -0.595,2.12 -0.395,0.457 -0.929,0.686 -1.6,0.686 -0.792,0 -1.366,-0.274 -1.722,-0.823 C 3.928,10.793 3.75,9.97 3.75,8.872 V 0.427 c 0,-2.053 0.752,-3.079 2.256,-3.079 0.671,0 1.205,0.234 1.6,0.701 0.397,0.468 0.595,1.159 0.595,2.073 v 0.549 h 3.72 V 0.092 c 0,-2.032 -0.565,-3.562 -1.692,-4.588 -1.128,-1.026 -2.577,-1.54 -4.344,-1.54 -1.81,0 -3.242,0.514 -4.299,1.54 C 0.528,-3.47 0,-1.972 0,0"
             style="fill:#1d1d1b;fill-opacity:1;fill-rule:nonzero;stroke:none"
             id="path48" /></g><g
           id="g50"
           transform="translate(145.4473,32.9562)"><path
             d="M 0,0 H -3.749 V 9.023 H -7.713 V 0 h -3.75 v 21.036 h 3.75 v -8.658 h 3.964 v 8.658 H 0 Z"
             style="fill:#1d1d1b;fill-opacity:1;fill-rule:nonzero;stroke:none"
             id="path52" /></g><g
           id="g54"
           transform="translate(170.5088,32.9562)"><path
             d="M 0,0 H -4.055 L -6.341,12.926 -8.658,0 h -4.025 l -3.75,21.036 h 3.812 l 2.042,-15.731 1.982,15.731 h 4.573 L -2.042,5.305 0,21.036 h 3.75 z"
             style="fill:#1d1d1b;fill-opacity:1;fill-rule:nonzero;stroke:none"
             id="path56" /></g><g
           id="g58"
           transform="translate(182.3399,44.7541)"><path
             d="M 0,0 C 0.752,0 1.271,0.249 1.555,0.747 1.84,1.245 1.981,1.982 1.981,2.958 1.981,3.934 1.845,4.665 1.57,5.152 1.296,5.641 0.772,5.885 0,5.885 H -1.951 V 0 Z m -1.951,-3.354 v -8.444 h -3.75 V 9.238 H 0.03 C 2.104,9.238 3.572,8.74 4.436,7.744 5.3,6.748 5.731,5.152 5.731,2.958 5.731,1.556 5.539,0.387 5.152,-0.549 4.767,-1.483 4.136,-2.185 3.262,-2.652 l 3.14,-9.146 H 2.5 l -2.652,8.444 z"
             style="fill:#1d1d1b;fill-opacity:1;fill-rule:nonzero;stroke:none"
             id="path60" /></g><g
           id="g62"
           transform="translate(197.7061,48.9308)"><path
             d="m 0,0 -1.769,-8.536 h 3.538 z m -2.47,-11.89 -0.853,-4.085 H -7.226 L -1.829,5.062 H 1.829 L 7.195,-15.975 H 3.293 l -0.854,4.085 z"
             style="fill:#1d1d1b;fill-opacity:1;fill-rule:nonzero;stroke:none"
             id="path64" /></g><g
           id="g66"
           transform="translate(214.9629,47.3761)"><path
             d="m 0,0 c 0,1.118 -0.157,1.941 -0.473,2.47 -0.314,0.528 -0.868,0.793 -1.661,0.793 h -1.829 v -6.525 h 1.829 c 0.793,0 1.347,0.264 1.661,0.792 C -0.157,-1.94 0,-1.117 0,0 M 3.75,0 C 3.75,-2.235 3.298,-3.902 2.394,-5 1.489,-6.098 0.021,-6.646 -2.012,-6.646 h -1.951 v -7.774 h -3.72 V 6.616 h 5.671 C 0.062,6.616 1.54,6.067 2.424,4.97 3.309,3.872 3.75,2.216 3.75,0"
             style="fill:#1d1d1b;fill-opacity:1;fill-rule:nonzero;stroke:none"
             id="path68" /></g></g></g><g
       id="g70"><g
         id="g72"
         clip-path="url(#clipPath76)"><g
           id="g78"
           transform="translate(55.2144,226.8551)"><path
             d="m 0,0 c 9.202,-0.482 17.665,-4.519 23.831,-11.367 6.166,-6.848 9.295,-15.687 8.814,-24.888 -0.217,-4.13 -1.151,-8.109 -2.732,-11.8 l 52.33,47.118 C 95.096,10.636 96.134,30.439 84.56,43.293 72.987,56.146 53.184,57.185 40.33,45.611 L -11.947,-1.46 C -8.133,-0.29 -4.103,0.215 0,0"
             style="fill:#ffffff;fill-opacity:1;fill-rule:nonzero;stroke:none"
             id="path80" /></g><g
           id="g82"
           transform="translate(59.6973,188.3161)"><path
             d="M 0,0 V 0 L -0.004,-0.004 H -0.005 L -0.899,-0.81 c 0.1,0.457 0.166,0.926 0.191,1.402 0.12,2.281 -0.656,4.471 -2.185,6.169 -1.918,2.131 -4.673,3.068 -7.327,2.767 l 0.901,0.811 h 0.001 v 10e-4 l 0.004,0.004 C -6.457,12.911 -2.06,12.679 0.51,9.824 3.081,6.97 2.852,2.572 0,0 m -3.883,0.759 c -0.065,-1.231 -0.539,-2.376 -1.347,-3.283 -0.132,-0.149 -0.272,-0.291 -0.423,-0.427 -2.2,-1.981 -5.602,-1.802 -7.583,0.398 -1.982,2.2 -1.804,5.602 0.397,7.584 0.151,0.135 0.307,0.26 0.468,0.375 0.935,0.67 2.03,1.001 3.122,1.001 1.471,0 2.935,-0.598 3.994,-1.774 0.96,-1.066 1.447,-2.442 1.372,-3.874 m 20.868,24.285 c -5.597,6.217 -13.28,9.882 -21.634,10.32 -0.56,0.029 -1.121,0.044 -1.677,0.044 -7.746,0 -15.118,-2.824 -20.918,-8.045 -6.216,-5.598 -9.881,-13.281 -10.319,-21.635 -0.438,-8.353 2.404,-16.378 8.001,-22.595 5.598,-6.216 13.281,-9.881 21.635,-10.318 0.56,-0.03 1.12,-0.044 1.677,-0.044 7.746,-0.001 15.118,2.822 20.917,8.045 6.217,5.598 9.881,13.28 10.319,21.634 0.438,8.354 -2.403,16.378 -8.001,22.594"
             style="fill:#ffffff;fill-opacity:1;fill-rule:nonzero;stroke:none"
             id="path84" /></g><g
           id="g86"
           transform="translate(125.4278,183.297)"><path
             d="M 0,0 -2.979,2.47 81.1,25.919 83.776,23.7 83.863,23.389 Z m 21.646,-4.529 -2.969,2.462 -0.003,0.01 48.448,13.513 2.98,-2.47 z m 37.789,35.093 2.978,-2.47 -48.767,-13.601 -2.979,2.47 z m 52.476,9.824 c -1.681,0.621 -3.317,1.391 -4.889,2.309 -0.778,0.454 -1.541,0.944 -2.285,1.47 v -0.032 c -7.162,4.969 -16.675,5.3 -24.181,0.765 -0.157,-0.095 -1.494,-1.033 -2.021,-1.378 -0.439,-0.287 -0.885,-0.563 -1.335,-0.825 -0.931,-0.545 -1.885,-1.036 -2.854,-1.476 -8.236,-3.734 -17.697,-3.689 -25.852,0 -0.973,0.44 -1.928,0.932 -2.859,1.476 -0.499,0.29 -0.991,0.595 -1.476,0.915 -0.435,0.329 -2.841,1.843 -3.625,2.226 -6.6,3.222 -14.513,3.015 -20.989,-0.766 l -66.961,-60.298 c 6.873,3.542 15.14,3.24 21.723,-0.748 0.759,-0.583 1.54,-1.128 2.339,-1.632 3.741,-2.363 7.889,-3.865 12.15,-4.489 3.022,-0.443 6.1,-0.444 9.131,0 4.327,0.634 8.554,2.178 12.381,4.647 0.644,0.416 1.277,0.858 1.897,1.327 7.331,4.574 16.653,4.44 23.824,-0.181 0.451,-0.334 0.909,-0.654 1.374,-0.961 3.879,-2.561 8.219,-4.177 12.683,-4.832 2.024,-0.297 4.073,-0.394 6.116,-0.294 l 29.755,26.792 28.038,25.245 9.778,8.804 c -4.022,-0.122 -8.056,0.527 -11.862,1.936"
             style="fill:#ffffff;fill-opacity:1;fill-rule:nonzero;stroke:none"
             id="path88" /></g></g></g></g></svg>
