<?xml version="1.0" encoding="utf-8"?>
<!-- Generator: Adobe Illustrator 25.4.1, SVG Export Plug-In . SVG Version: 6.00 Build 0)  -->
<svg version="1.1" xmlns="http://www.w3.org/2000/svg" xmlns:xlink="http://www.w3.org/1999/xlink" x="0px" y="0px"
	 viewBox="0 0 271.29 356.19" style="enable-background:new 0 0 271.29 356.19;" xml:space="preserve">
<style type="text/css">
	.st0{fill:#962A86;}
	.st1{fill:#FFFFFF;}
	.st2{fill:none;}
</style>
<g id="bakgrund">
	<g>
		<rect x="1" y="1" class="st0" width="269.29" height="269.29"/>
		<path class="st0" d="M271.29,271.29H0V0h271.29V271.29z M2,269.29h267.29V2H2V269.29z"/>
	</g>
	<rect x="1" y="270.15" class="st1" width="269.29" height="85.04"/>
	<path class="st0" d="M271.29,356.19H0v-87.04h271.29V356.19z M2,354.19h267.29v-83.04H2V354.19z"/>
</g>
<g id="namn">
	<g>
		<path d="M71.44,317.21h3.54c0.04,1.04,0.25,1.8,0.62,2.29c0.38,0.49,0.93,0.73,1.66,0.73s1.27-0.22,1.6-0.67s0.5-1.16,0.5-2.13
			c0-0.81-0.19-1.46-0.56-1.94c-0.38-0.48-1.01-0.92-1.91-1.33l-1.43-0.64c-1.36-0.61-2.34-1.36-2.94-2.26
			c-0.6-0.89-0.9-2.09-0.9-3.6c0-1.77,0.51-3.18,1.54-4.24s2.41-1.59,4.16-1.59c1.73,0,3.06,0.52,4.01,1.57
			c0.94,1.05,1.45,2.56,1.51,4.53h-3.45c-0.02-0.96-0.19-1.67-0.5-2.15c-0.31-0.48-0.84-0.72-1.57-0.72c-1.36,0-2.04,0.8-2.04,2.41
			c0,0.73,0.17,1.32,0.5,1.75c0.33,0.44,0.9,0.83,1.69,1.17l1.37,0.61c1.46,0.65,2.53,1.46,3.19,2.44c0.66,0.98,0.99,2.28,0.99,3.9
			c0,1.95-0.51,3.46-1.52,4.51c-1.02,1.06-2.46,1.58-4.33,1.58c-1.85,0-3.26-0.54-4.24-1.62C71.95,320.77,71.46,319.22,71.44,317.21
			z"/>
		<path d="M92.26,305.56v17.65h-3.72v-17.65h-3.66v-3.38h11.01v3.38H92.26z"/>
		<path d="M105.13,323.21h-3.75v-8.26l-4.27-12.77h4.12l2.01,8.05l2.01-8.05h4.15l-4.27,12.83V323.21z"/>
		<path d="M115.52,314.77v8.44h-3.75v-21.04h5.73c2.07,0,3.54,0.5,4.41,1.49c0.86,1,1.3,2.59,1.3,4.79c0,1.4-0.19,2.57-0.58,3.51
			s-1.02,1.64-1.89,2.1l3.14,9.15h-3.9l-2.65-8.44H115.52z M117.47,311.42c0.75,0,1.27-0.25,1.55-0.75c0.29-0.5,0.43-1.23,0.43-2.21
			c0-0.97-0.14-1.71-0.41-2.19s-0.8-0.73-1.57-0.73h-1.95v5.88H117.47z"/>
		<path d="M126.59,317.42v-9.48c0-1.99,0.56-3.5,1.68-4.53c1.12-1.03,2.59-1.54,4.42-1.54c1.77,0,3.19,0.51,4.25,1.54
			s1.6,2.54,1.6,4.53v9.48c0,1.95-0.56,3.44-1.69,4.48c-1.13,1.04-2.59,1.55-4.37,1.55c-1.81,0-3.24-0.51-4.3-1.54
			C127.12,320.89,126.59,319.39,126.59,317.42z M134.79,317v-8.45c0-1.08-0.18-1.89-0.55-2.45c-0.37-0.56-0.91-0.84-1.65-0.84
			c-0.79,0-1.37,0.28-1.72,0.82c-0.36,0.55-0.53,1.37-0.53,2.47V317c0,2.05,0.75,3.08,2.26,3.08c0.71,0,1.26-0.27,1.63-0.81
			C134.61,318.73,134.79,317.97,134.79,317z"/>
		<path d="M145.65,310.93h4.88v3.38h-4.88v8.9h-3.75v-21.04h9.39v3.38h-5.64V310.93z"/>
		<path d="M154,317.42v-9.48c0-1.99,0.56-3.5,1.68-4.53c1.12-1.03,2.59-1.54,4.42-1.54c1.77,0,3.19,0.51,4.25,1.54
			s1.6,2.54,1.6,4.53v9.48c0,1.95-0.56,3.44-1.69,4.48c-1.13,1.04-2.59,1.55-4.37,1.55c-1.81,0-3.24-0.51-4.3-1.54
			C154.53,320.89,154,319.39,154,317.42z M162.2,317v-8.45c0-1.08-0.18-1.89-0.55-2.45c-0.37-0.56-0.91-0.84-1.65-0.84
			c-0.79,0-1.37,0.28-1.72,0.82c-0.36,0.55-0.53,1.37-0.53,2.47V317c0,2.05,0.75,3.08,2.26,3.08c0.71,0,1.26-0.27,1.63-0.81
			C162.01,318.73,162.2,317.97,162.2,317z"/>
		<path d="M172.96,319.13l-0.85,4.08h-3.9l5.4-21.04h3.66l5.37,21.04h-3.9l-0.85-4.08H172.96z M175.43,307.24l-1.77,8.54h3.54
			L175.43,307.24z"/>
		<path d="M199.86,323.21h-3.75V310.9l-2.68,8.23h-2.01l-2.65-8.14v12.22h-3.75v-21.04h3.75l3.66,11.1l3.69-11.1h3.75V323.21z"/>
	</g>
</g>
<g id="ikon">
	<g>
		<path class="st2" d="M62.52,135.87l87.38,0.02h0c2.39,0,4.18-0.53,5.47-1.61c0.35-0.29,56.57-50.87,56.75-51.06
			c1.7-1.7,1.64-3.06,1.29-3.9c-0.82-1.97-3.51-1.97-4.4-1.97h-88.15c-1,0-2.39,0.28-3.95,1.59c-0.03,0.03-0.21,0.07-56.85,51.19
			l-0.07,0.06c-1.56,1.56-1.48,2.87-1.13,3.7C59.46,135.35,61.14,135.87,62.52,135.87z M123.56,80.97h85.45c0.07,0,0.13,0,0.19,0
			c-5.04,4.54-55.05,49.52-56.19,50.55c-0.59,0.49-1.66,0.74-3.11,0.74l-26.34,0L123.56,80.97z M64.07,131.38
			c9.08-8.19,55.87-50.29,55.87-50.29v51.16l-55.53-0.01C63.95,132.25,63.74,131.69,64.07,131.38z"/>
		<path class="st1" d="M64.41,132.25l55.53,0.01V81.09c0,0-46.79,42.1-55.87,50.29C63.74,131.69,63.95,132.25,64.41,132.25z"/>
		<path class="st1" d="M153.01,131.52c1.15-1.03,51.16-46.01,56.19-50.55c-0.06,0-0.12,0-0.19,0h-85.45l0,51.29l26.34,0
			C151.35,132.26,152.42,132,153.01,131.52z"/>
		<path class="st1" d="M47.3,141.31h106.28c2.03-0.03,4.18-0.78,5.98-2.49l67.47-60.55c2.84-2.61,0.22-6.01-2.89-5.98l-106.03,0
			c-1.39,0-2.81,0.35-3.87,1.28l-69.42,62.48C43.04,137.66,42,141.5,47.3,141.31z M59.99,130.19l0.07-0.06
			c56.64-51.12,56.82-51.17,56.85-51.19c1.56-1.31,2.95-1.59,3.95-1.59h88.15c0.89,0,3.58,0,4.4,1.97c0.35,0.84,0.41,2.2-1.29,3.9
			c-0.18,0.18-56.41,50.76-56.75,51.06c-1.28,1.09-3.07,1.61-5.47,1.61h0l-87.38-0.02c-1.37,0-3.06-0.52-3.66-1.98
			C58.51,133.06,58.43,131.75,59.99,130.19z"/>
		<path class="st1" d="M159.16,143.75l0.05,54.26l0,0l8.96-8.08l0.02-8.14c0-1.81,0.74-2.82,2.21-4.01l6.67-5.91
			c1.44-0.91,2.62-0.18,2.62,1.63l-0.01,6.07l8.72-7.86l0.02-8.44c0-1.81,0.74-2.82,2.21-4.01l6.67-5.91
			c1.44-0.91,2.62-0.18,2.62,1.63l-0.02,6.36l8.72-7.86l0.02-8.53c0-1.81,0.74-2.82,2.21-4.01l6.67-5.91
			c1.44-0.91,2.62-0.18,2.62,1.63l-0.02,6.46l8.31-7.5V81.37L159.16,143.75z"/>
		<path class="st1" d="M155.54,144.92l-112.67,0.02v54.06h22.03v-5.04c0-2.32,1.9-4.22,4.22-4.22h13.29c2.32,0,4.22,1.9,4.22,4.22
			v5.04h24.45v-5.04c0-2.32,1.9-4.22,4.22-4.22h13.29c2.32,0,4.22,1.9,4.22,4.22v5.04h22.77L155.54,144.92z"/>
	</g>
</g>
</svg>
