<?xml version="1.0" encoding="UTF-8" standalone="no"?>
<!-- Created with Inkscape (http://www.inkscape.org/) -->

<svg
   version="1.1"
   id="svg2"
   xml:space="preserve"
   width="361.72131"
   height="474.91333"
   viewBox="0 0 361.72131 474.91333"
   sodipodi:docname="21db84c1a8433330b1e9b6b01d3cd155.ai"
   xmlns:inkscape="http://www.inkscape.org/namespaces/inkscape"
   xmlns:sodipodi="http://sodipodi.sourceforge.net/DTD/sodipodi-0.dtd"
   xmlns="http://www.w3.org/2000/svg"
   xmlns:svg="http://www.w3.org/2000/svg"><defs
     id="defs6"><clipPath
       clipPathUnits="userSpaceOnUse"
       id="clipPath24"><path
         d="M 0,356.185 H 271.291 V 0 H 0 Z"
         id="path22" /></clipPath><clipPath
       clipPathUnits="userSpaceOnUse"
       id="clipPath68"><path
         d="M 0,356.185 H 271.291 V 0 H 0 Z"
         id="path66" /></clipPath></defs><sodipodi:namedview
     id="namedview4"
     pagecolor="#ffffff"
     bordercolor="#666666"
     borderopacity="1.0"
     inkscape:pageshadow="2"
     inkscape:pageopacity="0.0"
     inkscape:pagecheckerboard="0" /><g
     id="g8"
     inkscape:groupmode="layer"
     inkscape:label="21db84c1a8433330b1e9b6b01d3cd155"
     transform="matrix(1.3333333,0,0,-1.3333333,0,474.91332)"><path
       d="M 1,85.894 H 270.291 V 355.185 H 1 Z"
       style="fill:#952a86;fill-opacity:1;fill-rule:nonzero;stroke:none"
       id="path10" /><path
       d="M 0,84.893 H 271.291 V 356.185 H 0 Z M 2,354.185 H 269.291 V 86.894 H 2 Z"
       style="fill:#952a86;fill-opacity:1;fill-rule:nonzero;stroke:none"
       id="path12" /><path
       d="M 1,1 H 270.291 V 86.039 H 1 Z"
       style="fill:#ffffff;fill-opacity:1;fill-rule:nonzero;stroke:none"
       id="path14" /><path
       d="M 0,0 H 271.291 V 87.039 H 0 Z M 2,85.039 H 269.291 V 2 H 2 Z"
       style="fill:#952a86;fill-opacity:1;fill-rule:nonzero;stroke:none"
       id="path16" /><g
       id="g18"><g
         id="g20"
         clip-path="url(#clipPath24)"><g
           id="g26"
           transform="translate(71.4356,38.9767)"><path
             d="m 0,0 h 3.537 c 0.04,-1.037 0.248,-1.799 0.625,-2.287 0.376,-0.488 0.93,-0.732 1.661,-0.732 0.732,0 1.266,0.224 1.601,0.671 0.335,0.448 0.503,1.159 0.503,2.134 C 7.927,0.6 7.739,1.244 7.362,1.723 6.986,2.199 6.352,2.642 5.457,3.049 L 4.024,3.688 C 2.663,4.299 1.682,5.051 1.082,5.944 0.482,6.839 0.183,8.038 0.183,9.542 c 0,1.769 0.513,3.181 1.54,4.237 1.026,1.057 2.414,1.586 4.161,1.586 1.727,0 3.064,-0.523 4.01,-1.57 0.944,-1.047 1.448,-2.556 1.508,-4.527 H 7.957 C 7.937,10.223 7.77,10.939 7.454,11.417 7.14,11.895 6.616,12.133 5.884,12.133 4.522,12.133 3.842,11.33 3.842,9.725 3.842,8.993 4.009,8.409 4.345,7.973 4.68,7.535 5.244,7.144 6.036,6.799 L 7.408,6.188 c 1.464,-0.65 2.526,-1.463 3.187,-2.438 0.66,-0.977 0.99,-2.277 0.99,-3.902 0,-1.952 -0.508,-3.455 -1.524,-4.513 C 9.045,-5.722 7.602,-6.25 5.731,-6.25 3.882,-6.25 2.47,-5.711 1.494,-4.635 0.519,-3.557 0.021,-2.013 0,0"
             style="fill:#1d1d1b;fill-opacity:1;fill-rule:nonzero;stroke:none"
             id="path28" /></g><g
           id="g30"
           transform="translate(92.2598,50.6222)"><path
             d="M 0,0 V -17.651 H -3.72 V 0 H -7.378 V 3.384 H 3.628 V 0 Z"
             style="fill:#1d1d1b;fill-opacity:1;fill-rule:nonzero;stroke:none"
             id="path32" /></g><g
           id="g34"
           transform="translate(105.126,32.9709)"><path
             d="m 0,0 h -3.75 v 8.262 l -4.269,12.773 h 4.117 l 2.011,-8.049 2.013,8.049 H 4.268 L 0,8.201 Z"
             style="fill:#1d1d1b;fill-opacity:1;fill-rule:nonzero;stroke:none"
             id="path36" /></g><g
           id="g38"
           transform="translate(117.4737,44.7687)"><path
             d="M 0,0 C 0.752,0 1.271,0.249 1.555,0.747 1.84,1.245 1.981,1.981 1.981,2.958 1.981,3.933 1.845,4.665 1.57,5.152 1.296,5.64 0.772,5.884 0,5.884 H -1.951 V 0 Z m -1.951,-3.354 v -8.444 h -3.75 V 9.237 H 0.03 C 2.104,9.237 3.572,8.739 4.436,7.743 5.3,6.748 5.732,5.152 5.732,2.958 5.732,1.556 5.539,0.386 5.153,-0.549 4.767,-1.483 4.136,-2.185 3.263,-2.652 l 3.14,-9.146 H 2.5 l -2.652,8.444 z"
             style="fill:#1d1d1b;fill-opacity:1;fill-rule:nonzero;stroke:none"
             id="path40" /></g><g
           id="g42"
           transform="translate(134.7925,39.1896)"><path
             d="m 0,0 v 8.445 c 0,1.077 -0.183,1.895 -0.549,2.454 -0.365,0.559 -0.914,0.839 -1.646,0.839 -0.792,0 -1.367,-0.275 -1.722,-0.824 C -4.273,10.365 -4.451,9.543 -4.451,8.445 V 0 c 0,-2.053 0.752,-3.079 2.256,-3.079 0.712,0 1.256,0.269 1.632,0.808 C -0.187,-1.732 0,-0.976 0,0 m -8.201,-0.427 v 9.482 c 0,1.992 0.559,3.501 1.677,4.527 1.118,1.026 2.591,1.539 4.42,1.539 1.769,0 3.186,-0.513 4.254,-1.539 1.067,-1.026 1.6,-2.535 1.6,-4.527 v -9.482 c 0,-1.951 -0.563,-3.444 -1.692,-4.481 -1.128,-1.037 -2.586,-1.555 -4.374,-1.555 -1.81,0 -3.243,0.514 -4.299,1.539 -1.058,1.028 -1.586,2.526 -1.586,4.497"
             style="fill:#1d1d1b;fill-opacity:1;fill-rule:nonzero;stroke:none"
             id="path44" /></g><g
           id="g46"
           transform="translate(145.6465,45.256)"><path
             d="M 0,0 H 4.878 V -3.383 H 0 v -8.902 H -3.75 V 8.75 H 5.641 V 5.366 H 0 Z"
             style="fill:#1d1d1b;fill-opacity:1;fill-rule:nonzero;stroke:none"
             id="path48" /></g><g
           id="g50"
           transform="translate(162.2022,39.1896)"><path
             d="m 0,0 v 8.445 c 0,1.077 -0.183,1.895 -0.549,2.454 -0.365,0.559 -0.914,0.839 -1.646,0.839 -0.792,0 -1.367,-0.275 -1.722,-0.824 C -4.273,10.365 -4.451,9.543 -4.451,8.445 V 0 c 0,-2.053 0.752,-3.079 2.256,-3.079 0.712,0 1.256,0.269 1.632,0.808 C -0.187,-1.732 0,-0.976 0,0 m -8.201,-0.427 v 9.482 c 0,1.992 0.559,3.501 1.677,4.527 1.118,1.026 2.591,1.539 4.42,1.539 1.769,0 3.186,-0.513 4.253,-1.539 C 3.217,12.556 3.75,11.047 3.75,9.055 v -9.482 c 0,-1.951 -0.563,-3.444 -1.692,-4.481 -1.128,-1.037 -2.586,-1.555 -4.374,-1.555 -1.81,0 -3.243,0.514 -4.299,1.539 -1.058,1.028 -1.586,2.526 -1.586,4.497"
             style="fill:#1d1d1b;fill-opacity:1;fill-rule:nonzero;stroke:none"
             id="path52" /></g><g
           id="g54"
           transform="translate(175.4346,48.9455)"><path
             d="m 0,0 -1.769,-8.536 h 3.538 z m -2.47,-11.89 -0.853,-4.085 H -7.226 L -1.829,5.061 H 1.829 L 7.195,-15.975 H 3.293 l -0.854,4.085 z"
             style="fill:#1d1d1b;fill-opacity:1;fill-rule:nonzero;stroke:none"
             id="path56" /></g><g
           id="g58"
           transform="translate(199.8555,32.9709)"><path
             d="M 0,0 H -3.75 V 12.316 L -6.433,4.085 h -2.012 l -2.653,8.14 V 0 h -3.75 v 21.035 h 3.75 L -7.439,9.938 -3.75,21.035 H 0 Z"
             style="fill:#1d1d1b;fill-opacity:1;fill-rule:nonzero;stroke:none"
             id="path60" /></g></g></g><g
       id="g62"><g
         id="g64"
         clip-path="url(#clipPath68)"><g
           id="g70"
           transform="translate(64.4053,223.9396)"><path
             d="m 0,0 55.534,-0.007 v 51.164 c 0,0 -46.788,-42.101 -55.866,-50.295 C -0.669,0.558 -0.454,0 0,0"
             style="fill:#ffffff;fill-opacity:1;fill-rule:nonzero;stroke:none"
             id="path72" /></g><g
           id="g74"
           transform="translate(153.0088,224.6681)"><path
             d="m 0,0 c 1.146,1.028 51.156,46.006 56.193,50.547 -0.06,0.002 -0.124,0.002 -0.19,0.002 H -29.446 V -0.74 l 26.337,-0.005 c 1.445,0 2.52,0.258 3.109,0.745"
             style="fill:#ffffff;fill-opacity:1;fill-rule:nonzero;stroke:none"
             id="path76" /></g><g
           id="g78"
           transform="translate(59.9908,225.9943)"><path
             d="m 0,0 0.067,0.064 c 56.639,51.12 56.821,51.165 56.853,51.192 1.561,1.314 2.951,1.59 3.948,1.59 h 88.153 c 0.886,0 3.581,0 4.397,-1.971 0.349,-0.841 0.408,-2.2 -1.291,-3.898 C 151.944,46.793 95.721,-3.785 95.375,-4.079 94.09,-5.166 92.302,-5.694 89.908,-5.694 l -87.38,0.017 c -1.374,0 -3.058,0.518 -3.661,1.975 C -1.476,-2.874 -1.559,-1.558 0,0 M -12.689,-11.124 H 93.59 c 2.034,0.027 4.182,0.784 5.98,2.488 l 67.469,60.551 c 2.84,2.611 0.222,6.01 -2.89,5.977 H 58.118 c -1.393,0 -2.815,-0.349 -3.865,-1.276 L -15.168,-5.865 c -1.782,-1.602 -2.826,-5.442 2.479,-5.259"
             style="fill:#ffffff;fill-opacity:1;fill-rule:nonzero;stroke:none"
             id="path80" /></g><g
           id="g82"
           transform="translate(159.1641,212.4342)"><path
             d="m 0,0 0.055,-54.259 8.959,8.076 0.019,8.143 c 0.004,1.808 0.742,2.821 2.207,4.006 l 6.67,5.914 c 1.444,0.912 2.62,0.179 2.616,-1.629 l -0.014,-6.067 8.716,7.858 0.02,8.436 c 0.004,1.807 0.742,2.819 2.207,4.005 l 6.67,5.914 c 1.443,0.912 2.62,0.179 2.616,-1.629 l -0.015,-6.359 8.715,7.859 0.021,8.533 c 0.005,1.808 0.743,2.82 2.208,4.006 l 6.67,5.914 c 1.442,0.911 2.62,0.178 2.615,-1.63 L 60.939,0.635 69.254,8.13 v 54.248 z"
             style="fill:#ffffff;fill-opacity:1;fill-rule:nonzero;stroke:none"
             id="path84" /></g><g
           id="g86"
           transform="translate(155.5411,211.2643)"><path
             d="m 0,0 -112.667,-0.018 v -54.055 h 22.032 v 5.036 c 0,2.325 1.901,4.225 4.224,4.225 h 13.291 c 2.323,0 4.224,-1.9 4.224,-4.225 v -5.036 h 24.448 v 5.036 c 0,2.325 1.901,4.225 4.224,4.225 h 13.29 c 2.324,0 4.225,-1.9 4.225,-4.225 v -5.036 H 0.057 Z"
             style="fill:#ffffff;fill-opacity:1;fill-rule:nonzero;stroke:none"
             id="path88" /></g></g></g></g></svg>
