<?xml version="1.0" encoding="utf-8"?>
<!-- Generator: Adobe Illustrator 25.4.1, SVG Export Plug-In . SVG Version: 6.00 Build 0)  -->
<svg version="1.1" xmlns="http://www.w3.org/2000/svg" xmlns:xlink="http://www.w3.org/1999/xlink" x="0px" y="0px"
	 viewBox="0 0 271.29 356.19" style="enable-background:new 0 0 271.29 356.19;" xml:space="preserve">
<style type="text/css">
	.st0{fill:#004778;}
	.st1{fill:#FFFFFF;}
</style>
<g id="bakgrund">
	<g>
		<rect x="1" y="1" class="st0" width="269.29" height="269.29"/>
		<path class="st0" d="M271.29,271.29H0V0h271.29V271.29z M2,269.29h267.29V2H2V269.29z"/>
	</g>
	<rect x="1" y="270.15" class="st1" width="269.29" height="85.04"/>
	<path class="st0" d="M271.29,356.19H0v-87.04h271.29V356.19z M2,354.19h267.29v-83.04H2V354.19z"/>
</g>
<g id="namn">
	<g>
		<path d="M114.97,305.58v17.65h-3.72v-17.65h-3.66v-3.38h11.01v3.38H114.97z"/>
		<path d="M124.76,302.19v21.04h-3.72v-21.04H124.76z"/>
		<path d="M132.11,302.19v17.68h5.64v3.35h-9.39v-21.04H132.11z"/>
		<path d="M144.18,310.85h4.88v3.35h-4.88v5.67h5.67v3.35h-9.39v-21.04h9.39v3.38h-5.67V310.85z"/>
		<path d="M152.11,317.22h3.54c0.04,1.04,0.25,1.8,0.62,2.29c0.38,0.49,0.93,0.73,1.66,0.73s1.27-0.22,1.6-0.67
			c0.33-0.45,0.5-1.16,0.5-2.13c0-0.81-0.19-1.46-0.56-1.94c-0.38-0.48-1.01-0.92-1.91-1.33l-1.43-0.64
			c-1.36-0.61-2.34-1.36-2.94-2.26s-0.9-2.09-0.9-3.6c0-1.77,0.51-3.18,1.54-4.24c1.03-1.06,2.41-1.58,4.16-1.58
			c1.73,0,3.06,0.52,4.01,1.57c0.94,1.05,1.45,2.56,1.51,4.53h-3.45c-0.02-0.96-0.19-1.67-0.5-2.15c-0.31-0.48-0.84-0.72-1.57-0.72
			c-1.36,0-2.04,0.8-2.04,2.41c0,0.73,0.17,1.32,0.5,1.75c0.33,0.44,0.9,0.83,1.69,1.17l1.37,0.61c1.46,0.65,2.53,1.46,3.19,2.44
			c0.66,0.97,0.99,2.28,0.99,3.9c0,1.95-0.51,3.46-1.52,4.51c-1.02,1.06-2.46,1.58-4.33,1.58c-1.85,0-3.26-0.54-4.24-1.62
			C152.63,320.78,152.13,319.24,152.11,317.22z"/>
	</g>
</g>
<g id="ikon">
	<g>
		
			<rect x="50.33" y="50.66" transform="matrix(1 -1.025662e-03 1.025662e-03 1 -0.0797 0.0794)" class="st1" width="54.13" height="54.13"/>
		
			<rect x="108.58" y="50.6" transform="matrix(1 -1.025662e-03 1.025662e-03 1 -0.0796 0.1392)" class="st1" width="54.13" height="54.13"/>
		
			<rect x="166.84" y="50.54" transform="matrix(1 -1.025662e-03 1.025662e-03 1 -0.0795 0.1989)" class="st1" width="54.13" height="54.13"/>
		
			<rect x="50.39" y="108.64" transform="matrix(1 -1.025662e-03 1.025662e-03 1 -0.1391 0.0795)" class="st1" width="54.13" height="54.13"/>
		
			<rect x="108.64" y="108.58" transform="matrix(1 -1.025662e-03 1.025662e-03 1 -0.1391 0.1393)" class="st1" width="54.13" height="54.13"/>
		
			<rect x="50.45" y="166.62" transform="matrix(1 -1.025662e-03 1.025662e-03 1 -0.1986 0.0796)" class="st1" width="54.13" height="54.13"/>
	</g>
</g>
</svg>
