<?xml version="1.0" encoding="utf-8"?>
<!-- Generator: Adobe Illustrator 25.4.1, SVG Export Plug-In . SVG Version: 6.00 Build 0)  -->
<svg version="1.1" xmlns="http://www.w3.org/2000/svg" xmlns:xlink="http://www.w3.org/1999/xlink" x="0px" y="0px"
	 viewBox="0 0 271.29 356.19" style="enable-background:new 0 0 271.29 356.19;" xml:space="preserve">
<style type="text/css">
	.st0{fill:#F18700;}
	.st1{fill:#FFFFFF;}
</style>
<g id="bakgrund">
	<g>
		<rect x="1" y="1" class="st0" width="269.29" height="269.29"/>
		<path class="st0" d="M271.29,271.29H0V0h271.29V271.29z M2,269.29h267.29V2H2V269.29z"/>
	</g>
	<rect x="1" y="270.15" class="st1" width="269.29" height="85.04"/>
	<path class="st0" d="M271.29,356.19H0v-87.04h271.29V356.19z M2,354.19h267.29v-83.04H2V354.19z"/>
</g>
<g id="namn">
	<g>
		<path d="M52.82,305.55v17.65H49.1v-17.65h-3.66v-3.38h11.01v3.38H52.82z"/>
		<path d="M61.79,302.16l2.53,15.73l2.56-15.73h4.12l-4.73,21.04H62.4l-4.73-21.04H61.79z"/>
		<path d="M72.67,317.19h3.54c0.04,1.04,0.25,1.8,0.62,2.29c0.38,0.49,0.93,0.73,1.66,0.73s1.27-0.22,1.6-0.67
			c0.33-0.45,0.5-1.16,0.5-2.13c0-0.81-0.19-1.46-0.56-1.94c-0.38-0.48-1.01-0.92-1.91-1.33l-1.43-0.64
			c-1.36-0.61-2.34-1.36-2.94-2.26c-0.6-0.89-0.9-2.09-0.9-3.6c0-1.77,0.51-3.18,1.54-4.24s2.41-1.59,4.16-1.59
			c1.73,0,3.06,0.52,4.01,1.57c0.94,1.05,1.45,2.56,1.51,4.53h-3.45c-0.02-0.96-0.19-1.67-0.5-2.15c-0.31-0.48-0.84-0.72-1.57-0.72
			c-1.36,0-2.04,0.8-2.04,2.41c0,0.73,0.17,1.32,0.5,1.75c0.33,0.44,0.9,0.83,1.69,1.17l1.37,0.61c1.46,0.65,2.53,1.46,3.19,2.44
			c0.66,0.98,0.99,2.28,0.99,3.9c0,1.95-0.51,3.46-1.52,4.51c-1.02,1.06-2.46,1.58-4.33,1.58c-1.85,0-3.26-0.54-4.24-1.62
			S72.69,319.21,72.67,317.19z"/>
		<path d="M106.36,320.12h0.37v3.08h-1.46c-0.67,0-1.18-0.12-1.54-0.37s-0.75-0.7-1.17-1.37c-0.57,0.73-1.21,1.25-1.92,1.57
			c-0.71,0.31-1.53,0.47-2.47,0.47c-1.42,0-2.57-0.45-3.44-1.34s-1.31-2.08-1.31-3.57c0-1.06,0.26-2.1,0.78-3.12
			c0.52-1.03,1.39-2.19,2.61-3.49c-0.79-1.3-1.36-2.34-1.69-3.12c-0.33-0.78-0.5-1.57-0.5-2.36c0-1.38,0.44-2.5,1.31-3.35
			s2.01-1.28,3.42-1.28c1.38,0,2.51,0.43,3.38,1.28s1.31,1.97,1.31,3.35c0,0.89-0.23,1.81-0.7,2.74c-0.47,0.93-1.25,1.99-2.35,3.17
			l1.86,3.11l1.4-2.26l2.53,1.74l-2.2,3.42l0.55,0.91c0.16,0.29,0.34,0.49,0.53,0.61C105.84,320.06,106.08,320.12,106.36,320.12z
			 M100.87,318.69l-2.35-3.84c-0.59,0.67-1,1.26-1.23,1.78c-0.23,0.52-0.35,1.05-0.35,1.6c0,0.65,0.15,1.15,0.44,1.49
			c0.29,0.35,0.7,0.52,1.21,0.52c0.41,0,0.78-0.11,1.13-0.33C100.06,319.68,100.45,319.28,100.87,318.69z M97.98,306.31
			c0,0.37,0.09,0.79,0.26,1.27c0.17,0.48,0.49,1.11,0.96,1.9c0.57-0.65,0.95-1.2,1.14-1.66c0.19-0.46,0.29-0.96,0.29-1.51
			s-0.12-0.97-0.35-1.25c-0.23-0.29-0.55-0.43-0.96-0.43c-0.43,0-0.76,0.15-0.99,0.44C98.09,305.37,97.98,305.78,97.98,306.31z"/>
		<path d="M131.21,323.2h-3.75v-12.32l-2.68,8.23h-2.01l-2.65-8.14v12.23h-3.75v-21.04h3.75l3.66,11.1l3.69-11.1h3.75V323.2z"/>
		<path d="M134.56,317.41v-9.48c0-1.99,0.56-3.5,1.68-4.53c1.12-1.03,2.59-1.54,4.42-1.54c1.77,0,3.19,0.51,4.25,1.54
			c1.07,1.03,1.6,2.54,1.6,4.53v9.48c0,1.95-0.56,3.44-1.69,4.48c-1.13,1.04-2.59,1.55-4.37,1.55c-1.81,0-3.24-0.51-4.3-1.54
			C135.09,320.88,134.56,319.38,134.56,317.41z M142.76,316.98v-8.44c0-1.08-0.18-1.9-0.55-2.45c-0.37-0.56-0.91-0.84-1.65-0.84
			c-0.79,0-1.37,0.27-1.72,0.82c-0.36,0.55-0.53,1.37-0.53,2.47v8.44c0,2.05,0.75,3.08,2.26,3.08c0.71,0,1.26-0.27,1.63-0.81
			S142.76,317.96,142.76,316.98z"/>
		<path d="M161.76,323.2h-3.75l-4.39-11.22v11.22h-3.75v-21.04h3.75l4.39,11.71v-11.71h3.75V323.2z"/>
		<path d="M169.08,302.16v21.04h-3.72v-21.04H169.08z"/>
		<path d="M178.89,305.55v17.65h-3.72v-17.65h-3.66v-3.38h11.01v3.38H178.89z"/>
		<path d="M184.72,317.41v-9.48c0-1.99,0.56-3.5,1.68-4.53c1.12-1.03,2.59-1.54,4.42-1.54c1.77,0,3.19,0.51,4.25,1.54
			c1.07,1.03,1.6,2.54,1.6,4.53v9.48c0,1.95-0.56,3.44-1.69,4.48c-1.13,1.04-2.59,1.55-4.37,1.55c-1.81,0-3.24-0.51-4.3-1.54
			C185.25,320.88,184.72,319.38,184.72,317.41z M192.92,316.98v-8.44c0-1.08-0.18-1.9-0.55-2.45c-0.37-0.56-0.91-0.84-1.65-0.84
			c-0.79,0-1.37,0.27-1.72,0.82c-0.36,0.55-0.53,1.37-0.53,2.47v8.44c0,2.05,0.75,3.08,2.26,3.08c0.71,0,1.26-0.27,1.63-0.81
			S192.92,317.96,192.92,316.98z"/>
		<path d="M203.77,314.75v8.44h-3.75v-21.04h5.73c2.07,0,3.54,0.5,4.41,1.49c0.86,1,1.3,2.59,1.3,4.79c0,1.4-0.19,2.57-0.58,3.51
			c-0.39,0.93-1.02,1.63-1.89,2.1l3.14,9.15h-3.9l-2.65-8.44H203.77z M205.72,311.4c0.75,0,1.27-0.25,1.55-0.75
			c0.29-0.5,0.43-1.23,0.43-2.21s-0.14-1.71-0.41-2.19c-0.27-0.49-0.8-0.73-1.57-0.73h-1.95v5.88H205.72z"/>
		<path d="M214.26,317.19h3.54c0.04,1.04,0.25,1.8,0.62,2.29c0.38,0.49,0.93,0.73,1.66,0.73s1.27-0.22,1.6-0.67
			c0.33-0.45,0.5-1.16,0.5-2.13c0-0.81-0.19-1.46-0.56-1.94c-0.38-0.48-1.01-0.92-1.91-1.33l-1.43-0.64
			c-1.36-0.61-2.34-1.36-2.94-2.26c-0.6-0.89-0.9-2.09-0.9-3.6c0-1.77,0.51-3.18,1.54-4.24s2.41-1.59,4.16-1.59
			c1.73,0,3.06,0.52,4.01,1.57c0.94,1.05,1.45,2.56,1.51,4.53h-3.45c-0.02-0.96-0.19-1.67-0.5-2.15c-0.31-0.48-0.84-0.72-1.57-0.72
			c-1.36,0-2.04,0.8-2.04,2.41c0,0.73,0.17,1.32,0.5,1.75c0.33,0.44,0.9,0.83,1.69,1.17l1.37,0.61c1.46,0.65,2.53,1.46,3.19,2.44
			c0.66,0.98,0.99,2.28,0.99,3.9c0,1.95-0.51,3.46-1.52,4.51c-1.02,1.06-2.46,1.58-4.33,1.58c-1.85,0-3.26-0.54-4.24-1.62
			S214.28,319.21,214.26,317.19z"/>
	</g>
</g>
<g id="ikon">
	<g>
		<rect x="54.01" y="70.65" class="st1" width="163.28" height="96.64"/>
		<path class="st1" d="M220.67,60.65H50.62c-3.64,0-6.61,2.98-6.61,6.61v103.4c0,3.64,2.98,6.61,6.61,6.61h78.36v30.03H93.99v3.33
			h83.31v-3.33h-34.99v-30.03h78.36c3.64,0,6.61-2.98,6.61-6.61V67.26C227.28,63.63,224.31,60.65,220.67,60.65z M220.62,167.28
			c0,1.84-1.49,3.33-3.33,3.33H54c-1.84,0-3.33-1.49-3.33-3.33V70.65c0-1.84,1.49-3.33,3.33-3.33h163.28c1.84,0,3.33,1.49,3.33,3.33
			V167.28z"/>
	</g>
</g>
</svg>
