<?xml version="1.0" encoding="utf-8"?>
<!-- Generator: Adobe Illustrator 25.4.1, SVG Export Plug-In . SVG Version: 6.00 Build 0)  -->
<svg version="1.1" xmlns="http://www.w3.org/2000/svg" xmlns:xlink="http://www.w3.org/1999/xlink" x="0px" y="0px"
	 viewBox="0 0 271.29 355.96" style="enable-background:new 0 0 271.29 355.96;" xml:space="preserve">
<style type="text/css">
	.st0{fill:#06682D;}
	.st1{fill:#FFFFFF;}
</style>
<g id="bakgrund">
	<g>
		<rect x="1.85" y="0.67" class="st0" width="269.29" height="269.29"/>
		<path class="st0" d="M271.29,271.29H0V0h271.29V271.29z M2,269.29h267.29V2H2V269.29z"/>
	</g>
	<g>
		<rect x="1" y="269.92" class="st1" width="269.29" height="85.04"/>
		<path class="st0" d="M271.29,355.96H0v-87.04h271.29V355.96z M2,353.96h267.29v-83.04H2V353.96z"/>
	</g>
</g>
<g id="namn">
	<g>
		<path d="M35.73,305.32v17.65h-3.72v-17.65h-3.66v-3.38h11.01v3.38H35.73z"/>
		<path d="M57.01,322.97h-4.05l-2.29-12.93l-2.32,12.93h-4.02l-3.75-21.04h3.81l2.04,15.73l1.98-15.73h4.57l1.98,15.73l2.04-15.73
			h3.75L57.01,322.97z"/>
		<path d="M66.99,301.93v21.04h-3.72v-21.04H66.99z"/>
		<path d="M70.46,317.18v-9.48c0-1.99,0.56-3.5,1.68-4.53c1.12-1.03,2.59-1.54,4.42-1.54c1.75,0,3.16,0.5,4.24,1.49
			c1.08,1,1.62,2.47,1.62,4.42v0.64h-3.75v-0.64c0-0.81-0.2-1.44-0.61-1.88c-0.41-0.44-0.94-0.66-1.59-0.66
			c-0.79,0-1.37,0.27-1.72,0.82c-0.36,0.55-0.53,1.37-0.53,2.47v8.44c0,2.05,0.75,3.08,2.26,3.08c0.73,0,1.28-0.25,1.65-0.75
			c0.37-0.5,0.55-1.21,0.55-2.15v-2.23h-2.23v-2.96h5.98v5.43c0,1.95-0.56,3.45-1.69,4.48c-1.13,1.04-2.59,1.55-4.37,1.55
			c-1.81,0-3.24-0.51-4.3-1.54C70.99,320.65,70.46,319.15,70.46,317.18z"/>
		<path d="M85.07,316.96h3.54c0.04,1.04,0.25,1.8,0.62,2.29c0.38,0.49,0.93,0.73,1.66,0.73s1.27-0.22,1.6-0.67
			c0.33-0.45,0.5-1.16,0.5-2.13c0-0.81-0.19-1.46-0.56-1.94c-0.38-0.48-1.01-0.92-1.91-1.33l-1.43-0.64
			c-1.36-0.61-2.34-1.36-2.94-2.26s-0.9-2.09-0.9-3.6c0-1.77,0.51-3.18,1.54-4.24s2.41-1.59,4.16-1.59c1.73,0,3.06,0.52,4.01,1.57
			c0.94,1.05,1.45,2.56,1.51,4.53h-3.45c-0.02-0.96-0.19-1.67-0.5-2.15c-0.31-0.48-0.84-0.72-1.57-0.72c-1.36,0-2.04,0.8-2.04,2.41
			c0,0.73,0.17,1.32,0.5,1.75c0.33,0.44,0.9,0.83,1.69,1.17l1.37,0.61c1.46,0.65,2.53,1.46,3.19,2.44c0.66,0.98,0.99,2.28,0.99,3.9
			c0,1.95-0.51,3.46-1.52,4.51c-1.02,1.06-2.46,1.58-4.33,1.58c-1.85,0-3.26-0.54-4.24-1.62S85.09,318.98,85.07,316.96z"/>
		<path d="M118.75,319.89h0.37v3.08h-1.46c-0.67,0-1.18-0.12-1.54-0.37s-0.75-0.7-1.17-1.37c-0.57,0.73-1.21,1.25-1.92,1.57
			c-0.71,0.32-1.53,0.47-2.47,0.47c-1.42,0-2.57-0.45-3.44-1.34c-0.87-0.89-1.31-2.08-1.31-3.57c0-1.06,0.26-2.1,0.78-3.12
			c0.52-1.03,1.39-2.19,2.61-3.49c-0.79-1.3-1.36-2.34-1.69-3.12c-0.33-0.78-0.5-1.57-0.5-2.36c0-1.38,0.44-2.5,1.31-3.35
			s2.01-1.28,3.42-1.28c1.38,0,2.51,0.43,3.38,1.28s1.31,1.97,1.31,3.35c0,0.89-0.23,1.81-0.7,2.74c-0.47,0.93-1.25,1.99-2.35,3.17
			l1.86,3.11l1.4-2.26l2.53,1.74l-2.2,3.41l0.55,0.92c0.16,0.28,0.34,0.49,0.53,0.61C118.23,319.83,118.47,319.89,118.75,319.89z
			 M113.27,318.46l-2.35-3.84c-0.59,0.67-1,1.26-1.23,1.78c-0.23,0.52-0.35,1.05-0.35,1.6c0,0.65,0.15,1.15,0.44,1.49
			c0.29,0.35,0.7,0.52,1.2,0.52c0.41,0,0.78-0.11,1.13-0.34C112.45,319.45,112.84,319.05,113.27,318.46z M110.37,306.08
			c0,0.37,0.09,0.79,0.26,1.26c0.17,0.48,0.49,1.11,0.96,1.91c0.57-0.65,0.95-1.2,1.14-1.66c0.19-0.46,0.29-0.96,0.29-1.51
			c0-0.55-0.12-0.97-0.35-1.25c-0.23-0.29-0.55-0.43-0.96-0.43c-0.43,0-0.76,0.15-0.99,0.44S110.37,305.55,110.37,306.08z"/>
		<path d="M140.22,316.87c0,2.13-0.44,3.68-1.31,4.65c-0.87,0.96-2.36,1.45-4.45,1.45h-5.7v-21.04h5.7c2.05,0,3.52,0.45,4.39,1.36
			s1.31,2.34,1.31,4.31c0,1.04-0.17,1.92-0.52,2.65c-0.35,0.73-0.93,1.29-1.77,1.68c0.91,0.41,1.53,1.01,1.86,1.8
			C140.06,314.52,140.22,315.57,140.22,316.87z M132.48,310.38h1.58c0.87,0,1.48-0.2,1.83-0.59c0.35-0.4,0.52-1.04,0.52-1.94
			c0-0.93-0.17-1.6-0.52-1.98c-0.34-0.39-0.96-0.58-1.83-0.58h-1.58V310.38z M136.47,316.6c0-1.06-0.19-1.82-0.56-2.29
			c-0.38-0.47-1-0.7-1.88-0.7h-1.55v6.01h1.55c0.93,0,1.58-0.23,1.92-0.69C136.3,318.47,136.47,317.69,136.47,316.6z"/>
		<path d="M147.32,314.52v8.45h-3.75v-21.04h5.73c2.07,0,3.54,0.5,4.41,1.49c0.86,1,1.3,2.59,1.3,4.79c0,1.4-0.19,2.57-0.58,3.51
			c-0.39,0.93-1.02,1.64-1.89,2.1l3.14,9.15h-3.9l-2.65-8.45H147.32z M149.27,311.17c0.75,0,1.27-0.25,1.55-0.75
			c0.29-0.5,0.43-1.23,0.43-2.21s-0.14-1.71-0.41-2.2c-0.27-0.49-0.8-0.73-1.57-0.73h-1.95v5.88H149.27z"/>
		<path d="M162.17,318.88l-0.85,4.09h-3.9l5.4-21.04h3.66l5.37,21.04h-3.9l-0.85-4.09H162.17z M164.64,306.99l-1.77,8.54h3.54
			L164.64,306.99z"/>
		<path d="M186.1,322.97h-3.75l-4.39-11.22v11.22h-3.75v-21.04h3.75l4.39,11.71v-11.71h3.75V322.97z"/>
		<path d="M189.46,317.18v-9.48c0-1.99,0.56-3.5,1.68-4.53c1.12-1.03,2.59-1.54,4.42-1.54c1.75,0,3.16,0.51,4.24,1.52
			c1.08,1.02,1.62,2.56,1.62,4.63v0.64h-3.75v-0.61c0-0.96-0.2-1.66-0.59-2.12c-0.4-0.46-0.93-0.69-1.6-0.69
			c-0.79,0-1.37,0.27-1.72,0.82c-0.36,0.55-0.53,1.37-0.53,2.47v8.44c0,2.05,0.75,3.08,2.26,3.08c0.67,0,1.21-0.23,1.6-0.7
			c0.4-0.47,0.59-1.16,0.59-2.07v-0.55h3.72v0.58c0,2.03-0.56,3.56-1.69,4.59s-2.58,1.54-4.34,1.54c-1.81,0-3.24-0.51-4.3-1.54
			C189.99,320.65,189.46,319.15,189.46,317.18z"/>
		<path d="M216.23,322.97h-3.75v-9.02h-3.96v9.02h-3.75v-21.04h3.75v8.66h3.96v-8.66h3.75V322.97z"/>
		<path d="M223.43,310.59h4.88v3.35h-4.88v5.67h5.67v3.35h-9.39v-21.04h9.39v3.38h-5.67V310.59z"/>
		<path d="M231.35,316.96h3.54c0.04,1.04,0.25,1.8,0.62,2.29c0.38,0.49,0.93,0.73,1.66,0.73s1.27-0.22,1.6-0.67
			c0.33-0.45,0.5-1.16,0.5-2.13c0-0.81-0.19-1.46-0.56-1.94c-0.38-0.48-1.01-0.92-1.91-1.33l-1.43-0.64
			c-1.36-0.61-2.34-1.36-2.94-2.26s-0.9-2.09-0.9-3.6c0-1.77,0.51-3.18,1.54-4.24s2.41-1.59,4.16-1.59c1.73,0,3.06,0.52,4.01,1.57
			c0.94,1.05,1.45,2.56,1.51,4.53h-3.45c-0.02-0.96-0.19-1.67-0.5-2.15c-0.31-0.48-0.84-0.72-1.57-0.72c-1.36,0-2.04,0.8-2.04,2.41
			c0,0.73,0.17,1.32,0.5,1.75c0.33,0.44,0.9,0.83,1.69,1.17l1.37,0.61c1.46,0.65,2.53,1.46,3.19,2.44c0.66,0.98,0.99,2.28,0.99,3.9
			c0,1.95-0.51,3.46-1.52,4.51c-1.02,1.06-2.46,1.58-4.33,1.58c-1.85,0-3.26-0.54-4.24-1.62S231.37,318.98,231.35,316.96z"/>
	</g>
</g>
<g id="ikon">
	<path class="st1" d="M48.35,228.09l37.92-55.05c0.38-0.56,1.02-0.89,1.7-0.89h27.81c0.18,0,0.36-0.02,0.54-0.07l22.13-5.96
		c0.9-0.24,1.53-1.06,1.53-1.99l0,0c0-1.29-1.18-2.27-2.45-2.03l-18.94,3.61c-0.44,0.08-0.9,0.02-1.31-0.18l-11.26-5.63
		c-1.33-0.67-1.54-2.49-0.39-3.44l34.19-28.21c0.1-0.08,0.21-0.16,0.33-0.22l55.13-29.95c0.51-0.28,1.12-0.33,1.67-0.13l17.87,6.32
		c0.38,0.13,0.79,0.15,1.18,0.06l15.57-3.81c0.92-0.23,1.57-1.05,1.57-2v-2.49c0-1.24-1.08-2.2-2.31-2.05l-14.32,1.74
		c-0.46,0.06-0.93-0.05-1.32-0.29l-6.56-4.01c-1.16-0.71-1.33-2.32-0.35-3.25l33.93-32.41c1.06-1.02,0.75-2.79-0.59-3.38l-3.71-1.63
		c-0.74-0.33-1.61-0.19-2.21,0.35l-32.81,29.52c-0.15,0.14-0.33,0.25-0.51,0.34l-50.8,23.45c-1.56,0.72-3.27-0.67-2.87-2.35
		l3.43-14.52c0.04-0.18,0.11-0.36,0.2-0.53l12-21.65c0.54-0.98,0.21-2.21-0.75-2.78l-1.23-0.73c-0.86-0.51-1.96-0.33-2.61,0.43
		l-15.54,18.08c-0.18,0.21-0.32,0.46-0.4,0.73c-1.19,3.84-10.52,33.92-10.52,34.29c0,0.38-54.36,40.25-58.37,43.19
		c-0.16,0.11-0.29,0.25-0.41,0.4l-45.34,58.64c-0.79,1.02-0.46,2.52,0.7,3.1l15.88,8.04C46.64,229.23,47.77,228.94,48.35,228.09z"/>
</g>
</svg>
