<?xml version="1.0" encoding="UTF-8" standalone="no"?>
<!-- Created with Inkscape (http://www.inkscape.org/) -->

<svg
   version="1.1"
   id="svg2"
   xml:space="preserve"
   width="361.72131"
   height="474.91333"
   viewBox="0 0 361.72131 474.91333"
   sodipodi:docname="16c352f2d3c433d2aaff144ff0ce34d1.ai"
   xmlns:inkscape="http://www.inkscape.org/namespaces/inkscape"
   xmlns:sodipodi="http://sodipodi.sourceforge.net/DTD/sodipodi-0.dtd"
   xmlns="http://www.w3.org/2000/svg"
   xmlns:svg="http://www.w3.org/2000/svg"><defs
     id="defs6"><clipPath
       clipPathUnits="userSpaceOnUse"
       id="clipPath32"><path
         d="M 0,356.185 H 271.291 V 0 H 0 Z"
         id="path30" /></clipPath><clipPath
       clipPathUnits="userSpaceOnUse"
       id="clipPath80"><path
         d="M 0,356.185 H 271.291 V 0 H 0 Z"
         id="path78" /></clipPath></defs><sodipodi:namedview
     id="namedview4"
     pagecolor="#ffffff"
     bordercolor="#666666"
     borderopacity="1.0"
     inkscape:pageshadow="2"
     inkscape:pageopacity="0.0"
     inkscape:pagecheckerboard="0" /><g
     id="g8"
     inkscape:groupmode="layer"
     inkscape:label="16c352f2d3c433d2aaff144ff0ce34d1"
     transform="matrix(1.3333333,0,0,-1.3333333,0,474.91332)"><path
       d="M 1,85.894 H 270.291 V 355.185 H 1 Z"
       style="fill:#952a86;fill-opacity:1;fill-rule:nonzero;stroke:none"
       id="path10" /><path
       d="M 0,84.893 H 271.291 V 356.185 H 0 Z M 2,354.185 H 269.291 V 86.894 H 2 Z"
       style="fill:#952a86;fill-opacity:1;fill-rule:nonzero;stroke:none"
       id="path12" /><path
       d="M 1,1 H 270.291 V 86.039 H 1 Z"
       style="fill:#ffffff;fill-opacity:1;fill-rule:nonzero;stroke:none"
       id="path14" /><path
       d="M 0,0 H 271.291 V 87.039 H 0 Z M 2,85.039 H 269.291 V 2 H 2 Z"
       style="fill:#952a86;fill-opacity:1;fill-rule:nonzero;stroke:none"
       id="path16" /><g
       id="g18"
       transform="translate(48.9341,50.6076)"><path
         d="M 0,0 V -17.652 H -3.72 V 0 H -7.378 V 3.385 H 3.628 V 0 Z"
         style="fill:#1d1d1b;fill-opacity:1;fill-rule:nonzero;stroke:none"
         id="path20" /></g><g
       id="g22"
       transform="translate(61.8003,32.9552)"><path
         d="m 0,0 h -3.75 v 8.263 l -4.269,12.774 h 4.117 l 2.011,-8.049 2.013,8.049 H 4.268 L 0,8.201 Z"
         style="fill:#1d1d1b;fill-opacity:1;fill-rule:nonzero;stroke:none"
         id="path24" /></g><g
       id="g26"><g
         id="g28"
         clip-path="url(#clipPath32)"><g
           id="g34"
           transform="translate(74.148,44.7541)"><path
             d="M 0,0 C 0.752,0 1.271,0.249 1.555,0.747 1.84,1.245 1.981,1.982 1.981,2.957 1.981,3.934 1.845,4.664 1.57,5.152 1.296,5.641 0.772,5.885 0,5.885 H -1.951 V 0 Z m -1.951,-3.354 v -8.445 h -3.75 V 9.238 H 0.03 C 2.104,9.238 3.572,8.74 4.436,7.744 5.3,6.748 5.731,5.152 5.731,2.957 5.731,1.555 5.538,0.387 5.152,-0.549 4.767,-1.483 4.136,-2.185 3.263,-2.652 l 3.139,-9.147 H 2.5 l -2.652,8.445 z"
             style="fill:#1d1d1b;fill-opacity:1;fill-rule:nonzero;stroke:none"
             id="path36" /></g><g
           id="g38"
           transform="translate(87.107,45.3341)"><path
             d="M 0,0 H 4.878 V -3.354 H 0 v -5.671 h 5.671 v -3.354 H -3.72 V 8.658 H 5.671 V 5.273 H 0 Z"
             style="fill:#1d1d1b;fill-opacity:1;fill-rule:nonzero;stroke:none"
             id="path40" /></g><g
           id="g42"
           transform="translate(95.0337,38.9611)"><path
             d="m 0,0 h 3.537 c 0.04,-1.036 0.248,-1.799 0.625,-2.286 0.376,-0.487 0.93,-0.732 1.661,-0.732 0.732,0 1.266,0.224 1.601,0.671 0.335,0.447 0.503,1.159 0.503,2.134 0,0.813 -0.188,1.459 -0.565,1.936 -0.376,0.478 -1.01,0.92 -1.905,1.326 L 4.024,3.689 C 2.663,4.299 1.682,5.051 1.082,5.945 0.482,6.84 0.183,8.039 0.183,9.543 c 0,1.769 0.513,3.181 1.54,4.238 1.026,1.057 2.414,1.585 4.161,1.585 1.727,0 3.064,-0.523 4.01,-1.57 0.944,-1.047 1.448,-2.556 1.508,-4.527 H 7.957 C 7.937,10.225 7.77,10.94 7.454,11.418 7.14,11.896 6.616,12.135 5.884,12.135 4.522,12.135 3.842,11.332 3.842,9.727 3.842,8.994 4.009,8.41 4.345,7.973 4.68,7.536 5.244,7.145 6.036,6.799 l 1.372,-0.61 c 1.464,-0.65 2.526,-1.462 3.187,-2.439 0.66,-0.975 0.99,-2.275 0.99,-3.902 0,-1.952 -0.508,-3.455 -1.524,-4.512 -1.016,-1.057 -2.459,-1.585 -4.33,-1.585 -1.849,0 -3.261,0.538 -4.237,1.616 C 0.519,-3.557 0.021,-2.012 0,0"
             style="fill:#1d1d1b;fill-opacity:1;fill-rule:nonzero;stroke:none"
             id="path44" /></g><g
           id="g46"
           transform="translate(131.2232,32.9552)"><path
             d="M 0,0 H -4.055 L -6.341,12.927 -8.658,0 h -4.025 l -3.75,21.037 h 3.812 l 2.042,-15.732 1.982,15.732 h 4.573 L -2.042,5.305 0,21.037 h 3.75 z"
             style="fill:#1d1d1b;fill-opacity:1;fill-rule:nonzero;stroke:none"
             id="path48" /></g><path
           d="m 141.195,32.955 h -3.72 v 21.037 h 3.72 z"
           style="fill:#1d1d1b;fill-opacity:1;fill-rule:nonzero;stroke:none"
           id="path50" /><g
           id="g52"
           transform="translate(151.0127,50.6076)"><path
             d="M 0,0 V -17.652 H -3.72 V 0 H -7.378 V 3.385 H 3.628 V 0 Z"
             style="fill:#1d1d1b;fill-opacity:1;fill-rule:nonzero;stroke:none"
             id="path54" /></g><g
           id="g56"
           transform="translate(168.4209,32.9552)"><path
             d="M 0,0 H -3.749 V 9.024 H -7.713 V 0 h -3.75 v 21.037 h 3.75 v -8.658 h 3.964 v 8.658 H 0 Z"
             style="fill:#1d1d1b;fill-opacity:1;fill-rule:nonzero;stroke:none"
             id="path58" /></g><g
           id="g60"
           transform="translate(183.8487,44.7541)"><path
             d="M 0,0 C 0.752,0 1.271,0.249 1.555,0.747 1.84,1.245 1.981,1.982 1.981,2.957 1.981,3.934 1.845,4.664 1.57,5.152 1.296,5.641 0.772,5.885 0,5.885 H -1.951 V 0 Z m -1.951,-3.354 v -8.445 h -3.75 V 9.238 H 0.03 C 2.104,9.238 3.572,8.74 4.436,7.744 5.3,6.748 5.731,5.152 5.731,2.957 5.731,1.555 5.539,0.387 5.152,-0.549 4.767,-1.483 4.136,-2.185 3.262,-2.652 l 3.14,-9.147 H 2.5 l -2.652,8.445 z"
             style="fill:#1d1d1b;fill-opacity:1;fill-rule:nonzero;stroke:none"
             id="path62" /></g><path
           d="m 196.93,32.955 h -3.72 v 21.037 h 3.72 z"
           style="fill:#1d1d1b;fill-opacity:1;fill-rule:nonzero;stroke:none"
           id="path64" /><g
           id="g66"
           transform="translate(215.3741,32.9552)"><path
             d="M 0,0 H -3.75 V 12.317 L -6.433,4.086 h -2.012 l -2.653,8.14 V 0 h -3.75 v 21.037 h 3.75 L -7.439,9.939 -3.75,21.037 H 0 Z"
             style="fill:#1d1d1b;fill-opacity:1;fill-rule:nonzero;stroke:none"
             id="path68" /></g><g
           id="g70"
           transform="translate(218.1495,38.9611)"><path
             d="m 0,0 h 3.537 c 0.04,-1.036 0.248,-1.799 0.625,-2.286 0.376,-0.487 0.93,-0.732 1.661,-0.732 0.732,0 1.266,0.224 1.601,0.671 0.335,0.447 0.503,1.159 0.503,2.134 0,0.813 -0.188,1.459 -0.565,1.936 -0.376,0.478 -1.01,0.92 -1.905,1.326 L 4.024,3.689 C 2.663,4.299 1.682,5.051 1.082,5.945 0.482,6.84 0.183,8.039 0.183,9.543 c 0,1.769 0.513,3.181 1.54,4.238 1.026,1.057 2.414,1.585 4.161,1.585 1.727,0 3.064,-0.523 4.01,-1.57 0.944,-1.047 1.448,-2.556 1.508,-4.527 H 7.957 C 7.937,10.225 7.77,10.94 7.454,11.418 7.14,11.896 6.616,12.135 5.884,12.135 4.522,12.135 3.842,11.332 3.842,9.727 3.842,8.994 4.009,8.41 4.345,7.973 4.68,7.536 5.244,7.145 6.036,6.799 l 1.372,-0.61 c 1.464,-0.65 2.526,-1.462 3.187,-2.439 0.66,-0.975 0.99,-2.275 0.99,-3.902 0,-1.952 -0.508,-3.455 -1.524,-4.512 -1.016,-1.057 -2.459,-1.585 -4.33,-1.585 -1.849,0 -3.261,0.538 -4.237,1.616 C 0.519,-3.557 0.021,-2.012 0,0"
             style="fill:#1d1d1b;fill-opacity:1;fill-rule:nonzero;stroke:none"
             id="path72" /></g></g></g><g
       id="g74"><g
         id="g76"
         clip-path="url(#clipPath80)"><g
           id="g82"
           transform="translate(108.0298,171.133)"><path
             d="m 0,0 c -6.707,0 -12.914,5.239 -17.476,14.751 -4.382,9.136 -6.795,21.247 -6.795,34.101 0,12.855 2.413,24.965 6.795,34.101 4.562,9.512 10.769,14.751 17.476,14.751 6.707,0 12.914,-5.239 17.476,-14.751 4.382,-9.136 6.795,-21.246 6.795,-34.101 0,-12.854 -2.413,-24.965 -6.795,-34.101 C 12.914,5.239 6.707,0 0,0 m 20.55,-10.508 c 0.088,0.11 0.176,0.22 0.263,0.33 0.013,0.016 0.024,0.031 0.037,0.046 1.972,2.507 3.823,5.383 5.538,8.609 3.471,6.529 6.199,14.145 8.109,22.637 1.983,8.823 2.989,18.199 2.989,27.868 0,9.67 -1.006,19.046 -2.989,27.869 -1.911,8.491 -4.638,16.107 -8.109,22.636 -3.432,6.456 -7.408,11.508 -11.816,15.016 -4.446,3.537 -9.14,5.33 -13.951,5.33 -2.331,0 -4.634,-0.421 -6.894,-1.257 -9.094,-4.644 -16.918,-14.151 -22.392,-26.71 -0.519,-1.3 -1.012,-2.632 -1.482,-3.994 -1.167,-3.418 -2.18,-7.027 -3.028,-10.812 -1.981,-8.83 -2.985,-18.213 -2.985,-27.89 0,-9.677 1.004,-19.061 2.985,-27.89 1.156,-5.157 2.616,-9.99 4.358,-14.455 5.817,-13.519 14.348,-23.554 24.258,-27.873 1.733,-0.484 3.49,-0.728 5.262,-0.728 4.819,0 9.52,1.799 13.971,5.349 2.057,1.642 4.019,3.619 5.876,5.919"
             style="fill:#ffffff;fill-opacity:1;fill-rule:nonzero;stroke:none"
             id="path84" /></g><g
           id="g86"
           transform="translate(171.2041,160.4982)"><path
             d="m 0,0 v 5.69 c 0,0.401 0.17,0.782 0.466,1.051 l 6.338,5.738 c 0.351,0.318 0.52,0.79 0.451,1.258 l -1.143,7.71 c -0.054,0.366 0.036,0.739 0.254,1.038 l 5.952,8.224 c 0.256,0.354 0.335,0.806 0.213,1.226 l -2.344,8.098 c -0.091,0.313 -0.071,0.649 0.057,0.949 l 4.697,11.022 c 0.154,0.36 0.152,0.767 -0.005,1.124 l -3.783,8.634 c -0.137,0.315 -0.156,0.669 -0.052,0.997 l 3.646,11.522 c 0.133,0.418 0.065,0.873 -0.185,1.234 l -4.629,6.693 c -0.213,0.308 -0.296,0.688 -0.23,1.057 l 1.783,9.929 c 0.077,0.431 -0.048,0.872 -0.34,1.198 l -6.259,6.975 c -0.269,0.3 -0.398,0.7 -0.354,1.1 l 0.741,6.794 c 0.052,0.468 -0.132,0.931 -0.493,1.236 l -7.986,6.759 c -0.37,0.313 -0.555,0.795 -0.488,1.276 l 0.626,4.527 c 0.091,0.661 -0.289,1.295 -0.915,1.525 l -7.295,2.679 c -0.577,0.211 -0.951,0.769 -0.928,1.382 l 0.092,2.508 c 0.029,0.802 -0.614,1.468 -1.416,1.469 h -0.361 l -6.643,0.004 c -0.763,0.001 -1.39,-0.603 -1.417,-1.365 l -0.01,-0.265 c -0.022,-0.613 0.352,-1.171 0.928,-1.382 l 7.552,-2.773 c 0.625,-0.23 1.006,-0.864 0.915,-1.525 l -0.747,-5.391 c -0.066,-0.481 0.119,-0.963 0.489,-1.277 l 7.938,-6.717 c 0.36,-0.305 0.545,-0.768 0.493,-1.236 l -0.773,-7.082 c -0.044,-0.401 0.085,-0.801 0.354,-1.101 L 1.544,95.43 c 0.292,-0.325 0.417,-0.767 0.34,-1.197 L 0.056,84.048 c -0.067,-0.369 0.015,-0.749 0.228,-1.057 l 4.78,-6.91 C 5.313,75.72 5.383,75.265 5.25,74.847 L 1.485,62.953 C 1.382,62.625 1.4,62.271 1.538,61.956 l 3.859,-8.809 c 0.158,-0.358 0.16,-0.765 0.006,-1.124 L 0.604,40.763 c -0.127,-0.3 -0.147,-0.636 -0.056,-0.95 l 2.47,-8.53 C 3.139,30.863 3.061,30.411 2.804,30.058 L -3.311,21.61 c -0.216,-0.299 -0.307,-0.673 -0.253,-1.039 l 1.207,-8.139 c 0.069,-0.469 -0.1,-0.941 -0.452,-1.259 L -9.377,5.226 C -9.674,4.957 -9.843,4.576 -9.843,4.176 v -6.041 c 0,-0.483 -0.245,-0.932 -0.651,-1.193 l -7.555,-4.853 c -0.381,-0.245 -0.622,-0.658 -0.648,-1.111 l -0.197,-3.407 -0.227,-0.124 5.74,-0.013 c 0.238,0 0.473,0.059 0.683,0.173 l 3.072,1.677 c 0.429,0.235 0.707,0.674 0.735,1.162 l 0.143,2.464 c 0.025,0.453 0.267,0.866 0.648,1.111 l 7.449,4.787 C -0.245,-0.932 0,-0.482 0,0"
             style="fill:#ffffff;fill-opacity:1;fill-rule:nonzero;stroke:none"
             id="path88" /></g><g
           id="g90"
           transform="translate(157.9463,160.4982)"><path
             d="m 0,0 v 5.69 c 0,0.401 0.17,0.782 0.467,1.051 l 6.337,5.738 c 0.351,0.318 0.52,0.79 0.451,1.258 l -1.143,7.71 c -0.054,0.366 0.036,0.739 0.254,1.038 l 5.952,8.224 c 0.256,0.354 0.335,0.806 0.214,1.226 l -2.344,8.098 c -0.091,0.313 -0.072,0.649 0.057,0.949 l 4.696,11.022 c 0.154,0.36 0.152,0.767 -0.005,1.124 l -3.783,8.634 c -0.137,0.315 -0.156,0.669 -0.052,0.997 l 3.646,11.522 c 0.133,0.418 0.065,0.873 -0.185,1.234 l -4.629,6.693 c -0.213,0.308 -0.296,0.688 -0.23,1.057 l 1.783,9.929 c 0.077,0.431 -0.048,0.872 -0.34,1.198 l -6.259,6.975 c -0.269,0.3 -0.398,0.7 -0.354,1.1 l 0.742,6.794 c 0.051,0.468 -0.133,0.931 -0.493,1.236 l -7.987,6.759 c -0.37,0.313 -0.555,0.795 -0.488,1.276 l 0.626,4.527 c 0.091,0.661 -0.289,1.295 -0.915,1.525 l -7.295,2.679 c -0.576,0.211 -0.951,0.769 -0.928,1.382 l 0.092,2.517 c 0.029,0.802 -0.613,1.468 -1.415,1.469 l -7.005,0.005 c -0.763,0 -1.389,-0.604 -1.417,-1.366 l -0.01,-0.274 c -0.022,-0.613 0.352,-1.171 0.928,-1.382 l 7.552,-2.773 c 0.626,-0.23 1.006,-0.864 0.915,-1.525 l -0.747,-5.391 c -0.066,-0.481 0.119,-0.963 0.49,-1.277 l 7.937,-6.717 c 0.36,-0.305 0.545,-0.768 0.493,-1.236 l -0.773,-7.082 c -0.044,-0.401 0.085,-0.801 0.354,-1.101 L 1.544,95.43 c 0.292,-0.325 0.418,-0.767 0.34,-1.197 L 0.056,84.048 c -0.067,-0.369 0.015,-0.749 0.228,-1.057 l 4.78,-6.91 C 5.314,75.72 5.383,75.265 5.25,74.847 L 1.485,62.953 C 1.382,62.625 1.4,62.271 1.539,61.956 l 3.858,-8.809 c 0.158,-0.358 0.16,-0.765 0.006,-1.124 L 0.605,40.763 c -0.127,-0.3 -0.148,-0.636 -0.057,-0.95 l 2.47,-8.53 C 3.139,30.863 3.061,30.411 2.805,30.058 L -3.311,21.61 c -0.216,-0.299 -0.307,-0.673 -0.253,-1.039 l 1.207,-8.139 c 0.069,-0.469 -0.1,-0.941 -0.452,-1.259 L -9.377,5.226 C -9.674,4.957 -9.843,4.576 -9.843,4.176 v -6.041 c 0,-0.483 -0.245,-0.932 -0.651,-1.193 l -7.554,-4.853 c -0.382,-0.245 -0.623,-0.658 -0.649,-1.111 l -0.197,-3.407 -0.168,-0.092 5.74,-0.013 c 0.238,-10e-4 0.472,0.058 0.682,0.173 l 3.014,1.645 c 0.43,0.235 0.707,0.674 0.735,1.162 l 0.143,2.464 c 0.026,0.453 0.268,0.866 0.648,1.111 l 7.45,4.787 C -0.245,-0.932 0,-0.482 0,0"
             style="fill:#ffffff;fill-opacity:1;fill-rule:nonzero;stroke:none"
             id="path92" /></g><g
           id="g94"
           transform="translate(164.0176,292.484)"><path
             d="m 0,0 c -0.756,0.181 -1.493,-0.359 -1.521,-1.136 -0.02,-0.526 0.301,-1.004 0.795,-1.186 l 7.842,-2.879 c 0.536,-0.197 0.863,-0.741 0.785,-1.307 l -0.783,-5.663 c -0.057,-0.412 0.101,-0.826 0.418,-1.095 l 8.106,-6.859 c 0.307,-0.26 0.466,-0.658 0.422,-1.059 l -0.794,-7.279 c -0.038,-0.343 0.072,-0.686 0.303,-0.943 l 6.481,-7.223 c 0.251,-0.279 0.358,-0.658 0.292,-1.027 L 20.484,-48.02 c -0.056,-0.316 0.015,-0.642 0.198,-0.906 l 4.883,-7.061 c 0.214,-0.309 0.273,-0.7 0.16,-1.058 l -3.818,-12.06 c -0.089,-0.281 -0.073,-0.585 0.045,-0.855 l 3.925,-8.958 c 0.134,-0.308 0.136,-0.656 0.005,-0.965 l -4.861,-11.406 c -0.11,-0.257 -0.127,-0.545 -0.049,-0.815 l 2.517,-8.694 c 0.105,-0.359 0.036,-0.747 -0.182,-1.051 l -6.221,-8.593 c -0.187,-0.257 -0.265,-0.577 -0.218,-0.891 l 1.235,-8.328 c 0.059,-0.402 -0.086,-0.806 -0.387,-1.079 l -6.715,-6.08 c -0.255,-0.23 -0.399,-0.557 -0.399,-0.901 v -6.24 c 0,-0.414 -0.211,-0.799 -0.559,-1.023 l -7.733,-4.969 c -0.328,-0.21 -0.535,-0.564 -0.557,-0.953 l -0.035,-0.608 c -0.051,-0.886 0.835,-1.533 1.66,-1.209 18.389,7.218 32.138,36.187 32.138,70.828 C 35.516,-35.164 20.057,-4.807 0,0"
             style="fill:#ffffff;fill-opacity:1;fill-rule:nonzero;stroke:none"
             id="path96" /></g><g
           id="g98"
           transform="translate(144.6895,160.4982)"><path
             d="m 0,0 v 5.69 c 0,0.401 0.169,0.782 0.466,1.051 l 6.337,5.738 c 0.351,0.318 0.52,0.79 0.451,1.258 l -1.143,7.71 c -0.054,0.366 0.037,0.739 0.254,1.038 l 5.952,8.224 c 0.256,0.354 0.335,0.806 0.214,1.226 l -2.344,8.098 c -0.091,0.313 -0.071,0.649 0.057,0.949 l 4.696,11.022 c 0.154,0.36 0.152,0.767 -0.005,1.124 l -3.783,8.634 c -0.137,0.315 -0.156,0.669 -0.052,0.997 l 3.647,11.522 c 0.132,0.418 0.064,0.873 -0.186,1.234 l -4.629,6.693 c -0.213,0.308 -0.296,0.688 -0.23,1.057 l 1.783,9.929 c 0.078,0.431 -0.047,0.872 -0.339,1.198 l -6.259,6.975 c -0.27,0.3 -0.399,0.7 -0.355,1.1 l 0.742,6.794 c 0.051,0.468 -0.133,0.931 -0.493,1.236 l -7.987,6.759 c -0.37,0.313 -0.555,0.795 -0.488,1.276 l 0.627,4.527 c 0.09,0.661 -0.29,1.295 -0.916,1.525 l -7.295,2.679 c -0.576,0.211 -0.95,0.769 -0.928,1.382 l 0.092,2.526 c 0.03,0.802 -0.613,1.468 -1.415,1.469 l -8.199,0.006 c -1.426,0 -1.943,-1.84 -0.749,-2.621 0.844,-0.552 1.68,-1.158 2.507,-1.817 3.271,-2.609 6.305,-5.979 9.065,-10.062 1.253,-1.853 2.448,-3.852 3.584,-5.993 C 0.067,98.22 4.136,79.73 4.136,60.091 4.136,40.451 0.067,21.961 -7.321,8.028 -8.457,5.887 -9.652,3.888 -10.904,2.035 c -2.76,-4.082 -5.795,-7.452 -9.066,-10.061 -0.836,-0.667 -1.681,-1.28 -2.536,-1.837 -1.192,-0.778 -0.679,-2.616 0.745,-2.619 l 8.496,-0.021 c 0.239,0 0.473,0.06 0.682,0.174 l 2.956,1.613 c 0.43,0.235 0.708,0.674 0.736,1.162 l 0.142,2.464 c 0.026,0.453 0.268,0.866 0.648,1.111 l 7.45,4.787 C -0.246,-0.932 0,-0.482 0,0"
             style="fill:#ffffff;fill-opacity:1;fill-rule:nonzero;stroke:none"
             id="path100" /></g><g
           id="g102"
           transform="translate(118.0547,223.423)"><path
             d="M 0,0 C -0.296,-0.619 -0.639,-1.102 -1.018,-1.436 -1.39,-1.764 -1.779,-1.93 -2.176,-1.93 h -0.002 -0.003 c -0.396,0 -0.786,0.166 -1.158,0.494 -0.378,0.334 -0.721,0.817 -1.017,1.436 -0.624,1.301 -0.968,3.036 -0.968,4.886 0,1.849 0.344,3.585 0.968,4.885 0.296,0.619 0.639,1.102 1.017,1.436 0.372,0.328 0.762,0.495 1.158,0.495 10e-4,0 0.002,-10e-4 0.003,-10e-4 0,0 10e-4,10e-4 0.002,10e-4 0.397,0 0.786,-0.167 1.158,-0.495 C -0.639,10.873 -0.296,10.39 0,9.771 0.624,8.471 0.968,6.735 0.968,4.886 0.968,3.036 0.624,1.301 0,0 m 0,-16.294 c -0.296,-0.619 -0.639,-1.102 -1.018,-1.436 -0.372,-0.328 -0.761,-0.495 -1.158,-0.495 -10e-4,0 -0.002,0.001 -0.002,0.001 -10e-4,0 -0.002,-0.001 -0.003,-0.001 -0.396,0 -0.786,0.167 -1.158,0.495 -0.378,0.334 -0.721,0.817 -1.017,1.436 -0.624,1.301 -0.968,3.036 -0.968,4.885 0,1.85 0.344,3.585 0.968,4.886 0.296,0.619 0.639,1.102 1.017,1.436 0.372,0.328 0.762,0.494 1.158,0.494 10e-4,0 0.002,0 0.003,0 0,0 10e-4,0 0.002,0 0.397,0 0.786,-0.166 1.158,-0.494 0.379,-0.334 0.722,-0.817 1.018,-1.436 0.624,-1.301 0.968,-3.036 0.968,-4.886 0,-1.849 -0.344,-3.584 -0.968,-4.885 m -7.537,29.926 c -0.297,-0.619 -0.64,-1.102 -1.019,-1.436 -0.371,-0.328 -0.761,-0.494 -1.158,-0.494 h -0.002 -0.002 c -0.397,0 -0.786,0.166 -1.158,0.494 -0.379,0.334 -0.722,0.817 -1.018,1.436 -0.624,1.301 -0.968,3.035 -0.968,4.885 0,1.85 0.344,3.585 0.968,4.886 0.296,0.618 0.639,1.102 1.018,1.435 0.372,0.329 0.761,0.495 1.158,0.495 h 0.002 0.002 c 0.397,0 0.787,-0.166 1.158,-0.495 0.379,-0.333 0.722,-0.817 1.019,-1.435 0.624,-1.301 0.967,-3.036 0.967,-4.886 0,-1.85 -0.343,-3.584 -0.967,-4.885 M -11.86,-2.895 c 0,1.229 0.228,2.381 0.643,3.245 0.196,0.411 0.424,0.732 0.676,0.954 0.247,0.217 0.506,0.328 0.769,0.328 h 10e-4 v 0 c 0.264,0 0.523,-0.111 0.77,-0.328 0.251,-0.222 0.479,-0.543 0.676,-0.954 0.414,-0.864 0.642,-2.016 0.642,-3.245 0,-1.228 -0.228,-2.38 -0.642,-3.245 -0.197,-0.41 -0.425,-0.731 -0.676,-0.953 -0.247,-0.218 -0.506,-0.328 -0.77,-0.328 v 0 h -10e-4 c -0.263,0 -0.522,0.11 -0.769,0.328 -0.252,0.222 -0.48,0.543 -0.676,0.953 -0.415,0.865 -0.643,2.017 -0.643,3.245 m 4.323,-27.031 c -0.297,-0.618 -0.64,-1.101 -1.019,-1.435 -0.371,-0.328 -0.761,-0.495 -1.158,-0.495 0,0 -10e-4,0.001 -0.002,0.001 -0.001,0 -0.001,-0.001 -0.002,-0.001 -0.397,0 -0.786,0.167 -1.158,0.495 -0.379,0.334 -0.722,0.817 -1.018,1.435 -0.624,1.301 -0.968,3.036 -0.968,4.886 0,1.85 0.344,3.584 0.968,4.886 0.296,0.618 0.639,1.101 1.018,1.435 0.372,0.328 0.761,0.494 1.158,0.494 h 0.002 0.002 c 0.397,0 0.787,-0.166 1.158,-0.494 0.379,-0.334 0.722,-0.817 1.019,-1.435 0.624,-1.302 0.967,-3.036 0.967,-4.886 0,-1.85 -0.343,-3.585 -0.967,-4.886 M -15.186,0 c -0.296,-0.619 -0.639,-1.102 -1.018,-1.436 -0.372,-0.328 -0.761,-0.494 -1.158,-0.494 h -0.002 -0.002 c -0.397,0 -0.787,0.166 -1.158,0.494 -0.379,0.334 -0.722,0.817 -1.018,1.436 -0.625,1.301 -0.968,3.036 -0.968,4.886 0,1.849 0.343,3.585 0.967,4.885 0.297,0.619 0.64,1.102 1.019,1.436 0.371,0.328 0.761,0.495 1.158,0.495 0,0 0.001,-10e-4 0.002,-10e-4 0.001,0 0.001,10e-4 0.002,10e-4 0.397,0 0.786,-0.167 1.158,-0.495 0.379,-0.334 0.722,-0.817 1.018,-1.436 0.624,-1.3 0.968,-3.036 0.968,-4.885 0,-1.85 -0.344,-3.585 -0.968,-4.886 m 0,-16.294 c -0.296,-0.619 -0.639,-1.102 -1.018,-1.436 -0.372,-0.328 -0.761,-0.495 -1.158,-0.495 -0.001,0 -0.001,0.001 -0.002,0.001 -10e-4,0 -0.002,-0.001 -0.002,-0.001 -0.397,0 -0.787,0.167 -1.158,0.495 -0.379,0.334 -0.722,0.817 -1.018,1.436 -0.625,1.301 -0.968,3.036 -0.968,4.885 0,1.85 0.343,3.585 0.967,4.886 0.297,0.619 0.64,1.102 1.019,1.436 0.371,0.328 0.761,0.494 1.158,0.494 0,0 0.001,0 0.002,0 0.001,0 0.001,0 0.002,0 0.397,0 0.786,-0.166 1.158,-0.494 0.379,-0.334 0.722,-0.817 1.018,-1.436 0.624,-1.301 0.968,-3.036 0.968,-4.886 0,-1.849 -0.344,-3.584 -0.968,-4.885 M 4.812,29.444 c -1.987,4.143 -4.28,7.377 -6.815,9.612 -2.49,2.196 -5.099,3.31 -7.753,3.31 -0.005,0 -0.01,-10e-4 -0.015,-10e-4 -0.005,0 -0.01,10e-4 -0.015,10e-4 -2.654,0 -5.263,-1.114 -7.754,-3.31 -2.535,-2.235 -4.828,-5.469 -6.814,-9.612 -4.178,-8.709 -6.479,-20.324 -6.479,-32.705 0,-12.382 2.301,-23.997 6.479,-32.706 1.986,-4.143 4.279,-7.377 6.814,-9.612 2.491,-2.196 5.1,-3.31 7.754,-3.31 0.005,0 0.01,0.001 0.015,0.001 0.005,0 0.01,-0.001 0.015,-0.001 2.654,0 5.263,1.114 7.753,3.31 2.535,2.235 4.828,5.469 6.815,9.612 4.177,8.709 6.478,20.324 6.478,32.706 0,12.381 -2.301,23.996 -6.478,32.705"
             style="fill:#ffffff;fill-opacity:1;fill-rule:nonzero;stroke:none"
             id="path104" /></g></g></g></g></svg>
