<?xml version="1.0" encoding="UTF-8" standalone="no"?>
<!-- Created with Inkscape (http://www.inkscape.org/) -->

<svg
   version="1.1"
   id="svg2"
   xml:space="preserve"
   width="361.72131"
   height="474.91333"
   viewBox="0 0 361.72131 474.91333"
   sodipodi:docname="e1c37f27fcbace6a4cc28162d0d57a52.ai"
   xmlns:inkscape="http://www.inkscape.org/namespaces/inkscape"
   xmlns:sodipodi="http://sodipodi.sourceforge.net/DTD/sodipodi-0.dtd"
   xmlns="http://www.w3.org/2000/svg"
   xmlns:svg="http://www.w3.org/2000/svg"><defs
     id="defs6"><clipPath
       clipPathUnits="userSpaceOnUse"
       id="clipPath32"><path
         d="M 0,356.185 H 271.291 V 0 H 0 Z"
         id="path30" /></clipPath><clipPath
       clipPathUnits="userSpaceOnUse"
       id="clipPath52"><path
         d="M 0,356.185 H 271.291 V 0 H 0 Z"
         id="path50" /></clipPath></defs><sodipodi:namedview
     id="namedview4"
     pagecolor="#ffffff"
     bordercolor="#666666"
     borderopacity="1.0"
     inkscape:pageshadow="2"
     inkscape:pageopacity="0.0"
     inkscape:pagecheckerboard="0" /><g
     id="g8"
     inkscape:groupmode="layer"
     inkscape:label="e1c37f27fcbace6a4cc28162d0d57a52"
     transform="matrix(1.3333333,0,0,-1.3333333,0,474.91332)"><path
       d="M 1,85.894 H 270.291 V 355.185 H 1 Z"
       style="fill:#952a86;fill-opacity:1;fill-rule:nonzero;stroke:none"
       id="path10" /><path
       d="M 0,84.893 H 271.291 V 356.185 H 0 Z M 2,354.185 H 269.291 V 86.894 H 2 Z"
       style="fill:#952a86;fill-opacity:1;fill-rule:nonzero;stroke:none"
       id="path12" /><path
       d="M 1,1 H 270.291 V 86.039 H 1 Z"
       style="fill:#ffffff;fill-opacity:1;fill-rule:nonzero;stroke:none"
       id="path14" /><path
       d="M 0,0 H 271.291 V 87.039 H 0 Z M 2,85.039 H 269.291 V 2 H 2 Z"
       style="fill:#952a86;fill-opacity:1;fill-rule:nonzero;stroke:none"
       id="path16" /><g
       id="g18"
       transform="translate(110.4922,50.6076)"><path
         d="M 0,0 V -17.652 H -3.72 V 0 H -7.378 V 3.384 H 3.628 V 0 Z"
         style="fill:#1d1d1b;fill-opacity:1;fill-rule:nonzero;stroke:none"
         id="path20" /></g><g
       id="g22"
       transform="translate(123.3584,32.9552)"><path
         d="m 0,0 h -3.75 v 8.263 l -4.269,12.773 h 4.117 l 2.011,-8.049 2.013,8.049 H 4.268 L 0,8.201 Z"
         style="fill:#1d1d1b;fill-opacity:1;fill-rule:nonzero;stroke:none"
         id="path24" /></g><g
       id="g26"><g
         id="g28"
         clip-path="url(#clipPath32)"><g
           id="g34"
           transform="translate(135.7061,44.7541)"><path
             d="M 0,0 C 0.752,0 1.271,0.249 1.555,0.747 1.84,1.245 1.981,1.981 1.981,2.957 1.981,3.933 1.845,4.664 1.57,5.152 1.296,5.64 0.772,5.884 0,5.884 H -1.951 V 0 Z m -1.951,-3.354 v -8.445 h -3.75 V 9.237 H 0.03 C 2.104,9.237 3.572,8.739 4.436,7.743 5.3,6.748 5.731,5.152 5.731,2.957 5.731,1.555 5.539,0.386 5.152,-0.549 4.767,-1.483 4.136,-2.185 3.262,-2.652 l 3.14,-9.147 H 2.5 l -2.652,8.445 z"
             style="fill:#1d1d1b;fill-opacity:1;fill-rule:nonzero;stroke:none"
             id="path36" /></g><g
           id="g38"
           transform="translate(148.6651,45.3332)"><path
             d="M 0,0 H 4.878 V -3.354 H 0 v -5.67 h 5.671 v -3.354 H -3.72 V 8.658 H 5.671 V 5.274 H 0 Z"
             style="fill:#1d1d1b;fill-opacity:1;fill-rule:nonzero;stroke:none"
             id="path40" /></g><g
           id="g42"
           transform="translate(156.5918,38.9611)"><path
             d="m 0,0 h 3.537 c 0.04,-1.036 0.248,-1.799 0.625,-2.286 0.376,-0.488 0.93,-0.732 1.661,-0.732 0.732,0 1.266,0.224 1.601,0.671 0.335,0.447 0.503,1.159 0.503,2.134 C 7.927,0.6 7.739,1.245 7.362,1.723 6.986,2.2 6.352,2.643 5.457,3.049 L 4.024,3.689 C 2.663,4.299 1.682,5.051 1.082,5.945 0.482,6.84 0.183,8.039 0.183,9.543 c 0,1.769 0.513,3.181 1.54,4.237 1.026,1.057 2.413,1.586 4.161,1.586 1.727,0 3.064,-0.523 4.01,-1.57 0.944,-1.047 1.448,-2.556 1.508,-4.527 H 7.957 C 7.937,10.224 7.77,10.94 7.454,11.418 7.14,11.896 6.616,12.134 5.884,12.134 4.522,12.134 3.842,11.331 3.842,9.726 3.842,8.994 4.009,8.41 4.345,7.973 4.68,7.536 5.244,7.145 6.036,6.799 l 1.372,-0.61 c 1.464,-0.65 2.526,-1.463 3.187,-2.439 0.66,-0.976 0.99,-2.276 0.99,-3.902 0,-1.952 -0.508,-3.455 -1.524,-4.512 -1.016,-1.057 -2.459,-1.585 -4.33,-1.585 -1.849,0 -3.261,0.538 -4.237,1.615 C 0.519,-3.557 0.021,-2.012 0,0"
             style="fill:#1d1d1b;fill-opacity:1;fill-rule:nonzero;stroke:none"
             id="path44" /></g></g></g><g
       id="g46"><g
         id="g48"
         clip-path="url(#clipPath52)"><g
           id="g54"
           transform="translate(90.4415,186.1706)"><path
             d="m 0,0 c -4.382,9.135 -6.795,21.246 -6.795,34.101 0,12.854 2.413,24.964 6.795,34.1 4.562,9.512 10.769,14.751 17.476,14.751 6.707,0 12.913,-5.239 17.476,-14.751 4.382,-9.136 6.796,-21.246 6.796,-34.1 C 41.748,21.246 39.334,9.135 34.952,0 30.39,-9.512 24.183,-14.751 17.476,-14.751 10.769,-14.751 4.562,-9.512 0,0 m 51.973,62.099 c -1.91,8.492 -4.638,16.108 -8.109,22.637 -3.432,6.455 -7.407,11.507 -11.816,15.015 -4.446,3.538 -9.14,5.331 -13.951,5.331 -2.331,0 -4.634,-0.422 -6.894,-1.258 -9.094,-4.644 -16.918,-14.151 -22.391,-26.71 -0.52,-1.299 -1.013,-2.632 -1.483,-3.994 -1.167,-3.418 -2.18,-7.027 -3.028,-10.811 -1.981,-8.83 -2.985,-18.214 -2.985,-27.891 0,-9.677 1.004,-19.061 2.985,-27.89 1.157,-5.157 2.616,-9.989 4.358,-14.455 5.818,-13.519 14.348,-23.553 24.258,-27.872 1.733,-0.485 3.49,-0.729 5.262,-0.729 4.82,0 9.52,1.8 13.971,5.35 2.057,1.64 4.019,3.619 5.876,5.919 0.088,0.109 0.176,0.218 0.264,0.33 0.011,0.015 0.023,0.03 0.036,0.046 1.972,2.507 3.823,5.383 5.538,8.608 3.471,6.529 6.199,14.145 8.109,22.637 1.983,8.823 2.989,18.199 2.989,27.868 0,9.67 -1.006,19.046 -2.989,27.869"
             style="fill:#ffffff;fill-opacity:1;fill-rule:nonzero;stroke:none"
             id="path56" /></g><g
           id="g58"
           transform="translate(123.2198,251.3722)"><path
             d="m 0,0 c -0.238,0.545 -0.482,1.081 -0.734,1.605 -1.987,4.142 -4.28,7.376 -6.815,9.611 -2.49,2.197 -5.099,3.31 -7.753,3.31 -2.655,0 -5.263,-1.114 -7.754,-3.31 -2.535,-2.235 -4.828,-5.469 -6.815,-9.611 -4.177,-8.709 -6.478,-20.325 -6.478,-32.706 0,-12.382 2.301,-23.997 6.478,-32.706 1.987,-4.143 4.28,-7.376 6.815,-9.612 2.491,-2.195 5.099,-3.31 7.754,-3.31 2.654,0 5.263,1.115 7.753,3.31 2.535,2.236 4.828,5.47 6.815,9.612 0.66,1.376 1.274,2.826 1.838,4.339 -3.264,7.915 -5.291,18.968 -5.291,31.201 C -4.187,-17.48 -2.611,-7.61 0,0"
             style="fill:#ffffff;fill-opacity:1;fill-rule:nonzero;stroke:none"
             id="path60" /></g><g
           id="g62"
           transform="translate(150.1719,290.112)"><path
             d="M 0,0 7.552,-2.773 C 8.177,-3.002 8.559,-3.637 8.467,-4.297 L 7.721,-9.689 c -0.067,-0.481 0.118,-0.962 0.488,-1.276 l 7.938,-6.718 c 0.36,-0.304 0.545,-0.768 0.494,-1.236 l -0.774,-7.082 c -0.044,-0.4 0.085,-0.801 0.355,-1.101 l 6.354,-7.082 c 0.292,-0.325 0.417,-0.767 0.34,-1.197 l -1.828,-10.185 c -0.067,-0.369 0.016,-0.748 0.229,-1.057 l 4.78,-6.91 c 0.25,-0.361 0.318,-0.816 0.185,-1.234 l -3.764,-11.894 c -0.104,-0.328 -0.085,-0.682 0.052,-0.997 l 3.86,-8.809 c 0.157,-0.358 0.159,-0.764 0.006,-1.124 l -4.799,-11.26 c -0.128,-0.3 -0.148,-0.636 -0.057,-0.949 l 2.47,-8.531 c 0.121,-0.419 0.043,-0.872 -0.214,-1.225 l -6.114,-8.447 c -0.217,-0.3 -0.308,-0.673 -0.254,-1.039 l 1.207,-8.14 c 0.069,-0.469 -0.1,-0.941 -0.451,-1.259 l -6.569,-5.946 c -0.297,-0.27 -0.466,-0.651 -0.466,-1.051 v -6.041 c 0,-0.482 -0.245,-0.932 -0.651,-1.192 l -7.555,-4.854 c -0.38,-0.245 -0.622,-0.658 -0.648,-1.111 l -0.196,-3.406 -0.228,-0.125 5.74,-0.013 c 0.239,0 0.473,0.059 0.683,0.174 l 3.072,1.676 c 0.429,0.235 0.707,0.674 0.736,1.163 l 0.142,2.463 c 0.026,0.454 0.267,0.867 0.649,1.112 l 7.448,4.786 c 0.406,0.261 0.651,0.71 0.651,1.192 v 5.691 c 0,0.4 0.17,0.781 0.466,1.049 l 6.338,5.739 c 0.351,0.318 0.52,0.79 0.451,1.259 l -1.142,7.709 c -0.055,0.366 0.036,0.739 0.252,1.039 l 5.954,8.223 c 0.255,0.354 0.335,0.806 0.212,1.226 l -2.344,8.098 c -0.091,0.313 -0.071,0.649 0.057,0.95 l 4.698,11.022 c 0.153,0.359 0.151,0.766 -0.006,1.124 l -3.782,8.633 c -0.138,0.315 -0.157,0.669 -0.053,0.997 l 3.646,11.522 c 0.133,0.418 0.065,0.874 -0.185,1.234 l -4.629,6.693 c -0.213,0.308 -0.296,0.688 -0.23,1.057 l 1.784,9.93 c 0.077,0.43 -0.049,0.872 -0.34,1.197 l -6.26,6.975 c -0.269,0.3 -0.398,0.7 -0.354,1.101 l 0.742,6.793 c 0.051,0.469 -0.133,0.932 -0.494,1.236 l -7.986,6.759 c -0.37,0.314 -0.555,0.795 -0.488,1.276 l 0.626,4.527 c 0.092,0.661 -0.289,1.295 -0.915,1.525 l -7.295,2.678 c -0.576,0.212 -0.95,0.77 -0.928,1.383 L 8.919,1.539 C 8.948,2.341 8.306,3.007 7.503,3.008 H 7.143 L 0.499,3.013 c -0.763,0 -1.39,-0.603 -1.417,-1.366 L -0.928,1.382 C -0.95,0.769 -0.576,0.211 0,0"
             style="fill:#ffffff;fill-opacity:1;fill-rule:nonzero;stroke:none"
             id="path64" /></g><g
           id="g66"
           transform="translate(147.4522,157.4406)"><path
             d="m 0,0 -7.554,-4.854 c -0.382,-0.245 -0.623,-0.658 -0.649,-1.111 l -0.196,-3.406 -0.169,-0.092 5.74,-0.014 c 0.238,-10e-4 0.473,0.059 0.682,0.173 l 3.014,1.646 c 0.43,0.234 0.708,0.674 0.736,1.162 l 0.142,2.464 c 0.026,0.453 0.268,0.866 0.649,1.111 l 7.449,4.786 c 0.405,0.261 0.65,0.71 0.65,1.193 v 5.69 c 0,0.4 0.17,0.781 0.467,1.05 l 6.337,5.738 c 0.351,0.318 0.52,0.79 0.451,1.259 l -1.143,7.709 c -0.054,0.367 0.037,0.739 0.254,1.039 l 5.952,8.224 c 0.256,0.354 0.335,0.806 0.214,1.225 l -2.344,8.098 c -0.091,0.314 -0.072,0.649 0.056,0.95 l 4.698,11.022 c 0.153,0.359 0.151,0.766 -0.006,1.124 l -3.783,8.634 c -0.137,0.315 -0.156,0.669 -0.052,0.996 l 3.646,11.522 c 0.133,0.418 0.065,0.874 -0.185,1.235 l -4.629,6.692 c -0.213,0.308 -0.296,0.689 -0.23,1.057 l 1.783,9.93 c 0.078,0.43 -0.047,0.872 -0.339,1.197 l -6.26,6.975 c -0.269,0.301 -0.398,0.701 -0.354,1.101 l 0.743,6.794 c 0.05,0.468 -0.134,0.931 -0.495,1.236 l -7.986,6.758 c -0.37,0.314 -0.555,0.795 -0.488,1.276 l 0.626,4.528 c 0.092,0.66 -0.289,1.295 -0.915,1.525 l -7.295,2.678 c -0.575,0.211 -0.95,0.769 -0.928,1.382 l 0.092,2.517 c 0.029,0.802 -0.612,1.469 -1.415,1.469 l -7.005,0.005 c -0.763,10e-4 -1.389,-0.603 -1.417,-1.365 l -0.01,-0.274 c -0.022,-0.614 0.352,-1.171 0.928,-1.383 l 7.552,-2.773 c 0.626,-0.229 1.007,-0.864 0.915,-1.524 l -0.746,-5.392 c -0.067,-0.481 0.118,-0.962 0.489,-1.276 l 7.937,-6.718 c 0.36,-0.304 0.545,-0.767 0.494,-1.236 L 5.329,106.67 c -0.044,-0.4 0.085,-0.8 0.355,-1.1 l 6.354,-7.082 c 0.292,-0.325 0.418,-0.767 0.34,-1.197 L 10.55,87.105 c -0.067,-0.368 0.015,-0.748 0.229,-1.056 l 4.78,-6.911 c 0.25,-0.36 0.318,-0.816 0.185,-1.234 L 11.979,66.01 c -0.103,-0.327 -0.084,-0.681 0.054,-0.996 l 3.859,-8.809 c 0.157,-0.358 0.159,-0.765 0.005,-1.124 L 11.1,43.821 c -0.128,-0.301 -0.149,-0.636 -0.058,-0.95 l 2.47,-8.531 c 0.121,-0.419 0.043,-0.871 -0.213,-1.225 L 7.184,24.668 C 6.967,24.368 6.876,23.995 6.93,23.629 l 1.207,-8.14 C 8.206,15.021 8.037,14.549 7.686,14.23 L 1.117,8.284 C 0.82,8.015 0.651,7.634 0.651,7.233 V 1.192 C 0.651,0.71 0.406,0.261 0,0"
             style="fill:#ffffff;fill-opacity:1;fill-rule:nonzero;stroke:none"
             id="path68" /></g><g
           id="g70"
           transform="translate(162.4961,291.3478)"><path
             d="M 0,0 V 0 C -0.02,-0.526 0.302,-1.004 0.796,-1.185 L 8.638,-4.064 C 9.174,-4.262 9.501,-4.806 9.423,-5.372 L 8.64,-11.035 c -0.058,-0.412 0.1,-0.825 0.418,-1.094 l 8.105,-6.859 c 0.309,-0.261 0.467,-0.658 0.423,-1.06 l -0.795,-7.279 c -0.038,-0.343 0.073,-0.686 0.304,-0.943 l 6.48,-7.223 c 0.251,-0.279 0.359,-0.658 0.292,-1.027 l -1.861,-10.364 c -0.057,-0.316 0.015,-0.641 0.197,-0.906 l 4.884,-7.061 c 0.214,-0.309 0.272,-0.699 0.159,-1.058 l -3.817,-12.06 c -0.089,-0.281 -0.074,-0.585 0.045,-0.855 l 3.924,-8.958 c 0.134,-0.307 0.136,-0.656 0.005,-0.965 l -4.861,-11.406 c -0.109,-0.257 -0.127,-0.545 -0.049,-0.814 l 2.518,-8.695 c 0.104,-0.359 0.037,-0.747 -0.183,-1.05 l -6.221,-8.594 c -0.186,-0.257 -0.264,-0.577 -0.217,-0.891 l 1.234,-8.327 c 0.06,-0.403 -0.086,-0.807 -0.387,-1.08 l -6.715,-6.08 c -0.254,-0.23 -0.399,-0.557 -0.399,-0.901 v -6.24 c 0,-0.413 -0.211,-0.799 -0.559,-1.023 l -7.733,-4.968 c -0.327,-0.21 -0.534,-0.565 -0.557,-0.954 l -0.035,-0.608 c -0.051,-0.886 0.835,-1.533 1.66,-1.209 18.389,7.218 32.138,36.187 32.138,70.828 0,36.732 -15.459,67.088 -35.516,71.895 C 0.766,1.317 0.028,0.777 0,0"
             style="fill:#ffffff;fill-opacity:1;fill-rule:nonzero;stroke:none"
             id="path72" /></g><g
           id="g74"
           transform="translate(133.7847,162.5334)"><path
             d="m 0,0 c -2.759,-4.082 -5.794,-7.452 -9.065,-10.062 -0.836,-0.667 -1.682,-1.279 -2.536,-1.836 -1.192,-0.778 -0.679,-2.616 0.745,-2.62 l 8.496,-0.02 c 0.238,0 0.473,0.059 0.682,0.174 l 2.956,1.613 c 0.43,0.234 0.707,0.674 0.736,1.162 l 0.142,2.464 c 0.026,0.453 0.267,0.866 0.648,1.111 l 7.449,4.786 c 0.406,0.261 0.652,0.71 0.652,1.193 v 5.69 c 0,0.401 0.169,0.782 0.466,1.05 l 6.337,5.738 c 0.351,0.319 0.52,0.79 0.451,1.259 l -1.143,7.71 c -0.055,0.366 0.037,0.738 0.254,1.038 l 5.952,8.224 c 0.256,0.354 0.335,0.806 0.214,1.225 l -2.345,8.099 c -0.091,0.313 -0.07,0.648 0.058,0.949 l 4.696,11.022 c 0.154,0.36 0.152,0.766 -0.006,1.124 l -3.782,8.634 c -0.138,0.315 -0.156,0.669 -0.053,0.997 l 3.648,11.522 c 0.132,0.418 0.063,0.873 -0.186,1.234 l -4.63,6.692 c -0.212,0.308 -0.295,0.689 -0.229,1.057 l 1.783,9.93 c 0.077,0.43 -0.048,0.872 -0.34,1.197 l -6.258,6.976 c -0.27,0.3 -0.399,0.7 -0.355,1.1 l 0.742,6.794 c 0.051,0.468 -0.134,0.931 -0.493,1.236 l -7.987,6.759 c -0.37,0.313 -0.555,0.795 -0.489,1.276 l 0.627,4.527 c 0.091,0.661 -0.29,1.295 -0.916,1.525 l -7.294,2.678 c -0.576,0.211 -0.95,0.77 -0.928,1.382 l 0.092,2.527 c 0.029,0.801 -0.613,1.468 -1.416,1.468 l -8.198,0.006 c -1.427,10e-4 -1.943,-1.839 -0.749,-2.62 0.844,-0.552 1.68,-1.158 2.507,-1.818 3.271,-2.609 6.305,-5.979 9.065,-10.061 1.252,-1.853 2.448,-3.852 3.583,-5.993 C 10.972,96.185 15.041,77.695 15.041,58.055 15.041,38.416 10.972,19.926 3.583,5.993 2.449,3.852 1.252,1.853 0,0"
             style="fill:#ffffff;fill-opacity:1;fill-rule:nonzero;stroke:none"
             id="path76" /></g></g></g></g></svg>
