<?xml version="1.0" encoding="utf-8"?>
<!-- Generator: Adobe Illustrator 25.4.1, SVG Export Plug-In . SVG Version: 6.00 Build 0)  -->
<svg version="1.1" xmlns="http://www.w3.org/2000/svg" xmlns:xlink="http://www.w3.org/1999/xlink" x="0px" y="0px"
	 viewBox="0 0 271.29 356.19" style="enable-background:new 0 0 271.29 356.19;" xml:space="preserve">
<style type="text/css">
	.st0{fill:#962A86;}
	.st1{fill:#FFFFFF;}
	.st2{fill:none;}
</style>
<g id="bakgrund">
	<g>
		<rect x="1" y="1" class="st0" width="269.29" height="269.29"/>
		<path class="st0" d="M271.29,271.29H0V0h271.29V271.29z M2,269.29h267.29V2H2V269.29z"/>
	</g>
	<rect x="1" y="270.15" class="st1" width="269.29" height="85.04"/>
	<path class="st0" d="M271.29,356.19H0v-87.04h271.29V356.19z M2,354.19h267.29v-83.04H2V354.19z"/>
</g>
<g id="namn">
	<g>
		<path d="M48.93,305.58v17.65h-3.72v-17.65h-3.66v-3.38h11.01v3.38H48.93z"/>
		<path d="M61.8,323.23h-3.75v-8.26l-4.27-12.77h4.12l2.01,8.05l2.01-8.05h4.15l-4.27,12.84V323.23z"/>
		<path d="M72.2,314.78v8.45h-3.75v-21.04h5.73c2.07,0,3.54,0.5,4.41,1.49c0.86,1,1.3,2.59,1.3,4.79c0,1.4-0.19,2.57-0.58,3.51
			c-0.39,0.93-1.02,1.64-1.89,2.1l3.14,9.15h-3.9L74,314.78H72.2z M74.15,311.43c0.75,0,1.27-0.25,1.55-0.75
			c0.29-0.5,0.43-1.24,0.43-2.21c0-0.98-0.14-1.71-0.41-2.2s-0.8-0.73-1.57-0.73H72.2v5.88H74.15z"/>
		<path d="M87.11,310.85h4.88v3.35h-4.88v5.67h5.67v3.35h-9.39v-21.04h9.39v3.38h-5.67V310.85z"/>
		<path d="M95.03,317.22h3.54c0.04,1.04,0.25,1.8,0.62,2.29c0.38,0.49,0.93,0.73,1.66,0.73s1.27-0.22,1.6-0.67
			c0.33-0.45,0.5-1.16,0.5-2.13c0-0.81-0.19-1.46-0.56-1.94c-0.38-0.48-1.01-0.92-1.91-1.33l-1.43-0.64
			c-1.36-0.61-2.34-1.36-2.94-2.26s-0.9-2.09-0.9-3.6c0-1.77,0.51-3.18,1.54-4.24c1.03-1.06,2.41-1.58,4.16-1.58
			c1.73,0,3.06,0.52,4.01,1.57c0.94,1.05,1.45,2.56,1.51,4.53h-3.45c-0.02-0.96-0.19-1.67-0.5-2.15c-0.31-0.48-0.84-0.72-1.57-0.72
			c-1.36,0-2.04,0.8-2.04,2.41c0,0.73,0.17,1.32,0.5,1.75c0.33,0.44,0.9,0.83,1.69,1.17l1.37,0.61c1.46,0.65,2.53,1.46,3.19,2.44
			c0.66,0.97,0.99,2.28,0.99,3.9c0,1.95-0.51,3.46-1.52,4.51c-1.02,1.06-2.46,1.58-4.33,1.58c-1.85,0-3.26-0.54-4.24-1.62
			C95.55,320.78,95.05,319.24,95.03,317.22z"/>
		<path d="M131.22,323.23h-4.05l-2.29-12.93l-2.32,12.93h-4.02l-3.75-21.04h3.81l2.04,15.73l1.98-15.73h4.57l1.98,15.73l2.04-15.73
			h3.75L131.22,323.23z"/>
		<path d="M141.2,302.19v21.04h-3.72v-21.04H141.2z"/>
		<path d="M151.01,305.58v17.65h-3.72v-17.65h-3.66v-3.38h11.01v3.38H151.01z"/>
		<path d="M168.42,323.23h-3.75v-9.02h-3.96v9.02h-3.75v-21.04h3.75v8.66h3.96v-8.66h3.75V323.23z"/>
		<path d="M181.9,314.78v8.45h-3.75v-21.04h5.73c2.07,0,3.54,0.5,4.41,1.49c0.86,1,1.3,2.59,1.3,4.79c0,1.4-0.19,2.57-0.58,3.51
			c-0.39,0.93-1.02,1.64-1.89,2.1l3.14,9.15h-3.9l-2.65-8.45H181.9z M183.85,311.43c0.75,0,1.27-0.25,1.55-0.75
			c0.29-0.5,0.43-1.24,0.43-2.21c0-0.98-0.14-1.71-0.41-2.2s-0.8-0.73-1.57-0.73h-1.95v5.88H183.85z"/>
		<path d="M196.93,302.19v21.04h-3.72v-21.04H196.93z"/>
		<path d="M215.37,323.23h-3.75v-12.32l-2.68,8.23h-2.01l-2.65-8.14v12.23h-3.75v-21.04h3.75l3.66,11.1l3.69-11.1h3.75V323.23z"/>
		<path d="M218.15,317.22h3.54c0.04,1.04,0.25,1.8,0.62,2.29c0.38,0.49,0.93,0.73,1.66,0.73s1.27-0.22,1.6-0.67
			c0.33-0.45,0.5-1.16,0.5-2.13c0-0.81-0.19-1.46-0.56-1.94c-0.38-0.48-1.01-0.92-1.91-1.33l-1.43-0.64
			c-1.36-0.61-2.34-1.36-2.94-2.26s-0.9-2.09-0.9-3.6c0-1.77,0.51-3.18,1.54-4.24c1.03-1.06,2.41-1.58,4.16-1.58
			c1.73,0,3.06,0.52,4.01,1.57c0.94,1.05,1.45,2.56,1.51,4.53h-3.45c-0.02-0.96-0.19-1.67-0.5-2.15c-0.31-0.48-0.84-0.72-1.57-0.72
			c-1.36,0-2.04,0.8-2.04,2.41c0,0.73,0.17,1.32,0.5,1.75c0.33,0.44,0.9,0.83,1.69,1.17l1.37,0.61c1.46,0.65,2.53,1.46,3.19,2.44
			c0.66,0.97,0.99,2.28,0.99,3.9c0,1.95-0.51,3.46-1.52,4.51c-1.02,1.06-2.46,1.58-4.33,1.58c-1.85,0-3.26-0.54-4.24-1.62
			C218.67,320.78,218.17,319.24,218.15,317.22z"/>
	</g>
</g>
<g id="ikon">
	<g>
		<path class="st2" d="M132.3,136.2c0-12.85-2.41-24.97-6.8-34.1c-4.56-9.51-10.77-14.75-17.48-14.75
			c-6.71,0-12.91,5.24-17.48,14.75c-4.38,9.14-6.8,21.25-6.8,34.1s2.41,24.97,6.8,34.1c4.56,9.51,10.77,14.75,17.48,14.75
			c6.71,0,12.91-5.24,17.48-14.75C129.89,161.16,132.3,149.05,132.3,136.2z M116.05,178.34c-2.49,2.2-5.1,3.31-7.75,3.31
			c0,0-0.01,0-0.01,0s-0.01,0-0.01,0c-2.65,0-5.26-1.11-7.75-3.31c-2.54-2.24-4.83-5.47-6.82-9.61c-4.18-8.71-6.48-20.32-6.48-32.71
			c0-12.38,2.3-24,6.48-32.71c1.99-4.14,4.28-7.38,6.82-9.61c2.49-2.2,5.1-3.31,7.75-3.31c0,0,0.01,0,0.01,0s0.01,0,0.01,0
			c2.65,0,5.26,1.11,7.75,3.31c2.54,2.24,4.83,5.47,6.82,9.61c4.18,8.71,6.48,20.32,6.48,32.71c0,12.38-2.3,24-6.48,32.71
			C120.88,172.87,118.59,176.11,116.05,178.34z"/>
		<path class="st2" d="M101.85,121.55c-0.37-0.33-0.76-0.49-1.16-0.49c0,0,0,0,0,0s0,0,0,0c-0.4,0-0.79,0.17-1.16,0.49
			c-0.38,0.33-0.72,0.82-1.02,1.44c-0.62,1.3-0.97,3.04-0.97,4.89s0.34,3.58,0.97,4.89c0.3,0.62,0.64,1.1,1.02,1.44
			c0.37,0.33,0.76,0.49,1.16,0.49c0,0,0,0,0,0s0,0,0,0c0.4,0,0.79-0.17,1.16-0.49c0.38-0.33,0.72-0.82,1.02-1.44
			c0.62-1.3,0.97-3.04,0.97-4.89s-0.34-3.58-0.97-4.89C102.57,122.37,102.23,121.89,101.85,121.55z"/>
		<path class="st2" d="M117.04,121.55c-0.37-0.33-0.76-0.49-1.16-0.49c0,0,0,0,0,0s0,0,0,0c-0.4,0-0.79,0.17-1.16,0.49
			c-0.38,0.33-0.72,0.82-1.02,1.44c-0.62,1.3-0.97,3.04-0.97,4.89s0.34,3.58,0.97,4.89c0.3,0.62,0.64,1.1,1.02,1.44
			c0.37,0.33,0.76,0.49,1.16,0.49c0,0,0,0,0,0s0,0,0,0c0.4,0,0.79-0.17,1.16-0.49c0.38-0.33,0.72-0.82,1.02-1.44
			c0.62-1.3,0.97-3.04,0.97-4.89s-0.34-3.58-0.97-4.89C117.76,122.37,117.42,121.89,117.04,121.55z"/>
		<path class="st2" d="M108.28,140.18C108.28,140.18,108.28,140.18,108.28,140.18C108.28,140.18,108.28,140.18,108.28,140.18
			c0.26,0,0.52-0.11,0.77-0.33c0.25-0.22,0.48-0.54,0.68-0.95c0.41-0.86,0.64-2.02,0.64-3.24c0-1.23-0.23-2.38-0.64-3.24
			c-0.2-0.41-0.42-0.73-0.68-0.95c-0.25-0.22-0.51-0.33-0.77-0.33c0,0,0,0,0,0c0,0,0,0,0,0c-0.26,0-0.52,0.11-0.77,0.33
			c-0.25,0.22-0.48,0.54-0.68,0.95c-0.41,0.86-0.64,2.02-0.64,3.24c0,1.23,0.23,2.38,0.64,3.24c0.2,0.41,0.42,0.73,0.68,0.95
			C107.76,140.07,108.02,140.18,108.28,140.18z"/>
		<path class="st2" d="M117.04,137.85c-0.37-0.33-0.76-0.49-1.16-0.49c0,0,0,0,0,0s0,0,0,0c-0.4,0-0.79,0.17-1.16,0.49
			c-0.38,0.33-0.72,0.82-1.02,1.44c-0.62,1.3-0.97,3.04-0.97,4.89s0.34,3.58,0.97,4.89c0.3,0.62,0.64,1.1,1.02,1.44
			c0.37,0.33,0.76,0.49,1.16,0.49c0,0,0,0,0,0s0,0,0,0c0.4,0,0.79-0.17,1.16-0.49c0.38-0.33,0.72-0.82,1.02-1.44
			c0.62-1.3,0.97-3.04,0.97-4.89s-0.34-3.58-0.97-4.89C117.76,138.67,117.42,138.18,117.04,137.85z"/>
		<path class="st2" d="M109.5,151.48c-0.37-0.33-0.76-0.49-1.16-0.49c0,0,0,0,0,0s0,0,0,0c-0.4,0-0.79,0.17-1.16,0.49
			c-0.38,0.33-0.72,0.82-1.02,1.44c-0.62,1.3-0.97,3.04-0.97,4.89c0,1.85,0.34,3.58,0.97,4.89c0.3,0.62,0.64,1.1,1.02,1.44
			c0.37,0.33,0.76,0.49,1.16,0.49c0,0,0,0,0,0s0,0,0,0c0.4,0,0.79-0.17,1.16-0.49c0.38-0.33,0.72-0.82,1.02-1.44
			c0.62-1.3,0.97-3.04,0.97-4.89c0-1.85-0.34-3.58-0.97-4.89C110.22,152.3,109.88,151.81,109.5,151.48z"/>
		<path class="st2" d="M109.5,107.92c-0.37-0.33-0.76-0.49-1.16-0.49c0,0,0,0,0,0s0,0,0,0c-0.4,0-0.79,0.17-1.16,0.49
			c-0.38,0.33-0.72,0.82-1.02,1.44c-0.62,1.3-0.97,3.04-0.97,4.89s0.34,3.58,0.97,4.89c0.3,0.62,0.64,1.1,1.02,1.44
			c0.37,0.33,0.76,0.49,1.16,0.49c0,0,0,0,0,0s0,0,0,0c0.4,0,0.79-0.17,1.16-0.49c0.38-0.33,0.72-0.82,1.02-1.44
			c0.62-1.3,0.97-3.04,0.97-4.89s-0.34-3.58-0.97-4.89C110.22,108.74,109.88,108.26,109.5,107.92z"/>
		<path class="st2" d="M101.85,137.85c-0.37-0.33-0.76-0.49-1.16-0.49c0,0,0,0,0,0s0,0,0,0c-0.4,0-0.79,0.17-1.16,0.49
			c-0.38,0.33-0.72,0.82-1.02,1.44c-0.62,1.3-0.97,3.04-0.97,4.89s0.34,3.58,0.97,4.89c0.3,0.62,0.64,1.1,1.02,1.44
			c0.37,0.33,0.76,0.49,1.16,0.49c0,0,0,0,0,0s0,0,0,0c0.4,0,0.79-0.17,1.16-0.49c0.38-0.33,0.72-0.82,1.02-1.44
			c0.62-1.3,0.97-3.04,0.97-4.89s-0.34-3.58-0.97-4.89C102.57,138.67,102.23,138.18,101.85,137.85z"/>
		<path class="st1" d="M128.58,195.56c0.09-0.11,0.18-0.22,0.26-0.33c0.01-0.02,0.02-0.03,0.04-0.05c1.97-2.51,3.82-5.38,5.54-8.61
			c3.47-6.53,6.2-14.15,8.11-22.64c1.98-8.82,2.99-18.2,2.99-27.87c0-9.67-1.01-19.05-2.99-27.87c-1.91-8.49-4.64-16.11-8.11-22.64
			c-3.43-6.46-7.41-11.51-11.82-15.02c-4.45-3.54-9.14-5.33-13.95-5.33c-2.33,0-4.63,0.42-6.89,1.26
			c-9.09,4.64-16.92,14.15-22.39,26.71c-0.52,1.3-1.01,2.63-1.48,3.99c-1.17,3.42-2.18,7.03-3.03,10.81
			c-1.98,8.83-2.98,18.21-2.98,27.89s1,19.06,2.98,27.89c1.16,5.16,2.62,9.99,4.36,14.45c5.82,13.52,14.35,23.55,24.26,27.87
			c1.73,0.48,3.49,0.73,5.26,0.73c4.82,0,9.52-1.8,13.97-5.35C124.76,199.84,126.72,197.86,128.58,195.56z M108.03,185.05
			c-6.71,0-12.91-5.24-17.48-14.75c-4.38-9.14-6.8-21.25-6.8-34.1s2.41-24.97,6.8-34.1c4.56-9.51,10.77-14.75,17.48-14.75
			c6.71,0,12.91,5.24,17.48,14.75c4.38,9.14,6.8,21.25,6.8,34.1c0,12.85-2.41,24.97-6.8,34.1
			C120.94,179.81,114.74,185.05,108.03,185.05z"/>
		<path class="st1" d="M171.2,195.69V190c0-0.4,0.17-0.78,0.47-1.05l6.34-5.74c0.35-0.32,0.52-0.79,0.45-1.26l-1.14-7.71
			c-0.05-0.37,0.04-0.74,0.25-1.04l5.95-8.22c0.26-0.35,0.33-0.81,0.21-1.23l-2.34-8.1c-0.09-0.31-0.07-0.65,0.06-0.95l4.7-11.02
			c0.15-0.36,0.15-0.77-0.01-1.12l-3.78-8.63c-0.14-0.31-0.16-0.67-0.05-1l3.65-11.52c0.13-0.42,0.06-0.87-0.19-1.23l-4.63-6.69
			c-0.21-0.31-0.3-0.69-0.23-1.06l1.78-9.93c0.08-0.43-0.05-0.87-0.34-1.2l-6.26-6.98c-0.27-0.3-0.4-0.7-0.35-1.1l0.74-6.79
			c0.05-0.47-0.13-0.93-0.49-1.24L168,78.43c-0.37-0.31-0.55-0.8-0.49-1.28l0.63-4.53c0.09-0.66-0.29-1.29-0.92-1.52l-7.29-2.68
			c-0.58-0.21-0.95-0.77-0.93-1.38l0.09-2.51c0.03-0.8-0.61-1.47-1.42-1.47l-0.36,0l-6.64,0c-0.76,0-1.39,0.6-1.42,1.37l-0.01,0.26
			c-0.02,0.61,0.35,1.17,0.93,1.38l7.55,2.77c0.63,0.23,1.01,0.86,0.92,1.52l-0.75,5.39c-0.07,0.48,0.12,0.96,0.49,1.28l7.94,6.72
			c0.36,0.3,0.54,0.77,0.49,1.24l-0.77,7.08c-0.04,0.4,0.09,0.8,0.35,1.1l6.35,7.08c0.29,0.33,0.42,0.77,0.34,1.2l-1.83,10.18
			c-0.07,0.37,0.02,0.75,0.23,1.06l4.78,6.91c0.25,0.36,0.32,0.82,0.19,1.23l-3.76,11.89c-0.1,0.33-0.08,0.68,0.05,1l3.86,8.81
			c0.16,0.36,0.16,0.76,0.01,1.12l-4.8,11.26c-0.13,0.3-0.15,0.64-0.06,0.95l2.47,8.53c0.12,0.42,0.04,0.87-0.21,1.23l-6.11,8.45
			c-0.22,0.3-0.31,0.67-0.25,1.04l1.21,8.14c0.07,0.47-0.1,0.94-0.45,1.26l-6.57,5.95c-0.3,0.27-0.47,0.65-0.47,1.05v6.04
			c0,0.48-0.25,0.93-0.65,1.19l-7.55,4.85c-0.38,0.25-0.62,0.66-0.65,1.11l-0.2,3.41l-0.23,0.12l5.74,0.01
			c0.24,0,0.47-0.06,0.68-0.17l3.07-1.68c0.43-0.23,0.71-0.67,0.74-1.16l0.14-2.46c0.03-0.45,0.27-0.87,0.65-1.11l7.45-4.79
			C170.96,196.62,171.2,196.17,171.2,195.69z"/>
		<path class="st1" d="M157.95,195.69V190c0-0.4,0.17-0.78,0.47-1.05l6.34-5.74c0.35-0.32,0.52-0.79,0.45-1.26l-1.14-7.71
			c-0.05-0.37,0.04-0.74,0.25-1.04l5.95-8.22c0.26-0.35,0.33-0.81,0.21-1.23l-2.34-8.1c-0.09-0.31-0.07-0.65,0.06-0.95l4.7-11.02
			c0.15-0.36,0.15-0.77-0.01-1.12l-3.78-8.63c-0.14-0.31-0.16-0.67-0.05-1l3.65-11.52c0.13-0.42,0.06-0.87-0.19-1.23l-4.63-6.69
			c-0.21-0.31-0.3-0.69-0.23-1.06l1.78-9.93c0.08-0.43-0.05-0.87-0.34-1.2l-6.26-6.98c-0.27-0.3-0.4-0.7-0.35-1.1l0.74-6.79
			c0.05-0.47-0.13-0.93-0.49-1.24l-7.99-6.76c-0.37-0.31-0.55-0.8-0.49-1.28l0.63-4.53c0.09-0.66-0.29-1.29-0.92-1.52l-7.29-2.68
			c-0.58-0.21-0.95-0.77-0.93-1.38l0.09-2.52c0.03-0.8-0.61-1.47-1.42-1.47l-7,0c-0.76,0-1.39,0.6-1.42,1.37l-0.01,0.27
			c-0.02,0.61,0.35,1.17,0.93,1.38l7.55,2.77c0.63,0.23,1.01,0.86,0.92,1.52l-0.75,5.39c-0.07,0.48,0.12,0.96,0.49,1.28l7.94,6.72
			c0.36,0.3,0.54,0.77,0.49,1.24l-0.77,7.08c-0.04,0.4,0.09,0.8,0.35,1.1l6.35,7.08c0.29,0.33,0.42,0.77,0.34,1.2L158,111.64
			c-0.07,0.37,0.02,0.75,0.23,1.06l4.78,6.91c0.25,0.36,0.32,0.82,0.19,1.23l-3.76,11.89c-0.1,0.33-0.08,0.68,0.05,1l3.86,8.81
			c0.16,0.36,0.16,0.76,0.01,1.12l-4.8,11.26c-0.13,0.3-0.15,0.64-0.06,0.95l2.47,8.53c0.12,0.42,0.04,0.87-0.21,1.23l-6.11,8.45
			c-0.22,0.3-0.31,0.67-0.25,1.04l1.21,8.14c0.07,0.47-0.1,0.94-0.45,1.26l-6.57,5.95c-0.3,0.27-0.47,0.65-0.47,1.05v6.04
			c0,0.48-0.25,0.93-0.65,1.19l-7.55,4.85c-0.38,0.25-0.62,0.66-0.65,1.11l-0.2,3.41l-0.17,0.09l5.74,0.01
			c0.24,0,0.47-0.06,0.68-0.17l3.01-1.64c0.43-0.23,0.71-0.67,0.74-1.16l0.14-2.46c0.03-0.45,0.27-0.87,0.65-1.11l7.45-4.79
			C157.7,196.62,157.95,196.17,157.95,195.69z"/>
		<path class="st1" d="M164.02,63.7c-0.76-0.18-1.49,0.36-1.52,1.14c-0.02,0.53,0.3,1,0.8,1.19l7.84,2.88
			c0.54,0.2,0.86,0.74,0.79,1.31l-0.78,5.66c-0.06,0.41,0.1,0.83,0.42,1.09l8.1,6.86c0.31,0.26,0.47,0.66,0.42,1.06l-0.79,7.28
			c-0.04,0.34,0.07,0.69,0.3,0.94l6.48,7.22c0.25,0.28,0.36,0.66,0.29,1.03l-1.86,10.36c-0.06,0.32,0.01,0.64,0.2,0.91l4.88,7.06
			c0.21,0.31,0.27,0.7,0.16,1.06l-3.82,12.06c-0.09,0.28-0.07,0.58,0.05,0.85l3.92,8.96c0.13,0.31,0.14,0.66,0,0.96l-4.86,11.41
			c-0.11,0.26-0.13,0.55-0.05,0.81l2.52,8.69c0.1,0.36,0.04,0.75-0.18,1.05l-6.22,8.59c-0.19,0.26-0.26,0.58-0.22,0.89l1.23,8.33
			c0.06,0.4-0.09,0.81-0.39,1.08l-6.71,6.08c-0.25,0.23-0.4,0.56-0.4,0.9v6.24c0,0.41-0.21,0.8-0.56,1.02l-7.73,4.97
			c-0.33,0.21-0.53,0.56-0.56,0.95l-0.04,0.61c-0.05,0.89,0.83,1.53,1.66,1.21c18.39-7.22,32.14-36.19,32.14-70.83
			C199.53,98.86,184.07,68.51,164.02,63.7z"/>
		<path class="st1" d="M144.69,195.69V190c0-0.4,0.17-0.78,0.47-1.05l6.34-5.74c0.35-0.32,0.52-0.79,0.45-1.26l-1.14-7.71
			c-0.05-0.37,0.04-0.74,0.25-1.04l5.95-8.22c0.26-0.35,0.33-0.81,0.21-1.23l-2.34-8.1c-0.09-0.31-0.07-0.65,0.06-0.95l4.7-11.02
			c0.15-0.36,0.15-0.77-0.01-1.12l-3.78-8.63c-0.14-0.31-0.16-0.67-0.05-1l3.65-11.52c0.13-0.42,0.06-0.87-0.19-1.23l-4.63-6.69
			c-0.21-0.31-0.3-0.69-0.23-1.06l1.78-9.93c0.08-0.43-0.05-0.87-0.34-1.2l-6.26-6.98c-0.27-0.3-0.4-0.7-0.35-1.1l0.74-6.79
			c0.05-0.47-0.13-0.93-0.49-1.24l-7.99-6.76c-0.37-0.31-0.55-0.8-0.49-1.28l0.63-4.53c0.09-0.66-0.29-1.29-0.92-1.52l-7.29-2.68
			c-0.58-0.21-0.95-0.77-0.93-1.38l0.09-2.53c0.03-0.8-0.61-1.47-1.42-1.47l-8.2-0.01c-1.43,0-1.94,1.84-0.75,2.62
			c0.84,0.55,1.68,1.16,2.51,1.82c3.27,2.61,6.31,5.98,9.07,10.06c1.25,1.85,2.45,3.85,3.58,5.99
			c7.39,13.93,11.46,32.42,11.46,52.06s-4.07,38.13-11.46,52.06c-1.14,2.14-2.33,4.14-3.58,5.99c-2.76,4.08-5.79,7.45-9.07,10.06
			c-0.84,0.67-1.68,1.28-2.54,1.84c-1.19,0.78-0.68,2.62,0.74,2.62l8.5,0.02c0.24,0,0.47-0.06,0.68-0.17l2.96-1.61
			c0.43-0.23,0.71-0.67,0.74-1.16l0.14-2.46c0.03-0.45,0.27-0.87,0.65-1.11l7.45-4.79C144.44,196.62,144.69,196.17,144.69,195.69z"
			/>
		<path class="st1" d="M122.87,103.32c-1.99-4.14-4.28-7.38-6.82-9.61c-2.49-2.2-5.1-3.31-7.75-3.31c0,0-0.01,0-0.01,0
			s-0.01,0-0.01,0c-2.65,0-5.26,1.11-7.75,3.31c-2.54,2.24-4.83,5.47-6.82,9.61c-4.18,8.71-6.48,20.32-6.48,32.71
			c0,12.38,2.3,24,6.48,32.71c1.99,4.14,4.28,7.38,6.82,9.61c2.49,2.2,5.1,3.31,7.75,3.31c0,0,0.01,0,0.01,0s0.01,0,0.01,0
			c2.65,0,5.26-1.11,7.75-3.31c2.54-2.24,4.83-5.47,6.82-9.61c4.18-8.71,6.48-20.32,6.48-32.71
			C129.34,123.64,127.04,112.03,122.87,103.32z M102.87,149.06c-0.3,0.62-0.64,1.1-1.02,1.44c-0.37,0.33-0.76,0.49-1.16,0.49
			c0,0,0,0,0,0s0,0,0,0c-0.4,0-0.79-0.17-1.16-0.49c-0.38-0.33-0.72-0.82-1.02-1.44c-0.62-1.3-0.97-3.04-0.97-4.89
			s0.34-3.58,0.97-4.89c0.3-0.62,0.64-1.1,1.02-1.44c0.37-0.33,0.76-0.49,1.16-0.49c0,0,0,0,0,0s0,0,0,0c0.4,0,0.79,0.17,1.16,0.49
			c0.38,0.33,0.72,0.82,1.02,1.44c0.62,1.3,0.97,3.04,0.97,4.89S103.49,147.76,102.87,149.06z M102.87,132.76
			c-0.3,0.62-0.64,1.1-1.02,1.44c-0.37,0.33-0.76,0.49-1.16,0.49c0,0,0,0,0,0s0,0,0,0c-0.4,0-0.79-0.17-1.16-0.49
			c-0.38-0.33-0.72-0.82-1.02-1.44c-0.62-1.3-0.97-3.04-0.97-4.89s0.34-3.58,0.97-4.89c0.3-0.62,0.64-1.1,1.02-1.44
			c0.37-0.33,0.76-0.49,1.16-0.49c0,0,0,0,0,0s0,0,0,0c0.4,0,0.79,0.17,1.16,0.49c0.38,0.33,0.72,0.82,1.02,1.44
			c0.62,1.3,0.97,3.04,0.97,4.89S103.49,131.46,102.87,132.76z M110.52,162.69c-0.3,0.62-0.64,1.1-1.02,1.44
			c-0.37,0.33-0.76,0.49-1.16,0.49c0,0,0,0,0,0s0,0,0,0c-0.4,0-0.79-0.17-1.16-0.49c-0.38-0.33-0.72-0.82-1.02-1.44
			c-0.62-1.3-0.97-3.04-0.97-4.89c0-1.85,0.34-3.58,0.97-4.89c0.3-0.62,0.64-1.1,1.02-1.44c0.37-0.33,0.76-0.49,1.16-0.49
			c0,0,0,0,0,0s0,0,0,0c0.4,0,0.79,0.17,1.16,0.49c0.38,0.33,0.72,0.82,1.02,1.44c0.62,1.3,0.97,3.04,0.97,4.89
			C111.49,159.65,111.14,161.39,110.52,162.69z M106.19,135.66c0-1.23,0.23-2.38,0.64-3.24c0.2-0.41,0.42-0.73,0.68-0.95
			c0.25-0.22,0.51-0.33,0.77-0.33c0,0,0,0,0,0c0,0,0,0,0,0c0.26,0,0.52,0.11,0.77,0.33c0.25,0.22,0.48,0.54,0.68,0.95
			c0.41,0.86,0.64,2.02,0.64,3.24c0,1.23-0.23,2.38-0.64,3.24c-0.2,0.41-0.42,0.73-0.68,0.95c-0.25,0.22-0.51,0.33-0.77,0.33
			c0,0,0,0,0,0c0,0,0,0,0,0c-0.26,0-0.52-0.11-0.77-0.33c-0.25-0.22-0.48-0.54-0.68-0.95C106.42,138.04,106.19,136.89,106.19,135.66
			z M110.52,119.13c-0.3,0.62-0.64,1.1-1.02,1.44c-0.37,0.33-0.76,0.49-1.16,0.49c0,0,0,0,0,0s0,0,0,0c-0.4,0-0.79-0.17-1.16-0.49
			c-0.38-0.33-0.72-0.82-1.02-1.44c-0.62-1.3-0.97-3.04-0.97-4.89s0.34-3.58,0.97-4.89c0.3-0.62,0.64-1.1,1.02-1.44
			c0.37-0.33,0.76-0.49,1.16-0.49c0,0,0,0,0,0s0,0,0,0c0.4,0,0.79,0.17,1.16,0.49c0.38,0.33,0.72,0.82,1.02,1.44
			c0.62,1.3,0.97,3.04,0.97,4.89S111.14,117.83,110.52,119.13z M118.05,149.06c-0.3,0.62-0.64,1.1-1.02,1.44
			c-0.37,0.33-0.76,0.49-1.16,0.49c0,0,0,0,0,0s0,0,0,0c-0.4,0-0.79-0.17-1.16-0.49c-0.38-0.33-0.72-0.82-1.02-1.44
			c-0.62-1.3-0.97-3.04-0.97-4.89s0.34-3.58,0.97-4.89c0.3-0.62,0.64-1.1,1.02-1.44c0.37-0.33,0.76-0.49,1.16-0.49c0,0,0,0,0,0
			s0,0,0,0c0.4,0,0.79,0.17,1.16,0.49c0.38,0.33,0.72,0.82,1.02,1.44c0.62,1.3,0.97,3.04,0.97,4.89S118.68,147.76,118.05,149.06z
			 M118.05,132.76c-0.3,0.62-0.64,1.1-1.02,1.44c-0.37,0.33-0.76,0.49-1.16,0.49c0,0,0,0,0,0s0,0,0,0c-0.4,0-0.79-0.17-1.16-0.49
			c-0.38-0.33-0.72-0.82-1.02-1.44c-0.62-1.3-0.97-3.04-0.97-4.89s0.34-3.58,0.97-4.89c0.3-0.62,0.64-1.1,1.02-1.44
			c0.37-0.33,0.76-0.49,1.16-0.49c0,0,0,0,0,0s0,0,0,0c0.4,0,0.79,0.17,1.16,0.49c0.38,0.33,0.72,0.82,1.02,1.44
			c0.62,1.3,0.97,3.04,0.97,4.89S118.68,131.46,118.05,132.76z"/>
	</g>
</g>
</svg>
