<?xml version="1.0" encoding="utf-8"?>
<!-- Generator: Adobe Illustrator 25.4.1, SVG Export Plug-In . SVG Version: 6.00 Build 0)  -->
<svg version="1.1" xmlns="http://www.w3.org/2000/svg" xmlns:xlink="http://www.w3.org/1999/xlink" x="0px" y="0px"
	 viewBox="0 0 271.29 356.19" style="enable-background:new 0 0 271.29 356.19;" xml:space="preserve">
<style type="text/css">
	.st0{fill:#FFFFFF;}
</style>
<g id="bakgrund">
	<g>
		<rect x="1" y="1" width="269.29" height="269.29"/>
		<path d="M271.29,271.29H0V0h271.29V271.29z M2,269.29h267.29V2H2V269.29z"/>
	</g>
	<g>
		<rect x="1" y="270.15" class="st0" width="269.29" height="85.04"/>
		<path d="M271.29,356.19H0v-87.04h271.29V356.19z M2,354.19h267.29v-83.04H2V354.19z"/>
	</g>
</g>
<g id="namn">
	<g>
		<path d="M47.76,323.23H43.7l-2.29-12.93l-2.32,12.93h-4.02l-3.75-21.04h3.81l2.04,15.73l1.98-15.73h4.57l1.98,15.73l2.04-15.73
			h3.75L47.76,323.23z"/>
		<path d="M57.55,319.14l-0.85,4.09h-3.9l5.4-21.04h3.66l5.37,21.04h-3.9l-0.85-4.09H57.55z M60.02,307.25l-1.77,8.54h3.54
			L60.02,307.25z"/>
		<path d="M68.89,317.22h3.54c0.04,1.04,0.25,1.8,0.62,2.29c0.38,0.49,0.93,0.73,1.66,0.73s1.27-0.22,1.6-0.67
			c0.33-0.45,0.5-1.16,0.5-2.13c0-0.81-0.19-1.46-0.56-1.94c-0.38-0.48-1.01-0.92-1.91-1.33l-1.43-0.64
			c-1.36-0.61-2.34-1.36-2.94-2.26s-0.9-2.09-0.9-3.6c0-1.77,0.51-3.18,1.54-4.24s2.41-1.59,4.16-1.59c1.73,0,3.06,0.52,4.01,1.57
			c0.94,1.05,1.45,2.56,1.51,4.53h-3.45c-0.02-0.96-0.19-1.67-0.5-2.15c-0.31-0.48-0.84-0.72-1.57-0.72c-1.36,0-2.04,0.8-2.04,2.41
			c0,0.73,0.17,1.32,0.5,1.75c0.33,0.44,0.9,0.83,1.69,1.17l1.37,0.61c1.46,0.65,2.53,1.46,3.19,2.44c0.66,0.98,0.99,2.28,0.99,3.9
			c0,1.95-0.51,3.46-1.52,4.51c-1.02,1.06-2.46,1.58-4.33,1.58c-1.85,0-3.26-0.54-4.24-1.62S68.91,319.24,68.89,317.22z"/>
		<path d="M89.71,305.58v17.65h-3.72v-17.65h-3.66v-3.38h11.01v3.38H89.71z"/>
		<path d="M99.38,310.85h4.88v3.35h-4.88v5.67h5.67v3.35h-9.39v-21.04h9.39v3.38h-5.67V310.85z"/>
		<path d="M116.27,311v3.35h-8.38V311H116.27z"/>
		<path d="M125.84,305.58v17.65h-3.72v-17.65h-3.66v-3.38h11.01v3.38H125.84z"/>
		<path d="M131.67,317.44v-9.48c0-1.99,0.56-3.5,1.68-4.53c1.12-1.03,2.59-1.54,4.42-1.54c1.77,0,3.19,0.51,4.25,1.54
			s1.6,2.54,1.6,4.53v9.48c0,1.95-0.56,3.45-1.69,4.48c-1.13,1.04-2.59,1.55-4.37,1.55c-1.81,0-3.24-0.51-4.3-1.54
			C132.19,320.91,131.67,319.41,131.67,317.44z M139.87,317.01v-8.44c0-1.08-0.18-1.9-0.55-2.46c-0.37-0.56-0.91-0.84-1.65-0.84
			c-0.79,0-1.37,0.27-1.72,0.82c-0.36,0.55-0.53,1.37-0.53,2.47v8.44c0,2.05,0.75,3.08,2.26,3.08c0.71,0,1.26-0.27,1.63-0.81
			C139.68,318.74,139.87,317.99,139.87,317.01z"/>
		<path d="M155.23,311v3.35h-8.38V311H155.23z"/>
		<path d="M162.31,310.85h4.88v3.35h-4.88v5.67h5.67v3.35h-9.39v-21.04h9.39v3.38h-5.67V310.85z"/>
		<path d="M182.83,323.23h-3.75l-4.39-11.22v11.22h-3.75v-21.04h3.75l4.39,11.71v-11.71h3.75V323.23z"/>
		<path d="M190.02,310.85h4.88v3.35h-4.88v5.67h5.67v3.35h-9.39v-21.04h9.39v3.38h-5.67V310.85z"/>
		<path d="M202.4,314.78v8.45h-3.75v-21.04h5.73c2.07,0,3.54,0.5,4.41,1.49c0.86,1,1.3,2.59,1.3,4.79c0,1.4-0.19,2.57-0.58,3.51
			s-1.02,1.64-1.89,2.1l3.14,9.15h-3.9l-2.65-8.45H202.4z M204.35,311.43c0.75,0,1.27-0.25,1.55-0.75c0.29-0.5,0.43-1.23,0.43-2.21
			s-0.14-1.71-0.41-2.2c-0.27-0.49-0.8-0.73-1.57-0.73h-1.95v5.88H204.35z"/>
		<path d="M213.47,317.44v-9.48c0-1.99,0.56-3.5,1.68-4.53c1.12-1.03,2.59-1.54,4.42-1.54c1.75,0,3.16,0.5,4.24,1.49
			c1.08,1,1.62,2.47,1.62,4.42v0.64h-3.75v-0.64c0-0.81-0.2-1.44-0.61-1.88c-0.41-0.44-0.94-0.66-1.59-0.66
			c-0.79,0-1.37,0.27-1.72,0.82c-0.36,0.55-0.53,1.37-0.53,2.47v8.44c0,2.05,0.75,3.08,2.26,3.08c0.73,0,1.28-0.25,1.65-0.75
			c0.37-0.5,0.55-1.21,0.55-2.15v-2.23h-2.23v-2.96h5.98v5.43c0,1.95-0.56,3.45-1.69,4.48c-1.13,1.04-2.59,1.55-4.37,1.55
			c-1.81,0-3.24-0.51-4.3-1.54C214,320.91,213.47,319.41,213.47,317.44z"/>
		<path d="M235.7,323.23h-3.75v-8.26l-4.27-12.77h4.12l2.01,8.05l2.01-8.05h4.15l-4.27,12.83V323.23z"/>
	</g>
</g>
<g id="ikon">
	<g>
		<path class="st0" d="M68.87,162.08l-15.37,25.84l26.23,14.69l-3.34-12.48l3.34-0.89c33.87-9.08,70.02,6.27,87.14,36.61l15.35-5.48
			c-20.17-38.45-64.39-58.03-106.67-46.7l-3.34,0.89L68.87,162.08z"/>
		<path class="st0" d="M113.84,57.04l-0.89,3.34c-9.08,33.88-40.44,57.5-75.28,57.16l-2.93,16.04
			c43.38,1.76,82.45-26.75,93.78-69.03l0.89-3.34l12.48,3.34L127.2,38.33L101.36,53.7L113.84,57.04z"/>
		<path class="st0" d="M204.19,164l2.44,2.44l-9.14,9.14l30.06,0.39l-0.39-30.06l-9.14,9.14l-2.44-2.44
			c-24.8-24.8-29.58-63.77-11.87-93.77L191.3,48.27C168.08,84.96,173.24,133.05,204.19,164z"/>
	</g>
</g>
</svg>
