<?xml version="1.0" encoding="utf-8"?>
<!-- Generator: Adobe Illustrator 25.4.1, SVG Export Plug-In . SVG Version: 6.00 Build 0)  -->
<svg version="1.1" xmlns="http://www.w3.org/2000/svg" xmlns:xlink="http://www.w3.org/1999/xlink" x="0px" y="0px"
	 viewBox="0 0 271.29 356.19" style="enable-background:new 0 0 271.29 356.19;" xml:space="preserve">
<style type="text/css">
	.st0{fill:#004778;}
	.st1{fill:#FFFFFF;}
</style>
<g id="bakgrund">
	<g>
		<rect x="1" y="1" class="st0" width="269.29" height="269.29"/>
		<path class="st0" d="M271.29,271.29H0V0h271.29V271.29z M2,269.29h267.29V2H2V269.29z"/>
	</g>
	<rect x="1" y="270.15" class="st1" width="269.29" height="85.04"/>
	<path class="st0" d="M271.29,356.19H0v-87.04h271.29V356.19z M2,354.19h267.29v-83.04H2V354.19z"/>
</g>
<g id="namn">
	<g>
		<path d="M71.28,323.23h-4.05l-2.29-12.93l-2.32,12.93H58.6l-3.75-21.04h3.81l2.04,15.73l1.98-15.73h4.57l1.98,15.73l2.04-15.73
			h3.75L71.28,323.23z"/>
		<path d="M88.88,323.23h-3.75v-9.02h-3.96v9.02h-3.75v-21.04h3.75v8.66h3.96v-8.66h3.75V323.23z"/>
		<path d="M92.23,317.44v-9.48c0-1.99,0.56-3.5,1.68-4.53c1.12-1.03,2.59-1.54,4.42-1.54c1.77,0,3.19,0.51,4.25,1.54
			s1.6,2.54,1.6,4.53v9.48c0,1.95-0.56,3.44-1.69,4.48c-1.13,1.04-2.59,1.55-4.37,1.55c-1.81,0-3.24-0.51-4.3-1.54
			C92.76,320.91,92.23,319.41,92.23,317.44z M100.43,317.01v-8.45c0-1.08-0.18-1.9-0.55-2.45c-0.37-0.56-0.91-0.84-1.65-0.84
			c-0.79,0-1.37,0.27-1.72,0.82c-0.36,0.55-0.53,1.37-0.53,2.47v8.45c0,2.05,0.75,3.08,2.26,3.08c0.71,0,1.26-0.27,1.63-0.81
			C100.24,318.74,100.43,317.99,100.43,317.01z"/>
		<path d="M111.29,302.19v17.68h5.64v3.35h-9.39v-21.04H111.29z"/>
		<path d="M123.36,310.85h4.88v3.35h-4.88v5.67h5.67v3.35h-9.39v-21.04h9.39v3.38h-5.67V310.85z"/>
		<path d="M149.7,317.13c0,2.13-0.44,3.68-1.31,4.65c-0.87,0.97-2.36,1.45-4.45,1.45h-5.7v-21.04h5.7c2.05,0,3.52,0.45,4.39,1.36
			c0.87,0.9,1.31,2.34,1.31,4.31c0,1.04-0.17,1.92-0.52,2.65s-0.93,1.29-1.77,1.68c0.91,0.41,1.53,1.01,1.86,1.8
			S149.7,315.83,149.7,317.13z M141.96,310.64h1.58c0.87,0,1.48-0.2,1.83-0.59c0.35-0.4,0.52-1.04,0.52-1.94
			c0-0.94-0.17-1.6-0.52-1.98c-0.34-0.39-0.96-0.58-1.83-0.58h-1.58V310.64z M145.95,316.86c0-1.06-0.19-1.82-0.56-2.29
			s-1-0.7-1.88-0.7h-1.55v6.01h1.55c0.93,0,1.58-0.23,1.92-0.69C145.78,318.73,145.95,317.95,145.95,316.86z"/>
		<path d="M156.81,314.78v8.44h-3.75v-21.04h5.73c2.07,0,3.54,0.5,4.41,1.49c0.86,1,1.3,2.59,1.3,4.79c0,1.4-0.19,2.57-0.58,3.51
			c-0.39,0.93-1.02,1.64-1.89,2.1l3.14,9.15h-3.9l-2.65-8.44H156.81z M158.76,311.43c0.75,0,1.27-0.25,1.55-0.75
			c0.29-0.5,0.43-1.24,0.43-2.21s-0.14-1.71-0.41-2.19c-0.27-0.49-0.8-0.73-1.57-0.73h-1.95v5.88H158.76z"/>
		<path d="M171.84,302.19v21.04h-3.72v-21.04H171.84z"/>
		<path d="M175.31,317.44v-9.48c0-1.99,0.56-3.5,1.68-4.53c1.12-1.03,2.59-1.54,4.42-1.54c1.75,0,3.16,0.51,4.24,1.52
			c1.08,1.02,1.62,2.56,1.62,4.63v0.64h-3.75v-0.61c0-0.96-0.2-1.66-0.59-2.12c-0.4-0.46-0.93-0.69-1.6-0.69
			c-0.79,0-1.37,0.27-1.72,0.82c-0.36,0.55-0.53,1.37-0.53,2.47v8.45c0,2.05,0.75,3.08,2.26,3.08c0.67,0,1.21-0.23,1.6-0.7
			c0.4-0.47,0.59-1.16,0.59-2.07v-0.55h3.72v0.58c0,2.03-0.56,3.56-1.69,4.59s-2.58,1.54-4.34,1.54c-1.81,0-3.24-0.51-4.3-1.54
			C175.84,320.91,175.31,319.41,175.31,317.44z"/>
		<path d="M194.34,318.47v4.76h-3.72v-21.04h3.72v9.91l4.48-9.91h3.75l-4.39,8.66l5.06,12.38h-3.99l-3.2-8.14L194.34,318.47z"/>
		<path d="M204.86,317.22h3.54c0.04,1.04,0.25,1.8,0.62,2.29c0.38,0.49,0.93,0.73,1.66,0.73s1.27-0.22,1.6-0.67s0.5-1.16,0.5-2.13
			c0-0.81-0.19-1.46-0.56-1.94c-0.38-0.48-1.01-0.92-1.91-1.33l-1.43-0.64c-1.36-0.61-2.34-1.36-2.94-2.26
			c-0.6-0.89-0.9-2.09-0.9-3.6c0-1.77,0.51-3.18,1.54-4.24c1.03-1.06,2.41-1.58,4.16-1.58c1.73,0,3.06,0.52,4.01,1.57
			c0.94,1.05,1.45,2.56,1.51,4.53h-3.45c-0.02-0.96-0.19-1.67-0.5-2.15c-0.31-0.48-0.84-0.72-1.57-0.72c-1.36,0-2.04,0.8-2.04,2.41
			c0,0.73,0.17,1.32,0.5,1.75c0.33,0.44,0.9,0.83,1.69,1.17l1.37,0.61c1.46,0.65,2.53,1.46,3.19,2.44c0.66,0.98,0.99,2.28,0.99,3.9
			c0,1.95-0.51,3.46-1.52,4.51c-1.02,1.06-2.46,1.58-4.33,1.58c-1.85,0-3.26-0.54-4.24-1.62S204.88,319.24,204.86,317.22z"/>
	</g>
</g>
<g id="ikon">
	<g>
		<path class="st1" d="M46.26,163.92c-4.95,0-6.58-1-10.86-4.96c-1.45-1.34-2.55-2.31-3.52-2.98l-1.45-1l38.21-35.44l0.93,0.64
			c1.09,0.76,2.29,1.81,3.87,3.27c4.04,3.73,5.04,4.21,8.94,4.21c3.9,0,6.96-2.45,9.65-4.61c0.39-0.31,0.77-0.61,1.13-0.9
			c4.89-3.8,9.64-4.1,10.98-4.1c2.41,0,6.35,0.87,9.61,3.33l1.35,1.02l-38.19,35.42l-0.95-0.72c-2.54-1.92-5.81-2.79-7.93-2.79
			c-1.12,0-5.08,0.26-9.26,3.51c-0.36,0.28-0.73,0.57-1.11,0.88C54.77,161.02,51.16,163.92,46.26,163.92"/>
		<path class="st0" d="M104.17,119.46c2.26,0,5.84,0.86,8.74,3.04l-36.08,33.46c-2.91-2.2-6.51-3.08-8.79-3.08h-0.02
			c-2.41,0.01-6.32,0.86-10.11,3.81c-3.01,2.34-6.65,5.81-11.66,5.81c-4.42,0-5.76-0.76-9.9-4.58c-1.52-1.4-2.65-2.39-3.68-3.11
			l36.09-33.47c1.03,0.71,2.2,1.74,3.72,3.14c4.14,3.83,5.48,4.58,9.9,4.58c5,0,8.64-3.47,11.66-5.81c3.78-2.94,7.7-3.8,10.11-3.81
			H104.17 M104.17,116.63L104.17,116.63h-0.03c-1.86,0-6.74,0.44-11.84,4.4c-0.37,0.29-0.76,0.6-1.15,0.91
			c-2.64,2.11-5.36,4.3-8.77,4.3c-3.4,0-4.06-0.21-7.98-3.83c-1.62-1.5-2.86-2.59-4.03-3.4l-1.87-1.29l-1.66,1.54l-36.09,33.47
			l-2.59,2.4l2.91,2c0.91,0.62,2,1.59,3.36,2.85c4.54,4.2,6.53,5.33,11.82,5.33c5.39,0,9.39-3.2,12.31-5.55
			c0.37-0.3,0.73-0.59,1.08-0.86c3.82-2.97,7.38-3.21,8.38-3.21c1.89,0,4.81,0.77,7.09,2.5l1.89,1.43l1.74-1.61l36.08-33.46
			l2.48-2.3l-2.7-2.03C111.07,117.58,106.9,116.63,104.17,116.63"/>
		<path class="st1" d="M91.74,166.19c-4.95,0-6.58-1-10.86-4.96c-1.45-1.34-2.55-2.31-3.52-2.98l-1.45-1l38.21-35.45l0.93,0.64
			c1.1,0.76,2.29,1.81,3.87,3.27c4.04,3.73,5.04,4.21,8.94,4.21c3.9,0,6.96-2.45,9.65-4.61c0.39-0.31,0.77-0.62,1.14-0.9
			c4.88-3.8,9.63-4.1,10.97-4.1c2.41,0,6.35,0.87,9.61,3.33l1.35,1.02l-38.19,35.42l-0.95-0.72c-2.54-1.92-5.81-2.79-7.93-2.79
			c-1.12,0-5.08,0.26-9.26,3.51c-0.36,0.28-0.73,0.57-1.1,0.88C100.26,163.29,96.64,166.19,91.74,166.19"/>
		<path class="st0" d="M149.65,121.73c2.26,0,5.84,0.86,8.74,3.04l-36.08,33.46c-2.91-2.2-6.51-3.08-8.78-3.08h-0.02
			c-2.41,0.01-6.32,0.86-10.11,3.81c-3.01,2.34-6.65,5.81-11.66,5.81c-4.42,0-5.76-0.76-9.9-4.58c-1.52-1.4-2.65-2.39-3.68-3.11
			l36.09-33.47c1.03,0.71,2.2,1.74,3.72,3.14c4.14,3.83,5.48,4.58,9.9,4.58c5,0,8.64-3.47,11.66-5.81c3.78-2.94,7.7-3.8,10.11-3.81
			H149.65 M149.65,118.9L149.65,118.9h-0.03c-1.86,0-6.74,0.44-11.84,4.4c-0.37,0.29-0.76,0.6-1.15,0.91
			c-2.64,2.11-5.36,4.3-8.77,4.3c-3.4,0-4.06-0.21-7.98-3.83c-1.62-1.5-2.86-2.59-4.03-3.4l-1.87-1.29l-1.66,1.54l-36.09,33.47
			l-2.59,2.4l2.91,2c0.91,0.62,2,1.59,3.36,2.85c4.54,4.2,6.53,5.33,11.82,5.33c5.39,0,9.39-3.2,12.31-5.55
			c0.37-0.3,0.73-0.59,1.08-0.86c3.82-2.97,7.38-3.21,8.38-3.21c1.89,0,4.81,0.77,7.09,2.5l1.89,1.43l1.74-1.61l36.08-33.46
			l2.48-2.3l-2.7-2.03C156.55,119.85,152.38,118.9,149.65,118.9"/>
		<path class="st1" d="M81.81,130.87c-4.95,0-6.58-1-10.86-4.96c-1.45-1.34-2.55-2.3-3.52-2.98l-1.45-1l38.21-35.44l0.93,0.64
			c1.09,0.76,2.29,1.81,3.87,3.27c4.04,3.74,5.05,4.21,8.94,4.21c3.9,0,6.96-2.45,9.65-4.61c0.39-0.31,0.77-0.62,1.14-0.9
			c4.88-3.8,9.63-4.1,10.97-4.1c2.4,0,6.35,0.87,9.61,3.33l1.35,1.02l-38.19,35.42l-0.95-0.71c-2.54-1.93-5.81-2.79-7.93-2.79
			c-1.13,0-5.08,0.26-9.26,3.51c-0.36,0.28-0.72,0.57-1.1,0.87C90.33,127.96,86.71,130.87,81.81,130.87"/>
		<path class="st0" d="M139.71,86.4c2.26,0,5.84,0.86,8.74,3.04l-36.08,33.46c-2.91-2.2-6.51-3.07-8.79-3.07h-0.02
			c-2.41,0-6.32,0.86-10.11,3.81c-3.01,2.34-6.65,5.81-11.66,5.81c-4.42,0-5.76-0.76-9.9-4.58c-1.52-1.4-2.65-2.39-3.68-3.1
			l36.09-33.47c1.03,0.71,2.2,1.74,3.71,3.14c4.14,3.83,5.48,4.58,9.9,4.58c5,0,8.64-3.47,11.66-5.81c3.78-2.94,7.7-3.8,10.11-3.81
			H139.71 M139.71,83.58L139.71,83.58h-0.03c-1.86,0-6.74,0.44-11.84,4.4c-0.37,0.29-0.76,0.6-1.15,0.91
			c-2.64,2.11-5.36,4.3-8.77,4.3c-3.4,0-4.06-0.21-7.98-3.83c-1.62-1.5-2.86-2.59-4.03-3.4l-1.87-1.29l-1.66,1.54l-36.09,33.47
			l-2.59,2.4l2.91,2c0.9,0.62,2,1.59,3.36,2.85c4.54,4.2,6.53,5.33,11.82,5.33c5.39,0,9.39-3.2,12.31-5.55
			c0.37-0.3,0.73-0.59,1.08-0.86c3.82-2.97,7.38-3.21,8.38-3.21c1.89,0,4.81,0.77,7.09,2.5l1.89,1.44l1.74-1.61l36.08-33.47
			l2.48-2.3l-2.7-2.03C146.62,84.52,142.44,83.58,139.71,83.58"/>
		<path class="st1" d="M127.29,133.14c-4.95,0-6.58-1-10.86-4.96c-1.45-1.34-2.55-2.31-3.52-2.97l-1.46-1l38.21-35.44l0.93,0.64
			c1.1,0.76,2.29,1.81,3.87,3.27c4.04,3.74,5.05,4.21,8.94,4.21c3.9,0,6.96-2.45,9.65-4.61c0.39-0.31,0.77-0.62,1.14-0.9
			c4.89-3.8,9.64-4.1,10.98-4.1c2.4,0,6.35,0.87,9.61,3.33l1.35,1.02l-38.19,35.42l-0.95-0.71c-2.54-1.93-5.81-2.79-7.93-2.79
			c-1.13,0-5.08,0.26-9.26,3.51c-0.36,0.28-0.72,0.57-1.1,0.87C135.81,130.24,132.19,133.14,127.29,133.14"/>
		<path class="st0" d="M185.2,88.67c2.26,0,5.84,0.86,8.74,3.04l-36.08,33.47c-2.91-2.21-6.51-3.08-8.79-3.08h-0.02
			c-2.41,0-6.32,0.86-10.11,3.81c-3.01,2.34-6.65,5.81-11.66,5.81c-4.42,0-5.76-0.76-9.9-4.58c-1.52-1.4-2.65-2.39-3.68-3.1
			l36.09-33.47c1.03,0.71,2.2,1.74,3.72,3.14c4.14,3.83,5.48,4.58,9.9,4.58c5,0,8.64-3.47,11.66-5.81c3.78-2.94,7.7-3.8,10.11-3.81
			H185.2 M185.2,85.85L185.2,85.85h-0.03c-1.86,0-6.74,0.44-11.84,4.4c-0.37,0.29-0.76,0.6-1.15,0.91c-2.64,2.11-5.36,4.3-8.77,4.3
			c-3.4,0-4.06-0.21-7.98-3.83c-1.62-1.5-2.86-2.59-4.03-3.4l-1.87-1.29l-1.66,1.54l-36.09,33.47l-2.59,2.4l2.91,2
			c0.91,0.62,2,1.59,3.36,2.85c4.54,4.2,6.53,5.33,11.82,5.33c5.39,0,9.39-3.2,12.31-5.54c0.37-0.3,0.73-0.59,1.08-0.86
			c3.82-2.97,7.38-3.21,8.38-3.21c1.89,0,4.81,0.77,7.09,2.5l1.89,1.44l1.74-1.61l36.08-33.47l2.48-2.3l-2.7-2.03
			C192.1,86.8,187.92,85.85,185.2,85.85"/>
		<path class="st1" d="M91.04,165.4c-4.95,0-6.58-1-10.86-4.96c-1.45-1.34-2.54-2.3-3.52-2.97l-1.46-1l38.21-35.44l0.93,0.64
			c1.09,0.76,2.29,1.81,3.87,3.27c4.04,3.74,5.05,4.21,8.94,4.21c3.9,0,6.96-2.45,9.65-4.61c0.39-0.31,0.77-0.62,1.14-0.9
			c4.88-3.8,9.63-4.1,10.97-4.1c2.4,0,6.35,0.87,9.61,3.33l1.35,1.02l-38.19,35.42l-0.95-0.71c-2.54-1.93-5.81-2.79-7.93-2.79
			c-1.13,0-5.08,0.26-9.26,3.51c-0.36,0.28-0.72,0.57-1.1,0.87C99.56,162.5,95.94,165.4,91.04,165.4"/>
		<path class="st0" d="M148.95,120.94c2.26,0,5.84,0.86,8.74,3.04l-36.08,33.47c-2.91-2.21-6.51-3.08-8.79-3.08h-0.02
			c-2.42,0-6.32,0.86-10.11,3.81c-3.01,2.34-6.65,5.81-11.66,5.81c-4.42,0-5.76-0.76-9.9-4.58c-1.52-1.4-2.65-2.39-3.68-3.1
			l36.09-33.47c1.03,0.71,2.2,1.74,3.72,3.14c4.14,3.83,5.48,4.58,9.9,4.58c5,0,8.64-3.47,11.66-5.81c3.78-2.94,7.7-3.8,10.11-3.81
			H148.95 M148.95,118.11L148.95,118.11h-0.03c-1.86,0-6.74,0.44-11.84,4.4c-0.37,0.29-0.76,0.6-1.15,0.91
			c-2.64,2.11-5.36,4.3-8.77,4.3c-3.4,0-4.06-0.21-7.98-3.83c-1.62-1.5-2.86-2.59-4.03-3.4l-1.87-1.29l-1.66,1.54l-36.09,33.47
			l-2.59,2.4l2.91,2c0.91,0.62,2,1.59,3.36,2.85c4.54,4.2,6.52,5.33,11.82,5.33c5.39,0,9.39-3.2,12.31-5.54
			c0.37-0.3,0.73-0.59,1.08-0.86c3.83-2.97,7.38-3.21,8.38-3.21c1.89,0,4.81,0.77,7.09,2.5l1.89,1.44l1.74-1.61l36.08-33.47
			l2.48-2.3l-2.7-2.03C155.85,119.06,151.68,118.11,148.95,118.11"/>
		<path class="st1" d="M144.09,187.72c-4.95,0-6.58-1-10.86-4.96c-1.45-1.34-2.54-2.31-3.52-2.98l-1.46-1l38.21-35.44l0.93,0.64
			c1.09,0.76,2.29,1.81,3.87,3.27c4.04,3.74,5.05,4.21,8.94,4.21c3.9,0,6.96-2.45,9.65-4.61c0.39-0.31,0.77-0.62,1.14-0.9
			c4.88-3.8,9.63-4.1,10.97-4.1c2.4,0,6.35,0.87,9.61,3.33l1.35,1.02l-38.19,35.42l-0.95-0.71c-2.54-1.93-5.81-2.79-7.93-2.79
			c-1.13,0-5.08,0.26-9.26,3.51c-0.36,0.28-0.72,0.57-1.1,0.87C152.61,184.81,148.99,187.72,144.09,187.72"/>
		<path class="st1" d="M126.59,132.35c-4.95,0-6.58-1-10.86-4.96c-1.4-1.3-2.54-2.3-3.52-2.98l-1.45-1l38.21-35.44l0.93,0.64
			c1.1,0.76,2.3,1.81,3.87,3.27c4.04,3.74,5.04,4.21,8.94,4.21c3.9,0,6.96-2.45,9.66-4.61c0.39-0.31,0.76-0.61,1.13-0.9
			c4.89-3.8,9.64-4.1,10.98-4.1c2.41,0,6.35,0.87,9.61,3.33l1.35,1.02l-38.19,35.42l-0.95-0.72c-2.54-1.92-5.81-2.79-7.93-2.79
			c-1.13,0-5.09,0.26-9.26,3.51c-0.36,0.28-0.72,0.57-1.1,0.87C135.1,129.45,131.48,132.35,126.59,132.35"/>
		<path class="st0" d="M184.49,87.89c2.26,0,5.84,0.86,8.74,3.04l-36.08,33.46c-2.91-2.2-6.51-3.07-8.78-3.07h-0.02
			c-2.41,0-6.32,0.86-10.11,3.81c-3.01,2.34-6.65,5.81-11.66,5.81c-4.42,0-5.76-0.76-9.9-4.58c-1.52-1.4-2.65-2.39-3.68-3.11
			l36.09-33.47c1.03,0.71,2.2,1.74,3.72,3.14c4.14,3.83,5.48,4.58,9.9,4.58c5,0,8.64-3.47,11.66-5.81c3.78-2.94,7.7-3.8,10.11-3.81
			H184.49 M184.49,85.06L184.49,85.06h-0.03c-1.86,0-6.74,0.44-11.83,4.4c-0.37,0.29-0.76,0.6-1.15,0.91
			c-2.64,2.11-5.36,4.3-8.77,4.3c-3.4,0-4.06-0.21-7.98-3.83c-1.62-1.5-2.86-2.59-4.03-3.4l-1.87-1.29l-1.66,1.54l-36.09,33.47
			l-2.59,2.4l2.91,2c0.91,0.62,2,1.59,3.36,2.85c4.54,4.2,6.52,5.33,11.82,5.33c5.39,0,9.39-3.2,12.31-5.55
			c0.37-0.3,0.73-0.59,1.08-0.86c3.83-2.97,7.38-3.21,8.38-3.21c1.89,0,4.81,0.77,7.09,2.5l1.89,1.43l1.74-1.61L195.16,93l2.48-2.3
			l-2.7-2.03C191.4,86.01,187.22,85.06,184.49,85.06"/>
		<path class="st1" d="M172.07,134.62c-4.95,0-6.58-1-10.86-4.96c-1.45-1.34-2.55-2.31-3.52-2.98l-1.45-1l38.21-35.44l0.93,0.64
			c1.1,0.76,2.3,1.81,3.87,3.27c4.04,3.74,5.04,4.21,8.94,4.21c3.9,0,6.96-2.45,9.66-4.61c0.39-0.31,0.76-0.61,1.13-0.9
			c4.89-3.8,9.64-4.1,10.98-4.1c2.41,0,6.34,0.87,9.61,3.33l1.35,1.02l-38.19,35.42l-0.95-0.72c-2.54-1.92-5.81-2.79-7.93-2.79
			c-1.13,0-5.09,0.26-9.26,3.51c-0.36,0.28-0.72,0.57-1.1,0.87C180.58,131.72,176.96,134.62,172.07,134.62"/>
		<path class="st0" d="M229.98,90.16c2.26,0,5.84,0.86,8.74,3.04l-36.08,33.46c-2.91-2.2-6.51-3.07-8.79-3.07h-0.02
			c-2.42,0-6.33,0.86-10.11,3.81c-3.01,2.34-6.65,5.81-11.66,5.81c-4.42,0-5.76-0.76-9.9-4.58c-1.52-1.4-2.65-2.39-3.68-3.11
			l36.09-33.47c1.03,0.71,2.2,1.74,3.71,3.14c4.14,3.83,5.48,4.58,9.9,4.58c5,0,8.64-3.47,11.66-5.81c3.78-2.94,7.7-3.8,10.11-3.81
			H229.98 M229.98,87.33L229.98,87.33h-0.03c-1.86,0-6.74,0.44-11.84,4.4c-0.37,0.29-0.76,0.6-1.15,0.91
			c-2.64,2.11-5.36,4.3-8.77,4.3c-3.4,0-4.06-0.21-7.98-3.83c-1.62-1.5-2.86-2.59-4.03-3.4l-1.87-1.29l-1.66,1.54l-36.09,33.47
			l-2.59,2.4l2.91,2c0.9,0.62,2,1.59,3.36,2.85c4.54,4.2,6.52,5.33,11.82,5.33c5.4,0,9.39-3.2,12.31-5.55
			c0.37-0.3,0.73-0.59,1.08-0.86c3.82-2.97,7.38-3.21,8.38-3.21c1.89,0,4.81,0.77,7.09,2.5l1.89,1.43l1.74-1.61l36.08-33.47
			l2.48-2.3l-2.7-2.03C236.88,88.28,232.7,87.33,229.98,87.33"/>
	</g>
</g>
</svg>
