<?xml version="1.0" encoding="utf-8"?>
<!-- Generator: Adobe Illustrator 25.4.1, SVG Export Plug-In . SVG Version: 6.00 Build 0)  -->
<svg version="1.1" xmlns="http://www.w3.org/2000/svg" xmlns:xlink="http://www.w3.org/1999/xlink" x="0px" y="0px"
	 viewBox="0 0 271.29 355.96" style="enable-background:new 0 0 271.29 355.96;" xml:space="preserve">
<style type="text/css">
	.st0{fill:#06682D;}
	.st1{fill:#FFFFFF;}
	.st2{fill:none;stroke:#06682D;stroke-width:3.1579;stroke-linecap:round;stroke-linejoin:round;stroke-miterlimit:10;}
	.st3{fill:none;stroke:#06682D;stroke-width:3.1579;stroke-linecap:round;stroke-miterlimit:10;}
	.st4{fill:#FFFFFF;stroke:#06682D;stroke-width:0.7458;stroke-miterlimit:10;}
	.st5{fill:#FFFFFF;stroke:#06682D;stroke-width:0.7604;stroke-miterlimit:10;}
</style>
<g id="bakgrund">
	<g>
		<rect x="1.85" y="0.67" class="st0" width="269.29" height="269.29"/>
		<path class="st0" d="M271.29,271.29H0V0h271.29V271.29z M2,269.29h267.29V2H2V269.29z"/>
	</g>
	<g>
		<rect x="1" y="269.92" class="st1" width="269.29" height="85.04"/>
		<path class="st0" d="M271.29,355.96H0v-87.04h271.29V355.96z M2,353.96h267.29v-83.04H2V353.96z"/>
	</g>
</g>
<g id="namn">
	<g>
		<path d="M90.37,323h-4.05l-2.29-12.93L81.71,323h-4.02l-3.75-21.04h3.81l2.04,15.73l1.98-15.73h4.57l1.98,15.73l2.04-15.73h3.75
			L90.37,323z"/>
		<path d="M100.34,301.96V323h-3.72v-21.04H100.34z"/>
		<path d="M115.83,323h-3.75l-4.39-11.22V323h-3.75v-21.04h3.75l4.39,11.71v-11.71h3.75V323z"/>
		<path d="M125.13,301.96c1.77,0,3.19,0.51,4.25,1.52c1.07,1.02,1.6,2.52,1.6,4.51v8.96c0,1.97-0.56,3.47-1.68,4.5
			s-2.57,1.54-4.36,1.54h-5.64v-21.04H125.13z M126.67,318.82c0.38-0.55,0.56-1.31,0.56-2.29v-7.9c0-1.08-0.18-1.9-0.55-2.45
			c-0.37-0.56-0.91-0.84-1.65-0.84h-2.01v14.3h2.01C125.75,319.65,126.29,319.37,126.67,318.82z"/>
		<path d="M138.09,310.71h4.88v3.38h-4.88v8.9h-3.75v-21.04h9.39v3.38h-5.64V310.71z"/>
		<path d="M150.22,318.91l-0.85,4.09h-3.9l5.4-21.04h3.66l5.37,21.04h-3.9l-0.85-4.09H150.22z M152.69,307.02l-1.77,8.54h3.54
			L152.69,307.02z"/>
		<path d="M166.01,301.96v17.68h5.64V323h-9.39v-21.04H166.01z"/>
		<path d="M178.12,301.96v17.68h5.64V323h-9.39v-21.04H178.12z"/>
		<path d="M185.77,316.99h3.54c0.04,1.04,0.25,1.8,0.62,2.29c0.38,0.49,0.93,0.73,1.66,0.73s1.27-0.22,1.6-0.67
			c0.33-0.45,0.5-1.16,0.5-2.13c0-0.81-0.19-1.46-0.56-1.94c-0.38-0.48-1.01-0.92-1.91-1.33l-1.43-0.64
			c-1.36-0.61-2.34-1.36-2.94-2.26s-0.9-2.09-0.9-3.6c0-1.77,0.51-3.18,1.54-4.24s2.41-1.59,4.16-1.59c1.73,0,3.06,0.52,4.01,1.57
			c0.94,1.05,1.45,2.56,1.51,4.53h-3.45c-0.02-0.96-0.19-1.67-0.5-2.15c-0.31-0.48-0.84-0.72-1.57-0.72c-1.36,0-2.04,0.8-2.04,2.41
			c0,0.73,0.17,1.32,0.5,1.75c0.33,0.44,0.9,0.83,1.69,1.17l1.37,0.61c1.46,0.65,2.53,1.46,3.19,2.44c0.66,0.98,0.99,2.28,0.99,3.9
			c0,1.95-0.51,3.46-1.52,4.51c-1.02,1.06-2.46,1.58-4.33,1.58c-1.85,0-3.26-0.54-4.24-1.62S185.79,319.01,185.77,316.99z"/>
	</g>
</g>
<g id="ikon">
	<ellipse class="st1" cx="136.52" cy="98.38" rx="63.85" ry="60.28"/>
	<path class="st2" d="M163.32,99.07l-27.67,35.41L163.32,99.07z"/>
	<path class="st2" d="M117.34,80.17l18.25,23.42L117.34,80.17z"/>
	<polyline class="st1" points="129.26,148.97 129.2,239.63 141.78,239.64 141.84,148.89 	"/>
	<line class="st3" x1="135.49" y1="243.29" x2="135.62" y2="60.82"/>
	<g id="_x33__4_">
		<path class="st4" d="M119.74,227.93c-0.76-1.24-1.89-2.21-3.22-2.79c-0.67-0.29-1.42-0.63-2.01-0.94
			c-0.32-0.16-0.59-0.32-0.76-0.45c-0.19-0.13-0.42-0.33-0.68-0.56c-0.57-0.51-1.25-1.19-1.84-1.78c-1.05-1.07-2.41-1.79-3.9-2.04
			c-2.88-0.48-7.54-0.26-11.12,4.72c-2.83,3.94-4.25,10.28-2.96,14.74c1.19,4.13,3.84,3.13,6.2,4.83c2.26,1.62,2.42,4.36,6.2,4.33
			c4.76-0.03,10.47-3.48,13.37-7.52C122.89,235.09,121.3,230.48,119.74,227.93z"/>
		<path class="st1" d="M112.48,225.51c-0.02-0.02-0.05-0.04-0.07-0.06c-0.36-0.32-0.4-0.88-0.07-1.24l0,0
			c0.02-0.03,2.4-2.76,2.63-6.5c0.03-0.49,0.45-0.85,0.93-0.82c0.48,0.03,0.85,0.45,0.82,0.93c-0.27,4.37-2.95,7.43-3.07,7.56
			C113.35,225.71,112.84,225.76,112.48,225.51z"/>
	</g>
	<g id="_x33__5_">
		<path class="st5" d="M170.3,219.42c-1.44-0.35-2.95-0.23-4.33,0.31c-0.69,0.27-1.48,0.57-2.13,0.77
			c-0.35,0.11-0.65,0.19-0.87,0.23c-0.23,0.04-0.54,0.06-0.89,0.08c-0.77,0.04-1.76,0.05-2.61,0.04c-1.53-0.01-3.03,0.45-4.28,1.34
			c-2.42,1.73-5.62,5.26-4.61,11.42c0.8,4.88,4.34,10.47,8.49,12.77c3.83,2.12,5.02-0.51,7.95-0.99c2.8-0.46,4.89,1.4,7.59-1.35
			c3.41-3.46,5.04-10.06,4.22-15.06C177.74,222.32,173.27,220.14,170.3,219.42z"/>
		<path class="st1" d="M163.33,222.91c-0.03,0.01-0.06,0.01-0.09,0.01c-0.49,0.03-0.92-0.35-0.95-0.84l0,0
			c0-0.04-0.26-3.71-2.79-6.58c-0.33-0.37-0.29-0.94,0.08-1.27c0.37-0.33,0.94-0.29,1.27,0.08c2.96,3.35,3.23,7.49,3.24,7.66
			C164.11,222.44,163.78,222.84,163.33,222.91z"/>
	</g>
</g>
</svg>
