<?xml version="1.0" encoding="utf-8"?>
<!-- Generator: Adobe Illustrator 25.4.1, SVG Export Plug-In . SVG Version: 6.00 Build 0)  -->
<svg version="1.1" xmlns="http://www.w3.org/2000/svg" xmlns:xlink="http://www.w3.org/1999/xlink" x="0px" y="0px"
	 viewBox="0 0 271.29 356.19" style="enable-background:new 0 0 271.29 356.19;" xml:space="preserve">
<style type="text/css">
	.st0{fill:#004778;}
	.st1{fill:#FFFFFF;}
</style>
<g id="bakgrund">
	<g>
		<rect x="1" y="1" class="st0" width="269.29" height="269.29"/>
		<path class="st0" d="M271.29,271.29H0V0h271.29V271.29z M2,269.29h267.29V2H2V269.29z"/>
	</g>
	<rect x="1" y="270.15" class="st1" width="269.29" height="85.04"/>
	<path class="st0" d="M271.29,356.19H0v-87.04h271.29V356.19z M2,354.19h267.29v-83.04H2V354.19z"/>
</g>
<g id="namn">
	<g>
		<path d="M98.11,323.23h-4.05l-2.29-12.93l-2.32,12.93h-4.02l-3.75-21.04h3.81l2.04,15.73l1.98-15.73h4.57l1.98,15.73l2.04-15.73
			h3.75L98.11,323.23z"/>
		<path d="M108.08,302.19v21.04h-3.72v-21.04H108.08z"/>
		<path d="M123.57,323.23h-3.75l-4.39-11.22v11.22h-3.75v-21.04h3.75l4.39,11.71v-11.71h3.75V323.23z"/>
		<path d="M132.87,302.19c1.77,0,3.19,0.51,4.25,1.52c1.07,1.02,1.6,2.52,1.6,4.51v8.96c0,1.97-0.56,3.47-1.68,4.5
			s-2.57,1.54-4.36,1.54h-5.64v-21.04H132.87z M134.41,319.05c0.38-0.55,0.56-1.31,0.56-2.29v-7.9c0-1.08-0.18-1.9-0.55-2.45
			c-0.37-0.56-0.91-0.84-1.65-0.84h-2.01v14.3h2.01C133.49,319.88,134.03,319.6,134.41,319.05z"/>
		<path d="M141.96,317.44v-9.48c0-1.99,0.56-3.5,1.68-4.53c1.12-1.03,2.59-1.54,4.42-1.54c1.77,0,3.19,0.51,4.25,1.54
			s1.6,2.54,1.6,4.53v9.48c0,1.95-0.56,3.45-1.69,4.48c-1.13,1.04-2.59,1.55-4.37,1.55c-1.81,0-3.24-0.51-4.3-1.54
			C142.49,320.91,141.96,319.41,141.96,317.44z M150.16,317.01v-8.44c0-1.08-0.18-1.9-0.55-2.46c-0.37-0.56-0.91-0.84-1.65-0.84
			c-0.79,0-1.37,0.27-1.72,0.82c-0.36,0.55-0.53,1.37-0.53,2.47v8.44c0,2.05,0.75,3.08,2.26,3.08c0.71,0,1.26-0.27,1.63-0.81
			C149.97,318.74,150.16,317.99,150.16,317.01z"/>
		<path d="M172.6,323.23h-4.05l-2.29-12.93l-2.32,12.93h-4.02l-3.75-21.04h3.81l2.04,15.73l1.98-15.73h4.57l1.98,15.73l2.04-15.73
			h3.75L172.6,323.23z"/>
		<path d="M178.03,317.22h3.54c0.04,1.04,0.25,1.8,0.62,2.29c0.38,0.49,0.93,0.73,1.66,0.73s1.27-0.22,1.6-0.67
			c0.33-0.45,0.5-1.16,0.5-2.13c0-0.81-0.19-1.46-0.56-1.94c-0.38-0.48-1.01-0.92-1.91-1.33l-1.43-0.64
			c-1.36-0.61-2.34-1.36-2.94-2.26s-0.9-2.09-0.9-3.6c0-1.77,0.51-3.18,1.54-4.24s2.41-1.59,4.16-1.59c1.73,0,3.06,0.52,4.01,1.57
			c0.94,1.05,1.45,2.56,1.51,4.53h-3.45c-0.02-0.96-0.19-1.67-0.5-2.15c-0.31-0.48-0.84-0.72-1.57-0.72c-1.36,0-2.04,0.8-2.04,2.41
			c0,0.73,0.17,1.32,0.5,1.75c0.33,0.44,0.9,0.83,1.69,1.17l1.37,0.61c1.46,0.65,2.53,1.46,3.19,2.44c0.66,0.98,0.99,2.28,0.99,3.9
			c0,1.95-0.51,3.46-1.52,4.51c-1.02,1.06-2.46,1.58-4.33,1.58c-1.85,0-3.26-0.54-4.24-1.62S178.05,319.24,178.03,317.22z"/>
	</g>
</g>
<g id="ikon">
	<g>
		<path class="st1" d="M74.68,48.55l0,174.2l121.94,0l0-174.2L74.68,48.55z M186.16,107.39l-45.29,0l0-48.39l45.29,0L186.16,107.39z
			 M130.42,59l0,48.39l-45.29,0l0-48.39L130.42,59z M85.13,117.84l45.29,0l0,94.45l-45.29,0L85.13,117.84z M140.87,212.29l0-94.45
			l45.29,0l0,94.45H140.87z"/>
		<g>
			<polygon class="st1" points="152.68,167.85 179.22,130.27 174.96,130.27 148.41,167.85 			"/>
			<polygon class="st1" points="176.18,142.82 160.73,164.69 164.99,164.69 180.44,142.82 			"/>
			<polygon class="st1" points="162.49,133.46 147.04,155.33 151.3,155.33 166.75,133.46 			"/>
		</g>
	</g>
</g>
</svg>
