<?xml version="1.0" encoding="utf-8"?>
<!-- Generator: Adobe Illustrator 25.4.1, SVG Export Plug-In . SVG Version: 6.00 Build 0)  -->
<svg version="1.1" xmlns="http://www.w3.org/2000/svg" xmlns:xlink="http://www.w3.org/1999/xlink" x="0px" y="0px"
	 viewBox="0 0 271.29 356.19" style="enable-background:new 0 0 271.29 356.19;" xml:space="preserve">
<style type="text/css">
	.st0{fill:#004772;}
	.st1{fill:#FFFFFF;}
	.st2{fill:#004778;}
	.st3{fill:none;stroke:#7F632D;stroke-width:2.7937;stroke-miterlimit:10;}
	.st4{fill:#004778;stroke:#004778;stroke-width:3;stroke-linejoin:round;stroke-miterlimit:10;}
	.st5{fill:none;stroke:#7F632D;stroke-width:3;stroke-miterlimit:10;}
	.st6{fill:#FFFFFF;stroke:#004778;stroke-width:3;stroke-miterlimit:10;}
	.st7{fill:#004778;stroke:#004778;stroke-width:3;stroke-miterlimit:10;}
</style>
<g id="bakgrund">
	<g>
		<rect x="1" y="1" class="st0" width="269.29" height="269.29"/>
		<path class="st0" d="M271.29,271.29H0V0h271.29V271.29z M2,269.29h267.29V2H2V269.29z"/>
	</g>
	<rect x="1" y="270.12" class="st1" width="269.29" height="85.04"/>
	<path class="st2" d="M271.29,356.16H0v-87.04h271.29V356.16z M2,354.16h267.29v-83.04H2V354.16z"/>
</g>
<g id="namn">
	<g>
		<path d="M119.78,325.57h-4.05l-2.29-12.93l-2.32,12.93h-4.02l-3.75-21.04h3.81l2.04,15.73l1.98-15.73h4.57l1.98,15.73l2.04-15.73
			h3.75L119.78,325.57z"/>
		<path d="M125.78,319.78v-9.48c0-1.99,0.56-3.5,1.68-4.53c1.12-1.03,2.59-1.54,4.42-1.54c1.77,0,3.19,0.51,4.25,1.54
			s1.6,2.54,1.6,4.53v9.48c0,1.95-0.56,3.44-1.69,4.48c-1.13,1.04-2.59,1.55-4.37,1.55c-1.81,0-3.24-0.51-4.3-1.54
			C126.31,323.25,125.78,321.75,125.78,319.78z M133.98,319.35v-8.45c0-1.08-0.18-1.9-0.55-2.45c-0.37-0.56-0.91-0.84-1.65-0.84
			c-0.79,0-1.37,0.27-1.72,0.82c-0.36,0.55-0.53,1.37-0.53,2.47v8.45c0,2.05,0.75,3.08,2.26,3.08c0.71,0,1.26-0.27,1.63-0.81
			C133.8,321.08,133.98,320.33,133.98,319.35z"/>
		<path d="M140.97,319.78v-9.48c0-1.99,0.56-3.5,1.68-4.53c1.12-1.03,2.59-1.54,4.42-1.54c1.77,0,3.19,0.51,4.25,1.54
			s1.6,2.54,1.6,4.53v9.48c0,1.95-0.56,3.44-1.69,4.48c-1.13,1.04-2.59,1.55-4.37,1.55c-1.81,0-3.24-0.51-4.3-1.54
			C141.49,323.25,140.97,321.75,140.97,319.78z M149.17,319.35v-8.45c0-1.08-0.18-1.9-0.55-2.45c-0.37-0.56-0.91-0.84-1.65-0.84
			c-0.79,0-1.37,0.27-1.72,0.82c-0.36,0.55-0.53,1.37-0.53,2.47v8.45c0,2.05,0.75,3.08,2.26,3.08c0.71,0,1.26-0.27,1.63-0.81
			C148.98,321.08,149.17,320.33,149.17,319.35z"/>
		<path d="M162.1,304.54c1.77,0,3.19,0.51,4.25,1.52c1.07,1.02,1.6,2.52,1.6,4.51v8.96c0,1.97-0.56,3.47-1.68,4.5
			s-2.57,1.54-4.36,1.54h-5.64v-21.04H162.1z M163.64,321.39c0.38-0.55,0.56-1.31,0.56-2.29v-7.9c0-1.08-0.18-1.9-0.55-2.45
			c-0.37-0.56-0.91-0.84-1.65-0.84h-2.01v14.3H162C162.72,322.22,163.26,321.94,163.64,321.39z"/>
	</g>
</g>
<g id="ikon">
	<path class="st3" d="M59.33,198.92"/>
	<path class="st3" d="M81.51,199.32"/>
	<path class="st3" d="M103.7,199.72"/>
	<line class="st4" x1="98.61" y1="202.85" x2="213.32" y2="77.75"/>
	<g>
		<path class="st5" d="M57.71,189.94"/>
		<path class="st5" d="M79.9,190.34"/>
		<path class="st5" d="M102.09,190.75"/>
		<path class="st5" d="M124.27,191.15"/>
		<path class="st6" d="M46.15,174.34L177.57,65.01c0.74-0.62,1.7-0.9,2.66-0.79l51.04,5.9c0,0,1.42,0.04,1.25,2.8
			c-0.13,2.11-0.33,7.19-0.41,9.48c-0.03,0.75-0.31,1.47-0.8,2.03L123.25,209.56l-0.02-2.39l0.02-4.37l0-4.22l-0.02-2.06
			c0-0.06,0-0.13-0.01-0.19l-0.14-2.04c-0.01-0.17-0.04-0.35-0.08-0.52l-0.31-1.33l-0.35-0.83l-0.23-0.27
			c-0.42-0.5-0.98-0.86-1.6-1.05l-0.4-0.12c-0.09-0.03-0.18-0.05-0.27-0.07l-4.15-0.85l-11.14-2.28l-9.39-1.92l-34.91-7.14
			l-12.18-2.49c-0.56-0.12-1.09-0.38-1.52-0.76L46.15,174.34z"/>
		<line class="st4" x1="119.18" y1="194.28" x2="232.32" y2="70.89"/>
		<path class="st6" d="M123.22,197.21c0.18-6.9-2.45-6.9-2.45-6.9l-73.32-14.99c-3.34-0.68-3.24,1.4-3.24,1.4s0.92,10.12,1.23,13.97
			c0.31,3.85,2.46,4.26,2.46,4.26s66.6,14.63,70.23,15.35c0,0,5.04,1.41,5.1-2.95C123.29,202.98,123.22,197.21,123.22,197.21z"/>
		<line class="st7" x1="44.79" y1="183.21" x2="53.39" y2="196.14"/>
		<line class="st7" x1="47.2" y1="175.26" x2="63.01" y2="198.25"/>
		<line class="st7" x1="57.22" y1="177.31" x2="72.52" y2="200.34"/>
		<line class="st7" x1="66.86" y1="179.52" x2="82.08" y2="202.43"/>
		<line class="st7" x1="76.13" y1="181.18" x2="91.65" y2="204.53"/>
		<line class="st7" x1="85.65" y1="183.21" x2="101.21" y2="206.62"/>
		<line class="st7" x1="95.16" y1="185.07" x2="110.76" y2="208.7"/>
		<line class="st7" x1="104.55" y1="186.99" x2="120.13" y2="210.5"/>
		<line class="st7" x1="113.91" y1="188.82" x2="123.25" y2="202.8"/>
	</g>
</g>
</svg>
