<?xml version="1.0" encoding="utf-8"?>
<!-- Generator: Adobe Illustrator 25.4.1, SVG Export Plug-In . SVG Version: 6.00 Build 0)  -->
<svg version="1.1" xmlns="http://www.w3.org/2000/svg" xmlns:xlink="http://www.w3.org/1999/xlink" x="0px" y="0px"
	 viewBox="0 0 271.29 356.19" style="enable-background:new 0 0 271.29 356.19;" xml:space="preserve">
<style type="text/css">
	.st0{fill:#F18700;}
	.st1{fill:#FFFFFF;}
	.st2{fill:none;}
</style>
<g id="bakgrund">
	<g>
		<rect x="1" y="1" class="st0" width="269.29" height="269.29"/>
		<path class="st0" d="M271.29,271.29H0V0h271.29V271.29z M2,269.29h267.29V2H2V269.29z"/>
	</g>
	<rect x="1" y="270.15" class="st1" width="269.29" height="85.04"/>
	<path class="st0" d="M271.29,356.19H0v-87.04h271.29V356.19z M2,354.19h267.29v-83.04H2V354.19z"/>
</g>
<g id="namn">
	<g>
		<path d="M72.3,304.13l-0.85,4.08h-3.9l5.4-21.04h3.66l5.37,21.04h-3.9l-0.85-4.08H72.3z M74.77,292.24l-1.77,8.54h3.54
			L74.77,292.24z"/>
		<path d="M85.1,305.71c-0.5-0.87-0.75-1.88-0.75-3.02v-15.52h3.75v15.43c0,0.85,0.16,1.48,0.49,1.88s0.82,0.59,1.49,0.59
			c1.32,0,1.98-0.82,1.98-2.47v-15.43h3.75v15.52c0,1.14-0.24,2.14-0.73,3.02c-0.49,0.87-1.17,1.55-2.04,2.03
			c-0.87,0.48-1.86,0.72-2.96,0.72s-2.08-0.24-2.94-0.72C86.27,307.26,85.59,306.59,85.1,305.71z"/>
		<path d="M105.51,290.56v17.65h-3.72v-17.65h-3.66v-3.38h11.01v3.38H105.51z"/>
		<path d="M111.33,302.42v-9.48c0-1.99,0.56-3.5,1.68-4.53c1.12-1.03,2.59-1.54,4.42-1.54c1.77,0,3.19,0.51,4.25,1.54
			s1.6,2.54,1.6,4.53v9.48c0,1.95-0.56,3.44-1.69,4.48c-1.13,1.04-2.59,1.55-4.37,1.55c-1.81,0-3.24-0.51-4.3-1.54
			C111.86,305.89,111.33,304.39,111.33,302.42z M119.53,302v-8.45c0-1.08-0.18-1.9-0.55-2.45c-0.37-0.56-0.91-0.84-1.65-0.84
			c-0.79,0-1.37,0.27-1.72,0.82c-0.36,0.55-0.53,1.37-0.53,2.47V302c0,2.05,0.75,3.08,2.26,3.08c0.71,0,1.26-0.27,1.63-0.81
			C119.34,303.73,119.53,302.97,119.53,302z"/>
		<path d="M141.48,308.21h-3.75V295.9l-2.68,8.23h-2.01l-2.65-8.14v12.22h-3.75v-21.04h3.75l3.66,11.1l3.69-11.1h3.75V308.21z"/>
		<path d="M144.84,302.42v-9.48c0-1.99,0.56-3.5,1.68-4.53c1.12-1.03,2.59-1.54,4.42-1.54c1.77,0,3.19,0.51,4.25,1.54
			s1.6,2.54,1.6,4.53v9.48c0,1.95-0.56,3.44-1.69,4.48c-1.13,1.04-2.59,1.55-4.37,1.55c-1.81,0-3.24-0.51-4.3-1.54
			C145.37,305.89,144.84,304.39,144.84,302.42z M153.04,302v-8.45c0-1.08-0.18-1.9-0.55-2.45c-0.37-0.56-0.91-0.84-1.65-0.84
			c-0.79,0-1.37,0.27-1.72,0.82c-0.36,0.55-0.53,1.37-0.53,2.47V302c0,2.05,0.75,3.08,2.26,3.08c0.71,0,1.26-0.27,1.63-0.81
			C152.85,303.73,153.04,302.97,153.04,302z"/>
		<path d="M166.36,290.56v17.65h-3.72v-17.65h-3.66v-3.38h11.01v3.38H166.36z"/>
		<path d="M176.15,287.18v21.04h-3.72v-21.04H176.15z"/>
		<path d="M182.77,287.18l2.53,15.73l2.56-15.73h4.12l-4.73,21.04h-3.87l-4.73-21.04H182.77z"/>
		<path d="M198.07,295.84h4.88v3.35h-4.88v5.67h5.67v3.35h-9.39v-21.04h9.39v3.38h-5.67V295.84z"/>
		<path d="M91.22,332.12c0,2.13-0.44,3.68-1.31,4.65c-0.87,0.97-2.36,1.45-4.45,1.45h-5.7v-21.04h5.7c2.05,0,3.52,0.45,4.39,1.36
			c0.87,0.9,1.31,2.34,1.31,4.31c0,1.04-0.17,1.92-0.52,2.65s-0.93,1.29-1.77,1.68c0.91,0.41,1.53,1.01,1.86,1.8
			S91.22,330.82,91.22,332.12z M83.48,325.62h1.58c0.87,0,1.48-0.2,1.83-0.59c0.35-0.4,0.52-1.04,0.52-1.94
			c0-0.94-0.17-1.6-0.52-1.98c-0.34-0.39-0.96-0.58-1.83-0.58h-1.58V325.62z M87.47,331.84c0-1.06-0.19-1.82-0.56-2.29
			s-1-0.7-1.88-0.7h-1.55v6.01h1.55c0.93,0,1.58-0.23,1.92-0.69C87.3,333.72,87.47,332.94,87.47,331.84z"/>
		<path d="M98.24,334.13l-0.85,4.08h-3.9l5.4-21.04h3.66l5.37,21.04H104l-0.85-4.08H98.24z M100.7,322.24l-1.77,8.54h3.54
			L100.7,322.24z"/>
		<path d="M116.5,320.56v17.65h-3.72v-17.65h-3.66v-3.38h11.01v3.38H116.5z"/>
		<path d="M128.66,320.56v17.65h-3.72v-17.65h-3.66v-3.38h11.01v3.38H128.66z"/>
		<path d="M138.33,325.84h4.88v3.35h-4.88v5.67H144v3.35h-9.39v-21.04H144v3.38h-5.67V325.84z"/>
		<path d="M150.71,329.77v8.44h-3.75v-21.04h5.73c2.07,0,3.54,0.5,4.41,1.49c0.86,1,1.3,2.59,1.3,4.79c0,1.4-0.19,2.57-0.58,3.51
			c-0.39,0.93-1.02,1.64-1.89,2.1l3.14,9.15h-3.9l-2.65-8.44H150.71z M152.66,326.42c0.75,0,1.27-0.25,1.55-0.75
			c0.29-0.5,0.43-1.24,0.43-2.21s-0.14-1.71-0.41-2.19c-0.27-0.49-0.8-0.73-1.57-0.73h-1.95v5.88H152.66z"/>
		<path d="M165.74,317.18v21.04h-3.72v-21.04H165.74z"/>
		<path d="M173.06,325.84h4.88v3.35h-4.88v5.67h5.67v3.35h-9.39v-21.04h9.39v3.38h-5.67V325.84z"/>
		<path d="M180.98,332.21h3.54c0.04,1.04,0.25,1.8,0.62,2.29c0.38,0.49,0.93,0.73,1.66,0.73s1.27-0.22,1.6-0.67s0.5-1.16,0.5-2.13
			c0-0.81-0.19-1.46-0.56-1.94c-0.38-0.48-1.01-0.92-1.91-1.33l-1.43-0.64c-1.36-0.61-2.34-1.36-2.94-2.26
			c-0.6-0.89-0.9-2.09-0.9-3.6c0-1.77,0.51-3.18,1.54-4.24c1.03-1.06,2.41-1.58,4.16-1.58c1.73,0,3.06,0.52,4.01,1.57
			c0.94,1.05,1.45,2.56,1.51,4.53h-3.45c-0.02-0.96-0.19-1.67-0.5-2.15c-0.31-0.48-0.84-0.72-1.57-0.72c-1.36,0-2.04,0.8-2.04,2.41
			c0,0.73,0.17,1.32,0.5,1.75c0.33,0.44,0.9,0.83,1.69,1.17l1.37,0.61c1.46,0.65,2.53,1.46,3.19,2.44c0.66,0.98,0.99,2.28,0.99,3.9
			c0,1.95-0.51,3.46-1.52,4.51c-1.02,1.06-2.46,1.58-4.33,1.58c-1.85,0-3.26-0.54-4.24-1.62S181,334.22,180.98,332.21z"/>
	</g>
</g>
<g id="ikon">
	<g>
		<polygon class="st2" points="76.47,112.73 71.6,112.73 71.6,121.66 62.67,121.66 62.67,126.53 71.6,126.53 71.6,135.45 
			76.47,135.45 76.47,126.53 85.39,126.53 85.39,121.66 76.47,121.66 		"/>
		<rect x="185.59" y="121.98" class="st2" width="22.72" height="4.54"/>
		<path class="st1" d="M231.06,99.65H40.23v99.71h190.83V99.65z M85.41,126.53h-8.92v8.92h-4.87v-8.92H62.7v-4.87h8.92v-8.92h4.87
			v8.92h8.92V126.53z M185.61,126.52v-4.54h22.72v4.54H185.61z"/>
		<rect x="35.33" y="85.69" class="st1" width="200.64" height="9.41"/>
		<rect x="58.13" y="71.93" class="st1" width="31.8" height="9.09"/>
		<rect x="181.05" y="71.93" class="st1" width="31.8" height="9.09"/>
	</g>
</g>
</svg>
