<?xml version="1.0" encoding="utf-8"?>
<!-- Generator: Adobe Illustrator 25.4.1, SVG Export Plug-In . SVG Version: 6.00 Build 0)  -->
<svg version="1.1" xmlns="http://www.w3.org/2000/svg" xmlns:xlink="http://www.w3.org/1999/xlink" x="0px" y="0px"
	 viewBox="0 0 271.29 356.19" style="enable-background:new 0 0 271.29 356.19;" xml:space="preserve">
<style type="text/css">
	.st0{fill:#F18700;}
	.st1{fill:#FFFFFF;}
</style>
<g id="bakgrund">
	<g>
		<rect x="1" y="1" class="st0" width="269.29" height="269.29"/>
		<path class="st0" d="M271.29,271.29H0V0h271.29V271.29z M2,269.29h267.29V2H2V269.29z"/>
	</g>
	<rect x="1" y="270.15" class="st1" width="269.29" height="85.04"/>
	<path class="st0" d="M271.29,356.19H0v-87.04h271.29V356.19z M2,354.19h267.29v-83.04H2V354.19z"/>
</g>
<g id="namn">
	<g>
		<path d="M45.47,317.41v-9.48c0-1.99,0.56-3.5,1.68-4.53c1.12-1.03,2.59-1.54,4.42-1.54c1.75,0,3.16,0.51,4.24,1.52
			c1.08,1.02,1.62,2.56,1.62,4.63v0.64h-3.75v-0.61c0-0.96-0.2-1.66-0.59-2.12c-0.4-0.46-0.93-0.69-1.6-0.69
			c-0.79,0-1.37,0.27-1.72,0.82c-0.36,0.55-0.53,1.37-0.53,2.47v8.45c0,2.05,0.75,3.08,2.26,3.08c0.67,0,1.21-0.23,1.6-0.7
			c0.4-0.47,0.59-1.16,0.59-2.07v-0.55h3.72v0.58c0,2.03-0.56,3.56-1.69,4.59s-2.58,1.54-4.34,1.54c-1.81,0-3.24-0.51-4.3-1.54
			C46,320.88,45.47,319.38,45.47,317.41z"/>
		<path d="M64.44,319.11l-0.85,4.09h-3.9l5.4-21.04h3.66l5.37,21.04h-3.9l-0.85-4.09H64.44z M66.91,307.22l-1.77,8.54h3.54
			L66.91,307.22z"/>
		<path d="M87.94,317.1c0,2.13-0.44,3.68-1.31,4.65s-2.36,1.45-4.45,1.45h-5.7v-21.04h5.7c2.05,0,3.52,0.45,4.39,1.36
			s1.31,2.34,1.31,4.31c0,1.04-0.17,1.92-0.52,2.65c-0.35,0.73-0.93,1.29-1.77,1.68c0.91,0.41,1.53,1.01,1.86,1.8
			C87.78,314.75,87.94,315.8,87.94,317.1z M80.2,310.61h1.58c0.87,0,1.48-0.2,1.83-0.59c0.35-0.4,0.52-1.04,0.52-1.94
			c0-0.94-0.17-1.6-0.52-1.98c-0.34-0.39-0.96-0.58-1.83-0.58H80.2V310.61z M84.2,316.83c0-1.06-0.19-1.82-0.56-2.29
			c-0.38-0.47-1-0.7-1.88-0.7H80.2v6.01h1.55c0.93,0,1.58-0.23,1.92-0.69C84.02,318.7,84.2,317.92,84.2,316.83z"/>
		<path d="M95.05,302.16v17.68h5.64v3.35H91.3v-21.04H95.05z"/>
		<path d="M107.12,310.82H112v3.35h-4.88v5.67h5.67v3.35h-9.39v-21.04h9.39v3.38h-5.67V310.82z"/>
		<path d="M115.05,317.19h3.54c0.04,1.04,0.25,1.8,0.62,2.29c0.38,0.49,0.93,0.73,1.66,0.73s1.27-0.22,1.6-0.67s0.5-1.16,0.5-2.13
			c0-0.81-0.19-1.46-0.56-1.94c-0.38-0.48-1.01-0.92-1.91-1.33l-1.43-0.64c-1.36-0.61-2.34-1.36-2.94-2.26s-0.9-2.09-0.9-3.6
			c0-1.77,0.51-3.18,1.54-4.24c1.03-1.06,2.41-1.58,4.16-1.58c1.73,0,3.06,0.52,4.01,1.57c0.94,1.05,1.45,2.55,1.51,4.53h-3.45
			c-0.02-0.96-0.19-1.67-0.5-2.15c-0.31-0.48-0.84-0.72-1.57-0.72c-1.36,0-2.04,0.8-2.04,2.41c0,0.73,0.17,1.32,0.5,1.75
			c0.33,0.44,0.9,0.83,1.69,1.17l1.37,0.61c1.46,0.65,2.53,1.46,3.19,2.44c0.66,0.98,0.99,2.28,0.99,3.9c0,1.95-0.51,3.46-1.52,4.51
			c-1.02,1.06-2.46,1.59-4.33,1.59c-1.85,0-3.26-0.54-4.24-1.62S115.07,319.2,115.05,317.19z"/>
		<path d="M148.74,320.12h0.37v3.08h-1.46c-0.67,0-1.18-0.12-1.54-0.37c-0.36-0.24-0.75-0.7-1.17-1.37
			c-0.57,0.73-1.21,1.26-1.92,1.57c-0.71,0.32-1.53,0.47-2.47,0.47c-1.42,0-2.57-0.45-3.44-1.34c-0.87-0.89-1.31-2.08-1.31-3.57
			c0-1.06,0.26-2.1,0.78-3.12c0.52-1.03,1.39-2.19,2.61-3.49c-0.79-1.3-1.36-2.34-1.69-3.12c-0.33-0.78-0.5-1.57-0.5-2.36
			c0-1.38,0.44-2.5,1.31-3.35s2.01-1.28,3.42-1.28c1.38,0,2.51,0.43,3.38,1.28s1.31,1.97,1.31,3.35c0,0.89-0.23,1.81-0.7,2.74
			c-0.47,0.93-1.25,1.99-2.35,3.17l1.86,3.11l1.4-2.26l2.53,1.74l-2.2,3.41l0.55,0.92c0.16,0.28,0.34,0.49,0.53,0.61
			C148.22,320.06,148.46,320.12,148.74,320.12z M143.25,318.69l-2.35-3.84c-0.59,0.67-1,1.27-1.23,1.78
			c-0.23,0.52-0.35,1.05-0.35,1.6c0,0.65,0.15,1.15,0.44,1.49c0.29,0.35,0.7,0.52,1.2,0.52c0.41,0,0.78-0.11,1.13-0.34
			C142.44,319.68,142.83,319.28,143.25,318.69z M140.36,306.31c0,0.37,0.09,0.79,0.26,1.26c0.17,0.48,0.49,1.11,0.96,1.91
			c0.57-0.65,0.95-1.21,1.14-1.66c0.19-0.46,0.29-0.96,0.29-1.51c0-0.55-0.12-0.97-0.35-1.25s-0.55-0.43-0.96-0.43
			c-0.43,0-0.76,0.15-0.99,0.44S140.36,305.78,140.36,306.31z"/>
		<path d="M174.08,323.2h-4.05l-2.29-12.93l-2.32,12.93h-4.02l-3.75-21.04h3.81l2.04,15.73l1.98-15.73h4.57l1.98,15.73l2.04-15.73
			h3.75L174.08,323.2z"/>
		<path d="M184.05,302.16v21.04h-3.72v-21.04H184.05z"/>
		<path d="M191.4,314.75v8.45h-3.75v-21.04h5.73c2.07,0,3.54,0.5,4.41,1.49c0.86,1,1.3,2.59,1.3,4.79c0,1.4-0.19,2.57-0.58,3.51
			c-0.39,0.94-1.02,1.64-1.89,2.1l3.14,9.15h-3.9l-2.65-8.45H191.4z M193.35,311.4c0.75,0,1.27-0.25,1.55-0.75
			c0.29-0.5,0.43-1.24,0.43-2.21s-0.14-1.71-0.41-2.2c-0.27-0.49-0.8-0.73-1.57-0.73h-1.95v5.88H193.35z"/>
		<path d="M206.3,310.82h4.88v3.35h-4.88v5.67h5.67v3.35h-9.39v-21.04h9.39v3.38h-5.67V310.82z"/>
		<path d="M214.23,317.19h3.54c0.04,1.04,0.25,1.8,0.62,2.29c0.38,0.49,0.93,0.73,1.66,0.73s1.27-0.22,1.6-0.67s0.5-1.16,0.5-2.13
			c0-0.81-0.19-1.46-0.56-1.94c-0.38-0.48-1.01-0.92-1.91-1.33l-1.43-0.64c-1.36-0.61-2.34-1.36-2.94-2.26s-0.9-2.09-0.9-3.6
			c0-1.77,0.51-3.18,1.54-4.24c1.03-1.06,2.41-1.58,4.16-1.58c1.73,0,3.06,0.52,4.01,1.57c0.94,1.05,1.45,2.55,1.51,4.53h-3.45
			c-0.02-0.96-0.19-1.67-0.5-2.15c-0.31-0.48-0.84-0.72-1.57-0.72c-1.36,0-2.04,0.8-2.04,2.41c0,0.73,0.17,1.32,0.5,1.75
			c0.33,0.44,0.9,0.83,1.69,1.17l1.37,0.61c1.46,0.65,2.53,1.46,3.19,2.44c0.66,0.98,0.99,2.28,0.99,3.9c0,1.95-0.51,3.46-1.52,4.51
			c-1.02,1.06-2.46,1.59-4.33,1.59c-1.85,0-3.26-0.54-4.24-1.62S214.25,319.2,214.23,317.19z"/>
	</g>
</g>
<g id="ikon">
	<g>
		<rect x="227.97" y="151.94" class="st1" width="10.98" height="2.75"/>
		
			<rect x="223.48" y="133.03" transform="matrix(0.8897 -0.4566 0.4566 0.8897 -36.109 119.3642)" class="st1" width="10.98" height="2.75"/>
		
			<rect x="209.32" y="118.85" transform="matrix(0.5453 -0.8382 0.8382 0.5453 -3.0971 234.7462)" class="st1" width="11.01" height="2.75"/>
		<path class="st1" d="M192.97,157.01c-1.81-2.1-3.13-4.51-3.91-7.09l-37.99,28.56c-5.18,3.56-10.85,5.44-16.41,5.44c0,0,0,0,0,0
			c-5.07,0-9.86-1.53-13.85-4.42c-3.8-2.76-6.59-6.57-8.07-11.02c-1.63-4.9-1.6-10.51,0.09-16.22c0.16-0.49,1.75-5.32,4.3-9.92
			c2.52-4.54,5.4-11.79,5.53-12.1l0.11-0.27l0.08-0.27c4.75-15.67,3.03-30.16-4.86-40.78c-3.64-4.9-8.37-8.72-14.08-11.36
			c-5.6-2.59-11.86-3.9-18.6-3.9L32.36,73.6l-0.02,13.77l52.94,0.06c9.31,0,16.99,3.44,21.63,9.7c2.45,3.3,3.98,7.28,4.54,11.81
			c0.62,5.02,0.04,10.57-1.72,16.49c-0.51,1.27-2.81,6.9-4.66,10.22c-3.38,6.09-5.33,12.27-5.42,12.53l-0.03,0.09
			c-2.51,8.45-2.5,16.94,0.03,24.55c2.39,7.21,6.91,13.37,13.06,17.83c6.35,4.6,13.93,7.04,21.93,7.04c0,0,0,0,0.01,0
			c8.41,0,16.83-2.75,24.36-7.96l0.11-0.08l38.32-28.81C195.78,159.81,194.28,158.53,192.97,157.01z"/>
		<path class="st1" d="M199.03,158.59c-1.48-0.9-2.82-2.03-3.98-3.38c-1.65-1.91-2.82-4.11-3.47-6.47l0.06-0.06
			c4.41-4.39,8.99-11.54,12.2-16.55c1.7-2.65,3.24-5.05,4.17-6.49l4.62,3c-0.92,1.43-2.46,3.82-4.15,6.45
			c-2.33,3.63-5.12,7.99-8.14,11.92c7.89-4.99,17.49-9.91,20.08-11.22l2.52,4.9c-2.37,1.2-11.45,5.86-18.99,10.56
			c2.45-0.45,5.34-0.7,8.82-0.7c6.61,0,10.69,0,12.45,0.01v5.51c-1.75,0-5.83-0.01-12.45-0.01c-6.71,0-10.69,1-13.69,2.5
			L199.03,158.59z"/>
	</g>
</g>
</svg>
