<?xml version="1.0" encoding="utf-8"?>
<!-- Generator: Adobe Illustrator 25.4.1, SVG Export Plug-In . SVG Version: 6.00 Build 0)  -->
<svg version="1.1" xmlns="http://www.w3.org/2000/svg" xmlns:xlink="http://www.w3.org/1999/xlink" x="0px" y="0px"
	 viewBox="0 0 271.29 356.19" style="enable-background:new 0 0 271.29 356.19;" xml:space="preserve">
<style type="text/css">
	.st0{fill:#FFFFFF;}
	.st1{fill:#C4A166;}
	.st2{fill:none;}
</style>
<g id="bakgrund">
	<g>
		<rect x="1" y="270.29" class="st0" width="269.29" height="85.04"/>
		<path class="st1" d="M271.29,356.33H0v-87.04h271.29V356.33z M2,354.33h267.29v-83.04H2V354.33z"/>
	</g>
	<g>
		<rect x="1" y="1" class="st1" width="269.29" height="269.29"/>
		<path class="st1" d="M271.29,271.29H0V0h271.29V271.29z M2,269.29h267.29V2H2V269.29z"/>
	</g>
</g>
<g id="namn">
	<g>
		<path d="M68.08,317.37v-9.48c0-1.99,0.56-3.5,1.68-4.53c1.12-1.03,2.59-1.54,4.42-1.54c1.75,0,3.16,0.51,4.24,1.52
			c1.08,1.02,1.62,2.56,1.62,4.63v0.64h-3.75v-0.61c0-0.96-0.2-1.66-0.59-2.12c-0.4-0.46-0.93-0.69-1.6-0.69
			c-0.79,0-1.37,0.27-1.72,0.82c-0.36,0.55-0.53,1.37-0.53,2.47v8.44c0,2.05,0.75,3.08,2.26,3.08c0.67,0,1.21-0.23,1.6-0.7
			c0.4-0.47,0.59-1.16,0.59-2.07v-0.55H80v0.58c0,2.03-0.56,3.56-1.69,4.59s-2.58,1.54-4.34,1.54c-1.81,0-3.24-0.51-4.3-1.54
			C68.61,320.84,68.08,319.34,68.08,317.37z"/>
		<path d="M87.05,319.08l-0.85,4.09h-3.9l5.4-21.04h3.66l5.37,21.04h-3.9l-0.85-4.09H87.05z M89.52,307.19l-1.77,8.54h3.54
			L89.52,307.19z"/>
		<path d="M102.84,314.72v8.45h-3.75v-21.04h5.73c2.07,0,3.54,0.5,4.41,1.49c0.86,1,1.3,2.59,1.3,4.79c0,1.4-0.19,2.57-0.58,3.51
			s-1.02,1.64-1.89,2.1l3.14,9.15h-3.9l-2.65-8.45H102.84z M104.79,311.37c0.75,0,1.27-0.25,1.55-0.75c0.29-0.5,0.43-1.23,0.43-2.21
			s-0.14-1.71-0.41-2.2c-0.27-0.49-0.8-0.73-1.57-0.73h-1.95v5.88H104.79z"/>
		<path d="M119.85,302.13c1.77,0,3.19,0.51,4.25,1.52c1.07,1.02,1.6,2.52,1.6,4.51v8.96c0,1.97-0.56,3.47-1.68,4.5
			s-2.57,1.54-4.36,1.54h-5.64v-21.04H119.85z M121.39,318.99c0.38-0.55,0.56-1.31,0.56-2.29v-7.9c0-1.08-0.18-1.9-0.55-2.45
			c-0.37-0.56-0.91-0.84-1.65-0.84h-2.01v14.3h2.01C120.47,319.81,121.02,319.54,121.39,318.99z"/>
		<path d="M140.52,317.07c0,2.13-0.44,3.68-1.31,4.65c-0.87,0.96-2.36,1.45-4.45,1.45h-5.7v-21.04h5.7c2.05,0,3.52,0.45,4.39,1.36
			s1.31,2.34,1.31,4.31c0,1.04-0.17,1.92-0.52,2.65c-0.35,0.73-0.93,1.29-1.77,1.68c0.91,0.41,1.53,1.01,1.86,1.8
			C140.36,314.72,140.52,315.77,140.52,317.07z M132.78,310.57h1.58c0.87,0,1.48-0.2,1.83-0.59c0.35-0.4,0.52-1.04,0.52-1.94
			c0-0.93-0.17-1.6-0.52-1.98c-0.34-0.39-0.96-0.58-1.83-0.58h-1.58V310.57z M136.77,316.79c0-1.06-0.19-1.82-0.56-2.29
			c-0.38-0.47-1-0.7-1.88-0.7h-1.55v6.01h1.55c0.93,0,1.58-0.23,1.92-0.69C136.6,318.67,136.77,317.89,136.77,316.79z"/>
		<path d="M143.76,317.37v-9.48c0-1.99,0.56-3.5,1.68-4.53c1.12-1.03,2.59-1.54,4.42-1.54c1.77,0,3.19,0.51,4.25,1.54
			s1.6,2.54,1.6,4.53v9.48c0,1.95-0.56,3.45-1.69,4.48c-1.13,1.04-2.59,1.55-4.37,1.55c-1.81,0-3.24-0.51-4.3-1.54
			C144.28,320.84,143.76,319.34,143.76,317.37z M151.96,316.94v-8.44c0-1.08-0.18-1.9-0.55-2.46c-0.37-0.56-0.91-0.84-1.65-0.84
			c-0.79,0-1.37,0.27-1.72,0.82c-0.36,0.55-0.53,1.37-0.53,2.47v8.44c0,2.05,0.75,3.08,2.26,3.08c0.71,0,1.26-0.27,1.63-0.81
			C151.77,318.68,151.96,317.92,151.96,316.94z"/>
		<path d="M162.72,319.08l-0.85,4.09h-3.9l5.4-21.04h3.66l5.37,21.04h-3.9l-0.85-4.09H162.72z M165.19,307.19l-1.77,8.54h3.54
			L165.19,307.19z"/>
		<path d="M178.51,314.72v8.45h-3.75v-21.04h5.73c2.07,0,3.54,0.5,4.41,1.49c0.86,1,1.3,2.59,1.3,4.79c0,1.4-0.19,2.57-0.58,3.51
			s-1.02,1.64-1.89,2.1l3.14,9.15h-3.9l-2.65-8.45H178.51z M180.46,311.37c0.75,0,1.27-0.25,1.55-0.75c0.29-0.5,0.43-1.23,0.43-2.21
			s-0.14-1.71-0.41-2.2c-0.27-0.49-0.8-0.73-1.57-0.73h-1.95v5.88H180.46z"/>
		<path d="M195.53,302.13c1.77,0,3.19,0.51,4.25,1.52c1.07,1.02,1.6,2.52,1.6,4.51v8.96c0,1.97-0.56,3.47-1.68,4.5
			s-2.57,1.54-4.36,1.54h-5.64v-21.04H195.53z M197.07,318.99c0.38-0.55,0.56-1.31,0.56-2.29v-7.9c0-1.08-0.18-1.9-0.55-2.45
			c-0.37-0.56-0.91-0.84-1.65-0.84h-2.01v14.3h2.01C196.15,319.81,196.69,319.54,197.07,318.99z"/>
	</g>
</g>
<g id="ikon">
	<g>
		<g>
			<rect x="164.43" y="116.07" class="st2" width="0" height="94.22"/>
		</g>
		<g>
			<polygon class="st2" points="188.15,87 179.24,94.99 188.15,87 217.15,61 103.27,61 103.27,61 217.15,61 			"/>
		</g>
		<g>
			<polygon class="st2" points="147.72,147.2 157.13,124.25 147.69,147.2 			"/>
		</g>
		<g>
			<rect x="99.61" y="62.16" class="st2" width="0" height="43.87"/>
		</g>
		<g>
			<polygon class="st2" points="163.04,109.82 163.06,109.78 47.78,109.78 35.48,139.79 47.8,109.82 			"/>
		</g>
		<g>
			<polygon class="st2" points="154.26,140.7 150.13,150.71 48.93,150.71 48.93,150.79 150.13,150.79 			"/>
		</g>
		<g>
			<polygon class="st2" points="220.22,63.17 220.22,63.17 168.92,109.15 187.58,141.62 187.58,141.62 168.93,109.15 			"/>
		</g>
		<g>
			<polygon class="st2" points="218.85,163.74 183.96,195.02 218.85,163.74 218.85,118.5 218.85,118.5 			"/>
		</g>
		<g>
			<polygon class="st2" points="164.43,115.9 154.26,140.7 150.13,150.71 48.93,150.71 48.93,150.79 48.93,150.79 48.93,210.29 
				164.43,210.29 164.43,210.29 164.43,116.07 164.43,116.07 			"/>
		</g>
		<g>
			<polygon class="st2" points="99.61,106.03 99.61,106.03 99.61,62.16 99.61,62.16 99.61,62.16 50.68,106.03 50.68,106.03 			"/>
		</g>
		<g>
			<polygon class="st2" points="188.15,87 217.15,61 103.27,61 103.27,61 103.27,61 103.27,106.03 103.27,106.03 166.93,106.03 
				166.93,106.03 179.24,94.99 			"/>
		</g>
		<g>
			<polygon class="st2" points="147.69,147.2 147.72,147.2 157.13,124.25 163.06,109.82 163.04,109.82 163.06,109.78 47.78,109.78 
				35.48,139.79 32.42,147.24 147.68,147.24 			"/>
		</g>
		<g>
			<polygon class="st2" points="238.53,95.03 220.22,63.17 220.22,63.17 220.22,63.17 168.92,109.15 187.58,141.62 187.58,141.62 
				187.58,141.62 238.87,95.64 238.87,95.64 			"/>
		</g>
		<g>
			<polygon class="st2" points="218.85,118.5 186.66,147.36 172.19,122.17 168.43,115.63 168.43,115.63 168.43,208.94 
				168.43,208.94 183.96,195.02 218.85,163.74 218.85,118.5 218.85,118.5 			"/>
		</g>
		<g>
			<polygon class="st0" points="188.15,87 217.15,61 103.27,61 103.27,61 103.27,106.03 103.27,106.03 166.93,106.03 166.93,106.03 
				179.24,94.99 			"/>
		</g>
		<g>
			<polygon class="st0" points="99.61,106.03 99.61,62.16 99.61,62.16 50.68,106.03 50.68,106.03 			"/>
		</g>
		<g>
			<polygon class="st2" points="99.61,106.03 99.61,106.03 99.61,62.16 99.61,62.16 99.61,62.16 50.68,106.03 50.68,106.03 			"/>
		</g>
		<g>
			<polygon class="st2" points="188.15,87 217.15,61 103.27,61 103.27,61 103.27,61 103.27,106.03 103.27,106.03 166.93,106.03 
				166.93,106.03 179.24,94.99 			"/>
		</g>
		<g>
			<polygon class="st2" points="218.85,118.5 186.66,147.36 172.19,122.17 168.43,115.63 168.43,115.63 168.43,208.94 
				168.43,208.94 183.96,195.02 218.85,163.74 218.85,118.5 218.85,118.5 			"/>
		</g>
		<g>
			<polygon class="st2" points="238.53,95.03 220.22,63.17 220.22,63.17 220.22,63.17 168.92,109.15 187.58,141.62 187.58,141.62 
				187.58,141.62 238.87,95.64 238.87,95.64 			"/>
		</g>
		<g>
			<polygon class="st0" points="48.93,150.79 48.93,150.79 48.93,210.29 164.43,210.29 164.43,116.07 164.43,115.9 150.13,150.79 
							"/>
		</g>
		<g>
			<polygon class="st0" points="157.13,124.25 163.06,109.78 47.8,109.82 35.48,139.79 32.42,147.24 147.72,147.2 			"/>
		</g>
		<g>
			<polygon class="st0" points="218.85,118.5 218.85,118.5 186.66,147.36 172.19,122.17 168.43,115.63 168.43,115.63 168.43,208.94 
				168.43,208.94 183.96,195.02 218.85,163.74 			"/>
		</g>
		<g>
			<polygon class="st0" points="238.53,95.03 220.22,63.17 220.22,63.17 168.93,109.15 187.58,141.62 187.58,141.62 238.87,95.64 
				238.87,95.64 			"/>
		</g>
	</g>
</g>
</svg>
