<?xml version="1.0" encoding="utf-8"?>
<!-- Generator: Adobe Illustrator 25.4.1, SVG Export Plug-In . SVG Version: 6.00 Build 0)  -->
<svg version="1.1" xmlns="http://www.w3.org/2000/svg" xmlns:xlink="http://www.w3.org/1999/xlink" x="0px" y="0px"
	 viewBox="0 0 271.29 355.96" style="enable-background:new 0 0 271.29 355.96;" xml:space="preserve">
<style type="text/css">
	.st0{fill:#86BD40;}
	.st1{fill:#FFFFFF;}
</style>
<g id="bakgrund">
	<g>
		<rect x="1" y="1" class="st0" width="269.29" height="269.29"/>
		<path class="st0" d="M271.29,271.29H0V0h271.29V271.29z M2,269.29h267.29V2H2V269.29z"/>
	</g>
	<g>
		<rect x="1" y="269.92" class="st1" width="269.29" height="85.04"/>
		<path class="st0" d="M271.29,355.96H0v-87.04h271.29V355.96z M2,353.96h267.29v-83.04H2V353.96z"/>
	</g>
</g>
<g id="namn">
	<g>
		<path d="M33.64,317.21v-9.48c0-1.99,0.56-3.5,1.68-4.53c1.12-1.03,2.59-1.54,4.42-1.54c1.75,0,3.16,0.51,4.24,1.52
			c1.08,1.02,1.62,2.56,1.62,4.63v0.64h-3.75v-0.61c0-0.96-0.2-1.66-0.59-2.12c-0.4-0.46-0.93-0.69-1.6-0.69
			c-0.79,0-1.37,0.27-1.72,0.82c-0.36,0.55-0.53,1.37-0.53,2.47v8.45c0,2.05,0.75,3.08,2.26,3.08c0.67,0,1.21-0.23,1.6-0.7
			c0.4-0.47,0.59-1.16,0.59-2.07v-0.55h3.72v0.58c0,2.03-0.56,3.56-1.69,4.59s-2.58,1.54-4.34,1.54c-1.81,0-3.24-0.51-4.3-1.54
			C34.17,320.68,33.64,319.18,33.64,317.21z"/>
		<path d="M48.83,317.21v-9.48c0-1.99,0.56-3.5,1.68-4.53c1.12-1.03,2.59-1.54,4.42-1.54c1.77,0,3.19,0.51,4.25,1.54
			s1.6,2.54,1.6,4.53v9.48c0,1.95-0.56,3.44-1.69,4.48c-1.13,1.04-2.59,1.55-4.37,1.55c-1.81,0-3.24-0.51-4.3-1.54
			C49.36,320.68,48.83,319.18,48.83,317.21z M57.03,316.78v-8.45c0-1.08-0.18-1.9-0.55-2.45c-0.37-0.56-0.91-0.84-1.65-0.84
			c-0.79,0-1.37,0.27-1.72,0.82c-0.36,0.55-0.53,1.37-0.53,2.47v8.45c0,2.05,0.75,3.08,2.26,3.08c0.71,0,1.26-0.27,1.63-0.81
			C56.84,318.51,57.03,317.76,57.03,316.78z"/>
		<path d="M64.01,317.21v-9.48c0-1.99,0.56-3.5,1.68-4.53c1.12-1.03,2.59-1.54,4.42-1.54c1.77,0,3.19,0.51,4.25,1.54
			s1.6,2.54,1.6,4.53v9.48c0,1.95-0.56,3.44-1.69,4.48c-1.13,1.04-2.59,1.55-4.37,1.55c-1.81,0-3.24-0.51-4.3-1.54
			C64.54,320.68,64.01,319.18,64.01,317.21z M72.21,316.78v-8.45c0-1.08-0.18-1.9-0.55-2.45c-0.37-0.56-0.91-0.84-1.65-0.84
			c-0.79,0-1.37,0.27-1.72,0.82c-0.36,0.55-0.53,1.37-0.53,2.47v8.45c0,2.05,0.75,3.08,2.26,3.08c0.71,0,1.26-0.27,1.63-0.81
			C72.03,318.51,72.21,317.76,72.21,316.78z"/>
		<path d="M83.04,318.24V323h-3.72v-21.04h3.72v9.91l4.48-9.91h3.75l-4.39,8.66L91.94,323h-3.99l-3.2-8.14L83.04,318.24z"/>
		<path d="M98.1,301.96V323h-3.72v-21.04H98.1z"/>
		<path d="M113.59,323h-3.75l-4.39-11.22V323h-3.75v-21.04h3.75l4.39,11.71v-11.71h3.75V323z"/>
		<path d="M116.94,317.21v-9.48c0-1.99,0.56-3.5,1.68-4.53c1.12-1.03,2.59-1.54,4.42-1.54c1.75,0,3.16,0.5,4.24,1.49
			c1.08,1,1.62,2.47,1.62,4.42v0.64h-3.75v-0.64c0-0.81-0.2-1.44-0.61-1.88c-0.41-0.44-0.94-0.66-1.59-0.66
			c-0.79,0-1.37,0.27-1.72,0.82c-0.36,0.55-0.53,1.37-0.53,2.47v8.45c0,2.05,0.75,3.08,2.26,3.08c0.73,0,1.28-0.25,1.65-0.75
			c0.37-0.5,0.55-1.21,0.55-2.15v-2.23h-2.23v-2.96h5.98v5.43c0,1.95-0.56,3.44-1.69,4.48c-1.13,1.04-2.59,1.55-4.37,1.55
			c-1.81,0-3.24-0.51-4.3-1.54C117.47,320.68,116.94,319.18,116.94,317.21z"/>
		<path d="M139.24,320.5c-0.5-0.87-0.75-1.88-0.75-3.02v-15.52h3.75v15.43c0,0.85,0.16,1.48,0.49,1.88s0.82,0.59,1.49,0.59
			c1.32,0,1.98-0.82,1.98-2.47v-15.43h3.75v15.52c0,1.14-0.24,2.14-0.73,3.02c-0.49,0.87-1.17,1.55-2.04,2.03
			c-0.87,0.48-1.86,0.72-2.96,0.72s-2.08-0.24-2.94-0.72C140.42,322.05,139.74,321.37,139.24,320.5z"/>
		<path d="M159.66,305.35V323h-3.72v-17.65h-3.66v-3.38h11.01v3.38H159.66z"/>
		<path d="M169.32,310.62h4.88v3.35h-4.88v5.67h5.67V323h-9.39v-21.04h9.39v3.38h-5.67V310.62z"/>
		<path d="M189.84,323h-3.75l-4.39-11.22V323h-3.75v-21.04h3.75l4.39,11.71v-11.71h3.75V323z"/>
		<path d="M192.62,316.99h3.54c0.04,1.04,0.25,1.8,0.62,2.29c0.38,0.49,0.93,0.73,1.66,0.73s1.27-0.22,1.6-0.67s0.5-1.16,0.5-2.13
			c0-0.81-0.19-1.46-0.56-1.94c-0.38-0.48-1.01-0.92-1.91-1.33l-1.43-0.64c-1.36-0.61-2.34-1.36-2.94-2.26
			c-0.6-0.89-0.9-2.09-0.9-3.6c0-1.77,0.51-3.18,1.54-4.24c1.03-1.06,2.41-1.58,4.16-1.58c1.73,0,3.06,0.52,4.01,1.57
			c0.94,1.05,1.45,2.56,1.51,4.53h-3.45c-0.02-0.96-0.19-1.67-0.5-2.15c-0.31-0.48-0.84-0.72-1.57-0.72c-1.36,0-2.04,0.8-2.04,2.41
			c0,0.73,0.17,1.32,0.5,1.75c0.33,0.44,0.9,0.83,1.69,1.17l1.37,0.61c1.46,0.65,2.53,1.46,3.19,2.44c0.66,0.98,0.99,2.28,0.99,3.9
			c0,1.95-0.51,3.46-1.52,4.51c-1.02,1.06-2.46,1.58-4.33,1.58c-1.85,0-3.26-0.54-4.24-1.62S192.64,319.01,192.62,316.99z"/>
		<path d="M211.06,301.96V323h-3.72v-21.04H211.06z"/>
		<path d="M218.41,301.96v17.68h5.64V323h-9.39v-21.04H218.41z"/>
		<path d="M226.06,316.99h3.54c0.04,1.04,0.25,1.8,0.62,2.29c0.38,0.49,0.93,0.73,1.66,0.73s1.27-0.22,1.6-0.67s0.5-1.16,0.5-2.13
			c0-0.81-0.19-1.46-0.56-1.94c-0.38-0.48-1.01-0.92-1.91-1.33l-1.43-0.64c-1.36-0.61-2.34-1.36-2.94-2.26
			c-0.6-0.89-0.9-2.09-0.9-3.6c0-1.77,0.51-3.18,1.54-4.24c1.03-1.06,2.41-1.58,4.16-1.58c1.73,0,3.06,0.52,4.01,1.57
			c0.94,1.05,1.45,2.56,1.51,4.53h-3.45c-0.02-0.96-0.19-1.67-0.5-2.15c-0.31-0.48-0.84-0.72-1.57-0.72c-1.36,0-2.04,0.8-2.04,2.41
			c0,0.73,0.17,1.32,0.5,1.75c0.33,0.44,0.9,0.83,1.69,1.17l1.37,0.61c1.46,0.65,2.53,1.46,3.19,2.44c0.66,0.98,0.99,2.28,0.99,3.9
			c0,1.95-0.51,3.46-1.52,4.51c-1.02,1.06-2.46,1.58-4.33,1.58c-1.85,0-3.26-0.54-4.24-1.62S226.08,319.01,226.06,316.99z"/>
	</g>
</g>
<g id="ikon">
	<path class="st1" d="M137.81,180.49l2.06-56.3h0.16c1.97,0,3.57-1.6,3.57-3.57v-93.4c0-4.36-3.54-7.9-7.9-7.9h-0.11
		c-4.36,0-7.9,3.54-7.9,7.9v93.4c0,1.97,1.6,3.57,3.57,3.57h0.08l1.09,56.4c-15.1,1.91-26.86,17.11-26.86,35.58
		c0,19.77,13.47,35.79,30.08,35.79s30.08-16.02,30.08-35.79C165.72,197.28,153.41,181.81,137.81,180.49z M135.65,27.78
		c2.11,0,3.82,1.71,3.82,3.82c0,2.11-1.71,3.82-3.82,3.82c-2.11,0-3.82-1.71-3.82-3.82C131.82,29.49,133.54,27.78,135.65,27.78z
		 M144.82,201.93c1.59,0,2.88,1.29,2.88,2.88c0,1.59-1.29,2.88-2.88,2.88c-1.59,0-2.88-1.29-2.88-2.88
		C141.95,203.22,143.24,201.93,144.82,201.93z M144.05,214.12c0,1.59-1.29,2.88-2.88,2.88c-1.59,0-2.88-1.29-2.88-2.88
		c0-1.59,1.29-2.88,2.88-2.88C142.77,211.24,144.05,212.53,144.05,214.12z M141.51,196.26c0,1.59-1.29,2.88-2.88,2.88
		c-1.59,0-2.88-1.29-2.88-2.88c0-1.59,1.29-2.88,2.88-2.88C140.22,193.39,141.51,194.67,141.51,196.26z M134.38,203.92
		c1.59,0,2.88,1.29,2.88,2.88c0,1.59-1.29,2.88-2.88,2.88c-1.59,0-2.88-1.29-2.88-2.88C131.5,205.2,132.79,203.92,134.38,203.92z
		 M127.61,196.26c1.59,0,2.88,1.29,2.88,2.88c0,1.59-1.29,2.88-2.88,2.88c-1.59,0-2.88-1.29-2.88-2.88
		C124.73,197.55,126.02,196.26,127.61,196.26z M124.21,207.27c1.59,0,2.88,1.29,2.88,2.88c0,1.59-1.29,2.88-2.88,2.88
		s-2.88-1.29-2.88-2.88C121.34,208.56,122.62,207.27,124.21,207.27z M124.58,229.58c-1.59,0-2.88-1.29-2.88-2.88
		c0-1.59,1.29-2.88,2.88-2.88c1.59,0,2.88,1.29,2.88,2.88C127.46,228.29,126.17,229.58,124.58,229.58z M126.18,217.75
		c0-1.59,1.29-2.88,2.88-2.88c1.59,0,2.88,1.29,2.88,2.88c0,1.59-1.29,2.88-2.88,2.88C127.46,220.63,126.18,219.34,126.18,217.75z
		 M133,238.97c-1.59,0-2.88-1.29-2.88-2.88c0-1.59,1.29-2.88,2.88-2.88c1.59,0,2.88,1.29,2.88,2.88
		C135.87,237.68,134.59,238.97,133,238.97z M136.49,227.59c-1.59,0-2.88-1.29-2.88-2.88c0-1.59,1.29-2.88,2.88-2.88
		c1.59,0,2.88,1.29,2.88,2.88C139.37,226.31,138.08,227.59,136.49,227.59z M143.33,235c-1.59,0-2.88-1.29-2.88-2.88
		c0-1.59,1.29-2.88,2.88-2.88c1.59,0,2.88,1.29,2.88,2.88C146.2,233.71,144.91,235,143.33,235z M147.08,224.6
		c-1.59,0-2.88-1.29-2.88-2.88c0-1.59,1.29-2.88,2.88-2.88c1.59,0,2.88,1.29,2.88,2.88C149.95,223.31,148.67,224.6,147.08,224.6z"/>
</g>
</svg>
