<?xml version="1.0" encoding="utf-8"?>
<!-- Generator: Adobe Illustrator 25.4.1, SVG Export Plug-In . SVG Version: 6.00 Build 0)  -->
<svg version="1.1" xmlns="http://www.w3.org/2000/svg" xmlns:xlink="http://www.w3.org/1999/xlink" x="0px" y="0px"
	 viewBox="0 0 271.29 355.96" style="enable-background:new 0 0 271.29 355.96;" xml:space="preserve">
<style type="text/css">
	.st0{fill:#04A64B;stroke:#009C4F;stroke-miterlimit:10;}
	.st1{fill:#04A64B;}
	.st2{fill:#FFFFFF;}
</style>
<g id="bakgrund">
	<g>
		<rect x="1" y="1" class="st0" width="269.29" height="269.29"/>
		<path class="st1" d="M271.29,271.29H0V0h271.29V271.29z M2,269.29h267.29V2H2V269.29z"/>
	</g>
	<rect x="0.75" y="269.92" class="st2" width="269.29" height="85.04"/>
	<path class="st1" d="M271.29,355.96H0v-87.04h271.29V355.96z M2,353.96h267.29v-83.04H2V353.96z"/>
</g>
<g id="namn">
	<g>
		<path d="M67.21,317.19v-9.48c0-1.99,0.56-3.5,1.68-4.53c1.12-1.03,2.59-1.54,4.42-1.54c1.75,0,3.16,0.51,4.24,1.52
			c1.08,1.02,1.62,2.56,1.62,4.63v0.64h-3.75v-0.61c0-0.96-0.2-1.66-0.59-2.12c-0.4-0.46-0.93-0.69-1.6-0.69
			c-0.79,0-1.37,0.27-1.72,0.82c-0.36,0.55-0.53,1.37-0.53,2.47v8.44c0,2.05,0.75,3.08,2.26,3.08c0.67,0,1.21-0.23,1.6-0.7
			c0.4-0.47,0.59-1.16,0.59-2.07v-0.55h3.72v0.58c0,2.03-0.56,3.56-1.69,4.59s-2.58,1.54-4.34,1.54c-1.81,0-3.24-0.51-4.3-1.54
			C67.74,320.66,67.21,319.16,67.21,317.19z"/>
		<path d="M82.4,317.19v-9.48c0-1.99,0.56-3.5,1.68-4.53c1.12-1.03,2.59-1.54,4.42-1.54c1.77,0,3.19,0.51,4.25,1.54
			s1.6,2.54,1.6,4.53v9.48c0,1.95-0.56,3.45-1.69,4.48c-1.13,1.04-2.59,1.55-4.37,1.55c-1.81,0-3.24-0.51-4.3-1.54
			C82.92,320.66,82.4,319.16,82.4,317.19z M90.6,316.76v-8.44c0-1.08-0.18-1.9-0.55-2.46c-0.37-0.56-0.91-0.84-1.65-0.84
			c-0.79,0-1.37,0.27-1.72,0.82c-0.36,0.55-0.53,1.37-0.53,2.47v8.44c0,2.05,0.75,3.08,2.26,3.08c0.71,0,1.26-0.27,1.63-0.81
			C90.41,318.5,90.6,317.74,90.6,316.76z"/>
		<path d="M97.58,317.19v-9.48c0-1.99,0.56-3.5,1.68-4.53c1.12-1.03,2.59-1.54,4.42-1.54c1.77,0,3.19,0.51,4.25,1.54
			s1.6,2.54,1.6,4.53v9.48c0,1.95-0.56,3.45-1.69,4.48c-1.13,1.04-2.59,1.55-4.37,1.55c-1.81,0-3.24-0.51-4.3-1.54
			C98.11,320.66,97.58,319.16,97.58,317.19z M105.78,316.76v-8.44c0-1.08-0.18-1.9-0.55-2.46c-0.37-0.56-0.91-0.84-1.65-0.84
			c-0.79,0-1.37,0.27-1.72,0.82c-0.36,0.55-0.53,1.37-0.53,2.47v8.44c0,2.05,0.75,3.08,2.26,3.08c0.71,0,1.26-0.27,1.63-0.81
			C105.59,318.5,105.78,317.74,105.78,316.76z"/>
		<path d="M116.61,318.23v4.76h-3.72v-21.04h3.72v9.91l4.48-9.91h3.75l-4.39,8.66l5.06,12.38h-3.99l-3.2-8.14L116.61,318.23z"/>
		<path d="M131.67,301.95v21.04h-3.72v-21.04H131.67z"/>
		<path d="M147.15,322.98h-3.75l-4.39-11.22v11.22h-3.75v-21.04h3.75l4.39,11.71v-11.71h3.75V322.98z"/>
		<path d="M150.51,317.19v-9.48c0-1.99,0.56-3.5,1.68-4.53c1.12-1.03,2.59-1.54,4.42-1.54c1.75,0,3.16,0.5,4.24,1.49
			c1.08,1,1.62,2.47,1.62,4.42v0.64h-3.75v-0.64c0-0.81-0.2-1.44-0.61-1.88c-0.41-0.44-0.94-0.66-1.59-0.66
			c-0.79,0-1.37,0.27-1.72,0.82c-0.36,0.55-0.53,1.37-0.53,2.47v8.44c0,2.05,0.75,3.08,2.26,3.08c0.73,0,1.28-0.25,1.65-0.75
			c0.37-0.5,0.55-1.21,0.55-2.15v-2.23h-2.23v-2.96h5.98v5.43c0,1.95-0.56,3.45-1.69,4.48c-1.13,1.04-2.59,1.55-4.37,1.55
			c-1.81,0-3.24-0.51-4.3-1.54C151.04,320.66,150.51,319.16,150.51,317.19z"/>
		<path d="M171.94,317.19v-9.48c0-1.99,0.56-3.5,1.68-4.53c1.12-1.03,2.59-1.54,4.42-1.54c1.77,0,3.19,0.51,4.25,1.54
			s1.6,2.54,1.6,4.53v9.48c0,1.95-0.56,3.45-1.69,4.48c-1.13,1.04-2.59,1.55-4.37,1.55c-1.81,0-3.24-0.51-4.3-1.54
			C172.47,320.66,171.94,319.16,171.94,317.19z M180.14,316.76v-8.44c0-1.08-0.18-1.9-0.55-2.46c-0.37-0.56-0.91-0.84-1.65-0.84
			c-0.79,0-1.37,0.27-1.72,0.82c-0.36,0.55-0.53,1.37-0.53,2.47v8.44c0,2.05,0.75,3.08,2.26,3.08c0.71,0,1.26-0.27,1.63-0.81
			C179.96,318.5,180.14,317.74,180.14,316.76z"/>
		<path d="M191.09,301.95v21.04h-3.72v-21.04H191.09z"/>
		<path d="M198.44,301.95v17.68h5.64v3.35h-9.39v-21.04H198.44z"/>
	</g>
</g>
<g id="ikon">
	<g>
		<g>
			<path class="st2" d="M134.19,137.01c15.42,0,29.9-1.76,40.77-4.96c0.62-0.18,1.23-0.37,1.82-0.56
				c-0.54-1.65-3.86-3.92-11.85-5.84c-8.2-1.98-19.11-3.07-30.74-3.07c-11.63,0-22.54,1.09-30.74,3.07
				c-7.98,1.93-11.3,4.19-11.85,5.84c0.59,0.19,1.19,0.38,1.82,0.56C104.29,135.25,118.77,137.01,134.19,137.01z"/>
			<path class="st2" d="M175.15,134.51c-11.03,3.25-25.66,5.04-41.21,5.06c-15.55-0.02-30.18-1.82-41.21-5.06
				c-5.47-1.61-9.78-3.5-12.81-5.61c-0.73-0.51-1.38-1.02-1.95-1.55c0,0,0.06,0.21,0.17,0.58c0.38,1.31,1.39,4.69,2.71,8.55
				c3.38,9.84,14.02,13.17,16.86,14.15c3.51,1.2,7.41,2.2,11.67,2.98c4.83,0.89,10.12,1.49,15.85,1.8c2.76,0.15,5.59,0.23,8.46,0.23
				c0.08,0,0.17,0,0.25,0c0.08,0,0.17,0,0.25,0c2.88,0,5.7-0.08,8.46-0.23c5.73-0.31,11.02-0.91,15.85-1.8
				c4.26-0.78,8.16-1.78,11.67-2.98c2.84-0.97,13.49-4.3,16.86-14.15c1.32-3.86,2.33-7.24,2.71-8.55c0.11-0.37,0.17-0.58,0.17-0.58
				c-0.57,0.53-1.22,1.04-1.95,1.55C184.93,131.02,180.61,132.91,175.15,134.51z"/>
			<path class="st2" d="M224.37,64.89c-0.3-0.27-0.65-0.51-1.04-0.71c-3.17-1.59-7.5-1.75-11.24,1.62l-6.34,5.97l-33.26,30.69
				c-0.77,0.83-1.35,1.4-2,2.6l-2.07,3.85c-9.52-2.33-21.38-3.71-34.24-3.71c-30.03,0-54.61,7.54-56.7,17.09
				c0.5,1.44,1.78,2.89,3.82,4.31c2.03,1.41,4.71,2.73,8,3.93c0.48-1.4,1.76-2.7,3.84-3.89c2.31-1.32,5.58-2.49,9.72-3.49
				c8.38-2.02,19.5-3.13,31.31-3.13c11.81,0,22.94,1.11,31.31,3.13c4.14,1,7.41,2.17,9.72,3.49c2.08,1.18,3.36,2.49,3.84,3.89
				c3.29-1.2,5.97-2.51,8-3.93c2.04-1.42,3.32-2.87,3.82-4.31c-0.7-3.2-3.93-6.18-9.04-8.72l2.38-4.13
				c0.13-0.22,0.97-1.21,1.64-1.89l37.91-35.15c0.6-0.58,1.05-1.2,1.39-1.82C226.22,68.73,225.99,66.35,224.37,64.89z M220.35,70.38
				c-0.85,0.81-3.1,3.09-3.99,3.93c-0.22,0.21-0.47,0.4-0.74,0.56c-1.29,0.78-2.97,0.94-4.12,0.3c-0.81-0.45-1.16-1.2-1.05-1.99
				c0.08-0.55,0.38-1.13,0.92-1.64c0.92-0.88,3.12-3.09,3.99-3.93c1.42-1.37,3.48-1.63,4.85-0.86
				C221.59,67.51,221.65,69.14,220.35,70.38z"/>
		</g>
		<g>
			<path class="st2" d="M135.67,127c-1.23-0.71-2.32,0.01-2.32,0.01c-7.18,17.45-20.69,30.07-28.86,46.88
				c-16.41,42.8,46.27,68.11,61.75,22.32C172.83,170.74,150.23,158.91,135.67,127z"/>
			<path class="st1" d="M135.53,221.82c-10.29,0-20.57-4.72-27.37-12.89c-8.14-9.78-9.86-22.38-4.84-35.48l0.04-0.1
				c3.81-7.83,8.81-14.83,13.64-21.61c5.59-7.83,11.37-15.92,15.19-25.21l0.15-0.36l0.32-0.21c0.65-0.43,2.14-0.92,3.64-0.05
				l0.35,0.2l0.17,0.36c5.26,11.53,11.61,20.45,17.21,28.32c9.93,13.95,17.77,24.97,13.43,41.73
				c-4.64,13.73-13.83,22.49-25.91,24.74C139.56,221.64,137.54,221.82,135.53,221.82z M105.64,174.4
				c-4.66,12.2-3.08,23.9,4.45,32.94c7.56,9.07,19.73,13.58,31,11.48c11.15-2.08,19.66-10.24,23.97-22.99
				c4.02-15.54-3.15-25.62-13.08-39.56c-5.59-7.86-11.93-16.77-17.24-28.29c-0.16-0.04-0.31-0.03-0.43,0
				c-3.93,9.35-9.69,17.43-15.27,25.24C114.28,159.87,109.35,166.77,105.64,174.4z"/>
		</g>
	</g>
</g>
</svg>
