<?xml version="1.0" encoding="utf-8"?>
<!-- Generator: Adobe Illustrator 25.4.1, SVG Export Plug-In . SVG Version: 6.00 Build 0)  -->
<svg version="1.1" xmlns="http://www.w3.org/2000/svg" xmlns:xlink="http://www.w3.org/1999/xlink" x="0px" y="0px"
	 viewBox="0 0 271.29 355.96" style="enable-background:new 0 0 271.29 355.96;" xml:space="preserve">
<style type="text/css">
	.st0{fill:#86BD40;}
	.st1{fill:#FFFFFF;}
</style>
<g id="bakgrund">
	<g>
		<rect x="1.1" y="1" class="st0" width="269.29" height="269.29"/>
		<path class="st0" d="M271.39,271.29H0.1V0h271.29V271.29z M2.1,269.29h267.29V2H2.1V269.29z"/>
	</g>
	<g>
		<rect x="1.1" y="269.92" class="st1" width="269.29" height="85.04"/>
		<path class="st0" d="M271.39,355.96H0.1v-87.04h271.29V355.96z M2.1,353.96h267.29v-83.04H2.1V353.96z"/>
	</g>
</g>
<g id="namn">
	<g>
		<path d="M101.02,310.7h4.88v3.38h-4.88v8.9h-3.75v-21.04h9.39v3.38h-5.64V310.7z"/>
		<path d="M113.16,318.9l-0.85,4.08h-3.9l5.4-21.04h3.66l5.37,21.04h-3.9l-0.85-4.08H113.16z M115.63,307.01l-1.77,8.54h3.54
			L115.63,307.01z"/>
		<path d="M136.66,316.89c0,2.13-0.44,3.68-1.31,4.65c-0.87,0.97-2.36,1.45-4.45,1.45h-5.7v-21.04h5.7c2.05,0,3.52,0.45,4.39,1.36
			c0.87,0.9,1.31,2.34,1.31,4.31c0,1.04-0.17,1.92-0.52,2.65s-0.93,1.29-1.77,1.68c0.91,0.41,1.53,1.01,1.86,1.8
			S136.66,315.59,136.66,316.89z M128.92,310.39h1.58c0.87,0,1.48-0.2,1.83-0.59c0.35-0.4,0.52-1.04,0.52-1.94
			c0-0.94-0.17-1.6-0.52-1.98c-0.34-0.39-0.96-0.58-1.83-0.58h-1.58V310.39z M132.91,316.61c0-1.06-0.19-1.82-0.56-2.29
			s-1-0.7-1.88-0.7h-1.55v6.01h1.55c0.93,0,1.58-0.23,1.92-0.69C132.74,318.49,132.91,317.71,132.91,316.61z"/>
		<path d="M143.77,314.54v8.44h-3.75v-21.04h5.73c2.07,0,3.54,0.5,4.41,1.49c0.86,1,1.3,2.59,1.3,4.79c0,1.4-0.19,2.57-0.58,3.51
			c-0.39,0.93-1.02,1.64-1.89,2.1l3.14,9.15h-3.9l-2.65-8.44H143.77z M145.72,311.19c0.75,0,1.27-0.25,1.55-0.75
			c0.29-0.5,0.43-1.24,0.43-2.21s-0.14-1.71-0.41-2.19c-0.27-0.49-0.8-0.73-1.57-0.73h-1.95v5.88H145.72z"/>
		<path d="M158.8,301.95v21.04h-3.72v-21.04H158.8z"/>
		<path d="M162.27,317.19v-9.48c0-1.99,0.56-3.5,1.68-4.53c1.12-1.03,2.59-1.54,4.42-1.54c1.75,0,3.16,0.51,4.24,1.52
			c1.08,1.02,1.62,2.56,1.62,4.63v0.64h-3.75v-0.61c0-0.96-0.2-1.66-0.59-2.12c-0.4-0.46-0.93-0.69-1.6-0.69
			c-0.79,0-1.37,0.27-1.72,0.82c-0.36,0.55-0.53,1.37-0.53,2.47v8.45c0,2.05,0.75,3.08,2.26,3.08c0.67,0,1.21-0.23,1.6-0.7
			c0.4-0.47,0.59-1.16,0.59-2.07v-0.55h3.72v0.58c0,2.03-0.56,3.56-1.69,4.59s-2.58,1.54-4.34,1.54c-1.81,0-3.24-0.51-4.3-1.54
			C162.8,320.66,162.27,319.16,162.27,317.19z"/>
	</g>
</g>
<g id="ikon">
	<g>
		<g>
			<g>
				<path class="st1" d="M158.89,58.6c-4.15,8.6-12.95,14.54-23.14,14.54c-10.19,0-19-5.94-23.14-14.54H50.15v44.17h34.24v109.91
					h102.75l-0.02-109.91h34.24V58.6H158.89z"/>
			</g>
		</g>
	</g>
</g>
</svg>
