<?xml version="1.0" encoding="utf-8"?>
<!-- Generator: Adobe Illustrator 25.4.1, SVG Export Plug-In . SVG Version: 6.00 Build 0)  -->
<svg version="1.1" xmlns="http://www.w3.org/2000/svg" xmlns:xlink="http://www.w3.org/1999/xlink" x="0px" y="0px"
	 viewBox="0 0 271.29 356.19" style="enable-background:new 0 0 271.29 356.19;" xml:space="preserve">
<style type="text/css">
	.st0{fill:#E40521;}
	.st1{fill:#FFFFFF;}
</style>
<g id="bakgrund">
	<g>
		<rect x="1" y="1" class="st0" width="269.29" height="269.29"/>
		<path class="st0" d="M271.29,271.29H0V0h271.29V271.29z M2,269.29h267.29V2H2V269.29z"/>
	</g>
	<rect x="1" y="270.15" class="st1" width="269.29" height="85.04"/>
	<path class="st0" d="M271.29,356.19H0v-87.04h271.29V356.19z M2,354.19h267.29v-83.04H2V354.19z"/>
</g>
<g id="namn">
	<g>
		<path d="M77.21,310.94h4.88v3.38h-4.88v8.9h-3.75v-21.04h9.39v3.38h-5.64V310.94z"/>
		<path d="M89.53,302.19v21.04h-3.72v-21.04H89.53z"/>
		<path d="M96.88,314.78v8.45h-3.75v-21.04h5.73c2.07,0,3.54,0.5,4.41,1.49c0.86,1,1.3,2.59,1.3,4.79c0,1.4-0.19,2.57-0.58,3.51
			c-0.39,0.93-1.02,1.64-1.89,2.1l3.14,9.15h-3.9l-2.65-8.45H96.88z M98.83,311.43c0.75,0,1.27-0.25,1.55-0.75
			c0.29-0.5,0.43-1.23,0.43-2.21s-0.14-1.71-0.41-2.2c-0.27-0.49-0.8-0.73-1.57-0.73h-1.95v5.88H98.83z"/>
		<path d="M111.79,310.85h4.88v3.35h-4.88v5.67h5.67v3.35h-9.39v-21.04h9.39v3.38h-5.67V310.85z"/>
		<path d="M135.75,323.23h-4.05l-2.29-12.93l-2.32,12.93h-4.02l-3.75-21.04h3.81l2.04,15.73l1.98-15.73h4.57l1.98,15.73l2.04-15.73
			h3.75L135.75,323.23z"/>
		<path d="M141.76,317.44v-9.48c0-1.99,0.56-3.5,1.68-4.53c1.12-1.03,2.59-1.54,4.42-1.54c1.77,0,3.19,0.51,4.25,1.54
			s1.6,2.54,1.6,4.53v9.48c0,1.95-0.56,3.45-1.69,4.48c-1.13,1.04-2.59,1.55-4.37,1.55c-1.81,0-3.24-0.51-4.3-1.54
			C142.29,320.91,141.76,319.41,141.76,317.44z M149.96,317.01v-8.44c0-1.08-0.18-1.9-0.55-2.46c-0.37-0.56-0.91-0.84-1.65-0.84
			c-0.79,0-1.37,0.27-1.72,0.82c-0.36,0.55-0.53,1.37-0.53,2.47v8.44c0,2.05,0.75,3.08,2.26,3.08c0.71,0,1.26-0.27,1.63-0.81
			C149.77,318.74,149.96,317.99,149.96,317.01z"/>
		<path d="M160.81,314.78v8.45h-3.75v-21.04h5.73c2.07,0,3.54,0.5,4.41,1.49c0.86,1,1.3,2.59,1.3,4.79c0,1.4-0.19,2.57-0.58,3.51
			s-1.02,1.64-1.89,2.1l3.14,9.15h-3.9l-2.65-8.45H160.81z M162.77,311.43c0.75,0,1.27-0.25,1.55-0.75c0.29-0.5,0.43-1.23,0.43-2.21
			s-0.14-1.71-0.41-2.2c-0.27-0.49-0.8-0.73-1.57-0.73h-1.95v5.88H162.77z"/>
		<path d="M175.72,318.47v4.76H172v-21.04h3.72v9.91l4.48-9.91h3.75l-4.39,8.66l5.06,12.38h-3.99l-3.2-8.14L175.72,318.47z"/>
		<path d="M186.24,317.22h3.54c0.04,1.04,0.25,1.8,0.62,2.29c0.38,0.49,0.93,0.73,1.66,0.73s1.27-0.22,1.6-0.67
			c0.33-0.45,0.5-1.16,0.5-2.13c0-0.81-0.19-1.46-0.56-1.94c-0.38-0.48-1.01-0.92-1.91-1.33l-1.43-0.64
			c-1.36-0.61-2.34-1.36-2.94-2.26s-0.9-2.09-0.9-3.6c0-1.77,0.51-3.18,1.54-4.24s2.41-1.59,4.16-1.59c1.73,0,3.06,0.52,4.01,1.57
			c0.94,1.05,1.45,2.56,1.51,4.53h-3.45c-0.02-0.96-0.19-1.67-0.5-2.15c-0.31-0.48-0.84-0.72-1.57-0.72c-1.36,0-2.04,0.8-2.04,2.41
			c0,0.73,0.17,1.32,0.5,1.75c0.33,0.44,0.9,0.83,1.69,1.17l1.37,0.61c1.46,0.65,2.53,1.46,3.19,2.44c0.66,0.98,0.99,2.28,0.99,3.9
			c0,1.95-0.51,3.46-1.52,4.51c-1.02,1.06-2.46,1.58-4.33,1.58c-1.85,0-3.26-0.54-4.24-1.62S186.26,319.24,186.24,317.22z"/>
	</g>
</g>
<g id="ikon">
	<g>
		<path class="st1" d="M230.95,64.97c-0.15-0.2-0.39-0.3-0.62-0.26l-19.87,1.74L223.21,84l7.81-18.4
			C231.1,65.4,231.08,65.16,230.95,64.97z"/>
		<g>
			<path class="st1" d="M120.73,120.36l0.04,9.62c0.9,0.07,1.81,0.06,2.73-0.02l-0.04-9.64
				C122.54,120.53,121.62,120.53,120.73,120.36z"/>
			<path class="st1" d="M123.4,106.99l-0.04-9.63c-0.9-0.08-1.81-0.08-2.73,0l0.04,9.62C121.6,106.8,122.52,106.81,123.4,106.99z"/>
			<path class="st1" d="M115.33,112.31l-9.63,0.04c-0.07,0.9-0.07,1.81,0.01,2.73l9.62-0.04
				C115.15,114.12,115.15,113.19,115.33,112.31z"/>
			<path class="st1" d="M125.84,119.31l6.83,6.77c0.69-0.6,1.33-1.25,1.91-1.94l-6.84-6.78
				C127.25,118.12,126.61,118.78,125.84,119.31z"/>
			<path class="st1" d="M118.28,107.97l-6.84-6.78c-0.7,0.59-1.34,1.24-1.92,1.93l6.83,6.77
				C116.84,109.13,117.49,108.48,118.28,107.97z"/>
			<path class="st1" d="M127.71,109.92l7.52-5.91c-0.54-0.74-1.14-1.43-1.79-2.06l-7.58,5.95l0.24,0.3
				C126.72,108.67,127.27,109.25,127.71,109.92z"/>
			<path class="st1" d="M116.36,117.47l-6.78,6.83c0.6,0.7,1.25,1.34,1.94,1.92l6.78-6.84
				C117.54,118.89,116.88,118.24,116.36,117.47z"/>
		</g>
		<path class="st1" d="M208.19,67.97l-52.12,37.87l1.56,2.14c-2.82,2.05-6.62,3.34-11.62,3.96c-4.52,0.56-9.4,0.5-14.12,0.45
			c-1.1-0.01-2.16-0.03-3.2-0.03c0.08,0.42,0.13,0.86,0.13,1.3c0,0.49-0.05,0.97-0.15,1.42c1.04,0,2.09,0.02,3.19,0.03
			c1.4,0.02,2.83,0.03,4.27,0.03c8.32,0,17.04-0.56,23.1-4.96l1.52,2.09L40.22,199.85v6.74l123.73-89.91l4.94,6.8l52.12-37.87
			L208.19,67.97z"/>
	</g>
</g>
</svg>
