<?xml version="1.0" encoding="utf-8"?>
<!-- Generator: Adobe Illustrator 25.4.1, SVG Export Plug-In . SVG Version: 6.00 Build 0)  -->
<svg version="1.1" xmlns="http://www.w3.org/2000/svg" xmlns:xlink="http://www.w3.org/1999/xlink" x="0px" y="0px"
	 viewBox="0 0 271.29 356.19" style="enable-background:new 0 0 271.29 356.19;" xml:space="preserve">
<style type="text/css">
	.st0{fill:#F18700;}
	.st1{fill:#FFFFFF;}
</style>
<g id="bakgrund">
	<g>
		<rect x="1" y="1" class="st0" width="269.29" height="269.29"/>
		<path class="st0" d="M271.29,271.29H0V0h271.29V271.29z M2,269.29h267.29V2H2V269.29z"/>
	</g>
	<rect x="1" y="270.15" class="st1" width="269.29" height="85.04"/>
	<path class="st0" d="M271.29,356.19H0v-87.04h271.29V356.19z M2,354.19h267.29v-83.04H2V354.19z"/>
</g>
<g id="namn">
	<g>
		<path d="M68.97,310.94h4.88v3.38h-4.88v8.9h-3.75v-21.04h9.39v3.38h-5.64V310.94z"/>
		<path d="M81.28,302.19v21.04h-3.72v-21.04H81.28z"/>
		<path d="M88.63,314.78v8.44h-3.75v-21.04h5.73c2.07,0,3.54,0.5,4.41,1.49c0.86,1,1.3,2.59,1.3,4.79c0,1.4-0.19,2.57-0.58,3.51
			c-0.39,0.93-1.02,1.64-1.89,2.1l3.14,9.15h-3.9l-2.65-8.44H88.63z M90.58,311.43c0.75,0,1.27-0.25,1.55-0.75
			c0.29-0.5,0.43-1.24,0.43-2.21s-0.14-1.71-0.41-2.19c-0.27-0.49-0.8-0.73-1.57-0.73h-1.95v5.88H90.58z"/>
		<path d="M103.54,310.85h4.88v3.35h-4.88v5.67h5.67v3.35h-9.39v-21.04h9.39v3.38h-5.67V310.85z"/>
		<path d="M122.08,319.14l-0.85,4.08h-3.9l5.4-21.04h3.66l5.37,21.04h-3.9l-0.85-4.08H122.08z M124.55,307.25l-1.77,8.54h3.54
			L124.55,307.25z"/>
		<path d="M137.87,302.19v17.68h5.64v3.35h-9.39v-21.04H137.87z"/>
		<path d="M149.88,319.14l-0.85,4.08h-3.9l5.4-21.04h3.66l5.37,21.04h-3.9l-0.85-4.08H149.88z M152.35,307.25l-1.77,8.54h3.54
			L152.35,307.25z"/>
		<path d="M165.68,314.78v8.44h-3.75v-21.04h5.73c2.07,0,3.54,0.5,4.41,1.49c0.86,1,1.3,2.59,1.3,4.79c0,1.4-0.19,2.57-0.58,3.51
			c-0.39,0.93-1.02,1.64-1.89,2.1l3.14,9.15h-3.9l-2.65-8.44H165.68z M167.63,311.43c0.75,0,1.27-0.25,1.55-0.75
			c0.29-0.5,0.43-1.24,0.43-2.21s-0.14-1.71-0.41-2.19c-0.27-0.49-0.8-0.73-1.57-0.73h-1.95v5.88H167.63z"/>
		<path d="M191.71,323.23h-3.75v-12.32l-2.68,8.23h-2.01l-2.65-8.14v12.22h-3.75v-21.04h3.75l3.66,11.1l3.69-11.1h3.75V323.23z"/>
		<path d="M194.49,317.22h3.54c0.04,1.04,0.25,1.8,0.62,2.29c0.38,0.49,0.93,0.73,1.66,0.73s1.27-0.22,1.6-0.67s0.5-1.16,0.5-2.13
			c0-0.81-0.19-1.46-0.56-1.94c-0.38-0.48-1.01-0.92-1.91-1.33l-1.43-0.64c-1.36-0.61-2.34-1.36-2.94-2.26
			c-0.6-0.89-0.9-2.09-0.9-3.6c0-1.77,0.51-3.18,1.54-4.24c1.03-1.06,2.41-1.58,4.16-1.58c1.73,0,3.06,0.52,4.01,1.57
			c0.94,1.05,1.45,2.56,1.51,4.53h-3.45c-0.02-0.96-0.19-1.67-0.5-2.15c-0.31-0.48-0.84-0.72-1.57-0.72c-1.36,0-2.04,0.8-2.04,2.41
			c0,0.73,0.17,1.32,0.5,1.75c0.33,0.44,0.9,0.83,1.69,1.17l1.37,0.61c1.46,0.65,2.53,1.46,3.19,2.44c0.66,0.98,0.99,2.28,0.99,3.9
			c0,1.95-0.51,3.46-1.52,4.51c-1.02,1.06-2.46,1.58-4.33,1.58c-1.85,0-3.26-0.54-4.24-1.62S194.51,319.24,194.49,317.22z"/>
	</g>
</g>
<g id="ikon">
	<path class="st1" d="M135.65,46.36c-49.23,0-89.29,40.05-89.29,89.29c0,49.23,40.05,89.29,89.29,89.29
		c49.23,0,89.29-40.05,89.29-89.29C224.93,86.41,184.88,46.36,135.65,46.36z M77.61,135.65c0-8.51,1.84-16.6,5.15-23.89l7.85,4.3
		c-0.07,0.16-0.14,0.31-0.21,0.47c-2.56,6.06-3.86,12.49-3.86,19.12s1.3,13.06,3.86,19.12c0.07,0.16,0.14,0.31,0.21,0.47l-7.85,4.3
		C79.45,152.24,77.61,144.16,77.61,135.65z M131.18,193.51c-18.45-1.41-34.52-11.49-44.12-26.16l7.84-4.29
		c1.76,2.61,3.77,5.05,6.03,7.31c4.51,4.51,9.76,8.05,15.61,10.52c4.69,1.98,9.6,3.21,14.65,3.66V193.51z M102.42,148.76l-7.88,4.32
		c-2.27-5.36-3.53-11.25-3.53-17.43s1.26-12.08,3.53-17.43l7.88,4.32c-1.6,4.06-2.48,8.48-2.48,13.11S100.81,144.7,102.42,148.76z
		 M131.18,180.07c-13.42-1.33-25.09-8.61-32.35-19.16l7.88-4.32c5.67,7.81,14.42,13.24,24.47,14.5V180.07z M131.18,100.21
		c-10.05,1.25-18.8,6.68-24.47,14.5l-7.88-4.32c7.25-10.55,18.93-17.83,32.35-19.16V100.21z M131.18,86.74
		c-5.05,0.45-9.97,1.68-14.65,3.66c-5.85,2.47-11.1,6.01-15.61,10.52c-2.26,2.26-4.27,4.7-6.03,7.31l-7.83-4.29
		c9.61-14.67,25.67-24.75,44.12-26.16V86.74z M140.11,77.78c18.45,1.41,34.52,11.49,44.12,26.16l-7.83,4.29
		c-1.76-2.61-3.77-5.05-6.03-7.31c-4.51-4.51-9.76-8.05-15.61-10.52c-4.69-1.98-9.6-3.21-14.65-3.66V77.78z M168.88,122.53
		l7.88-4.32c2.27,5.36,3.53,11.25,3.53,17.43s-1.26,12.08-3.53,17.43l-7.88-4.32c1.6-4.06,2.48-8.48,2.48-13.11
		S170.48,126.59,168.88,122.53z M140.11,91.22c13.42,1.33,25.09,8.61,32.35,19.16l-7.88,4.32c-5.67-7.81-14.42-13.24-24.47-14.5
		V91.22z M140.11,171.08c10.05-1.25,18.8-6.68,24.47-14.5l7.88,4.32c-7.25,10.55-18.93,17.83-32.35,19.16V171.08z M140.11,193.51
		v-8.96c5.05-0.45,9.96-1.68,14.65-3.66c5.85-2.47,11.1-6.01,15.61-10.52c2.26-2.26,4.27-4.7,6.03-7.31l7.83,4.29
		C174.63,182.02,158.56,192.1,140.11,193.51z M180.69,155.23c0.07-0.16,0.14-0.31,0.21-0.47c2.56-6.06,3.86-12.49,3.86-19.12
		s-1.3-13.06-3.86-19.12c-0.07-0.16-0.14-0.31-0.21-0.47l7.85-4.3c3.3,7.29,5.15,15.38,5.15,23.89c0,8.51-1.84,16.6-5.15,23.89
		L180.69,155.23z M199.91,177.52c-3.7,0-6.7-3-6.7-6.7c0-3.7,3-6.7,6.7-6.7c3.7,0,6.7,3,6.7,6.7
		C206.61,174.52,203.61,177.52,199.91,177.52z"/>
</g>
</svg>
