<?xml version="1.0" encoding="utf-8"?>
<!-- Generator: Adobe Illustrator 25.4.1, SVG Export Plug-In . SVG Version: 6.00 Build 0)  -->
<svg version="1.1" xmlns="http://www.w3.org/2000/svg" xmlns:xlink="http://www.w3.org/1999/xlink" x="0px" y="0px"
	 viewBox="0 0 271.29 355.96" style="enable-background:new 0 0 271.29 355.96;" xml:space="preserve">
<style type="text/css">
	.st0{fill:#06682D;}
	.st1{fill:#FFFFFF;}
</style>
<g id="bakgrund">
	<g>
		<rect x="1" y="1" class="st0" width="269.29" height="269.29"/>
		<path class="st0" d="M271.29,271.29H0V0h271.29V271.29z M2,269.29h267.29V2H2V269.29z"/>
	</g>
	<g>
		<rect x="1.01" y="269.92" class="st1" width="269.29" height="85.04"/>
		<path class="st0" d="M271.31,355.96H0.01v-87.04h271.29V355.96z M2.01,353.96h267.29v-83.04H2.01V353.96z"/>
	</g>
</g>
<g id="namn">
	<g>
		<path d="M45.24,317.18v-9.48c0-1.99,0.56-3.5,1.68-4.53c1.12-1.03,2.59-1.54,4.42-1.54c1.75,0,3.16,0.5,4.24,1.49
			c1.08,1,1.62,2.47,1.62,4.42v0.64h-3.75v-0.64c0-0.81-0.2-1.44-0.61-1.88c-0.41-0.44-0.94-0.66-1.59-0.66
			c-0.79,0-1.37,0.27-1.72,0.82c-0.36,0.55-0.53,1.37-0.53,2.47v8.44c0,2.05,0.75,3.08,2.26,3.08c0.73,0,1.28-0.25,1.65-0.75
			c0.37-0.5,0.55-1.21,0.55-2.15v-2.23h-2.23v-2.96h5.98v5.43c0,1.95-0.56,3.45-1.69,4.48c-1.13,1.04-2.59,1.55-4.37,1.55
			c-1.81,0-3.24-0.51-4.3-1.54C45.77,320.65,45.24,319.15,45.24,317.18z"/>
		<path d="M64.3,314.52v8.45h-3.75v-21.04h5.73c2.07,0,3.54,0.5,4.41,1.49c0.86,1,1.3,2.59,1.3,4.79c0,1.4-0.19,2.57-0.58,3.51
			s-1.02,1.64-1.89,2.1l3.14,9.15h-3.9l-2.65-8.45H64.3z M66.25,311.17c0.75,0,1.27-0.25,1.55-0.75c0.29-0.5,0.43-1.23,0.43-2.21
			s-0.14-1.71-0.41-2.2c-0.27-0.49-0.8-0.73-1.57-0.73H64.3v5.88H66.25z"/>
		<path d="M79.15,318.88l-0.85,4.09h-3.9l5.4-21.04h3.66l5.37,21.04h-3.9l-0.85-4.09H79.15z M81.62,306.99l-1.77,8.54h3.54
			L81.62,306.99z"/>
		<path d="M90.49,316.96h3.54c0.04,1.04,0.25,1.8,0.62,2.29c0.38,0.49,0.93,0.73,1.66,0.73s1.27-0.22,1.6-0.67
			c0.33-0.45,0.5-1.16,0.5-2.13c0-0.81-0.19-1.46-0.56-1.94c-0.38-0.48-1.01-0.92-1.91-1.33l-1.43-0.64
			c-1.36-0.61-2.34-1.36-2.94-2.26s-0.9-2.09-0.9-3.6c0-1.77,0.51-3.18,1.54-4.24s2.41-1.59,4.16-1.59c1.73,0,3.06,0.52,4.01,1.57
			c0.94,1.05,1.45,2.56,1.51,4.53h-3.45c-0.02-0.96-0.19-1.67-0.5-2.15c-0.31-0.48-0.84-0.72-1.57-0.72c-1.36,0-2.04,0.8-2.04,2.41
			c0,0.73,0.17,1.32,0.5,1.75c0.33,0.44,0.9,0.83,1.69,1.17l1.37,0.61c1.46,0.65,2.53,1.46,3.19,2.44c0.66,0.98,0.99,2.28,0.99,3.9
			c0,1.95-0.51,3.46-1.52,4.51c-1.02,1.06-2.46,1.58-4.33,1.58c-1.85,0-3.26-0.54-4.24-1.62S90.51,318.98,90.49,316.96z"/>
		<path d="M104.39,316.96h3.54c0.04,1.04,0.25,1.8,0.62,2.29c0.38,0.49,0.93,0.73,1.66,0.73s1.27-0.22,1.6-0.67
			c0.33-0.45,0.5-1.16,0.5-2.13c0-0.81-0.19-1.46-0.56-1.94c-0.38-0.48-1.01-0.92-1.91-1.33l-1.43-0.64
			c-1.36-0.61-2.34-1.36-2.94-2.26s-0.9-2.09-0.9-3.6c0-1.77,0.51-3.18,1.54-4.24s2.41-1.59,4.16-1.59c1.73,0,3.06,0.52,4.01,1.57
			c0.94,1.05,1.45,2.56,1.51,4.53h-3.45c-0.02-0.96-0.19-1.67-0.5-2.15c-0.31-0.48-0.84-0.72-1.57-0.72c-1.36,0-2.04,0.8-2.04,2.41
			c0,0.73,0.17,1.32,0.5,1.75c0.33,0.44,0.9,0.83,1.69,1.17l1.37,0.61c1.46,0.65,2.53,1.46,3.19,2.44c0.66,0.98,0.99,2.28,0.99,3.9
			c0,1.95-0.51,3.46-1.52,4.51c-1.02,1.06-2.46,1.58-4.33,1.58c-1.85,0-3.26-0.54-4.24-1.62S104.41,318.98,104.39,316.96z"/>
		<path d="M138.08,319.89h0.37v3.08h-1.46c-0.67,0-1.18-0.12-1.54-0.37s-0.75-0.7-1.17-1.37c-0.57,0.73-1.21,1.25-1.92,1.57
			c-0.71,0.32-1.53,0.47-2.47,0.47c-1.42,0-2.57-0.45-3.44-1.34c-0.87-0.89-1.31-2.08-1.31-3.57c0-1.06,0.26-2.1,0.78-3.12
			c0.52-1.03,1.39-2.19,2.61-3.49c-0.79-1.3-1.36-2.34-1.69-3.12c-0.33-0.78-0.5-1.57-0.5-2.36c0-1.38,0.44-2.5,1.31-3.35
			s2.01-1.28,3.42-1.28c1.38,0,2.51,0.43,3.38,1.28s1.31,1.97,1.31,3.35c0,0.89-0.23,1.81-0.7,2.74c-0.47,0.93-1.25,1.99-2.35,3.17
			l1.86,3.11l1.4-2.26l2.53,1.74l-2.2,3.41l0.55,0.92c0.16,0.28,0.34,0.49,0.53,0.61C137.56,319.83,137.8,319.89,138.08,319.89z
			 M132.6,318.46l-2.35-3.84c-0.59,0.67-1,1.26-1.23,1.78c-0.23,0.52-0.35,1.05-0.35,1.6c0,0.65,0.15,1.15,0.44,1.49
			c0.29,0.35,0.7,0.52,1.2,0.52c0.41,0,0.78-0.11,1.13-0.34C131.78,319.45,132.17,319.05,132.6,318.46z M129.7,306.08
			c0,0.37,0.09,0.79,0.26,1.26c0.17,0.48,0.49,1.11,0.96,1.91c0.57-0.65,0.95-1.2,1.14-1.66c0.19-0.46,0.29-0.96,0.29-1.51
			c0-0.55-0.12-0.97-0.35-1.25c-0.23-0.29-0.55-0.43-0.96-0.43c-0.43,0-0.76,0.15-0.99,0.44S129.7,305.55,129.7,306.08z"/>
		<path d="M151.83,301.93v17.68h5.64v3.35h-9.39v-21.04H151.83z"/>
		<path d="M163.91,310.59h4.88v3.35h-4.88v5.67h5.67v3.35h-9.39v-21.04h9.39v3.38h-5.67V310.59z"/>
		<path d="M176.19,318.88l-0.85,4.09h-3.9l5.4-21.04h3.66l5.37,21.04h-3.9l-0.85-4.09H176.19z M178.66,306.99l-1.77,8.54h3.54
			L178.66,306.99z"/>
		<path d="M191.26,301.93l2.53,15.73l2.56-15.73h4.12l-4.73,21.04h-3.87l-4.73-21.04H191.26z"/>
		<path d="M206.56,310.59h4.88v3.35h-4.88v5.67h5.67v3.35h-9.39v-21.04h9.39v3.38h-5.67V310.59z"/>
		<path d="M214.49,316.96h3.54c0.04,1.04,0.25,1.8,0.62,2.29c0.38,0.49,0.93,0.73,1.66,0.73s1.27-0.22,1.6-0.67
			c0.33-0.45,0.5-1.16,0.5-2.13c0-0.81-0.19-1.46-0.56-1.94c-0.38-0.48-1.01-0.92-1.91-1.33l-1.43-0.64
			c-1.36-0.61-2.34-1.36-2.94-2.26s-0.9-2.09-0.9-3.6c0-1.77,0.51-3.18,1.54-4.24s2.41-1.59,4.16-1.59c1.73,0,3.06,0.52,4.01,1.57
			c0.94,1.05,1.45,2.56,1.51,4.53h-3.45c-0.02-0.96-0.19-1.67-0.5-2.15c-0.31-0.48-0.84-0.72-1.57-0.72c-1.36,0-2.04,0.8-2.04,2.41
			c0,0.73,0.17,1.32,0.5,1.75c0.33,0.44,0.9,0.83,1.69,1.17l1.37,0.61c1.46,0.65,2.53,1.46,3.19,2.44c0.66,0.98,0.99,2.28,0.99,3.9
			c0,1.95-0.51,3.46-1.52,4.51c-1.02,1.06-2.46,1.58-4.33,1.58c-1.85,0-3.26-0.54-4.24-1.62S214.51,318.98,214.49,316.96z"/>
	</g>
</g>
<g id="ikon">
	<g>
		<path class="st1" d="M87.31,26.26c0,0,81.08,121.39,86.06,218.77h22.65C196.01,245.03,144.15,83.11,87.31,26.26z"/>
		<path class="st1" d="M201.59,56.2c0,0-69.98,104.77-74.28,188.83h-19.55C107.76,245.03,152.53,105.27,201.59,56.2z"/>
		<path class="st1" d="M221.29,150.6c0,0-35,52.4-37.15,94.43h-9.78C174.37,245.03,196.76,175.14,221.29,150.6z"/>
		<path class="st1" d="M207.65,111.1c0,0-49.63,74.31-52.68,133.93H141.1C141.1,245.03,172.85,145.9,207.65,111.1z"/>
		<path class="st1" d="M41.32,86.56c0,0,58.73,87.93,62.34,158.46h16.4C120.06,245.03,82.49,127.74,41.32,86.56z"/>
	</g>
</g>
</svg>
