<?xml version="1.0" encoding="utf-8"?>
<!-- Generator: Adobe Illustrator 25.4.1, SVG Export Plug-In . SVG Version: 6.00 Build 0)  -->
<svg version="1.1" xmlns="http://www.w3.org/2000/svg" xmlns:xlink="http://www.w3.org/1999/xlink" x="0px" y="0px"
	 viewBox="0 0 271.29 356.19" style="enable-background:new 0 0 271.29 356.19;" xml:space="preserve">
<style type="text/css">
	.st0{fill:#962A86;}
	.st1{fill:#FFFFFF;}
</style>
<g id="bakgrund">
	<g>
		<rect x="1" y="1" class="st0" width="269.29" height="269.29"/>
		<path class="st0" d="M271.29,271.29H0V0h271.29V271.29z M2,269.29h267.29V2H2V269.29z"/>
	</g>
	<rect x="1" y="270.15" class="st1" width="269.29" height="85.04"/>
	<path class="st0" d="M271.29,356.19H0v-87.04h271.29V356.19z M2,354.19h267.29v-83.04H2V354.19z"/>
</g>
<g id="namn">
	<g>
		<path d="M93.32,323.21h-3.75v-9.02h-3.96v9.02h-3.75v-21.04h3.75v8.66h3.96v-8.66h3.75V323.21z"/>
		<path d="M100.46,319.13l-0.85,4.09h-3.9l5.4-21.04h3.66l5.37,21.04h-3.9l-0.85-4.09H100.46z M102.93,307.24l-1.77,8.54h3.54
			L102.93,307.24z"/>
		<path d="M116.25,314.77v8.45h-3.75v-21.04h5.73c2.07,0,3.54,0.5,4.41,1.49c0.86,1,1.3,2.59,1.3,4.79c0,1.4-0.19,2.57-0.58,3.51
			c-0.39,0.93-1.02,1.64-1.89,2.1l3.14,9.15h-3.9l-2.65-8.45H116.25z M118.2,311.42c0.75,0,1.27-0.25,1.55-0.75
			c0.29-0.5,0.43-1.23,0.43-2.21s-0.14-1.71-0.41-2.2c-0.27-0.49-0.8-0.73-1.57-0.73h-1.95v5.88H118.2z"/>
		<path d="M133.26,302.18c1.77,0,3.19,0.51,4.25,1.52c1.07,1.02,1.6,2.52,1.6,4.51v8.96c0,1.97-0.56,3.47-1.68,4.5
			c-1.12,1.03-2.57,1.54-4.36,1.54h-5.64v-21.04H133.26z M134.8,319.04c0.38-0.55,0.56-1.31,0.56-2.29v-7.9
			c0-1.08-0.18-1.9-0.55-2.45c-0.37-0.56-0.91-0.84-1.65-0.84h-2.01v14.3h2.01C133.88,319.86,134.43,319.59,134.8,319.04z"/>
		<path d="M160.15,308.79c0,2.24-0.45,3.9-1.36,5s-2.37,1.65-4.41,1.65h-1.95v7.77h-3.72v-21.04h5.67c2.07,0,3.55,0.55,4.44,1.65
			C159.71,304.92,160.15,306.58,160.15,308.79z M156.4,308.79c0-1.12-0.16-1.94-0.47-2.47c-0.31-0.53-0.87-0.79-1.66-0.79h-1.83
			v6.52h1.83c0.79,0,1.35-0.26,1.66-0.79C156.25,310.73,156.4,309.91,156.4,308.79z"/>
		<path d="M165.89,302.18l2.53,15.73l2.56-15.73h4.12l-4.73,21.04h-3.87l-4.73-21.04H165.89z"/>
		<path d="M177.35,317.42v-9.48c0-1.99,0.56-3.5,1.68-4.53s2.59-1.54,4.42-1.54c1.75,0,3.16,0.51,4.24,1.52
			c1.08,1.02,1.62,2.56,1.62,4.63v0.64h-3.75v-0.61c0-0.96-0.2-1.66-0.59-2.12c-0.4-0.46-0.93-0.69-1.6-0.69
			c-0.79,0-1.37,0.27-1.72,0.82c-0.36,0.55-0.54,1.37-0.54,2.47v8.44c0,2.05,0.75,3.08,2.26,3.08c0.67,0,1.21-0.23,1.6-0.7
			s0.59-1.16,0.59-2.07v-0.55h3.72v0.58c0,2.03-0.56,3.56-1.69,4.59c-1.13,1.03-2.58,1.54-4.34,1.54c-1.81,0-3.24-0.51-4.3-1.54
			S177.35,319.39,177.35,317.42z"/>
	</g>
</g>
<g id="ikon">
	<g>
		<polygon class="st1" points="159.36,131.08 159.36,104.49 111.81,104.49 111.81,131.08 117.7,140.09 54.13,140.09 54.13,182.55 
			193.38,182.55 193.38,140.09 153.92,140.09 		"/>
		<polygon class="st1" points="166.15,87.43 159.36,87.43 159.36,81.95 111.81,81.95 111.81,87.43 105.01,87.43 105.01,101.02 
			166.15,101.02 		"/>
		<polygon class="st1" points="210.25,140.09 210.25,133.3 196.78,133.3 196.78,189.34 210.25,189.34 210.25,182.55 217.16,182.55 
			217.16,140.09 		"/>
	</g>
</g>
</svg>
