<?xml version="1.0" encoding="utf-8"?>
<!-- Generator: Adobe Illustrator 25.4.1, SVG Export Plug-In . SVG Version: 6.00 Build 0)  -->
<svg version="1.1" xmlns="http://www.w3.org/2000/svg" xmlns:xlink="http://www.w3.org/1999/xlink" x="0px" y="0px"
	 viewBox="0 0 271.29 356.19" style="enable-background:new 0 0 271.29 356.19;" xml:space="preserve">
<style type="text/css">
	.st0{fill:#E40521;}
	.st1{fill:#FFFFFF;}
</style>
<g id="bakgrund">
	<g>
		<rect x="1" y="1" class="st0" width="269.29" height="269.29"/>
		<path class="st0" d="M271.29,271.29H0V0h271.29V271.29z M2,269.29h267.29V2H2V269.29z"/>
	</g>
	<rect x="1" y="270.15" class="st1" width="269.29" height="85.04"/>
	<path class="st0" d="M271.29,356.19H0v-87.04h271.29V356.19z M2,354.19h267.29v-83.04H2V354.19z"/>
</g>
<g id="namn">
	<g>
		<path d="M21.2,302.18v21.04h-3.72v-21.04H21.2z"/>
		<path d="M39.65,323.21H35.9V310.9l-2.68,8.23H31.2l-2.65-8.14v12.22H24.8v-21.04h3.75l3.66,11.1l3.69-11.1h3.75V323.21z"/>
		<path d="M54.56,308.79c0,2.24-0.45,3.9-1.36,5s-2.37,1.65-4.41,1.65h-1.95v7.77h-3.72v-21.04h5.67c2.07,0,3.55,0.55,4.44,1.65
			C54.12,304.92,54.56,306.58,54.56,308.79z M50.81,308.79c0-1.12-0.16-1.94-0.47-2.47c-0.31-0.53-0.87-0.79-1.66-0.79h-1.83v6.52
			h1.83c0.79,0,1.35-0.26,1.66-0.79C50.65,310.73,50.81,309.91,50.81,308.79z"/>
		<path d="M61.02,314.77v8.44h-3.75v-21.04H63c2.07,0,3.54,0.5,4.41,1.49c0.86,1,1.3,2.59,1.3,4.79c0,1.4-0.19,2.57-0.58,3.51
			c-0.39,0.93-1.02,1.64-1.89,2.1l3.14,9.15h-3.9l-2.65-8.44H61.02z M62.97,311.42c0.75,0,1.27-0.25,1.55-0.75
			c0.29-0.5,0.43-1.24,0.43-2.21s-0.14-1.71-0.41-2.19c-0.27-0.49-0.8-0.73-1.57-0.73h-1.95v5.88H62.97z"/>
		<path d="M75.93,310.84h4.88v3.35h-4.88v5.67h5.67v3.35h-9.39v-21.04h9.39v3.38h-5.67V310.84z"/>
		<path d="M84.44,317.42v-9.48c0-1.99,0.56-3.5,1.68-4.53c1.12-1.03,2.59-1.54,4.42-1.54c1.75,0,3.16,0.5,4.24,1.49
			c1.08,1,1.62,2.47,1.62,4.42v0.64h-3.75v-0.64c0-0.81-0.2-1.44-0.61-1.88c-0.41-0.44-0.94-0.66-1.59-0.66
			c-0.79,0-1.37,0.27-1.72,0.82c-0.36,0.55-0.53,1.37-0.53,2.47V317c0,2.05,0.75,3.08,2.26,3.08c0.73,0,1.28-0.25,1.65-0.75
			c0.37-0.5,0.55-1.21,0.55-2.15v-2.23h-2.23V312h5.98v5.43c0,1.95-0.56,3.44-1.69,4.48c-1.13,1.04-2.59,1.55-4.37,1.55
			c-1.81,0-3.24-0.51-4.3-1.54C84.97,320.89,84.44,319.39,84.44,317.42z"/>
		<path d="M111.63,323.21h-3.75L103.49,312v11.22h-3.75v-21.04h3.75l4.39,11.71v-11.71h3.75V323.21z"/>
		<path d="M118.77,319.13l-0.85,4.08h-3.9l5.4-21.04h3.66l5.37,21.04h-3.9l-0.85-4.08H118.77z M121.24,307.24l-1.77,8.54h3.54
			L121.24,307.24z"/>
		<path d="M137.03,305.56v17.65h-3.72v-17.65h-3.66v-3.38h11.01v3.38H137.03z"/>
		<path d="M146.7,310.84h4.88v3.35h-4.88v5.67h5.67v3.35h-9.39v-21.04h9.39v3.38h-5.67V310.84z"/>
		<path d="M161.15,302.18c1.77,0,3.19,0.51,4.25,1.52c1.07,1.02,1.6,2.52,1.6,4.51v8.96c0,1.97-0.56,3.47-1.68,4.5
			s-2.57,1.54-4.36,1.54h-5.64v-21.04H161.15z M162.69,319.04c0.38-0.55,0.56-1.31,0.56-2.29v-7.9c0-1.08-0.18-1.9-0.55-2.45
			c-0.37-0.56-0.91-0.84-1.65-0.84h-2.01v14.3h2.01C161.77,319.86,162.31,319.59,162.69,319.04z"/>
		<path d="M182.83,305.56v17.65h-3.72v-17.65h-3.66v-3.38h11.01v3.38H182.83z"/>
		<path d="M192.62,302.18v21.04h-3.72v-21.04H192.62z"/>
		<path d="M211.06,323.21h-3.75V310.9l-2.68,8.23h-2.01l-2.65-8.14v12.22h-3.75v-21.04h3.75l3.66,11.1l3.69-11.1h3.75V323.21z"/>
		<path d="M226,317.12c0,2.13-0.44,3.68-1.31,4.65c-0.87,0.97-2.36,1.45-4.45,1.45h-5.7v-21.04h5.7c2.05,0,3.52,0.45,4.39,1.36
			c0.87,0.9,1.31,2.34,1.31,4.31c0,1.04-0.17,1.92-0.52,2.65s-0.93,1.29-1.77,1.68c0.91,0.41,1.53,1.01,1.86,1.8
			S226,315.82,226,317.12z M218.26,310.62h1.58c0.87,0,1.48-0.2,1.83-0.59c0.35-0.4,0.52-1.04,0.52-1.94c0-0.94-0.17-1.6-0.52-1.98
			c-0.34-0.39-0.96-0.58-1.83-0.58h-1.58V310.62z M222.25,316.84c0-1.06-0.19-1.82-0.56-2.29s-1-0.7-1.88-0.7h-1.55v6.01h1.55
			c0.93,0,1.58-0.23,1.92-0.69C222.08,318.72,222.25,317.94,222.25,316.84z"/>
		<path d="M233.07,310.84h4.88v3.35h-4.88v5.67h5.67v3.35h-9.39v-21.04h9.39v3.38h-5.67V310.84z"/>
		<path d="M245.45,314.77v8.44h-3.75v-21.04h5.73c2.07,0,3.54,0.5,4.41,1.49c0.86,1,1.3,2.59,1.3,4.79c0,1.4-0.19,2.57-0.58,3.51
			c-0.39,0.93-1.02,1.64-1.89,2.1l3.14,9.15h-3.9l-2.65-8.44H245.45z M247.4,311.42c0.75,0,1.27-0.25,1.55-0.75
			c0.29-0.5,0.43-1.24,0.43-2.21s-0.14-1.71-0.41-2.19c-0.27-0.49-0.8-0.73-1.57-0.73h-1.95v5.88H247.4z"/>
	</g>
</g>
<g id="ikon">
	<g>
		<rect x="101.94" y="103.27" class="st1" width="15.86" height="16.11"/>
		<rect x="153.49" y="103.27" class="st1" width="15.86" height="16.11"/>
		<rect x="50.64" y="103.27" class="st1" width="15.61" height="16.11"/>
		<rect x="205.04" y="103.27" class="st1" width="15.61" height="16.11"/>
		<rect x="50.64" y="172.99" class="st1" width="15.61" height="16.46"/>
		<rect x="101.94" y="172.99" class="st1" width="15.86" height="16.46"/>
		<rect x="153.49" y="172.99" class="st1" width="15.86" height="16.46"/>
		<rect x="205.04" y="172.99" class="st1" width="15.61" height="16.46"/>
		<polygon class="st1" points="150.09,94.51 135.52,73.04 121.2,94.41 121.2,198.25 150.09,198.25 		"/>
		<polygon class="st1" points="201.64,94.51 187.08,73.04 172.75,94.41 172.75,198.25 201.64,198.25 		"/>
		<polygon class="st1" points="98.54,94.51 83.97,73.04 69.65,94.41 69.65,198.25 98.54,198.25 		"/>
	</g>
</g>
</svg>
