<?xml version="1.0" encoding="utf-8"?>
<!-- Generator: Adobe Illustrator 25.4.1, SVG Export Plug-In . SVG Version: 6.00 Build 0)  -->
<svg version="1.1" xmlns="http://www.w3.org/2000/svg" xmlns:xlink="http://www.w3.org/1999/xlink" x="0px" y="0px"
	 viewBox="0 0 271.29 355.95" style="enable-background:new 0 0 271.29 355.95;" xml:space="preserve">
<style type="text/css">
	.st0{fill:#06682D;}
	.st1{fill:#FFFFFF;}
</style>
<g id="bakgrund">
	<g>
		<rect x="1" y="1" class="st0" width="269.29" height="269.29"/>
		<path class="st0" d="M271.29,271.29H0V0h271.29V271.29z M2,269.29h267.29V2H2V269.29z"/>
	</g>
	<g>
		<rect x="1" y="269.92" class="st1" width="269.29" height="85.04"/>
		<path class="st0" d="M271.29,355.95H0v-87.04h271.29V355.95z M2,353.95h267.29v-83.04H2V353.95z"/>
	</g>
</g>
<g id="namn">
	<g>
		<path d="M95.84,302.13v17.68h5.64v3.35h-9.39v-21.04H95.84z"/>
		<path d="M107.85,319.08l-0.85,4.08h-3.9l5.4-21.04h3.66l5.37,21.04h-3.9l-0.85-4.08H107.85z M110.32,307.19l-1.77,8.54h3.54
			L110.32,307.19z"/>
		<path d="M126.12,305.51v17.65h-3.72v-17.65h-3.66v-3.38h11.01v3.38H126.12z"/>
		<path d="M135.81,314.72v8.44h-3.75v-21.04h5.73c2.07,0,3.54,0.5,4.41,1.49c0.86,1,1.3,2.59,1.3,4.79c0,1.4-0.19,2.57-0.58,3.51
			c-0.39,0.93-1.02,1.64-1.89,2.1l3.14,9.15h-3.9l-2.65-8.44H135.81z M137.76,311.36c0.75,0,1.27-0.25,1.55-0.75
			c0.29-0.5,0.43-1.23,0.43-2.21c0-0.97-0.14-1.71-0.41-2.19s-0.8-0.73-1.57-0.73h-1.95v5.88H137.76z"/>
		<path d="M150.84,302.13v21.04h-3.72v-21.04H150.84z"/>
		<path d="M166.33,323.16h-3.75l-4.39-11.22v11.22h-3.75v-21.04h3.75l4.39,11.71v-11.71h3.75V323.16z"/>
		<path d="M173.53,310.78h4.88v3.35h-4.88v5.67h5.67v3.35h-9.39v-21.04h9.39v3.38h-5.67V310.78z"/>
	</g>
</g>
<g id="ikon">
	<g>
		<polygon class="st1" points="135.65,53.94 60.65,53.94 72.65,83.94 135.65,83.94 198.65,83.94 210.65,53.94 		"/>
		<g>
			<path class="st1" d="M82.65,229.94v-162h106v162H82.65z M126.13,97.67c-2.68,0-5.16,0.91-7.17,2.62
				c-2.55,2.18-4.04,5.24-4.2,8.62c-0.16,3.35,1.07,6.63,3.36,9.01l15.05,15.54c0.66,0.68,1.54,1.06,2.48,1.06
				c0.94,0,1.82-0.38,2.48-1.06l15.05-15.54c2.3-2.37,3.53-5.66,3.37-9.01c-0.16-3.38-1.65-6.44-4.2-8.62
				c-2.01-1.72-4.49-2.62-7.17-2.62c-3.23,0-6.4,1.36-8.71,3.74l-0.81,0.84l-0.81-0.84C132.53,99.04,129.36,97.67,126.13,97.67z"/>
			<path class="st0" d="M187.65,68.94v160h-104v-160H187.65 M135.65,100.82l-0.09-0.1c-2.49-2.57-5.92-4.05-9.43-4.05
				c-2.92,0-5.62,0.99-7.82,2.86c-2.76,2.36-4.38,5.67-4.55,9.33c-0.17,3.62,1.15,7.18,3.64,9.75l15.05,15.54
				c0.85,0.88,1.99,1.36,3.2,1.36s2.35-0.48,3.2-1.36l15.05-15.54c2.49-2.57,3.82-6.13,3.65-9.75c-0.17-3.66-1.79-6.97-4.55-9.33
				c-2.2-1.87-4.9-2.86-7.82-2.86c-3.5,0-6.93,1.48-9.43,4.05L135.65,100.82 M189.65,66.94h-108v164h108V66.94L189.65,66.94z
				 M135.65,103.69l1.53-1.58c2.17-2.24,5.09-3.44,7.99-3.44c2.32,0,4.62,0.77,6.52,2.38c4.88,4.17,5.14,11.65,0.76,16.17
				l-15.05,15.54c-0.49,0.5-1.12,0.75-1.76,0.75s-1.28-0.25-1.76-0.75l-15.05-15.54c-4.37-4.52-4.11-12,0.77-16.17
				c1.89-1.61,4.2-2.38,6.52-2.38c2.9,0,5.82,1.2,7.99,3.44L135.65,103.69L135.65,103.69z"/>
		</g>
	</g>
</g>
</svg>
