<?xml version="1.0" encoding="utf-8"?>
<!-- Generator: Adobe Illustrator 25.4.1, SVG Export Plug-In . SVG Version: 6.00 Build 0)  -->
<svg version="1.1" xmlns="http://www.w3.org/2000/svg" xmlns:xlink="http://www.w3.org/1999/xlink" x="0px" y="0px"
	 viewBox="0 0 271.29 356.19" style="enable-background:new 0 0 271.29 356.19;" xml:space="preserve">
<style type="text/css">
	.st0{fill:#F18700;}
	.st1{fill:#FFFFFF;}
	.st2{fill:#FFFFFF;stroke:#F18700;stroke-width:0.1454;stroke-miterlimit:10;}
</style>
<g id="bakgrund">
	<g>
		<rect x="1" y="1" class="st0" width="269.29" height="269.29"/>
		<path class="st0" d="M271.29,271.29H0V0h271.29V271.29z M2,269.29h267.29V2H2V269.29z"/>
	</g>
	<rect x="1" y="270.15" class="st1" width="269.29" height="85.04"/>
	<path class="st0" d="M271.29,356.19H0v-87.04h271.29V356.19z M2,354.19h267.29v-83.04H2V354.19z"/>
</g>
<g id="ikon">
	<g>
		<path d="M44.27,323.23h-3.75v-12.32l-2.68,8.23h-2.01L33.17,311v12.23h-3.75v-21.04h3.75l3.66,11.1l3.69-11.1h3.75V323.23z"/>
		<path d="M51.4,319.14l-0.85,4.09h-3.9l5.4-21.04h3.66l5.37,21.04h-3.9l-0.85-4.09H51.4z M53.87,307.25l-1.77,8.54h3.54
			L53.87,307.25z"/>
		<path d="M63.17,319.85c1.3,0,1.95-0.68,1.95-2.04v-15.61h3.75v16.04c0,3.33-1.82,5-5.46,5h-0.73v-3.38H63.17z"/>
		<path d="M72.35,317.44v-9.48c0-1.99,0.56-3.5,1.68-4.53c1.12-1.03,2.59-1.54,4.42-1.54c1.77,0,3.19,0.51,4.25,1.54
			s1.6,2.54,1.6,4.53v9.48c0,1.95-0.56,3.45-1.69,4.48c-1.13,1.04-2.59,1.55-4.37,1.55c-1.81,0-3.24-0.51-4.3-1.54
			C72.88,320.91,72.35,319.41,72.35,317.44z M80.55,317.01v-8.44c0-1.08-0.18-1.9-0.55-2.46c-0.37-0.56-0.91-0.84-1.65-0.84
			c-0.79,0-1.37,0.27-1.72,0.82c-0.36,0.55-0.53,1.37-0.53,2.47v8.44c0,2.05,0.75,3.08,2.26,3.08c0.71,0,1.26-0.27,1.63-0.81
			C80.36,318.74,80.55,317.99,80.55,317.01z"/>
		<path d="M91.41,314.78v8.45h-3.75v-21.04h5.73c2.07,0,3.54,0.5,4.41,1.49c0.86,1,1.3,2.59,1.3,4.79c0,1.4-0.19,2.57-0.58,3.51
			c-0.39,0.93-1.02,1.64-1.89,2.1l3.14,9.15h-3.9l-2.65-8.45H91.41z M93.36,311.43c0.75,0,1.27-0.25,1.55-0.75
			c0.29-0.5,0.43-1.23,0.43-2.21s-0.14-1.71-0.41-2.2c-0.27-0.49-0.8-0.73-1.57-0.73h-1.95v5.88H93.36z"/>
		<path d="M112.5,319.14l-0.85,4.09h-3.9l5.4-21.04h3.66l5.37,21.04h-3.9l-0.85-4.09H112.5z M114.97,307.25l-1.77,8.54h3.54
			L114.97,307.25z"/>
		<path d="M135.98,308.81c0,2.24-0.45,3.9-1.36,5s-2.37,1.65-4.41,1.65h-1.95v7.77h-3.72v-21.04h5.67c2.07,0,3.55,0.55,4.44,1.65
			C135.54,304.94,135.98,306.59,135.98,308.81z M132.23,308.81c0-1.12-0.16-1.94-0.47-2.47c-0.31-0.53-0.87-0.79-1.66-0.79h-1.83
			v6.52h1.83c0.79,0,1.35-0.26,1.66-0.79C132.07,310.75,132.23,309.93,132.23,308.81z"/>
		<path d="M150.13,308.81c0,2.24-0.45,3.9-1.36,5s-2.37,1.65-4.41,1.65h-1.95v7.77h-3.72v-21.04h5.67c2.07,0,3.55,0.55,4.44,1.65
			C149.69,304.94,150.13,306.59,150.13,308.81z M146.38,308.81c0-1.12-0.16-1.94-0.47-2.47c-0.31-0.53-0.87-0.79-1.66-0.79h-1.83
			v6.52h1.83c0.79,0,1.35-0.26,1.66-0.79C146.22,310.75,146.38,309.93,146.38,308.81z"/>
		<path d="M156.59,302.19v17.68h5.64v3.35h-9.39v-21.04H156.59z"/>
		<path d="M168.79,302.19v21.04h-3.72v-21.04H168.79z"/>
		<path d="M176.04,319.14l-0.85,4.09h-3.9l5.4-21.04h3.66l5.37,21.04h-3.9l-0.85-4.09H176.04z M178.51,307.25l-1.77,8.54h3.54
			L178.51,307.25z"/>
		<path d="M199.98,323.23h-3.75l-4.39-11.22v11.22h-3.75v-21.04h3.75l4.39,11.71v-11.71h3.75V323.23z"/>
		<path d="M203.33,317.44v-9.48c0-1.99,0.56-3.5,1.68-4.53c1.12-1.03,2.59-1.54,4.42-1.54c1.75,0,3.16,0.51,4.24,1.52
			c1.08,1.02,1.62,2.56,1.62,4.63v0.64h-3.75v-0.61c0-0.96-0.2-1.66-0.59-2.12c-0.4-0.46-0.93-0.69-1.6-0.69
			c-0.79,0-1.37,0.27-1.72,0.82c-0.36,0.55-0.53,1.37-0.53,2.47v8.44c0,2.05,0.75,3.08,2.26,3.08c0.67,0,1.21-0.23,1.6-0.7
			c0.4-0.47,0.59-1.16,0.59-2.07v-0.55h3.72v0.58c0,2.03-0.56,3.56-1.69,4.59s-2.58,1.54-4.34,1.54c-1.81,0-3.24-0.51-4.3-1.54
			C203.86,320.91,203.33,319.41,203.33,317.44z"/>
		<path d="M222.36,310.85h4.88v3.35h-4.88v5.67h5.67v3.35h-9.39v-21.04h9.39v3.38h-5.67V310.85z"/>
		<path d="M230.28,317.22h3.54c0.04,1.04,0.25,1.8,0.62,2.29c0.38,0.49,0.93,0.73,1.66,0.73s1.27-0.22,1.6-0.67
			c0.33-0.45,0.5-1.16,0.5-2.13c0-0.81-0.19-1.46-0.56-1.94c-0.38-0.48-1.01-0.92-1.91-1.33l-1.43-0.64
			c-1.36-0.61-2.34-1.36-2.94-2.26s-0.9-2.09-0.9-3.6c0-1.77,0.51-3.18,1.54-4.24s2.41-1.59,4.16-1.59c1.73,0,3.06,0.52,4.01,1.57
			c0.94,1.05,1.45,2.56,1.51,4.53h-3.45c-0.02-0.96-0.19-1.67-0.5-2.15c-0.31-0.48-0.84-0.72-1.57-0.72c-1.36,0-2.04,0.8-2.04,2.41
			c0,0.73,0.17,1.32,0.5,1.75c0.33,0.44,0.9,0.83,1.69,1.17l1.37,0.61c1.46,0.65,2.53,1.46,3.19,2.44c0.66,0.98,0.99,2.28,0.99,3.9
			c0,1.95-0.51,3.46-1.52,4.51c-1.02,1.06-2.46,1.58-4.33,1.58c-1.85,0-3.26-0.54-4.24-1.62S230.3,319.24,230.28,317.22z"/>
	</g>
</g>
<g id="namn">
	<g>
		<g>
			<path class="st2" d="M66.77,75.95l0,151.52l137.75,0l0-151.52L66.77,75.95z M171.36,175.63c-9.54,9.54-22.22,14.79-35.71,14.79
				c-13.49,0-26.17-5.25-35.71-14.79s-14.79-22.22-14.79-35.71c0-13.49,5.25-26.17,14.79-35.71s22.22-14.79,35.71-14.79
				c13.49,0,26.17,5.25,35.71,14.79c9.54,9.54,14.79,22.22,14.79,35.71C186.15,153.41,180.9,166.09,171.36,175.63z"/>
			<path class="st2" d="M135.65,98.59c-11.04,0-21.42,4.3-29.22,12.1c-7.81,7.81-12.1,18.18-12.1,29.22
				c0,11.04,4.3,21.42,12.1,29.22c7.81,7.81,18.18,12.1,29.22,12.1c11.04,0,21.42-4.3,29.22-12.1c7.81-7.81,12.1-18.18,12.1-29.22
				c0-11.04-4.3-21.42-12.1-29.22C157.06,102.89,146.68,98.59,135.65,98.59z"/>
		</g>
		<path class="st2" d="M66.77,43.81l0,27.55l137.75,0l0-27.55L66.77,43.81z M112.76,59.88l-34.44,0v-4.59l34.44,0V59.88z
			 M181.65,64.48c-3.8,0-6.89-3.08-6.89-6.89c0-3.8,3.08-6.89,6.89-6.89c3.8,0,6.89,3.08,6.89,6.89
			C188.54,61.39,185.45,64.48,181.65,64.48z"/>
	</g>
</g>
</svg>
