<?xml version="1.0" encoding="utf-8"?>
<!-- Generator: Adobe Illustrator 25.4.1, SVG Export Plug-In . SVG Version: 6.00 Build 0)  -->
<svg version="1.1" xmlns="http://www.w3.org/2000/svg" xmlns:xlink="http://www.w3.org/1999/xlink" x="0px" y="0px"
	 viewBox="0 0 271.29 356.19" style="enable-background:new 0 0 271.29 356.19;" xml:space="preserve">
<style type="text/css">
	.st0{fill:#FFFFFF;}
	.st1{fill:#627179;}
</style>
<g id="bakgrund">
	<g>
		<path class="st0" d="M177.86,219.27H93.28c-0.69,0-1.25-0.56-1.25-1.25s0.56-1.25,1.25-1.25h84.59c0.69,0,1.25,0.56,1.25,1.25
			S178.55,219.27,177.86,219.27z"/>
	</g>
	<g>
		<rect x="1" y="1" class="st1" width="269.29" height="269.29"/>
		<path class="st1" d="M271.29,271.29H0V0h271.29V271.29z M2,269.29h267.29V2H2V269.29z"/>
	</g>
	<g>
		<rect x="1" y="270.15" class="st0" width="269.29" height="85.04"/>
		<path class="st1" d="M271.29,356.19H0v-87.04h271.29V356.19z M2,354.19h267.29v-83.04H2V354.19z"/>
	</g>
</g>
<g id="namn">
	<g>
		<path d="M116.53,323.18h-3.75v-12.32l-2.68,8.23h-2.01l-2.65-8.14v12.23h-3.75v-21.04h3.75l3.66,11.1l3.69-11.1h3.75V323.18z"/>
		<path d="M123.72,310.81h4.88v3.35h-4.88v5.67h5.67v3.35H120v-21.04h9.39v3.38h-5.67V310.81z"/>
		<path d="M138.57,305.53v17.65h-3.72v-17.65h-3.66v-3.38h11.01v3.38H138.57z"/>
		<path d="M148.18,319.1l-0.85,4.09h-3.9l5.4-21.04h3.66l5.37,21.04h-3.9l-0.85-4.09H148.18z M150.65,307.21l-1.77,8.54h3.54
			L150.65,307.21z"/>
		<path d="M163.97,302.15v17.68h5.64v3.35h-9.39v-21.04H163.97z"/>
	</g>
</g>
<g id="ikon">
	<g>
		<path class="st0" d="M119.63,171.01c19.44,0,37.7-2.25,51.41-6.35c0.78-0.23,1.55-0.47,2.29-0.72c-0.69-2.11-4.87-5.01-14.94-7.47
			c-10.34-2.53-24.1-3.92-38.76-3.92c-14.66,0-28.43,1.39-38.76,3.92c-10.07,2.46-14.25,5.36-14.94,7.47
			c0.74,0.24,1.51,0.48,2.29,0.72C81.93,168.75,100.19,171.01,119.63,171.01z"/>
		<path class="st0" d="M171.28,167.81c-13.91,4.15-32.36,6.45-51.97,6.48c-19.61-0.02-38.06-2.32-51.97-6.48
			c-6.89-2.06-12.33-4.47-16.16-7.18c-0.92-0.65-1.74-1.31-2.46-1.98c0,0,0.07,0.26,0.21,0.74c0.48,1.68,1.75,6,3.42,10.94
			c4.26,12.59,17.68,16.85,21.26,18.09c4.43,1.54,9.34,2.81,14.71,3.81c6.09,1.13,12.76,1.91,19.99,2.3c3.48,0.2,7.04,0.3,10.67,0.3
			c0.11,0,0.21,0,0.32,0c0.11,0,0.21,0,0.32,0c3.63,0,7.19-0.1,10.67-0.3c7.22-0.39,13.9-1.17,19.99-2.3
			c5.37-1,10.29-2.28,14.71-3.81c3.58-1.24,17.01-5.5,21.26-18.09c1.67-4.94,2.94-9.26,3.42-10.94c0.14-0.48,0.21-0.74,0.21-0.74
			c-0.72,0.67-1.54,1.33-2.46,1.98C183.61,163.34,178.17,165.75,171.28,167.81z"/>
		<path class="st0" d="M233.35,78.75c-0.38-0.35-0.81-0.65-1.31-0.91c-4-2.04-9.46-2.23-14.18,2.07l-7.99,7.63l-41.94,39.25
			c-0.98,1.06-1.71,1.79-2.52,3.33l-2.61,4.93c-12.01-2.98-26.96-4.75-43.17-4.75c-37.86,0-68.87,9.64-71.49,21.86
			c0.63,1.85,2.24,3.69,4.81,5.51c2.56,1.81,5.94,3.49,10.09,5.03c0.6-1.79,2.22-3.46,4.84-4.97c2.91-1.69,7.04-3.19,12.26-4.47
			c10.57-2.59,24.59-4.01,39.49-4.01c14.9,0,28.92,1.42,39.49,4.01c5.22,1.28,9.35,2.78,12.26,4.47c2.62,1.51,4.24,3.18,4.84,4.97
			c4.15-1.53,7.53-3.22,10.09-5.03c2.57-1.82,4.19-3.67,4.81-5.51c-0.88-4.1-4.95-7.9-11.4-11.15l3-5.28
			c0.17-0.28,1.22-1.54,2.07-2.42l47.81-44.95c0.76-0.74,1.32-1.53,1.75-2.33C235.68,83.67,235.39,80.62,233.35,78.75z
			 M228.27,85.78c-1.08,1.04-3.91,3.95-5.03,5.03c-0.28,0.27-0.6,0.51-0.93,0.72c-1.62,1-3.75,1.2-5.19,0.39
			c-1.02-0.58-1.46-1.53-1.32-2.54c0.1-0.71,0.48-1.44,1.16-2.1c1.16-1.13,3.93-3.96,5.03-5.03c1.79-1.75,4.38-2.08,6.12-1.11
			C229.84,82.11,229.92,84.19,228.27,85.78z"/>
	</g>
</g>
</svg>
