<?xml version="1.0" encoding="utf-8"?>
<!-- Generator: Adobe Illustrator 25.4.1, SVG Export Plug-In . SVG Version: 6.00 Build 0)  -->
<svg version="1.1" xmlns="http://www.w3.org/2000/svg" xmlns:xlink="http://www.w3.org/1999/xlink" x="0px" y="0px"
	 viewBox="0 0 271.29 356.19" style="enable-background:new 0 0 271.29 356.19;" xml:space="preserve">
<style type="text/css">
	.st0{fill:#FFFFFF;}
	.st1{fill:#627179;}
</style>
<g id="bakgrund">
	<g>
		<path class="st0" d="M177.86,219.27H93.28c-0.69,0-1.25-0.56-1.25-1.25s0.56-1.25,1.25-1.25h84.59c0.69,0,1.25,0.56,1.25,1.25
			S178.55,219.27,177.86,219.27z"/>
	</g>
	<g>
		<rect x="1" y="1" class="st1" width="269.29" height="269.29"/>
		<path class="st1" d="M271.29,271.29H0V0h271.29V271.29z M2,269.29h267.29V2H2V269.29z"/>
	</g>
	<g>
		<rect x="1" y="270.15" class="st0" width="269.29" height="85.04"/>
		<path class="st1" d="M271.29,356.19H0v-87.04h271.29V356.19z M2,354.19h267.29v-83.04H2V354.19z"/>
	</g>
</g>
<g id="namn">
	<g>
		<path d="M49.3,323.21h-3.75V310.9l-2.68,8.23h-2.01l-2.65-8.14v12.22h-3.75v-21.04h3.75l3.66,11.1l3.69-11.1h3.75V323.21z"/>
		<path d="M56.5,310.84h4.88v3.35H56.5v5.67h5.67v3.35h-9.39v-21.04h9.39v3.38H56.5V310.84z"/>
		<path d="M71.35,305.56v17.65h-3.72v-17.65h-3.66v-3.38h11.01v3.38H71.35z"/>
		<path d="M80.95,319.13l-0.85,4.08h-3.9l5.4-21.04h3.66l5.37,21.04h-3.9l-0.85-4.08H80.95z M83.42,307.24l-1.77,8.54h3.54
			L83.42,307.24z"/>
		<path d="M96.74,302.18v17.68h5.64v3.35h-9.39v-21.04H96.74z"/>
		<path d="M122.78,308.79c0,2.24-0.45,3.9-1.36,5s-2.37,1.65-4.41,1.65h-1.95v7.77h-3.72v-21.04h5.67c2.07,0,3.55,0.55,4.44,1.65
			C122.34,304.92,122.78,306.58,122.78,308.79z M119.03,308.79c0-1.12-0.16-1.94-0.47-2.47c-0.31-0.53-0.87-0.79-1.66-0.79h-1.83
			v6.52h1.83c0.79,0,1.35-0.26,1.66-0.79C118.87,310.73,119.03,309.91,119.03,308.79z"/>
		<path d="M129.15,319.13l-0.85,4.08h-3.9l5.4-21.04h3.66l5.37,21.04h-3.9l-0.85-4.08H129.15z M131.62,307.24l-1.77,8.54h3.54
			L131.62,307.24z"/>
		<path d="M141.07,317.42v-9.48c0-1.99,0.56-3.5,1.68-4.53c1.12-1.03,2.59-1.54,4.42-1.54c1.75,0,3.16,0.51,4.24,1.52
			c1.08,1.02,1.62,2.56,1.62,4.63v0.64h-3.75v-0.61c0-0.96-0.2-1.66-0.59-2.12c-0.4-0.46-0.93-0.69-1.6-0.69
			c-0.79,0-1.37,0.28-1.72,0.82c-0.36,0.55-0.53,1.37-0.53,2.47v8.45c0,2.05,0.75,3.08,2.26,3.08c0.67,0,1.21-0.23,1.6-0.7
			c0.4-0.47,0.59-1.16,0.59-2.07v-0.55h3.72v0.58c0,2.03-0.56,3.56-1.69,4.59c-1.13,1.03-2.58,1.54-4.34,1.54
			c-1.81,0-3.24-0.51-4.3-1.54C141.6,320.89,141.07,319.39,141.07,317.42z"/>
		<path d="M160.1,318.46v4.76h-3.72v-21.04h3.72v9.91l4.48-9.91h3.75l-4.39,8.66l5.06,12.38h-3.99l-3.2-8.14L160.1,318.46z"/>
		<path d="M174.98,319.13l-0.85,4.08h-3.9l5.4-21.04h3.66l5.37,21.04h-3.9l-0.85-4.08H174.98z M177.45,307.24l-1.77,8.54h3.54
			L177.45,307.24z"/>
		<path d="M186.9,317.42v-9.48c0-1.99,0.56-3.5,1.68-4.53c1.12-1.03,2.59-1.54,4.42-1.54c1.75,0,3.16,0.5,4.24,1.49
			c1.08,1,1.62,2.47,1.62,4.42v0.64h-3.75v-0.64c0-0.81-0.2-1.44-0.61-1.88s-0.94-0.66-1.59-0.66c-0.79,0-1.37,0.28-1.72,0.82
			s-0.53,1.37-0.53,2.47v8.45c0,2.05,0.75,3.08,2.26,3.08c0.73,0,1.28-0.25,1.65-0.75s0.55-1.21,0.55-2.15v-2.23h-2.23v-2.96h5.98
			v5.43c0,1.95-0.56,3.44-1.69,4.48c-1.13,1.04-2.59,1.55-4.37,1.55c-1.81,0-3.24-0.51-4.3-1.54
			C187.43,320.89,186.9,319.39,186.9,317.42z"/>
		<path d="M206.05,302.18v21.04h-3.72v-21.04H206.05z"/>
		<path d="M221.53,323.21h-3.75l-4.39-11.22v11.22h-3.75v-21.04h3.75l4.39,11.71v-11.71h3.75V323.21z"/>
		<path d="M224.89,317.42v-9.48c0-1.99,0.56-3.5,1.68-4.53s2.59-1.54,4.42-1.54c1.75,0,3.16,0.5,4.24,1.49
			c1.08,1,1.62,2.47,1.62,4.42v0.64h-3.75v-0.64c0-0.81-0.2-1.44-0.61-1.88s-0.94-0.66-1.59-0.66c-0.79,0-1.37,0.28-1.72,0.82
			c-0.36,0.55-0.54,1.37-0.54,2.47v8.45c0,2.05,0.75,3.08,2.26,3.08c0.73,0,1.28-0.25,1.65-0.75c0.37-0.5,0.55-1.21,0.55-2.15v-2.23
			h-2.22v-2.96h5.97v5.43c0,1.95-0.56,3.44-1.69,4.48s-2.59,1.55-4.38,1.55c-1.81,0-3.24-0.51-4.3-1.54
			C225.42,320.89,224.89,319.39,224.89,317.42z"/>
	</g>
</g>
<g id="ikon">
	<g>
		
			<ellipse transform="matrix(0.8965 -0.4429 0.4429 0.8965 -15.624 67.0099)" class="st0" cx="135.65" cy="66.95" rx="47.52" ry="16"/>
		<g>
			<rect x="92.45" y="173.71" class="st0" width="86.39" height="11.84"/>
			<rect x="92.45" y="189.98" class="st0" width="86.39" height="39.83"/>
			<rect x="92.45" y="157.44" class="st0" width="86.39" height="11.84"/>
			<rect x="92.45" y="96.91" class="st0" width="86.39" height="39.83"/>
			<rect x="92.45" y="141.17" class="st0" width="86.39" height="11.84"/>
		</g>
	</g>
</g>
</svg>
