<?xml version="1.0" encoding="utf-8"?>
<!-- Generator: Adobe Illustrator 25.4.1, SVG Export Plug-In . SVG Version: 6.00 Build 0)  -->
<svg version="1.1" xmlns="http://www.w3.org/2000/svg" xmlns:xlink="http://www.w3.org/1999/xlink" x="0px" y="0px"
	 viewBox="0 0 271.29 356.19" style="enable-background:new 0 0 271.29 356.19;" xml:space="preserve">
<style type="text/css">
	.st0{fill:#FFFFFF;}
</style>
<g id="bakgrund">
	<g>
		<rect x="1" y="1" width="269.29" height="269.29"/>
		<path d="M271.29,271.29H0V0h271.29V271.29z M2,269.29h267.29V2H2V269.29z"/>
	</g>
	<rect x="1" y="270.15" class="st0" width="269.29" height="85.04"/>
	<path d="M271.29,356.19H0v-87.04h271.29V356.19z M2,354.19h267.29v-83.04H2V354.19z"/>
</g>
<g id="namn">
	<g>
		<path d="M51.1,323.21h-3.75L42.96,312v11.22h-3.75v-21.04h3.75l4.39,11.71v-11.71h3.75V323.21z"/>
		<path d="M54.45,317.42v-9.48c0-1.99,0.56-3.5,1.68-4.53c1.12-1.03,2.59-1.54,4.42-1.54c1.77,0,3.19,0.51,4.25,1.54
			s1.6,2.54,1.6,4.53v9.48c0,1.95-0.56,3.44-1.69,4.48c-1.13,1.04-2.59,1.55-4.37,1.55c-1.81,0-3.24-0.51-4.3-1.54
			C54.98,320.89,54.45,319.39,54.45,317.42z M62.65,317v-8.45c0-1.08-0.18-1.9-0.55-2.45c-0.37-0.56-0.91-0.84-1.65-0.84
			c-0.79,0-1.37,0.27-1.72,0.82c-0.36,0.55-0.53,1.37-0.53,2.47V317c0,2.05,0.75,3.08,2.26,3.08c0.71,0,1.26-0.27,1.63-0.81
			C62.47,318.73,62.65,317.97,62.65,317z"/>
		<path d="M81.65,323.21H77.9L73.51,312v11.22h-3.75v-21.04h3.75l4.39,11.71v-11.71h3.75V323.21z"/>
		<path d="M93.39,310.99v3.35H85v-3.35H93.39z"/>
		<path d="M100.49,314.77v8.44h-3.75v-21.04h5.73c2.07,0,3.54,0.5,4.41,1.49c0.86,1,1.3,2.59,1.3,4.79c0,1.4-0.19,2.57-0.58,3.51
			c-0.39,0.93-1.02,1.64-1.89,2.1l3.14,9.15h-3.9l-2.65-8.44H100.49z M102.44,311.42c0.75,0,1.27-0.25,1.55-0.75
			c0.29-0.5,0.43-1.24,0.43-2.21s-0.14-1.71-0.41-2.19c-0.27-0.49-0.8-0.73-1.57-0.73h-1.95v5.88H102.44z"/>
		<path d="M115.4,310.84h4.88v3.35h-4.88v5.67h5.67v3.35h-9.39v-21.04h9.39v3.38h-5.67V310.84z"/>
		<path d="M123.91,317.42v-9.48c0-1.99,0.56-3.5,1.68-4.53c1.12-1.03,2.59-1.54,4.42-1.54c1.75,0,3.16,0.51,4.24,1.52
			c1.08,1.02,1.62,2.56,1.62,4.63v0.64h-3.75v-0.61c0-0.96-0.2-1.66-0.59-2.12c-0.4-0.46-0.93-0.69-1.6-0.69
			c-0.79,0-1.37,0.27-1.72,0.82c-0.36,0.55-0.53,1.37-0.53,2.47V317c0,2.05,0.75,3.08,2.26,3.08c0.67,0,1.21-0.23,1.6-0.7
			c0.4-0.47,0.59-1.16,0.59-2.07v-0.55h3.72v0.58c0,2.03-0.56,3.56-1.69,4.59s-2.58,1.54-4.34,1.54c-1.81,0-3.24-0.51-4.3-1.54
			C124.44,320.89,123.91,319.39,123.91,317.42z"/>
		<path d="M146.13,323.21h-3.75v-8.26l-4.27-12.77h4.12l2.01,8.05l2.01-8.05h4.15l-4.27,12.83V323.21z"/>
		<path d="M152.66,317.42v-9.48c0-1.99,0.56-3.5,1.68-4.53c1.12-1.03,2.59-1.54,4.42-1.54c1.75,0,3.16,0.51,4.24,1.52
			c1.08,1.02,1.62,2.56,1.62,4.63v0.64h-3.75v-0.61c0-0.96-0.2-1.66-0.59-2.12c-0.4-0.46-0.93-0.69-1.6-0.69
			c-0.79,0-1.37,0.27-1.72,0.82c-0.36,0.55-0.53,1.37-0.53,2.47V317c0,2.05,0.75,3.08,2.26,3.08c0.67,0,1.21-0.23,1.6-0.7
			c0.4-0.47,0.59-1.16,0.59-2.07v-0.55h3.72v0.58c0,2.03-0.56,3.56-1.69,4.59s-2.58,1.54-4.34,1.54c-1.81,0-3.24-0.51-4.3-1.54
			C153.19,320.89,152.66,319.39,152.66,317.42z"/>
		<path d="M171.71,302.18v17.68h5.64v3.35h-9.39v-21.04H171.71z"/>
		<path d="M183.73,319.13l-0.85,4.08h-3.9l5.4-21.04h3.66l5.37,21.04h-3.9l-0.85-4.08H183.73z M186.2,307.24l-1.77,8.54h3.54
			L186.2,307.24z"/>
		<path d="M207.23,317.12c0,2.13-0.44,3.68-1.31,4.65c-0.88,0.97-2.36,1.45-4.45,1.45h-5.7v-21.04h5.7c2.05,0,3.52,0.45,4.39,1.36
			c0.87,0.9,1.31,2.34,1.31,4.31c0,1.04-0.17,1.92-0.52,2.65s-0.93,1.29-1.77,1.68c0.91,0.41,1.54,1.01,1.86,1.8
			C207.07,314.77,207.23,315.82,207.23,317.12z M199.49,310.62h1.59c0.87,0,1.48-0.2,1.83-0.59c0.35-0.4,0.52-1.04,0.52-1.94
			c0-0.94-0.17-1.6-0.52-1.98c-0.34-0.39-0.96-0.58-1.83-0.58h-1.59V310.62z M203.48,316.84c0-1.06-0.19-1.82-0.56-2.29
			c-0.38-0.47-1-0.7-1.88-0.7h-1.55v6.01h1.55c0.94,0,1.58-0.23,1.92-0.69C203.31,318.72,203.48,317.94,203.48,316.84z"/>
		<path d="M214.34,302.18v17.68h5.64v3.35h-9.39v-21.04H214.34z"/>
		<path d="M226.41,310.84h4.88v3.35h-4.88v5.67h5.67v3.35h-9.39v-21.04h9.39v3.38h-5.67V310.84z"/>
	</g>
</g>
<g id="ikon">
	<g>
		<polygon class="st0" points="142.57,128.15 142.57,51.46 129.01,51.46 129.01,128.15 108.66,128.15 135.72,171.02 162.92,128.15 
					"/>
		<g>
			<path class="st0" d="M213.05,112.7c-0.38,1-11.56,30.51-12.89,33.24c-2.64,5.42-6.11,7.42-9.78,9.54
				c-2.41,1.39-4.9,2.82-7.24,5.25c-2.69,2.8-3.68,4.28-10.63,14.99c-3.36,5.19-4.72,7.78-6.43,11.07c-1.05,2.01-2.24,4.3-4.13,7.63
				c-3.2,5.64-6.36,9.6-9.31,13.16c-4.63,5.08-9.38,8.08-14.11,8.93c-3.71,0.66-7.45,0.06-11.4-1.86
				c-6.98-3.38-12.86-10.54-16.75-15.27c-0.93-1.13-1.88-2.28-2.81-3.38c-7.27-8.73-14.79-17.75-18.81-30.13
				c-1.35-4.15-2.22-6.91-2.86-8.92c-1.55-4.88-1.57-4.95-3.01-8.04l0-0.01c-1.39-2.98-4.91-5.99-8.3-8.9
				c-1.91-1.63-3.71-3.18-4.95-4.56c-2.87-3.19-6.98-11.51-10.62-19.67c-0.46-1.03-0.91-2.05-1.35-3.06H0l0,3.06h55.97
				c3.95,8.94,8.49,18.21,11.75,21.85c1.37,1.52,3.24,3.12,5.22,4.82c3.01,2.58,6.43,5.5,7.54,7.88l0,0.01
				c1.36,2.92,1.36,2.92,2.86,7.64c0.64,2.02,1.51,4.78,2.86,8.94c4.21,12.97,11.92,22.23,19.38,31.18c0.92,1.1,1.87,2.24,2.79,3.37
				c4.05,4.93,10.17,12.37,17.67,16.01c3.27,1.59,6.43,2.37,9.55,2.37c1.12,0,2.23-0.1,3.34-0.3c5.31-0.95,10.56-4.24,15.6-9.78
				l0.04-0.05c3.05-3.67,6.3-7.75,9.64-13.63c1.92-3.38,3.12-5.69,4.19-7.73c1.68-3.21,3-5.75,6.28-10.81
				c6.81-10.5,7.78-11.95,10.28-14.55c2.06-2.14,4.28-3.42,6.63-4.78c3.87-2.23,7.88-4.54,10.92-10.79
				c1.43-2.93,7.52-18.93,12.31-31.66h56.44l0-3.06H213.05z"/>
		</g>
	</g>
</g>
</svg>
