<?xml version="1.0" encoding="utf-8"?>
<!-- Generator: Adobe Illustrator 25.4.1, SVG Export Plug-In . SVG Version: 6.00 Build 0)  -->
<svg version="1.1" xmlns="http://www.w3.org/2000/svg" xmlns:xlink="http://www.w3.org/1999/xlink" x="0px" y="0px"
	 viewBox="0 0 271.29 356.19" style="enable-background:new 0 0 271.29 356.19;" xml:space="preserve">
<style type="text/css">
	.st0{fill:#E40521;}
	.st1{fill:#FFFFFF;}
</style>
<g id="bakgrund">
	<g>
		<rect x="1" y="1.29" class="st0" width="269.29" height="269.29"/>
		<path class="st0" d="M271.29,271.58H0V0.29h271.29V271.58z M2,269.58h267.29V2.29H2V269.58z"/>
	</g>
	<rect x="1" y="270.15" class="st1" width="269.29" height="85.04"/>
	<path class="st0" d="M271.29,356.19H0v-87.04h271.29V356.19z M2,354.19h267.29v-83.04H2V354.19z"/>
</g>
<g id="namn">
	<g>
		<path d="M42.14,317.44v-9.48c0-1.99,0.56-3.5,1.68-4.53c1.12-1.03,2.59-1.54,4.42-1.54c1.77,0,3.19,0.51,4.25,1.54
			s1.6,2.54,1.6,4.53v9.48c0,1.95-0.56,3.45-1.69,4.48c-1.13,1.04-2.59,1.55-4.37,1.55c-1.81,0-3.24-0.51-4.3-1.54
			C42.66,320.91,42.14,319.41,42.14,317.44z M50.34,317.01v-8.44c0-1.08-0.18-1.9-0.55-2.46c-0.37-0.56-0.91-0.84-1.65-0.84
			c-0.79,0-1.37,0.27-1.72,0.82c-0.36,0.55-0.53,1.37-0.53,2.47v8.44c0,2.05,0.75,3.08,2.26,3.08c0.71,0,1.26-0.27,1.63-0.81
			C50.15,318.74,50.34,317.99,50.34,317.01z"/>
		<path d="M61.28,302.19v21.04h-3.72v-21.04H61.28z"/>
		<path d="M68.63,302.19v17.68h5.64v3.35h-9.39v-21.04H68.63z"/>
		<path d="M85.25,311v3.35h-8.38V311H85.25z"/>
		<path d="M100.06,317.13c0,2.13-0.44,3.68-1.31,4.65c-0.87,0.96-2.36,1.45-4.45,1.45h-5.7v-21.04h5.7c2.05,0,3.52,0.45,4.39,1.36
			s1.31,2.34,1.31,4.31c0,1.04-0.17,1.92-0.52,2.65c-0.35,0.73-0.93,1.29-1.77,1.68c0.91,0.41,1.53,1.01,1.86,1.8
			C99.9,314.78,100.06,315.83,100.06,317.13z M92.32,310.64h1.58c0.87,0,1.48-0.2,1.83-0.59c0.35-0.4,0.52-1.04,0.52-1.94
			c0-0.93-0.17-1.6-0.52-1.98c-0.34-0.39-0.96-0.58-1.83-0.58h-1.58V310.64z M96.32,316.86c0-1.06-0.19-1.82-0.56-2.29
			c-0.38-0.47-1-0.7-1.88-0.7h-1.55v6.01h1.55c0.93,0,1.58-0.23,1.92-0.69C96.14,318.73,96.32,317.96,96.32,316.86z"/>
		<path d="M107.08,319.14l-0.85,4.09h-3.9l5.4-21.04h3.66l5.37,21.04h-3.9l-0.85-4.09H107.08z M109.55,307.25l-1.77,8.54h3.54
			L109.55,307.25z"/>
		<path d="M118.42,317.22h3.54c0.04,1.04,0.25,1.8,0.62,2.29c0.38,0.49,0.93,0.73,1.66,0.73s1.27-0.22,1.6-0.67
			c0.33-0.45,0.5-1.16,0.5-2.13c0-0.81-0.19-1.46-0.56-1.94c-0.38-0.48-1.01-0.92-1.91-1.33l-1.43-0.64
			c-1.36-0.61-2.34-1.36-2.94-2.26s-0.9-2.09-0.9-3.6c0-1.77,0.51-3.18,1.54-4.24s2.41-1.59,4.16-1.59c1.73,0,3.06,0.52,4.01,1.57
			c0.94,1.05,1.45,2.56,1.51,4.53h-3.45c-0.02-0.96-0.19-1.67-0.5-2.15c-0.31-0.48-0.84-0.72-1.57-0.72c-1.36,0-2.04,0.8-2.04,2.41
			c0,0.73,0.17,1.32,0.5,1.75c0.33,0.44,0.9,0.83,1.69,1.17l1.37,0.61c1.46,0.65,2.53,1.46,3.19,2.44c0.66,0.98,0.99,2.28,0.99,3.9
			c0,1.95-0.51,3.46-1.52,4.51c-1.02,1.06-2.46,1.58-4.33,1.58c-1.85,0-3.26-0.54-4.24-1.62S118.44,319.24,118.42,317.22z"/>
		<path d="M136.74,310.85h4.88v3.35h-4.88v5.67h5.67v3.35h-9.39v-21.04h9.39v3.38h-5.67V310.85z"/>
		<path d="M151.19,302.19c1.77,0,3.19,0.51,4.25,1.52c1.07,1.02,1.6,2.52,1.6,4.51v8.96c0,1.97-0.56,3.47-1.68,4.5
			s-2.57,1.54-4.36,1.54h-5.64v-21.04H151.19z M152.73,319.05c0.38-0.55,0.56-1.31,0.56-2.29v-7.9c0-1.08-0.18-1.9-0.55-2.45
			c-0.37-0.56-0.91-0.84-1.65-0.84h-2.01v14.3h2.01C151.81,319.88,152.36,319.6,152.73,319.05z"/>
		<path d="M178.09,308.81c0,2.24-0.45,3.9-1.36,5s-2.37,1.65-4.41,1.65h-1.95v7.77h-3.72v-21.04h5.67c2.07,0,3.55,0.55,4.44,1.65
			C177.64,304.94,178.09,306.59,178.09,308.81z M174.34,308.81c0-1.12-0.16-1.94-0.47-2.47c-0.31-0.53-0.87-0.79-1.66-0.79h-1.83
			v6.52h1.83c0.79,0,1.35-0.26,1.66-0.79C174.18,310.75,174.34,309.93,174.34,308.81z"/>
		<path d="M184.46,319.14l-0.85,4.09h-3.9l5.4-21.04h3.66l5.37,21.04h-3.9l-0.85-4.09H184.46z M186.93,307.25l-1.77,8.54h3.54
			L186.93,307.25z"/>
		<path d="M200.34,302.19v21.04h-3.72v-21.04H200.34z"/>
		<path d="M215.83,323.23h-3.75l-4.39-11.22v11.22h-3.75v-21.04h3.75l4.39,11.71v-11.71h3.75V323.23z"/>
		<path d="M225.53,305.58v17.65h-3.72v-17.65h-3.66v-3.38h11.01v3.38H225.53z"/>
	</g>
</g>
<g id="ikon">
	<path class="st1" d="M211.16,135.93c-2.51-9.89-7.49-21.33-14.58-33.53V85.8h-0.01c0-0.11,0.01-0.21,0.01-0.31
		c0-1.34-0.41-3.36-2.36-5.4c-1.17-1.22-2.75-2.33-4.82-3.38c-3.58-1.81-8.6-3.42-14.92-4.77c-12.6-2.7-29.29-4.19-47.01-4.19
		s-34.41,1.49-47.01,4.19c-6.32,1.35-11.34,2.96-14.92,4.77c-2.08,1.05-3.65,2.16-4.82,3.38c-1.95,2.04-2.36,4.07-2.36,5.4
		c0,0.1,0,0.2,0.01,0.31h-0.01v100.88l0,0c0,1.31,0.41,3.3,2.36,5.31c1.17,1.2,2.75,2.29,4.82,3.32c3.58,1.78,8.6,3.36,14.92,4.69
		c12.6,2.65,29.29,4.11,47.01,4.11s34.41-1.46,47.01-4.11c6.32-1.33,11.34-2.91,14.92-4.69c2.08-1.03,3.65-2.12,4.82-3.32
		c1.95-2.01,2.36-3.99,2.36-5.31l0,0v-20.05c-1.65-0.06-3.38-0.32-5.18-0.8c-6.16-1.61-13.33-5.69-21.32-12.11
		c-6.52-5.24-13.54-11.99-20.86-20.05c-11.45-12.62-20.53-25.07-23.8-30.44c0.68,0,1.36,0.01,2.05,0.01c0.79,0,1.58,0,2.37-0.01
		c3.85,5.83,12.15,16.91,22.15,27.93c7.18,7.92,14.06,14.53,20.43,19.65c7.58,6.09,14.29,9.93,19.93,11.41
		c1.5,0.39,2.91,0.62,4.24,0.68v-52.8c5.19,9.72,8.97,18.89,10.96,26.75c1.52,6.01,2,11.14,1.43,15.25
		c-0.55,3.97-2.09,6.87-4.57,8.64c-2.05,1.46-4.4,2.18-7.1,2.18c-0.23,0-0.47-0.01-0.71-0.02v3.73c0.23,0.01,0.46,0.01,0.69,0.01
		c3.49,0,6.6-0.96,9.28-2.86C211.06,160.58,215.52,153.15,211.16,135.93z M192.83,85.8c-0.76,7.6-29.73,13.7-65.36,13.7
		c-4.48,0-8.85-0.1-13.07-0.28c0,0.87,0,1.67,0,1.67v19.25c0,2.06-1.67,3.74-3.74,3.74s-3.74-1.67-3.74-3.47v-5.74
		c-0.66,0.31-1.51,0.91-2.45,0.91c-0.83,0-1.59-0.27-2.21-0.73v10.86c0,2.06-1.67,3.74-3.74,3.74h0c-0.68,0-1.32-0.18-1.86-0.5
		l0.01,13.46c0,3.09-2.51,5.61-5.6,5.61c-3.09,0-5.61-2.51-5.61-5.6l-0.01-8.76c-0.75,0.96-1.79,1.27-2.82,1.27
		c-1.14,0-2.05-0.47-2.79-1.22v23.66c0,3.09-2.51,5.87-5.6,5.87l0,0c-3.09,0-5.6-2.77-5.6-5.87V91.62c-4-1.76-6.33-3.73-6.54-5.81
		c-0.01-0.1-0.02-0.2-0.02-0.31c0-7.74,29.27-14.01,65.38-14.01s65.38,6.27,65.38,14.01C192.84,85.6,192.84,85.7,192.83,85.8z"/>
</g>
</svg>
