<?xml version="1.0" encoding="utf-8"?>
<!-- Generator: Adobe Illustrator 25.4.1, SVG Export Plug-In . SVG Version: 6.00 Build 0)  -->
<svg version="1.1" xmlns="http://www.w3.org/2000/svg" xmlns:xlink="http://www.w3.org/1999/xlink" x="0px" y="0px"
	 viewBox="0 0 271.29 356.19" style="enable-background:new 0 0 271.29 356.19;" xml:space="preserve">
<style type="text/css">
	.st0{fill:#004778;}
	.st1{fill:#FFFFFF;}
	.st2{fill:#004772;}
	.st3{fill:#074576;}
</style>
<g id="bakgrund">
	<g>
		<rect x="1" y="1" class="st0" width="269.29" height="269.29"/>
		<path class="st0" d="M271.29,271.29H0V0h271.29V271.29z M2,269.29h267.29V2H2V269.29z"/>
	</g>
	<rect x="1" y="270.12" class="st1" width="269.29" height="85.04"/>
	<path class="st0" d="M271.29,356.16H0v-87.04h271.29V356.16z M2,354.16h267.29v-83.04H2V354.16z"/>
	<polygon class="st2" points="154.47,52.23 148.59,61.05 161.63,76.46 156.16,87.94 162,95.97 156.16,107.4 177.97,137.39 
		170.97,115.41 174.4,106.75 170.97,95.96 176.92,80.94 170.97,73.57 177.33,58.54 171.3,52.23 	"/>
	<polygon class="st2" points="82.48,186.62 88.3,177.76 75.14,162.44 80.54,150.92 74.64,142.93 80.4,131.47 58.37,101.63 
		65.53,123.56 62.15,132.25 65.67,143.01 59.82,158.07 65.83,165.4 59.57,180.47 65.65,186.74 	"/>
</g>
<g id="namn">
	<g>
		<path d="M66.1,308.71c0,2.24-0.45,3.9-1.36,5s-2.37,1.65-4.41,1.65h-1.95v7.77h-3.72V302.1h5.67c2.07,0,3.55,0.55,4.44,1.65
			C65.66,304.84,66.1,306.5,66.1,308.71z M62.35,308.71c0-1.12-0.16-1.94-0.47-2.47c-0.31-0.53-0.87-0.79-1.66-0.79h-1.83v6.52h1.83
			c0.79,0,1.35-0.26,1.66-0.79C62.19,310.65,62.35,309.83,62.35,308.71z"/>
		<path d="M72.47,319.05l-0.85,4.08h-3.9l5.4-21.04h3.66l5.37,21.04h-3.9l-0.85-4.08H72.47z M74.94,307.16l-1.77,8.54h3.54
			L74.94,307.16z"/>
		<path d="M88.36,302.1v21.04h-3.72V302.1H88.36z"/>
		<path d="M103.85,323.13h-3.75l-4.39-11.22v11.22h-3.75V302.1h3.75l4.39,11.71V302.1h3.75V323.13z"/>
		<path d="M113.54,305.48v17.65h-3.72v-17.65h-3.66v-3.38h11.01v3.38H113.54z"/>
		<path d="M123.21,310.75h4.88v3.35h-4.88v5.67h5.67v3.35h-9.39V302.1h9.39v3.38h-5.67V310.75z"/>
		<path d="M137.66,302.1c1.77,0,3.19,0.51,4.25,1.52c1.07,1.02,1.6,2.52,1.6,4.51v8.96c0,1.97-0.56,3.47-1.68,4.5
			s-2.57,1.54-4.36,1.54h-5.64V302.1H137.66z M139.2,318.96c0.38-0.55,0.56-1.31,0.56-2.29v-7.9c0-1.08-0.18-1.9-0.55-2.45
			c-0.37-0.56-0.91-0.84-1.65-0.84h-2.01v14.3h2.01C138.28,319.78,138.82,319.5,139.2,318.96z"/>
		<path d="M168.45,323.13h-4.05l-2.29-12.93l-2.32,12.93h-4.02l-3.75-21.04h3.81l2.04,15.73l1.98-15.73h4.57l1.98,15.73l2.04-15.73
			h3.75L168.45,323.13z"/>
		<path d="M174.46,317.34v-9.48c0-1.99,0.56-3.5,1.68-4.53c1.12-1.03,2.59-1.54,4.42-1.54c1.77,0,3.19,0.51,4.25,1.54
			s1.6,2.54,1.6,4.53v9.48c0,1.95-0.56,3.44-1.69,4.48c-1.13,1.04-2.59,1.55-4.37,1.55c-1.81,0-3.24-0.51-4.3-1.54
			C174.99,320.81,174.46,319.31,174.46,317.34z M182.66,316.91v-8.45c0-1.08-0.18-1.9-0.55-2.45c-0.37-0.56-0.91-0.84-1.65-0.84
			c-0.79,0-1.37,0.27-1.72,0.82c-0.36,0.55-0.53,1.37-0.53,2.47v8.45c0,2.05,0.75,3.08,2.26,3.08c0.71,0,1.26-0.27,1.63-0.81
			C182.47,318.65,182.66,317.89,182.66,316.91z"/>
		<path d="M189.64,317.34v-9.48c0-1.99,0.56-3.5,1.68-4.53c1.12-1.03,2.59-1.54,4.42-1.54c1.77,0,3.19,0.51,4.25,1.54
			s1.6,2.54,1.6,4.53v9.48c0,1.95-0.56,3.44-1.69,4.48c-1.13,1.04-2.59,1.55-4.37,1.55c-1.81,0-3.24-0.51-4.3-1.54
			C190.17,320.81,189.64,319.31,189.64,317.34z M197.84,316.91v-8.45c0-1.08-0.18-1.9-0.55-2.45c-0.37-0.56-0.91-0.84-1.65-0.84
			c-0.79,0-1.37,0.27-1.72,0.82c-0.36,0.55-0.53,1.37-0.53,2.47v8.45c0,2.05,0.75,3.08,2.26,3.08c0.71,0,1.26-0.27,1.63-0.81
			C197.66,318.65,197.84,317.89,197.84,316.91z"/>
		<path d="M210.77,302.1c1.77,0,3.19,0.51,4.25,1.52c1.07,1.02,1.6,2.52,1.6,4.51v8.96c0,1.97-0.56,3.47-1.68,4.5
			s-2.57,1.54-4.36,1.54h-5.64V302.1H210.77z M212.31,318.96c0.38-0.55,0.56-1.31,0.56-2.29v-7.9c0-1.08-0.18-1.9-0.55-2.45
			c-0.37-0.56-0.91-0.84-1.65-0.84h-2.01v14.3h2.01C211.39,319.78,211.93,319.5,212.31,318.96z"/>
	</g>
</g>
<g id="ikon">
	<path class="st1" d="M39.14,133.86h130.48V94.71H39.14V133.86z M104.38,108.58c3.15,0,5.71,2.56,5.71,5.71
		c0,3.15-2.56,5.71-5.71,5.71c-3.15,0-5.71-2.56-5.71-5.71C98.67,111.13,101.23,108.58,104.38,108.58"/>
	<path class="st1" d="M39.14,91.39h130.48V52.24H39.14V91.39z M104.38,77.52c-3.15,0-5.71-2.56-5.71-5.71
		c0-3.15,2.56-5.71,5.71-5.71c3.15,0,5.71,2.56,5.71,5.71C110.09,74.97,107.53,77.52,104.38,77.52"/>
	<path class="st1" d="M39.14,176.33h130.48v-39.15H39.14V176.33z M104.38,151.05c3.15,0,5.71,2.56,5.71,5.71s-2.56,5.71-5.71,5.71
		c-3.15,0-5.71-2.56-5.71-5.71S101.23,151.05,104.38,151.05"/>
	<rect x="39.14" y="179.59" class="st1" width="6.52" height="29.36"/>
	<rect x="163.1" y="179.59" class="st1" width="6.52" height="29.36"/>
	<path class="st1" d="M232.15,114.51v-6.78c-6.28-0.01-11.37-5.09-11.41-11.36h0V66.22c0-2.24-1.83-4.08-4.08-4.08
		c-2.24,0-4.08,1.84-4.08,4.08v30.15h0c-0.03,6.28-5.13,11.36-11.42,11.36h-0.01v6.7L232.15,114.51z"/>
	<path class="st1" d="M201.17,117.69v9.77c0,1.32,0.07,5.47-2.03,9.36c-2,3.72-3.44,3.98-2.99,4.77c0.61,1.09,4.14,2.03,5.93,1.34
		c2.17-0.84,4.56-3.77,5.47-7.37c0.52-2.08,2.51,1.37,1.13,4.98c-0.82,2.11-0.55,2.09,0.09,2.78c1.33,1.45,13.5,0.47,14.1,0.41
		c7.7-0.79,9.3-7.9,9.3-20.08v-5.86L201.17,117.69z"/>
	<polygon class="st3" points="154.47,52.13 148.59,60.96 161.63,76.37 156.15,87.84 162,95.88 156.15,107.3 177.97,137.29 
		170.96,115.32 174.4,106.65 170.96,95.86 176.92,80.85 170.96,73.47 177.33,58.45 171.3,52.13 	"/>
	<polygon class="st3" points="82.48,186.53 88.3,177.66 75.14,162.34 80.54,150.83 74.64,142.84 80.4,131.37 58.37,101.54 
		65.53,123.46 62.15,132.15 65.67,142.92 59.82,157.97 65.83,165.31 59.57,180.38 65.65,186.65 	"/>
</g>
</svg>
