<?xml version="1.0" encoding="utf-8"?>
<!-- Generator: Adobe Illustrator 25.4.1, SVG Export Plug-In . SVG Version: 6.00 Build 0)  -->
<svg version="1.1" xmlns="http://www.w3.org/2000/svg" xmlns:xlink="http://www.w3.org/1999/xlink" x="0px" y="0px"
	 viewBox="0 0 271.29 354.19" style="enable-background:new 0 0 271.29 354.19;" xml:space="preserve">
<style type="text/css">
	.st0{fill:#007EBF;}
	.st1{fill:#FFFFFF;}
</style>
<g id="bakgrund">
	<g>
		<rect x="1" y="1" class="st0" width="269.29" height="269.29"/>
		<path class="st0" d="M271.29,271.29H0V0h271.29V271.29z M2,269.29h267.29V2H2V269.29z"/>
	</g>
	<g>
		<rect x="1" y="268.15" class="st1" width="269.29" height="85.04"/>
		<path class="st0" d="M271.29,354.19H0v-87.04h271.29V354.19z M2,352.19h267.29v-83.04H2V352.19z"/>
	</g>
</g>
<g id="namn">
	<g>
		<path d="M112.85,306.76c0,2.24-0.45,3.9-1.36,5s-2.37,1.65-4.41,1.65h-1.95v7.77h-3.72v-21.04h5.67c2.07,0,3.55,0.55,4.44,1.65
			C112.41,302.89,112.85,304.55,112.85,306.76z M109.1,306.76c0-1.12-0.16-1.94-0.47-2.47c-0.31-0.53-0.87-0.79-1.66-0.79h-1.83
			v6.52h1.83c0.79,0,1.35-0.26,1.66-0.79C108.95,308.7,109.1,307.88,109.1,306.76z"/>
		<path d="M119.23,317.1l-0.85,4.09h-3.9l5.4-21.04h3.66l5.37,21.04h-3.9l-0.85-4.09H119.23z M121.7,305.21l-1.77,8.54h3.54
			L121.7,305.21z"/>
		<path d="M142.7,306.76c0,2.24-0.45,3.9-1.36,5s-2.37,1.65-4.41,1.65h-1.95v7.77h-3.72v-21.04h5.67c2.07,0,3.55,0.55,4.44,1.65
			C142.26,302.89,142.7,304.55,142.7,306.76z M138.95,306.76c0-1.12-0.16-1.94-0.47-2.47c-0.31-0.53-0.87-0.79-1.66-0.79h-1.83v6.52
			h1.83c0.79,0,1.35-0.26,1.66-0.79C138.8,308.7,138.95,307.88,138.95,306.76z"/>
		<path d="M149.14,308.81h4.88v3.35h-4.88v5.67h5.67v3.35h-9.39v-21.04h9.39v3.38h-5.67V308.81z"/>
		<path d="M161.52,312.74v8.45h-3.75v-21.04h5.73c2.07,0,3.54,0.5,4.41,1.49c0.86,1,1.3,2.59,1.3,4.79c0,1.4-0.19,2.57-0.58,3.51
			s-1.02,1.64-1.89,2.1l3.14,9.15h-3.9l-2.65-8.45H161.52z M163.47,309.38c0.75,0,1.27-0.25,1.55-0.75c0.29-0.5,0.43-1.23,0.43-2.21
			s-0.14-1.71-0.41-2.2c-0.27-0.49-0.8-0.73-1.57-0.73h-1.95v5.88H163.47z"/>
	</g>
</g>
<g id="ikon">
	<g>
		<g>
			<g>
				<polygon class="st1" points="134.06,110.31 134.05,59.26 83.07,110.31 				"/>
			</g>
			<g>
				<polygon class="st1" points="137.22,56.55 137.22,113.47 80.28,113.47 80.28,214.75 191.02,214.75 191.02,56.55 				"/>
			</g>
		</g>
	</g>
</g>
</svg>
