<?xml version="1.0" encoding="utf-8"?>
<!-- Generator: Adobe Illustrator 25.4.1, SVG Export Plug-In . SVG Version: 6.00 Build 0)  -->
<svg version="1.1" xmlns="http://www.w3.org/2000/svg" xmlns:xlink="http://www.w3.org/1999/xlink" x="0px" y="0px"
	 viewBox="0 0 271.29 356.19" style="enable-background:new 0 0 271.29 356.19;" xml:space="preserve">
<style type="text/css">
	.st0{fill:#C4A166;}
	.st1{fill:#FFFFFF;}
</style>
<g id="bakgrund">
	<g>
		<rect x="1" y="1" class="st0" width="269.29" height="269.29"/>
		<path class="st0" d="M271.29,271.29H0V0h271.29V271.29z M2,269.29h267.29V2H2V269.29z"/>
	</g>
	<g>
		<rect x="1" y="270.15" class="st1" width="269.29" height="85.04"/>
		<path class="st0" d="M271.29,356.19H0v-87.04h271.29V356.19z M2,354.19h267.29v-83.04H2V354.19z"/>
	</g>
</g>
<g id="namn">
	<g>
		<path d="M45.56,308.79c0,2.24-0.45,3.9-1.36,5s-2.37,1.65-4.41,1.65h-1.95v7.77h-3.72v-21.04h5.67c2.07,0,3.55,0.55,4.44,1.65
			C45.12,304.92,45.56,306.58,45.56,308.79z M41.81,308.79c0-1.12-0.16-1.94-0.47-2.47c-0.31-0.53-0.87-0.79-1.66-0.79h-1.83v6.52
			h1.83c0.79,0,1.35-0.26,1.66-0.79C41.66,310.73,41.81,309.91,41.81,308.79z"/>
		<path d="M51.94,319.13l-0.85,4.09h-3.9l5.4-21.04h3.66l5.37,21.04h-3.9l-0.85-4.09H51.94z M54.41,307.24l-1.77,8.54h3.54
			L54.41,307.24z"/>
		<path d="M75.41,308.79c0,2.24-0.45,3.9-1.36,5s-2.37,1.65-4.41,1.65H67.7v7.77h-3.72v-21.04h5.67c2.07,0,3.55,0.55,4.44,1.65
			C74.97,304.92,75.41,306.58,75.41,308.79z M71.66,308.79c0-1.12-0.16-1.94-0.47-2.47c-0.31-0.53-0.87-0.79-1.66-0.79H67.7v6.52
			h1.83c0.79,0,1.35-0.26,1.66-0.79C71.51,310.73,71.66,309.91,71.66,308.79z"/>
		<path d="M81.85,310.84h4.88v3.35h-4.88v5.67h5.67v3.35h-9.39v-21.04h9.39v3.38h-5.67V310.84z"/>
		<path d="M94.23,314.77v8.45h-3.75v-21.04h5.73c2.07,0,3.54,0.5,4.41,1.49c0.86,1,1.3,2.59,1.3,4.79c0,1.4-0.19,2.57-0.58,3.51
			c-0.39,0.93-1.02,1.64-1.89,2.1l3.14,9.15h-3.9l-2.65-8.45H94.23z M96.18,311.42c0.75,0,1.27-0.25,1.55-0.75
			c0.29-0.5,0.43-1.23,0.43-2.21s-0.14-1.71-0.41-2.2c-0.27-0.49-0.8-0.73-1.57-0.73h-1.95v5.88H96.18z"/>
		<path d="M123.1,308.79c0,2.24-0.45,3.9-1.36,5s-2.37,1.65-4.41,1.65h-1.95v7.77h-3.72v-21.04h5.67c2.07,0,3.55,0.55,4.44,1.65
			C122.66,304.92,123.1,306.58,123.1,308.79z M119.35,308.79c0-1.12-0.16-1.94-0.47-2.47c-0.31-0.53-0.87-0.79-1.66-0.79h-1.83v6.52
			h1.83c0.79,0,1.35-0.26,1.66-0.79C119.19,310.73,119.35,309.91,119.35,308.79z"/>
		<path d="M129.47,319.13l-0.85,4.09h-3.9l5.4-21.04h3.66l5.37,21.04h-3.9l-0.85-4.09H129.47z M131.94,307.24l-1.77,8.54h3.54
			L131.94,307.24z"/>
		<path d="M141.39,317.42v-9.48c0-1.99,0.56-3.5,1.68-4.53c1.12-1.03,2.59-1.54,4.42-1.54c1.75,0,3.16,0.51,4.24,1.52
			c1.08,1.02,1.62,2.56,1.62,4.63v0.64h-3.75v-0.61c0-0.96-0.2-1.66-0.59-2.12c-0.4-0.46-0.93-0.69-1.6-0.69
			c-0.79,0-1.37,0.27-1.72,0.82c-0.36,0.55-0.53,1.37-0.53,2.47v8.44c0,2.05,0.75,3.08,2.26,3.08c0.67,0,1.21-0.23,1.6-0.7
			c0.4-0.47,0.59-1.16,0.59-2.07v-0.55h3.72v0.58c0,2.03-0.56,3.56-1.69,4.59s-2.58,1.54-4.34,1.54c-1.81,0-3.24-0.51-4.3-1.54
			C141.92,320.89,141.39,319.39,141.39,317.42z"/>
		<path d="M160.42,318.46v4.76h-3.72v-21.04h3.72v9.91l4.48-9.91h3.75l-4.39,8.66l5.06,12.38h-3.99l-3.2-8.14L160.42,318.46z"/>
		<path d="M175.3,319.13l-0.85,4.09h-3.9l5.4-21.04h3.66l5.37,21.04h-3.9l-0.85-4.09H175.3z M177.77,307.24l-1.77,8.54h3.54
			L177.77,307.24z"/>
		<path d="M187.22,317.42v-9.48c0-1.99,0.56-3.5,1.68-4.53c1.12-1.03,2.59-1.54,4.42-1.54c1.75,0,3.16,0.5,4.24,1.49
			c1.08,1,1.62,2.47,1.62,4.42v0.64h-3.75v-0.64c0-0.81-0.2-1.44-0.61-1.88c-0.41-0.44-0.94-0.66-1.59-0.66
			c-0.79,0-1.37,0.27-1.72,0.82c-0.36,0.55-0.53,1.37-0.53,2.47v8.44c0,2.05,0.75,3.08,2.26,3.08c0.73,0,1.28-0.25,1.65-0.75
			c0.37-0.5,0.55-1.21,0.55-2.15v-2.23h-2.22v-2.96h5.97v5.43c0,1.95-0.56,3.45-1.69,4.48c-1.13,1.04-2.59,1.55-4.38,1.55
			c-1.81,0-3.24-0.51-4.3-1.54C187.75,320.89,187.22,319.39,187.22,317.42z"/>
		<path d="M206.37,302.18v21.04h-3.72v-21.04H206.37z"/>
		<path d="M221.85,323.21h-3.75l-4.39-11.22v11.22h-3.75v-21.04h3.75l4.39,11.71v-11.71h3.75V323.21z"/>
		<path d="M225.21,317.42v-9.48c0-1.99,0.56-3.5,1.68-4.53c1.12-1.03,2.59-1.54,4.42-1.54c1.75,0,3.16,0.5,4.24,1.49
			c1.08,1,1.62,2.47,1.62,4.42v0.64h-3.75v-0.64c0-0.81-0.2-1.44-0.61-1.88c-0.41-0.44-0.94-0.66-1.59-0.66
			c-0.79,0-1.37,0.27-1.72,0.82s-0.53,1.37-0.53,2.47v8.44c0,2.05,0.75,3.08,2.26,3.08c0.73,0,1.28-0.25,1.65-0.75
			s0.55-1.21,0.55-2.15v-2.23h-2.23v-2.96h5.98v5.43c0,1.95-0.56,3.45-1.69,4.48c-1.13,1.04-2.59,1.55-4.37,1.55
			c-1.81,0-3.24-0.51-4.3-1.54C225.74,320.89,225.21,319.39,225.21,317.42z"/>
	</g>
</g>
<g id="ikon">
	<g>
		<g>
			<rect x="85.73" y="99.33" class="st1" width="67.31" height="123.86"/>
		</g>
		<g>
			<polygon class="st1" points="166.74,66.8 99.37,66.8 85.6,96.33 152.97,96.33 			"/>
		</g>
		<g>
			<polygon class="st1" points="156.16,223.19 156.04,99.33 185.7,74.34 185.7,197.74 			"/>
		</g>
		<g>
			<rect x="99.18" y="48.1" class="st1" width="67.56" height="15.69"/>
		</g>
		<g>
			<polygon class="st1" points="169.74,66.8 185.7,71.72 156.04,96.33 			"/>
		</g>
	</g>
</g>
</svg>
