<?xml version="1.0" encoding="utf-8"?>
<!-- Generator: Adobe Illustrator 25.4.1, SVG Export Plug-In . SVG Version: 6.00 Build 0)  -->
<svg version="1.1" xmlns="http://www.w3.org/2000/svg" xmlns:xlink="http://www.w3.org/1999/xlink" x="0px" y="0px"
	 viewBox="0 0 271.29 356.19" style="enable-background:new 0 0 271.29 356.19;" xml:space="preserve">
<style type="text/css">
	.st0{fill:#004778;}
	.st1{fill:#FFFFFF;}
</style>
<g id="bakgrund">
	<g>
		<rect x="1" y="1" class="st0" width="269.29" height="269.29"/>
		<path class="st0" d="M271.29,271.29H0V0h271.29V271.29z M2,269.29h267.29V2H2V269.29z"/>
	</g>
	<rect x="1" y="270.08" class="st1" width="269.29" height="85.04"/>
	<path class="st0" d="M271.29,356.12H0v-87.04h271.29V356.12z M2,354.12h267.29v-83.04H2V354.12z"/>
</g>
<g id="namn">
	<g>
		<path d="M38.2,308.7c0,2.24-0.45,3.9-1.36,5s-2.37,1.65-4.41,1.65h-1.95v7.77h-3.72v-21.04h5.67c2.07,0,3.55,0.55,4.44,1.65
			C37.76,304.83,38.2,306.49,38.2,308.7z M34.45,308.7c0-1.12-0.16-1.94-0.47-2.47c-0.31-0.53-0.87-0.79-1.66-0.79h-1.83v6.52h1.83
			c0.79,0,1.35-0.26,1.66-0.79C34.29,310.64,34.45,309.82,34.45,308.7z"/>
		<path d="M40.79,317.33v-9.48c0-1.99,0.56-3.5,1.68-4.53c1.12-1.03,2.59-1.54,4.42-1.54c1.77,0,3.19,0.51,4.25,1.54
			s1.6,2.54,1.6,4.53v9.48c0,1.95-0.56,3.44-1.69,4.48c-1.13,1.04-2.59,1.55-4.37,1.55c-1.81,0-3.24-0.51-4.3-1.54
			C41.32,320.8,40.79,319.3,40.79,317.33z M49,316.9v-8.45c0-1.08-0.18-1.9-0.55-2.45c-0.37-0.56-0.91-0.84-1.65-0.84
			c-0.79,0-1.37,0.27-1.72,0.82c-0.36,0.55-0.53,1.37-0.53,2.47v8.45c0,2.05,0.75,3.08,2.26,3.08c0.71,0,1.26-0.27,1.63-0.81
			C48.81,318.63,49,317.88,49,316.9z"/>
		<path d="M59.85,314.68v8.44H56.1v-21.04h5.73c2.07,0,3.54,0.5,4.41,1.49c0.86,1,1.3,2.59,1.3,4.79c0,1.4-0.19,2.57-0.58,3.51
			c-0.39,0.93-1.02,1.64-1.89,2.1l3.14,9.15h-3.9l-2.65-8.44H59.85z M61.8,311.32c0.75,0,1.27-0.25,1.55-0.75
			c0.29-0.5,0.43-1.24,0.43-2.21s-0.14-1.71-0.41-2.19c-0.27-0.49-0.8-0.73-1.57-0.73h-1.95v5.88H61.8z"/>
		<path d="M70.92,317.33v-9.48c0-1.99,0.56-3.5,1.68-4.53c1.12-1.03,2.59-1.54,4.42-1.54c1.75,0,3.16,0.51,4.24,1.52
			c1.08,1.02,1.62,2.56,1.62,4.63v0.64h-3.75v-0.61c0-0.96-0.2-1.66-0.59-2.12c-0.4-0.46-0.93-0.69-1.6-0.69
			c-0.79,0-1.37,0.27-1.72,0.82c-0.36,0.55-0.53,1.37-0.53,2.47v8.45c0,2.05,0.75,3.08,2.26,3.08c0.67,0,1.21-0.23,1.6-0.7
			c0.4-0.47,0.59-1.16,0.59-2.07v-0.55h3.72v0.58c0,2.03-0.56,3.56-1.69,4.59s-2.58,1.54-4.34,1.54c-1.81,0-3.24-0.51-4.3-1.54
			C71.45,320.8,70.92,319.3,70.92,317.33z"/>
		<path d="M89.94,310.74h4.88v3.35h-4.88v5.67h5.67v3.35h-9.39v-21.04h9.39v3.38h-5.67V310.74z"/>
		<path d="M102.32,302.09v17.68h5.64v3.35h-9.39v-21.04H102.32z"/>
		<path d="M114.33,319.04l-0.85,4.08h-3.9l5.4-21.04h3.66l5.37,21.04h-3.9l-0.85-4.08H114.33z M116.8,307.15l-1.77,8.54h3.54
			L116.8,307.15z"/>
		<path d="M130.22,302.09v21.04h-3.72v-21.04H130.22z"/>
		<path d="M145.71,323.12h-3.75l-4.39-11.22v11.22h-3.75v-21.04h3.75l4.39,11.71v-11.71h3.75V323.12z"/>
		<path d="M168.27,320.04h0.37v3.08h-1.46c-0.67,0-1.18-0.12-1.54-0.37c-0.36-0.24-0.75-0.7-1.17-1.37
			c-0.57,0.73-1.21,1.25-1.92,1.57c-0.71,0.31-1.53,0.47-2.47,0.47c-1.42,0-2.57-0.45-3.44-1.34s-1.31-2.08-1.31-3.57
			c0-1.06,0.26-2.1,0.78-3.12c0.52-1.03,1.39-2.19,2.61-3.49c-0.79-1.3-1.36-2.34-1.69-3.12s-0.5-1.57-0.5-2.36
			c0-1.38,0.44-2.5,1.31-3.35s2.01-1.28,3.42-1.28c1.38,0,2.51,0.43,3.38,1.28s1.31,1.97,1.31,3.35c0,0.89-0.23,1.81-0.7,2.74
			c-0.47,0.93-1.25,1.99-2.35,3.17l1.86,3.11l1.4-2.26l2.53,1.74l-2.2,3.42l0.55,0.91c0.16,0.29,0.34,0.49,0.53,0.61
			C167.74,319.98,167.98,320.04,168.27,320.04z M162.78,318.61l-2.35-3.84c-0.59,0.67-1,1.27-1.23,1.78
			c-0.23,0.52-0.35,1.05-0.35,1.6c0,0.65,0.15,1.15,0.44,1.49c0.29,0.35,0.7,0.52,1.2,0.52c0.41,0,0.78-0.11,1.13-0.33
			C161.97,319.61,162.35,319.2,162.78,318.61z M159.88,306.23c0,0.37,0.09,0.79,0.26,1.27c0.17,0.48,0.49,1.11,0.96,1.91
			c0.57-0.65,0.95-1.2,1.14-1.66c0.19-0.46,0.29-0.96,0.29-1.51s-0.12-0.97-0.35-1.25s-0.55-0.43-0.96-0.43
			c-0.43,0-0.76,0.15-0.99,0.44C160,305.29,159.88,305.7,159.88,306.23z"/>
		<path d="M178.15,317.33v-9.48c0-1.99,0.56-3.5,1.68-4.53c1.12-1.03,2.59-1.54,4.42-1.54c1.75,0,3.16,0.51,4.24,1.52
			c1.08,1.02,1.62,2.56,1.62,4.63v0.64h-3.75v-0.61c0-0.96-0.2-1.66-0.59-2.12c-0.4-0.46-0.93-0.69-1.6-0.69
			c-0.79,0-1.37,0.27-1.72,0.82c-0.36,0.55-0.53,1.37-0.53,2.47v8.45c0,2.05,0.75,3.08,2.26,3.08c0.67,0,1.21-0.23,1.6-0.7
			c0.4-0.47,0.59-1.16,0.59-2.07v-0.55h3.72v0.58c0,2.03-0.56,3.56-1.69,4.59s-2.58,1.54-4.34,1.54c-1.81,0-3.24-0.51-4.3-1.54
			C178.68,320.8,178.15,319.3,178.15,317.33z"/>
		<path d="M204.92,323.12h-3.75v-9.02h-3.96v9.02h-3.75v-21.04h3.75v8.66h3.96v-8.66h3.75V323.12z"/>
		<path d="M212.24,302.09v21.04h-3.72v-21.04H212.24z"/>
		<path d="M227.72,323.12h-3.75l-4.39-11.22v11.22h-3.75v-21.04h3.75l4.39,11.71v-11.71h3.75V323.12z"/>
		<path d="M234.86,319.04l-0.85,4.08h-3.9l5.4-21.04h3.66l5.37,21.04h-3.9l-0.85-4.08H234.86z M237.33,307.15l-1.77,8.54h3.54
			L237.33,307.15z"/>
	</g>
</g>
<g id="ikon">
	<path class="st1" d="M209.21,93.71L209.21,93.71l-16.03-0.01V81.9H74.88l3.83,4.41L74.26,96.8l4.16,5.15l-4.16,10.48l4.89,15.34
		l-15.22-20.93l3.82-8.01l-9.11-10.76l4.11-6.16H38.69v35.68l0,0c0,0,0,0,0,0v0.33h0c0.14,32.59,20.68,60.4,49.58,71.46h55.32
		c15.31-5.86,28.27-16.42,37.1-29.89c9.1-0.69,20.05-4.38,29.34-9.96c12.2-7.34,20.03-16.86,22.04-26.81l0,0
		c0.35-1.63,0.53-3.32,0.53-5.05C232.6,104.62,222.15,93.97,209.21,93.71z M223.79,121.03L223.79,121.03
		c-1.53,7.59-7.96,15.13-18.11,21.23c-6.18,3.71-13.32,6.52-19.8,7.91c4.62-9.8,7.23-20.73,7.28-32.26h0v-0.25h0.09
		c0-8.55,6.93-15.51,15.45-15.51h0c8.52,0,15.45,6.96,15.45,15.51C224.16,118.82,224.03,119.95,223.79,121.03z"/>
</g>
</svg>
