<?xml version="1.0" encoding="utf-8"?>
<!-- Generator: Adobe Illustrator 25.4.1, SVG Export Plug-In . SVG Version: 6.00 Build 0)  -->
<svg version="1.1" xmlns="http://www.w3.org/2000/svg" xmlns:xlink="http://www.w3.org/1999/xlink" x="0px" y="0px"
	 viewBox="0 0 271.29 355.96" style="enable-background:new 0 0 271.29 355.96;" xml:space="preserve">
<style type="text/css">
	.st0{fill:#86BD40;}
	.st1{fill:#FFFFFF;}
</style>
<g id="bakgrund">
	<g>
		<rect x="1" y="1" class="st0" width="269.29" height="269.29"/>
		<path class="st0" d="M271.29,271.29H0V0h271.29V271.29z M2,269.29h267.29V2H2V269.29z"/>
	</g>
	<g>
		<rect x="1" y="269.92" class="st1" width="269.29" height="85.04"/>
		<path class="st0" d="M271.29,355.96H0v-87.04h271.29V355.96z M2,353.96h267.29v-83.04H2V353.96z"/>
	</g>
</g>
<g id="namn">
	<g>
		<path d="M106.63,314.55V323h-3.75v-21.04h5.73c2.07,0,3.54,0.5,4.41,1.49c0.86,1,1.3,2.59,1.3,4.79c0,1.4-0.19,2.57-0.58,3.51
			c-0.39,0.94-1.02,1.64-1.89,2.1l3.14,9.15h-3.9l-2.65-8.45H106.63z M108.59,311.2c0.75,0,1.27-0.25,1.55-0.75
			c0.29-0.5,0.43-1.24,0.43-2.21s-0.14-1.71-0.41-2.2c-0.27-0.49-0.8-0.73-1.57-0.73h-1.95v5.88H108.59z"/>
		<path d="M121.54,310.62h4.88v3.35h-4.88v5.67h5.67V323h-9.39v-21.04h9.39v3.38h-5.67V310.62z"/>
		<path d="M130.92,320.5c-0.5-0.87-0.75-1.88-0.75-3.02v-15.52h3.75v15.43c0,0.85,0.16,1.48,0.49,1.88s0.82,0.59,1.49,0.59
			c1.32,0,1.98-0.82,1.98-2.47v-15.43h3.75v15.52c0,1.14-0.24,2.14-0.73,3.02c-0.49,0.87-1.17,1.55-2.04,2.03
			c-0.87,0.48-1.86,0.72-2.96,0.72s-2.08-0.24-2.94-0.72C132.1,322.05,131.42,321.37,130.92,320.5z"/>
		<path d="M144.41,316.99h3.54c0.04,1.04,0.25,1.8,0.62,2.29c0.38,0.49,0.93,0.73,1.66,0.73s1.27-0.22,1.6-0.67s0.5-1.16,0.5-2.13
			c0-0.81-0.19-1.46-0.56-1.94c-0.38-0.48-1.01-0.92-1.91-1.33l-1.43-0.64c-1.36-0.61-2.34-1.36-2.94-2.26s-0.9-2.09-0.9-3.6
			c0-1.77,0.51-3.18,1.54-4.24c1.03-1.06,2.41-1.58,4.16-1.58c1.73,0,3.06,0.52,4.01,1.57c0.94,1.05,1.45,2.55,1.51,4.53h-3.45
			c-0.02-0.96-0.19-1.67-0.5-2.15c-0.31-0.48-0.84-0.72-1.57-0.72c-1.36,0-2.04,0.8-2.04,2.41c0,0.73,0.17,1.32,0.5,1.75
			c0.33,0.44,0.9,0.83,1.69,1.17l1.37,0.61c1.46,0.65,2.53,1.46,3.19,2.44c0.66,0.98,0.99,2.28,0.99,3.9c0,1.95-0.51,3.46-1.52,4.51
			c-1.02,1.06-2.46,1.59-4.33,1.59c-1.85,0-3.26-0.54-4.24-1.62S144.43,319.01,144.41,316.99z"/>
		<path d="M162.74,310.62h4.88v3.35h-4.88v5.67h5.67V323h-9.39v-21.04h9.39v3.38h-5.67V310.62z"/>
	</g>
</g>
<g id="ikon">
	<g>
		<path class="st1" d="M108.45,81.03c8.3-4.72,17.71-7.24,27.52-7.24c14.89,0,28.89,5.8,39.42,16.33c3.38,3.38,6.26,7.11,8.63,11.11
			l-18.49,10.98l48.51,17.46l6.15-49.91l-17,10.09c-3.32-5.63-7.35-10.81-12.03-15.49c-7.16-7.16-15.51-12.79-24.8-16.72
			c-9.63-4.07-19.85-6.14-30.38-6.14c-10.53,0-20.75,2.06-30.38,6.14c-0.39,0.16-0.78,0.33-1.16,0.5L108.45,81.03z"/>
		<path class="st1" d="M108.21,177.9c-4.21-2.43-8.13-5.42-11.66-8.95c-10.53-10.53-16.33-24.53-16.33-39.42
			c0-9.92,2.57-19.44,7.4-27.8l18.78,10.6l-8.91-50.72L51.12,81.13l17.09,9.65c-1.54,2.7-2.93,5.49-4.15,8.38
			c-4.07,9.63-6.14,19.85-6.14,30.38c0,10.53,2.06,20.75,6.14,30.38c3.93,9.29,9.56,17.64,16.72,24.8c2.95,2.95,6.1,5.63,9.43,8.05
			L108.21,177.9z"/>
		<path class="st1" d="M191.71,129.54c0,14.89-5.8,28.88-16.33,39.41c-10.4,10.4-24.19,16.18-38.87,16.32l0-21.07l-39.78,32.82
			l39.76,30.79l0-20.23c10.34-0.07,20.38-2.13,29.84-6.13c9.29-3.93,17.64-9.56,24.8-16.72c7.16-7.16,12.79-15.51,16.72-24.8
			c3.05-7.21,4.97-14.75,5.75-22.5L191.71,129.54z"/>
	</g>
</g>
</svg>
