<?xml version="1.0" encoding="utf-8"?>
<!-- Generator: Adobe Illustrator 25.4.1, SVG Export Plug-In . SVG Version: 6.00 Build 0)  -->
<svg version="1.1" xmlns="http://www.w3.org/2000/svg" xmlns:xlink="http://www.w3.org/1999/xlink" x="0px" y="0px"
	 viewBox="0 0 271.29 356.19" style="enable-background:new 0 0 271.29 356.19;" xml:space="preserve">
<style type="text/css">
	.st0{fill:#004778;}
	.st1{fill:#FFFFFF;}
</style>
<g id="bakgrund">
	<g>
		<rect x="1" y="1" class="st0" width="269.29" height="269.29"/>
		<path class="st0" d="M271.29,271.29H0V0h271.29V271.29z M2,269.29h267.29V2H2V269.29z"/>
	</g>
	<rect x="1" y="270.15" class="st1" width="269.29" height="85.04"/>
	<path class="st0" d="M271.29,356.19H0v-87.04h271.29V356.19z M2,354.19h267.29v-83.04H2V354.19z"/>
</g>
<g id="namn">
	<g>
		<path d="M65.25,314.77v8.45H61.5v-21.04h5.73c2.07,0,3.54,0.5,4.41,1.49c0.86,1,1.3,2.59,1.3,4.79c0,1.4-0.19,2.57-0.58,3.51
			c-0.39,0.93-1.02,1.64-1.89,2.1l3.14,9.15h-3.9l-2.65-8.45H65.25z M67.2,311.42c0.75,0,1.27-0.25,1.55-0.75
			c0.29-0.5,0.43-1.23,0.43-2.21s-0.14-1.71-0.41-2.2c-0.27-0.49-0.8-0.73-1.57-0.73h-1.95v5.88H67.2z"/>
		<path d="M76.31,317.42v-9.48c0-1.99,0.56-3.5,1.68-4.53c1.12-1.03,2.59-1.54,4.42-1.54c1.77,0,3.19,0.51,4.25,1.54
			s1.6,2.54,1.6,4.53v9.48c0,1.95-0.56,3.45-1.69,4.48c-1.13,1.04-2.59,1.55-4.37,1.55c-1.81,0-3.24-0.51-4.3-1.54
			C76.84,320.89,76.31,319.39,76.31,317.42z M84.51,316.99v-8.44c0-1.08-0.18-1.9-0.55-2.46c-0.37-0.56-0.91-0.84-1.65-0.84
			c-0.79,0-1.37,0.27-1.72,0.82c-0.36,0.55-0.53,1.37-0.53,2.47v8.44c0,2.05,0.75,3.08,2.26,3.08c0.71,0,1.26-0.27,1.63-0.81
			C84.33,318.73,84.51,317.97,84.51,316.99z"/>
		<path d="M91.5,317.42v-9.48c0-1.99,0.56-3.5,1.68-4.53c1.12-1.03,2.59-1.54,4.42-1.54c1.77,0,3.19,0.51,4.25,1.54
			s1.6,2.54,1.6,4.53v9.48c0,1.95-0.56,3.45-1.69,4.48c-1.13,1.04-2.59,1.55-4.37,1.55c-1.81,0-3.24-0.51-4.3-1.54
			C92.03,320.89,91.5,319.39,91.5,317.42z M99.7,316.99v-8.44c0-1.08-0.18-1.9-0.55-2.46c-0.37-0.56-0.91-0.84-1.65-0.84
			c-0.79,0-1.37,0.27-1.72,0.82c-0.36,0.55-0.53,1.37-0.53,2.47v8.44c0,2.05,0.75,3.08,2.26,3.08c0.71,0,1.26-0.27,1.63-0.81
			C99.51,318.73,99.7,317.97,99.7,316.99z"/>
		<path d="M110.55,310.93h4.88v3.38h-4.88v8.9h-3.75v-21.04h9.39v3.38h-5.64V310.93z"/>
		<path d="M122.87,302.18v21.04h-3.72v-21.04H122.87z"/>
		<path d="M138.36,323.21h-3.75l-4.39-11.22v11.22h-3.75v-21.04h3.75l4.39,11.71v-11.71h3.75V323.21z"/>
		<path d="M141.71,317.42v-9.48c0-1.99,0.56-3.5,1.68-4.53c1.12-1.03,2.59-1.54,4.42-1.54c1.75,0,3.16,0.5,4.24,1.49
			c1.08,1,1.62,2.47,1.62,4.42v0.64h-3.75v-0.64c0-0.81-0.2-1.44-0.61-1.88c-0.41-0.44-0.94-0.66-1.59-0.66
			c-0.79,0-1.37,0.27-1.72,0.82c-0.36,0.55-0.53,1.37-0.53,2.47v8.44c0,2.05,0.75,3.08,2.26,3.08c0.73,0,1.28-0.25,1.65-0.75
			c0.37-0.5,0.55-1.21,0.55-2.15v-2.23h-2.23v-2.96h5.98v5.43c0,1.95-0.56,3.45-1.69,4.48c-1.13,1.04-2.59,1.55-4.37,1.55
			c-1.81,0-3.24-0.51-4.3-1.54C142.24,320.89,141.71,319.39,141.71,317.42z"/>
		<path d="M167.02,310.93h4.88v3.38h-4.88v8.9h-3.75v-21.04h9.39v3.38h-5.64V310.93z"/>
		<path d="M179.21,310.84h4.88v3.35h-4.88v5.67h5.67v3.35h-9.39v-21.04h9.39v3.38h-5.67V310.84z"/>
		<path d="M191.59,302.18v17.68h5.64v3.35h-9.39v-21.04H191.59z"/>
		<path d="M206.17,305.56v17.65h-3.72v-17.65h-3.66v-3.38h11.01v3.38H206.17z"/>
	</g>
</g>
<g id="ikon">
	<g>
		<path class="st1" d="M137.7,169.51l-0.08-0.19c-1.4-3.41-2.16-7.3-2.16-11.36c0-5.89,1.58-11.46,4.46-15.66
			c1-1.46,2.11-2.69,3.31-3.7l-107.88,0c-6.48,1.01-11.54,9.32-11.54,19.41c0,10.5,5.47,19.07,12.33,19.5v0.02h0.01l108.02,0
			C141.42,175.72,139.18,172.96,137.7,169.51z"/>
		<g>
			<path class="st1" d="M126.44,93.75l-44.89,41.6l70.41,0.01c4.11,0.21,7.92,2.6,10.78,6.78c1.75,2.56,3.02,5.52,3.75,8.86
				c0.44,2.84,0,5.69-1.13,8.15c-1.37,2.97-3.8,5.6-7.64,8.27c-0.93,0.64-2.46,1.24-4.22,1.24c-0.61,0-1.25-0.07-1.9-0.24
				c-1.59-0.41-3.81-1.56-5.36-4.72c-2.37-4.82-1.63-10.8,0.44-13.8c1.12-1.61,2.58-3.28,4.93-3.38l0.07,0l0.42,0
				c2.4,0.11,4.26,1.42,5.1,3.59c0.7,1.81,0.84,3.55,0.43,5.13c-0.19,0.73-0.56,1.25-0.56,1.25c-1.88,2.65-4.19,1.46-3.36-0.24
				c0,0,0.14-0.22,0.26-0.38c0.96-1.27,1.05-2.82,0.35-4.65c-0.39-1.01-1.17-1.56-2.32-1.62h-0.28c-0.58,0.03-1.29,0.32-2.49,2.05
				c-1.34,1.93-2.16,6.71-0.21,10.68c0.83,1.69,1.96,2.73,3.36,3.1c1.61,0.42,3.04-0.18,3.57-0.55c3.37-2.35,5.47-4.58,6.6-7.03
				c1.38-2.98,1.29-6.41-0.33-10.24l0,0.1c-0.56-1.38-1.24-2.66-2.03-3.82c-2.31-3.38-5.31-5.3-8.46-5.44h-0.73
				c-3.16,0.14-6.15,2.06-8.46,5.44c-2.53,3.7-3.92,8.64-3.92,13.92c0,3.65,0.67,7.14,1.91,10.17l0,0c1.9,4.55,5.16,7.55,9.19,8.47
				c1.72,0.39,3.49,0.36,5.24-0.06c0.03-0.02,2.16-0.15,4.7-2.17l87.83-80.45L126.44,93.75z"/>
		</g>
	</g>
</g>
</svg>
