<?xml version="1.0" encoding="utf-8"?>
<!-- Generator: Adobe Illustrator 25.4.1, SVG Export Plug-In . SVG Version: 6.00 Build 0)  -->
<svg version="1.1" xmlns="http://www.w3.org/2000/svg" xmlns:xlink="http://www.w3.org/1999/xlink" x="0px" y="0px"
	 viewBox="0 0 271.29 356.19" style="enable-background:new 0 0 271.29 356.19;" xml:space="preserve">
<style type="text/css">
	.st0{fill:#004778;}
	.st1{fill:#FFFFFF;}
</style>
<g id="bakgrund">
	<g>
		<rect x="1" y="1" class="st0" width="269.29" height="269.29"/>
		<path class="st0" d="M271.29,271.29H0V0h271.29V271.29z M2,269.29h267.29V2H2V269.29z"/>
	</g>
	<rect x="1" y="270.15" class="st1" width="269.29" height="85.04"/>
	<path class="st0" d="M271.29,356.19H0v-87.04h271.29V356.19z M2,354.19h267.29v-83.04H2V354.19z"/>
</g>
<g id="namn">
	<g>
		<path d="M47.03,317.22h3.54c0.04,1.04,0.25,1.8,0.62,2.29c0.38,0.49,0.93,0.73,1.66,0.73s1.27-0.22,1.6-0.67
			c0.33-0.45,0.5-1.16,0.5-2.13c0-0.81-0.19-1.46-0.56-1.94c-0.38-0.48-1.01-0.92-1.91-1.33l-1.43-0.64
			c-1.36-0.61-2.34-1.36-2.94-2.26s-0.9-2.09-0.9-3.6c0-1.77,0.51-3.18,1.54-4.24s2.41-1.59,4.16-1.59c1.73,0,3.06,0.52,4.01,1.57
			c0.94,1.05,1.45,2.56,1.51,4.53h-3.45c-0.02-0.96-0.19-1.67-0.5-2.15c-0.31-0.48-0.84-0.72-1.57-0.72c-1.36,0-2.04,0.8-2.04,2.41
			c0,0.73,0.17,1.32,0.5,1.75c0.33,0.44,0.9,0.83,1.69,1.17l1.37,0.61c1.46,0.65,2.53,1.46,3.19,2.44c0.66,0.98,0.99,2.28,0.99,3.9
			c0,1.95-0.51,3.46-1.52,4.51c-1.02,1.06-2.46,1.58-4.33,1.58c-1.85,0-3.26-0.54-4.24-1.62S47.05,319.24,47.03,317.22z"/>
		<path d="M65.29,319.14l-0.85,4.09h-3.9l5.4-21.04h3.66l5.37,21.04h-3.9l-0.85-4.09H65.29z M67.76,307.25l-1.77,8.54h3.54
			L67.76,307.25z"/>
		<path d="M89.23,323.23h-3.75l-4.39-11.22v11.22h-3.75v-21.04h3.75l4.39,11.71v-11.71h3.75V323.23z"/>
		<path d="M96.54,302.19v21.04h-3.72v-21.04H96.54z"/>
		<path d="M106.36,305.58v17.65h-3.72v-17.65h-3.66v-3.38h11.01v3.38H106.36z"/>
		<path d="M115.96,319.14l-0.85,4.09h-3.9l5.4-21.04h3.66l5.37,21.04h-3.9l-0.85-4.09H115.96z M118.43,307.25l-1.77,8.54h3.54
			L118.43,307.25z"/>
		<path d="M131.76,314.78v8.45h-3.75v-21.04h5.73c2.07,0,3.54,0.5,4.41,1.49c0.86,1,1.3,2.59,1.3,4.79c0,1.4-0.19,2.57-0.58,3.51
			s-1.02,1.64-1.89,2.1l3.14,9.15h-3.9l-2.65-8.45H131.76z M133.71,311.43c0.75,0,1.27-0.25,1.55-0.75c0.29-0.5,0.43-1.23,0.43-2.21
			s-0.14-1.71-0.41-2.2c-0.27-0.49-0.8-0.73-1.57-0.73h-1.95v5.88H133.71z"/>
		<path d="M149.87,323.23h-3.75v-8.26l-4.27-12.77h4.12l2.01,8.05l2.01-8.05h4.15l-4.27,12.83V323.23z"/>
		<path d="M178.1,323.23h-4.05l-2.29-12.93l-2.32,12.93h-4.02l-3.75-21.04h3.81l2.04,15.73l1.98-15.73h4.57l1.98,15.73l2.04-15.73
			h3.75L178.1,323.23z"/>
		<path d="M187.89,319.14l-0.85,4.09h-3.9l5.4-21.04h3.66l5.37,21.04h-3.9l-0.85-4.09H187.89z M190.36,307.25l-1.77,8.54h3.54
			L190.36,307.25z"/>
		<path d="M203.68,314.78v8.45h-3.75v-21.04h5.73c2.07,0,3.54,0.5,4.41,1.49c0.86,1,1.3,2.59,1.3,4.79c0,1.4-0.19,2.57-0.58,3.51
			s-1.02,1.64-1.89,2.1l3.14,9.15h-3.9l-2.65-8.45H203.68z M205.63,311.43c0.75,0,1.27-0.25,1.55-0.75c0.29-0.5,0.43-1.23,0.43-2.21
			s-0.14-1.71-0.41-2.2c-0.27-0.49-0.8-0.73-1.57-0.73h-1.95v5.88H205.63z"/>
		<path d="M218.59,310.85h4.88v3.35h-4.88v5.67h5.67v3.35h-9.39v-21.04h9.39v3.38h-5.67V310.85z"/>
	</g>
</g>
<g id="ikon">
	<path class="st1" d="M163.46,188.08c0,0,30.84-36.85,36.78-50.18c1.84-4.14,1.17-9.94,1.17-9.94l-94.24,0c0,0,0-27.86,0-40.56
		c0-20.33-4.77-36.59-12.6-40.55c-2.48-1.25-17.1-1.8-21.03,0.3c-3.93,2.1-3.77,8.71-3.77,8.71l0,72.6c0,8.58,2.29,16.61,5.71,22.47
		c2.79,4.78,12.42,17.96,14.69,24.35c2.21,6.21,2.11,8.97,2.41,13.78c0.3,4.81-1.65,36.5-1.65,36.5l78.28,0c0,0,0-3.9-2.11-10.21
		c-2.12-6.31-3.93-10.21-5.74-17.12C159.53,191.32,163.46,188.08,163.46,188.08z"/>
</g>
</svg>
