<?xml version="1.0" encoding="utf-8"?>
<!-- Generator: Adobe Illustrator 25.4.1, SVG Export Plug-In . SVG Version: 6.00 Build 0)  -->
<svg version="1.1" xmlns="http://www.w3.org/2000/svg" xmlns:xlink="http://www.w3.org/1999/xlink" x="0px" y="0px"
	 viewBox="0 0 271.29 356.19" style="enable-background:new 0 0 271.29 356.19;" xml:space="preserve">
<style type="text/css">
	.st0{fill:#F18700;}
	.st1{fill:#FFFFFF;}
</style>
<g id="bakgrund">
	<g>
		<rect x="1" y="1" class="st0" width="269.29" height="269.29"/>
		<path class="st0" d="M271.29,271.29H0V0h271.29V271.29z M2,269.29h267.29V2H2V269.29z"/>
	</g>
	<rect x="1" y="270.15" class="st1" width="269.29" height="85.04"/>
	<path class="st0" d="M271.29,356.19H0v-87.04h271.29V356.19z M2,354.19h267.29v-83.04H2V354.19z"/>
</g>
<g id="namn">
	<g>
		<path d="M24.53,317.22h3.54c0.04,1.04,0.25,1.8,0.62,2.29c0.38,0.49,0.93,0.73,1.66,0.73s1.27-0.22,1.6-0.67
			c0.33-0.45,0.5-1.16,0.5-2.13c0-0.81-0.19-1.46-0.56-1.94c-0.38-0.48-1.01-0.92-1.91-1.33l-1.43-0.64
			c-1.36-0.61-2.34-1.36-2.94-2.26c-0.6-0.89-0.9-2.09-0.9-3.6c0-1.77,0.51-3.18,1.54-4.24c1.03-1.06,2.41-1.59,4.16-1.59
			c1.73,0,3.06,0.52,4.01,1.57c0.94,1.05,1.45,2.56,1.51,4.53h-3.45c-0.02-0.96-0.19-1.67-0.5-2.15c-0.31-0.48-0.84-0.72-1.57-0.72
			c-1.36,0-2.04,0.8-2.04,2.41c0,0.73,0.17,1.32,0.5,1.75c0.33,0.44,0.9,0.83,1.69,1.17l1.37,0.61c1.46,0.65,2.53,1.46,3.19,2.44
			c0.66,0.98,0.99,2.28,0.99,3.9c0,1.95-0.51,3.46-1.52,4.51c-1.02,1.06-2.46,1.58-4.33,1.58c-1.85,0-3.26-0.54-4.24-1.62
			S24.55,319.24,24.53,317.22z"/>
		<path d="M53.98,323.23h-3.75v-12.32l-2.68,8.23h-2.01L42.88,311v12.23h-3.75v-21.04h3.75l3.66,11.1l3.69-11.1h3.75V323.23z"/>
		<path d="M61.12,319.14l-0.85,4.09h-3.9l5.4-21.04h3.66l5.37,21.04h-3.9l-0.85-4.09H61.12z M63.58,307.25l-1.77,8.54h3.54
			L63.58,307.25z"/>
		<path d="M76.91,302.19v17.68h5.64v3.35h-9.39v-21.04H76.91z"/>
		<path d="M89.01,302.19v17.68h5.64v3.35h-9.39v-21.04H89.01z"/>
		<path d="M107.34,310.85h4.88v3.35h-4.88v5.67h5.67v3.35h-9.39v-21.04h9.39v3.38h-5.67V310.85z"/>
		<path d="M119.72,302.19v17.68h5.64v3.35h-9.39v-21.04H119.72z"/>
		<path d="M131.79,310.85h4.88v3.35h-4.88v5.67h5.67v3.35h-9.39v-21.04h9.39v3.38h-5.67V310.85z"/>
		<path d="M140.3,317.44v-9.48c0-1.99,0.56-3.5,1.68-4.53c1.12-1.03,2.59-1.54,4.42-1.54c1.75,0,3.16,0.51,4.24,1.52
			c1.08,1.02,1.62,2.56,1.62,4.63v0.64h-3.75v-0.61c0-0.96-0.2-1.66-0.59-2.12c-0.4-0.46-0.93-0.69-1.6-0.69
			c-0.79,0-1.37,0.27-1.72,0.82c-0.36,0.55-0.53,1.37-0.53,2.47v8.44c0,2.05,0.75,3.08,2.26,3.08c0.67,0,1.21-0.23,1.6-0.7
			c0.4-0.47,0.59-1.16,0.59-2.07v-0.55h3.72v0.58c0,2.03-0.56,3.56-1.69,4.59s-2.58,1.54-4.34,1.54c-1.81,0-3.24-0.51-4.3-1.54
			C140.82,320.91,140.3,319.41,140.3,317.44z"/>
		<path d="M161.82,305.58v17.65h-3.72v-17.65h-3.66v-3.38h11.01v3.38H161.82z"/>
		<path d="M171.52,314.78v8.44h-3.75v-21.04h5.73c2.07,0,3.54,0.5,4.41,1.49c0.86,1,1.3,2.59,1.3,4.79c0,1.4-0.19,2.57-0.58,3.51
			c-0.39,0.93-1.02,1.64-1.89,2.1l3.14,9.15h-3.9l-2.65-8.44H171.52z M173.47,311.43c0.75,0,1.27-0.25,1.55-0.75
			c0.29-0.5,0.43-1.23,0.43-2.21s-0.14-1.71-0.41-2.19s-0.8-0.73-1.57-0.73h-1.95v5.88H173.47z"/>
		<path d="M182.58,317.44v-9.48c0-1.99,0.56-3.5,1.68-4.53c1.12-1.03,2.59-1.54,4.42-1.54c1.77,0,3.19,0.51,4.25,1.54
			s1.6,2.54,1.6,4.53v9.48c0,1.95-0.56,3.44-1.69,4.48c-1.13,1.04-2.59,1.55-4.37,1.55c-1.81,0-3.24-0.51-4.3-1.54
			C183.11,320.91,182.58,319.41,182.58,317.44z M190.79,317.01v-8.44c0-1.08-0.18-1.9-0.55-2.45c-0.37-0.56-0.91-0.84-1.65-0.84
			c-0.79,0-1.37,0.27-1.72,0.82c-0.36,0.55-0.53,1.37-0.53,2.47v8.44c0,2.05,0.75,3.08,2.26,3.08c0.71,0,1.26-0.27,1.63-0.81
			S190.79,317.99,190.79,317.01z"/>
		<path d="M209.78,323.23h-3.75l-4.39-11.22v11.22h-3.75v-21.04h3.75l4.39,11.71v-11.71h3.75V323.23z"/>
		<path d="M217.1,302.19v21.04h-3.72v-21.04H217.1z"/>
		<path d="M220.57,317.44v-9.48c0-1.99,0.56-3.5,1.68-4.53c1.12-1.03,2.59-1.54,4.42-1.54c1.75,0,3.16,0.51,4.24,1.52
			c1.08,1.02,1.62,2.56,1.62,4.63v0.64h-3.75v-0.61c0-0.96-0.2-1.66-0.59-2.12c-0.4-0.46-0.93-0.69-1.6-0.69
			c-0.79,0-1.37,0.27-1.72,0.82c-0.36,0.55-0.53,1.37-0.53,2.47v8.44c0,2.05,0.75,3.08,2.26,3.08c0.67,0,1.21-0.23,1.6-0.7
			c0.4-0.47,0.59-1.16,0.59-2.07v-0.55h3.72v0.58c0,2.03-0.56,3.56-1.69,4.59s-2.58,1.54-4.34,1.54c-1.81,0-3.24-0.51-4.3-1.54
			C221.1,320.91,220.57,319.41,220.57,317.44z"/>
		<path d="M235.18,317.22h3.54c0.04,1.04,0.25,1.8,0.62,2.29c0.38,0.49,0.93,0.73,1.66,0.73s1.27-0.22,1.6-0.67
			c0.33-0.45,0.5-1.16,0.5-2.13c0-0.81-0.19-1.46-0.56-1.94c-0.38-0.48-1.01-0.92-1.91-1.33l-1.43-0.64
			c-1.36-0.61-2.34-1.36-2.94-2.26c-0.6-0.89-0.9-2.09-0.9-3.6c0-1.77,0.51-3.18,1.54-4.24c1.03-1.06,2.41-1.59,4.16-1.59
			c1.73,0,3.06,0.52,4.01,1.57c0.94,1.05,1.45,2.56,1.51,4.53h-3.45c-0.02-0.96-0.19-1.67-0.5-2.15c-0.31-0.48-0.84-0.72-1.57-0.72
			c-1.36,0-2.04,0.8-2.04,2.41c0,0.73,0.17,1.32,0.5,1.75c0.33,0.44,0.9,0.83,1.69,1.17l1.37,0.61c1.46,0.65,2.53,1.46,3.19,2.44
			c0.66,0.98,0.99,2.28,0.99,3.9c0,1.95-0.51,3.46-1.52,4.51c-1.02,1.06-2.46,1.58-4.33,1.58c-1.85,0-3.26-0.54-4.24-1.62
			S235.2,319.24,235.18,317.22z"/>
	</g>
</g>
<g id="ikon">
	<g>
		<path class="st1" d="M172.34,49.12l-73.86,0.2c-3.45,0.01-6.27,2.84-6.26,6.3l0.44,160.29c0.01,3.45,2.84,6.27,6.3,6.26l73.86-0.2
			c3.45-0.01,6.27-2.84,6.26-6.3l-0.44-160.29C178.63,51.93,175.79,49.11,172.34,49.12z M119.47,206.54c0,0.62-0.5,1.12-1.12,1.13
			l-13.12,0.04c-0.62,0-1.12-0.5-1.13-1.12l-0.02-7.36c0-0.62,0.5-1.12,1.12-1.13l13.12-0.04c0.62,0,1.12,0.5,1.13,1.12
			L119.47,206.54z M119.42,187.3c0,0.62-0.5,1.12-1.12,1.13l-13.12,0.04c-0.62,0-1.12-0.5-1.13-1.12l-0.02-7.36
			c0-0.62,0.5-1.12,1.12-1.13l13.12-0.04c0.62,0,1.12,0.5,1.13,1.12L119.42,187.3z M119.37,168.06c0,0.62-0.5,1.12-1.12,1.13
			l-13.12,0.04c-0.62,0-1.12-0.5-1.13-1.12l-0.02-7.36c0-0.62,0.5-1.12,1.12-1.13l13.12-0.04c0.62,0,1.12,0.5,1.13,1.12
			L119.37,168.06z M143.52,206.47c0,0.62-0.5,1.12-1.12,1.13l-13.12,0.04c-0.62,0-1.12-0.5-1.13-1.12l-0.02-7.36
			c0-0.62,0.5-1.12,1.12-1.13l13.12-0.04c0.62,0,1.12,0.5,1.13,1.12L143.52,206.47z M143.47,187.23c0,0.62-0.5,1.12-1.12,1.13
			l-13.12,0.04c-0.62,0-1.12-0.5-1.13-1.12l-0.02-7.36c0-0.62,0.5-1.12,1.12-1.13l13.12-0.04c0.62,0,1.12,0.5,1.13,1.12
			L143.47,187.23z M143.42,167.99c0,0.62-0.5,1.12-1.12,1.13l-13.12,0.04c-0.62,0-1.12-0.5-1.13-1.12l-0.02-7.36
			c0-0.62,0.5-1.12,1.12-1.13l13.12-0.04c0.62,0,1.12,0.5,1.13,1.12L143.42,167.99z M167.57,206.4c0,0.62-0.5,1.12-1.12,1.13
			l-13.12,0.04c-0.62,0-1.12-0.5-1.13-1.12l-0.02-7.36c0-0.62,0.5-1.12,1.12-1.13l13.12-0.04c0.62,0,1.12,0.5,1.13,1.12
			L167.57,206.4z M167.52,187.16c0,0.62-0.5,1.12-1.12,1.13l-13.12,0.04c-0.62,0-1.12-0.5-1.13-1.12l-0.02-7.36
			c0-0.62,0.5-1.12,1.12-1.13l13.12-0.04c0.62,0,1.12,0.5,1.13,1.12L167.52,187.16z M167.47,167.92c0,0.62-0.5,1.12-1.12,1.13
			l-13.12,0.04c-0.62,0-1.12-0.5-1.13-1.12l-0.02-7.36c0-0.62,0.5-1.12,1.12-1.13l13.12-0.04c0.62,0,1.12,0.5,1.13,1.12
			L167.47,167.92z M171.19,141.14c0.01,2.12-1.71,3.85-3.83,3.85l-63.37,0.18c-2.12,0.01-3.85-1.71-3.85-3.83l-0.22-80.66
			c-0.01-2.12,1.71-3.85,3.83-3.85l63.37-0.18c2.12-0.01,3.85,1.71,3.85,3.83L171.19,141.14z"/>
		
			<rect x="103.86" y="60.58" transform="matrix(1 -2.732678e-03 2.732678e-03 1 -0.2752 0.3708)" class="st1" width="63.38" height="80.66"/>
	</g>
</g>
</svg>
