<?xml version="1.0" encoding="utf-8"?>
<!-- Generator: Adobe Illustrator 25.4.1, SVG Export Plug-In . SVG Version: 6.00 Build 0)  -->
<svg version="1.1" xmlns="http://www.w3.org/2000/svg" xmlns:xlink="http://www.w3.org/1999/xlink" x="0px" y="0px"
	 viewBox="0 0 271.29 356.19" style="enable-background:new 0 0 271.29 356.19;" xml:space="preserve">
<style type="text/css">
	.st0{fill:#962A86;}
	.st1{fill:#FFFFFF;}
</style>
<g id="bakgrund">
	<g>
		<rect x="1" y="1" class="st0" width="269.29" height="269.29"/>
		<path class="st0" d="M271.29,271.29H0V0h271.29V271.29z M2,269.29h267.29V2H2V269.29z"/>
	</g>
	<rect x="1" y="270.29" class="st1" width="269.29" height="85.04"/>
	<path class="st0" d="M271.29,356.33H0v-87.04h271.29V356.33z M2,354.33h267.29v-83.04H2V354.33z"/>
</g>
<g id="namn">
	<g>
		<path d="M85.14,317.37h3.54c0.04,1.04,0.25,1.8,0.62,2.29c0.38,0.49,0.93,0.73,1.66,0.73s1.27-0.22,1.6-0.67
			c0.33-0.45,0.5-1.16,0.5-2.13c0-0.81-0.19-1.46-0.56-1.94c-0.38-0.48-1.01-0.92-1.91-1.33l-1.43-0.64
			c-1.36-0.61-2.34-1.36-2.94-2.26c-0.6-0.89-0.9-2.09-0.9-3.6c0-1.77,0.51-3.18,1.54-4.24s2.41-1.59,4.16-1.59
			c1.73,0,3.06,0.52,4.01,1.57c0.94,1.05,1.45,2.56,1.51,4.53H93.1c-0.02-0.96-0.19-1.67-0.5-2.15c-0.31-0.48-0.84-0.72-1.57-0.72
			c-1.36,0-2.04,0.8-2.04,2.41c0,0.73,0.17,1.32,0.5,1.75c0.33,0.44,0.9,0.83,1.69,1.17l1.37,0.61c1.46,0.65,2.53,1.46,3.19,2.44
			c0.66,0.98,0.99,2.28,0.99,3.9c0,1.95-0.51,3.46-1.52,4.51c-1.02,1.06-2.46,1.58-4.33,1.58c-1.85,0-3.26-0.54-4.24-1.62
			S85.16,319.38,85.14,317.37z"/>
		<path d="M99.62,317.58v-9.48c0-1.99,0.56-3.5,1.68-4.53c1.12-1.03,2.59-1.54,4.42-1.54c1.77,0,3.19,0.51,4.25,1.54
			c1.07,1.03,1.6,2.54,1.6,4.53v9.48c0,1.95-0.56,3.44-1.69,4.48c-1.13,1.04-2.59,1.55-4.37,1.55c-1.81,0-3.24-0.51-4.3-1.54
			C100.15,321.05,99.62,319.55,99.62,317.58z M107.82,317.16v-8.44c0-1.08-0.18-1.9-0.55-2.45c-0.37-0.56-0.91-0.84-1.65-0.84
			c-0.79,0-1.37,0.27-1.72,0.82c-0.36,0.55-0.53,1.37-0.53,2.47v8.44c0,2.05,0.75,3.08,2.26,3.08c0.71,0,1.26-0.27,1.63-0.81
			S107.82,318.13,107.82,317.16z"/>
		<path d="M118.68,311.09h4.88v3.38h-4.88v8.9h-3.75v-21.04h9.39v3.38h-5.64V311.09z"/>
		<path d="M133.37,305.72v17.65h-3.72v-17.65H126v-3.38H137v3.38H133.37z"/>
		<path d="M157,308.95c0,2.24-0.45,3.9-1.36,5s-2.37,1.65-4.41,1.65h-1.95v7.77h-3.72v-21.04h5.67c2.07,0,3.55,0.55,4.44,1.65
			C156.56,305.08,157,306.74,157,308.95z M153.25,308.95c0-1.12-0.16-1.94-0.47-2.47c-0.31-0.53-0.87-0.79-1.66-0.79h-1.83v6.52
			h1.83c0.79,0,1.35-0.26,1.66-0.79C153.1,310.9,153.25,310.07,153.25,308.95z"/>
		<path d="M162.74,302.34l2.53,15.73l2.56-15.73h4.12l-4.73,21.04h-3.87l-4.73-21.04H162.74z"/>
		<path d="M174.2,317.58v-9.48c0-1.99,0.56-3.5,1.68-4.53c1.12-1.03,2.59-1.54,4.42-1.54c1.75,0,3.16,0.51,4.24,1.52
			c1.08,1.02,1.62,2.56,1.62,4.63v0.64h-3.75v-0.61c0-0.96-0.2-1.66-0.59-2.12c-0.4-0.46-0.93-0.69-1.6-0.69
			c-0.79,0-1.37,0.27-1.72,0.82c-0.36,0.55-0.53,1.37-0.53,2.47v8.44c0,2.05,0.75,3.08,2.26,3.08c0.67,0,1.21-0.23,1.6-0.7
			c0.4-0.47,0.59-1.16,0.59-2.07v-0.55h3.72v0.58c0,2.03-0.56,3.56-1.69,4.59s-2.58,1.54-4.34,1.54c-1.81,0-3.24-0.51-4.3-1.54
			C174.73,321.05,174.2,319.55,174.2,317.58z"/>
	</g>
</g>
<g id="ikon">
	<path class="st1" d="M196.6,109.9c-1.07-2.53-2.29-4.98-3.66-7.35c-2.88-4.98-6.4-9.56-10.52-13.68
		c-6.07-6.07-13.15-10.84-21.03-14.18c-3.76-1.59-7.62-2.82-11.57-3.68c-4.62-1.01-9.37-1.52-14.18-1.52
		c-8.93,0-17.59,1.75-25.75,5.2c-7.88,3.33-14.95,8.1-21.03,14.18c-1.49,1.49-2.9,3.04-4.23,4.64c-4.1,4.95-7.43,10.44-9.95,16.39
		c-3.45,8.16-5.2,16.82-5.2,25.75s1.75,17.59,5.2,25.75c0.84,1.97,1.76,3.9,2.77,5.77c3.03,5.59,6.85,10.7,11.4,15.26
		c6.07,6.07,13.15,10.84,21.03,14.18c8.16,3.45,16.82,5.2,25.75,5.2c0.19,0,0.37,0,0.56,0c8.73-0.07,17.21-1.82,25.19-5.2
		c7.88-3.33,14.95-8.1,21.03-14.18c6.07-6.07,10.84-13.15,14.18-21.03c0.04-0.09,0.07-0.17,0.11-0.26
		c3.38-8.08,5.09-16.65,5.09-25.49C201.8,126.72,200.05,118.05,196.6,109.9z M156.06,104.66c1.5-0.72,3.12-1.09,4.8-1.09
		c1.54,0,3.08,0.31,4.58,0.91c3.28,1.32,5.97,3.89,7.6,7.24c1.62,3.35,1.96,7.06,0.95,10.44c-0.97,3.26-3.1,5.82-5.98,7.21
		c-2.88,1.39-6.22,1.45-9.38,0.18c-3.28-1.32-5.97-3.89-7.6-7.24C147.74,115.49,149.99,107.58,156.06,104.66z M91.15,91.15
		c5.78-5.78,12.51-10.32,20-13.49c7.76-3.28,16-4.94,24.49-4.94c5.98,0,11.83,0.82,17.48,2.46c1.1,1.54,2.11,3.14,3.03,4.81l0,0
		c2.26,4.08,4.04,8.58,5.27,13.38c0.49,1.92,0.9,3.9,1.22,5.9l0.18,1.11c-0.65-0.09-1.31-0.13-1.96-0.13
		c-2.19,0-4.29,0.48-6.25,1.42c-2.17,1.04-3.97,2.58-5.34,4.44l-1.61-0.8c-5.36-2.59-10.68-4.85-15.81-6.72
		c-10.99-4.01-21.15-6.27-30.19-6.72c-4.13-0.2-8.04-0.03-11.72,0.53C90.34,91.98,90.74,91.56,91.15,91.15z M159.81,156.7
		c-2.47,11.45-5.97,21.26-10.42,29.16c-2.77,4.92-5.94,9.14-9.45,12.57c-1.43,0.1-2.86,0.14-4.3,0.14c-8.5,0-16.74-1.66-24.49-4.94
		c-7.49-3.17-14.22-7.71-20-13.49c-4.37-4.37-8.02-9.28-10.92-14.65c14.96-9.05,46.29-27.78,67.08-39.97l1.26-0.74
		c2.02,3.6,5.11,6.36,8.81,7.85c1.89,0.76,3.84,1.15,5.76,1.16l-0.12,1.3C162.35,142.68,161.27,149.96,159.81,156.7z M195.61,154.79
		c-0.52-2.13-1.18-4.25-1.98-6.33v0c-1.76-4.55-4.21-8.98-7.27-13.16c-3.12-4.27-6.22-7.38-8.27-9.23l-1.48-1.34
		c0.22-0.52,0.41-1.06,0.58-1.61c1.24-4.17,0.84-8.73-1.15-12.83c-0.03-0.06-0.06-0.13-0.1-0.19l1.27-0.57
		c4.57-2.06,9.27-4.15,12.74-5.67c1.37,2.34,2.6,4.78,3.66,7.3c3.28,7.76,4.94,16,4.94,24.49
		C198.57,142.22,197.57,148.63,195.61,154.79z"/>
</g>
</svg>
