<?xml version="1.0" encoding="utf-8"?>
<!-- Generator: Adobe Illustrator 25.4.1, SVG Export Plug-In . SVG Version: 6.00 Build 0)  -->
<svg version="1.1" xmlns="http://www.w3.org/2000/svg" xmlns:xlink="http://www.w3.org/1999/xlink" x="0px" y="0px"
	 viewBox="0 0 271.29 355.96" style="enable-background:new 0 0 271.29 355.96;" xml:space="preserve">
<style type="text/css">
	.st0{fill:#06682D;}
	.st1{fill:#FFFFFF;}
</style>
<g id="bakgrund">
	<g>
		<rect x="1" y="1" class="st0" width="269.29" height="269.29"/>
		<path class="st0" d="M271.29,271.29H0V0h271.29V271.29z M2,269.29h267.29V2H2V269.29z"/>
	</g>
	<g>
		<rect x="1" y="269.69" class="st1" width="269.29" height="85.04"/>
		<path class="st0" d="M271.29,355.72H0v-87.04h271.29V355.72z M2,353.72h267.29v-83.04H2V353.72z"/>
	</g>
</g>
<g id="namn">
	<g>
		<path d="M112.33,316.76h3.54c0.04,1.04,0.25,1.8,0.62,2.29c0.38,0.49,0.93,0.73,1.66,0.73s1.27-0.22,1.6-0.67s0.5-1.16,0.5-2.13
			c0-0.81-0.19-1.46-0.56-1.94c-0.38-0.48-1.01-0.92-1.91-1.33l-1.43-0.64c-1.36-0.61-2.34-1.36-2.94-2.26
			c-0.6-0.89-0.9-2.09-0.9-3.6c0-1.77,0.51-3.18,1.54-4.24s2.41-1.59,4.16-1.59c1.73,0,3.06,0.52,4.01,1.57
			c0.94,1.05,1.45,2.56,1.51,4.53h-3.45c-0.02-0.96-0.19-1.67-0.5-2.15c-0.31-0.48-0.84-0.72-1.57-0.72c-1.36,0-2.04,0.8-2.04,2.41
			c0,0.73,0.17,1.32,0.5,1.75c0.33,0.44,0.9,0.83,1.69,1.17l1.37,0.61c1.46,0.65,2.53,1.46,3.19,2.44c0.66,0.98,0.99,2.28,0.99,3.9
			c0,1.95-0.51,3.46-1.52,4.51c-1.02,1.06-2.46,1.58-4.33,1.58c-1.85,0-3.26-0.54-4.24-1.62
			C112.85,320.32,112.35,318.78,112.33,316.76z"/>
		<path d="M126.81,316.98v-9.48c0-1.99,0.56-3.5,1.68-4.53c1.12-1.03,2.59-1.54,4.42-1.54c1.77,0,3.19,0.51,4.25,1.54
			c1.07,1.03,1.6,2.54,1.6,4.53v9.48c0,1.95-0.56,3.44-1.69,4.48c-1.13,1.04-2.59,1.55-4.37,1.55c-1.81,0-3.24-0.51-4.3-1.54
			C127.34,320.45,126.81,318.95,126.81,316.98z M135.02,316.55v-8.45c0-1.08-0.18-1.89-0.55-2.45c-0.37-0.56-0.91-0.84-1.65-0.84
			c-0.79,0-1.37,0.28-1.72,0.82c-0.36,0.55-0.53,1.37-0.53,2.47v8.45c0,2.05,0.75,3.08,2.26,3.08c0.71,0,1.26-0.27,1.63-0.81
			C134.83,318.28,135.02,317.53,135.02,316.55z"/>
		<path d="M145.96,301.73v21.04h-3.72v-21.04H145.96z"/>
		<path d="M153.31,301.73v17.68h5.64v3.35h-9.39v-21.04H153.31z"/>
	</g>
</g>
<g id="ikon">
	<g>
		<path class="st1" d="M77.29,143.31c-6.81,6.3-15.09,6.03-20.58,16.07c-2.86,5.22-21.73,50.31-21.86,50.63h201.58
			c-3.98-8.94-15.22-33.42-21.74-39.87c-4.18-4.13-13.12-9.33-15.49-13.85c-2.37-4.52-1.4-2.66-6.91-17.77
			c-5.51-15.11-16.19-25.35-26.07-36.03c-4.92-5.32-12-12.9-20.49-16.56c-8.38-3.61-19.48-4.56-32.18,7.84
			c-3.21,3.44-7.24,7.84-11.29,14.2c-0.43,0.67-0.83,1.3-1.2,1.9l20.15,26.9l0,0c1.46,1.99,4.95,6.83,8.08,11.88
			c7.27,11.74,5.85,13.59,5.83,13.6c-0.02,0.01-2.1,1.08-11.51-9.35c-3.96-4.39-7.63-9.09-9.15-11.07l0,0l-18.08-24.15
			c-1.65,2.79-3.3,5.42-6.64,10C81.54,138.92,80.38,140.46,77.29,143.31z M112.21,143.5c1.54,2,5.27,6.77,9.31,11.25
			c3.11,3.45,5.8,6.07,8,7.78c1.39,1.08,2.58,1.8,3.63,2.2c1.01,0.38,2.46,0.65,3.65-0.24c2.15-1.61,1.09-5.05,0.11-7.49
			c-1.03-2.57-2.79-5.87-5.24-9.82c-3.18-5.14-6.73-10.08-8.21-12.1l12.14-9.09l19.99,26.7l0,0c0.38,0.53,0.74,1.08,1.07,1.66
			c6.51,11.42,3.39,30.57-1.76,34.42l-0.04,0.03c-5.15,3.85-24.4,1.46-33.52-8c-0.47-0.48-0.89-0.98-1.29-1.5l0,0l-19.99-26.7
			L112.21,143.5z"/>
		<path class="st1" d="M70.24,68.7l5.4-4.04l-2.53-3.37L55.57,74.42l2.53,3.37l5.4-4.04l32.89,43.92c1.29-2.18,2.58-4.45,4.68-7.81
			L70.24,68.7z"/>
	</g>
</g>
</svg>
