<?xml version="1.0" encoding="utf-8"?>
<!-- Generator: Adobe Illustrator 25.4.1, SVG Export Plug-In . SVG Version: 6.00 Build 0)  -->
<svg version="1.1" xmlns="http://www.w3.org/2000/svg" xmlns:xlink="http://www.w3.org/1999/xlink" x="0px" y="0px"
	 viewBox="0 0 271.29 355.96" style="enable-background:new 0 0 271.29 355.96;" xml:space="preserve">
<style type="text/css">
	.st0{fill:#86BD40;}
	.st1{fill:#FFFFFF;}
	.st2{fill:none;stroke:#FFFFFF;stroke-width:5.7864;stroke-miterlimit:10;}
	.st3{fill:none;stroke:#FFFFFF;stroke-width:5.7864;stroke-linecap:round;stroke-miterlimit:10;}
</style>
<g id="bakgrund">
	<g>
		<rect x="1" y="1" class="st0" width="269.29" height="269.29"/>
		<path class="st0" d="M271.29,271.29H0V0h271.29V271.29z M2,269.29h267.29V2H2V269.29z"/>
	</g>
	<g>
		<rect x="1" y="269.92" class="st1" width="269.29" height="85.04"/>
		<path class="st0" d="M271.29,355.96H0v-87.04h271.29V355.96z M2,353.96h267.29v-83.04H2V353.96z"/>
	</g>
</g>
<g id="namn">
	<g>
		<path d="M36.1,316.96h3.54c0.04,1.04,0.25,1.8,0.62,2.29c0.38,0.49,0.93,0.73,1.66,0.73s1.27-0.22,1.6-0.67
			c0.33-0.45,0.5-1.16,0.5-2.13c0-0.81-0.19-1.46-0.56-1.94c-0.38-0.48-1.01-0.92-1.91-1.33l-1.43-0.64
			c-1.36-0.61-2.34-1.36-2.94-2.26s-0.9-2.09-0.9-3.6c0-1.77,0.51-3.18,1.54-4.24s2.41-1.59,4.16-1.59c1.73,0,3.06,0.52,4.01,1.57
			c0.94,1.05,1.45,2.56,1.51,4.53h-3.45c-0.02-0.96-0.19-1.67-0.5-2.15c-0.31-0.48-0.84-0.72-1.57-0.72c-1.36,0-2.04,0.8-2.04,2.41
			c0,0.73,0.17,1.32,0.5,1.75c0.33,0.44,0.9,0.83,1.69,1.17l1.37,0.61c1.46,0.65,2.53,1.46,3.19,2.44c0.66,0.98,0.99,2.28,0.99,3.9
			c0,1.95-0.51,3.46-1.52,4.51c-1.02,1.06-2.46,1.58-4.33,1.58c-1.85,0-3.26-0.54-4.24-1.62S36.12,318.98,36.1,316.96z"/>
		<path d="M62.14,308.55c0,2.24-0.45,3.9-1.36,5s-2.37,1.65-4.41,1.65h-1.95v7.77H50.7v-21.04h5.67c2.07,0,3.55,0.55,4.44,1.65
			C61.69,304.68,62.14,306.33,62.14,308.55z M58.39,308.55c0-1.12-0.16-1.94-0.47-2.47c-0.31-0.53-0.87-0.79-1.66-0.79h-1.83v6.52
			h1.83c0.79,0,1.35-0.26,1.66-0.79C58.23,310.49,58.39,309.67,58.39,308.55z"/>
		<path d="M64.73,317.18v-9.48c0-1.99,0.56-3.5,1.68-4.53c1.12-1.03,2.59-1.54,4.42-1.54c1.77,0,3.19,0.51,4.25,1.54
			s1.6,2.54,1.6,4.53v9.48c0,1.95-0.56,3.45-1.69,4.48c-1.13,1.04-2.59,1.55-4.37,1.55c-1.81,0-3.24-0.51-4.3-1.54
			C65.26,320.65,64.73,319.15,64.73,317.18z M72.93,316.75v-8.44c0-1.08-0.18-1.9-0.55-2.46c-0.37-0.56-0.91-0.84-1.65-0.84
			c-0.79,0-1.37,0.27-1.72,0.82c-0.36,0.55-0.53,1.37-0.53,2.47v8.44c0,2.05,0.75,3.08,2.26,3.08c0.71,0,1.26-0.27,1.63-0.81
			C72.74,318.48,72.93,317.73,72.93,316.75z"/>
		<path d="M83.78,314.52v8.45h-3.75v-21.04h5.73c2.07,0,3.54,0.5,4.41,1.49c0.86,1,1.3,2.59,1.3,4.79c0,1.4-0.19,2.57-0.58,3.51
			s-1.02,1.64-1.89,2.1l3.14,9.15h-3.9l-2.65-8.45H83.78z M85.73,311.17c0.75,0,1.27-0.25,1.55-0.75c0.29-0.5,0.43-1.23,0.43-2.21
			s-0.14-1.71-0.41-2.2c-0.27-0.49-0.8-0.73-1.57-0.73h-1.95v5.88H85.73z"/>
		<path d="M101.19,305.32v17.65h-3.72v-17.65h-3.66v-3.38h11.01v3.38H101.19z"/>
		<path d="M106.44,316.96h3.54c0.04,1.04,0.25,1.8,0.62,2.29c0.38,0.49,0.93,0.73,1.66,0.73s1.27-0.22,1.6-0.67
			c0.33-0.45,0.5-1.16,0.5-2.13c0-0.81-0.19-1.46-0.56-1.94c-0.38-0.48-1.01-0.92-1.91-1.33l-1.43-0.64
			c-1.36-0.61-2.34-1.36-2.94-2.26s-0.9-2.09-0.9-3.6c0-1.77,0.51-3.18,1.54-4.24s2.41-1.59,4.16-1.59c1.73,0,3.06,0.52,4.01,1.57
			c0.94,1.05,1.45,2.56,1.51,4.53h-3.45c-0.02-0.96-0.19-1.67-0.5-2.15c-0.31-0.48-0.84-0.72-1.57-0.72c-1.36,0-2.04,0.8-2.04,2.41
			c0,0.73,0.17,1.32,0.5,1.75c0.33,0.44,0.9,0.83,1.69,1.17l1.37,0.61c1.46,0.65,2.53,1.46,3.19,2.44c0.66,0.98,0.99,2.28,0.99,3.9
			c0,1.95-0.51,3.46-1.52,4.51c-1.02,1.06-2.46,1.58-4.33,1.58c-1.85,0-3.26-0.54-4.24-1.62S106.46,318.98,106.44,316.96z"/>
		<path d="M140.13,319.89h0.37v3.08h-1.46c-0.67,0-1.18-0.12-1.54-0.37s-0.75-0.7-1.17-1.37c-0.57,0.73-1.21,1.25-1.92,1.57
			c-0.71,0.32-1.53,0.47-2.47,0.47c-1.42,0-2.57-0.45-3.44-1.34c-0.87-0.89-1.31-2.08-1.31-3.57c0-1.06,0.26-2.1,0.78-3.12
			c0.52-1.03,1.39-2.19,2.61-3.49c-0.79-1.3-1.36-2.34-1.69-3.12c-0.33-0.78-0.5-1.57-0.5-2.36c0-1.38,0.44-2.5,1.31-3.35
			s2.01-1.28,3.42-1.28c1.38,0,2.51,0.43,3.38,1.28s1.31,1.97,1.31,3.35c0,0.89-0.23,1.81-0.7,2.74c-0.47,0.93-1.25,1.99-2.35,3.17
			l1.86,3.11l1.4-2.26l2.53,1.74l-2.2,3.41l0.55,0.92c0.16,0.28,0.34,0.49,0.53,0.61C139.6,319.83,139.84,319.89,140.13,319.89z
			 M134.64,318.46l-2.35-3.84c-0.59,0.67-1,1.26-1.23,1.78c-0.23,0.52-0.35,1.05-0.35,1.6c0,0.65,0.15,1.15,0.44,1.49
			c0.29,0.35,0.7,0.52,1.2,0.52c0.41,0,0.78-0.11,1.13-0.34C133.83,319.45,134.21,319.05,134.64,318.46z M131.74,306.08
			c0,0.37,0.09,0.79,0.26,1.26c0.17,0.48,0.49,1.11,0.96,1.91c0.57-0.65,0.95-1.2,1.14-1.66c0.19-0.46,0.29-0.96,0.29-1.51
			c0-0.55-0.12-0.97-0.35-1.25c-0.23-0.29-0.55-0.43-0.96-0.43c-0.43,0-0.76,0.15-0.99,0.44S131.74,305.55,131.74,306.08z"/>
		<path d="M153.88,301.93v17.68h5.64v3.35h-9.39v-21.04H153.88z"/>
		<path d="M165.95,310.59h4.88v3.35h-4.88v5.67h5.67v3.35h-9.39v-21.04h9.39v3.38h-5.67V310.59z"/>
		<path d="M178.42,301.93v21.04h-3.72v-21.04H178.42z"/>
		<path d="M181.32,316.96h3.54c0.04,1.04,0.25,1.8,0.62,2.29c0.38,0.49,0.93,0.73,1.66,0.73s1.27-0.22,1.6-0.67
			c0.33-0.45,0.5-1.16,0.5-2.13c0-0.81-0.19-1.46-0.56-1.94c-0.38-0.48-1.01-0.92-1.91-1.33l-1.43-0.64
			c-1.36-0.61-2.34-1.36-2.94-2.26s-0.9-2.09-0.9-3.6c0-1.77,0.51-3.18,1.54-4.24s2.41-1.59,4.16-1.59c1.73,0,3.06,0.52,4.01,1.57
			c0.94,1.05,1.45,2.56,1.51,4.53h-3.45c-0.02-0.96-0.19-1.67-0.5-2.15c-0.31-0.48-0.84-0.72-1.57-0.72c-1.36,0-2.04,0.8-2.04,2.41
			c0,0.73,0.17,1.32,0.5,1.75c0.33,0.44,0.9,0.83,1.69,1.17l1.37,0.61c1.46,0.65,2.53,1.46,3.19,2.44c0.66,0.98,0.99,2.28,0.99,3.9
			c0,1.95-0.51,3.46-1.52,4.51c-1.02,1.06-2.46,1.58-4.33,1.58c-1.85,0-3.26-0.54-4.24-1.62S181.34,318.98,181.32,316.96z"/>
		<path d="M196.67,320.47c-0.5-0.87-0.75-1.88-0.75-3.02v-15.52h3.75v15.43c0,0.85,0.16,1.48,0.49,1.88
			c0.33,0.4,0.82,0.59,1.49,0.59c1.32,0,1.98-0.82,1.98-2.47v-15.43h3.75v15.52c0,1.14-0.24,2.14-0.73,3.02
			c-0.49,0.87-1.17,1.55-2.04,2.03c-0.87,0.48-1.86,0.72-2.96,0.72s-2.08-0.24-2.94-0.72C197.85,322.02,197.17,321.34,196.67,320.47
			z"/>
		<path d="M214.61,314.52v8.45h-3.75v-21.04h5.73c2.07,0,3.54,0.5,4.41,1.49c0.86,1,1.3,2.59,1.3,4.79c0,1.4-0.19,2.57-0.58,3.51
			c-0.39,0.93-1.02,1.64-1.89,2.1l3.14,9.15h-3.9l-2.65-8.45H214.61z M216.56,311.17c0.75,0,1.27-0.25,1.55-0.75
			c0.29-0.5,0.43-1.23,0.43-2.21s-0.14-1.71-0.41-2.2c-0.27-0.49-0.8-0.73-1.57-0.73h-1.95v5.88H216.56z"/>
		<path d="M229.52,310.59h4.88v3.35h-4.88v5.67h5.67v3.35h-9.39v-21.04h9.39v3.38h-5.67V310.59z"/>
	</g>
</g>
<g id="ikon">
	<g>
		<path class="st2" d="M133.65,186.77H90.3c-12.72,0-23.03-10.31-23.03-23.03V73.69c0-5.99,4.85-10.84,10.84-10.84h46.62
			c4.92,0,8.91,3.99,8.91,8.91v40.64c0,1.92,1.09,3.68,2.82,4.53l36.94,18.24c0.11,0.05,0.21,0.1,0.32,0.15l8.34,3.41
			c6.52,2.67,10.79,9.02,10.79,16.07v7.64v0c0,13.44-10.9,24.34-24.34,24.34H133.65"/>
		<path class="st2" d="M169.2,207.2c-11.28,0-20.42-9.14-20.42-20.42"/>
		<path class="st2" d="M86.82,207.2c11.28,0,20.42-9.14,20.42-20.42"/>
		<line class="st3" x1="60.83" y1="207.2" x2="195.44" y2="207.2"/>
		<path class="st3" d="M213.63,188.63c0,10.25-8.31,18.57-18.57,18.57"/>
	</g>
	<path class="st1" d="M72.38,64.5c0,0,16.88-1.65,18.75-1.65c1.87,0,29.71,0,30.56,0c0.85,0,8.38,1.78,8.38,1.78l2.97,9.68v30.97
		l1.93,12.22l16.55,7.32l27.56,14.55c0,0,8.44,5.97,9.19,6.82c0.75,0.85,3.88,12.78,3.31,13.64c-0.57,0.85-2,14.81-2,14.81
		l-8.18,6.21c0,0-4.46,4.43-4.61,4.49c-0.15,0.06-15.33-1.45-16.18,0c-0.85,1.45-73.78,0-73.78,0s-14.63-7.35-14.45-7.13
		c0.18,0.22-5.1-11.51-5.1-12.99s0-75.57,0-75.57s0.8-20.2,1.2-20.91S72.38,64.5,72.38,64.5z"/>
</g>
</svg>
