<?xml version="1.0" encoding="utf-8"?>
<!-- Generator: Adobe Illustrator 25.4.1, SVG Export Plug-In . SVG Version: 6.00 Build 0)  -->
<svg version="1.1" xmlns="http://www.w3.org/2000/svg" xmlns:xlink="http://www.w3.org/1999/xlink" x="0px" y="0px"
	 viewBox="0 0 271.29 356.19" style="enable-background:new 0 0 271.29 356.19;" xml:space="preserve">
<style type="text/css">
	.st0{fill:#962A86;}
	.st1{fill:#FFFFFF;}
</style>
<g id="bakgrund">
	<g>
		<rect x="1" y="0.85" class="st0" width="269.29" height="269.29"/>
		<path class="st0" d="M271.29,271.14H0V-0.15h271.29V271.14z M2,269.14h267.29V1.85H2V269.14z"/>
	</g>
	<rect x="1" y="270.15" class="st1" width="269.29" height="85.04"/>
	<path class="st0" d="M271.29,356.19H0v-87.04h271.29V356.19z M2,354.19h267.29v-83.04H2V354.19z"/>
</g>
<g id="namn">
	<g>
		<path d="M52.58,317.22h3.54c0.04,1.04,0.25,1.8,0.62,2.29c0.38,0.49,0.93,0.73,1.66,0.73s1.27-0.22,1.6-0.67s0.5-1.16,0.5-2.13
			c0-0.81-0.19-1.46-0.56-1.94c-0.38-0.48-1.01-0.92-1.91-1.33l-1.43-0.64c-1.36-0.61-2.34-1.36-2.94-2.26
			c-0.6-0.89-0.9-2.09-0.9-3.6c0-1.77,0.51-3.18,1.54-4.24c1.03-1.06,2.41-1.58,4.16-1.58c1.73,0,3.06,0.52,4.01,1.57
			c0.94,1.05,1.45,2.56,1.51,4.53h-3.45c-0.02-0.96-0.19-1.67-0.5-2.15c-0.31-0.48-0.84-0.72-1.57-0.72c-1.36,0-2.04,0.8-2.04,2.41
			c0,0.73,0.17,1.32,0.5,1.75c0.33,0.44,0.9,0.83,1.69,1.17l1.37,0.61c1.46,0.65,2.53,1.46,3.19,2.44c0.66,0.98,0.99,2.28,0.99,3.9
			c0,1.95-0.51,3.46-1.52,4.51c-1.02,1.06-2.46,1.58-4.33,1.58c-1.85,0-3.26-0.54-4.24-1.62S52.6,319.24,52.58,317.22z"/>
		<path d="M73.4,305.58v17.65h-3.72v-17.65h-3.66v-3.38h11.01v3.38H73.4z"/>
		<path d="M83.1,314.78v8.44h-3.75v-21.04h5.73c2.07,0,3.54,0.5,4.41,1.49c0.86,1,1.3,2.59,1.3,4.79c0,1.4-0.19,2.57-0.58,3.51
			c-0.39,0.93-1.02,1.64-1.89,2.1l3.14,9.15h-3.9l-2.65-8.44H83.1z M85.05,311.43c0.75,0,1.27-0.25,1.55-0.75
			c0.29-0.5,0.43-1.24,0.43-2.21s-0.14-1.71-0.41-2.19c-0.27-0.49-0.8-0.73-1.57-0.73H83.1v5.88H85.05z"/>
		<path d="M98.01,310.85h4.88v3.35h-4.88v5.67h5.67v3.35h-9.39v-21.04h9.39v3.38h-5.67V310.85z"/>
		<path d="M112.86,305.58v17.65h-3.72v-17.65h-3.66v-3.38h11.01v3.38H112.86z"/>
		<path d="M118.68,317.44v-9.48c0-1.99,0.56-3.5,1.68-4.53c1.12-1.03,2.59-1.54,4.42-1.54c1.75,0,3.16,0.51,4.24,1.52
			c1.08,1.02,1.62,2.56,1.62,4.63v0.64h-3.75v-0.61c0-0.96-0.2-1.66-0.59-2.12c-0.4-0.46-0.93-0.69-1.6-0.69
			c-0.79,0-1.37,0.27-1.72,0.82c-0.36,0.55-0.53,1.37-0.53,2.47v8.45c0,2.05,0.75,3.08,2.26,3.08c0.67,0,1.21-0.23,1.6-0.7
			c0.4-0.47,0.59-1.16,0.59-2.07v-0.55h3.72v0.58c0,2.03-0.56,3.56-1.69,4.59s-2.58,1.54-4.34,1.54c-1.81,0-3.24-0.51-4.3-1.54
			C119.21,320.91,118.68,319.41,118.68,317.44z"/>
		<path d="M145.45,323.23h-3.75v-9.02h-3.96v9.02h-3.75v-21.04h3.75v8.66h3.96v-8.66h3.75V323.23z"/>
		<path d="M170.51,323.23h-4.05l-2.29-12.93l-2.32,12.93h-4.02l-3.75-21.04h3.81l2.04,15.73l1.98-15.73h4.57l1.98,15.73l2.04-15.73
			h3.75L170.51,323.23z"/>
		<path d="M180.39,314.78v8.44h-3.75v-21.04h5.73c2.07,0,3.54,0.5,4.41,1.49c0.86,1,1.3,2.59,1.3,4.79c0,1.4-0.19,2.57-0.58,3.51
			c-0.39,0.93-1.02,1.64-1.89,2.1l3.14,9.15h-3.9l-2.65-8.44H180.39z M182.34,311.43c0.75,0,1.27-0.25,1.55-0.75
			c0.29-0.5,0.43-1.24,0.43-2.21s-0.14-1.71-0.41-2.19c-0.27-0.49-0.8-0.73-1.57-0.73h-1.95v5.88H182.34z"/>
		<path d="M195.24,319.14l-0.85,4.08h-3.9l5.4-21.04h3.66l5.37,21.04H201l-0.85-4.08H195.24z M197.71,307.25l-1.77,8.54h3.54
			L197.71,307.25z"/>
		<path d="M218.71,308.81c0,2.24-0.45,3.9-1.36,5s-2.37,1.65-4.41,1.65H211v7.77h-3.72v-21.04h5.67c2.07,0,3.55,0.55,4.44,1.65
			C218.27,304.94,218.71,306.59,218.71,308.81z M214.96,308.81c0-1.12-0.16-1.94-0.47-2.47c-0.31-0.53-0.87-0.79-1.66-0.79H211v6.52
			h1.83c0.79,0,1.35-0.26,1.66-0.79C214.81,310.75,214.96,309.93,214.96,308.81z"/>
	</g>
</g>
<g id="ikon">
	<g>
		<path class="st1" d="M55.21,129.33c9.2,0.48,17.67,4.52,23.83,11.37c6.17,6.85,9.3,15.69,8.81,24.89
			c-0.22,4.13-1.15,8.11-2.73,11.8l52.33-47.12c12.85-11.57,13.89-31.38,2.32-44.23c-11.57-12.85-31.38-13.89-44.23-2.32
			l-52.28,47.07C47.08,129.62,51.11,129.11,55.21,129.33z"/>
		<path class="st1" d="M76.68,142.82c-5.6-6.22-13.28-9.88-21.63-10.32c-0.56-0.03-1.12-0.04-1.68-0.04
			c-7.75,0-15.12,2.82-20.92,8.05c-6.22,5.6-9.88,13.28-10.32,21.63c-0.44,8.35,2.4,16.38,8,22.59c5.6,6.22,13.28,9.88,21.63,10.32
			c0.56,0.03,1.12,0.04,1.68,0.04c7.75,0,15.12-2.82,20.92-8.05c6.22-5.6,9.88-13.28,10.32-21.63
			C85.12,157.07,82.28,149.04,76.68,142.82z M55.81,167.11c-0.06,1.23-0.54,2.38-1.35,3.28c-0.13,0.15-0.27,0.29-0.42,0.43
			c-2.2,1.98-5.6,1.8-7.58-0.4c-1.98-2.2-1.8-5.6,0.4-7.58c0.15-0.14,0.31-0.26,0.47-0.38c0.93-0.67,2.03-1,3.12-1
			c1.47,0,2.93,0.6,3.99,1.77C55.4,164.3,55.89,165.68,55.81,167.11z M59.7,167.87L59.7,167.87L59.7,167.87
			C59.69,167.87,59.69,167.87,59.7,167.87C59.69,167.87,59.69,167.87,59.7,167.87l-0.9,0.81c0.1-0.46,0.17-0.93,0.19-1.4
			c0.12-2.28-0.66-4.47-2.18-6.17c-1.92-2.13-4.67-3.07-7.33-2.77l0.9-0.81c0,0,0,0,0,0c0,0,0,0,0,0l0,0l0,0
			c2.86-2.57,7.25-2.34,9.82,0.52C62.78,160.9,62.55,165.3,59.7,167.87z"/>
		<path class="st1" d="M237.34,132.5c-1.68-0.62-3.32-1.39-4.89-2.31c-0.78-0.45-1.54-0.94-2.29-1.47v0.03
			c-7.16-4.97-16.68-5.3-24.18-0.76c-0.16,0.09-1.49,1.03-2.02,1.38c-0.44,0.29-0.88,0.56-1.33,0.83c-0.93,0.54-1.88,1.04-2.85,1.48
			c-8.24,3.73-17.7,3.69-25.85,0c-0.97-0.44-1.93-0.93-2.86-1.48c-0.5-0.29-0.99-0.6-1.48-0.92c-0.43-0.33-2.84-1.84-3.62-2.23
			c-6.6-3.22-14.51-3.01-20.99,0.77l-66.96,60.3c6.87-3.54,15.14-3.24,21.72,0.75c0.76,0.58,1.54,1.13,2.34,1.63
			c3.74,2.36,7.89,3.86,12.15,4.49c3.02,0.44,6.1,0.44,9.13,0c4.33-0.63,8.55-2.18,12.38-4.65c0.64-0.42,1.28-0.86,1.9-1.33
			c7.33-4.57,16.65-4.44,23.82,0.18c0.45,0.33,0.91,0.65,1.37,0.96c3.88,2.56,8.22,4.18,12.68,4.83c2.02,0.3,4.07,0.39,6.12,0.29
			l29.75-26.79l28.04-25.25l9.78-8.8C245.18,134.56,241.14,133.91,237.34,132.5z M184.86,142.32l2.98,2.47l-48.77,13.6l-2.98-2.47
			L184.86,142.32z M147.07,177.42l-2.97-2.46l0-0.01l48.45-13.51l2.98,2.47L147.07,177.42z M125.43,172.89l-2.98-2.47l84.08-23.45
			l2.68,2.22l0.09,0.31L125.43,172.89z"/>
	</g>
</g>
</svg>
