<?xml version="1.0" encoding="utf-8"?>
<!-- Generator: Adobe Illustrator 25.4.1, SVG Export Plug-In . SVG Version: 6.00 Build 0)  -->
<svg version="1.1" xmlns="http://www.w3.org/2000/svg" xmlns:xlink="http://www.w3.org/1999/xlink" x="0px" y="0px"
	 viewBox="0 0 271.29 355.96" style="enable-background:new 0 0 271.29 355.96;" xml:space="preserve">
<style type="text/css">
	.st0{fill:#06682D;}
	.st1{fill:#FFFFFF;}
</style>
<g id="bakgrund">
	<g>
		<rect x="1" y="1" class="st0" width="269.29" height="269.29"/>
		<path class="st0" d="M271.29,271.29H0V0h271.29V271.29z M2,269.29h267.29V2H2V269.29z"/>
	</g>
	<g>
		<rect x="1" y="269.92" class="st1" width="269.29" height="85.04"/>
		<path class="st0" d="M271.29,355.96H0v-87.04h271.29V355.96z M2,353.96h267.29v-83.04H2V353.96z"/>
	</g>
</g>
<g id="namn">
	<g>
		<path d="M42.88,316.96h3.54c0.04,1.04,0.25,1.8,0.62,2.29c0.38,0.49,0.93,0.73,1.66,0.73s1.27-0.22,1.6-0.67
			c0.33-0.45,0.5-1.16,0.5-2.13c0-0.81-0.19-1.46-0.56-1.94c-0.38-0.48-1.01-0.92-1.91-1.33l-1.43-0.64
			c-1.36-0.61-2.34-1.36-2.94-2.26s-0.9-2.09-0.9-3.6c0-1.77,0.51-3.18,1.54-4.24s2.41-1.59,4.16-1.59c1.73,0,3.06,0.52,4.01,1.57
			c0.94,1.05,1.45,2.56,1.51,4.53h-3.45c-0.02-0.96-0.19-1.67-0.5-2.15c-0.31-0.48-0.84-0.72-1.57-0.72c-1.36,0-2.04,0.8-2.04,2.41
			c0,0.73,0.17,1.32,0.5,1.75c0.33,0.44,0.9,0.83,1.69,1.17l1.37,0.61c1.46,0.65,2.53,1.46,3.19,2.44c0.66,0.98,0.99,2.28,0.99,3.9
			c0,1.95-0.51,3.46-1.52,4.51c-1.02,1.06-2.46,1.58-4.33,1.58c-1.85,0-3.26-0.54-4.24-1.62S42.9,318.98,42.88,316.96z"/>
		<path d="M63.71,305.32v17.65h-3.72v-17.65h-3.66v-3.38h11.01v3.38H63.71z"/>
		<path d="M70.4,320.47c-0.5-0.87-0.75-1.88-0.75-3.02v-15.52h3.75v15.43c0,0.85,0.16,1.48,0.49,1.88c0.33,0.4,0.82,0.59,1.49,0.59
			c1.32,0,1.98-0.82,1.98-2.47v-15.43h3.75v15.52c0,1.14-0.24,2.14-0.73,3.02c-0.49,0.87-1.17,1.55-2.04,2.03
			c-0.87,0.48-1.86,0.72-2.96,0.72s-2.08-0.24-2.94-0.72C71.58,322.02,70.9,321.34,70.4,320.47z"/>
		<path d="M99.44,322.97h-3.75v-12.32l-2.68,8.23h-2.01l-2.65-8.14v12.23h-3.75v-21.04h3.75l3.66,11.1l3.69-11.1h3.75V322.97z"/>
		<path d="M114.35,308.55c0,2.24-0.45,3.9-1.36,5s-2.37,1.65-4.41,1.65h-1.95v7.77h-3.72v-21.04h5.67c2.07,0,3.55,0.55,4.44,1.65
			C113.91,304.68,114.35,306.33,114.35,308.55z M110.6,308.55c0-1.12-0.16-1.94-0.47-2.47c-0.31-0.53-0.87-0.79-1.66-0.79h-1.83
			v6.52h1.83c0.79,0,1.35-0.26,1.66-0.79C110.44,310.49,110.6,309.67,110.6,308.55z"/>
		<path d="M116.36,316.96h3.54c0.04,1.04,0.25,1.8,0.62,2.29c0.38,0.49,0.93,0.73,1.66,0.73s1.27-0.22,1.6-0.67
			c0.33-0.45,0.5-1.16,0.5-2.13c0-0.81-0.19-1.46-0.56-1.94c-0.38-0.48-1.01-0.92-1.91-1.33l-1.43-0.64
			c-1.36-0.61-2.34-1.36-2.94-2.26s-0.9-2.09-0.9-3.6c0-1.77,0.51-3.18,1.54-4.24s2.41-1.59,4.16-1.59c1.73,0,3.06,0.52,4.01,1.57
			c0.94,1.05,1.45,2.56,1.51,4.53h-3.45c-0.02-0.96-0.19-1.67-0.5-2.15c-0.31-0.48-0.84-0.72-1.57-0.72c-1.36,0-2.04,0.8-2.04,2.41
			c0,0.73,0.17,1.32,0.5,1.75c0.33,0.44,0.9,0.83,1.69,1.17l1.37,0.61c1.46,0.65,2.53,1.46,3.19,2.44c0.66,0.98,0.99,2.28,0.99,3.9
			c0,1.95-0.51,3.46-1.52,4.51c-1.02,1.06-2.46,1.58-4.33,1.58c-1.85,0-3.26-0.54-4.24-1.62S116.38,318.98,116.36,316.96z"/>
		<path d="M150.05,319.89h0.37v3.08h-1.46c-0.67,0-1.18-0.12-1.54-0.37s-0.75-0.7-1.17-1.37c-0.57,0.73-1.21,1.25-1.92,1.57
			c-0.71,0.32-1.53,0.47-2.47,0.47c-1.42,0-2.57-0.45-3.44-1.34c-0.87-0.89-1.31-2.08-1.31-3.57c0-1.06,0.26-2.1,0.78-3.12
			c0.52-1.03,1.39-2.19,2.61-3.49c-0.79-1.3-1.36-2.34-1.69-3.12c-0.33-0.78-0.5-1.57-0.5-2.36c0-1.38,0.44-2.5,1.31-3.35
			s2.01-1.28,3.42-1.28c1.38,0,2.51,0.43,3.38,1.28c0.87,0.85,1.31,1.97,1.31,3.35c0,0.89-0.23,1.81-0.7,2.74
			c-0.47,0.93-1.25,1.99-2.35,3.17l1.86,3.11l1.4-2.26l2.53,1.74l-2.2,3.41l0.55,0.92c0.16,0.28,0.34,0.49,0.53,0.61
			C149.53,319.83,149.77,319.89,150.05,319.89z M144.56,318.46l-2.35-3.84c-0.59,0.67-1,1.26-1.23,1.78
			c-0.23,0.52-0.35,1.05-0.35,1.6c0,0.65,0.15,1.15,0.44,1.49c0.29,0.35,0.7,0.52,1.21,0.52c0.41,0,0.78-0.11,1.13-0.34
			C143.75,319.45,144.14,319.05,144.56,318.46z M141.67,306.08c0,0.37,0.09,0.79,0.26,1.26c0.17,0.48,0.49,1.11,0.96,1.91
			c0.57-0.65,0.95-1.2,1.14-1.66c0.19-0.46,0.29-0.96,0.29-1.51c0-0.55-0.12-0.97-0.35-1.25c-0.23-0.29-0.55-0.43-0.96-0.43
			c-0.43,0-0.76,0.15-0.99,0.44S141.67,305.55,141.67,306.08z"/>
		<path d="M163.8,314.52v8.45h-3.75v-21.04h5.73c2.07,0,3.54,0.5,4.41,1.49c0.86,1,1.3,2.59,1.3,4.79c0,1.4-0.19,2.57-0.58,3.51
			s-1.02,1.64-1.89,2.1l3.14,9.15h-3.9l-2.65-8.45H163.8z M165.75,311.17c0.75,0,1.27-0.25,1.55-0.75c0.29-0.5,0.43-1.23,0.43-2.21
			s-0.14-1.71-0.41-2.2c-0.27-0.49-0.8-0.73-1.57-0.73h-1.95v5.88H165.75z"/>
		<path d="M174.87,317.18v-9.48c0-1.99,0.56-3.5,1.68-4.53c1.12-1.03,2.59-1.54,4.42-1.54c1.77,0,3.19,0.51,4.25,1.54
			s1.6,2.54,1.6,4.53v9.48c0,1.95-0.56,3.45-1.69,4.48c-1.13,1.04-2.59,1.55-4.37,1.55c-1.81,0-3.24-0.51-4.3-1.54
			C175.4,320.65,174.87,319.15,174.87,317.18z M183.07,316.75v-8.44c0-1.08-0.18-1.9-0.55-2.46c-0.37-0.56-0.91-0.84-1.65-0.84
			c-0.79,0-1.37,0.27-1.72,0.82c-0.36,0.55-0.53,1.37-0.53,2.47v8.44c0,2.05,0.75,3.08,2.26,3.08c0.71,0,1.26-0.27,1.63-0.81
			C182.88,318.48,183.07,317.73,183.07,316.75z"/>
		<path d="M190.05,317.18v-9.48c0-1.99,0.56-3.5,1.68-4.53c1.12-1.03,2.59-1.54,4.42-1.54c1.77,0,3.19,0.51,4.25,1.54
			s1.6,2.54,1.6,4.53v9.48c0,1.95-0.56,3.45-1.69,4.48c-1.13,1.04-2.59,1.55-4.37,1.55c-1.81,0-3.24-0.51-4.3-1.54
			C190.58,320.65,190.05,319.15,190.05,317.18z M198.25,316.75v-8.44c0-1.08-0.18-1.9-0.55-2.46c-0.37-0.56-0.91-0.84-1.65-0.84
			c-0.79,0-1.37,0.27-1.72,0.82c-0.36,0.55-0.53,1.37-0.53,2.47v8.44c0,2.05,0.75,3.08,2.26,3.08c0.71,0,1.26-0.27,1.63-0.81
			C198.07,318.48,198.25,317.73,198.25,316.75z"/>
		<path d="M211.58,305.32v17.65h-3.72v-17.65h-3.66v-3.38h11.01v3.38H211.58z"/>
		<path d="M216.82,316.96h3.54c0.04,1.04,0.25,1.8,0.62,2.29c0.38,0.49,0.93,0.73,1.66,0.73s1.27-0.22,1.6-0.67
			c0.33-0.45,0.5-1.16,0.5-2.13c0-0.81-0.19-1.46-0.56-1.94c-0.38-0.48-1.01-0.92-1.91-1.33l-1.43-0.64
			c-1.36-0.61-2.34-1.36-2.94-2.26s-0.9-2.09-0.9-3.6c0-1.77,0.51-3.18,1.54-4.24s2.41-1.59,4.16-1.59c1.73,0,3.06,0.52,4.01,1.57
			c0.94,1.05,1.45,2.56,1.51,4.53h-3.45c-0.02-0.96-0.19-1.67-0.5-2.15c-0.31-0.48-0.84-0.72-1.57-0.72c-1.36,0-2.04,0.8-2.04,2.41
			c0,0.73,0.17,1.32,0.5,1.75c0.33,0.44,0.9,0.83,1.69,1.17l1.37,0.61c1.46,0.65,2.53,1.46,3.19,2.44c0.66,0.98,0.99,2.28,0.99,3.9
			c0,1.95-0.51,3.46-1.52,4.51c-1.02,1.06-2.46,1.58-4.33,1.58c-1.85,0-3.26-0.54-4.24-1.62S216.84,318.98,216.82,316.96z"/>
	</g>
</g>
<g id="ikon">
	<g>
		<g>
			<path class="st1" d="M212.51,160.52c-8.43,0.19-14.66-3-20.54-9.03c-6.35-6.5-9.91-7.71-14.89-11.33
				c-5.93-4.32-10.99-12.18-10.99-41.62V74.19c-0.07,0.05-0.14,0.09-0.21,0.14c-0.01,0.01-0.03,0.02-0.04,0.03
				c-0.07,0.04-0.14,0.09-0.21,0.13l0,0c-0.65,0.38-1.3,0.62-1.66,0.76c-1.8,0.68-4.35,1.28-7.56,1.79
				c-6.47,1.03-15.06,1.6-24.19,1.6c-9.12,0-17.71-0.57-24.19-1.6c-3.21-0.51-5.76-1.11-7.56-1.79c-0.88-0.33-1.58-0.68-2.12-1.05
				c-0.06-0.04-0.13-0.09-0.19-0.13c0.08,5.12-0.11,14.59-0.11,24.65c0,24.39-2.5,35.53-4.45,38.9c-3.66,6.34-4.98,8.29-8.61,11.08
				c-5.33,4.09-8.73,4.51-13.7,4.15c-4.23-0.31-8.45,0.67-13.79,2.3c-5.2,1.58-7.23,3.82-12.34,4.81c-3.75,0.73-16.03,2.3-16.03,2.3
				s6.01,3.66,16.92,4.2c4.25,0.21,12.52-2.46,18.31-1.54c9.99,1.58,12.96,1.54,17.04,1.36c3.74-0.16,11.42-2.3,14.05-4.04
				c2.63-1.74,6.91-3.69,6.91-3.69s7.99-4.02,2.53,4.07c-6.14,9.09-4.03,16.52-6.84,20.85c-2.81,4.33-7.19,7.03-14.44,7.95
				c-5.18,0.66-9.45,6.75-9.45,6.75s11.27-2.29,16.32-2.17c20.5,0.49,23.88-17.05,28.19-24.96c4.82-8.84,18.55-21.32,23.03-10.87
				c2.27,5.29,3.56,11.84,6.39,17.82c3.67,7.76,10.77,9.81,13.56,11.9c3.53,2.64,9.94,8.58,13.98,10.9
				c6.55,3.74,18.42,2.47,18.42,2.47s-3.72-2.41-10.04-6.97c-6.09-4.39-6.8-7.64-8.39-9.82c-6.58-9.05-11.91-9.8-12.99-14.52
				c-1.97-8.66-4.13-21.81,10.66-12.88c4.69,2.83,10.61,7.4,14.89,9.93c2.86,1.69,7.17,2.83,15.21,3.42
				c4.99,0.36,8.85-1.58,16.04-2.2c5.37-0.46,22.7-1.54,22.7-1.54S225.81,160.21,212.51,160.52z"/>
		</g>
		<path class="st1" d="M132.22,75.55c8.31,0,16.28-0.49,22.43-1.37c6.53-0.93,8.84-1.99,9.61-2.48c-0.77-0.49-3.09-1.55-9.61-2.48
			c-6.15-0.88-14.12-1.37-22.43-1.37c-8.31,0-16.28,0.49-22.43,1.37c-6.53,0.93-8.84,1.99-9.61,2.48c0.77,0.49,3.09,1.55,9.61,2.48
			C115.94,75.07,123.91,75.55,132.22,75.55z"/>
	</g>
</g>
</svg>
