<?xml version="1.0" encoding="utf-8"?>
<!-- Generator: Adobe Illustrator 25.4.1, SVG Export Plug-In . SVG Version: 6.00 Build 0)  -->
<svg version="1.1" xmlns="http://www.w3.org/2000/svg" xmlns:xlink="http://www.w3.org/1999/xlink" x="0px" y="0px"
	 viewBox="0 0 271.29 356.19" style="enable-background:new 0 0 271.29 356.19;" xml:space="preserve">
<style type="text/css">
	.st0{fill:#962A86;}
	.st1{fill:#FFFFFF;}
</style>
<g id="bakgrund">
	<g>
		<rect x="1" y="1" class="st0" width="269.29" height="269.29"/>
		<path class="st0" d="M271.29,271.29H0V0h271.29V271.29z M2,269.29h267.29V2H2V269.29z"/>
	</g>
	<rect x="1" y="270.15" class="st1" width="269.29" height="85.04"/>
	<path class="st0" d="M271.29,356.19H0v-87.04h271.29V356.19z M2,354.19h267.29v-83.04H2V354.19z"/>
</g>
<g id="namn">
	<g>
		<path d="M110.49,305.58v17.65h-3.72v-17.65h-3.66v-3.38h11.01v3.38H110.49z"/>
		<path d="M123.36,323.23h-3.75v-8.26l-4.27-12.77h4.12l2.01,8.05l2.01-8.05h4.15l-4.27,12.83V323.23z"/>
		<path d="M133.75,314.78v8.45H130v-21.04h5.73c2.07,0,3.54,0.5,4.41,1.49c0.86,1,1.3,2.59,1.3,4.79c0,1.4-0.19,2.57-0.58,3.51
			c-0.39,0.93-1.02,1.64-1.89,2.1l3.14,9.15h-3.9l-2.65-8.45H133.75z M135.71,311.43c0.75,0,1.27-0.25,1.55-0.75
			c0.29-0.5,0.43-1.23,0.43-2.21s-0.14-1.71-0.41-2.2c-0.27-0.49-0.8-0.73-1.57-0.73h-1.95v5.88H135.71z"/>
		<path d="M148.67,310.85h4.88v3.35h-4.88v5.67h5.67v3.35h-9.39v-21.04h9.39v3.38h-5.67V310.85z"/>
		<path d="M156.59,317.22h3.54c0.04,1.04,0.25,1.8,0.62,2.29c0.38,0.49,0.93,0.73,1.66,0.73s1.27-0.22,1.6-0.67
			c0.33-0.45,0.5-1.16,0.5-2.13c0-0.81-0.19-1.46-0.56-1.94c-0.38-0.48-1.01-0.92-1.91-1.33l-1.43-0.64
			c-1.36-0.61-2.34-1.36-2.94-2.26s-0.9-2.09-0.9-3.6c0-1.77,0.51-3.18,1.54-4.24s2.41-1.59,4.16-1.59c1.73,0,3.06,0.52,4.01,1.57
			c0.94,1.05,1.45,2.56,1.51,4.53h-3.45c-0.02-0.96-0.19-1.67-0.5-2.15c-0.31-0.48-0.84-0.72-1.57-0.72c-1.36,0-2.04,0.8-2.04,2.41
			c0,0.73,0.17,1.32,0.5,1.75c0.33,0.44,0.9,0.83,1.69,1.17l1.37,0.61c1.46,0.65,2.53,1.46,3.19,2.44c0.66,0.98,0.99,2.28,0.99,3.9
			c0,1.95-0.51,3.46-1.52,4.51c-1.02,1.06-2.46,1.58-4.33,1.58c-1.85,0-3.26-0.54-4.24-1.62S156.61,319.24,156.59,317.22z"/>
	</g>
</g>
<g id="ikon">
	<g>
		<g>
			<path class="st1" d="M142.41,107.92c-1.91-8.49-4.64-16.11-8.11-22.64c-3.43-6.46-7.41-11.51-11.82-15.02
				c-4.45-3.54-9.14-5.33-13.95-5.33c-2.33,0-4.63,0.42-6.89,1.26c-9.09,4.64-16.92,14.15-22.39,26.71
				c-0.52,1.3-1.01,2.63-1.48,3.99c-1.17,3.42-2.18,7.03-3.03,10.81c-1.98,8.83-2.98,18.21-2.98,27.89c0,9.68,1,19.06,2.98,27.89
				c1.16,5.16,2.62,9.99,4.36,14.45c5.82,13.52,14.35,23.55,24.26,27.87c1.73,0.48,3.49,0.73,5.26,0.73c4.82,0,9.52-1.8,13.97-5.35
				c2.06-1.64,4.02-3.62,5.88-5.92c0.09-0.11,0.18-0.22,0.26-0.33c0.01-0.02,0.02-0.03,0.04-0.05c1.97-2.51,3.82-5.38,5.54-8.61
				c3.47-6.53,6.2-14.15,8.11-22.64c1.98-8.82,2.99-18.2,2.99-27.87C145.4,126.11,144.4,116.74,142.41,107.92z M90.44,170.01
				c-4.38-9.14-6.8-21.25-6.8-34.1c0-12.85,2.41-24.97,6.8-34.1c4.56-9.51,10.77-14.75,17.48-14.75c6.71,0,12.91,5.24,17.48,14.75
				c4.38,9.14,6.8,21.25,6.8,34.1c0,12.85-2.41,24.97-6.8,34.1c-4.56,9.51-10.77,14.75-17.48,14.75
				C101.21,184.77,95,179.53,90.44,170.01z"/>
			<g>
				<path class="st1" d="M123.22,104.81c-0.24-0.55-0.48-1.08-0.73-1.6c-1.99-4.14-4.28-7.38-6.82-9.61
					c-2.49-2.2-5.1-3.31-7.75-3.31c-2.65,0-5.26,1.11-7.75,3.31c-2.54,2.24-4.83,5.47-6.82,9.61c-4.18,8.71-6.48,20.32-6.48,32.71
					c0,12.38,2.3,24,6.48,32.71c1.99,4.14,4.28,7.38,6.82,9.61c2.49,2.2,5.1,3.31,7.75,3.31c2.65,0,5.26-1.11,7.75-3.31
					c2.54-2.24,4.83-5.47,6.82-9.61c0.66-1.38,1.27-2.83,1.84-4.34c-3.26-7.92-5.29-18.97-5.29-31.2
					C119.03,122.29,120.61,112.42,123.22,104.81z"/>
			</g>
		</g>
		<g>
			<path class="st1" d="M150.17,66.07l7.55,2.77c0.63,0.23,1.01,0.86,0.92,1.52l-0.75,5.39c-0.07,0.48,0.12,0.96,0.49,1.28
				l7.94,6.72c0.36,0.3,0.54,0.77,0.49,1.24l-0.77,7.08c-0.04,0.4,0.08,0.8,0.35,1.1l6.35,7.08c0.29,0.33,0.42,0.77,0.34,1.2
				l-1.83,10.18c-0.07,0.37,0.02,0.75,0.23,1.06l4.78,6.91c0.25,0.36,0.32,0.82,0.19,1.23l-3.76,11.89c-0.1,0.33-0.08,0.68,0.05,1
				l3.86,8.81c0.16,0.36,0.16,0.76,0.01,1.12l-4.8,11.26c-0.13,0.3-0.15,0.64-0.06,0.95l2.47,8.53c0.12,0.42,0.04,0.87-0.21,1.23
				l-6.11,8.45c-0.22,0.3-0.31,0.67-0.25,1.04l1.21,8.14c0.07,0.47-0.1,0.94-0.45,1.26l-6.57,5.95c-0.3,0.27-0.47,0.65-0.47,1.05
				v6.04c0,0.48-0.25,0.93-0.65,1.19l-7.55,4.85c-0.38,0.25-0.62,0.66-0.65,1.11l-0.2,3.41l-0.23,0.12l5.74,0.01
				c0.24,0,0.47-0.06,0.68-0.17l3.07-1.68c0.43-0.23,0.71-0.67,0.74-1.16l0.14-2.46c0.03-0.45,0.27-0.87,0.65-1.11l7.45-4.79
				c0.41-0.26,0.65-0.71,0.65-1.19V190c0-0.4,0.17-0.78,0.47-1.05l6.34-5.74c0.35-0.32,0.52-0.79,0.45-1.26l-1.14-7.71
				c-0.05-0.37,0.04-0.74,0.25-1.04l5.95-8.22c0.26-0.35,0.33-0.81,0.21-1.23l-2.34-8.1c-0.09-0.31-0.07-0.65,0.06-0.95l4.7-11.02
				c0.15-0.36,0.15-0.77-0.01-1.12l-3.78-8.63c-0.14-0.31-0.16-0.67-0.05-1l3.65-11.52c0.13-0.42,0.06-0.87-0.19-1.23l-4.63-6.69
				c-0.21-0.31-0.3-0.69-0.23-1.06l1.78-9.93c0.08-0.43-0.05-0.87-0.34-1.2l-6.26-6.98c-0.27-0.3-0.4-0.7-0.35-1.1l0.74-6.79
				c0.05-0.47-0.13-0.93-0.49-1.24L168,78.43c-0.37-0.31-0.55-0.8-0.49-1.28l0.63-4.53c0.09-0.66-0.29-1.29-0.92-1.52l-7.29-2.68
				c-0.58-0.21-0.95-0.77-0.93-1.38l0.09-2.51c0.03-0.8-0.61-1.47-1.42-1.47l-0.36,0l-6.64,0c-0.76,0-1.39,0.6-1.42,1.37l-0.01,0.26
				C149.22,65.3,149.6,65.86,150.17,66.07z"/>
			<path class="st1" d="M147.45,198.74l-7.55,4.85c-0.38,0.25-0.62,0.66-0.65,1.11l-0.2,3.41l-0.17,0.09l5.74,0.01
				c0.24,0,0.47-0.06,0.68-0.17l3.01-1.64c0.43-0.23,0.71-0.67,0.74-1.16l0.14-2.46c0.03-0.45,0.27-0.87,0.65-1.11l7.45-4.79
				c0.41-0.26,0.65-0.71,0.65-1.19V190c0-0.4,0.17-0.78,0.47-1.05l6.34-5.74c0.35-0.32,0.52-0.79,0.45-1.26l-1.14-7.71
				c-0.05-0.37,0.04-0.74,0.25-1.04l5.95-8.22c0.26-0.35,0.33-0.81,0.21-1.23l-2.34-8.1c-0.09-0.31-0.07-0.65,0.06-0.95l4.7-11.02
				c0.15-0.36,0.15-0.77-0.01-1.12l-3.78-8.63c-0.14-0.31-0.16-0.67-0.05-1l3.65-11.52c0.13-0.42,0.06-0.87-0.19-1.23l-4.63-6.69
				c-0.21-0.31-0.3-0.69-0.23-1.06l1.78-9.93c0.08-0.43-0.05-0.87-0.34-1.2l-6.26-6.98c-0.27-0.3-0.4-0.7-0.35-1.1l0.74-6.79
				c0.05-0.47-0.13-0.93-0.49-1.24l-7.99-6.76c-0.37-0.31-0.55-0.8-0.49-1.28l0.63-4.53c0.09-0.66-0.29-1.29-0.92-1.52l-7.29-2.68
				c-0.58-0.21-0.95-0.77-0.93-1.38l0.09-2.52c0.03-0.8-0.61-1.47-1.42-1.47l-7,0c-0.76,0-1.39,0.6-1.42,1.37l-0.01,0.27
				c-0.02,0.61,0.35,1.17,0.93,1.38l7.55,2.77c0.63,0.23,1.01,0.86,0.92,1.52l-0.75,5.39c-0.07,0.48,0.12,0.96,0.49,1.28l7.94,6.72
				c0.36,0.3,0.54,0.77,0.49,1.24l-0.77,7.08c-0.04,0.4,0.08,0.8,0.35,1.1l6.35,7.08c0.29,0.33,0.42,0.77,0.34,1.2L158,111.64
				c-0.07,0.37,0.02,0.75,0.23,1.06l4.78,6.91c0.25,0.36,0.32,0.82,0.19,1.23l-3.76,11.89c-0.1,0.33-0.08,0.68,0.05,1l3.86,8.81
				c0.16,0.36,0.16,0.76,0.01,1.12l-4.8,11.26c-0.13,0.3-0.15,0.64-0.06,0.95l2.47,8.53c0.12,0.42,0.04,0.87-0.21,1.23l-6.11,8.45
				c-0.22,0.3-0.31,0.67-0.25,1.04l1.21,8.14c0.07,0.47-0.1,0.94-0.45,1.26l-6.57,5.95c-0.3,0.27-0.47,0.65-0.47,1.05v6.04
				C148.1,198.03,147.86,198.48,147.45,198.74z"/>
			<path class="st1" d="M162.5,64.84L162.5,64.84c-0.02,0.53,0.3,1,0.8,1.19l7.84,2.88c0.54,0.2,0.86,0.74,0.79,1.31l-0.78,5.66
				c-0.06,0.41,0.1,0.83,0.42,1.09l8.1,6.86c0.31,0.26,0.47,0.66,0.42,1.06l-0.79,7.28c-0.04,0.34,0.07,0.69,0.3,0.94l6.48,7.22
				c0.25,0.28,0.36,0.66,0.29,1.03l-1.86,10.36c-0.06,0.32,0.01,0.64,0.2,0.91l4.88,7.06c0.21,0.31,0.27,0.7,0.16,1.06l-3.82,12.06
				c-0.09,0.28-0.07,0.58,0.05,0.85l3.92,8.96c0.13,0.31,0.14,0.66,0,0.96l-4.86,11.41c-0.11,0.26-0.13,0.55-0.05,0.81l2.52,8.69
				c0.1,0.36,0.04,0.75-0.18,1.05l-6.22,8.59c-0.19,0.26-0.26,0.58-0.22,0.89l1.23,8.33c0.06,0.4-0.09,0.81-0.39,1.08l-6.71,6.08
				c-0.25,0.23-0.4,0.56-0.4,0.9v6.24c0,0.41-0.21,0.8-0.56,1.02l-7.73,4.97c-0.33,0.21-0.53,0.56-0.56,0.95l-0.04,0.61
				c-0.05,0.89,0.83,1.53,1.66,1.21c18.39-7.22,32.14-36.19,32.14-70.83c0-36.73-15.46-67.09-35.52-71.9
				C163.26,63.52,162.52,64.06,162.5,64.84z"/>
			<path class="st1" d="M133.78,193.65c-2.76,4.08-5.79,7.45-9.07,10.06c-0.84,0.67-1.68,1.28-2.54,1.84
				c-1.19,0.78-0.68,2.62,0.74,2.62l8.5,0.02c0.24,0,0.47-0.06,0.68-0.17l2.96-1.61c0.43-0.23,0.71-0.67,0.74-1.16l0.14-2.46
				c0.03-0.45,0.27-0.87,0.65-1.11l7.45-4.79c0.41-0.26,0.65-0.71,0.65-1.19l0-5.69c0-0.4,0.17-0.78,0.47-1.05l6.34-5.74
				c0.35-0.32,0.52-0.79,0.45-1.26l-1.14-7.71c-0.05-0.37,0.04-0.74,0.25-1.04l5.95-8.22c0.26-0.35,0.33-0.81,0.21-1.23l-2.34-8.1
				c-0.09-0.31-0.07-0.65,0.06-0.95l4.7-11.02c0.15-0.36,0.15-0.77-0.01-1.12l-3.78-8.63c-0.14-0.31-0.16-0.67-0.05-1l3.65-11.52
				c0.13-0.42,0.06-0.87-0.19-1.23l-4.63-6.69c-0.21-0.31-0.3-0.69-0.23-1.06l1.78-9.93c0.08-0.43-0.05-0.87-0.34-1.2l-6.26-6.98
				c-0.27-0.3-0.4-0.7-0.35-1.1l0.74-6.79c0.05-0.47-0.13-0.93-0.49-1.24l-7.99-6.76c-0.37-0.31-0.55-0.8-0.49-1.28l0.63-4.53
				c0.09-0.66-0.29-1.29-0.92-1.52l-7.29-2.68c-0.58-0.21-0.95-0.77-0.93-1.38l0.09-2.53c0.03-0.8-0.61-1.47-1.42-1.47l-8.2-0.01
				c-1.43,0-1.94,1.84-0.75,2.62c0.84,0.55,1.68,1.16,2.51,1.82c3.27,2.61,6.31,5.98,9.07,10.06c1.25,1.85,2.45,3.85,3.58,5.99
				c7.39,13.93,11.46,32.42,11.46,52.06c0,19.64-4.07,38.13-11.46,52.06C136.23,189.8,135.04,191.8,133.78,193.65z"/>
		</g>
	</g>
</g>
</svg>
