<?xml version="1.0" encoding="utf-8"?>
<!-- Generator: Adobe Illustrator 25.4.1, SVG Export Plug-In . SVG Version: 6.00 Build 0)  -->
<svg version="1.1" xmlns="http://www.w3.org/2000/svg" xmlns:xlink="http://www.w3.org/1999/xlink" x="0px" y="0px"
	 viewBox="0 0 271.29 356.19" style="enable-background:new 0 0 271.29 356.19;" xml:space="preserve">
<style type="text/css">
	.st0{fill:#FFFFFF;}
	.st1{fill:none;stroke:#000000;stroke-width:0;stroke-linecap:round;stroke-linejoin:round;}
</style>
<g id="bakgrund">
	<g>
		<rect x="1" y="1" width="269.29" height="269.29"/>
		<path d="M271.29,271.29H0V0h271.29V271.29z M2,269.29h267.29V2H2V269.29z"/>
	</g>
	<g>
		<rect x="1" y="270.15" class="st0" width="269.29" height="85.04"/>
		<path d="M271.29,356.19H0v-87.04h271.29V356.19z M2,354.19h267.29v-83.04H2V354.19z"/>
	</g>
</g>
<g id="namn">
	<g>
		<path d="M62.04,305.73c-0.5-0.87-0.75-1.88-0.75-3.02v-15.52h3.75v15.43c0,0.85,0.16,1.48,0.49,1.88c0.33,0.4,0.82,0.59,1.49,0.59
			c1.32,0,1.98-0.82,1.98-2.47v-15.43h3.75v15.52c0,1.14-0.24,2.14-0.73,3.02c-0.49,0.87-1.17,1.55-2.04,2.03
			c-0.87,0.48-1.86,0.72-2.96,0.72s-2.08-0.24-2.94-0.72C63.22,307.28,62.54,306.6,62.04,305.73z"/>
		<path d="M87.67,293.81c0,2.24-0.45,3.9-1.36,5s-2.37,1.65-4.41,1.65h-1.95v7.77h-3.72v-21.04h5.67c2.07,0,3.55,0.55,4.44,1.65
			C87.23,289.94,87.67,291.59,87.67,293.81z M83.92,293.81c0-1.12-0.16-1.94-0.47-2.47c-0.31-0.53-0.87-0.79-1.66-0.79h-1.83v6.52
			h1.83c0.79,0,1.35-0.26,1.66-0.79C83.76,295.75,83.92,294.93,83.92,293.81z"/>
		<path d="M101.85,308.23H98.1v-9.02h-3.96v9.02h-3.75v-21.04h3.75v8.66h3.96v-8.66h3.75V308.23z"/>
		<path d="M105.2,302.44v-9.48c0-1.99,0.56-3.5,1.68-4.53c1.12-1.03,2.59-1.54,4.42-1.54c1.77,0,3.19,0.51,4.25,1.54
			s1.6,2.54,1.6,4.53v9.48c0,1.95-0.56,3.45-1.69,4.48c-1.13,1.04-2.59,1.55-4.37,1.55c-1.81,0-3.24-0.51-4.3-1.54
			C105.73,305.91,105.2,304.41,105.2,302.44z M113.4,302.01v-8.44c0-1.08-0.18-1.9-0.55-2.46c-0.37-0.56-0.91-0.84-1.65-0.84
			c-0.79,0-1.37,0.27-1.72,0.82c-0.36,0.55-0.53,1.37-0.53,2.47v8.44c0,2.05,0.75,3.08,2.26,3.08c0.71,0,1.26-0.27,1.63-0.81
			C113.22,303.74,113.4,302.99,113.4,302.01z"/>
		<path d="M124.26,287.19v17.68h5.64v3.35h-9.39v-21.04H124.26z"/>
		<path d="M131.91,302.22h3.54c0.04,1.04,0.25,1.8,0.62,2.29c0.38,0.49,0.93,0.73,1.66,0.73s1.27-0.22,1.6-0.67
			c0.33-0.45,0.5-1.16,0.5-2.13c0-0.81-0.19-1.46-0.56-1.94c-0.38-0.48-1.01-0.92-1.91-1.33l-1.43-0.64
			c-1.36-0.61-2.34-1.36-2.94-2.26s-0.9-2.09-0.9-3.6c0-1.77,0.51-3.18,1.54-4.24s2.41-1.59,4.16-1.59c1.73,0,3.06,0.52,4.01,1.57
			c0.94,1.05,1.45,2.56,1.51,4.53h-3.45c-0.02-0.96-0.19-1.67-0.5-2.15c-0.31-0.48-0.84-0.72-1.57-0.72c-1.36,0-2.04,0.8-2.04,2.41
			c0,0.73,0.17,1.32,0.5,1.75c0.33,0.44,0.9,0.83,1.69,1.17l1.37,0.61c1.46,0.65,2.53,1.46,3.19,2.44c0.66,0.98,0.99,2.28,0.99,3.9
			c0,1.95-0.51,3.46-1.52,4.51c-1.02,1.06-2.46,1.58-4.33,1.58c-1.85,0-3.26-0.54-4.24-1.62S131.93,304.24,131.91,302.22z"/>
		<path d="M152.73,290.58v17.65h-3.72v-17.65h-3.66v-3.38h11.01v3.38H152.73z"/>
		<path d="M162.4,295.85h4.88v3.35h-4.88v5.67h5.67v3.35h-9.39v-21.04h9.39v3.38h-5.67V295.85z"/>
		<path d="M174.78,299.78v8.45h-3.75v-21.04h5.73c2.07,0,3.54,0.5,4.41,1.49c0.86,1,1.3,2.59,1.3,4.79c0,1.4-0.19,2.57-0.58,3.51
			c-0.39,0.93-1.02,1.64-1.89,2.1l3.14,9.15h-3.9l-2.65-8.45H174.78z M176.73,296.43c0.75,0,1.27-0.25,1.55-0.75
			c0.29-0.5,0.43-1.23,0.43-2.21s-0.14-1.71-0.41-2.2c-0.27-0.49-0.8-0.73-1.57-0.73h-1.95v5.88H176.73z"/>
		<path d="M189.69,295.85h4.88v3.35h-4.88v5.67h5.67v3.35h-9.39v-21.04h9.39v3.38h-5.67V295.85z"/>
		<path d="M204.14,287.19c1.77,0,3.19,0.51,4.25,1.52c1.07,1.02,1.6,2.52,1.6,4.51v8.96c0,1.97-0.56,3.47-1.68,4.5
			s-2.57,1.54-4.36,1.54h-5.64v-21.04H204.14z M205.68,304.05c0.38-0.55,0.56-1.31,0.56-2.29v-7.9c0-1.08-0.18-1.9-0.55-2.45
			c-0.37-0.56-0.91-0.84-1.65-0.84h-2.01v14.3h2.01C204.76,304.88,205.3,304.6,205.68,304.05z"/>
		<path d="M81.42,325.94h4.88v3.38h-4.88v8.9h-3.75v-21.04h9.39v3.38h-5.64V325.94z"/>
		<path d="M90.64,335.73c-0.5-0.87-0.75-1.88-0.75-3.02v-15.52h3.75v15.43c0,0.85,0.16,1.48,0.49,1.88c0.33,0.4,0.82,0.59,1.49,0.59
			c1.32,0,1.98-0.82,1.98-2.47v-15.43h3.75v15.52c0,1.14-0.24,2.14-0.73,3.02c-0.49,0.87-1.17,1.55-2.04,2.03
			c-0.87,0.48-1.86,0.72-2.96,0.72s-2.08-0.24-2.94-0.72C91.82,337.28,91.14,336.6,90.64,335.73z"/>
		<path d="M108.59,329.78v8.45h-3.75v-21.04h5.73c2.07,0,3.54,0.5,4.41,1.49c0.86,1,1.3,2.59,1.3,4.79c0,1.4-0.19,2.57-0.58,3.51
			s-1.02,1.64-1.89,2.1l3.14,9.15h-3.9l-2.65-8.45H108.59z M110.54,326.43c0.75,0,1.27-0.25,1.55-0.75c0.29-0.5,0.43-1.23,0.43-2.21
			s-0.14-1.71-0.41-2.2c-0.27-0.49-0.8-0.73-1.57-0.73h-1.95v5.88H110.54z"/>
		<path d="M131.67,338.23h-3.75l-4.39-11.22v11.22h-3.75v-21.04h3.75l4.39,11.71v-11.71h3.75V338.23z"/>
		<path d="M138.98,317.19v21.04h-3.72v-21.04H138.98z"/>
		<path d="M148.8,320.58v17.65h-3.72v-17.65h-3.66v-3.38h11.01v3.38H148.8z"/>
		<path d="M155.49,335.73c-0.5-0.87-0.75-1.88-0.75-3.02v-15.52h3.75v15.43c0,0.85,0.16,1.48,0.49,1.88
			c0.33,0.4,0.82,0.59,1.49,0.59c1.32,0,1.98-0.82,1.98-2.47v-15.43h3.75v15.52c0,1.14-0.24,2.14-0.73,3.02
			c-0.49,0.87-1.17,1.55-2.04,2.03c-0.87,0.48-1.86,0.72-2.96,0.72s-2.08-0.24-2.94-0.72C156.67,337.28,155.99,336.6,155.49,335.73z
			"/>
		<path d="M173.44,329.78v8.45h-3.75v-21.04h5.73c2.07,0,3.54,0.5,4.41,1.49c0.86,1,1.3,2.59,1.3,4.79c0,1.4-0.19,2.57-0.58,3.51
			c-0.39,0.93-1.02,1.64-1.89,2.1l3.14,9.15h-3.9l-2.65-8.45H173.44z M175.39,326.43c0.75,0,1.27-0.25,1.55-0.75
			c0.29-0.5,0.43-1.23,0.43-2.21s-0.14-1.71-0.41-2.2c-0.27-0.49-0.8-0.73-1.57-0.73h-1.95v5.88H175.39z"/>
		<path d="M188.35,325.85h4.88v3.35h-4.88v5.67h5.67v3.35h-9.39v-21.04h9.39v3.38h-5.67V325.85z"/>
	</g>
</g>
<g id="ikon">
	<g>
		<line class="st1" x1="135.65" y1="182.46" x2="135.65" y2="182.76"/>
		<rect x="47.15" y="174.82" class="st0" width="10.86" height="12.42"/>
		<rect x="216.34" y="174.82" class="st0" width="10.86" height="12.42"/>
		<path class="st0" d="M49.85,152.36h80.04c2.33,0,4.22-1.89,4.22-4.22V88.28c0-2.33-1.89-4.22-4.22-4.22H49.85
			c-2.33,0-4.22,1.89-4.22,4.22v59.86C45.63,150.47,47.52,152.36,49.85,152.36z"/>
		<path class="st0" d="M141.4,152.36h80.04c2.33,0,4.22-1.89,4.22-4.22V88.28c0-2.33-1.89-4.22-4.22-4.22h-13.7l1.34,5.84
			l-7.67,7.02l2.87,6.02l-11.44,15.73l3.67-11.52l-3.12-7.87l3.12-3.87l-3.34-7.88l3-3.46H141.4c-2.33,0-4.22,1.89-4.22,4.22v59.86
			C137.18,150.47,139.08,152.36,141.4,152.36z"/>
		<path class="st0" d="M239.42,118.81h-5.67c-2.71,0-4.93,2.22-4.93,4.93v32.01H42.47v-32.01c0-2.71-2.22-4.93-4.93-4.93h-5.67
			c-2.71,0-4.93,2.22-4.93,4.93v42.92c0,2.71,2.22,4.93,4.93,4.93h207.54c2.71,0,4.93-2.22,4.93-4.93v-42.92
			C244.34,121.02,242.12,118.81,239.42,118.81z"/>
	</g>
</g>
</svg>
