<?xml version="1.0" encoding="utf-8"?>
<!-- Generator: Adobe Illustrator 25.4.1, SVG Export Plug-In . SVG Version: 6.00 Build 0)  -->
<svg version="1.1" xmlns="http://www.w3.org/2000/svg" xmlns:xlink="http://www.w3.org/1999/xlink" x="0px" y="0px"
	 viewBox="0 0 271.29 356.19" style="enable-background:new 0 0 271.29 356.19;" xml:space="preserve">
<style type="text/css">
	.st0{fill:#E40521;}
	.st1{fill:#FFFFFF;}
</style>
<g id="bakgrund">
	<g>
		<rect x="1" y="1" class="st0" width="269.29" height="269.29"/>
		<path class="st0" d="M271.29,271.29H0V0h271.29V271.29z M2,269.29h267.29V2H2V269.29z"/>
	</g>
	<rect x="1" y="270.15" class="st1" width="269.29" height="85.04"/>
	<path class="st0" d="M271.29,356.19H0v-87.04h271.29V356.19z M2,354.19h267.29v-83.04H2V354.19z"/>
</g>
<g id="namn">
	<g>
		<path d="M94.61,323.23h-4.05l-2.29-12.93l-2.32,12.93h-4.02l-3.75-21.04h3.81l2.04,15.73l1.98-15.73h4.57l1.98,15.73l2.04-15.73
			h3.75L94.61,323.23z"/>
		<path d="M104.39,319.14l-0.85,4.08h-3.9l5.4-21.04h3.66l5.37,21.04h-3.9l-0.85-4.08H104.39z M106.86,307.25l-1.77,8.54h3.54
			L106.86,307.25z"/>
		<path d="M115.74,317.22h3.54c0.04,1.04,0.25,1.8,0.62,2.29c0.38,0.49,0.93,0.73,1.66,0.73s1.27-0.22,1.6-0.67s0.5-1.16,0.5-2.13
			c0-0.81-0.19-1.46-0.56-1.94c-0.38-0.48-1.01-0.92-1.91-1.33l-1.43-0.64c-1.36-0.61-2.34-1.36-2.94-2.26
			c-0.6-0.89-0.9-2.09-0.9-3.6c0-1.77,0.51-3.18,1.54-4.24c1.03-1.06,2.41-1.58,4.16-1.58c1.73,0,3.06,0.52,4.01,1.57
			c0.94,1.05,1.45,2.56,1.51,4.53h-3.45c-0.02-0.96-0.19-1.67-0.5-2.15c-0.31-0.48-0.84-0.72-1.57-0.72c-1.36,0-2.04,0.8-2.04,2.41
			c0,0.73,0.17,1.32,0.5,1.75c0.33,0.44,0.9,0.83,1.69,1.17l1.37,0.61c1.46,0.65,2.53,1.46,3.19,2.44c0.66,0.98,0.99,2.28,0.99,3.9
			c0,1.95-0.51,3.46-1.52,4.51c-1.02,1.06-2.46,1.58-4.33,1.58c-1.85,0-3.26-0.54-4.24-1.62S115.76,319.24,115.74,317.22z"/>
		<path d="M136.56,305.58v17.65h-3.72v-17.65h-3.66v-3.38h11.01v3.38H136.56z"/>
		<path d="M146.23,310.85h4.88v3.35h-4.88v5.67h5.67v3.35h-9.39v-21.04h9.39v3.38h-5.67V310.85z"/>
		<path d="M160.98,317.44v-9.48c0-1.99,0.56-3.5,1.68-4.53c1.12-1.03,2.59-1.54,4.42-1.54c1.77,0,3.19,0.51,4.25,1.54
			s1.6,2.54,1.6,4.53v9.48c0,1.95-0.56,3.44-1.69,4.48c-1.13,1.04-2.59,1.55-4.37,1.55c-1.81,0-3.24-0.51-4.3-1.54
			C161.51,320.91,160.98,319.41,160.98,317.44z M169.18,317.01v-8.45c0-1.08-0.18-1.9-0.55-2.45c-0.37-0.56-0.91-0.84-1.65-0.84
			c-0.79,0-1.37,0.27-1.72,0.82c-0.36,0.55-0.53,1.37-0.53,2.47v8.45c0,2.05,0.75,3.08,2.26,3.08c0.71,0,1.26-0.27,1.63-0.81
			C169,318.74,169.18,317.99,169.18,317.01z"/>
		<path d="M180.13,302.19v21.04h-3.72v-21.04H180.13z"/>
		<path d="M187.48,302.19v17.68h5.64v3.35h-9.39v-21.04H187.48z"/>
	</g>
</g>
<g id="ikon">
	<path class="st1" d="M228.99,172.26l-14.85-55.9c-0.71-2.75-1.51-4.43-2.65-5.64c-1.35-1.42-3.2-2.1-5.66-2.11l-41.92-0.32l0.68,0
		l0.01,0l0.01,0c8.07-0.05,11.72-4.94,15.26-9.67c3.64-4.87,7.4-9.91,16.47-11.46l13.46-1.82l-0.96-3.57l-13.02,1.78l-0.06,0.01
		c-4.7,0.8-8.61,2.5-11.95,5.22c-2.9,2.35-5,5.17-6.86,7.65c-3.41,4.56-6.1,8.16-12.35,8.2l-25.42-0.01L74.15,46.28l-32.63,0.01
		l-0.06,3.6L72.8,49.9l54.2,55.16v19.58c-13.46,6.21-22.8,19.82-22.8,35.62v64.75h78.43v-64.75c0-15.8-9.34-29.41-22.8-35.62v-12.74
		l45.97,0.35l0.01,0c2.99,0,3.82,1.25,4.79,5.02l14.85,55.91c2.7,10.21-2.74,14.51-7.53,18.31c-0.71,0.56-1.39,1.1-2.02,1.64
		l2.37,2.77c0.58-0.5,1.22-1.01,1.91-1.55c2.45-1.94,5.5-4.36,7.48-7.81C230.02,182.47,230.45,177.79,228.99,172.26z"/>
</g>
</svg>
