<?xml version="1.0" encoding="utf-8"?>
<!-- Generator: Adobe Illustrator 25.4.1, SVG Export Plug-In . SVG Version: 6.00 Build 0)  -->
<svg version="1.1" id="Lager_1" xmlns="http://www.w3.org/2000/svg" xmlns:xlink="http://www.w3.org/1999/xlink" x="0px" y="0px"
	 viewBox="0 0 25 25" style="enable-background:new 0 0 25 25;" xml:space="preserve">
<style type="text/css">
	.st0{opacity:0.26;fill:#FFC107;}
	.st1{clip-path:url(#SVGID_00000121963459984367016690000013581999987383921299_);}
	.st2{fill-rule:evenodd;clip-rule:evenodd;}
</style>
<g>
	<path class="st0" d="M12.4,1L12.4,1c6.6,0,12,5.4,12,12l0,0c0,6.6-5.4,12-12,12l0,0c-6.6,0-12-5.4-12-12l0,0C0.4,6.4,5.8,1,12.4,1z
		"/>
</g>
<g>
	<defs>
		<rect id="SVGID_1_" width="24" height="24"/>
	</defs>
	<clipPath id="SVGID_00000032628834880605039090000017202844904324518835_">
		<use xlink:href="#SVGID_1_"  style="overflow:visible;"/>
	</clipPath>
	<g style="clip-path:url(#SVGID_00000032628834880605039090000017202844904324518835_);">
		<path class="st2" d="M4.3,22.3c-0.1,0.7,0.5,1.2,1.1,0.9l6.6-3.4l6.6,3.4c0.6,0.3,1.2-0.2,1.1-0.9l-1.2-7.1l5.3-5
			c0.5-0.5,0.2-1.3-0.4-1.4l-7.3-1l-3.3-6.5c-0.1-0.1-0.2-0.2-0.3-0.3c-0.1-0.1-0.3-0.1-0.4-0.1c-0.1,0-0.3,0-0.4,0.1
			c-0.1,0.1-0.2,0.2-0.3,0.3L8,7.7l-7.3,1c-0.7,0.1-0.9,1-0.4,1.4l5.3,5L4.3,22.3L4.3,22.3z M11.7,18.1L6.1,21l1-5.9
			c0-0.1,0-0.3,0-0.4c0-0.1-0.1-0.3-0.2-0.3l-4.4-4.2l6.1-0.9c0.1,0,0.2-0.1,0.3-0.1C9.1,9,9.2,8.9,9.2,8.8L12,3.3l2.8,5.5
			C14.8,8.9,14.9,9,15,9.1c0.1,0.1,0.2,0.1,0.3,0.1l6.1,0.9l-4.4,4.2c-0.1,0.1-0.2,0.2-0.2,0.3c0,0.1-0.1,0.3,0,0.4l1,5.9l-5.5-2.8
			C12.2,18.1,12.1,18,12,18C11.9,18,11.8,18.1,11.7,18.1z"/>
	</g>
</g>
</svg>
