<svg width="99" height="99" viewBox="0 0 99 99" fill="none" xmlns="http://www.w3.org/2000/svg">
<circle cx="49.5" cy="49.5" r="43.56" fill="#7AD6C7"/>
<path d="M75.1162 45.9035C76.8333 44.4881 86.7487 38.3548 92.1783 33.1882C96.4167 29.1509 98.0564 18.6089 91.5363 13.481C83.0594 6.82171 74.9229 13.8136 74.9229 13.8136C74.9229 13.8136 74.2113 9.86132 69.2613 7.54101C63.0274 4.61741 55.1306 3.52687 47.868 3.61968C40.8298 3.70476 34.3484 4.55554 28.594 7.37859C23.4429 9.90773 23.1335 13.5119 23.1335 13.5119C23.1335 13.5119 16.3737 7.05374 8.09015 12.2976C-0.185635 17.5493 2.18882 28.068 6.17202 32.4844C11.3618 38.2387 17.5957 41.1701 20.4265 43.2893C23.2495 45.4085 25.9566 47.4272 25.9566 49.2448C25.9566 51.0623 25.1522 51.4645 24.8428 51.364C24.5412 51.2634 24.0075 49.4923 22.623 50.2502C20.7358 51.2944 21.3082 55.5019 25.245 55.9041C29.058 56.2985 29.7851 52.2689 29.7851 52.2689L30.3883 48.3321L36.6455 52.6711L43.5058 58.3249L43.3048 63.1666C43.3048 63.1666 43.0031 66.9023 41.1855 70.1353C39.368 73.3683 36.4444 76.5935 36.4444 76.5935L36.3516 79.5171L61.7899 78.9138L60.9855 76.0908C60.9855 76.0908 57.7062 72.4866 55.7339 68.6194C54.3262 65.8505 54.1019 63.0584 54.1019 63.0584L54.0401 56.1129L67.2426 48.0227C67.2426 48.0227 68.658 49.1365 68.4569 49.5387C68.2559 49.9409 68.2094 54.0633 71.3805 55.5947C74.513 57.1106 77.0344 55.1925 76.7327 52.5628C76.4311 49.9409 74.8146 50.8458 74.3119 51.248C73.8091 51.6502 72.6954 51.7507 72.3937 50.2348C72.0844 48.7343 73.3992 47.3189 75.1162 45.9035ZM10.1243 31.6259L7.10015 22.4219L10.7585 17.6344L14.8577 16.4355C14.8577 16.4355 20.0939 20.3414 20.2795 20.6585C20.4651 20.9756 23.6208 27.4648 23.6208 27.4648L27.7819 42.5313L10.1243 31.6259ZM69.5707 43.7301C69.6326 43.413 73.4766 27.5885 73.4766 27.5885C73.4766 27.4029 76.1836 26.1422 76.1836 25.8869C76.1836 25.6317 81.1026 17.6266 81.1026 17.6266L89.3011 17.9437L91.0026 26.0726L86.9034 32.8169C86.9112 32.8247 69.5088 44.0395 69.5707 43.7301Z" fill="#FEC417"/>
<path d="M92.7506 23.6981C92.1474 16.4897 85.0163 14.7649 82.0849 15.8091C79.1536 16.8532 77.2509 18.81 76.6013 21.5944C76.0753 23.8451 75.5494 25.3456 74.9461 25.5776C74.281 25.8251 73.6699 25.7245 73.6699 25.7245C73.6699 25.7245 73.5617 20.8519 73.5926 18.8873C73.6699 14.8345 74.9074 13.7981 74.9074 13.7981C74.9074 13.7981 74.6445 12.4291 74.1185 11.6712C73.5926 10.9209 72.6181 9.94641 72.6181 9.94641C72.6181 9.94641 72.8424 11.8955 71.8678 12.3518C70.8933 12.8081 69.8414 12.1275 69.8414 12.1275L70.8159 16.1803C70.8159 16.1803 69.2381 36.3825 69.0912 36.8311C68.9442 37.2797 63.012 47.5664 63.012 47.5664C63.012 47.5664 59.5547 50.7994 57.9073 51.5496C56.2521 52.2999 54.829 54.2566 48.4481 54.3263C42.0673 54.4036 36.5836 49.3685 36.5836 49.3685L31.0999 44.1091L27.0471 32.1673L26.4438 20.0011L26.6991 15.577L26.877 13.7285L26.5908 12.7927C26.5908 12.7927 26.0648 13.3186 25.0903 13.0943C24.1158 12.87 23.7368 11.5938 23.7368 11.5938C23.7368 11.5938 23.3578 12.1971 23.2882 12.4988C23.2109 12.8004 23.1335 13.4965 23.1335 13.4965C23.1335 13.4965 24.1854 14.6025 24.4097 16.1803C24.634 17.7581 24.3323 24.2937 23.2109 24.139C22.0816 23.992 22.4529 18.5084 18.1758 16.4046C14.471 14.5793 8.94094 15.1284 6.6825 19.7072C4.4318 24.2859 6.07922 29.6923 13.1407 34.7274C20.2022 39.7624 27.72 43.9931 28.9111 48.0305C30.3342 52.8335 27.109 55.6875 27.109 55.6875C27.109 55.6875 29.4525 55.3627 30.6049 52.849C30.9762 52.0369 31.1154 50.8535 31.1695 50.1497C33.8379 53.6302 37.388 56.577 42.0905 58.0001C43.8694 58.6111 45.8726 58.9205 48.657 58.9205C49.0592 58.9205 49.4536 58.905 49.8481 58.8895C53.1042 58.7735 55.8886 58.1625 58.5879 56.8245C62.2308 55.1384 65.0538 52.5628 67.2349 49.6392C67.1731 50.3353 67.5984 52.0678 68.4106 53.4368C69.8337 55.8422 72.2391 55.9891 72.2391 55.9891C72.2391 55.9891 68.9365 54.0401 69.6094 49.384C70.2823 44.7279 73.3606 43.0727 78.0167 40.0718C82.6882 37.0631 93.3462 30.9066 92.7506 23.6981ZM16.451 33.9152C14.355 32.438 10.6812 30.4657 9.16524 27.457C7.14657 23.4429 8.78625 18.5934 12.6225 17.9979C20.5889 16.7449 20.7359 26.6372 21.2618 27.836C21.7877 29.0348 23.2882 29.1122 23.2882 29.1122C23.2882 29.1122 23.3423 29.7773 23.5589 31.0613C23.5666 31.0999 23.5744 31.1309 23.5744 31.1695L23.5976 31.2856C23.7445 32.1595 23.9534 33.2501 24.2473 34.4953L24.2705 34.5881C24.4329 35.292 24.6031 35.9571 24.7809 36.5681C25.1367 37.852 25.5698 39.2365 26.1035 40.6596C25.3301 40.1337 20.8983 37.0631 16.451 33.9152ZM88.6205 28.3542C86.9576 31.0458 83.5931 33.049 81.1104 34.7351C77.9084 36.9084 73.144 40.1723 71.7982 41.085C72.1076 40.2652 72.3783 39.4531 72.6258 38.6564C73.028 37.6045 73.4534 36.3206 73.7473 34.9362C74.5207 31.301 74.6522 28.1222 74.6522 28.1222C74.6522 28.1222 76.23 28.5708 77.2045 27.5189C78.1791 26.467 78.5426 23.2031 79.4552 21.664C80.8784 19.2586 83.7324 16.7836 88.0172 19.7845C90.4922 21.5248 90.585 25.1677 88.6205 28.3542ZM46.8084 61.3413L51.1784 61.2872C51.1784 61.2872 51.2944 66.0593 51.9827 69.6171C52.6711 73.1827 53.5915 77.1427 53.5915 77.1427C53.5915 77.1427 44.6892 80.1281 44.7434 76.9106C44.7975 73.6931 46.1201 67.4283 46.1201 67.4283C46.1201 67.4283 46.9245 59.9646 46.8084 61.3413Z" fill="#FFA828"/>
<path d="M39.4763 11.7485C39.4763 11.7485 44.3412 11.1994 48.8658 11.269C53.3904 11.3386 58.0465 12.228 58.0465 12.228C58.0465 12.228 57.7758 27.3719 56.9482 35.872C56.1284 44.3721 52.9109 50.7375 52.0524 52.5396C51.2248 54.2876 50.6215 55.2234 50.6215 55.2234L46.2593 54.713L38.7183 39.5691L39.4763 11.7485Z" fill="#FFA828"/>
<path d="M33.6523 14.0147C33.6523 14.0147 35.0213 13.3263 37.009 12.5761C38.8111 11.8955 40.4353 11.6866 40.4353 11.6866C40.4353 11.6866 40.4817 21.7259 40.6442 28.8879C40.7834 34.9903 43.0418 44.9909 44.1401 47.667C45.2384 50.3431 47.2184 54.4268 47.2184 54.4268C47.2184 54.4268 43.2352 53.8545 40.7834 50.7452C39.4917 49.1056 33.4512 36.4212 33.2424 28.0603C33.0335 19.6995 33.8534 13.8059 33.6523 14.0147Z" fill="#FFEFAB"/>
<path d="M31.3861 15.1749C31.2469 15.5848 30.1563 24.2241 31.8656 32.2369C33.5749 40.2497 36.1041 45.7334 37.7747 47.9067C39.2597 49.8326 40.2265 50.7453 40.7756 50.7453C41.3248 50.7453 38.5172 44.1014 37.2101 38.8885C35.9107 33.6832 35.2223 27.4416 35.0831 24.3633C34.9439 21.2773 34.8124 13.3264 34.8124 13.3264C34.8124 13.3264 33.3042 14.0147 32.9639 14.2158C32.6236 14.4246 31.3861 15.1749 31.3861 15.1749Z" fill="#FFFCFD"/>
<path d="M41.2552 76.578C41.2552 76.578 44.202 71.7827 44.8207 68.1476C45.4395 64.5124 45.7798 61.2949 45.7798 61.2949L47.6051 61.3723C47.6051 61.3723 47.4272 66.6394 47.2184 70.2049C47.0095 73.7705 46.3985 77.2664 46.3985 77.2664L41.2552 76.578Z" fill="#FFEFAB"/>
<path d="M43.5213 58.3249C43.5213 58.3249 44.8903 56.9869 48.657 56.9869C52.4236 56.9869 54.0401 58.4332 54.0401 58.4332L54.1406 63.0816C54.1406 63.0816 51.6347 62.3004 48.5873 62.2617C46.0505 62.2308 43.3202 63.1744 43.3202 63.1744L43.5213 58.3249ZM27.0703 12.1585C27.7045 11.5706 33.7838 7.00736 48.1774 6.88361C63.6616 6.74439 69.4702 11.2303 69.8337 11.4778C70.2436 11.7485 70.7231 12.986 70.522 13.5352C70.3132 14.0843 69.9033 14.2854 68.7431 13.8059C67.5752 13.3263 61.8209 9.12657 47.9763 9.5597C34.6809 9.96962 29.0426 14.0147 28.447 14.355C27.9675 14.6257 27.0781 14.6953 26.6681 14.1462C26.2505 13.6048 26.6604 12.5452 27.0703 12.1585ZM70.522 15.3837C68.7431 15.5229 69.9729 29.847 66.2063 38.8188C62.1689 48.4172 57.0178 51.1552 57.2266 51.7043C57.4355 52.2534 62.4783 50.7298 65.6571 46.2206C68.6039 42.0441 70.3828 38.3393 71.2104 33.4048C72.0225 28.4702 72.502 15.229 70.522 15.3837ZM26.6913 17.0234C26.2427 17.0002 26.6991 24.1467 25.972 27.2869C25.6936 28.4934 25.013 28.7409 24.9434 29.0117C24.8738 29.2824 26.4361 38.4785 29.0581 42.5159C31.5949 46.4217 36.5991 51.2867 37.4189 50.4668C38.2388 49.647 33.7838 46.9013 30.7751 40.9381C29.0426 37.5195 27.2791 32.3684 27.2095 26.4748C27.1631 22.5767 27.6504 17.0775 26.6913 17.0234Z" fill="#D1701C"/>
<path d="M67.1112 87.1741L67.1034 76.1217H31.6259C31.7341 76.1217 31.6491 85.1091 31.6336 87.2128H26.5908V95.2179H71.6435V87.2128L67.1112 87.1741Z" fill="#865C50"/>
<path d="M42.9954 81.9302C42.1214 81.8916 41.1159 82.0695 41.0773 83.1523C41.0386 84.2351 41.0386 87.3675 41.0386 87.9631C41.0386 88.5586 41.5259 89.0768 42.7479 89.1155C43.9699 89.1542 55.44 89.1155 56.2444 89.1155C57.0488 89.1155 57.4664 88.4194 57.4974 87.7233C57.536 87.0272 57.4587 84.0959 57.4587 83.2992C57.4587 81.9767 56.2753 81.9767 55.4709 81.9767C54.6047 81.9612 42.9954 81.9302 42.9954 81.9302Z" fill="#FCC219"/>
</svg>
