<svg width="99" height="99" viewBox="0 0 99 99" fill="none" xmlns="http://www.w3.org/2000/svg">
<path d="M49.5 43.9312L26.1938 20.625L53.625 3.50623L78.9937 20.625L49.5 43.9312Z" fill="#FF8A65"/>
<path d="M49.5 43.9312L26.1938 20.625L35.0625 9.69373L78.9937 20.625L49.5 43.9312Z" fill="#FFAB91"/>
<path d="M63.1125 90.75H35.8875C31.7625 90.75 28.2563 87.8625 27.6375 83.7375L18.5625 22.6875H80.4375L71.1562 83.7375C70.5375 87.8625 67.0312 90.75 63.1125 90.75Z" fill="#B39DDB"/>
<path d="M78.375 26.8125H20.625C18.3563 26.8125 16.5 24.9563 16.5 22.6875C16.5 20.4187 18.3563 18.5625 20.625 18.5625H78.375C80.6438 18.5625 82.5 20.4187 82.5 22.6875C82.5 24.9563 80.6438 26.8125 78.375 26.8125Z" fill="#7E57C2"/>
</svg>
