<svg width="50" height="50" viewBox="0 0 50 50" fill="none" xmlns="http://www.w3.org/2000/svg">
<circle cx="25" cy="25" r="22" fill="#17A2B8"/>
<path d="M37.9375 23.1836C38.8047 22.4688 43.8125 19.3711 46.5547 16.7618C48.6953 14.7227 49.5234 9.39849 46.2305 6.80865C41.9492 3.44537 37.8398 6.97661 37.8398 6.97661C37.8398 6.97661 37.4805 4.98052 34.9805 3.80865C31.832 2.33208 27.8438 1.7813 24.1758 1.82818C20.6211 1.87115 17.3477 2.30083 14.4414 3.72661C11.8398 5.00396 11.6836 6.82427 11.6836 6.82427C11.6836 6.82427 8.26953 3.56255 4.08594 6.21099C-0.0937504 8.86333 1.10547 14.1758 3.11719 16.4063C5.73828 19.3126 8.88672 20.793 10.3164 21.8633C11.7422 22.9336 13.1094 23.9532 13.1094 24.8711C13.1094 25.7891 12.7031 25.9922 12.5469 25.9415C12.3945 25.8907 12.125 24.9961 11.4258 25.379C10.4727 25.9063 10.7617 28.0313 12.75 28.2344C14.6758 28.4336 15.043 26.3985 15.043 26.3985L15.3477 24.4102L18.5078 26.6016L21.9727 29.4571L21.8711 31.9024C21.8711 31.9024 21.7188 33.7891 20.8008 35.4219C19.8828 37.0547 18.4062 38.6836 18.4062 38.6836L18.3594 40.1602L31.207 39.8555L30.8008 38.4297C30.8008 38.4297 29.1445 36.6094 28.1484 34.6563C27.4375 33.2579 27.3242 31.8477 27.3242 31.8477L27.293 28.3399L33.9609 24.254C33.9609 24.254 34.6758 24.8165 34.5742 25.0196C34.4727 25.2227 34.4492 27.3047 36.0508 28.0782C37.6328 28.8438 38.9062 27.8751 38.7539 26.5469C38.6016 25.2227 37.7852 25.6797 37.5312 25.8829C37.2773 26.086 36.7148 26.1368 36.5625 25.3711C36.4062 24.6133 37.0703 23.8985 37.9375 23.1836ZM5.11328 15.9727L3.58594 11.3243L5.43359 8.9063L7.50391 8.30083C7.50391 8.30083 10.1484 10.2735 10.2422 10.4336C10.3359 10.5938 11.9297 13.8711 11.9297 13.8711L14.0312 21.4805L5.11328 15.9727ZM35.1367 22.086C35.168 21.9258 37.1094 13.9336 37.1094 13.9336C37.1094 13.8399 38.4766 13.2032 38.4766 13.0743C38.4766 12.9454 40.9609 8.9024 40.9609 8.9024L45.1016 9.06255L45.9609 13.168L43.8906 16.5743C43.8945 16.5782 35.1055 22.2422 35.1367 22.086Z" fill="#FE8617"/>
<path d="M46.8438 11.9687C46.5391 8.32812 42.9375 7.45703 41.457 7.98438C39.9766 8.51172 39.0156 9.5 38.6875 10.9062C38.4219 12.043 38.1563 12.8008 37.8516 12.918C37.5156 13.043 37.207 12.9922 37.207 12.9922C37.207 12.9922 37.1524 10.5312 37.168 9.53906C37.207 7.49219 37.832 6.96875 37.832 6.96875C37.832 6.96875 37.6992 6.27734 37.4336 5.89453C37.168 5.51563 36.6758 5.02344 36.6758 5.02344C36.6758 5.02344 36.7891 6.00781 36.2969 6.23828C35.8047 6.46875 35.2734 6.125 35.2734 6.125L35.7656 8.17188C35.7656 8.17188 34.9688 18.375 34.8945 18.6016C34.8203 18.8281 31.8242 24.0234 31.8242 24.0234C31.8242 24.0234 30.0781 25.6562 29.2461 26.0352C28.4102 26.4141 27.6914 27.4023 24.4688 27.4375C21.2461 27.4766 18.4766 24.9336 18.4766 24.9336L15.707 22.2773L13.6602 16.2461L13.3555 10.1016L13.4844 7.86719L13.5742 6.93359L13.4297 6.46094C13.4297 6.46094 13.1641 6.72656 12.6719 6.61328C12.1797 6.5 11.9883 5.85547 11.9883 5.85547C11.9883 5.85547 11.7969 6.16016 11.7617 6.3125C11.7227 6.46484 11.6836 6.81641 11.6836 6.81641C11.6836 6.81641 12.2148 7.375 12.3281 8.17188C12.4414 8.96875 12.2891 12.2695 11.7227 12.1914C11.1523 12.1172 11.3398 9.34766 9.17969 8.28516C7.3086 7.36328 4.51563 7.64062 3.375 9.95312C2.23828 12.2656 3.07032 14.9961 6.63672 17.5391C10.2031 20.082 14 22.2188 14.6016 24.2578C15.3203 26.6836 13.6914 28.125 13.6914 28.125C13.6914 28.125 14.875 27.9609 15.457 26.6914C15.6445 26.2812 15.7148 25.6836 15.7422 25.3281C17.0898 27.0859 18.8828 28.5742 21.2578 29.293C22.1563 29.6016 23.168 29.7578 24.5742 29.7578C24.7773 29.7578 24.9766 29.75 25.1758 29.7422C26.8203 29.6836 28.2266 29.375 29.5898 28.6992C31.4297 27.8477 32.8555 26.5469 33.957 25.0703C33.9258 25.4219 34.1406 26.2969 34.5508 26.9883C35.2695 28.2031 36.4844 28.2773 36.4844 28.2773C36.4844 28.2773 34.8164 27.293 35.1563 24.9414C35.4961 22.5898 37.0508 21.7539 39.4024 20.2383C41.7617 18.7188 47.1445 15.6094 46.8438 11.9687ZM8.3086 17.1289C7.25 16.3828 5.39454 15.3867 4.62891 13.8672C3.60938 11.8398 4.4375 9.39063 6.375 9.08984C10.3984 8.45703 10.4727 13.4531 10.7383 14.0586C11.0039 14.6641 11.7617 14.7031 11.7617 14.7031C11.7617 14.7031 11.7891 15.0391 11.8984 15.6875C11.9023 15.707 11.9063 15.7227 11.9063 15.7422L11.918 15.8008C11.9922 16.2422 12.0977 16.793 12.2461 17.4219L12.2578 17.4688C12.3398 17.8242 12.4258 18.1602 12.5156 18.4687C12.6953 19.1172 12.9141 19.8164 13.1836 20.5352C12.793 20.2695 10.5547 18.7187 8.3086 17.1289ZM44.7578 14.3203C43.918 15.6797 42.2188 16.6914 40.9649 17.543C39.3477 18.6406 36.9414 20.2891 36.2617 20.75C36.418 20.3359 36.5547 19.9258 36.6797 19.5234C36.8828 18.9922 37.0977 18.3437 37.2461 17.6445C37.6367 15.8086 37.7031 14.2031 37.7031 14.2031C37.7031 14.2031 38.5 14.4297 38.9922 13.8984C39.4844 13.3672 39.668 11.7188 40.1289 10.9414C40.8477 9.72656 42.2891 8.47656 44.4531 9.99219C45.7031 10.8711 45.75 12.7109 44.7578 14.3203ZM23.6406 30.9805L25.8477 30.9531C25.8477 30.9531 25.9063 33.3633 26.2539 35.1602C26.6016 36.9609 27.0664 38.9609 27.0664 38.9609C27.0664 38.9609 22.5703 40.4688 22.5977 38.8438C22.625 37.2188 23.293 34.0547 23.293 34.0547C23.293 34.0547 23.6992 30.2852 23.6406 30.9805Z" fill="#E87928"/>
<path d="M19.9375 5.93362C19.9375 5.93362 22.3945 5.65628 24.6797 5.69144C26.9648 5.72659 29.3164 6.17581 29.3164 6.17581C29.3164 6.17581 29.1797 13.8242 28.7617 18.1172C28.3477 22.4102 26.7227 25.625 26.2891 26.5352C25.8711 27.418 25.5664 27.8907 25.5664 27.8907L23.3633 27.6328L19.5547 19.9844L19.9375 5.93362Z" fill="#E87928"/>
<path d="M16.9961 7.07813C16.9961 7.07813 17.6875 6.73047 18.6914 6.35156C19.6016 6.00781 20.4219 5.90234 20.4219 5.90234C20.4219 5.90234 20.4453 10.9727 20.5273 14.5898C20.5977 17.6719 21.7383 22.7227 22.293 24.0742C22.8477 25.4258 23.8477 27.4883 23.8477 27.4883C23.8477 27.4883 21.8359 27.1992 20.5977 25.6289C19.9453 24.8008 16.8945 18.3945 16.7891 14.1719C16.6836 9.94922 17.0977 6.97266 16.9961 7.07813Z" fill="#FFDDAB"/>
<path d="M15.8516 7.66406C15.7813 7.87109 15.2305 12.2344 16.0937 16.2812C16.957 20.3281 18.2344 23.0977 19.0781 24.1953C19.8281 25.168 20.3164 25.6289 20.5938 25.6289C20.8711 25.6289 19.4531 22.2734 18.793 19.6406C18.1367 17.0117 17.7891 13.8594 17.7187 12.3047C17.6484 10.7461 17.582 6.73047 17.582 6.73047C17.582 6.73047 16.8203 7.07812 16.6484 7.17969C16.4766 7.28516 15.8516 7.66406 15.8516 7.66406Z" fill="#FFFCFD"/>
<path d="M20.8359 38.6758C20.8359 38.6758 22.3242 36.2539 22.6367 34.418C22.9492 32.582 23.1211 30.957 23.1211 30.957L24.043 30.9961C24.043 30.9961 23.9531 33.6562 23.8477 35.457C23.7422 37.2578 23.4336 39.0234 23.4336 39.0234L20.8359 38.6758Z" fill="#FFDDAB"/>
<path d="M21.9805 29.457C21.9805 29.457 22.6719 28.7813 24.5742 28.7813C26.4766 28.7813 27.293 29.5117 27.293 29.5117L27.3437 31.8594C27.3437 31.8594 26.0781 31.4649 24.5391 31.4453C23.2578 31.4297 21.8789 31.9063 21.8789 31.9063L21.9805 29.457ZM13.6719 6.14064C13.9922 5.84377 17.0625 3.53908 24.332 3.47658C32.1523 3.40627 35.0859 5.67189 35.2695 5.79689C35.4766 5.93361 35.7187 6.55861 35.6172 6.83595C35.5117 7.1133 35.3047 7.21486 34.7187 6.97267C34.1289 6.73049 31.2227 4.60939 24.2305 4.82814C17.5156 5.03517 14.668 7.07814 14.3672 7.25002C14.125 7.38673 13.6758 7.42189 13.4687 7.14455C13.2578 6.87111 13.4648 6.33595 13.6719 6.14064ZM35.6172 7.76955C34.7187 7.83986 35.3398 15.0742 33.4375 19.6055C31.3984 24.4531 28.7969 25.836 28.9023 26.1133C29.0078 26.3906 31.5547 25.6211 33.1602 23.3438C34.6484 21.2344 35.5469 19.3633 35.9648 16.8711C36.375 14.3789 36.6172 7.69142 35.6172 7.76955ZM13.4805 8.59767C13.2539 8.58595 13.4844 12.1953 13.1172 13.7813C12.9766 14.3906 12.6328 14.5156 12.5977 14.6524C12.5625 14.7891 13.3516 19.4336 14.6758 21.4727C15.957 23.4453 18.4844 25.9024 18.8984 25.4883C19.3125 25.0742 17.0625 23.6875 15.543 20.6758C14.668 18.9492 13.7773 16.3477 13.7422 13.3711C13.7187 11.4024 13.9648 8.62502 13.4805 8.59767Z" fill="#D1701C"/>
<path d="M33.8945 44.0273L33.8906 38.4453H15.9727C16.0273 38.4453 15.9844 42.9844 15.9766 44.0469H13.4297V48.0898H36.1836V44.0469L33.8945 44.0273Z" fill="#867050"/>
<path d="M21.7148 41.3789C21.2734 41.3593 20.7656 41.4492 20.7461 41.9961C20.7266 42.5429 20.7266 44.125 20.7266 44.4258C20.7266 44.7265 20.9727 44.9882 21.5898 45.0078C22.207 45.0273 28 45.0078 28.4062 45.0078C28.8125 45.0078 29.0234 44.6562 29.0391 44.3047C29.0586 43.9531 29.0195 42.4726 29.0195 42.0703C29.0195 41.4023 28.4219 41.4023 28.0156 41.4023C27.5781 41.3945 21.7148 41.3789 21.7148 41.3789Z" fill="#FC8619"/>
</svg>
