<?xml version="1.0" encoding="UTF-8" standalone="no"?>
<svg
   width="109"
   height="85.5"
   viewBox="0 0 109 85.5"
   fill="none"
   version="1.1"
   id="svg20"
   sodipodi:docname="earthly.svg"
   inkscape:version="1.1.2 (b8e25be833, 2022-02-05)"
   xmlns:inkscape="http://www.inkscape.org/namespaces/inkscape"
   xmlns:sodipodi="http://sodipodi.sourceforge.net/DTD/sodipodi-0.dtd"
   xmlns="http://www.w3.org/2000/svg"
   xmlns:svg="http://www.w3.org/2000/svg">
  <defs
     id="defs24" />
  <sodipodi:namedview
     id="namedview22"
     pagecolor="#ffffff"
     bordercolor="#666666"
     borderopacity="1.0"
     inkscape:pageshadow="2"
     inkscape:pageopacity="0.0"
     inkscape:pagecheckerboard="0"
     showgrid="false"
     inkscape:zoom="6.2357143"
     inkscape:cx="54.444444"
     inkscape:cy="44.421535"
     inkscape:window-width="1920"
     inkscape:window-height="1017"
     inkscape:window-x="-1928"
     inkscape:window-y="-240"
     inkscape:window-maximized="1"
     inkscape:current-layer="svg20" />
  <path
     fill-rule="evenodd"
     clip-rule="evenodd"
     d="M 36.1572,4.04773 C 36.1384,3.99539 36.1104,3.94537 36.0731,3.90004 35.898,3.68763 35.583,3.65845 35.3694,3.83486 L 35.3375,3.86115 C 32.2355,1.44801 29.6516,0.13825197 26.9978,0.01036567 24.1383,-0.12743903 21.3121,1.11214 17.7995,3.52781 17.7824,3.53954 17.7663,3.55213 17.7512,3.56548 17.5539,3.45205 17.2966,3.48604 17.1344,3.66104 16.946,3.8642 16.957,4.18048 17.159,4.36746 c 3.4011,3.14892 6.2076,4.85382 9.1749,4.89543 2.6912,0.03773 5.3934,-1.29498 8.663,-3.84949 0.087,0.20255 0.2411,0.37782 0.4511,0.48891 5.808,3.07219 9.4732,6.12909 11.9295,10.28159 0.9762,1.6503 1.7715,3.4901 2.4305,5.5981 -1.6251,-1.724 -3.2288,-2.8614 -5.0159,-3.4398 -2.7423,-0.8875 -5.8071,-0.4235 -9.8425,1.0067 -0.1054,0.0374 -0.1905,0.1065 -0.2483,0.1929 -0.1512,-0.0663 -0.332,-0.0563 -0.4794,0.0423 -0.2294,0.1536 -0.291,0.4641 -0.1374,0.6936 2.5388,3.7931 4.8452,6.0932 7.7013,6.9105 2.541,0.7271 5.4147,0.2508 9.0989,-1.1701 0.4646,2.261 0.8381,4.7875 1.1547,7.64 0.0609,0.5489 0.5553,0.9445 1.1042,0.8836 0.5489,-0.061 0.9445,-0.5553 0.8836,-1.1042 -0.8843,-7.9676 -2.2323,-13.7141 -4.9283,-18.2718 -0.0153,-0.0259 -0.0306,-0.0517 -0.046,-0.0775 3.926,-1.04 6.6052,-2.3465 8.3308,-4.5352 1.7819,-2.26017 2.4756,-5.37128 2.6384,-9.82528603 0.0054,-0.146278 -0.0527,-0.280173 -0.1495,-0.375215 -0.0918,-0.22526 -0.337,-0.35563142 -0.5806,-0.2966298 C 54.9603,1.10507 52.0504,2.40618 50.1918,4.60358 48.5281,6.57042 47.7656,9.18503 47.4742,12.7713 44.8504,9.38319 41.2761,6.72258 36.3832,4.1344 36.31,4.09566 36.2341,4.06694 36.1572,4.04773 Z M 48.4959,14.2001 c -0.0341,-0.0517 -0.0684,-0.1032 -0.1028,-0.1546 0.2108,-4.16325 0.9322,-6.86913 2.5621,-8.79611 1.577,-1.86431 4.0722,-3.0804 8.0483,-4.0916 -0.192,4.13889 -0.8844,6.84719 -2.4051,8.77606 -1.562,1.98125 -4.068,3.22845 -8.1025,4.26625 z m 1.9411,9.8372 c 0.0805,0.3244 0.1586,0.6545 0.2345,0.9908 -3.6861,1.438 -6.349,1.8458 -8.6106,1.1986 -2.3692,-0.6779 -4.4138,-2.5475 -6.7614,-5.9408 3.9713,-1.4059 6.7684,-1.7743 9.1847,-0.9923 2.0374,0.6594 3.8815,2.1614 5.9528,4.7437 z M 26.943,1.00885 c 2.3005,0.11086 4.6342,1.2271 7.592,3.49989 C 31.2479,7.10056 28.7362,8.29648 26.3545,8.26309 23.9551,8.22944 21.5601,6.94558 18.5168,4.24466 21.9038,1.93619 24.4595,0.88916597 26.943,1.00885 Z"
     fill="#003f3f"
     id="path2" />
  <path
     d="M 109,85.5 C 109,71.0457 103.258,57.1834 93.0373,46.9627 82.8166,36.7419 68.9543,31 54.5,31 40.0457,31 26.1834,36.7419 15.9627,46.9627 5.74195,57.1834 2.18254e-6,71.0457 0,85.5 h 54.5 z"
     fill="#7ad6c7"
     id="path4" />
  <path
     d="m 93,59 c 0,13.2548 -18.1361,6.9231 -21.7633,24 -12.0196,0 0,-24 -21.7633,-24 C 27.7101,59 59.2171,35 71.2367,35 83.2562,35 93,45.7452 93,59 Z"
     fill="#0d986e"
     id="path6" />
  <path
     d="M 16.8441,63.4372 C 9.86008,64.7501 7.49279,75.4212 4.82694,73.9652 2.1611,72.5091 3.21916,65.4349 7.1902,58.1644 c 3.971,-7.2705 9.3513,-11.984 12.0171,-10.528 2.6659,1.4561 4.6208,14.4879 -2.3632,15.8008 z"
     fill="#0d986e"
     id="path8" />
  <path
     d="m 36,71 c 7.363,5.4442 13.3333,5.2213 20,0"
     stroke="#000000"
     stroke-width="2"
     stroke-linecap="round"
     id="path10" />
  <path
     d="m 60,64 c 2.5771,4.0832 4.6667,3.916 7,0"
     stroke="#000000"
     stroke-width="2"
     stroke-linecap="round"
     id="path12" />
  <path
     d="m 25,65 c 2.5771,4.0832 4.6667,3.916 7,0"
     stroke="#000000"
     stroke-width="2"
     stroke-linecap="round"
     id="path14" />
  <ellipse
     cx="22.5"
     cy="74.5"
     rx="5.5"
     ry="3.5"
     fill="#fd8798"
     id="ellipse16" />
  <ellipse
     cx="69.5"
     cy="73.5"
     rx="5.5"
     ry="3.5"
     fill="#fd8798"
     id="ellipse18" />
</svg>
