<svg width="117" height="43" viewBox="0 0 117 43" fill="none" xmlns="http://www.w3.org/2000/svg">
<path d="M3.69366 17.5433V19.7944H7.3239V21.8869H3.69366V24.3282H7.79948V26.5H0.982861V15.3715H7.79948V17.5433H3.69366ZM16.487 24.5343H12.3336L11.6678 26.5H8.83015L12.8567 15.3715H15.9955L20.0221 26.5H17.1528L16.487 24.5343ZM15.7894 22.4417L14.4103 18.3676L13.0469 22.4417H15.7894ZM26.9228 26.5L24.6083 22.2991H23.9584V26.5H21.2476V15.3715H25.7973C26.6744 15.3715 27.4195 15.5247 28.0325 15.8312C28.656 16.1377 29.121 16.5604 29.4275 17.0994C29.734 17.6278 29.8872 18.2197 29.8872 18.8749C29.8872 19.6147 29.6759 20.2752 29.2531 20.8565C28.841 21.4377 28.228 21.8499 27.4142 22.093L29.9823 26.5H26.9228ZM23.9584 20.3809H25.6387C26.1354 20.3809 26.5053 20.2594 26.7484 20.0163C27.0021 19.7732 27.1289 19.4297 27.1289 18.9859C27.1289 18.5631 27.0021 18.2302 26.7484 17.9872C26.5053 17.7441 26.1354 17.6225 25.6387 17.6225H23.9584V20.3809ZM39.5945 15.3715V17.5433H36.6459V26.5H33.9351V17.5433H30.9865V15.3715H39.5945ZM50.5933 15.3715V26.5H47.8825V21.9186H43.6657V26.5H40.9549V15.3715H43.6657V19.7309H47.8825V15.3715H50.5933ZM55.261 24.4075H58.812V26.5H52.5503V15.3715H55.261V24.4075ZM69.6483 15.3715L65.7961 22.8222V26.5H63.0853V22.8222L59.2331 15.3715H62.3085L64.4645 20.0321L66.6046 15.3715H69.6483Z" fill="#0B604D"/>
<g clip-path="url(#clip0_545_1310)">
<path d="M111.24 19.9134C111.382 19.8117 111.518 19.7023 111.647 19.5855C111.526 19.6776 111.405 19.783 111.24 19.9134Z" fill="black"/>
<path d="M111.651 19.5819L111.653 19.5798L111.647 19.584L111.651 19.5819Z" fill="black"/>
<path d="M109.791 18.37L109.917 18.2683L109.791 18.37Z" fill="black"/>
<path d="M79.9859 19.5894L79.6121 19.2577C79.7305 19.375 79.8553 19.4858 79.9859 19.5894Z" fill="black"/>
<path d="M79.6104 19.254L79.6083 19.2519L79.6125 19.2583L79.6104 19.254Z" fill="black"/>
<path d="M81.4757 17.9922L81.3549 17.8964L81.4757 17.9922Z" fill="black"/>
<path opacity="0.89" d="M106.535 32.5349C112.629 26.4407 112.629 16.56 106.535 10.4658C100.44 4.37162 90.5597 4.37162 84.4655 10.4658C78.3714 16.56 78.3714 26.4407 84.4655 32.5349C90.5597 38.629 100.44 38.629 106.535 32.5349Z" fill="#C1FCE9"/>
<path d="M106.677 32.576C112.851 26.4025 112.851 16.3931 106.677 10.2196C100.504 4.046 90.4945 4.046 84.3209 10.2196C78.1474 16.3931 78.1474 26.4025 84.3209 32.576C90.4945 38.7496 100.504 38.7496 106.677 32.576Z" fill="#7DD6C7"/>
<path d="M91.64 8.63975C91.6862 8.81687 91.7692 9.01313 91.9447 9.06738C92.216 9.15195 92.4234 8.85038 92.6612 8.68124C92.9931 8.43551 93.459 8.46423 93.8531 8.58071C94.2472 8.6972 94.6286 8.88708 95.0403 8.93654C95.4946 8.98784 95.9513 8.86338 96.3168 8.58869C96.4598 8.48829 96.5799 8.35875 96.6693 8.2086C96.7587 8.05844 96.8153 7.89106 96.8354 7.71747C96.8625 7.26431 96.5449 6.84306 96.1444 6.62925C95.734 6.43832 95.2835 6.34911 94.8312 6.36916C93.963 6.36295 93.099 6.48885 92.2686 6.74254C91.8554 6.86859 91.6814 6.88296 91.5905 7.29942C91.5047 7.74413 91.5216 8.20258 91.64 8.63975Z" fill="#1C976E"/>
<path d="M82.4351 18.5031C82.6691 18.9197 82.977 19.3401 83.4718 19.5491C83.7199 19.6542 84.0341 19.7243 84.1346 19.9384C84.166 20.0223 84.1777 20.1104 84.1692 20.198C84.1692 20.442 84.1692 20.6859 84.1566 20.9312C84.1417 21.0441 84.1668 21.1582 84.2289 21.2596C84.3265 21.3524 84.4442 21.4294 84.576 21.4867C84.707 21.576 84.8129 21.6879 84.8861 21.8146C84.9594 21.9412 84.9983 22.0796 85.0001 22.2199C85.0015 22.5004 84.9522 22.7794 84.854 23.0479C84.6655 23.6747 84.4346 24.3548 83.7985 24.735C83.2252 25.075 82.4178 25.0737 81.7864 24.8116C81.1609 24.529 80.6776 24.0717 80.423 23.5216C80.1739 22.9745 80.038 22.3967 80.0209 21.8124C79.9354 20.5148 80.1143 19.2145 80.5502 17.9658C80.6727 17.618 80.6806 16.8237 81.2335 17.0353C81.8838 17.2819 82.1586 18.0164 82.4351 18.5031Z" fill="#1C976E"/>
<path d="M93.9348 21.9834C93.7159 22.0309 93.4908 22.0266 93.2734 21.9707C92.4408 21.8291 91.5668 21.7365 90.777 22.0688C89.2972 22.6878 88.5343 24.9462 89.3051 26.5184C89.9491 27.8346 91.3464 28.4446 92.1029 29.6773C92.9689 31.086 92.8373 33.0104 93.4907 34.5608C93.6907 35.0983 94.0403 35.5451 94.4852 35.8316C94.9388 36.0894 95.5351 36.064 95.9031 35.6664C96.1854 35.3577 96.2869 34.8966 96.3995 34.4682C96.6698 33.429 97.0682 32.4393 97.5827 31.529C98.0379 30.7248 98.6073 29.8606 98.463 28.9184C98.3361 28.1033 97.6937 27.4824 97.5875 26.6636C97.5097 26.0664 97.7318 25.4491 97.6128 24.8609C97.3908 23.748 96.1568 23.3704 95.5637 22.45C95.5024 22.3656 95.4633 22.263 95.4511 22.1541C95.458 22.0089 95.5078 21.8706 95.5922 21.762C96.0871 20.9541 96.6184 20.1099 97.3987 19.6887C97.6652 19.5453 98.0331 19.4854 98.2076 19.7613C98.2722 19.9044 98.3146 20.0592 98.3329 20.2188C98.4042 20.4781 98.5577 20.6975 98.7631 20.8338C98.9685 20.9702 99.2111 21.0138 99.4431 20.9559C99.5394 21.1511 99.6883 21.3054 99.8676 21.3957C100.047 21.486 100.247 21.5075 100.438 21.457C100.548 21.4025 100.669 21.3825 100.788 21.3989C100.849 21.4275 100.903 21.4712 100.947 21.5268C100.991 21.5824 101.023 21.6484 101.042 21.7202C101.239 22.2503 101.242 22.8476 101.359 23.4086C101.476 23.9695 101.775 24.5523 102.268 24.6794C102.82 24.8191 103.353 24.3163 103.595 23.7226C103.838 23.129 103.892 22.4754 104.085 21.8691C104.105 21.7762 104.141 21.6888 104.191 21.612C104.241 21.5353 104.304 21.4708 104.376 21.4225C104.532 21.3746 104.696 21.3746 104.852 21.4225C105.206 21.4475 105.562 21.3907 105.897 21.2554C107.25 20.8016 108.714 19.883 108.963 18.2927C109.153 17.0854 108.574 15.9217 108.257 14.7507C108.036 13.9411 107.94 13.0842 107.622 12.3199C107.265 11.4666 106.66 10.7877 106.066 10.1287C105.635 9.65119 105.167 9.15013 104.576 9.0285C103.424 8.79431 102.444 10.0742 101.283 10.2376C101.031 10.2739 100.76 10.2594 100.542 10.41C100.393 10.5153 100.287 10.6896 100.141 10.8022C99.5557 11.2488 98.8341 10.5226 98.1378 10.4119C97.7381 10.3465 97.3448 10.4936 96.9546 10.6406C96.3694 10.8621 95.7667 11.0963 95.3004 11.5592C94.8341 12.0221 94.5312 12.7719 94.7278 13.4509C94.743 13.5185 94.7724 13.5809 94.8135 13.6324C94.999 13.8412 95.2893 13.5689 95.459 13.3438C95.8368 12.871 96.3316 12.5412 96.8774 12.3985C97.4232 12.2558 97.994 12.3069 98.5137 12.545C98.639 13.1713 98.0379 13.6742 97.4796 13.8031C96.9213 13.932 96.3091 13.9084 95.8825 14.3278C95.5462 14.6563 95.4178 15.1937 95.4209 15.6984C95.4246 16.3468 95.6109 16.9764 95.9522 17.4939C96.0416 17.6034 96.1106 17.7324 96.1553 17.8733C96.3139 18.6303 95.4637 18.5287 95.1148 18.4924C94.685 18.4488 94.62 18.6449 94.6136 19.135C94.6009 20.0101 94.9959 21.6585 93.9348 21.9834Z" fill="#1C976E"/>
<path d="M99.0563 27.4587L98.5776 28.097C98.4778 28.2247 98.3892 28.3609 98.3127 28.5038C98.1808 28.8019 98.1259 29.1284 98.1531 29.4532C98.1524 29.6313 98.1928 29.8071 98.2712 29.967C98.3114 30.0462 98.3715 30.1134 98.4457 30.1621C98.5199 30.2108 98.6055 30.2393 98.6941 30.2447C98.7784 30.2376 98.8602 30.2128 98.9342 30.1718C99.0082 30.1308 99.0726 30.0746 99.1233 30.0069C99.2739 29.8134 99.3944 29.5982 99.4807 29.3687L99.9211 28.3602C99.9928 28.216 100.042 28.0615 100.066 27.9023C100.141 27.1523 99.5094 26.8476 99.0563 27.4587Z" fill="#1C976E"/>
<path d="M106.213 24.7796C105.434 25.2627 104.802 25.9476 104.381 26.7614C104.146 27.2194 103.98 27.7667 104.18 28.2422C104.362 28.681 104.809 28.9474 105.246 29.1373C105.683 29.3272 106.122 29.4564 106.575 29.3926C107.303 29.2809 107.834 28.6602 108.246 28.0491C108.988 26.9497 109.671 25.6445 109.841 24.3121C109.99 23.2063 108.817 23.4504 108.131 23.7536C107.469 24.0527 106.829 24.3955 106.213 24.7796Z" fill="#1C976E"/>
<g style="mix-blend-mode:multiply" opacity="0.29">
<path d="M108.046 11.7878C108.152 12.5295 108.206 13.2779 108.207 14.0272C108.207 17.3312 107.172 20.5521 105.247 23.2373C103.322 25.9226 100.604 27.9371 97.4749 28.9977C94.3458 30.0584 90.9631 30.1119 87.802 29.1507C84.641 28.1894 81.8606 26.2618 79.8517 23.6388C80.1938 26.031 81.0799 28.313 82.4418 30.3093C83.8038 32.3055 85.6053 33.9629 87.708 35.1541C89.8106 36.3452 92.1584 37.0384 94.5708 37.1803C96.9832 37.3222 99.3961 36.909 101.624 35.9726C103.852 35.0362 105.835 33.6014 107.422 31.7786C109.008 29.9558 110.156 27.7935 110.776 25.4578C111.396 23.1221 111.473 20.6754 110.999 18.3056C110.526 15.9358 109.516 13.706 108.046 11.7878Z" fill="#3EA797"/>
</g>
<path d="M88.6466 13.6686C88.6312 13.684 88.6331 13.7108 88.6331 13.7357C88.6399 13.7261 88.6446 13.7152 88.647 13.7036C88.6493 13.6921 88.6491 13.6801 88.6466 13.6686Z" fill="black"/>
<path d="M90.7574 13.3753V13.3933C90.7584 13.3874 90.7584 13.3813 90.7574 13.3753Z" fill="black"/>
<path d="M89.0415 14.8976L89.0664 14.8823C89.1067 14.9341 89.053 14.9187 89.0971 14.959C89.1412 14.959 89.1623 15.0376 89.191 15.0376C89.191 15.0376 89.2102 15.0606 89.191 15.0683C89.214 15.0683 89.2179 15.0855 89.2351 15.0951C89.2524 15.1047 89.2351 15.0951 89.2351 15.0779L89.2716 15.1009C89.2716 15.1181 89.2716 15.1296 89.2601 15.12C89.3521 15.2117 89.4551 15.2916 89.5668 15.3578C89.6855 15.4289 89.815 15.4801 89.9503 15.5093C89.9369 15.4882 89.8966 15.4882 89.8889 15.4613C89.9254 15.4613 89.935 15.4786 89.9541 15.4613C89.9541 15.5016 90.0232 15.4863 90.0423 15.5284L90.0558 15.5093L90.0711 15.5246C90.1555 15.5246 90.1689 15.5246 90.1765 15.5246C90.2096 15.5299 90.2432 15.5299 90.2762 15.5246C90.3038 15.5229 90.3309 15.517 90.3568 15.5073C90.3992 15.4893 90.4428 15.4739 90.4872 15.4613C90.4872 15.4613 90.4526 15.4613 90.4776 15.446C90.4891 15.4613 90.5389 15.4096 90.5562 15.4211C90.5734 15.4326 90.6463 15.377 90.6099 15.3655C90.629 15.3655 90.6866 15.3425 90.6597 15.3655C90.6775 15.3576 90.6938 15.3465 90.7076 15.3329H90.6808C90.7383 15.2907 90.7786 15.283 90.7958 15.2389H90.7709C90.7997 15.214 90.8208 15.191 90.8495 15.2025L90.8246 15.2332C90.8634 15.2026 90.896 15.1649 90.9205 15.122L90.9071 15.1335C90.9205 15.1028 90.9799 15.0261 91.0278 14.9417C91.067 14.8833 91.0955 14.8184 91.1122 14.75L91.0834 14.7615V14.7136C91.0834 14.7136 91.1275 14.7653 91.118 14.7653C91.1796 14.6605 91.2297 14.5493 91.2675 14.4336C91.279 14.3972 91.2905 14.3589 91.3001 14.3224L91.3154 14.2285C91.3269 14.171 91.3365 14.1269 91.3423 14.1058C91.348 14.0847 91.3749 14.1058 91.3787 14.1058C91.3787 14.0617 91.3615 14.0828 91.3787 14.0483C91.396 14.0138 91.3941 14.0483 91.3941 14.0598C91.3941 14.0713 91.3941 14.0291 91.3941 14.0272C91.3941 14.0253 91.3595 14.0272 91.3423 14.0387V13.9927H91.3576C91.3576 13.9831 91.3212 13.9601 91.3365 13.9179C91.3557 13.8431 91.3557 13.7741 91.3691 13.7031C91.3691 13.7031 91.3825 13.7204 91.3864 13.7357C91.3902 13.7511 91.3864 13.7127 91.3864 13.7051C91.3864 13.6974 91.3864 13.6744 91.371 13.6878C91.3384 13.6322 91.371 13.5708 91.371 13.5248C91.3365 13.5152 90.7958 13.358 90.7556 13.3523C90.7564 13.3414 90.7597 13.331 90.7652 13.3216C90.7556 13.3216 90.746 13.3504 90.7498 13.3657H90.7728C90.7728 13.3983 90.7575 13.3657 90.7556 13.404C90.7383 13.404 90.7383 13.3734 90.7383 13.3465C90.7383 13.3695 90.7192 13.3925 90.7383 13.404C90.7575 13.4155 90.7172 13.404 90.7057 13.4251C90.6942 13.4462 90.723 13.4711 90.7057 13.4922C90.6808 13.544 90.723 13.5766 90.7057 13.6245C90.6942 13.6418 90.7057 13.6763 90.6885 13.707C90.6885 13.6974 90.7076 13.6916 90.7076 13.707C90.7076 13.7223 90.7076 13.7664 90.6827 13.7894L90.6961 13.8143C90.6846 13.8661 90.6674 14.0061 90.654 14.1307C90.6361 14.2201 90.6057 14.3066 90.5638 14.3876C90.52 14.4728 90.4638 14.551 90.397 14.6196C90.3165 14.7059 90.259 14.7385 90.2532 14.75C90.2532 14.75 90.2532 14.75 90.2379 14.75C90.2226 14.75 90.2379 14.7692 90.2379 14.7692C90.1919 14.7692 90.2379 14.7826 90.1804 14.7807C90.1021 14.7757 90.0263 14.7513 89.9599 14.7097C89.8882 14.6715 89.8234 14.6216 89.7682 14.5621C89.7202 14.5621 89.6972 14.5027 89.6589 14.4835C89.618 14.4438 89.5837 14.3979 89.5572 14.3474C89.517 14.2822 89.4844 14.2112 89.4691 14.1901C89.4345 14.1537 89.4691 14.148 89.4556 14.1115C89.4326 14.1269 89.4 14.0962 89.3924 14.0809C89.3713 14.0551 89.3527 14.0275 89.3368 13.9984H89.3521C89.329 13.9645 89.3139 13.9259 89.308 13.8853C89.3091 13.8107 89.2987 13.7363 89.2773 13.6648L89.3157 13.6111C89.3157 13.6111 89.1795 13.6111 89.0319 13.6111C88.8843 13.6111 88.7213 13.6418 88.6714 13.7108H88.6561V13.7357C88.6561 13.7664 88.6734 13.7779 88.6561 13.7779V13.7377C88.6561 13.7683 88.6446 13.7377 88.635 13.7377C88.637 13.7497 88.637 13.762 88.635 13.7741C88.635 13.7741 88.635 13.7741 88.635 13.7626C88.635 13.7511 88.6599 13.799 88.6561 13.8201C88.6523 13.8412 88.6312 13.8201 88.6369 13.8623C88.6532 14.0604 88.7011 14.2546 88.7788 14.4375C88.7788 14.4375 88.7788 14.4375 88.7673 14.4375C88.798 14.4912 88.821 14.5429 88.8536 14.5928C88.8574 14.6033 88.8574 14.6148 88.8536 14.6254C88.8498 14.612 89.0338 14.8938 89.0415 14.8976Z" fill="black"/>
<path d="M99.6002 13.4232C99.5878 13.4432 99.5831 13.4671 99.5868 13.4903C99.5937 13.4808 99.5985 13.4698 99.6008 13.4582C99.6031 13.4467 99.6029 13.4347 99.6002 13.4232Z" fill="black"/>
<path d="M101.711 13.1337V13.1537C101.712 13.1471 101.712 13.1403 101.711 13.1337Z" fill="black"/>
<path d="M99.9971 14.6561L100.022 14.6426C100.062 14.6925 100.009 14.6772 100.053 14.7193C100.097 14.7193 100.116 14.796 100.147 14.796C100.147 14.796 100.164 14.819 100.147 14.8267C100.168 14.8267 100.172 14.8459 100.189 14.8535C100.206 14.8612 100.189 14.8535 100.189 14.8382L100.225 14.8612C100.225 14.8766 100.225 14.89 100.212 14.8785C100.304 14.9711 100.408 15.051 100.521 15.1162C100.639 15.1883 100.768 15.2396 100.904 15.2677C100.893 15.2485 100.85 15.2485 100.843 15.2198C100.879 15.2198 100.891 15.237 100.908 15.2198C100.908 15.26 100.979 15.2428 100.998 15.2869L101.011 15.2677L101.027 15.283C101.061 15.285 101.096 15.285 101.13 15.283C101.13 15.283 101.13 15.283 101.23 15.283C101.258 15.2816 101.286 15.2764 101.312 15.2677C101.354 15.2485 101.398 15.2331 101.443 15.2217C101.433 15.2217 101.408 15.2217 101.431 15.2044C101.445 15.2217 101.493 15.168 101.51 15.1814C101.527 15.1948 101.6 15.1354 101.566 15.1258C101.583 15.1258 101.64 15.1028 101.613 15.1258C101.632 15.1186 101.648 15.1075 101.661 15.0932H101.635C101.692 15.051 101.732 15.0453 101.75 15.0012H101.727C101.755 14.9763 101.776 14.9552 101.803 14.9648L101.78 14.9954C101.819 14.9647 101.851 14.927 101.876 14.8842L101.863 14.8976C101.876 14.867 101.934 14.7884 101.982 14.7059C102.021 14.6474 102.05 14.5825 102.068 14.5142L102.037 14.5257L102.047 14.4778C102.047 14.4778 102.091 14.5295 102.083 14.5314C102.143 14.426 102.193 14.3149 102.231 14.1997C102.242 14.1614 102.254 14.125 102.263 14.0885L102.281 13.9946C102.286 13.953 102.295 13.912 102.308 13.8719C102.325 13.8393 102.34 13.8719 102.342 13.8719C102.342 13.8297 102.325 13.8508 102.332 13.8163C102.34 13.7818 102.348 13.8163 102.35 13.8163C102.352 13.8163 102.359 13.7875 102.35 13.7837C102.34 13.7798 102.317 13.7837 102.3 13.7952V13.7511H102.315C102.315 13.7415 102.277 13.7204 102.292 13.6763C102.307 13.6061 102.318 13.535 102.325 13.4635C102.325 13.4635 102.338 13.4807 102.342 13.4961C102.346 13.5114 102.342 13.4712 102.352 13.4635C102.361 13.4558 102.352 13.4347 102.334 13.4462C102.304 13.3906 102.346 13.3312 102.334 13.2833C102.302 13.2833 101.759 13.1165 101.721 13.1126C101.719 13.1025 101.719 13.0921 101.721 13.0819C101.721 13.0819 101.704 13.1107 101.707 13.1241H101.728C101.728 13.1586 101.715 13.1241 101.711 13.1625C101.694 13.1625 101.694 13.1318 101.696 13.1069C101.696 13.1299 101.675 13.151 101.696 13.1625C101.717 13.174 101.675 13.1625 101.665 13.1836C101.656 13.2046 101.682 13.2315 101.665 13.2507C101.64 13.3005 101.682 13.335 101.665 13.381C101.652 13.3964 101.665 13.4328 101.648 13.4616C101.648 13.4616 101.665 13.4462 101.665 13.4616C101.665 13.4769 101.665 13.5229 101.642 13.5459L101.656 13.5689C101.644 13.6226 101.627 13.7607 101.612 13.8853C101.594 13.9748 101.564 14.0613 101.521 14.1422C101.477 14.2271 101.421 14.3052 101.355 14.3742C101.31 14.4202 101.262 14.4631 101.211 14.5027C101.211 14.5027 101.211 14.5027 101.194 14.5027C101.176 14.5027 101.194 14.5219 101.194 14.5199C101.149 14.5199 101.194 14.5334 101.136 14.5334C101.059 14.5273 100.984 14.503 100.917 14.4624C100.845 14.425 100.78 14.3742 100.726 14.3129C100.678 14.3129 100.655 14.2553 100.615 14.2362C100.575 14.1958 100.541 14.1508 100.513 14.102C100.473 14.0368 100.442 13.9658 100.427 13.9428C100.392 13.9083 100.427 13.9006 100.413 13.8642C100.388 13.8795 100.358 13.8489 100.35 13.8335C100.323 13.8021 100.299 13.7681 100.279 13.7319H100.294C100.272 13.6969 100.257 13.6578 100.25 13.6169C100.251 13.543 100.241 13.4694 100.221 13.3983L100.258 13.3427C100.258 13.3427 100.122 13.3427 99.9722 13.3427C99.8227 13.3427 99.6616 13.3734 99.6137 13.4443H99.5983V13.4692C99.5983 13.4999 99.6156 13.5095 99.5983 13.5114V13.4692C99.5983 13.4999 99.5868 13.4807 99.5753 13.4692C99.5764 13.4814 99.5764 13.4935 99.5753 13.5057C99.5753 13.5057 99.5753 13.5057 99.5753 13.4961C99.5753 13.4865 99.6002 13.5306 99.5983 13.5517C99.5964 13.5728 99.5734 13.5517 99.5772 13.5939C99.5951 13.7917 99.6429 13.9856 99.7191 14.1691C99.7191 14.1691 99.7191 14.1691 99.7095 14.1691C99.7352 14.2225 99.764 14.2744 99.7958 14.3244C99.7992 14.335 99.7992 14.3464 99.7958 14.357C99.8035 14.3704 99.9875 14.6541 99.9971 14.6561Z" fill="black"/>
<path d="M92.2128 15.9541C92.2303 15.9852 92.2545 16.0121 92.2837 16.0327C92.2689 15.9997 92.2441 15.9722 92.2128 15.9541Z" fill="black"/>
<path d="M98.7044 15.2734L98.6857 15.2964C98.6931 15.2898 98.6995 15.282 98.7044 15.2734Z" fill="black"/>
<path d="M93.9057 17.0048L93.923 16.9818C94.0074 17.0163 93.9345 17.0201 94.0169 17.047C94.063 17.024 94.1473 17.1026 94.1818 17.0949C94.1818 17.0949 94.2202 17.1141 94.2125 17.1237C94.2048 17.1333 94.2547 17.1237 94.2815 17.139C94.3084 17.1543 94.2815 17.139 94.2719 17.1218L94.3314 17.1352C94.3506 17.1505 94.3525 17.1639 94.3314 17.1563C94.5013 17.2304 94.6754 17.2944 94.8529 17.348C95.0403 17.4041 95.2331 17.4401 95.4281 17.4554C95.407 17.4362 95.3476 17.4419 95.3303 17.4132C95.3802 17.4036 95.4013 17.4266 95.4243 17.4132C95.4377 17.4554 95.5278 17.4324 95.5623 17.4726L95.5777 17.4534L95.6007 17.4669C95.6796 17.4563 95.7595 17.4563 95.8384 17.4669C95.9477 17.4669 95.9975 17.4285 96.057 17.4343C96.057 17.4343 96.0244 17.4343 96.057 17.417C96.0896 17.3998 96.1298 17.3959 96.1452 17.417C96.1605 17.4381 96.2602 17.4036 96.2276 17.3806C96.243 17.3921 96.3216 17.3806 96.2775 17.4055C96.3009 17.4051 96.3242 17.4013 96.3465 17.394H96.312C96.4002 17.3768 96.452 17.394 96.5037 17.3537H96.4711C96.5229 17.3422 96.5651 17.3327 96.59 17.3537L96.5382 17.371C96.6096 17.3594 96.6792 17.3388 96.7453 17.3096H96.7185C96.7626 17.2847 96.8987 17.2387 97.031 17.1812C97.133 17.1405 97.2302 17.0884 97.3205 17.0259H97.2783L97.3378 16.9837C97.3378 16.9837 97.3378 17.0566 97.3224 17.0527C97.3953 17.024 97.61 16.9204 97.8133 16.8073C98.0165 16.6942 98.214 16.5734 98.2753 16.5389C98.3367 16.5044 98.3022 16.56 98.3022 16.5638C98.3559 16.5197 98.3156 16.5293 98.3654 16.4986C98.3808 16.4986 98.3654 16.514 98.3654 16.5216C98.3654 16.5293 98.4095 16.4967 98.4057 16.489C98.4019 16.4814 98.3731 16.4718 98.352 16.466L98.4172 16.4258V16.4411C98.4306 16.4315 98.4268 16.3817 98.492 16.3452C98.6 16.2748 98.7037 16.1979 98.8026 16.1152C98.8026 16.1152 98.7911 16.1439 98.7738 16.165C98.7881 16.1518 98.8042 16.1408 98.8218 16.1324C98.7873 16.1324 98.8563 16.0902 98.8333 16.0998C98.8793 16.0116 98.9924 15.9579 99.025 15.8812C99.025 15.8659 98.9464 15.7279 98.8678 15.5956C98.8145 15.5011 98.7563 15.4096 98.6933 15.3214C98.7032 15.3082 98.7156 15.2971 98.7297 15.2888C98.7182 15.2888 98.6876 15.3137 98.6761 15.3329L98.6895 15.3501C98.6588 15.3942 98.6722 15.3501 98.6377 15.3866C98.6224 15.377 98.653 15.3406 98.678 15.3118C98.653 15.3367 98.6185 15.3521 98.6205 15.377C98.5917 15.3942 98.607 15.3578 98.5725 15.377C98.5583 15.4086 98.5358 15.4358 98.5073 15.4556C98.4345 15.4978 98.4306 15.561 98.3578 15.5956C98.329 15.5956 98.2964 15.6492 98.2504 15.6723C98.2638 15.6723 98.2811 15.6723 98.26 15.6876C98.2221 15.7146 98.1824 15.739 98.1411 15.7604L98.1181 15.7988C98.0357 15.8563 97.8324 15.9905 97.6158 16.1305C97.4451 16.236 97.2684 16.3313 97.0866 16.4162C96.9015 16.5015 96.709 16.5695 96.5114 16.6194C96.3134 16.6699 96.1123 16.707 95.9093 16.7306C95.8562 16.7214 95.8023 16.7169 95.7483 16.7172C95.7751 16.7172 95.7655 16.7364 95.7483 16.7345C95.5987 16.7345 95.7387 16.7479 95.5853 16.7498C95.416 16.7356 95.2492 16.7001 95.0887 16.6443C94.9225 16.5992 94.7598 16.5422 94.6017 16.4737C94.5075 16.4517 94.4147 16.4242 94.3237 16.3913C94.2298 16.3702 93.7485 16.1286 93.6565 16.0826H93.668C93.576 16.0538 93.599 16.0327 93.5376 15.9905C93.5376 16.0212 93.4532 15.9905 93.4245 15.9905C93.3507 15.9658 93.2784 15.937 93.2078 15.9042V15.8927C93.1359 15.8619 93.0672 15.824 93.0027 15.7796C92.9077 15.6901 92.8065 15.6074 92.6997 15.5323L92.6518 15.4403H92.6384C92.5639 15.4994 92.4934 15.5634 92.4275 15.632C92.3259 15.7413 92.2357 15.8774 92.2818 15.9848L92.2703 15.9944L92.3048 16.0174C92.3393 16.0519 92.368 16.05 92.3565 16.0615L92.3029 16.0212C92.3393 16.0538 92.3029 16.0404 92.2875 16.0365C92.3023 16.0478 92.3158 16.0607 92.3278 16.0749C92.3393 16.0749 92.3278 16.0749 92.3278 16.0596C92.3568 16.0692 92.3831 16.0856 92.4045 16.1075C92.4447 16.1382 92.393 16.1305 92.439 16.165C92.6808 16.3533 92.9372 16.5219 93.2059 16.6693C93.2059 16.6693 93.2059 16.6693 93.1925 16.6693C93.2788 16.7076 93.3516 16.7498 93.4322 16.7805C93.4438 16.7904 93.4518 16.8039 93.4552 16.8188C93.529 16.8425 93.6008 16.872 93.6699 16.907L93.9057 17.0048Z" fill="black"/>
<path opacity="0.09" d="M91.2679 14.3622C93.2427 12.5315 93.8615 9.98798 92.6499 8.681C91.4384 7.37401 88.8553 7.79853 86.8805 9.62917C84.9056 11.4598 84.2868 14.0034 85.4984 15.3104C86.7099 16.6173 89.293 16.1928 91.2679 14.3622Z" fill="#F3F3F3"/>
<path d="M102.505 17.7008C103.464 17.7008 104.242 17.2467 104.242 16.6865C104.242 16.1263 103.464 15.6722 102.505 15.6722C101.546 15.6722 100.768 16.1263 100.768 16.6865C100.768 17.2467 101.546 17.7008 102.505 17.7008Z" fill="#EF8A99"/>
<path d="M89.8314 16.7882C89.8697 17.348 89.122 17.8197 88.1652 17.8408C87.2085 17.8619 86.3975 17.4266 86.361 16.8744C86.3246 16.3222 87.0704 15.8429 88.0291 15.8218C88.9878 15.8007 89.795 16.2283 89.8314 16.7882Z" fill="#EF8A99"/>
</g>
<defs>
<clipPath id="clip0_545_1310">
<rect width="43" height="43" fill="white" transform="translate(74)"/>
</clipPath>
</defs>
</svg>
