<svg width="75" height="75" viewBox="0 0 75 75" fill="none" xmlns="http://www.w3.org/2000/svg">
<path d="M37.5 0C16.803 0 0 16.803 0 37.5C0 58.197 16.803 75 37.5 75C58.1595 75 74.9333 58.257 74.994 37.611C74.9978 37.5741 74.9998 37.5371 75 37.5C75 37.4667 74.9985 37.4334 74.9955 37.4002C74.9415 16.749 58.164 0 37.5 0ZM37.5 2.25C39.582 2.25 41.6175 2.4405 43.5998 2.78625C44.0783 3.83325 46.677 4.05825 43.9222 3.8745C42.8602 5.3895 38.658 2.28225 35.8597 3.90975C35.0205 5.09175 29.7097 6.36375 31.7048 8.28075C34.545 7.7655 31.392 8.2305 31.4768 9.6405C30.0248 10.143 27.9622 12.543 27.9915 10.0868C27.6315 8.28825 29.613 6.6315 26.4053 7.97925C26.229 8.95875 21.3997 10.8442 23.8155 11.2778C26.3557 10.0027 22.8008 13.3013 25.758 12C23.7398 12.915 25.2705 13.9132 24.3442 15.93C21.0795 14.4037 19.575 17.2965 18.8918 20.07C19.6657 20.1427 19.9283 20.547 19.8533 21.03C20.2448 21.0683 20.7983 21.1223 21.048 21.1448C22.6852 21.0195 24.1927 19.9463 24.9743 18.3825C26.8365 16.9627 28.3605 16.1475 30.6165 16.254C29.5342 16.0703 28.0905 20.8155 30.2843 19.0192C29.3408 14.9955 34.4692 19.4077 33.3457 19.4325C31.461 19.7115 30.8558 20.1945 32.4788 21.555C33.609 22.4152 34.3035 18.261 35.685 18.9847C35.5013 18.1935 32.2703 15.6473 32.748 15.7808C32.8582 15.8115 33.1657 15.9862 33.7545 16.3568C36.414 17.1938 35.9783 20.6243 38.3932 21.8302C40.0732 24.015 42.6728 20.5635 44.5095 21.6105C44.5725 23.052 46.1985 22.9058 46.1355 21.3615C47.9692 22.7655 45.9405 26.2268 43.3942 24.8423C40.9762 26.2358 37.5195 21.5325 36.0555 25.1003C35.403 26.7832 33.1688 23.7975 32.244 23.7337C29.0153 24.0915 32.115 20.5777 29.8785 20.2013C26.9963 20.1765 24.0308 21.3862 21.255 21.2062C19.7453 21.6705 18.798 22.29 17.8958 22.8472C17.0295 24.1402 15.327 25.0627 13.5758 27.5378C13.2548 28.0327 12.6967 28.6462 12.0322 29.3903C11.1232 32.4825 10.0095 35.5778 10.185 38.7952C12.1672 40.8862 12.6322 45.9367 16.5262 45.5363C19.0987 46.8652 21.0472 44.5703 23.4592 45.3413C23.904 47.847 28.608 46.8037 27.3397 49.3125C26.016 52.3095 29.8845 53.7547 30.5168 56.4825C32.1683 59.2095 28.0253 62.052 31.3523 64.3988C33.1943 67.4512 35.3288 72.0885 39.7373 70.2847C43.167 70.065 45.2648 67.1722 47.4067 65.199C47.2125 61.5795 53.751 61.974 52.2878 57.372C51.4253 56.829 52.3417 54.6533 51.8677 53.883C52.3582 52.8743 54.0863 50.001 55.758 48.5947C58.3208 46.6073 59.3955 43.4977 60.2415 40.4895C59.718 37.9598 58.524 40.4355 57.003 40.3283C52.956 41.829 57.0983 38.5882 58.6215 37.6657C60.771 36.399 62.862 34.2383 63.3353 31.9358C65.3272 29.7833 58.5255 27.6922 62.799 28.3958C65.5013 27.8685 66.8873 27.5475 67.5788 30.135C70.2262 31.182 70.0155 35.9798 71.5065 38.5928C72.279 37.6403 71.97 38.3805 72.2985 39.5257C73.161 37.053 71.3438 33.0682 71.9085 29.8538C72.4659 32.3644 72.7481 34.9282 72.75 37.5C72.75 56.9813 56.9813 72.75 37.5 72.75C18.0187 72.75 2.25 56.9813 2.25 37.5C2.25 22.3545 11.7825 9.4575 25.1775 4.46475C26.478 4.09275 27.78 3.7245 29.0535 3.27375C31.8175 2.59382 34.6536 2.25008 37.5 2.25ZM45.2197 3.10725C45.594 3.18975 45.9697 3.27075 46.3387 3.366C46.2533 3.93225 45.7777 3.58125 45.2197 3.10725ZM26.376 4.66425C25.515 4.68 24.5332 4.9995 24.7882 5.7975C25.2607 5.9715 25.752 5.8425 26.2147 5.72925C28.3912 5.12325 27.483 4.64325 26.376 4.66425ZM36.9607 7.48275C38.1068 7.314 37.0245 10.62 35.25 9.76725C32.3415 10.068 35.688 9.5835 35.7937 8.2485C36.3142 7.746 36.6967 7.521 36.9607 7.48275ZM53.0783 14.0287C53.2958 14.055 53.3618 14.3197 53.061 14.9505C52.8158 15.759 56.7585 18.3772 56.514 20.0452C53.013 20.964 55.2015 17.5508 52.9215 16.8563C50.4187 16.0275 52.4265 13.9515 53.079 14.0287H53.0783ZM42.924 14.6835C44.2245 16.4257 46.254 15.0592 48.1492 16.4738C50.4682 18.8137 44.4938 16.1663 43.4557 17.5155C40.3575 18.4688 41.8785 15.633 42.924 14.6835ZM12.627 25.3155C12.4065 25.2825 12.2257 25.4355 12.066 26.058C12.5985 26.0857 12.996 26.1457 13.2817 26.2365L13.4557 25.698C13.1235 25.578 12.8535 25.3493 12.627 25.3155ZM56.4112 25.6965C56.9212 27.4658 60.885 27.1853 59.925 28.8428L59.4727 29.1623C58.6987 28.656 55.479 26.5223 56.4112 25.6965ZM47.0085 27.9675C48.837 29.2148 50.1472 31.77 51.3165 33.7725C52.923 34.9155 52.974 36.7523 54.0165 38.1968C53.5905 38.7368 52.758 37.752 52.5877 37.4017C51.195 36.4275 50.0452 33.9518 49.0605 31.974C48.4417 30.603 46.932 29.3528 47.0085 27.9675ZM57.948 57.1455C57.7815 57.1343 57.528 57.3293 57.1702 57.8198C54.588 59.7225 52.5382 61.9867 52.3853 65.2523C54.174 66.0652 55.6898 62.7885 56.6513 61.6448C57.753 61.1115 58.668 57.1943 57.948 57.1455Z" fill="#0B604D"/>
</svg>
