<svg width="174" height="174" viewBox="0 0 174 174" fill="none" xmlns="http://www.w3.org/2000/svg">
<g clip-path="url(#clip0_220_4646)">
<path d="M150.694 80.5799C151.267 80.1685 151.816 79.7256 152.339 79.2532C151.85 79.6256 151.362 80.0523 150.694 80.5799Z" fill="black"/>
<path d="M152.355 79.2379L152.363 79.2299L152.339 79.2459L152.355 79.2379Z" fill="black"/>
<path d="M144.828 74.3342L145.34 73.923L144.828 74.3342Z" fill="black"/>
<path d="M163.635 44.27L163.55 44.1614C163.201 42.3226 163.55 43.6028 163.154 41.9192C162.945 41.2675 162.472 39.1261 162.262 38.5675C162.262 38.5675 162.029 37.7917 162.068 37.7917C161.952 37.5589 161.804 36.9693 161.634 36.4649C161.564 36.2865 161.634 36.6046 161.688 36.7443C161.572 36.3563 161.432 35.9684 161.292 35.596C161.153 35.2236 161.137 35.0219 161.292 35.5107C161.067 34.8046 160.602 33.4934 159.973 31.8719C159.655 31.0961 159.298 30.1806 158.911 29.2573L158.321 27.8608V27.7754C158.414 27.5039 158.492 27.2246 158.569 26.953C158.863 25.8397 158.996 24.6902 158.965 23.5393C158.957 22.8731 158.79 22.2184 158.476 21.6307C158.355 21.4592 158.223 21.2959 158.08 21.1419C157.898 21 157.704 20.8753 157.498 20.7695C157.293 20.7048 157.083 20.6556 156.87 20.6221C156.687 20.606 156.502 20.606 156.319 20.6221C156.218 20.6221 156.149 20.6221 156.04 20.6609C155.929 20.6915 155.82 20.7304 155.714 20.7773C155.505 20.8727 155.315 21.007 155.155 21.1729C154.904 21.444 154.72 21.7711 154.62 22.1272C154.479 22.6318 154.422 23.1559 154.449 23.6789C154.493 24.4335 154.624 25.1806 154.837 25.9056L156.606 25.5255C156.535 25.1031 156.405 24.693 156.218 24.3074C156.377 24.7007 156.497 25.1087 156.575 25.5255L154.868 25.8979C154.781 25.5987 154.722 25.2923 154.69 24.9824C154.775 25.3548 154.853 25.6418 154.923 25.8823L156.529 25.5332C156.478 25.182 156.37 24.8414 156.211 24.5246C156.074 24.0866 155.864 23.6748 155.59 23.3065C155.277 22.8511 154.929 22.4205 154.55 22.0186L154.279 21.8557C154.147 21.7393 153.999 21.6229 153.844 21.5065C153.327 21.1664 152.703 21.0284 152.091 21.1186C151.791 21.1895 151.512 21.3277 151.274 21.5226C151.036 21.7175 150.846 21.9641 150.718 22.2436C150.677 22.3182 150.644 22.396 150.617 22.4764C150.552 22.6609 150.503 22.8503 150.469 23.0427C150.377 23.6695 150.396 24.3076 150.524 24.9281C150.709 25.9734 151.049 26.9853 151.532 27.9306L153.037 27.1547C152.821 26.764 152.583 26.3858 152.324 26.022C152.432 26.1772 152.688 26.5884 152.324 26.1306C151.988 25.6728 151.62 25.2398 151.222 24.8349C150.898 24.5255 150.547 24.2452 150.174 23.997C149.771 23.741 149.468 23.6013 149.748 23.7875C149.431 23.5873 149.082 23.4429 148.716 23.3608C148.274 23.3065 148.041 23.2832 148.716 23.3608C148.54 23.3179 148.361 23.2919 148.181 23.2832C147.979 23.2995 147.78 23.3439 147.591 23.4151C147.266 23.5526 146.981 23.7685 146.761 24.0436C146.877 23.9194 147.009 23.7953 147.141 23.6789C147.296 23.5728 147.463 23.4843 147.637 23.4151C147.472 23.4862 147.314 23.5719 147.164 23.6712C147.045 23.7765 146.931 23.8878 146.823 24.0048C146.578 24.296 146.412 24.6445 146.338 25.0176C146.265 25.3907 146.288 25.7763 146.404 26.1384C146.623 26.7733 146.996 27.3439 147.49 27.7987C147.332 27.6209 147.185 27.4344 147.048 27.2401C147.579 27.8654 148.16 28.4466 148.786 28.978C148.491 28.753 148.204 28.528 147.924 28.2797C148.681 28.9519 149.496 29.5543 150.361 30.0797L151.206 28.7142C150.828 28.4838 150.431 28.2866 150.019 28.1246L150.508 28.3573C149.674 27.957 148.781 27.695 147.862 27.5815C147.471 27.534 147.074 27.5576 146.691 27.6513C146.429 27.7177 146.186 27.8431 145.98 28.0179C145.775 28.1927 145.612 28.4123 145.504 28.6599L145.426 28.8461V29.009L145.356 29.3271C145.329 29.5669 145.329 29.8089 145.356 30.0487C145.443 30.5668 145.72 31.0341 146.132 31.3599C146.813 31.7856 147.589 32.0361 148.39 32.0891C149.088 32.1667 149.74 32.1745 150.314 32.1823H151.369L151.47 32.3762L151.509 32.4616L151.579 32.6167C151.478 32.3297 151.47 32.2754 151.431 32.159C151.478 32.2366 151.726 32.7797 151.905 33.1831C151.843 33.0279 151.517 32.6167 151.478 32.4848C152.891 35.7668 153.973 39.1821 154.705 42.6795C155.075 44.7929 155.257 46.9348 155.249 49.0803C155.249 50.0268 155.179 50.857 155.155 51.5475C155.132 52.238 155.016 52.7733 154.977 53.0992C154.83 54.1931 154.884 53.2931 154.884 53.2776C154.84 53.8506 154.762 54.4206 154.651 54.9845C154.589 55.2871 154.651 54.9147 154.651 54.7362C154.566 55.2328 154.465 55.6828 154.48 55.7216C154.605 55.1164 154.612 55.3802 154.698 55.1319C154.612 55.6129 154.519 56.094 154.387 56.5672V56.4974C154.349 56.6526 154.317 56.8621 154.255 57.2034C154.17 57.7163 154.038 58.2202 153.86 58.7086C153.115 61.1126 152.072 63.414 150.756 65.5593C150.756 65.5128 151.005 65.0628 151.245 64.6128C151.082 64.8921 150.842 65.3343 150.679 65.5826C151.02 65.1093 150.143 66.4593 150.399 66.0792C149.404 67.7062 148.242 69.2248 146.931 70.6101C146.931 70.7032 146.528 71.4946 146.156 72.317C145.783 73.1394 145.263 73.8687 145.302 73.9385L144.371 74.7144C144.487 74.6446 145.287 74.0239 145.698 73.6747L145.737 73.5816C146.683 72.8058 145.985 73.4187 146.877 72.6041C146.428 73.1145 145.924 73.5726 145.372 73.9696C145.949 73.5577 146.485 73.09 146.97 72.573C147.591 72.0144 146.97 72.6739 147.684 71.9989C148.188 71.4946 148.77 70.7575 149.344 70.1679C149.973 69.392 150.446 68.8024 150.896 68.1972C151.346 67.5921 151.711 66.9791 152.192 66.2111L152.106 66.3895C152.424 65.8309 153.084 64.7447 153.573 63.6973C153.425 63.9921 153.278 64.2404 153.573 63.6042C154.201 62.4327 154.449 61.5482 154.853 60.6637C154.954 60.3689 155.024 60.0663 155.109 59.7637C155.28 59.2129 155.551 58.4681 155.761 57.537C155.861 57.0715 156.009 56.575 156.11 56.0397C156.211 55.5043 156.311 54.9224 156.412 54.325C156.811 51.6365 156.905 48.9115 156.692 46.2019C156.649 45.4924 156.572 44.7855 156.459 44.0838C156.373 43.3855 156.273 42.6873 156.125 42.0123C155.854 40.6545 155.512 39.3899 155.171 38.2339C154.48 35.9063 153.774 34.0676 153.34 32.9969L153.41 33.1598C153.239 32.7331 153.068 32.3219 152.843 31.8021L152.564 31.1814L152.424 30.8633C152.424 30.8245 152.424 30.7314 152.331 30.7314H150.912C149.811 30.7807 148.71 30.6789 147.637 30.4288C147.431 30.3707 147.236 30.2761 147.063 30.1495C146.966 30.0704 146.898 29.9612 146.869 29.8392C146.869 29.7538 146.869 29.684 146.869 29.5754L146.908 29.4125V29.3349C146.947 29.2573 146.908 29.234 147.118 29.1875C147.644 29.1286 148.176 29.1978 148.669 29.3892C149.254 29.5807 149.814 29.8412 150.337 30.165L151.199 28.8383C150.218 28.2411 149.312 27.5302 148.499 26.7203C148.184 26.4181 147.961 26.0336 147.855 25.6108C147.855 25.5332 147.855 25.4867 147.855 25.4168C147.855 25.347 147.855 25.3005 147.924 25.2462C147.994 25.1918 147.994 25.1065 148.041 25.0832C148.057 25.0632 148.075 25.045 148.095 25.0289H148.142C148.243 24.9358 148.662 25.0289 149.034 25.2384C149.429 25.4658 149.794 25.7422 150.12 26.0608C150.738 26.6349 151.261 27.3025 151.672 28.0392L153.014 27.372L152.82 26.953C152.385 25.8997 152.158 24.772 152.153 23.6324C152.153 24.1522 152.099 23.9738 152.153 23.5703C152.254 22.872 152.424 22.9419 152.455 22.8876C152.486 22.8333 152.525 22.8876 152.533 22.8876C152.541 22.8876 152.533 22.8876 152.649 22.8876C153.033 22.9818 153.379 23.19 153.643 23.485C153.919 23.7296 154.168 24.0027 154.387 24.2996C154.706 24.7509 154.935 25.2592 155.062 25.797L156.405 25.5099C156.194 24.7867 156.089 24.0366 156.094 23.2832C156.085 22.9619 156.16 22.6437 156.311 22.36C156.349 22.3019 156.407 22.2602 156.474 22.2436C156.614 22.2436 156.792 22.1893 156.862 22.2436C156.932 22.2979 157.18 22.4376 157.297 22.81C157.403 23.2174 157.447 23.6385 157.429 24.0591C157.399 24.981 157.256 25.8956 157.002 26.7823C156.979 26.8906 156.948 26.997 156.909 27.1004L156.855 27.2634V27.3409L156.8 27.4806L156.684 27.7754C156.684 27.822 156.63 27.8763 156.637 27.9228L156.699 28.0625L156.924 28.5823L157.452 29.8469C157.793 30.6616 158.111 31.4374 158.391 32.1745C158.949 33.5943 159.368 34.7503 159.593 35.4408C160.297 37.3708 160.891 39.3395 161.37 41.3373V41.1278C162 43.6413 162.42 46.2026 162.627 48.7855C162.838 51.443 162.781 54.1151 162.456 56.7612L162.503 56.4509C162.399 57.5671 162.202 58.6727 161.913 59.756C161.96 59.6551 161.913 60.043 161.828 60.5318C161.742 61.0206 161.556 61.6025 161.479 61.9206C161.094 63.5135 160.575 65.0708 159.927 66.5757V66.4981C159.27 68.0269 158.492 69.5005 157.599 70.9049C155.993 73.3733 154.109 75.6486 151.982 77.6859C151.493 78.1126 150.974 78.516 150.43 78.9195L150.213 79.1057C149.996 79.4658 149.839 79.8589 149.748 80.2695C149.709 80.6962 150.112 80.8824 151.788 79.6255V79.6953L152.409 79.1445C153.185 78.4773 153.449 78.1359 153.418 78.2057L152.386 79.1445C153.115 78.4695 152.626 78.9583 152.386 79.2298L153.239 78.454C153.371 78.3143 153.123 78.5471 153.006 78.6479C153.394 78.2755 153.891 77.7169 154.356 77.2592C155.047 76.4833 154.442 77.2592 155.249 76.3747C159.448 71.7047 162.308 65.987 163.527 59.8258C163.573 59.6862 163.527 59.8258 163.527 60.043C163.886 58.2928 164.122 56.5195 164.233 54.7362C164.279 54.2552 164.303 54.1233 164.326 53.9604C164.326 54.038 164.326 53.4716 164.365 52.5794C164.365 52.1371 164.365 51.6095 164.365 51.0277C164.365 50.7406 164.365 50.4458 164.365 50.1432C164.365 49.8406 164.318 49.538 164.295 49.2354C164.241 48.6225 164.21 48.0018 164.148 47.4277C164.085 46.8536 164 46.3105 163.938 45.876C163.783 44.9372 163.62 44.3088 163.635 44.27Z" fill="black"/>
<path d="M24.2229 79.2686L22.71 77.9264C23.1892 78.4013 23.6943 78.8494 24.2229 79.2686Z" fill="black"/>
<path d="M22.7024 77.9112L22.6943 77.9032L22.7104 77.9272L22.7024 77.9112Z" fill="black"/>
<path d="M30.2505 72.8058L29.7617 72.4178L30.2505 72.8058Z" fill="black"/>
<path d="M12.1195 44.4174L12.0807 44.2933C12.4143 42.5166 12.2126 43.7812 12.5694 42.1442C12.5694 41.4847 13.2444 39.4442 13.3453 38.8778C13.3453 38.8778 13.4074 38.6916 13.4694 38.5054C13.4969 38.3859 13.5413 38.271 13.6013 38.164C13.6013 37.908 13.8418 37.3882 13.9815 36.8529C14.028 36.6744 13.9272 36.9847 13.8729 37.1089C13.9815 36.7287 14.1134 36.333 14.2375 35.9761C14.3617 35.6193 14.4625 35.4408 14.3074 35.9218C14.5401 35.2391 14.9979 33.9589 15.6263 32.3762C15.9444 31.6003 16.3013 30.7159 16.6892 29.8081C16.8832 29.3426 17.0927 28.8694 17.2944 28.3883C17.4148 28.1672 17.5011 27.9292 17.5504 27.6823L17.4108 27.3254L17.3564 27.1625L17.3177 27.0616C17.2478 26.8444 17.178 26.6116 17.1159 26.3711C16.8739 25.434 16.7616 24.4681 16.7823 23.5005C16.7843 23.1337 16.8636 22.7715 17.0151 22.4375C17.0492 22.4145 17.0761 22.3822 17.0927 22.3444C17.0927 22.3444 17.1314 22.3444 17.1392 22.3444C17.147 22.3444 17.2013 22.3444 17.2245 22.3444C17.2478 22.3444 17.3332 22.3444 17.3875 22.3444H17.4728C17.5282 22.4086 17.5657 22.4862 17.5814 22.5694C17.6633 22.8752 17.6922 23.1927 17.6668 23.5082C17.6291 24.1203 17.5251 24.7264 17.3564 25.316L19.1254 25.7039C19.1761 25.4555 19.2541 25.2135 19.3581 24.9823C19.2387 25.2074 19.1499 25.4475 19.0943 25.6961L17.3875 25.3237C17.4728 25.0211 17.5504 24.7341 17.6047 24.5479C17.5682 24.8106 17.5112 25.07 17.434 25.3237L19.04 25.6728C19.0943 25.4401 19.1642 25.2461 19.2262 25.0599C19.2883 24.8737 19.5055 24.5634 19.7771 24.1832C20.0065 23.8379 20.2924 23.5336 20.6228 23.2832L20.7547 23.1125C20.8469 23.05 20.9427 22.993 21.0417 22.9419C21.1793 22.8321 21.3472 22.7671 21.5228 22.7556C21.5228 22.7556 21.5771 22.7556 21.6003 22.8022C21.6257 22.8284 21.6444 22.8603 21.6547 22.8953C21.6618 22.918 21.6618 22.9424 21.6547 22.9651C21.6845 23.0449 21.7028 23.1285 21.709 23.2134C21.7858 23.6417 21.7884 24.0799 21.7167 24.5091C21.5645 25.3887 21.3039 26.2461 20.9409 27.0616L22.446 27.8375C22.6007 27.528 22.7852 27.2344 22.9969 26.9608C22.9115 27.0849 22.6477 27.3952 22.9193 27.0073C23.2218 26.6034 23.5565 26.2246 23.9201 25.8746C24.176 25.6259 24.451 25.3976 24.7425 25.1918C25.0296 25.0056 25.2158 24.8892 25.0063 24.9823C25.1938 24.8891 25.3917 24.8188 25.596 24.7729C25.7434 24.7729 25.8132 24.7729 25.596 24.7729C25.8908 24.7729 25.8753 24.7729 26.0072 24.897C25.9776 24.8743 25.9537 24.8451 25.9373 24.8117C25.9373 24.8117 25.883 24.8117 25.8675 24.7651C25.852 24.7186 25.9141 24.7651 25.9373 24.7651C25.9565 24.7921 25.9801 24.8157 26.0072 24.8349C26.0072 24.9048 26.1313 24.9901 26.1313 25.0522C26.1774 25.188 26.1774 25.3353 26.1313 25.4711C25.9669 25.8618 25.733 26.2193 25.4408 26.5263C25.5728 26.4048 25.6972 26.2752 25.8132 26.1384C25.3936 26.6794 24.8814 27.1418 24.3003 27.5039C24.5563 27.2944 24.8046 27.0927 25.0296 26.8677C24.3387 27.4767 23.6021 28.0317 22.8262 28.528L23.7184 29.8935C23.9997 29.7364 24.2929 29.6016 24.5951 29.49L24.1762 29.6762C24.8364 29.3242 25.5489 29.0806 26.2865 28.9547C26.4947 28.9226 26.7067 28.9226 26.9149 28.9547C27.0934 28.9547 27.1011 29.0323 27.1554 29.1254V29.1642V29.2418V29.4202C27.1666 29.5156 27.1666 29.6119 27.1554 29.7073C27.1251 29.8636 27.0398 30.004 26.9149 30.103C26.4403 30.379 25.9103 30.5459 25.3632 30.5917C24.7763 30.6659 24.1858 30.7074 23.5943 30.7159H22.8184C22.4542 30.6922 22.0887 30.6922 21.7245 30.7159C21.5926 31.0262 21.4762 31.2978 21.3676 31.5383C21.3288 31.6391 21.29 31.7245 21.259 31.8098L21.1969 31.9728L21.7167 31.0417C21.3831 31.8176 21.259 32.1434 21.0805 32.5934C21.1426 32.4383 21.2202 31.9029 21.29 31.7788C19.8518 35.1541 18.7574 38.6657 18.0237 42.2605C17.6433 44.4564 17.4538 46.681 17.4573 48.9096C17.4573 49.8794 17.5349 50.7483 17.5582 51.4699C17.5814 52.1914 17.6901 52.7345 17.7211 53.0914C17.8297 54.2319 17.6745 53.3009 17.6668 53.2931C17.8607 54.6741 17.7987 53.8828 17.9926 55.0543C18.0392 55.3724 17.9461 54.9922 17.9073 54.8138C18.0082 55.3259 18.078 55.8069 18.1013 55.8457C18.0004 55.2017 18.1013 55.4577 18.1013 55.1784C18.1866 55.6827 18.2797 56.187 18.4116 56.6758L18.3418 56.6448C18.4349 56.9396 18.6211 57.5681 19.0323 58.9025C19.7866 61.4018 20.8555 63.7951 22.2133 66.0248C22.2133 66.0248 21.9029 65.5438 21.6236 65.0861C21.7943 65.3809 22.0581 65.8619 22.1977 66.1102C21.9029 65.5748 22.8029 66.9946 22.5546 66.5834C23.6612 68.219 24.9072 69.7557 26.2787 71.1765C26.3408 71.223 27.2253 71.5877 28.0554 71.9523C28.4298 72.1184 28.8163 72.2559 29.2114 72.3635C29.387 72.4277 29.5691 72.4719 29.7545 72.4954L30.6235 73.2015C30.5381 73.1083 29.8011 72.5032 29.3976 72.1928H29.2968C28.9243 71.8986 28.5742 71.577 28.2494 71.2308C28.2494 71.161 28.9864 71.8903 29.7313 72.4411C29.0718 71.9368 28.4899 71.3472 28.2183 71.1377C27.6597 70.5946 28.3114 71.1377 27.6365 70.5093C27.1477 70.0593 26.5503 69.4075 26.0382 68.8334L24.5874 66.9869C24.1451 66.3873 23.7334 65.7659 23.3538 65.1248L23.4546 65.28C23.1986 64.7369 22.5158 63.7283 22.1046 62.7275C22.2288 63.0145 22.3219 63.2706 22.0348 62.6809C21.484 61.5482 21.2047 60.7335 20.871 59.8801C20.7624 59.6085 20.6693 59.3292 20.5607 59.0499C20.4055 58.5301 20.1495 57.8241 19.9478 56.9396C19.8469 56.4974 19.7073 56.0319 19.6142 55.5198C19.5211 55.0078 19.4202 54.4569 19.3193 53.8905C18.9321 51.3234 18.8333 48.7211 19.0245 46.132C19.059 45.4538 19.1289 44.7779 19.234 44.1071C19.3016 43.4455 19.4025 42.7878 19.5366 42.1364C19.7926 40.8485 20.1107 39.6226 20.4443 38.4977C21.1038 36.2554 21.7865 34.4322 22.1977 33.4081L22.1434 33.571C22.2986 33.1676 22.4926 32.7021 22.6633 32.2986C22.6633 32.2598 22.7098 32.1667 22.7331 32.159H23.121C24.3901 32.2158 25.6607 32.085 26.8916 31.771C27.2946 31.6519 27.6711 31.4571 28.0011 31.1969C28.4122 30.8635 28.688 30.392 28.777 29.8702C28.8006 29.6329 28.8006 29.3938 28.777 29.1564L28.6994 28.8383V28.6831L28.614 28.4814C28.4978 28.2186 28.3214 27.9869 28.099 27.8049C27.8766 27.623 27.6145 27.4959 27.3339 27.434C26.5206 27.2958 25.6852 27.3761 24.9132 27.6668C24.1908 27.8877 23.4998 28.2006 22.8572 28.5978L23.7262 29.9245C24.8191 29.2481 25.8272 28.4433 26.7287 27.5271C27.2563 26.9872 27.615 26.305 27.7606 25.5642C27.7915 25.3429 27.7915 25.1183 27.7606 24.897C27.7101 24.676 27.6319 24.4622 27.5278 24.2608C27.4245 24.0675 27.2909 23.8921 27.1322 23.741C27.0468 23.6634 26.9692 23.5781 26.8761 23.5082L26.5503 23.3375C26.3332 23.246 26.1025 23.191 25.8675 23.1746C25.6639 23.1769 25.4611 23.2003 25.2624 23.2444C24.9251 23.3243 24.6011 23.4523 24.3003 23.6246C23.7927 23.9133 23.3257 24.2681 22.9115 24.6798C22.1658 25.3814 21.5418 26.2021 21.065 27.1082L22.4072 27.7676C22.5081 27.5426 22.5779 27.403 22.6322 27.2556C23.1834 26.0055 23.451 24.6489 23.4158 23.2832C23.4158 23.6712 23.4158 23.7875 23.4158 23.741C23.4158 23.6944 23.4158 23.4617 23.4158 23.1901C23.3865 22.7121 23.2224 22.2521 22.9426 21.8634C22.8399 21.7121 22.708 21.5829 22.5546 21.4833C22.4548 21.4027 22.342 21.3398 22.221 21.2971C22.0609 21.2202 21.8865 21.1779 21.709 21.1729C21.5425 21.1667 21.3759 21.1797 21.2124 21.2117C20.5513 21.3569 19.9503 21.7007 19.49 22.197C19.1111 22.5607 18.7752 22.9668 18.4892 23.4074C18.0529 24.0265 17.7491 24.7291 17.597 25.4711L18.9469 25.7659C19.2047 24.9028 19.3303 24.0056 19.3193 23.1048C19.3251 22.5113 19.1579 21.929 18.8383 21.4289C18.6035 21.081 18.2461 20.8345 17.8375 20.7384C17.4971 20.6684 17.146 20.6684 16.8056 20.7384C16.619 20.7737 16.4419 20.8477 16.2858 20.9557C16.1204 21.0508 15.9775 21.1805 15.8668 21.3358L15.6884 21.5531L15.5797 21.7781C15.5074 21.9191 15.4502 22.0673 15.4091 22.2203C15.257 22.7654 15.1889 23.3305 15.2073 23.8961C15.2367 24.9456 15.393 25.9877 15.6728 26.9996C15.6728 27.1237 15.7349 27.2478 15.7737 27.372L15.8746 27.6668C15.8746 27.6668 15.8746 27.7133 15.8746 27.7444L15.8203 27.8685L15.2772 29.1331C14.9358 29.9555 14.6022 30.7392 14.3151 31.4607C13.741 32.896 13.2987 34.0675 13.0505 34.7658C12.4298 36.6279 11.7005 38.9787 11.2738 40.864V40.67C10.6441 43.2616 10.2084 45.8964 9.97035 48.5527C9.7307 51.3051 9.78793 54.0753 10.141 56.8155V56.4896C10.4048 58.5922 10.3815 58.3051 10.6609 59.9499C10.6609 59.8335 10.7617 60.2215 10.8936 60.7258C11.0255 61.2301 11.2117 61.8197 11.3126 62.1456C11.7764 63.79 12.3678 65.3957 13.0815 66.9481L13.0272 66.9015C13.7341 68.4453 14.5374 69.943 15.4323 71.386C17.0237 73.9907 18.9631 76.366 21.1969 78.4462C21.6624 78.935 22.159 79.4005 22.6477 79.8738L22.8883 80.06C23.2884 80.206 23.7114 80.2796 24.1374 80.2772C24.5718 80.1919 24.5874 79.8039 23.1443 78.4152H23.2141L22.6167 77.8953C22.2786 77.6117 21.9598 77.3059 21.6624 76.9798L22.6012 77.8721C21.9107 77.2126 22.4072 77.6548 22.6865 77.8721L21.9107 77.0962C21.771 76.9798 22.0038 77.1971 22.1046 77.3057C21.6363 76.9069 21.1883 76.4849 20.7624 76.0411C20.103 75.3195 20.7624 75.9557 19.9866 75.1178C16.0345 70.6327 13.3368 65.1836 12.166 59.3215C12.166 59.1818 12.166 59.3215 12.2203 59.5154C11.8632 57.848 11.6222 56.1577 11.4988 54.4569C11.4861 54.2166 11.4861 53.9757 11.4988 53.7354C11.4988 53.7974 11.4522 53.2621 11.4212 52.4087C11.4212 51.9897 11.4212 51.4854 11.4212 50.9423C11.4212 50.663 11.4212 50.3837 11.4212 50.0966L11.4833 49.2199C11.5298 48.638 11.5531 48.0406 11.6229 47.4898C11.6927 46.9389 11.7626 46.4113 11.8169 45.9381C11.9643 45.0614 12.1195 44.4562 12.1195 44.4174Z" fill="black"/>
<path opacity="0.89" d="M131.652 131.653C156.312 106.993 156.312 67.0104 131.652 42.3502C106.992 17.6899 67.0098 17.6899 42.3495 42.3502C17.6893 67.0104 17.6893 106.993 42.3495 131.653C67.0098 156.313 106.992 156.313 131.652 131.653Z" fill="#C1FCE9"/>
<path d="M132.23 131.819C157.211 106.838 157.211 66.3351 132.23 41.3537C107.248 16.3723 66.7455 16.3723 41.7641 41.3537C16.7827 66.3351 16.7827 106.838 41.7641 131.819C66.7455 156.801 107.248 156.801 132.23 131.819Z" fill="#7DD6C7"/>
<path d="M34.0743 72.1777C34.8784 73.6801 35.851 75.086 36.9734 76.3682C37.5401 77.0067 38.2362 77.5171 39.0155 77.8656C39.7949 78.2141 40.6395 78.3925 41.4931 78.3892C43.1977 78.2794 44.8506 76.8976 44.8636 75.1608C44.8636 73.6628 43.7336 72.4425 42.9846 71.1447C42.2357 69.8468 42.0549 67.8388 43.385 67.1544C43.8305 66.9219 44.3535 66.9026 44.7925 66.6701C46.3938 65.8178 45.5996 63.3578 46.2001 61.6403C46.8006 59.9228 48.7828 59.1673 50.5197 59.2319C52.2566 59.2965 53.9482 60.0067 55.6851 60.4458C56.0673 60.5812 56.4845 60.5812 56.8667 60.4458C57.1387 60.296 57.3626 60.0721 57.5124 59.8001C59.4494 56.6879 58.1581 51.9874 60.8699 49.5403C61.5672 48.8946 62.5293 48.4491 62.8069 47.5581C63.1879 46.441 62.3679 45.324 61.974 44.2135C60.7601 40.772 63.7109 36.6138 61.8384 33.4823C60.7408 31.6421 58.2807 30.9835 56.1887 31.4161C54.0967 31.8487 52.3147 33.1659 50.6424 34.5283C42.4628 41.2855 36.3888 50.2431 33.1381 60.3425C32.842 61.4746 32.3923 62.5608 31.8015 63.5709C31.4077 64.1778 29.9032 65.1721 29.8257 65.8243C29.6772 67.1415 33.2866 70.9251 34.0743 72.1777Z" fill="#1C976E"/>
<path d="M71.381 34.9609C71.5683 35.6776 71.904 36.4718 72.6143 36.6913C73.7119 37.0335 74.5513 35.8132 75.5134 35.1288C76.8564 34.1344 78.7418 34.2507 80.3366 34.722C81.9314 35.1933 83.4746 35.9617 85.1404 36.1619C86.9788 36.3694 88.8269 35.8658 90.3058 34.7543C90.8846 34.348 91.3707 33.8238 91.7324 33.2162C92.0941 32.6086 92.3231 31.9313 92.4043 31.2289C92.514 29.3952 91.2291 27.6906 89.6085 26.8254C87.9474 26.0528 86.1247 25.6918 84.2946 25.7729C80.7814 25.7478 77.2849 26.2572 73.925 27.2838C72.2527 27.7939 71.5489 27.852 71.1809 29.5372C70.8335 31.3367 70.902 33.1919 71.381 34.9609Z" fill="#1C976E"/>
<path d="M33.2857 79.4093C34.2478 81.4819 35.5133 83.5739 37.5472 84.6135C38.5674 85.1365 39.8587 85.4851 40.272 86.5505C40.4009 86.968 40.4491 87.4063 40.414 87.8419C40.414 89.0557 40.414 90.2696 40.3624 91.4899C40.3011 92.0517 40.4043 92.6192 40.6594 93.1235C41.0608 93.5854 41.5447 93.9686 42.0863 94.2534C42.6249 94.698 43.06 95.2547 43.3611 95.8848C43.6622 96.5149 43.8221 97.2032 43.8296 97.9015C43.8353 99.2968 43.6329 100.685 43.2292 102.021C42.4544 105.14 41.5052 108.523 38.8902 110.415C36.5335 112.106 33.2147 112.1 30.6191 110.796C28.0481 109.39 26.0614 107.115 25.0146 104.378C23.9908 101.656 23.4321 98.7812 23.3617 95.8741C23.0103 89.4179 23.7458 82.9487 25.5376 76.7362C26.0413 75.0058 26.0735 71.0543 28.3463 72.1067C31.0194 73.3335 32.1494 76.988 33.2857 79.4093Z" fill="#1C976E"/>
<path d="M80.4201 83.1091C79.5289 83.278 78.6126 83.2626 77.7276 83.0639C74.3378 82.5603 70.7801 82.231 67.5647 83.4126C61.5405 85.6143 58.4348 93.6465 61.5728 99.2381C64.1942 103.919 69.8827 106.089 72.9625 110.473C76.4879 115.483 75.952 122.327 78.6122 127.842C79.4263 129.753 80.8496 131.342 82.6606 132.361C84.5072 133.278 86.935 133.188 88.433 131.774C89.5823 130.676 89.9955 129.036 90.4539 127.512C91.5541 123.816 93.176 120.296 95.2707 117.059C97.1238 114.198 99.4417 111.125 98.8542 107.774C98.3376 104.875 95.7226 102.667 95.29 99.7546C94.9737 97.6304 95.8776 95.4351 95.3933 93.3431C94.4894 89.3851 89.466 88.0421 87.0512 84.7685C86.8017 84.4682 86.6428 84.1032 86.5928 83.716C86.621 83.1995 86.8236 82.7078 87.1674 82.3214C89.1819 79.4481 91.345 76.4457 94.5217 74.9477C95.6064 74.4376 97.1044 74.2246 97.8146 75.206C98.0777 75.7147 98.2503 76.2653 98.3247 76.8331C98.6152 77.7552 99.2399 78.5354 100.076 79.0205C100.912 79.5055 101.9 79.6603 102.844 79.4546C103.237 80.1488 103.843 80.6975 104.572 81.0187C105.302 81.3399 106.116 81.4163 106.893 81.2366C107.342 81.043 107.834 80.9717 108.32 81.03C108.566 81.1319 108.786 81.2873 108.965 81.485C109.144 81.6826 109.276 81.9176 109.353 82.1729C110.154 84.0582 110.166 86.1825 110.644 88.1777C111.122 90.1728 112.336 92.2454 114.344 92.6974C116.591 93.1946 118.76 91.406 119.748 89.2947C120.736 87.1833 120.956 84.8589 121.743 82.7023C121.824 82.3719 121.97 82.061 122.173 81.7881C122.376 81.5153 122.632 81.286 122.925 81.1139C123.559 80.9438 124.228 80.9438 124.862 81.1139C126.306 81.2028 127.753 81.0008 129.117 80.5199C134.625 78.9057 140.584 75.6386 141.598 69.9825C142.373 65.6887 140.016 61.5499 138.725 57.3853C137.827 54.5056 137.433 51.458 136.142 48.7397C134.689 45.705 132.223 43.2902 129.808 40.9464C128.052 39.2483 126.147 37.4662 123.739 37.0336C119.051 36.2007 115.061 40.7527 110.334 41.3338C109.308 41.4629 108.204 41.4113 107.319 41.9472C106.712 42.3217 106.279 42.9415 105.685 43.3419C103.303 44.9302 100.365 42.3475 97.5305 41.9536C95.9034 41.7212 94.3022 42.2442 92.7138 42.7672C90.3312 43.5549 87.8777 44.3878 85.9794 46.0343C84.0811 47.6808 82.8478 50.3474 83.6485 52.7623C83.7101 53.0028 83.8298 53.2245 83.9971 53.408C84.7526 54.1505 85.9342 53.182 86.6251 52.3813C88.1633 50.6997 90.1776 49.5269 92.3994 49.0193C94.6212 48.5118 96.9449 48.6935 99.0608 49.5403C99.5709 51.7679 97.1238 53.5565 94.851 54.0149C92.5782 54.4733 90.0859 54.3894 88.349 55.8809C86.9802 57.0496 86.4572 58.9608 86.4701 60.7558C86.485 63.0617 87.2436 65.3012 88.6331 67.1415C88.9968 67.531 89.2779 67.99 89.4596 68.491C90.1053 71.1834 86.6444 70.8219 85.2239 70.6927C83.4742 70.5378 83.2094 71.2351 83.1836 72.9784C83.1319 76.0906 84.7397 81.9533 80.4201 83.1091Z" fill="#1C976E"/>
<path d="M101.391 111.112L99.454 113.695C99.0501 114.212 98.6915 114.763 98.3821 115.341C97.8484 116.548 97.6264 117.869 97.7365 119.183C97.7336 119.904 97.8971 120.615 98.2142 121.262C98.3768 121.582 98.6202 121.854 98.9203 122.051C99.2205 122.249 99.5669 122.364 99.9253 122.386C100.266 122.357 100.597 122.257 100.897 122.091C101.196 121.925 101.457 121.698 101.662 121.424C102.272 120.64 102.759 119.77 103.108 118.841L104.891 114.76C105.181 114.176 105.379 113.551 105.478 112.907C105.782 109.872 103.225 108.639 101.391 111.112Z" fill="#1C976E"/>
<path d="M130.35 100.271C127.2 102.226 124.639 104.997 122.937 108.29C121.988 110.144 121.317 112.358 122.124 114.282C122.86 116.058 124.668 117.136 126.437 117.905C128.206 118.673 129.982 119.196 131.815 118.938C134.76 118.486 136.91 115.974 138.576 113.501C141.578 109.052 144.342 103.771 145.032 98.3793C145.633 93.9047 140.887 94.8926 138.111 96.1194C135.435 97.3298 132.842 98.7168 130.35 100.271Z" fill="#1C976E"/>
<g style="mix-blend-mode:multiply" opacity="0.29">
<path d="M137.768 47.6992C138.198 50.7008 138.416 53.729 138.42 56.7612C138.421 70.1307 134.232 83.1643 126.442 94.0301C118.653 104.896 107.654 113.048 94.9923 117.34C82.3305 121.632 68.642 121.848 55.8508 117.958C43.0596 114.069 31.8088 106.269 23.6797 95.6546C25.0641 105.335 28.6496 114.569 34.1607 122.647C39.6719 130.725 46.9618 137.431 55.4702 142.251C63.9786 147.071 73.4789 149.876 83.2408 150.45C93.0027 151.025 102.766 149.353 111.781 145.564C120.796 141.774 128.822 135.969 135.242 128.593C141.662 121.216 146.306 112.466 148.815 103.015C151.325 93.564 151.634 83.6631 149.719 74.0737C147.804 64.4842 143.716 55.4616 137.768 47.6992Z" fill="#3EA797"/>
</g>
<path d="M59.2675 55.3103C59.2054 55.3724 59.2132 55.481 59.2132 55.5818C59.2407 55.5429 59.2598 55.4986 59.2691 55.4518C59.2785 55.4051 59.2779 55.3568 59.2675 55.3103Z" fill="black"/>
<path d="M67.8096 54.1233V54.1931C67.8133 54.17 67.8133 54.1464 67.8096 54.1233Z" fill="black"/>
<path d="M60.8655 60.2836L60.9664 60.2215C61.1293 60.431 60.9121 60.369 61.0905 60.5319C61.269 60.5319 61.3543 60.85 61.4707 60.85C61.4707 60.85 61.5483 60.9431 61.4707 60.9741C61.5638 60.9741 61.5793 61.0439 61.6491 61.0827C61.7189 61.1215 61.6491 61.0827 61.6491 61.0129L61.7965 61.106C61.7965 61.1758 61.7965 61.2224 61.75 61.1836C62.1223 61.5544 62.5393 61.8776 62.9913 62.1456C63.4715 62.4335 63.9957 62.6406 64.543 62.7586C64.4887 62.6732 64.3258 62.6732 64.2948 62.5646C64.4422 62.5646 64.481 62.6344 64.5586 62.5646C64.5586 62.7275 64.8379 62.6655 64.9155 62.8362L64.9698 62.7586L65.0318 62.8206C65.3732 62.8206 65.4275 62.8206 65.4585 62.8206C65.5922 62.8422 65.7284 62.8422 65.862 62.8206C65.9735 62.8136 66.0833 62.79 66.1878 62.7508C66.3596 62.6778 66.5358 62.6156 66.7154 62.5646C66.7154 62.5646 66.5758 62.5646 66.6766 62.5025C66.7232 62.5646 66.9249 62.3551 66.9947 62.4017C67.0646 62.4482 67.3594 62.2232 67.212 62.1767C67.2896 62.1767 67.5223 62.0836 67.4137 62.1767C67.4858 62.1448 67.5515 62.1001 67.6077 62.0448H67.499C67.7318 61.8741 67.8947 61.8431 67.9645 61.6646H67.8637C67.9801 61.5638 68.0654 61.4707 68.1818 61.5172L68.0809 61.6413C68.238 61.5177 68.3697 61.3649 68.4688 61.1914L68.4145 61.2379C68.4688 61.1138 68.7094 60.8034 68.9033 60.4621C69.0617 60.2255 69.1773 59.9628 69.2447 59.6862L69.1283 59.7328V59.5388C69.1283 59.5388 69.3068 59.7483 69.268 59.7483C69.5174 59.3239 69.7203 58.8739 69.8731 58.4061C69.9197 58.2586 69.9662 58.1035 70.005 57.9561L70.0671 57.5759C70.1136 57.3431 70.1524 57.1647 70.1757 57.0793C70.199 56.994 70.3076 57.0793 70.3231 57.0793C70.3231 56.9009 70.2533 56.9863 70.3231 56.8466C70.393 56.7069 70.3852 56.8466 70.3852 56.8931C70.3852 56.9397 70.3852 56.769 70.3852 56.7613C70.3852 56.7535 70.2455 56.7613 70.1757 56.8078V56.6216H70.2378C70.2378 56.5828 70.0904 56.4897 70.1524 56.319C70.23 56.0164 70.23 55.7371 70.2843 55.4501C70.2843 55.4501 70.3386 55.5199 70.3542 55.582C70.3697 55.644 70.3542 55.4889 70.3542 55.4578C70.3542 55.4268 70.3542 55.3337 70.2921 55.388C70.1602 55.163 70.2921 54.9147 70.2921 54.7285C70.1524 54.6897 67.9645 54.0535 67.8016 54.0303C67.8049 53.9865 67.8181 53.944 67.8404 53.9061C67.8016 53.9061 67.7628 54.0225 67.7783 54.0846H67.8714C67.8714 54.2165 67.8094 54.0846 67.8016 54.2397C67.7318 54.2397 67.7318 54.1156 67.7318 54.007C67.7318 54.1001 67.6542 54.1932 67.7318 54.2397C67.8094 54.2863 67.6464 54.2397 67.5999 54.3251C67.5533 54.4104 67.6697 54.5113 67.5999 54.5966C67.499 54.8061 67.6697 54.938 67.5999 55.132C67.5533 55.2018 67.5999 55.3414 67.5301 55.4656C67.5301 55.4268 67.6077 55.4035 67.6077 55.4656C67.6077 55.5277 67.6076 55.7061 67.5068 55.7992L67.5611 55.9001C67.5145 56.1095 67.4447 56.6759 67.3904 57.1802C67.318 57.5421 67.1953 57.892 67.0258 58.2198C66.8483 58.5644 66.6209 58.8807 66.3508 59.1586C66.0249 59.5078 65.7922 59.6397 65.7689 59.6862C65.7689 59.6862 65.7689 59.6862 65.7068 59.6862C65.6447 59.6862 65.7068 59.7638 65.7068 59.7638C65.5206 59.7638 65.7068 59.8181 65.4741 59.8103C65.1574 59.7903 64.8508 59.6916 64.5818 59.5233C64.2918 59.3687 64.0296 59.1668 63.806 58.9259C63.612 58.9259 63.5189 58.6854 63.3637 58.6078C63.1982 58.4472 63.0594 58.2613 62.9525 58.0569C62.7896 57.7931 62.6577 57.5061 62.5957 57.4207C62.456 57.2733 62.5957 57.25 62.5413 57.1026C62.4482 57.1647 62.3164 57.0406 62.2853 56.9785C62.2002 56.8744 62.1249 56.7628 62.0603 56.6449H62.1224C62.029 56.5078 61.9679 56.3513 61.9439 56.1871C61.9483 55.8851 61.9064 55.5842 61.8198 55.2949L61.975 55.0777C61.975 55.0777 61.4241 55.0777 60.8267 55.0777C60.2293 55.0777 59.5698 55.2018 59.3681 55.4811H59.306V55.582C59.306 55.7061 59.3759 55.7526 59.306 55.7526V55.5897C59.306 55.7139 59.2595 55.5897 59.2207 55.5897C59.2288 55.6385 59.2288 55.6883 59.2207 55.7371C59.2207 55.7371 59.2207 55.7371 59.2207 55.6906C59.2207 55.644 59.3216 55.838 59.306 55.9233C59.2905 56.0087 59.2052 55.9233 59.2285 56.094C59.2941 56.8956 59.4879 57.6814 59.8026 58.4216C59.8026 58.4216 59.8026 58.4216 59.756 58.4216C59.8802 58.6388 59.9733 58.8483 60.1052 59.05C60.1206 59.0926 60.1206 59.1393 60.1052 59.1819C60.0897 59.1276 60.8345 60.2681 60.8655 60.2836Z" fill="black"/>
<path d="M103.592 54.3173C103.541 54.3983 103.522 54.4947 103.537 54.5888C103.565 54.5501 103.585 54.5058 103.594 54.4589C103.603 54.4121 103.603 54.3638 103.592 54.3173Z" fill="black"/>
<path d="M112.134 53.1458V53.2233C112.138 53.1976 112.138 53.1715 112.134 53.1458Z" fill="black"/>
<path d="M105.198 59.306L105.299 59.2517C105.462 59.4534 105.245 59.3913 105.423 59.562C105.602 59.562 105.679 59.8724 105.803 59.8724C105.803 59.8724 105.873 59.9655 105.803 59.9965C105.889 59.9965 105.904 60.0741 105.974 60.1051C106.044 60.1362 105.974 60.1051 105.974 60.0431L106.121 60.1362C106.121 60.1982 106.121 60.2525 106.067 60.206C106.439 60.5807 106.859 60.9043 107.316 61.168C107.794 61.4598 108.319 61.6671 108.868 61.781C108.821 61.7034 108.651 61.7034 108.62 61.587C108.767 61.587 108.814 61.6568 108.883 61.587C108.883 61.7499 109.17 61.6801 109.248 61.8585L109.302 61.781L109.364 61.843C109.504 61.8509 109.644 61.8509 109.783 61.843C109.783 61.843 109.783 61.843 110.187 61.843C110.3 61.8372 110.412 61.8164 110.52 61.781C110.69 61.7031 110.867 61.6408 111.048 61.5948C111.009 61.5948 110.908 61.5948 111.001 61.5249C111.056 61.5948 111.25 61.3775 111.32 61.4318C111.389 61.4861 111.684 61.2456 111.545 61.2068C111.614 61.2068 111.847 61.1137 111.738 61.2068C111.812 61.1777 111.878 61.1327 111.932 61.0749H111.824C112.057 60.9043 112.22 60.881 112.289 60.7025H112.196C112.313 60.6017 112.398 60.5163 112.507 60.5551L112.413 60.6793C112.57 60.5548 112.701 60.4022 112.801 60.2293L112.747 60.2836C112.801 60.1594 113.034 59.8413 113.228 59.5077C113.388 59.2708 113.506 59.0084 113.577 58.7319L113.453 58.7784L113.492 58.5845C113.492 58.5845 113.67 58.7939 113.639 58.8017C113.882 58.3751 114.082 57.9255 114.237 57.4595C114.283 57.3043 114.33 57.1569 114.369 57.0095L114.438 56.6293C114.461 56.4612 114.498 56.2951 114.547 56.1328C114.617 56.0009 114.679 56.1328 114.687 56.1328C114.687 55.9621 114.617 56.0474 114.648 55.9078C114.679 55.7681 114.71 55.9078 114.718 55.9078C114.726 55.9078 114.757 55.7914 114.718 55.7759C114.679 55.7604 114.586 55.7759 114.516 55.8224V55.644H114.578C114.578 55.6052 114.423 55.5199 114.485 55.3414C114.546 55.0572 114.59 54.7697 114.617 54.4802C114.617 54.4802 114.671 54.55 114.687 54.6121C114.702 54.6742 114.687 54.5113 114.726 54.4802C114.764 54.4492 114.726 54.3638 114.656 54.4104C114.532 54.1854 114.702 53.9449 114.656 53.7509C114.524 53.7509 112.328 53.0759 112.173 53.0604C112.165 53.0195 112.165 52.9772 112.173 52.9363C112.173 52.9363 112.103 53.0527 112.119 53.107H112.204C112.204 53.2466 112.15 53.107 112.134 53.2621C112.064 53.2621 112.064 53.138 112.072 53.0371C112.072 53.1302 111.987 53.2156 112.072 53.2621C112.157 53.3087 111.987 53.2621 111.948 53.3475C111.909 53.4328 112.018 53.5414 111.948 53.619C111.847 53.8207 112.018 53.9604 111.948 54.1466C111.894 54.2087 111.948 54.3561 111.878 54.4725C111.878 54.4725 111.948 54.4104 111.948 54.4725C111.948 54.5345 111.948 54.7207 111.855 54.8138L111.909 54.9069C111.863 55.1242 111.793 55.6828 111.731 56.1871C111.659 56.5492 111.536 56.8993 111.366 57.2267C111.187 57.5701 110.959 57.8862 110.691 58.1655C110.509 58.3516 110.315 58.5253 110.109 58.6853C110.109 58.6853 110.109 58.6853 110.039 58.6853C109.97 58.6853 110.039 58.7629 110.039 58.7551C109.861 58.7551 110.039 58.8095 109.807 58.8095C109.493 58.7851 109.19 58.6867 108.922 58.5224C108.628 58.3708 108.365 58.1656 108.146 57.9172C107.952 57.9172 107.859 57.6845 107.696 57.6069C107.537 57.4437 107.399 57.2613 107.285 57.0638C107.122 56.8 106.998 56.5129 106.936 56.4198C106.796 56.2802 106.936 56.2492 106.882 56.1017C106.781 56.1638 106.657 56.0397 106.626 55.9776C106.516 55.8506 106.42 55.7128 106.339 55.5664H106.401C106.31 55.4248 106.25 55.2665 106.222 55.1009C106.225 54.8021 106.186 54.5043 106.106 54.2164L106.253 53.9914C106.253 53.9914 105.702 53.9914 105.097 53.9914C104.492 53.9914 103.84 54.1156 103.646 54.4026H103.584V54.5035C103.584 54.6276 103.654 54.6664 103.584 54.6742V54.5035C103.584 54.6276 103.538 54.55 103.491 54.5035C103.496 54.5525 103.496 54.6019 103.491 54.6509C103.491 54.6509 103.491 54.6509 103.491 54.6121C103.491 54.5733 103.592 54.7518 103.584 54.8371C103.577 54.9225 103.483 54.8371 103.499 55.0078C103.571 55.8083 103.765 56.5931 104.073 57.3353C104.073 57.3353 104.073 57.3353 104.034 57.3353C104.138 57.5516 104.255 57.7614 104.383 57.9638C104.397 58.0067 104.397 58.0528 104.383 58.0957C104.414 58.15 105.159 59.2982 105.198 59.306Z" fill="black"/>
<path d="M73.6982 64.5585C73.7692 64.6844 73.8673 64.7931 73.9853 64.8766C73.9253 64.7431 73.8249 64.6318 73.6982 64.5585Z" fill="black"/>
<path d="M99.9614 61.8042L99.8916 61.8895C99.9193 61.8651 99.9429 61.8362 99.9614 61.8042Z" fill="black"/>
<path d="M80.5492 68.8102L80.619 68.7171C80.9604 68.8567 80.6655 68.8722 80.9992 68.9809C81.1854 68.8878 81.5267 69.2059 81.6664 69.1748C81.6664 69.1748 81.8216 69.2524 81.7905 69.2912C81.7595 69.33 81.9612 69.2912 82.0698 69.3533C82.1784 69.4153 82.0698 69.3533 82.031 69.2834L82.2715 69.3378C82.3491 69.3998 82.3569 69.4541 82.2715 69.4231C82.9591 69.723 83.6638 69.982 84.3819 70.1989C85.14 70.4261 85.9203 70.5718 86.7094 70.6334C86.6241 70.5558 86.3835 70.5791 86.3137 70.4627C86.5154 70.4239 86.6008 70.517 86.6939 70.4627C86.7482 70.6334 87.1129 70.5403 87.2525 70.7032L87.3146 70.6257L87.4077 70.68C87.7269 70.6374 88.0505 70.6374 88.3697 70.68C88.812 70.68 89.0137 70.5248 89.2542 70.5481C89.2542 70.5481 89.1223 70.5481 89.2542 70.4783C89.3861 70.4084 89.549 70.3929 89.6111 70.4783C89.6732 70.5636 90.0766 70.4239 89.9447 70.3308C90.0068 70.3774 90.3249 70.3308 90.1464 70.4317C90.2413 70.4302 90.3355 70.4145 90.4257 70.3851H90.2861C90.643 70.3153 90.8525 70.3851 91.0619 70.2222H90.93C91.1395 70.1757 91.3102 70.1369 91.4111 70.2222L91.2016 70.292C91.4903 70.2453 91.7719 70.1618 92.0395 70.0438H91.9309C92.1093 69.9429 92.6602 69.7567 93.1955 69.524C93.6085 69.3593 94.0015 69.1485 94.367 68.8955H94.1964L94.4369 68.7248C94.4369 68.7248 94.4369 69.0197 94.3748 69.0041C94.6696 68.8878 95.5386 68.4688 96.361 68.0111C97.1834 67.5533 97.9825 67.0645 98.2308 66.9249C98.479 66.7852 98.3394 67.0102 98.3394 67.0257C98.5566 66.8473 98.3937 66.8861 98.5954 66.7619C98.6575 66.7619 98.5954 66.824 98.5954 66.855C98.5954 66.8861 98.7739 66.7542 98.7584 66.7231C98.7428 66.6921 98.6265 66.6533 98.5411 66.63L98.8049 66.4671V66.5292C98.8592 66.4904 98.8437 66.2887 99.1075 66.1413C99.5446 65.8561 99.9643 65.5453 100.364 65.2102C100.364 65.2102 100.318 65.3266 100.248 65.412C100.306 65.3584 100.371 65.3139 100.442 65.2801C100.302 65.2801 100.582 65.1094 100.489 65.1482C100.675 64.7913 101.132 64.574 101.264 64.2637C101.264 64.2016 100.946 63.643 100.628 63.1077C100.413 62.7256 100.177 62.3552 99.9221 61.9982C99.9621 61.945 100.012 61.9001 100.07 61.8663C100.023 61.8663 99.8989 61.9672 99.8523 62.0448L99.9066 62.1146C99.7825 62.293 99.8368 62.1146 99.6971 62.262C99.6351 62.2232 99.7592 62.0758 99.8601 61.9594C99.7592 62.0603 99.6195 62.1224 99.6273 62.2232C99.5109 62.293 99.573 62.1456 99.4333 62.2232C99.3758 62.3512 99.2846 62.4611 99.1696 62.5413C98.8747 62.712 98.8592 62.968 98.5644 63.1077C98.448 63.1077 98.3161 63.3249 98.1299 63.418C98.1842 63.418 98.2541 63.418 98.1687 63.4801C98.0154 63.5894 97.8547 63.6879 97.6877 63.7749L97.5946 63.9301C97.261 64.1628 96.4386 64.7059 95.5619 65.2723C94.8712 65.6991 94.1562 66.0851 93.4205 66.4283C92.6717 66.7736 91.8925 67.0489 91.093 67.2507C90.2918 67.4548 89.478 67.6052 88.6568 67.7007C88.4416 67.6634 88.2235 67.6452 88.0051 67.6464C88.1137 67.6464 88.0749 67.724 88.0051 67.7162C87.3999 67.7162 87.9663 67.7705 87.3456 67.7783C86.6606 67.7207 85.9855 67.5773 85.3362 67.3516C84.6636 67.169 84.005 66.9382 83.3655 66.6611C82.9843 66.572 82.6086 66.4606 82.2405 66.3275C81.8603 66.2421 79.913 65.2645 79.5406 65.0783H79.5871C79.2147 64.962 79.3078 64.8766 79.0595 64.7059C79.0595 64.8301 78.7182 64.7059 78.6018 64.7059C78.3033 64.606 78.0106 64.4894 77.7251 64.3568V64.3103C77.4339 64.1854 77.1559 64.0321 76.8949 63.8525C76.5106 63.4902 76.1009 63.1557 75.6691 62.8517L75.4751 62.4792H75.4208C75.1193 62.7185 74.8341 62.9777 74.5674 63.2551C74.1562 63.6973 73.7915 64.2482 73.9777 64.6827L73.9312 64.7215L74.0708 64.8146C74.2105 64.9542 74.3268 64.9465 74.2803 64.993L74.0631 64.8301C74.2105 64.962 74.0631 64.9077 74.001 64.8921C74.0607 64.9379 74.1153 64.9899 74.1639 65.0473C74.2105 65.0473 74.1639 65.0473 74.1639 64.9852C74.2813 65.0242 74.3878 65.0907 74.4743 65.1792C74.6372 65.3033 74.4277 65.2723 74.6139 65.412C75.5924 66.1737 76.6301 66.856 77.7173 67.4524C77.7173 67.4524 77.7173 67.4524 77.663 67.4524C78.0121 67.6076 78.307 67.7783 78.6328 67.9024C78.6798 67.9428 78.7124 67.9972 78.7259 68.0576C79.0246 68.1534 79.3151 68.2727 79.5949 68.4145L80.5492 68.8102Z" fill="black"/>
<path opacity="0.09" d="M69.8754 58.1168C77.8667 50.7091 80.3705 40.4166 75.468 35.1279C70.5654 29.8392 60.1129 31.557 52.1217 38.9647C44.1305 46.3724 41.6266 56.6649 46.5292 61.9536C51.4318 67.2424 61.8842 65.5246 69.8754 58.1168Z" fill="#F3F3F3"/>
<path d="M115.347 71.6265C119.229 71.6265 122.376 69.7889 122.376 67.5222C122.376 65.2555 119.229 63.418 115.347 63.418C111.464 63.418 108.317 65.2555 108.317 67.5222C108.317 69.7889 111.464 71.6265 115.347 71.6265Z" fill="#EF8A99"/>
<path d="M64.0627 67.9335C64.2179 70.1989 61.1921 72.1075 57.3206 72.1929C53.4491 72.2782 50.1672 70.517 50.0198 68.2826C49.8724 66.0481 52.8905 64.1085 56.7697 64.0232C60.649 63.9378 63.9153 65.668 64.0627 67.9335Z" fill="#EF8A99"/>
</g>
<defs>
<clipPath id="clip0_220_4646">
<rect width="174" height="174" fill="white"/>
</clipPath>
</defs>
</svg>
