<svg width="179" height="208" viewBox="0 0 179 208" fill="none" xmlns="http://www.w3.org/2000/svg">
<g clip-path="url(#clip0_583_3834)">
<g clip-path="url(#clip1_583_3834)">
<path d="M29.9231 43.8484C30.6436 44.685 30.5494 45.9473 29.7128 46.6678C28.8761 47.3883 27.6138 47.2941 26.8934 46.4574C26.1729 45.6208 26.2671 44.3585 27.1037 43.638C27.9404 42.9176 29.2028 43.0119 29.9231 43.8484ZM49.5623 52.4548C48.824 53.0905 48.7409 54.2043 49.3767 54.9425C50.0124 55.6808 51.1262 55.7639 51.8644 55.1281C52.6027 54.4924 52.6858 53.3786 52.05 52.6404C51.4144 51.9022 50.3005 51.819 49.5623 52.4548ZM14.3118 70.8526C13.5735 71.4883 13.4904 72.6021 14.1262 73.3404C14.7619 74.0786 15.8757 74.1617 16.6139 73.526C17.3522 72.8902 17.4353 71.7764 16.7996 71.0382C16.1638 70.3 15.05 70.2169 14.3118 70.8526Z" fill="#FFB636"/>
<path d="M29.6783 70.9641C30.5106 71.9306 30.4018 73.3889 29.4353 74.2212C28.4688 75.0535 27.0105 74.9447 26.1782 73.9782C25.3459 73.0117 25.4548 71.5534 26.4212 70.7211C27.3877 69.8886 28.8459 69.9975 29.6783 70.9641ZM34.9188 21.8556C33.7155 21.7509 32.4384 22.082 31.3225 22.7882C30.6712 23.1999 30.4758 24.0643 30.8887 24.7169C31.3016 25.3693 32.165 25.5636 32.8174 25.1507C33.4104 24.7754 34.088 24.5896 34.6764 24.6407C34.94 24.6637 35.4176 24.758 35.6541 25.1317C35.8906 25.5053 35.7713 25.9773 35.6791 26.2254C35.4735 26.7792 35.0154 27.3115 34.4224 27.6871C31.9987 29.2213 31.0562 32.0978 32.3228 34.0999C33.5894 36.1017 36.5924 36.4824 39.0169 34.9484C39.0295 34.9404 39.0402 34.9304 39.0525 34.922C40.2398 34.1903 41.4755 34.3319 41.851 34.9254C42.0874 35.2989 41.9682 35.771 41.8761 36.0191C41.6703 36.5728 41.2126 37.1056 40.6193 37.4808C38.1956 39.0147 37.2532 41.8915 38.5197 43.8936C39.7864 45.8955 42.7893 46.2761 45.2138 44.7421C45.2728 44.7046 45.3283 44.6635 45.3799 44.6191C45.8963 44.1744 46.0229 43.4067 45.6476 42.8134C45.2348 42.1611 44.3714 41.9669 43.7189 42.3797C42.52 43.1383 41.2616 42.9985 40.8823 42.3988C40.5027 41.7989 40.9143 40.6014 42.1141 39.8433C42.3812 39.6743 42.6329 39.4876 42.8671 39.286C43.6108 38.6456 44.177 37.8538 44.4968 36.9926C44.96 35.7454 44.8568 34.4471 44.2135 33.4304C42.9468 31.4286 39.9439 31.0479 37.5194 32.5819C37.5035 32.5921 37.4891 32.6035 37.4736 32.6142C36.2894 33.3389 35.0596 33.1968 34.6852 32.6052C34.3057 32.0052 34.7176 30.8078 35.9171 30.0497C36.1842 29.8806 36.4359 29.694 36.6701 29.4924C37.4139 28.8519 37.9799 28.0601 38.2997 27.1989C38.763 25.9517 38.6597 24.6535 38.0164 23.6368C37.3731 22.6202 36.2441 21.971 34.9188 21.8556Z" fill="#BEA4FF"/>
<path d="M40.5118 53.6667C41.3441 54.6332 41.2353 56.0914 40.2688 56.9237C39.3023 57.756 37.844 57.6472 37.0117 56.6807C36.1795 55.7142 36.2883 54.2559 37.2547 53.4236C38.2211 52.5913 39.6794 52.7001 40.5118 53.6667ZM7.06874 51.5122C5.81884 51.4363 4.50593 51.813 3.37193 52.573C3.35606 52.5836 3.34181 52.5957 3.32651 52.6068C2.29169 53.2755 1.15844 53.2267 0.822973 52.7261C0.330373 51.9909 -0.664978 51.7943 -1.40002 52.2868C-2.13397 52.7795 -2.33176 53.7748 -1.83926 54.5098C-0.434369 56.6063 2.63926 56.9267 5.15824 55.239C5.1723 55.2295 5.18446 55.2185 5.19804 55.2087C5.73464 54.8605 6.34261 54.6786 6.8745 54.7109C7.10081 54.7246 7.51011 54.7917 7.7074 55.0859C7.9045 55.38 7.81072 55.784 7.73734 55.9986C7.56034 56.516 7.14565 57.0228 6.5988 57.389C5.4643 58.1488 4.6169 59.2198 4.21182 60.4046C3.76046 61.7243 3.9063 63.0851 4.61164 64.1379C6.01651 66.2347 9.09005 66.5549 11.6091 64.8673C11.664 64.8307 11.7158 64.7911 11.7645 64.7491C12.3698 64.2279 12.5043 63.3246 12.0484 62.6444C11.556 61.9092 10.5606 61.7126 9.82556 62.2051C8.77815 62.9069 7.61442 62.8627 7.27385 62.3544C7.07677 62.0601 7.17044 61.6561 7.24393 61.4415C7.42083 60.9242 7.83573 60.4172 8.38236 60.0512C8.60536 59.9019 8.81701 59.7406 9.0166 59.5687C9.83259 58.866 10.444 57.9876 10.7693 57.0355C11.2208 55.7158 11.0749 54.3551 10.3695 53.3023C9.664 52.2492 8.46096 51.5967 7.06874 51.5122ZM64.4348 45.2889C64.6789 44.4384 64.1872 43.5511 63.3365 43.307C53.9244 40.6064 53.2779 33.5463 52.8915 29.3283C52.8446 28.8153 52.8001 28.3307 52.7429 27.9111C52.6233 27.0343 51.8158 26.4203 50.9389 26.5399C50.062 26.6596 49.4482 27.4672 49.5677 28.344C49.6154 28.6936 49.6547 29.1232 49.7003 29.6207C50.1006 33.99 50.9334 43.0821 62.4526 46.3874C62.7084 46.4609 62.9785 46.4695 63.2384 46.4124C63.4983 46.3554 63.7399 46.2344 63.9413 46.0605C64.1777 45.8571 64.3493 45.5888 64.4348 45.2889Z" fill="#FF6E83"/>
<path d="M20.9955 42.7452C21.5721 43.4148 21.4968 44.425 20.8272 45.0016C20.1576 45.5782 19.1474 45.5028 18.5708 44.8332C17.9942 44.1636 18.0696 43.1535 18.7392 42.5769C19.4088 42.0003 20.4189 42.0756 20.9955 42.7452ZM45.0852 18.4481C44.4352 19.0078 44.3621 19.9885 44.9218 20.6385C45.4814 21.2884 46.4621 21.3616 47.1121 20.8019C47.7621 20.2421 47.8352 19.2614 47.2755 18.6115C46.7159 17.9616 45.7351 17.8884 45.0852 18.4481ZM26.6545 65.3018C26.6669 64.9464 26.6946 64.5352 26.7241 64.0997C26.8731 61.89 27.0774 58.8637 25.8481 56.0241C24.3714 52.6128 21.1904 50.3754 16.3932 49.374C15.5605 49.2001 14.7449 49.7344 14.571 50.5668C14.3973 51.3993 14.9312 52.2151 15.7637 52.389C19.5768 53.1849 21.9509 54.7742 23.0216 57.2476C23.954 59.4015 23.786 61.8916 23.6511 63.8923C23.62 64.3534 23.5906 64.7889 23.5764 65.1945C23.5469 66.0445 24.2119 66.7575 25.0618 66.7871C25.4489 66.8012 25.8269 66.6683 26.1201 66.4152C26.2814 66.2767 26.4122 66.1063 26.5042 65.9146C26.5962 65.723 26.6474 65.5143 26.6545 65.3018Z" fill="#59CAFC"/>
</g>
<path d="M150.693 114.58C151.266 114.168 151.815 113.726 152.338 113.253C151.849 113.626 151.361 114.052 150.693 114.58Z" fill="black"/>
<path d="M152.354 113.238L152.362 113.23L152.338 113.246L152.354 113.238Z" fill="black"/>
<path d="M144.828 108.334L145.34 107.923L144.828 108.334Z" fill="black"/>
<path d="M163.635 78.27L163.549 78.1614C163.2 76.3226 163.549 77.6028 163.154 75.9192C162.944 75.2675 162.471 73.1261 162.261 72.5675C162.261 72.5675 162.029 71.7917 162.067 71.7917C161.951 71.5589 161.804 70.9693 161.633 70.4649C161.563 70.2865 161.633 70.6046 161.687 70.7443C161.571 70.3563 161.431 69.9684 161.292 69.596C161.152 69.2236 161.136 69.0219 161.292 69.5107C161.067 68.8046 160.601 67.4934 159.973 65.8719C159.655 65.0961 159.298 64.1806 158.91 63.2573L158.32 61.8608V61.7754C158.413 61.5039 158.491 61.2246 158.568 60.953C158.862 59.8397 158.995 58.6902 158.964 57.5393C158.957 56.8731 158.789 56.2184 158.475 55.6307C158.354 55.4592 158.222 55.2959 158.08 55.1419C157.898 55 157.703 54.8753 157.498 54.7695C157.292 54.7048 157.082 54.6556 156.869 54.6221C156.686 54.606 156.502 54.606 156.318 54.6221C156.218 54.6221 156.148 54.6221 156.039 54.6609C155.928 54.6915 155.819 54.7304 155.713 54.7773C155.504 54.8727 155.314 55.007 155.155 55.1729C154.903 55.444 154.719 55.7711 154.619 56.1272C154.479 56.6318 154.421 57.1559 154.449 57.6789C154.493 58.4335 154.623 59.1806 154.836 59.9056L156.605 59.5255C156.534 59.1031 156.404 58.693 156.218 58.3074C156.376 58.7007 156.496 59.1087 156.574 59.5255L154.868 59.8979C154.78 59.5987 154.721 59.2923 154.689 58.9824C154.774 59.3548 154.852 59.6418 154.922 59.8823L156.528 59.5332C156.477 59.182 156.37 58.8414 156.21 58.5246C156.073 58.0866 155.863 57.6748 155.589 57.3065C155.276 56.8511 154.929 56.4205 154.549 56.0186L154.278 55.8557C154.146 55.7393 153.999 55.6229 153.843 55.5065C153.326 55.1664 152.702 55.0284 152.09 55.1186C151.791 55.1895 151.511 55.3277 151.274 55.5226C151.036 55.7175 150.845 55.9641 150.717 56.2436C150.676 56.3182 150.643 56.396 150.616 56.4764C150.552 56.6609 150.502 56.8503 150.468 57.0427C150.376 57.6695 150.395 58.3076 150.523 58.9281C150.708 59.9734 151.048 60.9853 151.531 61.9306L153.037 61.1547C152.82 60.764 152.582 60.3858 152.323 60.022C152.431 60.1772 152.687 60.5884 152.323 60.1306C151.987 59.6728 151.619 59.2398 151.221 58.8349C150.897 58.5255 150.547 58.2452 150.174 57.997C149.77 57.741 149.468 57.6013 149.747 57.7875C149.43 57.5873 149.081 57.4429 148.715 57.3608C148.273 57.3065 148.04 57.2832 148.715 57.3608C148.539 57.3179 148.36 57.2919 148.18 57.2832C147.978 57.2995 147.78 57.3439 147.59 57.4151C147.266 57.5526 146.98 57.7685 146.76 58.0436C146.876 57.9194 147.008 57.7953 147.14 57.6789C147.295 57.5728 147.462 57.4843 147.637 57.4151C147.472 57.4862 147.313 57.5719 147.163 57.6712C147.044 57.7765 146.93 57.8878 146.822 58.0048C146.578 58.296 146.411 58.6445 146.338 59.0176C146.264 59.3907 146.287 59.7763 146.403 60.1384C146.622 60.7733 146.995 61.3439 147.489 61.7987C147.331 61.6209 147.184 61.4344 147.047 61.2401C147.578 61.8654 148.16 62.4466 148.785 62.978C148.49 62.753 148.203 62.528 147.924 62.2797C148.68 62.9519 149.495 63.5543 150.36 64.0797L151.206 62.7142C150.828 62.4838 150.43 62.2866 150.018 62.1246L150.507 62.3573C149.673 61.957 148.78 61.695 147.862 61.5815C147.47 61.534 147.073 61.5576 146.69 61.6513C146.428 61.7177 146.185 61.8431 145.98 62.0179C145.774 62.1927 145.611 62.4123 145.503 62.6599L145.425 62.8461V63.009L145.356 63.3271C145.328 63.5669 145.328 63.8089 145.356 64.0487C145.443 64.5668 145.719 65.0341 146.131 65.3599C146.812 65.7856 147.588 66.0361 148.389 66.0891C149.087 66.1667 149.739 66.1745 150.313 66.1823H151.368L151.469 66.3762L151.508 66.4616L151.578 66.6167C151.477 66.3297 151.469 66.2754 151.431 66.159C151.477 66.2366 151.725 66.7797 151.904 67.1831C151.842 67.0279 151.516 66.6167 151.477 66.4848C152.89 69.7668 153.972 73.1821 154.705 76.6795C155.074 78.7929 155.256 80.9348 155.248 83.0803C155.248 84.0268 155.178 84.857 155.155 85.5475C155.131 86.238 155.015 86.7733 154.976 87.0992C154.829 88.1931 154.883 87.2931 154.883 87.2776C154.839 87.8506 154.761 88.4206 154.65 88.9845C154.588 89.2871 154.65 88.9147 154.65 88.7362C154.565 89.2328 154.464 89.6828 154.48 89.7216C154.604 89.1164 154.611 89.3802 154.697 89.1319C154.611 89.6129 154.518 90.094 154.387 90.5672V90.4974C154.348 90.6526 154.317 90.8621 154.255 91.2034C154.17 91.7163 154.037 92.2202 153.859 92.7086C153.114 95.1126 152.072 97.414 150.756 99.5593C150.756 99.5128 151.004 99.0628 151.244 98.6128C151.081 98.8921 150.841 99.3343 150.678 99.5826C151.019 99.1093 150.143 100.459 150.399 100.079C149.404 101.706 148.241 103.225 146.931 104.61C146.931 104.703 146.527 105.495 146.155 106.317C145.782 107.139 145.262 107.869 145.301 107.939L144.37 108.714C144.487 108.645 145.286 108.024 145.697 107.675L145.736 107.582C146.682 106.806 145.984 107.419 146.876 106.604C146.428 107.115 145.923 107.573 145.371 107.97C145.948 107.558 146.484 107.09 146.969 106.573C147.59 106.014 146.969 106.674 147.683 105.999C148.187 105.495 148.769 104.758 149.343 104.168C149.972 103.392 150.445 102.802 150.895 102.197C151.345 101.592 151.71 100.979 152.191 100.211L152.105 100.389C152.424 99.8309 153.083 98.7447 153.572 97.6973C153.424 97.9921 153.277 98.2404 153.572 97.6042C154.2 96.4327 154.449 95.5482 154.852 94.6637C154.953 94.3689 155.023 94.0663 155.108 93.7637C155.279 93.2129 155.55 92.4681 155.76 91.537C155.861 91.0715 156.008 90.575 156.109 90.0397C156.21 89.5043 156.311 88.9224 156.411 88.325C156.811 85.6365 156.904 82.9115 156.691 80.2019C156.649 79.4924 156.571 78.7855 156.458 78.0838C156.373 77.3855 156.272 76.6873 156.124 76.0123C155.853 74.6545 155.511 73.3899 155.17 72.2339C154.48 69.9063 153.774 68.0676 153.339 66.9969L153.409 67.1598C153.238 66.7331 153.068 66.3219 152.843 65.8021L152.563 65.1814L152.424 64.8633C152.424 64.8245 152.424 64.7314 152.331 64.7314H150.911C149.811 64.7807 148.709 64.6789 147.637 64.4288C147.43 64.3707 147.236 64.2761 147.062 64.1495C146.965 64.0704 146.897 63.9612 146.869 63.8392C146.869 63.7538 146.869 63.684 146.869 63.5754L146.907 63.4125V63.3349C146.946 63.2573 146.907 63.234 147.117 63.1875C147.643 63.1286 148.175 63.1978 148.668 63.3892C149.253 63.5807 149.813 63.8412 150.337 64.165L151.198 62.8383C150.217 62.2411 149.311 61.5302 148.498 60.7203C148.183 60.4181 147.96 60.0336 147.854 59.6108C147.854 59.5332 147.854 59.4867 147.854 59.4168C147.854 59.347 147.854 59.3005 147.924 59.2462C147.993 59.1918 147.993 59.1065 148.04 59.0832C148.056 59.0632 148.074 59.045 148.094 59.0289H148.141C148.242 58.9358 148.661 59.0289 149.033 59.2384C149.428 59.4658 149.793 59.7422 150.119 60.0608C150.737 60.6349 151.261 61.3025 151.671 62.0392L153.013 61.372L152.819 60.953C152.384 59.8997 152.157 58.772 152.152 57.6324C152.152 58.1522 152.098 57.9738 152.152 57.5703C152.253 56.872 152.424 56.9419 152.455 56.8876C152.486 56.8333 152.524 56.8876 152.532 56.8876C152.54 56.8876 152.532 56.8876 152.649 56.8876C153.032 56.9818 153.379 57.19 153.642 57.485C153.918 57.7296 154.167 58.0027 154.387 58.2996C154.705 58.7509 154.934 59.2592 155.061 59.797L156.404 59.5099C156.193 58.7867 156.088 58.0366 156.093 57.2832C156.085 56.9619 156.159 56.6437 156.311 56.36C156.348 56.3019 156.406 56.2602 156.474 56.2436C156.613 56.2436 156.792 56.1893 156.861 56.2436C156.931 56.2979 157.18 56.4376 157.296 56.81C157.402 57.2174 157.447 57.6385 157.428 58.0591C157.398 58.981 157.255 59.8956 157.001 60.7823C156.978 60.8906 156.947 60.997 156.908 61.1004L156.854 61.2634V61.3409L156.799 61.4806L156.683 61.7754C156.683 61.822 156.629 61.8763 156.636 61.9228L156.699 62.0625L156.924 62.5823L157.451 63.8469C157.792 64.6616 158.111 65.4374 158.39 66.1745C158.949 67.5943 159.367 68.7503 159.592 69.4408C160.297 71.3708 160.89 73.3395 161.369 75.3373V75.1278C161.999 77.6413 162.419 80.2026 162.626 82.7855C162.838 85.443 162.78 88.1151 162.455 90.7612L162.502 90.4509C162.398 91.5671 162.201 92.6727 161.912 93.756C161.959 93.6551 161.912 94.043 161.827 94.5318C161.742 95.0206 161.555 95.6025 161.478 95.9206C161.094 97.5135 160.574 99.0708 159.926 100.576V100.498C159.269 102.027 158.491 103.501 157.599 104.905C155.993 107.373 154.108 109.649 151.981 111.686C151.493 112.113 150.973 112.516 150.43 112.919L150.212 113.106C149.995 113.466 149.838 113.859 149.747 114.269C149.708 114.696 150.112 114.882 151.787 113.626V113.695L152.408 113.144C153.184 112.477 153.448 112.136 153.417 112.206L152.385 113.144C153.114 112.469 152.625 112.958 152.385 113.23L153.238 112.454C153.37 112.314 153.122 112.547 153.005 112.648C153.393 112.276 153.89 111.717 154.355 111.259C155.046 110.483 154.441 111.259 155.248 110.375C159.447 105.705 162.307 99.987 163.526 93.8258C163.573 93.6862 163.526 93.8258 163.526 94.043C163.885 92.2928 164.121 90.5195 164.232 88.7362C164.279 88.2552 164.302 88.1233 164.325 87.9604C164.325 88.038 164.325 87.4716 164.364 86.5794C164.364 86.1371 164.364 85.6095 164.364 85.0277C164.364 84.7406 164.364 84.4458 164.364 84.1432C164.364 83.8406 164.317 83.538 164.294 83.2354C164.24 82.6225 164.209 82.0018 164.147 81.4277C164.085 80.8536 163.999 80.3105 163.937 79.876C163.782 78.9372 163.619 78.3088 163.635 78.27Z" fill="black"/>
<path d="M24.222 113.269L22.7091 111.926C23.1884 112.401 23.6934 112.849 24.222 113.269Z" fill="black"/>
<path d="M22.7016 111.911L22.6936 111.903L22.7097 111.927L22.7016 111.911Z" fill="black"/>
<path d="M30.2504 106.806L29.7616 106.418L30.2504 106.806Z" fill="black"/>
<path d="M12.1188 78.4174L12.08 78.2933C12.4136 76.5166 12.2119 77.7812 12.5688 76.1442C12.5688 75.4847 13.2438 73.4442 13.3446 72.8778C13.3446 72.8778 13.4067 72.6916 13.4688 72.5054C13.4963 72.3859 13.5407 72.271 13.6007 72.164C13.6007 71.908 13.8412 71.3882 13.9808 70.8529C14.0274 70.6744 13.9265 70.9847 13.8722 71.1089C13.9808 70.7287 14.1127 70.333 14.2369 69.9761C14.361 69.6193 14.4618 69.4408 14.3067 69.9218C14.5394 69.2391 14.9972 67.9589 15.6256 66.3762C15.9437 65.6003 16.3006 64.7159 16.6885 63.8081C16.8825 63.3426 17.092 62.8694 17.2937 62.3883C17.4141 62.1672 17.5005 61.9292 17.5497 61.6823L17.4101 61.3254L17.3558 61.1625L17.317 61.0616C17.2472 60.8444 17.1773 60.6116 17.1153 60.3711C16.8732 59.434 16.761 58.4681 16.7816 57.5005C16.7836 57.1337 16.8629 56.7715 17.0144 56.4375C17.0486 56.4145 17.0755 56.3822 17.092 56.3444C17.092 56.3444 17.1308 56.3444 17.1385 56.3444C17.1463 56.3444 17.2006 56.3444 17.2239 56.3444C17.2472 56.3444 17.3325 56.3444 17.3868 56.3444H17.4721C17.5275 56.4086 17.565 56.4862 17.5808 56.5694C17.6626 56.8752 17.6915 57.1927 17.6661 57.5082C17.6284 58.1203 17.5244 58.7264 17.3558 59.316L19.1247 59.7039C19.1754 59.4555 19.2534 59.2135 19.3575 58.9823C19.238 59.2074 19.1493 59.4475 19.0937 59.6961L17.3868 59.3237C17.4721 59.0211 17.5497 58.7341 17.604 58.5479C17.5676 58.8106 17.5105 59.07 17.4334 59.3237L19.0394 59.6728C19.0937 59.4401 19.1635 59.2461 19.2256 59.0599C19.2876 58.8737 19.5049 58.5634 19.7764 58.1832C20.0058 57.8379 20.2917 57.5336 20.6221 57.2832L20.754 57.1125C20.8462 57.05 20.9421 56.993 21.0411 56.9419C21.1786 56.8321 21.3465 56.7671 21.5221 56.7556C21.5221 56.7556 21.5764 56.7556 21.5997 56.8022C21.625 56.8284 21.6437 56.8603 21.654 56.8953C21.6611 56.918 21.6611 56.9424 21.654 56.9651C21.6838 57.0449 21.7021 57.1285 21.7083 57.2134C21.7852 57.6417 21.7878 58.0799 21.716 58.5091C21.5638 59.3887 21.3032 60.2461 20.9402 61.0616L22.4453 61.8375C22.6 61.528 22.7845 61.2344 22.9962 60.9608C22.9109 61.0849 22.6471 61.3952 22.9186 61.0073C23.2212 60.6034 23.5559 60.2246 23.9195 59.8746C24.1754 59.6259 24.4503 59.3976 24.7419 59.1918C25.0289 59.0056 25.2151 58.8892 25.0057 58.9823C25.1931 58.8891 25.3911 58.8188 25.5953 58.7729C25.7427 58.7729 25.8125 58.7729 25.5953 58.7729C25.8901 58.7729 25.8746 58.7729 26.0065 58.897C25.9769 58.8743 25.953 58.8451 25.9367 58.8117C25.9367 58.8117 25.8824 58.8117 25.8668 58.7651C25.8513 58.7186 25.9134 58.7651 25.9367 58.7651C25.9559 58.7921 25.9795 58.8157 26.0065 58.8349C26.0065 58.9048 26.1306 58.9901 26.1306 59.0522C26.1767 59.188 26.1767 59.3353 26.1306 59.4711C25.9663 59.8618 25.7323 60.2193 25.4401 60.5263C25.5721 60.4048 25.6965 60.2752 25.8125 60.1384C25.393 60.6794 24.8807 61.1418 24.2996 61.5039C24.5557 61.2944 24.8039 61.0927 25.0289 60.8677C24.338 61.4767 23.6014 62.0317 22.8255 62.528L23.7177 63.8935C23.9991 63.7364 24.2922 63.6016 24.5945 63.49L24.1755 63.6762C24.8357 63.3242 25.5483 63.0806 26.2858 62.9547C26.4941 62.9226 26.706 62.9226 26.9142 62.9547C27.0927 62.9547 27.1004 63.0323 27.1548 63.1254V63.1642V63.2418V63.4202C27.1659 63.5156 27.1659 63.6119 27.1548 63.7073C27.1244 63.8636 27.0391 64.004 26.9142 64.103C26.4397 64.379 25.9096 64.5459 25.3625 64.5917C24.7757 64.6659 24.1851 64.7074 23.5936 64.7159H22.8178C22.4535 64.6922 22.0881 64.6922 21.7238 64.7159C21.5919 65.0262 21.4755 65.2978 21.3669 65.5383C21.3281 65.6391 21.2893 65.7245 21.2583 65.8098L21.1962 65.9728L21.716 65.0417C21.3824 65.8176 21.2583 66.1434 21.0799 66.5934C21.1419 66.4383 21.2195 65.9029 21.2893 65.7788C19.8511 69.1541 18.7568 72.6657 18.023 76.2605C17.6426 78.4564 17.4531 80.681 17.4566 82.9096C17.4566 83.8794 17.5342 84.7483 17.5575 85.4699C17.5808 86.1914 17.6894 86.7345 17.7204 87.0914C17.829 88.2319 17.6739 87.3009 17.6661 87.2931C17.8601 88.6741 17.798 87.8828 17.992 89.0543C18.0385 89.3724 17.9454 88.9922 17.9066 88.8138C18.0075 89.3259 18.0773 89.8069 18.1006 89.8457C17.9997 89.2017 18.1006 89.4577 18.1006 89.1784C18.1859 89.6827 18.279 90.187 18.4109 90.6758L18.3411 90.6448C18.4342 90.9396 18.6204 91.5681 19.0316 92.9025C19.7859 95.4018 20.8548 97.7951 22.2126 100.025C22.2126 100.025 21.9023 99.5438 21.6229 99.0861C21.7936 99.3809 22.0574 99.8619 22.1971 100.11C21.9023 99.5748 22.8022 100.995 22.554 100.583C23.6606 102.219 24.9066 103.756 26.278 105.176C26.3401 105.223 27.2246 105.588 28.0547 105.952C28.4291 106.118 28.8156 106.256 29.2108 106.364C29.3863 106.428 29.5685 106.472 29.7539 106.495L30.6228 107.201C30.5375 107.108 29.8004 106.503 29.397 106.193H29.2961C28.9236 105.899 28.5735 105.577 28.2487 105.231C28.2487 105.161 28.9858 105.89 29.7306 106.441C29.0711 105.937 28.4892 105.347 28.2177 105.138C27.6591 104.595 28.3108 105.138 27.6358 104.509C27.147 104.059 26.5496 103.408 26.0375 102.833L24.5867 100.987C24.1445 100.387 23.7327 99.7659 23.3531 99.1248L23.454 99.28C23.1979 98.7369 22.5152 97.7283 22.104 96.7275C22.2281 97.0145 22.3212 97.2706 22.0341 96.6809C21.4833 95.5482 21.204 94.7335 20.8704 93.8801C20.7618 93.6085 20.6686 93.3292 20.56 93.0499C20.4049 92.5301 20.1488 91.8241 19.9471 90.9396C19.8463 90.4974 19.7066 90.0319 19.6135 89.5198C19.5204 89.0078 19.4195 88.4569 19.3187 87.8905C18.9315 85.3234 18.8326 82.7211 19.0238 80.132C19.0583 79.4538 19.1282 78.7779 19.2333 78.1071C19.3009 77.4455 19.4019 76.7878 19.5359 76.1364C19.7919 74.8485 20.11 73.6226 20.4437 72.4977C21.1031 70.2554 21.7859 68.4322 22.1971 67.4081L22.1428 67.571C22.2979 67.1676 22.4919 66.7021 22.6626 66.2986C22.6626 66.2598 22.7091 66.1667 22.7324 66.159H23.1203C24.3895 66.2158 25.66 66.085 26.891 65.771C27.2939 65.6519 27.6705 65.4571 28.0004 65.1969C28.4115 64.8635 28.6873 64.392 28.7763 63.8702C28.7999 63.6329 28.7999 63.3938 28.7763 63.1564L28.6987 62.8383V62.6831L28.6134 62.4814C28.4971 62.2186 28.3207 61.9869 28.0983 61.8049C27.8759 61.623 27.6138 61.4959 27.3332 61.434C26.52 61.2958 25.6846 61.3761 24.9126 61.6668C24.1901 61.8877 23.4992 62.2006 22.8566 62.5978L23.7255 63.9245C24.8185 63.2481 25.8265 62.4433 26.728 61.5271C27.2557 60.9872 27.6143 60.305 27.7599 59.5642C27.7908 59.3429 27.7908 59.1183 27.7599 58.897C27.7094 58.676 27.6312 58.4622 27.5272 58.2608C27.4238 58.0675 27.2902 57.8921 27.1315 57.741C27.0461 57.6634 26.9686 57.5781 26.8755 57.5082L26.5496 57.3375C26.3325 57.246 26.1018 57.191 25.8668 57.1746C25.6633 57.1769 25.4604 57.2003 25.2617 57.2444C24.9244 57.3243 24.6004 57.4523 24.2996 57.6246C23.792 57.9133 23.325 58.2681 22.9109 58.6798C22.1652 59.3814 21.5412 60.2021 21.0643 61.1082L22.4066 61.7676C22.5074 61.5426 22.5772 61.403 22.6316 61.2556C23.1827 60.0055 23.4503 58.6489 23.4152 57.2832C23.4152 57.6712 23.4152 57.7875 23.4152 57.741C23.4152 57.6944 23.4152 57.4617 23.4152 57.1901C23.3858 56.7121 23.2217 56.2521 22.9419 55.8634C22.8392 55.7121 22.7073 55.5829 22.554 55.4833C22.4541 55.4027 22.3413 55.3398 22.2204 55.2971C22.0603 55.2202 21.8858 55.1779 21.7083 55.1729C21.5418 55.1667 21.3752 55.1797 21.2117 55.2117C20.5506 55.3569 19.9496 55.7007 19.4894 56.197C19.1104 56.5607 18.7746 56.9668 18.4885 57.4074C18.0522 58.0265 17.7484 58.7291 17.5963 59.4711L18.9463 59.7659C19.204 58.9028 19.3296 58.0056 19.3187 57.1048C19.3244 56.5113 19.1573 55.929 18.8376 55.4289C18.6028 55.081 18.2454 54.8345 17.8368 54.7384C17.4964 54.6684 17.1453 54.6684 16.8049 54.7384C16.6184 54.7737 16.4413 54.8477 16.2851 54.9557C16.1197 55.0508 15.9768 55.1805 15.8661 55.3358L15.6877 55.5531L15.5791 55.7781C15.5068 55.9191 15.4496 56.0673 15.4084 56.2203C15.2563 56.7654 15.1883 57.3305 15.2067 57.8961C15.2361 58.9456 15.3924 59.9877 15.6722 60.9996C15.6722 61.1237 15.7342 61.2478 15.773 61.372L15.8739 61.6668C15.8739 61.6668 15.8739 61.7133 15.8739 61.7444L15.8196 61.8685L15.2765 63.1331C14.9351 63.9555 14.6015 64.7392 14.3144 65.4607C13.7403 66.896 13.2981 68.0675 13.0498 68.7658C12.4291 70.6279 11.6998 72.9787 11.2731 74.864V74.67C10.6435 77.2616 10.2078 79.8964 9.96968 82.5527C9.73003 85.3051 9.78726 88.0753 10.1404 90.8155V90.4896C10.4042 92.5922 10.3809 92.3051 10.6602 93.9499C10.6602 93.8335 10.761 94.2215 10.8929 94.7258C11.0248 95.2301 11.211 95.8197 11.3119 96.1456C11.7757 97.79 12.3672 99.3957 13.0808 100.948L13.0265 100.902C13.7335 102.445 14.5368 103.943 15.4317 105.386C17.023 107.991 18.9625 110.366 21.1962 112.446C21.6617 112.935 22.1583 113.401 22.6471 113.874L22.8876 114.06C23.2877 114.206 23.7107 114.28 24.1367 114.277C24.5712 114.192 24.5867 113.804 23.1436 112.415H23.2134L22.616 111.895C22.2779 111.612 21.9591 111.306 21.6617 110.98L22.6005 111.872C21.91 111.213 22.4066 111.655 22.6859 111.872L21.91 111.096C21.7704 110.98 22.0031 111.197 22.104 111.306C21.6356 110.907 21.1877 110.485 20.7618 110.041C20.1023 109.32 20.7618 109.956 19.9859 109.118C16.0339 104.633 13.3361 99.1836 12.1653 93.3215C12.1653 93.1818 12.1653 93.3215 12.2196 93.5154C11.8626 91.848 11.6215 90.1577 11.4981 88.4569C11.4854 88.2166 11.4854 87.9757 11.4981 87.7354C11.4981 87.7974 11.4515 87.2621 11.4205 86.4087C11.4205 85.9897 11.4205 85.4854 11.4205 84.9423C11.4205 84.663 11.4205 84.3837 11.4205 84.0966L11.4826 83.2199C11.5291 82.638 11.5524 82.0406 11.6222 81.4898C11.6921 80.9389 11.7619 80.4113 11.8162 79.9381C11.9636 79.0614 12.1188 78.4562 12.1188 78.4174Z" fill="black"/>
<path opacity="0.89" d="M131.651 165.653C156.312 140.992 156.312 101.01 131.651 76.3501C106.991 51.6899 67.0091 51.6899 42.3489 76.3501C17.6886 101.01 17.6886 140.992 42.3489 165.653C67.0091 190.313 106.991 190.313 131.651 165.653Z" fill="#C1FCE9"/>
<path d="M132.229 165.819C157.211 140.838 157.211 100.335 132.229 75.3537C107.248 50.3723 66.745 50.3723 41.7636 75.3537C16.7822 100.335 16.7822 140.838 41.7636 165.819C66.745 190.801 107.248 190.801 132.229 165.819Z" fill="#7DD6C7"/>
<path d="M34.0734 106.178C34.8774 107.68 35.8501 109.086 36.9725 110.368C37.5391 111.007 38.2353 111.517 39.0146 111.866C39.7939 112.214 40.6385 112.393 41.4922 112.389C43.1968 112.279 44.8497 110.898 44.8626 109.161C44.8626 107.663 43.7327 106.442 42.9837 105.145C42.2347 103.847 42.0539 101.839 43.384 101.154C43.8296 100.922 44.3526 100.903 44.7916 100.67C46.3929 99.8178 45.5987 97.3578 46.1992 95.6403C46.7997 93.9228 48.7819 93.1673 50.5188 93.2319C52.2556 93.2965 53.9473 94.0067 55.6842 94.4458C56.0664 94.5812 56.4836 94.5812 56.8658 94.4458C57.1378 94.296 57.3617 94.0721 57.5115 93.8001C59.4485 90.6879 58.1571 85.9874 60.869 83.5403C61.5663 82.8946 62.5284 82.4491 62.806 81.558C63.187 80.441 62.367 79.324 61.9731 78.2134C60.7592 74.772 63.71 70.6138 61.8375 67.4823C60.7398 65.6421 58.2798 64.9835 56.1878 65.4161C54.0958 65.8487 52.3138 67.1659 50.6415 68.5283C42.4619 75.2855 36.3879 84.2431 33.1372 94.3424C32.8411 95.4745 32.3914 96.5608 31.8006 97.5708C31.4067 98.1778 29.9023 99.1721 29.8248 99.8242C29.6763 101.141 33.2857 104.925 34.0734 106.178Z" fill="#1C976E"/>
<path d="M71.3801 68.9609C71.5673 69.6776 71.9031 70.4718 72.6133 70.6913C73.711 71.0335 74.5503 69.8132 75.5124 69.1288C76.8554 68.1344 78.7408 68.2507 80.3356 68.722C81.9304 69.1933 83.4736 69.9617 85.1394 70.1619C86.9778 70.3694 88.8259 69.8658 90.3048 68.7543C90.8836 68.348 91.3698 67.8238 91.7314 67.2162C92.0931 66.6086 92.3221 65.9313 92.4033 65.2289C92.5131 63.3952 91.2282 61.6906 89.6075 60.8254C87.9465 60.0528 86.1237 59.6918 84.2936 59.7729C80.7805 59.7478 77.2839 60.2572 73.924 61.2838C72.2517 61.7939 71.5479 61.852 71.1799 63.5372C70.8326 65.3367 70.901 67.1919 71.3801 68.9609Z" fill="#1C976E"/>
<path d="M33.2851 113.409C34.2471 115.482 35.5127 117.574 37.5465 118.613C38.5667 119.136 39.8581 119.485 40.2713 120.55C40.4002 120.968 40.4484 121.406 40.4133 121.842C40.4133 123.056 40.4133 124.27 40.3617 125.49C40.3004 126.052 40.4036 126.619 40.6587 127.123C41.0601 127.585 41.544 127.969 42.0856 128.253C42.6242 128.698 43.0593 129.255 43.3604 129.885C43.6615 130.515 43.8214 131.203 43.829 131.901C43.8346 133.297 43.6322 134.685 43.2285 136.021C42.4537 139.139 41.5045 142.523 38.8895 144.415C36.5328 146.106 33.2141 146.1 30.6184 144.796C28.0474 143.39 26.0608 141.115 25.014 138.378C23.9902 135.656 23.4314 132.781 23.361 129.874C23.0096 123.418 23.7452 116.949 25.537 110.736C26.0406 109.006 26.0729 105.054 28.3456 106.107C31.0187 107.333 32.1487 110.988 33.2851 113.409Z" fill="#1C976E"/>
<path d="M80.4191 117.109C79.528 117.278 78.6116 117.263 77.7267 117.064C74.3368 116.56 70.7792 116.231 67.5637 117.413C61.5395 119.614 58.4338 127.647 61.5718 133.238C64.1933 137.919 69.8817 140.089 72.9616 144.473C76.4869 149.483 75.951 156.327 78.6112 161.842C79.4253 163.753 80.8486 165.342 82.6596 166.361C84.5063 167.278 86.934 167.188 88.432 165.774C89.5813 164.676 89.9945 163.036 90.4529 161.512C91.5531 157.816 93.1751 154.296 95.2697 151.059C97.1228 148.198 99.4408 145.125 98.8532 141.774C98.3367 138.875 95.7217 136.667 95.2891 133.755C94.9727 131.63 95.8766 129.435 95.3924 127.343C94.4884 123.385 89.4651 122.042 87.0502 118.768C86.8008 118.468 86.6418 118.103 86.5918 117.716C86.62 117.2 86.8226 116.708 87.1664 116.321C89.181 113.448 91.344 110.446 94.5207 108.948C95.6054 108.438 97.1034 108.225 97.8137 109.206C98.0767 109.715 98.2493 110.265 98.3237 110.833C98.6142 111.755 99.2389 112.535 100.075 113.02C100.911 113.506 101.899 113.66 102.843 113.455C103.236 114.149 103.842 114.697 104.571 115.019C105.301 115.34 106.115 115.416 106.892 115.237C107.341 115.043 107.833 114.972 108.319 115.03C108.565 115.132 108.786 115.287 108.964 115.485C109.143 115.683 109.275 115.918 109.352 116.173C110.153 118.058 110.165 120.183 110.643 122.178C111.121 124.173 112.335 126.245 114.343 126.697C116.59 127.195 118.759 125.406 119.747 123.295C120.735 121.183 120.955 118.859 121.742 116.702C121.823 116.372 121.969 116.061 122.172 115.788C122.375 115.515 122.631 115.286 122.924 115.114C123.558 114.944 124.227 114.944 124.861 115.114C126.305 115.203 127.752 115.001 129.116 114.52C134.624 112.906 140.583 109.639 141.597 103.982C142.372 99.6887 140.015 95.5499 138.724 91.3853C137.826 88.5056 137.432 85.458 136.141 82.7397C134.688 79.705 132.222 77.2902 129.807 74.9464C128.051 73.2483 126.146 71.4662 123.738 71.0336C119.05 70.2007 115.06 74.7527 110.333 75.3338C109.307 75.4629 108.203 75.4113 107.318 75.9472C106.711 76.3217 106.278 76.9415 105.684 77.3419C103.302 78.9302 100.364 76.3475 97.5296 75.9536C95.9025 75.7212 94.3012 76.2442 92.7128 76.7672C90.3303 77.5549 87.8767 78.3878 85.9784 80.0343C84.0801 81.6808 82.8469 84.3474 83.6475 86.7623C83.7092 87.0028 83.8289 87.2245 83.9962 87.408C84.7516 88.1505 85.9332 87.182 86.6241 86.3813C88.1623 84.6997 90.1766 83.5269 92.3984 83.0193C94.6202 82.5118 96.9439 82.6935 99.0598 83.5403C99.5699 85.7679 97.1228 87.5565 94.85 88.0149C92.5772 88.4733 90.0849 88.3894 88.348 89.8809C86.9792 91.0496 86.4562 92.9608 86.4691 94.7558C86.484 97.0617 87.2426 99.3012 88.6321 101.141C88.9958 101.531 89.2769 101.99 89.4586 102.491C90.1043 105.183 86.6435 104.822 85.223 104.693C83.4732 104.538 83.2084 105.235 83.1826 106.978C83.131 110.091 84.7387 115.953 80.4191 117.109Z" fill="#1C976E"/>
<path d="M101.391 145.112L99.4536 147.695C99.0497 148.212 98.6911 148.763 98.3818 149.341C97.848 150.547 97.626 151.869 97.7361 153.183C97.7332 153.904 97.8967 154.615 98.2139 155.262C98.3764 155.582 98.6198 155.854 98.92 156.051C99.2201 156.248 99.5666 156.364 99.9249 156.386C100.266 156.357 100.597 156.257 100.897 156.091C101.196 155.925 101.457 155.697 101.662 155.423C102.271 154.64 102.759 153.77 103.108 152.841L104.89 148.76C105.18 148.176 105.379 147.551 105.478 146.907C105.781 143.872 103.224 142.639 101.391 145.112Z" fill="#1C976E"/>
<path d="M130.349 134.271C127.2 136.226 124.639 138.997 122.937 142.29C121.988 144.143 121.316 146.358 122.124 148.282C122.86 150.058 124.668 151.136 126.437 151.904C128.206 152.673 129.981 153.196 131.815 152.938C134.759 152.486 136.91 149.974 138.575 147.501C141.578 143.052 144.341 137.771 145.032 132.379C145.633 127.905 140.887 128.893 138.11 130.119C135.434 131.33 132.842 132.717 130.349 134.271Z" fill="#1C976E"/>
<g style="mix-blend-mode:multiply" opacity="0.29">
<path d="M137.768 81.6992C138.197 84.7009 138.415 87.729 138.419 90.7612C138.42 104.131 134.231 117.164 126.442 128.03C118.652 138.896 107.653 147.048 94.9916 151.34C82.3297 155.632 68.6413 155.848 55.8501 151.958C43.0589 148.069 31.8081 140.269 23.679 129.655C25.0633 139.335 28.6489 148.569 34.16 156.647C39.6711 164.725 46.9611 171.431 55.4695 176.251C63.9779 181.071 73.4781 183.876 83.2401 184.45C93.002 185.025 102.766 183.353 111.78 179.564C120.795 175.774 128.821 169.969 135.241 162.593C141.661 155.216 146.305 146.467 148.815 137.015C151.324 127.564 151.634 117.663 149.718 108.074C147.803 98.4843 143.715 89.4616 137.768 81.6992Z" fill="#3EA797"/>
</g>
<path d="M59.2672 89.3104C59.2052 89.3724 59.2129 89.481 59.2129 89.5819C59.2405 89.5429 59.2595 89.4987 59.2689 89.4519C59.2782 89.4051 59.2777 89.3569 59.2672 89.3104Z" fill="black"/>
<path d="M67.8093 88.1233V88.1931C67.8131 88.17 67.8131 88.1464 67.8093 88.1233Z" fill="black"/>
<path d="M60.8655 94.2836L60.9663 94.2215C61.1293 94.431 60.912 94.3689 61.0905 94.5318C61.2689 94.5318 61.3543 94.8499 61.4706 94.8499C61.4706 94.8499 61.5482 94.943 61.4706 94.9741C61.5637 94.9741 61.5793 95.0439 61.6491 95.0827C61.7189 95.1215 61.6491 95.0827 61.6491 95.0128L61.7965 95.1059C61.7965 95.1758 61.7965 95.2223 61.7499 95.1835C62.1223 95.5544 62.5393 95.8775 62.9913 96.1456C63.4715 96.4335 63.9957 96.6405 64.543 96.7585C64.4887 96.6732 64.3258 96.6732 64.2947 96.5645C64.4421 96.5645 64.4809 96.6344 64.5585 96.5645C64.5585 96.7275 64.8378 96.6654 64.9154 96.8361L64.9697 96.7585L65.0318 96.8206C65.3732 96.8206 65.4275 96.8206 65.4585 96.8206C65.5921 96.8422 65.7283 96.8422 65.862 96.8206C65.9734 96.8135 66.0832 96.79 66.1878 96.7508C66.3596 96.6777 66.5358 96.6155 66.7154 96.5645C66.7154 96.5645 66.5757 96.5645 66.6766 96.5025C66.7231 96.5645 66.9249 96.3551 66.9947 96.4016C67.0645 96.4482 67.3593 96.2232 67.2119 96.1766C67.2895 96.1766 67.5223 96.0835 67.4137 96.1766C67.4858 96.1447 67.5515 96.1001 67.6076 96.0447H67.499C67.7318 95.874 67.8947 95.843 67.9645 95.6646H67.8637C67.98 95.5637 68.0654 95.4706 68.1818 95.5171L68.0809 95.6413C68.238 95.5177 68.3697 95.3649 68.4688 95.1913L68.4145 95.2378C68.4688 95.1137 68.7093 94.8034 68.9033 94.462C69.0617 94.2254 69.1772 93.9628 69.2447 93.6861L69.1283 93.7327V93.5387C69.1283 93.5387 69.3067 93.7482 69.2679 93.7482C69.5173 93.3239 69.7202 92.8739 69.8731 92.406C69.9197 92.2586 69.9662 92.1034 70.005 91.956L70.0671 91.5758C70.1136 91.3431 70.1524 91.1646 70.1757 91.0793C70.199 90.9939 70.3076 91.0793 70.3231 91.0793C70.3231 90.9008 70.2533 90.9862 70.3231 90.8465C70.3929 90.7069 70.3852 90.8465 70.3852 90.8931C70.3852 90.9396 70.3852 90.769 70.3852 90.7612C70.3852 90.7534 70.2455 90.7612 70.1757 90.8077V90.6215H70.2378C70.2378 90.5827 70.0903 90.4896 70.1524 90.319C70.23 90.0164 70.23 89.7371 70.2843 89.45C70.2843 89.45 70.3386 89.5198 70.3541 89.5819C70.3697 89.644 70.3541 89.4888 70.3541 89.4578C70.3541 89.4267 70.3541 89.3336 70.2921 89.3879C70.1602 89.1629 70.2921 88.9147 70.2921 88.7285C70.1524 88.6897 67.9645 88.0535 67.8016 88.0302C67.8048 87.9864 67.8181 87.9439 67.8404 87.9061C67.8016 87.9061 67.7628 88.0224 67.7783 88.0845H67.8714C67.8714 88.2164 67.8093 88.0845 67.8016 88.2397C67.7318 88.2397 67.7318 88.1155 67.7318 88.0069C67.7318 88.1 67.6542 88.1931 67.7318 88.2397C67.8093 88.2862 67.6464 88.2397 67.5999 88.325C67.5533 88.4104 67.6697 88.5112 67.5999 88.5966C67.499 88.8061 67.6697 88.9379 67.5999 89.1319C67.5533 89.2017 67.5999 89.3414 67.53 89.4655C67.53 89.4267 67.6076 89.4035 67.6076 89.4655C67.6076 89.5276 67.6076 89.706 67.5068 89.7991L67.5611 89.9C67.5145 90.1095 67.4447 90.6759 67.3904 91.1802C67.318 91.542 67.1953 91.892 67.0257 92.2198C66.8483 92.5643 66.6208 92.8807 66.3507 93.1586C66.0249 93.5077 65.7921 93.6396 65.7689 93.6861C65.7689 93.6861 65.7689 93.6861 65.7068 93.6861C65.6447 93.6861 65.7068 93.7637 65.7068 93.7637C65.5206 93.7637 65.7068 93.818 65.474 93.8103C65.1574 93.7902 64.8507 93.6916 64.5818 93.5232C64.2918 93.3686 64.0296 93.1667 63.806 92.9258C63.612 92.9258 63.5189 92.6853 63.3637 92.6077C63.1982 92.4472 63.0594 92.2612 62.9525 92.0569C62.7896 91.7931 62.6577 91.506 62.5956 91.4207C62.456 91.2733 62.5956 91.25 62.5413 91.1026C62.4482 91.1646 62.3163 91.0405 62.2853 90.9784C62.2002 90.8744 62.1249 90.7627 62.0603 90.6448H62.1224C62.0289 90.5077 61.9679 90.3512 61.9439 90.1871C61.9482 89.8851 61.9064 89.5842 61.8198 89.2948L61.9749 89.0776C61.9749 89.0776 61.4241 89.0776 60.8267 89.0776C60.2293 89.0776 59.5698 89.2017 59.3681 89.481H59.306V89.5819C59.306 89.706 59.3758 89.7526 59.306 89.7526V89.5897C59.306 89.7138 59.2595 89.5897 59.2207 89.5897C59.2288 89.6385 59.2288 89.6883 59.2207 89.7371C59.2207 89.7371 59.2207 89.7371 59.2207 89.6905C59.2207 89.644 59.3215 89.8379 59.306 89.9233C59.2905 90.0086 59.2052 89.9233 59.2284 90.094C59.2941 90.8955 59.4879 91.6814 59.8026 92.4215C59.8026 92.4215 59.8026 92.4215 59.756 92.4215C59.8801 92.6387 59.9733 92.8482 60.1051 93.0499C60.1206 93.0926 60.1206 93.1392 60.1051 93.1818C60.0896 93.1275 60.8344 94.268 60.8655 94.2836Z" fill="black"/>
<path d="M103.592 88.3173C103.541 88.3983 103.522 88.4947 103.537 88.5888C103.565 88.5501 103.585 88.5058 103.594 88.4589C103.603 88.4121 103.602 88.3638 103.592 88.3173Z" fill="black"/>
<path d="M112.134 87.1458V87.2233C112.137 87.1976 112.137 87.1715 112.134 87.1458Z" fill="black"/>
<path d="M105.198 93.306L105.298 93.2517C105.461 93.4534 105.244 93.3913 105.423 93.562C105.601 93.562 105.679 93.8723 105.803 93.8723C105.803 93.8723 105.873 93.9654 105.803 93.9965C105.888 93.9965 105.904 94.0741 105.973 94.1051C106.043 94.1361 105.973 94.1051 105.973 94.043L106.121 94.1361C106.121 94.1982 106.121 94.2525 106.067 94.206C106.438 94.5807 106.858 94.9042 107.316 95.168C107.794 95.4597 108.319 95.6671 108.867 95.7809C108.821 95.7033 108.65 95.7033 108.619 95.587C108.766 95.587 108.813 95.6568 108.883 95.587C108.883 95.7499 109.17 95.6801 109.248 95.8585L109.302 95.7809L109.364 95.843C109.503 95.8509 109.643 95.8509 109.783 95.843C109.783 95.843 109.783 95.843 110.186 95.843C110.3 95.8372 110.412 95.8163 110.52 95.7809C110.69 95.7031 110.866 95.6408 111.047 95.5947C111.009 95.5947 110.908 95.5947 111.001 95.5249C111.055 95.5947 111.249 95.3775 111.319 95.4318C111.389 95.4861 111.684 95.2456 111.544 95.2068C111.614 95.2068 111.847 95.1137 111.738 95.2068C111.812 95.1777 111.878 95.1327 111.932 95.0749H111.823C112.056 94.9042 112.219 94.8809 112.289 94.7025H112.196C112.312 94.6016 112.397 94.5163 112.506 94.5551L112.413 94.6792C112.569 94.5548 112.701 94.4022 112.801 94.2292L112.747 94.2835C112.801 94.1594 113.034 93.8413 113.228 93.5077C113.387 93.2707 113.505 93.0084 113.577 92.7318L113.453 92.7784L113.491 92.5844C113.491 92.5844 113.67 92.7939 113.639 92.8017C113.882 92.375 114.082 91.9254 114.236 91.4595C114.283 91.3043 114.329 91.1569 114.368 91.0095L114.438 90.6293C114.461 90.4612 114.497 90.2951 114.547 90.1327C114.616 90.0009 114.678 90.1327 114.686 90.1327C114.686 89.9621 114.616 90.0474 114.647 89.9078C114.678 89.7681 114.709 89.9078 114.717 89.9078C114.725 89.9078 114.756 89.7914 114.717 89.7759C114.678 89.7603 114.585 89.7759 114.516 89.8224V89.644H114.578C114.578 89.6052 114.422 89.5198 114.484 89.3414C114.546 89.0572 114.59 88.7696 114.616 88.4802C114.616 88.4802 114.671 88.55 114.686 88.6121C114.702 88.6742 114.686 88.5112 114.725 88.4802C114.764 88.4492 114.725 88.3638 114.655 88.4104C114.531 88.1854 114.702 87.9449 114.655 87.7509C114.523 87.7509 112.328 87.0759 112.172 87.0604C112.164 87.0194 112.164 86.9772 112.172 86.9362C112.172 86.9362 112.103 87.0526 112.118 87.1069H112.203C112.203 87.2466 112.149 87.1069 112.134 87.2621C112.064 87.2621 112.064 87.138 112.072 87.0371C112.072 87.1302 111.986 87.2156 112.072 87.2621C112.157 87.3087 111.986 87.2621 111.947 87.3474C111.909 87.4328 112.017 87.5414 111.947 87.619C111.847 87.8207 112.017 87.9604 111.947 88.1466C111.893 88.2086 111.947 88.3561 111.878 88.4724C111.878 88.4724 111.947 88.4104 111.947 88.4724C111.947 88.5345 111.947 88.7207 111.854 88.8138L111.909 88.9069C111.862 89.1241 111.792 89.6828 111.73 90.1871C111.659 90.5492 111.536 90.8993 111.366 91.2267C111.186 91.5701 110.959 91.8862 110.691 92.1655C110.508 92.3516 110.314 92.5252 110.109 92.6853C110.109 92.6853 110.109 92.6853 110.039 92.6853C109.969 92.6853 110.039 92.7629 110.039 92.7551C109.86 92.7551 110.039 92.8094 109.806 92.8094C109.493 92.7851 109.19 92.6867 108.922 92.5224C108.628 92.3708 108.364 92.1655 108.146 91.9172C107.952 91.9172 107.859 91.6844 107.696 91.6069C107.537 91.4437 107.398 91.2613 107.285 91.0638C107.122 90.8 106.998 90.5129 106.935 90.4198C106.796 90.2802 106.935 90.2491 106.881 90.1017C106.78 90.1638 106.656 90.0396 106.625 89.9776C106.516 89.8506 106.42 89.7128 106.338 89.5664H106.4C106.31 89.4248 106.249 89.2665 106.222 89.1009C106.225 88.802 106.186 88.5042 106.105 88.2164L106.253 87.9914C106.253 87.9914 105.702 87.9914 105.097 87.9914C104.492 87.9914 103.84 88.1155 103.646 88.4026H103.584V88.5035C103.584 88.6276 103.654 88.6664 103.584 88.6741V88.5035C103.584 88.6276 103.537 88.55 103.491 88.5035C103.495 88.5525 103.495 88.6018 103.491 88.6509C103.491 88.6509 103.491 88.6509 103.491 88.6121C103.491 88.5733 103.592 88.7517 103.584 88.8371C103.576 88.9224 103.483 88.8371 103.498 89.0078C103.571 89.8082 103.764 90.5931 104.073 91.3353C104.073 91.3353 104.073 91.3353 104.034 91.3353C104.138 91.5516 104.254 91.7614 104.383 91.9637C104.397 92.0067 104.397 92.0527 104.383 92.0956C104.414 92.15 105.159 93.2982 105.198 93.306Z" fill="black"/>
<path d="M73.6981 98.5585C73.769 98.6845 73.8671 98.7931 73.9851 98.8766C73.9251 98.7431 73.8247 98.6318 73.6981 98.5585Z" fill="black"/>
<path d="M99.9606 95.8042L99.8907 95.8896C99.9185 95.8651 99.9421 95.8363 99.9606 95.8042Z" fill="black"/>
<path d="M80.5488 102.81L80.6186 102.717C80.96 102.857 80.6652 102.872 80.9988 102.981C81.185 102.888 81.5264 103.206 81.666 103.175C81.666 103.175 81.8212 103.252 81.7902 103.291C81.7591 103.33 81.9608 103.291 82.0695 103.353C82.1781 103.415 82.0695 103.353 82.0307 103.283L82.2712 103.338C82.3488 103.4 82.3565 103.454 82.2712 103.423C82.9588 103.723 83.6634 103.982 84.3815 104.199C85.1397 104.426 85.92 104.572 86.709 104.633C86.6237 104.556 86.3832 104.579 86.3134 104.463C86.5151 104.424 86.6004 104.517 86.6935 104.463C86.7478 104.633 87.1125 104.54 87.2521 104.703L87.3142 104.626L87.4073 104.68C87.7266 104.637 88.0501 104.637 88.3694 104.68C88.8116 104.68 89.0133 104.525 89.2538 104.548C89.2538 104.548 89.1219 104.548 89.2538 104.478C89.3857 104.408 89.5486 104.393 89.6107 104.478C89.6728 104.564 90.0762 104.424 89.9443 104.331C90.0064 104.377 90.3245 104.331 90.1461 104.432C90.241 104.43 90.3351 104.414 90.4254 104.385H90.2857C90.6426 104.315 90.8521 104.385 91.0616 104.222H90.9297C91.1392 104.176 91.3098 104.137 91.4107 104.222L91.2012 104.292C91.4899 104.245 91.7715 104.162 92.0391 104.044H91.9305C92.109 103.943 92.6598 103.757 93.1952 103.524C93.6081 103.359 94.0011 103.148 94.3667 102.896H94.196L94.4365 102.725C94.4365 102.725 94.4365 103.02 94.3744 103.004C94.6693 102.888 95.5382 102.469 96.3606 102.011C97.183 101.553 97.9821 101.065 98.2304 100.925C98.4787 100.785 98.339 101.01 98.339 101.026C98.5563 100.847 98.3933 100.886 98.5951 100.762C98.6571 100.762 98.5951 100.824 98.5951 100.855C98.5951 100.886 98.7735 100.754 98.758 100.723C98.7425 100.692 98.6261 100.653 98.5408 100.63L98.8045 100.467V100.529C98.8589 100.49 98.8433 100.289 99.1071 100.141C99.5442 99.8561 99.9639 99.5453 100.364 99.2102C100.364 99.2102 100.317 99.3266 100.248 99.412C100.305 99.3584 100.371 99.3139 100.442 99.2801C100.302 99.2801 100.581 99.1094 100.488 99.1482C100.674 98.7913 101.132 98.574 101.264 98.2637C101.264 98.2016 100.946 97.643 100.628 97.1077C100.412 96.7256 100.177 96.3552 99.9218 95.9982C99.9617 95.945 100.012 95.9001 100.069 95.8663C100.023 95.8663 99.8985 95.9672 99.8519 96.0448L99.9062 96.1146C99.7821 96.293 99.8364 96.1146 99.6968 96.262C99.6347 96.2232 99.7588 96.0758 99.8597 95.9594C99.7588 96.0603 99.6192 96.1224 99.6269 96.2232C99.5106 96.293 99.5726 96.1456 99.433 96.2232C99.3754 96.3512 99.2843 96.4611 99.1692 96.5413C98.8744 96.712 98.8589 96.968 98.564 97.1077C98.4477 97.1077 98.3158 97.3249 98.1296 97.418C98.1839 97.418 98.2537 97.418 98.1683 97.4801C98.015 97.5894 97.8543 97.6879 97.6873 97.7749L97.5942 97.9301C97.2606 98.1628 96.4382 98.7059 95.5615 99.2723C94.8708 99.6991 94.1558 100.085 93.4201 100.428C92.6713 100.774 91.8921 101.049 91.0926 101.251C90.2915 101.455 89.4776 101.605 88.6564 101.701C88.4412 101.663 88.2231 101.645 88.0047 101.646C88.1133 101.646 88.0745 101.724 88.0047 101.716C87.3996 101.716 87.9659 101.771 87.3452 101.778C86.6602 101.721 85.9851 101.577 85.3358 101.352C84.6632 101.169 84.0046 100.938 83.3651 100.661C82.9839 100.572 82.6083 100.461 82.2401 100.327C81.86 100.242 79.9126 99.2645 79.5402 99.0783H79.5867C79.2143 98.962 79.3074 98.8766 79.0592 98.7059C79.0592 98.8301 78.7178 98.7059 78.6014 98.7059C78.3029 98.606 78.0102 98.4894 77.7247 98.3568V98.3103C77.4336 98.1854 77.1555 98.0321 76.8945 97.8525C76.5102 97.4902 76.1006 97.1557 75.6687 96.8517L75.4747 96.4792H75.4204C75.1189 96.7185 74.8338 96.9777 74.567 97.2551C74.1558 97.6973 73.7911 98.2482 73.9773 98.6827L73.9308 98.7215L74.0704 98.8146C74.2101 98.9542 74.3265 98.9465 74.2799 98.993L74.0627 98.8301C74.2101 98.962 74.0627 98.9077 74.0006 98.8921C74.0603 98.9379 74.115 98.9899 74.1635 99.0473C74.2101 99.0473 74.1635 99.0473 74.1635 98.9852C74.281 99.0242 74.3874 99.0907 74.4739 99.1792C74.6368 99.3033 74.4273 99.2723 74.6135 99.412C75.592 100.174 76.6298 100.856 77.7169 101.452C77.7169 101.452 77.7169 101.452 77.6626 101.452C78.0118 101.608 78.3066 101.778 78.6324 101.902C78.6794 101.943 78.7121 101.997 78.7255 102.058C79.0242 102.153 79.3147 102.273 79.5945 102.414L80.5488 102.81Z" fill="black"/>
<path opacity="0.09" d="M69.8746 92.1168C77.8659 84.7091 80.3697 74.4166 75.4672 69.1278C70.5646 63.8391 60.1121 65.5569 52.1209 72.9646C44.1297 80.3724 41.6258 90.6649 46.5284 95.9536C51.4309 101.242 61.8834 99.5245 69.8746 92.1168Z" fill="#F3F3F3"/>
<path d="M115.346 105.626C119.228 105.626 122.375 103.789 122.375 101.522C122.375 99.2555 119.228 97.418 115.346 97.418C111.464 97.418 108.316 99.2555 108.316 101.522C108.316 103.789 111.464 105.626 115.346 105.626Z" fill="#EF8A99"/>
<path d="M64.062 101.933C64.2172 104.199 61.1913 106.108 57.3198 106.193C53.4483 106.278 50.1665 104.517 50.0191 102.283C49.8717 100.048 52.8897 98.1085 56.769 98.0232C60.6482 97.9378 63.9146 99.668 64.062 101.933Z" fill="#EF8A99"/>
<path d="M112.633 58.3047V59.9117L111.033 60.6641C111.033 60.6641 110.278 59.4344 110.297 59.1078C110.319 58.7844 110.493 57.9055 110.62 57.9664C110.744 58.0219 112.633 58.3047 112.633 58.3047ZM63.6719 58.0859L63.6469 60.0391L64.7344 60.2586C64.7344 60.2586 65.0445 58.3726 64.9977 58.3086C64.9516 58.2461 64.4891 57.9133 64.4891 57.9133L63.6719 58.0859Z" fill="#323232"/>
<path d="M88 63.2148C101.606 63.2148 112.636 61.0165 112.636 58.3047C112.636 55.5929 101.606 53.3945 88 53.3945C74.394 53.3945 63.3641 55.5929 63.3641 58.3047C63.3641 61.0165 74.394 63.2148 88 63.2148Z" fill="#577482"/>
<path d="M88 64.8242C101.606 64.8242 112.636 62.6259 112.636 59.9141C112.636 57.2023 101.606 55.0039 88 55.0039C74.394 55.0039 63.3641 57.2023 63.3641 59.9141C63.3641 62.6259 74.394 64.8242 88 64.8242Z" fill="#3B525E"/>
<path d="M69.5422 22.2656L70.7266 58.2813L106.047 59.1094L106.766 22.2656L86.0469 21.6766L69.5422 22.2656Z" fill="#3B525E"/>
<path d="M99.7266 58.961C99.9918 58.5898 100.349 58.2937 100.763 58.1016C102.208 57.4453 103.644 56.7742 104.955 55.875C105.307 55.6375 105.703 55.4731 106.12 55.3914L106.772 22.2664L86.0508 21.6774L81.575 21.836L96.682 22.2664L95.9625 58.8727L99.7266 58.9617" fill="#243438"/>
<path d="M79.6086 23.7805L73.6375 23.8219L74.6992 52.8844L80.5344 53.0633L79.6086 23.7805Z" fill="#7196A8"/>
<path d="M106.766 22.2656C106.766 24.4367 98.432 26.1953 88.1524 26.1953C77.8727 26.1953 69.5399 24.4398 69.5399 22.2656C69.5399 20.0914 77.8727 18.3359 88.1524 18.3359C98.432 18.3359 106.766 20.0922 106.766 22.2656Z" fill="#577482"/>
<path d="M106.234 56.6562C106.234 58.4539 98.2805 59.9109 88.4727 59.9109C78.6617 59.9109 70.7109 58.4539 70.7109 56.6562C70.7109 54.8539 78.6617 53.3969 88.4727 53.3969C98.2805 53.3969 106.234 54.8547 106.234 56.6562Z" fill="#FBB03B"/>
<path d="M70.4203 48.9953C70.4203 48.9953 85.2516 55.0273 106.237 48.9953V56.657L90.8086 57.9633L70.7133 56.6562L70.4203 48.9953Z" fill="#FBB03B"/>
<path d="M88.1563 18.3383C85.5789 18.3383 83.1227 18.45 80.8875 18.6492C90.8602 19.1852 96.5828 25.7508 96.5984 25.7656C102.634 25.1156 106.77 23.7945 106.77 22.2664C106.77 20.0945 98.4367 18.3367 88.157 18.3367" fill="#243438"/>
<g clip-path="url(#clip2_583_3834)">
<path d="M144.562 43.3635C143.853 44.3174 142.506 44.5166 141.552 43.8084C140.598 43.1002 140.399 41.7527 141.107 40.7988C141.815 39.8449 143.163 39.6457 144.117 40.3539C145.071 41.0621 145.27 42.4097 144.562 43.3635ZM140.164 66.0139C139.322 65.3889 138.133 65.5647 137.508 66.4064C136.883 67.2482 137.059 68.4371 137.9 69.062C138.742 69.687 139.931 69.5112 140.556 68.6695C141.181 67.8279 141.005 66.6388 140.164 66.0139ZM112.525 33.3503C111.683 32.7254 110.494 32.9011 109.869 33.7429C109.244 34.5846 109.42 35.7736 110.262 36.3985C111.104 37.0234 112.293 36.8477 112.917 36.0059C113.542 35.1642 113.367 33.9752 112.525 33.3503Z" fill="#FFB636"/>
<path d="M116.036 49.5093C115.218 50.6113 113.661 50.8414 112.559 50.0232C111.457 49.2051 111.227 47.6484 112.045 46.5464C112.864 45.4444 114.42 45.2143 115.522 46.0325C116.624 46.8506 116.854 48.4072 116.036 49.5093ZM168.83 43.4151C168.656 42.1272 168.007 40.8646 167.002 39.8598C166.416 39.2733 165.462 39.2723 164.875 39.8598C164.287 40.4473 164.287 41.3996 164.875 41.9871C165.409 42.5211 165.764 43.1885 165.849 43.8183C165.887 44.1005 165.901 44.6242 165.564 44.9607C165.228 45.2972 164.704 45.2834 164.422 45.2452C163.792 45.1601 163.125 44.8049 162.591 44.2709C160.408 42.0887 157.165 41.7785 155.363 43.5809C153.56 45.3834 153.869 48.626 156.052 50.8091C156.064 50.8205 156.077 50.8293 156.088 50.8403C157.137 51.914 157.28 53.2448 156.746 53.7791C156.409 54.1155 155.886 54.1018 155.603 54.0637C154.974 53.9784 154.306 53.6237 153.772 53.0894C151.589 50.907 148.347 50.5969 146.544 52.3994C144.741 54.2019 145.051 57.4444 147.234 59.6275C147.287 59.6807 147.343 59.7292 147.402 59.7728C147.991 60.21 148.827 60.1616 149.361 59.6275C149.948 59.0401 149.948 58.0878 149.361 57.5002C148.281 56.4207 148.131 55.0666 148.671 54.5267C149.211 53.9866 150.566 54.1359 151.645 55.2166C151.885 55.457 152.141 55.6773 152.408 55.8755C153.256 56.505 154.221 56.9125 155.2 57.0449C156.619 57.2367 157.958 56.8218 158.873 55.9063C160.676 54.1038 160.366 50.8613 158.183 48.6782C158.169 48.6639 158.153 48.6514 158.139 48.6377C157.098 47.5656 156.957 46.241 157.49 45.7082C158.03 45.1681 159.384 45.3178 160.463 46.398C160.704 46.6386 160.959 46.8588 161.226 47.057C162.074 47.6866 163.039 48.0939 164.019 48.2264C165.438 48.4182 166.776 48.0032 167.692 47.0878C168.607 46.1724 169.022 44.8338 168.83 43.4151Z" fill="#BEA4FF"/>
<path d="M136.754 56.7984C135.936 57.9004 134.379 58.1305 133.277 57.3123C132.175 56.4942 131.945 54.9375 132.763 53.8355C133.581 52.7335 135.138 52.5034 136.24 53.3216C137.342 54.1396 137.572 55.6963 136.754 56.7984ZM131.119 21.1794C130.904 19.8493 130.198 18.5598 129.133 17.5488C129.118 17.5346 129.102 17.5225 129.086 17.5091C128.14 16.5806 127.924 15.3793 128.37 14.9089C129.025 14.2181 128.997 13.1267 128.306 12.4713C127.616 11.8172 126.524 11.8445 125.869 12.5351C123.999 14.5051 124.389 17.8076 126.755 20.0536C126.769 20.0662 126.783 20.0763 126.797 20.0883C127.289 20.5694 127.623 21.1647 127.715 21.7308C127.754 21.9716 127.78 22.4171 127.518 22.6937C127.256 22.9701 126.81 22.9671 126.567 22.9407C125.982 22.877 125.352 22.5613 124.838 22.0737C123.773 21.0621 122.448 20.4253 121.109 20.2798C119.617 20.1175 118.223 20.592 117.284 21.5811C115.414 23.5511 115.804 26.8534 118.17 29.0996C118.222 29.1485 118.276 29.1936 118.331 29.2349C119.021 29.7472 120.001 29.6751 120.608 29.036C121.263 28.3453 121.235 27.2539 120.544 26.5985C119.56 25.6646 119.332 24.4324 119.785 23.9549C120.047 23.6785 120.493 23.6814 120.736 23.7079C121.321 23.7715 121.951 24.0873 122.465 24.5748C122.674 24.7736 122.893 24.9577 123.121 25.1267C124.051 25.8174 125.118 26.2519 126.194 26.3687C127.686 26.531 129.08 26.0565 130.019 25.0674C130.958 24.078 131.359 22.661 131.119 21.1794ZM151.198 79.9357C152.149 79.9912 152.964 79.2655 153.02 78.3147C153.632 67.7958 160.892 65.4499 165.229 64.0482C165.756 63.8779 166.255 63.7167 166.682 63.5576C167.574 63.2251 168.028 62.2322 167.695 61.3399C167.363 60.4475 166.37 59.9938 165.477 60.3264C165.122 60.459 164.68 60.6016 164.168 60.767C159.676 62.219 150.327 65.2402 149.577 78.1142C149.56 78.4 149.615 78.6856 149.736 78.945C149.858 79.2044 150.042 79.4295 150.272 79.5999C150.541 79.8 150.863 79.9168 151.198 79.9357Z" fill="#FF6E83"/>
<path d="M143.612 33.7304C143.045 34.4939 141.967 34.6533 141.203 34.0864C140.44 33.5196 140.28 32.4413 140.847 31.6778C141.414 30.9144 142.492 30.755 143.256 31.3218C144.019 31.8886 144.178 32.9669 143.612 33.7304ZM174.808 53.2838C174.067 52.7335 173.02 52.8884 172.47 53.6294C171.92 54.3704 172.075 55.4173 172.816 55.9675C173.557 56.5178 174.604 56.3629 175.154 55.6219C175.704 54.8809 175.549 53.8339 174.808 53.2838ZM121.267 44.9977C121.643 44.9267 122.081 44.8588 122.545 44.7869C124.9 44.4215 128.126 43.9215 130.817 41.9604C134.049 39.6046 135.647 35.7367 135.566 30.4639C135.552 29.5485 134.798 28.8185 133.883 28.8325C132.968 28.8467 132.238 29.5999 132.252 30.515C132.317 34.706 131.209 37.5738 128.865 39.2819C126.824 40.7694 124.17 41.181 122.037 41.5118C121.546 41.588 121.082 41.6599 120.653 41.7408C119.753 41.9105 119.162 42.7771 119.331 43.6763C119.408 44.086 119.637 44.4516 119.972 44.6996C120.155 44.8362 120.365 44.9333 120.588 44.9846C120.811 45.0359 121.042 45.0404 121.267 44.9977Z" fill="#59CAFC"/>
</g>
<g clip-path="url(#clip3_583_3834)">
<path d="M161.345 54.0928C162.15 52.878 167.183 47.046 169.601 42.8044C171.489 39.4908 170.545 33.0036 165.528 31.5283C159.006 29.6147 155.242 35.5359 155.242 35.5359C155.242 35.5359 154.062 33.4084 150.546 33.2C146.118 32.9368 140.996 34.1179 136.49 35.8394C132.122 37.5049 128.244 39.4863 125.186 42.4441C122.449 45.0929 122.928 47.2532 122.928 47.2532C122.928 47.2532 117.514 45.0618 113.332 50.0036C109.156 54.9481 112.596 60.5002 115.9 62.1455C120.205 64.2894 124.635 64.5571 126.793 65.1355C128.946 65.7157 131.009 66.2642 131.348 67.3178C131.686 68.3714 131.26 68.7892 131.049 68.802C130.842 68.8129 130.18 67.9088 129.459 68.6661C128.478 69.7047 129.619 72.0122 132.146 71.3413C134.594 70.6944 134.296 68.1916 134.296 68.1916L133.938 65.7711L138.644 66.8495L143.971 68.5515L144.749 71.4042C144.749 71.4042 145.257 73.6389 144.728 75.9303C144.198 78.2216 142.978 80.7625 142.978 80.7625L143.466 82.4785L159.198 76.2875L158.171 74.8358C158.171 74.8358 155.456 73.4997 153.507 71.7109C152.114 70.4291 151.453 68.8621 151.453 68.8621L150.12 64.8503L156.835 57.1292C156.835 57.1292 157.925 57.4497 157.874 57.729C157.824 58.0084 158.564 60.4086 160.824 60.5681C163.058 60.7276 164.271 59.0368 163.593 57.5817C162.916 56.1311 162.078 57.0269 161.84 57.3754C161.602 57.724 160.927 58.038 160.456 57.2286C159.984 56.4298 160.539 55.3075 161.345 54.0928ZM118.202 60.7403L114.602 56.0996L115.989 52.4844L118.318 50.8482C118.318 50.8482 122.308 51.9099 122.483 52.0511C122.657 52.1923 125.833 55.2292 125.833 55.2292L131.233 63.0072L118.202 60.7403ZM157.485 54.1063C157.465 53.9083 156.909 43.8528 156.909 43.8528C156.874 43.7452 158.325 42.3928 158.278 42.2449C158.23 42.0969 159.802 36.3272 159.802 36.3272L164.968 34.6284L167.543 38.9497L166.247 43.8004C166.253 43.8031 157.504 54.2999 157.485 54.1063Z" fill="#FEC417"/>
<path d="M168.189 37.1718C166.469 33.1319 161.706 33.7696 160.075 35.0479C158.444 36.3263 157.623 37.8975 157.738 39.6606C157.83 41.086 157.782 42.0766 157.449 42.3496C157.081 42.6458 156.682 42.7278 156.682 42.7278C156.682 42.7278 155.706 39.9282 155.359 38.7823C154.652 36.4153 155.229 35.5304 155.229 35.5304C155.229 35.5304 154.81 34.7972 154.341 34.4787C153.874 34.1645 153.085 33.8234 153.085 33.8234C153.085 33.8234 153.588 34.9017 153.066 35.39C152.545 35.8783 151.762 35.7253 151.762 35.7253L153.125 37.8508C153.125 37.8508 155.908 49.9235 155.9 50.2172C155.893 50.511 154.115 57.836 154.115 57.836C154.115 57.836 152.564 60.5039 151.678 61.3171C150.787 62.132 150.265 63.5931 146.304 65.0986C142.344 66.6086 137.99 64.9492 137.99 64.9492L133.594 63.1597L128.843 57.1681L126.199 50.2544L125.534 47.6314L125.3 46.519L124.947 46.0422C124.947 46.0422 124.718 46.4679 124.069 46.5616C123.42 46.6554 122.946 46.0027 122.946 46.0027C122.946 46.0027 122.823 46.4394 122.835 46.6302C122.843 46.8228 122.925 47.2441 122.925 47.2441C122.925 47.2441 123.786 47.6437 124.22 48.5068C124.654 49.3699 125.685 53.2275 124.957 53.3954C124.226 53.5695 123.435 50.3056 120.379 50.0682C117.731 49.8609 114.389 51.449 113.836 54.6217C113.288 57.7927 115.322 60.5482 120.659 61.8454C125.996 63.1425 131.467 63.8686 132.961 65.9354C134.743 68.3927 133.266 70.7877 133.266 70.7877C133.266 70.7877 134.666 70.0612 134.915 68.3395C134.995 67.7835 134.861 67.0656 134.763 66.6452C137.074 68.05 139.835 68.9429 143.029 68.6881C144.251 68.6338 145.556 68.3531 147.291 67.7137C147.541 67.6214 147.784 67.5218 148.027 67.4223C150.033 66.6074 151.654 65.6138 153.085 64.2184C155.04 62.4045 156.318 60.2634 157.132 58.0678C157.223 58.4855 157.811 59.3921 158.572 59.9992C159.907 61.0667 161.433 60.5996 161.433 60.5996C161.433 60.5996 159.012 60.2281 158.563 57.3746C158.114 54.5212 159.723 52.8549 162.064 50.0462C164.413 47.2295 169.904 41.2135 168.189 37.1718ZM122.569 60.6145C120.988 60.2395 118.332 59.9398 116.827 58.5439C114.822 56.6806 114.939 53.4931 117.217 52.267C121.946 49.7114 123.881 55.4118 124.432 55.9859C124.983 56.5601 125.932 56.2604 125.932 56.2604C125.932 56.2604 126.09 56.6335 126.464 57.328C126.476 57.3486 126.487 57.3648 126.494 57.3872L126.53 57.4491C126.785 57.922 127.118 58.5062 127.533 59.1605L127.565 59.209C127.797 59.5797 128.027 59.9262 128.252 60.2395C128.713 60.902 129.241 61.6051 129.839 62.3075C129.259 62.1802 125.926 61.418 122.569 60.6145ZM166.484 40.8191C165.95 42.7612 164.228 44.6949 162.996 46.2424C161.407 48.2374 159.048 51.2234 158.38 52.0615C158.419 51.5152 158.437 50.9823 158.442 50.4637C158.497 49.7616 158.522 48.9197 158.447 48.0497C158.251 45.7649 157.741 43.8921 157.741 43.8921C157.741 43.8921 158.807 43.7898 159.218 42.9563C159.629 42.1228 159.247 40.1474 159.528 39.0456C159.966 37.3246 161.283 35.2346 164.511 35.9902C166.377 36.4306 167.114 38.5209 166.484 40.8191ZM146.591 69.5415L149.302 68.5067C149.302 68.5067 150.264 71.2462 151.356 73.1505C152.45 75.0592 153.761 77.1433 153.761 77.1433C153.761 77.1433 148.773 80.9181 148.207 79.0406C147.641 77.1631 147.296 73.2279 147.296 73.2279C147.296 73.2279 146.406 68.7168 146.591 69.5415Z" fill="#FFA828"/>
<path d="M132.778 42.4782C132.778 42.4782 135.706 41.0428 138.537 40.0442C141.369 39.0455 144.435 38.492 144.435 38.492C144.435 38.492 147.089 47.3324 148.158 52.4496C149.232 57.565 148.415 61.9936 148.216 63.2353C148.026 64.4386 147.825 65.1196 147.825 65.1196L145.013 65.8254L137.493 58.7787L132.778 42.4782Z" fill="#FFA828"/>
<path d="M129.573 45.1292C129.573 45.1292 130.298 44.4158 131.396 43.5245C132.392 42.7162 133.364 42.2221 133.364 42.2221C133.364 42.2221 135.265 48.0308 136.701 52.1451C137.925 55.6504 141.196 60.9287 142.379 62.2278C143.562 63.5268 145.557 65.4393 145.557 65.4393C145.557 65.4393 142.969 66.0222 140.862 64.7829C139.752 64.129 133.625 58.1635 131.936 53.365C130.248 48.5665 129.66 44.9619 129.573 45.1292Z" fill="#FFEFAB"/>
<path d="M128.378 46.322C128.368 46.5916 129.299 51.8499 131.858 56.1021C134.416 60.3543 137.014 62.9522 138.459 63.8284C139.743 64.6037 140.516 64.9108 140.858 64.7847C141.2 64.6586 138.212 61.4521 136.426 58.7305C134.647 56.0116 133.054 52.5516 132.394 50.7993C131.732 49.0424 130.168 44.4637 130.168 44.4637C130.168 44.4637 129.357 45.2091 129.182 45.4038C129.009 45.603 128.378 46.322 128.378 46.322Z" fill="#FFFCFD"/>
<path d="M145.972 79.6488C145.972 79.6488 146.914 76.1925 146.621 73.9433C146.329 71.694 145.941 69.7508 145.941 69.7508L147.092 69.3765C147.092 69.3765 147.964 72.4705 148.498 74.5853C149.033 76.7 149.304 78.8668 149.304 78.8668L145.972 79.6488Z" fill="#FFEFAB"/>
<path d="M143.981 68.5478C143.981 68.5478 144.584 67.4579 146.93 66.593C149.276 65.7281 150.553 66.1953 150.553 66.1953L151.482 68.8666C151.482 68.8666 149.775 68.9892 147.87 69.6666C146.284 70.2312 144.76 71.4051 144.76 71.4051L143.981 68.5478ZM125.128 45.5646C125.413 45.0782 128.349 41.0371 137.291 37.6602C146.91 34.024 151.364 35.2905 151.637 35.3505C151.942 35.4133 152.472 36.0205 152.449 36.385C152.421 36.7513 152.203 36.962 151.391 36.9504C150.574 36.9406 146.207 35.8275 137.665 39.2576C129.46 42.5482 126.702 46.1877 126.395 46.5217C126.146 46.7887 125.605 47.0333 125.248 46.8091C124.887 46.5912 124.944 45.8829 125.128 45.5646ZM152.793 37.4565C151.711 37.9457 155.148 45.9664 154.474 52.032C153.749 58.5228 151.051 61.2927 151.283 61.5631C151.516 61.8334 154.373 59.7923 155.512 56.4486C156.569 53.3509 156.986 50.7949 156.582 47.7446C156.168 44.6977 153.998 36.9122 152.793 37.4565ZM125.799 48.4716C125.515 48.5611 127.131 52.5989 127.264 54.5861C127.315 55.3494 126.938 55.6492 126.945 55.8221C126.952 55.995 129.639 60.9669 132.025 62.7051C134.333 64.3866 138.357 66.0576 138.715 65.3941C139.073 64.7306 135.786 64.162 132.8 61.3962C131.084 59.8124 129.025 57.2315 127.883 53.8312C127.128 51.5823 126.406 48.2827 125.799 48.4716Z" fill="#D1701C"/>
<path d="M164.052 79.8538L161.987 73.4489L139.889 81.5954C139.957 81.5705 141.579 86.7997 141.962 88.0227L138.821 89.1806L140.313 93.8209L168.375 83.4757L166.882 78.8355L164.052 79.8538Z" fill="#865C50"/>
<path d="M148.054 82.3516C147.502 82.5299 146.909 82.8639 147.087 83.5004C147.265 84.1369 147.848 85.9527 147.96 86.2979C148.071 86.6431 148.471 86.8316 149.239 86.5734C150.007 86.3152 157.144 83.659 157.645 83.4743C158.146 83.2896 158.277 82.7902 158.166 82.3796C158.061 81.9672 157.466 80.2858 157.318 79.824C157.071 79.0574 156.334 79.3291 155.833 79.5138C155.29 79.7038 148.054 82.3516 148.054 82.3516Z" fill="#FCC219"/>
</g>
</g>
<defs>
<clipPath id="clip0_583_3834">
<rect width="179" height="208" fill="white"/>
</clipPath>
<clipPath id="clip1_583_3834">
<rect width="73.0545" height="73.0545" fill="white" transform="translate(-31 33.6707) rotate(-40.733)"/>
</clipPath>
<clipPath id="clip2_583_3834">
<rect width="78.6123" height="78.6123" fill="white" transform="translate(140.861 -23) rotate(36.5913)"/>
</clipPath>
<clipPath id="clip3_583_3834">
<rect width="65.9917" height="60.486" fill="white" transform="matrix(0.934413 -0.344479 0.305122 0.948754 106 44.7328)"/>
</clipPath>
</defs>
</svg>
