<svg width="140" height="140" viewBox="0 0 140 140" fill="none" xmlns="http://www.w3.org/2000/svg">
<g clip-path="url(#clip0_624_6144)">
<path d="M121.248 64.835C121.708 64.504 122.15 64.1477 122.571 63.7676C122.178 64.0672 121.784 64.4105 121.248 64.835Z" fill="black"/>
<path d="M122.585 63.7547L122.591 63.748L122.571 63.7614L122.585 63.7547Z" fill="black"/>
<path d="M116.528 59.8093L116.94 59.4785L116.528 59.8093Z" fill="black"/>
<path d="M19.4893 63.7802L18.272 62.7002C18.6576 63.0823 19.0639 63.4428 19.4893 63.7802Z" fill="black"/>
<path d="M18.2665 62.6874L18.2598 62.6807L18.2732 62.7008L18.2665 62.6874Z" fill="black"/>
<path d="M24.3391 58.5797L23.9458 58.2676L24.3391 58.5797Z" fill="black"/>
<path opacity="0.89" d="M105.926 105.927C125.768 86.0857 125.768 53.9162 105.926 34.0746C86.0849 14.2331 53.9154 14.2331 34.0738 34.0746C14.2322 53.9162 14.2322 86.0857 34.0738 105.927C53.9154 125.769 86.0849 125.769 105.926 105.927Z" fill="#C1FCE9"/>
<path d="M106.391 106.062C126.491 85.9622 126.491 53.3737 106.391 33.2737C86.2912 13.1738 53.7027 13.1738 33.6027 33.2737C13.5027 53.3737 13.5027 85.9622 33.6027 106.062C53.7027 126.162 86.2912 126.162 106.391 106.062Z" fill="#7DD6C7"/>
<path d="M57.4326 28.1302C57.5833 28.7068 57.8534 29.3458 58.4249 29.5224C59.3081 29.7978 59.9834 28.8159 60.7575 28.2652C61.8381 27.4652 63.355 27.5587 64.6382 27.9379C65.9214 28.3172 67.1631 28.9354 68.5034 29.0964C69.9825 29.2635 71.4695 28.8582 72.6595 27.9639C73.1251 27.637 73.5163 27.2153 73.8073 26.7264C74.0983 26.2375 74.2825 25.6926 74.3479 25.1274C74.4362 23.652 73.4024 22.2805 72.0984 21.5843C70.7619 20.9627 69.2954 20.6722 67.8228 20.7375C64.9962 20.7173 62.1829 21.1272 59.4795 21.9532C58.134 22.3636 57.5677 22.4103 57.2716 23.7663C56.9921 25.2142 57.0472 26.7068 57.4326 28.1302Z" fill="#1C976E"/>
<path d="M27.463 60.2433C28.225 61.5997 29.2273 62.9687 30.8382 63.649C31.6462 63.9912 32.669 64.2194 32.9963 64.9166C33.0984 65.1898 33.1366 65.4766 33.1088 65.7616C33.1088 66.556 33.1088 67.3504 33.0679 68.1489C33.0194 68.5166 33.1011 68.8879 33.3032 69.2179C33.6211 69.5202 34.0044 69.771 34.4334 69.9574C34.8599 70.2483 35.2045 70.6126 35.443 71.025C35.6815 71.4373 35.8082 71.8877 35.8141 72.3447C35.8186 73.2578 35.6583 74.1664 35.3385 75.0404C34.7249 77.0813 33.9731 79.2954 31.9019 80.5334C30.0353 81.6404 27.4067 81.6362 25.3509 80.7827C23.3146 79.8626 21.741 78.3738 20.9119 76.5827C20.1011 74.8015 19.6585 72.9204 19.6027 71.0179C19.3244 66.793 19.907 62.5595 21.3262 58.4941C21.7251 57.3617 21.7506 54.7758 23.5508 55.4645C25.6679 56.2673 26.5629 58.6588 27.463 60.2433Z" fill="#1C976E"/>
<path d="M64.9038 71.5745C64.1911 71.7291 63.4583 71.715 62.7505 71.5331C60.0394 71.0721 57.1942 70.7706 54.6226 71.8523C49.8047 73.8679 47.3209 81.2208 49.8305 86.3395C51.927 90.6247 56.4764 92.6107 58.9395 96.6241C61.759 101.211 61.3304 107.476 63.4579 112.524C64.109 114.274 65.2473 115.729 66.6957 116.661C68.1725 117.501 70.1141 117.418 71.3122 116.124C72.2313 115.119 72.5618 113.617 72.9284 112.223C73.8083 108.839 75.1055 105.617 76.7807 102.653C78.2627 100.035 80.1165 97.2211 79.6466 94.1534C79.2335 91.4995 77.1422 89.4781 76.7962 86.8123C76.5431 84.8677 77.2661 82.8581 76.8788 80.943C76.1559 77.3197 72.1384 76.0903 70.2071 73.0936C70.0076 72.8187 69.8804 72.4845 69.8405 72.1301C69.863 71.6573 70.025 71.2072 70.3 70.8534C71.9112 68.2231 73.6411 65.4746 76.1817 64.1034C77.0492 63.6364 78.2472 63.4414 78.8152 64.3398C79.0256 64.8055 79.1637 65.3095 79.2232 65.8293C79.4555 66.6734 79.9551 67.3876 80.6239 67.8316C81.2927 68.2757 82.0824 68.4174 82.8379 68.229C83.1514 68.8645 83.6362 69.3668 84.2198 69.6609C84.8034 69.9549 85.4544 70.0249 86.0756 69.8604C86.4348 69.6831 86.8285 69.6179 87.2169 69.6712C87.4138 69.7645 87.5901 69.9068 87.733 70.0877C87.8759 70.2687 87.9818 70.4838 88.0431 70.7174C88.6834 72.4434 88.6937 74.388 89.0758 76.2144C89.458 78.0408 90.4288 79.9382 92.0347 80.3519C93.8317 80.807 95.5668 79.1698 96.3569 77.237C97.147 75.3042 97.3225 73.1763 97.9525 71.2021C98.0169 70.8996 98.1337 70.6151 98.296 70.3653C98.4584 70.1155 98.6629 69.9056 98.8975 69.7481C99.4049 69.5923 99.9392 69.5923 100.447 69.7481C101.601 69.8295 102.759 69.6445 103.85 69.2043C108.254 67.7266 113.021 64.7358 113.831 59.558C114.451 55.6274 112.566 51.8386 111.533 48.0262C110.816 45.39 110.501 42.6002 109.468 40.1117C108.306 37.3337 106.333 35.1231 104.402 32.9775C102.998 31.423 101.474 29.7916 99.5481 29.3956C95.7992 28.6331 92.6079 32.8002 88.828 33.3322C88.0069 33.4504 87.1239 33.4031 86.4165 33.8937C85.931 34.2365 85.5851 34.8039 85.11 35.1704C83.2045 36.6244 80.855 34.2601 78.588 33.8996C77.2867 33.6868 76.0061 34.1656 74.7358 34.6443C72.8303 35.3654 70.8681 36.1279 69.3499 37.6352C67.8317 39.1424 66.8454 41.5835 67.4857 43.7941C67.535 44.0143 67.6308 44.2173 67.7646 44.3852C68.3688 45.0649 69.3137 44.1783 69.8663 43.4454C71.0965 41.906 72.7074 40.8324 74.4843 40.3677C76.2613 39.9031 78.1197 40.0694 79.8119 40.8447C80.2198 42.8839 78.2627 44.5211 76.445 44.9408C74.6274 45.3605 72.6341 45.2836 71.245 46.649C70.1503 47.7188 69.732 49.4684 69.7423 51.1116C69.7542 53.2225 70.3609 55.2726 71.4722 56.9573C71.7631 57.3138 71.9879 57.7341 72.1332 58.1926C72.6496 60.6574 69.8818 60.3264 68.7457 60.2082C67.3463 60.0663 67.1346 60.7047 67.1139 62.3006C67.0726 65.1495 68.3584 70.5165 64.9038 71.5745Z" fill="#1C976E"/>
<path d="M81.5787 89.4014L80.0202 91.4794C79.6952 91.8954 79.4067 92.3386 79.1578 92.8042C78.7284 93.7747 78.5497 94.8376 78.6383 95.8952C78.636 96.475 78.7676 97.0475 79.0227 97.568C79.1535 97.8256 79.3494 98.0446 79.5909 98.2031C79.8323 98.3617 80.1111 98.4544 80.3995 98.472C80.6739 98.4491 80.9403 98.3682 81.1812 98.2348C81.4221 98.1014 81.6319 97.9184 81.7969 97.6979C82.2874 97.0679 82.6798 96.3673 82.9607 95.6199L84.3945 92.3366C84.628 91.8669 84.7874 91.364 84.8673 90.8456C85.1114 88.4039 83.0542 87.4117 81.5787 89.4014Z" fill="#1C976E"/>
<path d="M104.879 80.6786C102.345 82.2516 100.284 84.4813 98.9146 87.131C98.1509 88.6219 97.6106 90.4039 98.26 91.952C98.8522 93.3807 100.307 94.2483 101.73 94.8665C103.154 95.4847 104.582 95.9055 106.058 95.6977C108.427 95.334 110.157 93.3131 111.497 91.3234C113.913 87.744 116.136 83.4944 116.692 79.1565C117.175 75.5562 113.357 76.3511 111.123 77.3382C108.97 78.3121 106.884 79.428 104.879 80.6786Z" fill="#1C976E"/>
<g style="mix-blend-mode:multiply" opacity="0.29">
<path d="M110.847 38.3789C111.193 40.794 111.368 43.2304 111.372 45.6701C111.372 56.4272 108.002 66.914 101.734 75.6566C95.4669 84.3992 86.6174 90.9581 76.4297 94.4114C66.242 97.8648 55.2283 98.0389 44.9366 94.9093C34.6448 91.7797 25.5924 85.5038 19.0518 76.9637C20.1656 84.7524 23.0506 92.1821 27.4848 98.6815C31.919 105.181 37.7845 110.577 44.6303 114.455C51.4762 118.333 59.1201 120.59 66.9745 121.052C74.8289 121.514 82.6847 120.169 89.938 117.12C97.1912 114.072 103.649 109.4 108.815 103.465C113.98 97.5307 117.716 90.4905 119.736 82.886C121.755 75.2816 122.004 67.3154 120.463 59.5997C118.922 51.8841 115.633 44.6245 110.847 38.3789Z" fill="#3EA797"/>
</g>
<path d="M47.686 44.5029C47.6361 44.5529 47.6423 44.6403 47.6423 44.7214C47.6645 44.6901 47.6798 44.6544 47.6873 44.6168C47.6949 44.5792 47.6944 44.5404 47.686 44.5029Z" fill="black"/>
<path d="M54.5591 43.5479V43.6065C54.5622 43.5871 54.5622 43.5673 54.5591 43.5479Z" fill="black"/>
<path d="M48.9723 48.5044L49.0535 48.4544C49.1846 48.623 49.0098 48.573 49.1534 48.7041C49.2969 48.7041 49.3656 48.9601 49.4592 48.9601C49.4592 48.9601 49.5217 49.035 49.4592 49.0599C49.5342 49.0599 49.5466 49.1161 49.6028 49.1473C49.659 49.1785 49.6028 49.1473 49.6028 49.0911L49.7214 49.1661C49.7214 49.2222 49.7214 49.2597 49.684 49.2285C49.9836 49.5269 50.3191 49.7869 50.6828 50.0025C51.0691 50.2342 51.4909 50.4008 51.9313 50.4957C51.8876 50.427 51.7565 50.427 51.7315 50.3396C51.8501 50.3396 51.8813 50.3958 51.9438 50.3396C51.9438 50.4707 52.1685 50.4208 52.2309 50.5581L52.2746 50.4957L52.3245 50.5456C52.5992 50.5456 52.6429 50.5456 52.6679 50.5456C52.7754 50.563 52.885 50.563 52.9925 50.5456C53.0822 50.5399 53.1705 50.521 53.2547 50.4895C53.3929 50.4307 53.5347 50.3806 53.6792 50.3396C53.6792 50.3396 53.5668 50.3396 53.6479 50.2897C53.6854 50.3396 53.8477 50.1711 53.9039 50.2085C53.9601 50.246 54.1973 50.065 54.0787 50.0275C54.1411 50.0275 54.3284 49.9526 54.241 50.0275C54.299 50.0019 54.3519 49.9659 54.397 49.9214H54.3097C54.4969 49.7841 54.628 49.7591 54.6842 49.6155H54.6031C54.6967 49.5344 54.7654 49.4595 54.859 49.4969L54.7778 49.5968C54.9042 49.4973 55.0102 49.3744 55.09 49.2347L55.0463 49.2722C55.09 49.1723 55.2835 48.9226 55.4395 48.6479C55.567 48.4576 55.66 48.2463 55.7142 48.0237L55.6206 48.0611V47.9051C55.6206 47.9051 55.7642 48.0736 55.7329 48.0736C55.9336 47.7322 56.0969 47.3701 56.2199 46.9937C56.2573 46.8751 56.2948 46.7502 56.326 46.6316L56.3759 46.3257C56.4134 46.1385 56.4446 45.9949 56.4633 45.9262C56.482 45.8575 56.5694 45.9262 56.5819 45.9262C56.5819 45.7826 56.5257 45.8513 56.5819 45.7389C56.6381 45.6266 56.6319 45.7389 56.6319 45.7764C56.6319 45.8139 56.6319 45.6765 56.6319 45.6703C56.6319 45.664 56.5195 45.6703 56.4633 45.7077V45.5579H56.5132C56.5132 45.5267 56.3946 45.4518 56.4446 45.3145C56.507 45.071 56.507 44.8463 56.5507 44.6153C56.5507 44.6153 56.5944 44.6715 56.6069 44.7214C56.6194 44.7714 56.6069 44.6465 56.6069 44.6215C56.6069 44.5966 56.6069 44.5217 56.5569 44.5654C56.4508 44.3843 56.5569 44.1846 56.5569 44.0347C56.4446 44.0035 54.6842 43.4917 54.5531 43.4729C54.5557 43.4377 54.5664 43.4035 54.5843 43.373C54.5531 43.373 54.5219 43.4667 54.5344 43.5166H54.6093C54.6093 43.6227 54.5594 43.5166 54.5531 43.6415C54.4969 43.6415 54.4969 43.5416 54.4969 43.4542C54.4969 43.5291 54.4345 43.604 54.4969 43.6415C54.5594 43.6789 54.4283 43.6415 54.3908 43.7101C54.3534 43.7788 54.447 43.86 54.3908 43.9286C54.3097 44.0972 54.447 44.2033 54.3908 44.3594C54.3534 44.4155 54.3908 44.5279 54.3346 44.6278C54.3346 44.5966 54.397 44.5778 54.397 44.6278C54.397 44.6777 54.397 44.8213 54.3159 44.8962L54.3596 44.9774C54.3221 45.1459 54.266 45.6016 54.2223 46.0074C54.164 46.2985 54.0653 46.5801 53.9289 46.8439C53.7861 47.1211 53.6031 47.3756 53.3858 47.5992C53.1236 47.8801 52.9363 47.9862 52.9176 48.0237C52.9176 48.0237 52.9176 48.0237 52.8676 48.0237C52.8177 48.0237 52.8676 48.0861 52.8676 48.0861C52.7178 48.0861 52.8676 48.1298 52.6804 48.1236C52.4256 48.1074 52.1789 48.0281 51.9625 47.8926C51.7291 47.7682 51.5181 47.6057 51.3382 47.4119C51.1822 47.4119 51.1073 47.2184 50.9824 47.156C50.8492 47.0268 50.7375 46.8772 50.6516 46.7128C50.5205 46.5005 50.4143 46.2696 50.3644 46.2009C50.252 46.0823 50.3644 46.0635 50.3207 45.9449C50.2458 45.9949 50.1397 45.895 50.1147 45.8451C50.0462 45.7613 49.9856 45.6715 49.9337 45.5766H49.9836C49.9085 45.4663 49.8594 45.3404 49.84 45.2083C49.8435 44.9653 49.8098 44.7233 49.7402 44.4904L49.865 44.3157C49.865 44.3157 49.4218 44.3157 48.9411 44.3157C48.4605 44.3157 47.9298 44.4155 47.7675 44.6403H47.7176V44.7214C47.7176 44.8213 47.7738 44.8588 47.7176 44.8588V44.7277C47.7176 44.8275 47.6801 44.7277 47.6489 44.7277C47.6554 44.7669 47.6554 44.807 47.6489 44.8463C47.6489 44.8463 47.6489 44.8463 47.6489 44.8088C47.6489 44.7714 47.7301 44.9274 47.7176 44.9961C47.7051 45.0648 47.6364 44.9961 47.6552 45.1334C47.708 45.7784 47.864 46.4106 48.1171 47.0062C48.1171 47.0062 48.1171 47.0062 48.0797 47.0062C48.1795 47.181 48.2545 47.3495 48.3606 47.5118C48.373 47.5461 48.373 47.5836 48.3606 47.6179C48.3481 47.5742 48.9474 48.4919 48.9723 48.5044Z" fill="black"/>
<path d="M83.3495 43.7031C83.3091 43.7683 83.2936 43.8459 83.3058 43.9216C83.3283 43.8905 83.3439 43.8548 83.3514 43.8171C83.359 43.7794 83.3583 43.7406 83.3495 43.7031Z" fill="black"/>
<path d="M90.2222 42.7607V42.8259C90.2254 42.8043 90.2254 42.7823 90.2222 42.7607Z" fill="black"/>
<path d="M84.6419 47.7178L84.7231 47.6741C84.8541 47.8364 84.6794 47.7865 84.8229 47.9238C84.9665 47.9238 85.0289 48.1735 85.1288 48.1735C85.1288 48.1735 85.185 48.2484 85.1288 48.2734C85.1975 48.2734 85.21 48.3358 85.2662 48.3608C85.3223 48.3858 85.2662 48.3608 85.2662 48.3109L85.3848 48.3858C85.3848 48.4357 85.3848 48.4794 85.3411 48.442C85.6402 48.7435 85.9782 49.0038 86.3461 49.216C86.7309 49.4507 87.1532 49.6176 87.5946 49.7092C87.5571 49.6468 87.4198 49.6468 87.3948 49.5531C87.5134 49.5531 87.5509 49.6093 87.6071 49.5531C87.6071 49.6842 87.838 49.628 87.9005 49.7716L87.9442 49.7092L87.9941 49.7591C88.1064 49.7655 88.2189 49.7655 88.3312 49.7591C88.3312 49.7591 88.3312 49.7591 88.6558 49.7591C88.7471 49.7545 88.8374 49.7377 88.9242 49.7092C89.0609 49.6466 89.203 49.5964 89.3487 49.5594C89.3175 49.5594 89.2364 49.5594 89.3113 49.5032C89.355 49.5594 89.511 49.3846 89.5672 49.4283C89.6234 49.472 89.8606 49.2784 89.7482 49.2472C89.8044 49.2472 89.9917 49.1723 89.9043 49.2472C89.9635 49.2238 90.0168 49.1876 90.0604 49.1411H89.973C90.1602 49.0038 90.2913 48.9851 90.3475 48.8415H90.2726C90.3662 48.7603 90.4349 48.6917 90.5223 48.7229L90.4474 48.8227C90.5731 48.7226 90.679 48.5998 90.7595 48.4607L90.7158 48.5044C90.7595 48.4045 90.9468 48.1486 91.1029 47.8801C91.2312 47.6895 91.3262 47.4784 91.3838 47.2559L91.2839 47.2933L91.3151 47.1373C91.3151 47.1373 91.4587 47.3058 91.4337 47.3121C91.6291 46.9688 91.7901 46.6071 91.9144 46.2321C91.9518 46.1073 91.9893 45.9887 92.0205 45.8701L92.0767 45.5642C92.0952 45.4289 92.1244 45.2953 92.1641 45.1647C92.2203 45.0585 92.2702 45.1647 92.2764 45.1647C92.2764 45.0273 92.2203 45.096 92.2452 44.9836C92.2702 44.8713 92.2952 44.9836 92.3014 44.9836C92.3076 44.9836 92.3326 44.89 92.3014 44.8775C92.2702 44.865 92.1953 44.8775 92.1391 44.915V44.7714H92.189C92.189 44.7402 92.0642 44.6715 92.1141 44.5279C92.1633 44.2993 92.1988 44.0679 92.2203 43.835C92.2203 43.835 92.264 43.8912 92.2764 43.9411C92.2889 43.9911 92.2764 43.86 92.3077 43.835C92.3389 43.8101 92.3076 43.7414 92.2515 43.7788C92.1516 43.5978 92.2889 43.4043 92.2515 43.2482C92.1453 43.2482 90.3787 42.7051 90.2539 42.6927C90.2471 42.6597 90.2471 42.6257 90.2539 42.5928C90.2539 42.5928 90.1977 42.6864 90.2102 42.7301H90.2789C90.2789 42.8425 90.2351 42.7301 90.2227 42.855C90.1665 42.855 90.1665 42.7551 90.1727 42.6739C90.1727 42.7488 90.1041 42.8175 90.1727 42.855C90.2414 42.8924 90.1041 42.855 90.0728 42.9236C90.0416 42.9923 90.129 43.0797 90.0728 43.1421C89.9917 43.3044 90.129 43.4168 90.0728 43.5666C90.0292 43.6165 90.0729 43.7351 90.0167 43.8288C90.0167 43.8288 90.0728 43.7788 90.0728 43.8288C90.0728 43.8787 90.0728 44.0285 89.9979 44.1034L90.0416 44.1784C90.0042 44.3531 89.948 44.8026 89.8981 45.2084C89.8406 45.4997 89.7418 45.7814 89.6047 46.0449C89.4604 46.3211 89.2775 46.5755 89.0616 46.8002C88.915 46.9499 88.7586 47.0897 88.5934 47.2184C88.5934 47.2184 88.5934 47.2184 88.5372 47.2184C88.481 47.2184 88.5372 47.2809 88.5372 47.2746C88.3936 47.2746 88.5372 47.3183 88.3499 47.3183C88.0978 47.2987 87.8539 47.2196 87.6383 47.0873C87.4017 46.9654 87.1899 46.8002 87.014 46.6004C86.858 46.6004 86.7831 46.4132 86.652 46.3507C86.5239 46.2195 86.4127 46.0727 86.3211 45.9138C86.19 45.7015 86.0902 45.4705 86.0402 45.3956C85.9278 45.2833 86.0402 45.2583 85.9965 45.1397C85.9154 45.1896 85.8155 45.0898 85.7905 45.0398C85.7026 44.9376 85.6252 44.8268 85.5595 44.709H85.6095C85.5369 44.595 85.4881 44.4676 85.4659 44.3344C85.4685 44.094 85.437 43.8544 85.3723 43.6228L85.4909 43.4417C85.4909 43.4417 85.0477 43.4417 84.5607 43.4417C84.0738 43.4417 83.5495 43.5416 83.3934 43.7726H83.3435V43.8538C83.3435 43.9536 83.3997 43.9848 83.3435 43.9911V43.8538C83.3435 43.9536 83.306 43.8912 83.2686 43.8538C83.272 43.8932 83.272 43.9329 83.2686 43.9724C83.2686 43.9724 83.2686 43.9724 83.2686 43.9411C83.2686 43.9099 83.3497 44.0535 83.3435 44.1222C83.3372 44.1908 83.2623 44.1222 83.2748 44.2595C83.3329 44.9036 83.4886 45.5351 83.7367 46.1322C83.7367 46.1322 83.7367 46.1322 83.7055 46.1322C83.789 46.3062 83.8828 46.4751 83.9864 46.6379C83.9974 46.6724 83.9974 46.7095 83.9864 46.744C84.0114 46.7877 84.6107 47.7116 84.6419 47.7178Z" fill="black"/>
<path d="M59.2974 51.9443C59.3545 52.0457 59.4334 52.1331 59.5283 52.2003C59.4801 52.0929 59.3993 52.0033 59.2974 51.9443Z" fill="black"/>
<path d="M80.4332 49.7285L80.3721 49.8032C80.3963 49.7818 80.417 49.7565 80.4332 49.7285Z" fill="black"/>
<path d="M76.149 51.3017L76.0928 51.3766C75.8181 51.2642 76.0553 51.2517 75.7869 51.1643C75.6371 51.2392 75.3624 50.9833 75.2501 51.0083C75.2501 51.0083 75.1252 50.9459 75.1502 50.9146C75.1752 50.8834 75.0128 50.9146 74.9255 50.8647C74.8381 50.8148 74.9255 50.8647 74.9567 50.9209L74.7631 50.8772C74.7007 50.8272 74.6945 50.7836 74.7631 50.8085C74.2099 50.5673 73.643 50.3588 73.0652 50.1843C72.4552 50.0015 71.8274 49.8843 71.1925 49.8347C71.2611 49.8971 71.4546 49.8784 71.5108 49.972C71.3485 50.0032 71.2799 49.9283 71.2049 49.972C71.1612 49.8347 70.8678 49.9096 70.7555 49.7785L70.7055 49.8409L70.6306 49.7972C70.3738 49.8315 70.1135 49.8315 69.8566 49.7972C69.5007 49.7972 69.3384 49.9221 69.1449 49.9034C69.1449 49.9034 69.251 49.9034 69.1449 49.9595C69.0388 50.0157 68.9077 50.0282 68.8578 49.9595C68.8078 49.8909 68.4832 50.0032 68.5893 50.0782C68.5394 50.0407 68.2835 50.0782 68.427 49.997C68.3507 49.9982 68.2749 50.0109 68.2023 50.0345H68.3147C68.0275 50.0906 67.859 50.0345 67.6904 50.1655H67.7965C67.628 50.203 67.4907 50.2342 67.4095 50.1655L67.5781 50.1094C67.3458 50.147 67.1192 50.2141 66.9039 50.3091H66.9913C66.8477 50.3903 66.4045 50.5401 65.9737 50.7274C65.6415 50.8598 65.3253 51.0295 65.0311 51.233H65.1685L64.975 51.3703C64.975 51.3703 64.975 51.1331 65.0249 51.1456C64.7877 51.2393 64.0885 51.5763 63.4268 51.9446C62.7651 52.313 62.1222 52.7062 61.9224 52.8186C61.7226 52.931 61.835 52.7499 61.835 52.7374C61.6602 52.881 61.7913 52.8498 61.629 52.9497C61.5791 52.9497 61.629 52.8997 61.629 52.8748C61.629 52.8498 61.4854 52.9559 61.4979 52.9809C61.5104 53.0059 61.604 53.0371 61.6727 53.0558L61.4604 53.1869V53.137C61.4167 53.1682 61.4292 53.3305 61.217 53.4491C60.8653 53.6785 60.5276 53.9286 60.2057 54.1982C60.2057 54.1982 60.2432 54.1045 60.2993 54.0359C60.253 54.0789 60.2004 54.1147 60.1433 54.142C60.2556 54.142 60.0309 54.2793 60.1058 54.2481C59.956 54.5353 59.5877 54.7101 59.4816 54.9598C59.4816 55.0097 59.7375 55.4592 59.9935 55.8899C60.1668 56.1973 60.3564 56.4953 60.5615 56.7826C60.5294 56.8254 60.4891 56.8615 60.4429 56.8887C60.4804 56.8887 60.5803 56.8075 60.6177 56.7451L60.574 56.6889C60.6739 56.5453 60.6302 56.6889 60.7426 56.5703C60.7925 56.6015 60.6926 56.7201 60.6115 56.8138C60.6926 56.7326 60.805 56.6827 60.7987 56.6015C60.8924 56.5453 60.8424 56.6639 60.9548 56.6015C61.0011 56.4986 61.0745 56.4101 61.167 56.3456C61.4043 56.2082 61.4167 56.0022 61.654 55.8899C61.7476 55.8899 61.8537 55.7151 62.0035 55.6402C61.9598 55.6402 61.9037 55.6402 61.9723 55.5902C62.0957 55.5023 62.225 55.423 62.3594 55.353L62.4343 55.2282C62.7027 55.0409 63.3644 54.6039 64.0698 54.1482C64.6255 53.8049 65.2008 53.4943 65.7927 53.2181C66.3953 52.9403 67.0222 52.7188 67.6655 52.5564C68.31 52.3922 68.9649 52.2712 69.6256 52.1943C69.7988 52.2244 69.9742 52.239 70.15 52.238C70.0626 52.238 70.0938 52.1756 70.15 52.1819C70.6369 52.1819 70.1812 52.1382 70.6806 52.1319C71.2318 52.1783 71.7749 52.2936 72.2974 52.4753C72.8385 52.6222 73.3684 52.8079 73.883 53.0308C74.1897 53.1025 74.4919 53.1921 74.7881 53.2993C75.094 53.3679 76.6609 54.1545 76.9605 54.3043H76.923C77.2227 54.3979 77.1478 54.4666 77.3475 54.6039C77.3475 54.5041 77.6222 54.6039 77.7158 54.6039C77.956 54.6844 78.1915 54.7782 78.4212 54.8848V54.9223C78.6555 55.0227 78.8792 55.1461 79.0892 55.2906C79.3984 55.5821 79.728 55.8512 80.0755 56.0959L80.2316 56.3955H80.2753C80.5179 56.203 80.7473 55.9945 80.9619 55.7713C81.2928 55.4155 81.5862 54.9722 81.4364 54.6227L81.4738 54.5914L81.3614 54.5165C81.2491 54.4042 81.1554 54.4104 81.1929 54.373L81.3677 54.5041C81.2491 54.3979 81.3677 54.4416 81.4176 54.4541C81.3696 54.4173 81.3256 54.3755 81.2865 54.3293C81.2491 54.3293 81.2865 54.3293 81.2865 54.3792C81.192 54.3478 81.1064 54.2943 81.0368 54.2231C80.9057 54.1233 81.0743 54.1482 80.9245 54.0359C80.1372 53.423 79.3022 52.874 78.4275 52.3941C78.4275 52.3941 78.4275 52.3941 78.4712 52.3941C78.1903 52.2693 77.9531 52.1319 77.6909 52.032C77.6531 51.9996 77.6268 51.9558 77.616 51.9072C77.3757 51.8301 77.1419 51.7341 76.9168 51.62L76.149 51.3017Z" fill="black"/>
<path opacity="0.09" d="M56.2211 46.7604C62.6508 40.8002 64.6654 32.5188 60.7208 28.2635C56.7762 24.0082 48.3662 25.3904 41.9365 31.3506C35.5067 37.3108 33.4922 45.5922 37.4367 49.8475C41.3813 54.1028 49.7914 52.7206 56.2211 46.7604Z" fill="#F3F3F3"/>
<path d="M92.8071 57.6309C95.9306 57.6309 98.4627 56.1524 98.4627 54.3286C98.4627 52.5048 95.9306 51.0264 92.8071 51.0264C89.6835 51.0264 87.1514 52.5048 87.1514 54.3286C87.1514 56.1524 89.6835 57.6309 92.8071 57.6309Z" fill="#EF8A99"/>
<path d="M51.5438 54.6594C51.6686 56.4822 49.234 58.0178 46.1191 58.0865C43.0041 58.1552 40.3635 56.7381 40.2449 54.9403C40.1263 53.1425 42.5546 51.5818 45.6758 51.5132C48.7971 51.4445 51.4252 52.8366 51.5438 54.6594Z" fill="#EF8A99"/>
</g>
<defs>
<clipPath id="clip0_624_6144">
<rect width="140" height="140" fill="white"/>
</clipPath>
</defs>
</svg>
