<?xml version="1.0" encoding="utf-8"?>
<!-- Generator: Adobe Illustrator 25.4.1, SVG Export Plug-In . SVG Version: 6.00 Build 0)  -->
<svg version="1.1" id="Lager_1" xmlns="http://www.w3.org/2000/svg" xmlns:xlink="http://www.w3.org/1999/xlink" x="0px" y="0px"
	 viewBox="0 0 140 140" style="enable-background:new 0 0 140 140;" xml:space="preserve">
<style type="text/css">
	.st0{opacity:0.89;fill:#C1FCE9;enable-background:new    ;}
	.st1{fill:#7DD6C7;}
	.st2{fill:#1C976E;}
	.st3{opacity:0.29;}
	.st4{fill:#3EA797;}
	.st5{opacity:9.000000e-02;fill:#F3F3F3;enable-background:new    ;}
	.st6{fill:#EF8A99;}
</style>
<g>
	<g>
		<path d="M121.2,64.8c0.5-0.3,0.9-0.7,1.3-1.1C122.2,64.1,121.8,64.4,121.2,64.8z"/>
		<path d="M122.6,63.8L122.6,63.8L122.6,63.8L122.6,63.8z"/>
		<path d="M116.5,59.8l0.4-0.3L116.5,59.8z"/>
		<path d="M19.5,63.8l-1.2-1.1C18.7,63.1,19.1,63.4,19.5,63.8z"/>
		<path d="M18.3,62.7L18.3,62.7L18.3,62.7L18.3,62.7z"/>
		<path d="M24.3,58.6l-0.4-0.3L24.3,58.6z"/>
		<path class="st0" d="M105.9,105.9c19.8-19.8,19.8-52,0-71.9c-19.8-19.8-52-19.8-71.9,0c-19.8,19.8-19.8,52,0,71.9
			C53.9,125.8,86.1,125.8,105.9,105.9z"/>
		<path class="st1" d="M106.4,106.1c20.1-20.1,20.1-52.7,0-72.8c-20.1-20.1-52.7-20.1-72.8,0c-20.1,20.1-20.1,52.7,0,72.8
			C53.7,126.2,86.3,126.2,106.4,106.1z"/>
		<path class="st2" d="M57.4,28.1c0.2,0.6,0.4,1.2,1,1.4c0.9,0.3,1.6-0.7,2.3-1.3c1.1-0.8,2.6-0.7,3.9-0.3c1.3,0.4,2.5,1,3.9,1.2
			c1.5,0.2,3-0.2,4.2-1.1c0.5-0.3,0.9-0.7,1.1-1.2c0.3-0.5,0.5-1,0.5-1.6c0.1-1.5-0.9-2.8-2.2-3.5c-1.3-0.6-2.8-0.9-4.3-0.8
			c-2.8,0-5.6,0.4-8.3,1.2c-1.3,0.4-1.9,0.5-2.2,1.8C57,25.2,57,26.7,57.4,28.1z"/>
		<path class="st2" d="M27.5,60.2c0.8,1.4,1.8,2.7,3.4,3.4c0.8,0.3,1.8,0.6,2.2,1.3c0.1,0.3,0.1,0.6,0.1,0.8c0,0.8,0,1.6,0,2.4
			c0,0.4,0,0.7,0.2,1.1c0.3,0.3,0.7,0.6,1.1,0.7c0.4,0.3,0.8,0.7,1,1.1c0.2,0.4,0.4,0.9,0.4,1.3c0,0.9-0.2,1.8-0.5,2.7
			c-0.6,2-1.4,4.3-3.4,5.5c-1.9,1.1-4.5,1.1-6.6,0.2c-2-0.9-3.6-2.4-4.4-4.2c-0.8-1.8-1.3-3.7-1.3-5.6c-0.3-4.2,0.3-8.5,1.7-12.5
			c0.4-1.1,0.4-3.7,2.2-3C25.7,56.3,26.6,58.7,27.5,60.2z"/>
		<path class="st2" d="M64.9,71.6c-0.7,0.2-1.4,0.1-2.2,0c-2.7-0.5-5.6-0.8-8.1,0.3c-4.8,2-7.3,9.4-4.8,14.5
			c2.1,4.3,6.6,6.3,9.1,10.3c2.8,4.6,2.4,10.9,4.5,15.9c0.7,1.8,1.8,3.2,3.2,4.1c1.5,0.8,3.4,0.8,4.6-0.5c0.9-1,1.2-2.5,1.6-3.9
			c0.9-3.4,2.2-6.6,3.9-9.6c1.5-2.6,3.3-5.4,2.9-8.5c-0.4-2.7-2.5-4.7-2.9-7.3c-0.3-1.9,0.5-4,0.1-5.9c-0.7-3.6-4.7-4.9-6.7-7.8
			c-0.2-0.3-0.3-0.6-0.4-1c0-0.5,0.2-0.9,0.5-1.3c1.6-2.6,3.3-5.4,5.9-6.8c0.9-0.5,2.1-0.7,2.6,0.2c0.2,0.5,0.3,1,0.4,1.5
			c0.2,0.8,0.7,1.6,1.4,2c0.7,0.4,1.5,0.6,2.2,0.4c0.3,0.6,0.8,1.1,1.4,1.4c0.6,0.3,1.2,0.4,1.9,0.2c0.4-0.2,0.8-0.2,1.1-0.2
			c0.2,0.1,0.4,0.2,0.5,0.4c0.1,0.2,0.2,0.4,0.3,0.6c0.6,1.7,0.7,3.7,1,5.5c0.4,1.8,1.4,3.7,3,4.1c1.8,0.5,3.5-1.2,4.3-3.1
			s1-4.1,1.6-6c0.1-0.3,0.2-0.6,0.3-0.8c0.2-0.2,0.4-0.5,0.6-0.6c0.5-0.2,1-0.2,1.5,0c1.2,0.1,2.3-0.1,3.4-0.5
			c4.4-1.5,9.2-4.5,10-9.6c0.6-3.9-1.3-7.7-2.3-11.5c-0.7-2.6-1-5.4-2.1-7.9c-1.2-2.8-3.1-5-5.1-7.1c-1.4-1.6-2.9-3.2-4.9-3.6
			c-3.7-0.8-6.9,3.4-10.7,3.9c-0.8,0.1-1.7,0.1-2.4,0.6c-0.5,0.3-0.8,0.9-1.3,1.3c-1.9,1.5-4.3-0.9-6.5-1.3
			c-1.3-0.2-2.6,0.3-3.9,0.7c-1.9,0.7-3.9,1.5-5.4,3c-1.5,1.5-2.5,3.9-1.9,6.2c0,0.2,0.1,0.4,0.3,0.6c0.6,0.7,1.5-0.2,2.1-0.9
			c1.2-1.5,2.8-2.6,4.6-3.1c1.8-0.5,3.6-0.3,5.3,0.5c0.4,2-1.5,3.7-3.4,4.1c-1.8,0.4-3.8,0.3-5.2,1.7c-1.1,1.1-1.5,2.8-1.5,4.5
			c0,2.1,0.6,4.2,1.7,5.8c0.3,0.4,0.5,0.8,0.7,1.2c0.5,2.5-2.3,2.1-3.4,2c-1.4-0.1-1.6,0.5-1.6,2.1C67.1,65.1,68.4,70.5,64.9,71.6z"
			/>
		<path class="st2" d="M81.6,89.4L80,91.5c-0.3,0.4-0.6,0.9-0.9,1.3c-0.4,1-0.6,2-0.5,3.1c0,0.6,0.1,1.2,0.4,1.7
			c0.1,0.3,0.3,0.5,0.6,0.6c0.2,0.2,0.5,0.3,0.8,0.3c0.3,0,0.5-0.1,0.8-0.2s0.5-0.3,0.6-0.5c0.5-0.6,0.9-1.3,1.2-2.1l1.4-3.3
			c0.2-0.5,0.4-1,0.5-1.5C85.1,88.4,83.1,87.4,81.6,89.4z"/>
		<path class="st2" d="M104.9,80.7c-2.5,1.6-4.6,3.8-6,6.5c-0.8,1.5-1.3,3.3-0.7,4.8c0.6,1.4,2,2.3,3.5,2.9c1.4,0.6,2.9,1,4.3,0.8
			c2.4-0.4,4.1-2.4,5.4-4.4c2.4-3.6,4.6-7.8,5.2-12.2c0.5-3.6-3.3-2.8-5.6-1.8C109,78.3,106.9,79.4,104.9,80.7z"/>
		<g class="st3">
			<path class="st4" d="M110.8,38.4c0.3,2.4,0.5,4.9,0.5,7.3c0,10.8-3.4,21.2-9.6,30C95.5,84.4,86.6,91,76.4,94.4
				c-10.2,3.5-21.2,3.6-31.5,0.5C34.6,91.8,25.6,85.5,19.1,77c1.1,7.8,4,15.2,8.4,21.7c4.4,6.5,10.3,11.9,17.1,15.8
				c6.8,3.9,14.5,6.1,22.3,6.6c7.9,0.5,15.7-0.9,23-3.9c7.3-3,13.7-7.7,18.9-13.7c5.2-5.9,8.9-13,10.9-20.6c2-7.6,2.3-15.6,0.7-23.3
				C118.9,51.9,115.6,44.6,110.8,38.4z"/>
		</g>
		<path d="M47.7,44.5c0,0,0,0.1,0,0.2c0,0,0-0.1,0-0.1C47.7,44.6,47.7,44.5,47.7,44.5z"/>
		<path d="M54.6,43.5L54.6,43.5C54.6,43.6,54.6,43.6,54.6,43.5z"/>
		<path d="M49,48.5L49,48.5c0.2,0.1,0,0.1,0.2,0.2c0.1,0,0.2,0.3,0.3,0.3c0,0,0.1,0.1,0,0.1c0.1,0,0.1,0.1,0.1,0.1c0.1,0,0,0,0-0.1
			l0.1,0.1c0,0.1,0,0.1,0,0.1c0.3,0.3,0.6,0.6,1,0.8c0.4,0.2,0.8,0.4,1.2,0.5c0-0.1-0.2-0.1-0.2-0.2c0.1,0,0.1,0.1,0.2,0
			c0,0.1,0.2,0.1,0.3,0.2l0-0.1l0,0c0.3,0,0.3,0,0.3,0c0.1,0,0.2,0,0.3,0c0.1,0,0.2,0,0.3-0.1c0.1-0.1,0.3-0.1,0.4-0.1
			c0,0-0.1,0,0,0c0,0,0.2-0.1,0.3-0.1c0.1,0,0.3-0.1,0.2-0.2c0.1,0,0.2-0.1,0.2,0c0.1,0,0.1-0.1,0.2-0.1h-0.1
			c0.2-0.1,0.3-0.2,0.4-0.3h-0.1c0.1-0.1,0.2-0.2,0.3-0.1l-0.1,0.1c0.1-0.1,0.2-0.2,0.3-0.4l0,0c0-0.1,0.2-0.3,0.4-0.6
			c0.1-0.2,0.2-0.4,0.3-0.6l-0.1,0v-0.2c0,0,0.1,0.2,0.1,0.2c0.2-0.3,0.4-0.7,0.5-1.1c0-0.1,0.1-0.2,0.1-0.4l0-0.3
			c0-0.2,0.1-0.3,0.1-0.4c0-0.1,0.1,0,0.1,0c0-0.1-0.1-0.1,0-0.2c0.1-0.1,0,0,0,0c0,0,0-0.1,0-0.1c0,0-0.1,0-0.2,0v-0.1h0
			c0,0-0.1-0.1-0.1-0.2c0.1-0.2,0.1-0.5,0.1-0.7c0,0,0,0.1,0.1,0.1c0,0,0-0.1,0-0.1c0,0,0-0.1,0-0.1c-0.1-0.2,0-0.4,0-0.5
			c-0.1,0-1.9-0.5-2-0.6c0,0,0-0.1,0-0.1c0,0-0.1,0.1,0,0.1h0.1c0,0.1,0,0-0.1,0.1c-0.1,0-0.1-0.1-0.1-0.2c0,0.1-0.1,0.1,0,0.2
			c0.1,0-0.1,0-0.1,0.1c0,0.1,0.1,0.1,0,0.2c-0.1,0.2,0.1,0.3,0,0.4c0,0.1,0,0.2-0.1,0.3c0,0,0.1,0,0.1,0c0,0,0,0.2-0.1,0.3l0,0.1
			c0,0.2-0.1,0.6-0.1,1c-0.1,0.3-0.2,0.6-0.3,0.8c-0.1,0.3-0.3,0.5-0.5,0.8c-0.3,0.3-0.4,0.4-0.5,0.4c0,0,0,0,0,0c0,0,0,0.1,0,0.1
			c-0.1,0,0,0-0.2,0c-0.3,0-0.5-0.1-0.7-0.2c-0.2-0.1-0.4-0.3-0.6-0.5c-0.2,0-0.2-0.2-0.4-0.3c-0.1-0.1-0.2-0.3-0.3-0.4
			c-0.1-0.2-0.2-0.4-0.3-0.5c-0.1-0.1,0-0.1,0-0.3c-0.1,0-0.2,0-0.2-0.1c-0.1-0.1-0.1-0.2-0.2-0.3h0c-0.1-0.1-0.1-0.2-0.1-0.4
			c0-0.2,0-0.5-0.1-0.7l0.1-0.2c0,0-0.4,0-0.9,0c-0.5,0-1,0.1-1.2,0.3h0v0.1c0,0.1,0.1,0.1,0,0.1v-0.1c0,0.1,0,0-0.1,0
			c0,0,0,0.1,0,0.1c0,0,0,0,0,0c0,0,0.1,0.1,0.1,0.2c0,0.1-0.1,0-0.1,0.1c0.1,0.6,0.2,1.3,0.5,1.9c0,0,0,0,0,0
			c0.1,0.2,0.2,0.3,0.3,0.5c0,0,0,0.1,0,0.1C48.3,47.6,48.9,48.5,49,48.5z"/>
		<path d="M83.3,43.7c0,0.1-0.1,0.1,0,0.2c0,0,0-0.1,0-0.1C83.4,43.8,83.4,43.7,83.3,43.7z"/>
		<path d="M90.2,42.8L90.2,42.8C90.2,42.8,90.2,42.8,90.2,42.8z"/>
		<path d="M84.6,47.7L84.6,47.7c0.2,0.1,0,0.1,0.2,0.2c0.1,0,0.2,0.2,0.3,0.2c0,0,0.1,0.1,0,0.1c0.1,0,0.1,0.1,0.1,0.1
			c0.1,0,0,0,0,0l0.1,0.1c0,0,0,0.1,0,0.1c0.3,0.3,0.6,0.6,1,0.8c0.4,0.2,0.8,0.4,1.2,0.5c0-0.1-0.2-0.1-0.2-0.2
			c0.1,0,0.2,0.1,0.2,0c0,0.1,0.2,0.1,0.3,0.2l0-0.1l0,0c0.1,0,0.2,0,0.3,0c0,0,0,0,0.3,0c0.1,0,0.2,0,0.3,0
			c0.1-0.1,0.3-0.1,0.4-0.1c0,0-0.1,0,0-0.1c0,0.1,0.2-0.1,0.3-0.1c0.1,0,0.3-0.1,0.2-0.2c0.1,0,0.2-0.1,0.2,0
			c0.1,0,0.1-0.1,0.2-0.1H90c0.2-0.1,0.3-0.2,0.4-0.3h-0.1c0.1-0.1,0.2-0.1,0.2-0.1l-0.1,0.1c0.1-0.1,0.2-0.2,0.3-0.4l0,0
			c0-0.1,0.2-0.4,0.4-0.6c0.1-0.2,0.2-0.4,0.3-0.6l-0.1,0l0-0.2c0,0,0.1,0.2,0.1,0.2c0.2-0.3,0.4-0.7,0.5-1.1c0-0.1,0.1-0.2,0.1-0.4
			l0.1-0.3c0-0.1,0-0.3,0.1-0.4c0.1-0.1,0.1,0,0.1,0c0-0.1-0.1-0.1,0-0.2c0-0.1,0,0,0.1,0s0-0.1,0-0.1c0,0-0.1,0-0.2,0v-0.1h0
			c0,0-0.1-0.1-0.1-0.2c0-0.2,0.1-0.5,0.1-0.7c0,0,0,0.1,0.1,0.1c0,0,0-0.1,0-0.1c0,0,0-0.1-0.1-0.1c-0.1-0.2,0-0.4,0-0.5
			c-0.1,0-1.9-0.5-2-0.6c0,0,0-0.1,0-0.1c0,0-0.1,0.1,0,0.1h0.1c0,0.1,0,0-0.1,0.1c-0.1,0-0.1-0.1-0.1-0.2c0,0.1-0.1,0.1,0,0.2
			c0.1,0-0.1,0-0.1,0.1c0,0.1,0.1,0.2,0,0.2c-0.1,0.2,0.1,0.3,0,0.4c0,0,0,0.2-0.1,0.3c0,0,0.1,0,0.1,0c0,0,0,0.2-0.1,0.3l0,0.1
			c0,0.2-0.1,0.6-0.1,1c-0.1,0.3-0.2,0.6-0.3,0.8c-0.1,0.3-0.3,0.5-0.5,0.8c-0.1,0.1-0.3,0.3-0.5,0.4c0,0,0,0-0.1,0s0,0.1,0,0.1
			c-0.1,0,0,0-0.2,0c-0.3,0-0.5-0.1-0.7-0.2c-0.2-0.1-0.4-0.3-0.6-0.5c-0.2,0-0.2-0.2-0.4-0.2c-0.1-0.1-0.2-0.3-0.3-0.4
			c-0.1-0.2-0.2-0.4-0.3-0.5c-0.1-0.1,0-0.1,0-0.3c-0.1,0-0.2,0-0.2-0.1c-0.1-0.1-0.2-0.2-0.2-0.3h0c-0.1-0.1-0.1-0.2-0.1-0.4
			c0-0.2,0-0.5-0.1-0.7l0.1-0.2c0,0-0.4,0-0.9,0c-0.5,0-1,0.1-1.2,0.3h0v0.1c0,0.1,0.1,0.1,0,0.1v-0.1c0,0.1,0,0-0.1,0
			c0,0,0,0.1,0,0.1c0,0,0,0,0,0c0,0,0.1,0.1,0.1,0.2c0,0.1-0.1,0-0.1,0.1c0.1,0.6,0.2,1.3,0.5,1.9c0,0,0,0,0,0
			c0.1,0.2,0.2,0.3,0.3,0.5c0,0,0,0.1,0,0.1C84,46.8,84.6,47.7,84.6,47.7z"/>
		<path d="M59.3,51.9c0.1,0.1,0.1,0.2,0.2,0.3C59.5,52.1,59.4,52,59.3,51.9z"/>
		<path d="M80.4,49.7L80.4,49.7C80.4,49.8,80.4,49.8,80.4,49.7z"/>
		<path d="M64.8,55.4L64.8,55.4c0.3,0,0.1,0,0.4,0.1c0.1-0.1,0.4,0.2,0.5,0.2c0,0,0.1,0.1,0.1,0.1c0,0,0.1,0,0.2,0c0.1,0,0,0,0-0.1
			l0.2,0c0.1,0,0.1,0.1,0,0.1c0.6,0.2,1.1,0.4,1.7,0.6c0.6,0.2,1.2,0.3,1.9,0.3c-0.1-0.1-0.3,0-0.3-0.1c0.2,0,0.2,0,0.3,0
			c0,0.1,0.3,0.1,0.4,0.2l0.1-0.1l0.1,0c0.3,0,0.5,0,0.8,0c0.4,0,0.5-0.1,0.7-0.1c0,0-0.1,0,0-0.1c0.1-0.1,0.2-0.1,0.3,0
			c0.1,0.1,0.4,0,0.3-0.1c0,0,0.3,0,0.2,0.1c0.1,0,0.2,0,0.2,0h-0.1c0.3-0.1,0.5,0,0.6-0.1h-0.1c0.2,0,0.3-0.1,0.4,0l-0.2,0.1
			c0.2,0,0.5-0.1,0.7-0.2H74c0.1-0.1,0.6-0.2,1-0.4c0.3-0.1,0.6-0.3,0.9-0.5h-0.1l0.2-0.1c0,0,0,0.2,0,0.2c0.2-0.1,0.9-0.4,1.6-0.8
			c0.7-0.4,1.3-0.8,1.5-0.9c0.2-0.1,0.1,0.1,0.1,0.1c0.2-0.1,0-0.1,0.2-0.2c0,0,0,0,0,0.1c0,0,0.1-0.1,0.1-0.1c0,0-0.1-0.1-0.2-0.1
			l0.2-0.1v0c0,0,0-0.2,0.2-0.3c0.4-0.2,0.7-0.5,1-0.7c0,0,0,0.1-0.1,0.2c0,0,0.1-0.1,0.2-0.1c-0.1,0,0.1-0.1,0-0.1
			c0.1-0.3,0.5-0.5,0.6-0.7c0,0-0.3-0.5-0.5-0.9c-0.2-0.3-0.4-0.6-0.6-0.9c0,0,0.1-0.1,0.1-0.1c0,0-0.1,0.1-0.2,0.1l0,0.1
			c-0.1,0.1-0.1,0-0.2,0.1c0,0,0.1-0.1,0.1-0.2c-0.1,0.1-0.2,0.1-0.2,0.2c-0.1,0.1,0-0.1-0.2,0c0,0.1-0.1,0.2-0.2,0.3
			c-0.2,0.1-0.2,0.3-0.5,0.5c-0.1,0-0.2,0.2-0.3,0.2c0,0,0.1,0,0,0.1c-0.1,0.1-0.3,0.2-0.4,0.2l-0.1,0.1c-0.3,0.2-0.9,0.6-1.6,1.1
			c-0.6,0.3-1.1,0.7-1.7,0.9c-0.6,0.3-1.2,0.5-1.9,0.7c-0.6,0.2-1.3,0.3-2,0.4c-0.2,0-0.3,0-0.5,0c0.1,0,0.1,0.1,0,0.1
			c-0.5,0,0,0-0.5,0c-0.6,0-1.1-0.2-1.6-0.3c-0.5-0.1-1.1-0.3-1.6-0.6c-0.3-0.1-0.6-0.2-0.9-0.3c-0.3-0.1-1.9-0.9-2.2-1h0
			c-0.3-0.1-0.2-0.2-0.4-0.3c0,0.1-0.3,0-0.4,0c-0.2-0.1-0.5-0.2-0.7-0.3v0c-0.2-0.1-0.5-0.2-0.7-0.4c-0.3-0.3-0.6-0.6-1-0.8
			l-0.2-0.3h0c-0.2,0.2-0.5,0.4-0.7,0.6c-0.3,0.4-0.6,0.8-0.5,1.1l0,0l0.1,0.1c0.1,0.1,0.2,0.1,0.2,0.1l-0.2-0.1c0.1,0.1,0,0.1,0,0
			c0,0,0.1,0.1,0.1,0.1c0,0,0,0,0,0c0.1,0,0.2,0.1,0.2,0.2c0.1,0.1,0,0.1,0.1,0.2c0.8,0.6,1.6,1.2,2.5,1.6c0,0,0,0,0,0
			c0.3,0.1,0.5,0.3,0.8,0.4c0,0,0.1,0.1,0.1,0.1c0.2,0.1,0.5,0.2,0.7,0.3L64.8,55.4z"/>
		<path class="st5" d="M56.2,46.8c6.4-6,8.4-14.2,4.5-18.5s-12.4-2.9-18.8,3.1c-6.4,6-8.4,14.2-4.5,18.5
			C41.4,54.1,49.8,52.7,56.2,46.8z"/>
		<path class="st6" d="M92.8,57.6c3.1,0,5.7-1.5,5.7-3.3c0-1.8-2.5-3.3-5.7-3.3c-3.1,0-5.7,1.5-5.7,3.3
			C87.2,56.2,89.7,57.6,92.8,57.6z"/>
		<path class="st6" d="M51.5,54.7c0.1,1.8-2.3,3.4-5.4,3.4c-3.1,0.1-5.8-1.3-5.9-3.1s2.3-3.4,5.4-3.4C48.8,51.4,51.4,52.8,51.5,54.7
			z"/>
	</g>
</g>
</svg>
