<svg width="140" height="140" viewBox="0 0 140 140" fill="none" xmlns="http://www.w3.org/2000/svg">
<g clip-path="url(#clip0_619_5258)">
<path d="M121.248 64.8345C121.708 64.5036 122.15 64.1472 122.571 63.7671C122.178 64.0667 121.784 64.41 121.248 64.8345Z" fill="black"/>
<path d="M122.585 63.7552L122.591 63.7485L122.571 63.7619L122.585 63.7552Z" fill="black"/>
<path d="M116.528 59.8093L116.94 59.4785L116.528 59.8093Z" fill="black"/>
<path d="M19.4893 63.7797L18.272 62.6997C18.6576 63.0818 19.0639 63.4424 19.4893 63.7797Z" fill="black"/>
<path d="M18.2665 62.6878L18.2598 62.6812L18.2732 62.7012L18.2665 62.6878Z" fill="black"/>
<path d="M24.3391 58.5797L23.9458 58.2676L24.3391 58.5797Z" fill="black"/>
<path opacity="0.89" d="M105.926 105.928C125.768 86.0862 125.768 53.9167 105.926 34.0751C86.0849 14.2336 53.9154 14.2336 34.0738 34.0751C14.2322 53.9167 14.2322 86.0862 34.0738 105.928C53.9154 125.769 86.0849 125.769 105.926 105.928Z" fill="#C1FCE9"/>
<path d="M106.391 106.062C126.491 85.9617 126.491 53.3732 106.391 33.2733C86.2912 13.1733 53.7027 13.1733 33.6027 33.2732C13.5027 53.3732 13.5027 85.9617 33.6027 106.062C53.7027 126.162 86.2912 126.162 106.391 106.062Z" fill="#7DD6C7"/>
<path d="M57.4326 28.1297C57.5833 28.7063 57.8534 29.3453 58.4249 29.522C59.3081 29.7973 59.9834 28.8154 60.7575 28.2647C61.8381 27.4647 63.355 27.5582 64.6382 27.9374C65.9214 28.3167 67.1631 28.9349 68.5034 29.096C69.9825 29.263 71.4695 28.8578 72.6595 27.9634C73.1251 27.6365 73.5163 27.2148 73.8073 26.7259C74.0983 26.237 74.2825 25.6921 74.3479 25.1269C74.4362 23.6515 73.4024 22.28 72.0984 21.5838C70.7619 20.9622 69.2954 20.6717 67.8228 20.737C64.9962 20.7168 62.1829 21.1267 59.4795 21.9527C58.134 22.3631 57.5677 22.4099 57.2716 23.7658C56.9921 25.2137 57.0472 26.7063 57.4326 28.1297Z" fill="#1C976E"/>
<path d="M27.463 60.2429C28.225 61.5992 29.2273 62.9682 30.8382 63.6485C31.6462 63.9907 32.669 64.2189 32.9963 64.9161C33.0984 65.1893 33.1366 65.4761 33.1088 65.7611C33.1088 66.5555 33.1088 67.3499 33.0679 68.1485C33.0194 68.5161 33.1011 68.8875 33.3032 69.2175C33.6211 69.5197 34.0044 69.7705 34.4334 69.9569C34.8599 70.2478 35.2045 70.6121 35.443 71.0245C35.6815 71.4368 35.8082 71.8872 35.8141 72.3442C35.8186 73.2573 35.6583 74.1659 35.3385 75.04C34.7249 77.0808 33.9731 79.2949 31.9019 80.5329C30.0353 81.6399 27.4067 81.6357 25.3509 80.7822C23.3146 79.8621 21.741 78.3733 20.9119 76.5822C20.1011 74.801 19.6585 72.9199 19.6027 71.0174C19.3244 66.7925 19.907 62.559 21.3262 58.4936C21.7251 57.3612 21.7506 54.7753 23.5508 55.464C25.6679 56.2668 26.5629 58.6584 27.463 60.2429Z" fill="#1C976E"/>
<path d="M64.9038 71.5745C64.1911 71.7291 63.4583 71.715 62.7505 71.5331C60.0394 71.0721 57.1942 70.7706 54.6226 71.8523C49.8047 73.8679 47.3209 81.2208 49.8305 86.3395C51.927 90.6247 56.4764 92.6107 58.9395 96.6241C61.759 101.211 61.3304 107.476 63.4579 112.524C64.109 114.274 65.2473 115.729 66.6957 116.661C68.1725 117.501 70.1141 117.418 71.3122 116.124C72.2313 115.119 72.5618 113.617 72.9284 112.223C73.8083 108.839 75.1055 105.617 76.7807 102.653C78.2627 100.035 80.1165 97.2211 79.6466 94.1534C79.2335 91.4995 77.1422 89.4781 76.7962 86.8123C76.5431 84.8677 77.2661 82.8581 76.8788 80.943C76.1559 77.3197 72.1384 76.0903 70.2071 73.0936C70.0076 72.8187 69.8804 72.4845 69.8405 72.1301C69.863 71.6573 70.025 71.2072 70.3 70.8534C71.9112 68.2231 73.6411 65.4746 76.1817 64.1034C77.0492 63.6364 78.2472 63.4414 78.8152 64.3398C79.0256 64.8055 79.1637 65.3095 79.2232 65.8293C79.4555 66.6734 79.9551 67.3876 80.6239 67.8316C81.2927 68.2757 82.0824 68.4174 82.8379 68.229C83.1514 68.8645 83.6362 69.3668 84.2198 69.6609C84.8034 69.9549 85.4544 70.0249 86.0756 69.8604C86.4348 69.6831 86.8285 69.6179 87.2169 69.6712C87.4138 69.7645 87.5901 69.9068 87.733 70.0877C87.8759 70.2687 87.9818 70.4838 88.0431 70.7174C88.6834 72.4434 88.6937 74.388 89.0758 76.2144C89.458 78.0408 90.4288 79.9382 92.0347 80.3519C93.8317 80.807 95.5668 79.1698 96.3569 77.237C97.147 75.3042 97.3225 73.1763 97.9525 71.2021C98.0169 70.8996 98.1337 70.6151 98.296 70.3653C98.4584 70.1155 98.6629 69.9056 98.8975 69.7481C99.4049 69.5923 99.9392 69.5923 100.447 69.7481C101.601 69.8295 102.759 69.6445 103.85 69.2043C108.254 67.7266 113.021 64.7358 113.831 59.558C114.451 55.6274 112.566 51.8386 111.533 48.0262C110.816 45.39 110.501 42.6002 109.468 40.1117C108.306 37.3337 106.333 35.1231 104.402 32.9775C102.998 31.423 101.474 29.7916 99.5481 29.3956C95.7992 28.6331 92.6079 32.8002 88.828 33.3322C88.0069 33.4504 87.1239 33.4031 86.4165 33.8937C85.931 34.2365 85.5851 34.8039 85.11 35.1704C83.2045 36.6244 80.855 34.2601 78.588 33.8996C77.2867 33.6868 76.0061 34.1656 74.7358 34.6443C72.8303 35.3654 70.8681 36.1279 69.3499 37.6352C67.8317 39.1424 66.8454 41.5835 67.4857 43.7941C67.535 44.0143 67.6308 44.2173 67.7646 44.3852C68.3688 45.0649 69.3137 44.1783 69.8663 43.4454C71.0965 41.906 72.7074 40.8324 74.4843 40.3677C76.2613 39.9031 78.1197 40.0694 79.8119 40.8447C80.2198 42.8839 78.2627 44.5211 76.445 44.9408C74.6274 45.3605 72.6341 45.2836 71.245 46.649C70.1503 47.7188 69.732 49.4684 69.7423 51.1116C69.7542 53.2225 70.3609 55.2726 71.4722 56.9573C71.7631 57.3138 71.9879 57.7341 72.1332 58.1926C72.6496 60.6574 69.8818 60.3264 68.7457 60.2082C67.3463 60.0663 67.1346 60.7047 67.1139 62.3006C67.0726 65.1495 68.3584 70.5165 64.9038 71.5745Z" fill="#1C976E"/>
<path d="M81.5787 89.4009L80.0202 91.4789C79.6952 91.8949 79.4067 92.3381 79.1578 92.8037C78.7284 93.7742 78.5497 94.8371 78.6383 95.8947C78.636 96.4745 78.7676 97.047 79.0227 97.5676C79.1535 97.8252 79.3494 98.0441 79.5909 98.2026C79.8323 98.3612 80.1111 98.4539 80.3995 98.4715C80.6739 98.4486 80.9403 98.3677 81.1812 98.2343C81.4221 98.1009 81.6319 97.9179 81.7969 97.6974C82.2874 97.0674 82.6798 96.3668 82.9607 95.6194L84.3945 92.3361C84.628 91.8664 84.7874 91.3635 84.8673 90.8451C85.1114 88.4034 83.0542 87.4112 81.5787 89.4009Z" fill="#1C976E"/>
<path d="M104.879 80.6781C102.345 82.2511 100.284 84.4808 98.9146 87.1305C98.1509 88.6215 97.6106 90.4034 98.26 91.9515C98.8522 93.3802 100.307 94.2478 101.73 94.866C103.154 95.4842 104.582 95.905 106.058 95.6972C108.427 95.3335 110.157 93.3127 111.497 91.3229C113.913 87.7435 116.136 83.4939 116.692 79.156C117.175 75.5558 113.357 76.3506 111.123 77.3377C108.97 78.3116 106.884 79.4275 104.879 80.6781Z" fill="#1C976E"/>
<g style="mix-blend-mode:multiply" opacity="0.29">
<path d="M110.847 38.3789C111.193 40.794 111.368 43.2304 111.372 45.6701C111.372 56.4272 108.002 66.914 101.734 75.6566C95.4669 84.3992 86.6174 90.9581 76.4297 94.4114C66.242 97.8648 55.2283 98.0389 44.9366 94.9093C34.6448 91.7797 25.5924 85.5038 19.0518 76.9637C20.1656 84.7524 23.0506 92.1821 27.4848 98.6815C31.919 105.181 37.7845 110.577 44.6303 114.455C51.4762 118.333 59.1201 120.59 66.9745 121.052C74.8289 121.514 82.6847 120.169 89.938 117.12C97.1912 114.072 103.649 109.4 108.815 103.465C113.98 97.5307 117.716 90.4905 119.736 82.886C121.755 75.2816 122.004 67.3154 120.463 59.5997C118.922 51.8841 115.633 44.6245 110.847 38.3789Z" fill="#3EA797"/>
</g>
<path d="M47.686 44.5029C47.6361 44.5529 47.6423 44.6403 47.6423 44.7214C47.6645 44.6901 47.6798 44.6544 47.6873 44.6168C47.6949 44.5792 47.6944 44.5404 47.686 44.5029Z" fill="black"/>
<path d="M54.5591 43.5479V43.6065C54.5622 43.5871 54.5622 43.5673 54.5591 43.5479Z" fill="black"/>
<path d="M48.9723 48.5044L49.0535 48.4544C49.1846 48.623 49.0098 48.573 49.1534 48.7041C49.2969 48.7041 49.3656 48.9601 49.4592 48.9601C49.4592 48.9601 49.5217 49.035 49.4592 49.0599C49.5342 49.0599 49.5466 49.1161 49.6028 49.1473C49.659 49.1785 49.6028 49.1473 49.6028 49.0911L49.7214 49.1661C49.7214 49.2222 49.7214 49.2597 49.684 49.2285C49.9836 49.5269 50.3191 49.7869 50.6828 50.0025C51.0691 50.2342 51.4909 50.4008 51.9313 50.4957C51.8876 50.427 51.7565 50.427 51.7315 50.3396C51.8501 50.3396 51.8813 50.3958 51.9438 50.3396C51.9438 50.4707 52.1685 50.4208 52.2309 50.5581L52.2746 50.4957L52.3245 50.5456C52.5992 50.5456 52.6429 50.5456 52.6679 50.5456C52.7754 50.563 52.885 50.563 52.9925 50.5456C53.0822 50.5399 53.1705 50.521 53.2547 50.4895C53.3929 50.4307 53.5347 50.3806 53.6792 50.3396C53.6792 50.3396 53.5668 50.3396 53.6479 50.2897C53.6854 50.3396 53.8477 50.1711 53.9039 50.2085C53.9601 50.246 54.1973 50.065 54.0787 50.0275C54.1411 50.0275 54.3284 49.9526 54.241 50.0275C54.299 50.0019 54.3519 49.9659 54.397 49.9214H54.3097C54.4969 49.7841 54.628 49.7591 54.6842 49.6155H54.6031C54.6967 49.5344 54.7654 49.4595 54.859 49.4969L54.7778 49.5968C54.9042 49.4973 55.0102 49.3744 55.09 49.2347L55.0463 49.2722C55.09 49.1723 55.2835 48.9226 55.4395 48.6479C55.567 48.4576 55.66 48.2463 55.7142 48.0237L55.6206 48.0611V47.9051C55.6206 47.9051 55.7642 48.0736 55.7329 48.0736C55.9336 47.7322 56.0969 47.3701 56.2199 46.9937C56.2573 46.8751 56.2948 46.7502 56.326 46.6316L56.3759 46.3257C56.4134 46.1385 56.4446 45.9949 56.4633 45.9262C56.482 45.8575 56.5694 45.9262 56.5819 45.9262C56.5819 45.7826 56.5257 45.8513 56.5819 45.7389C56.6381 45.6266 56.6319 45.7389 56.6319 45.7764C56.6319 45.8139 56.6319 45.6765 56.6319 45.6703C56.6319 45.664 56.5195 45.6703 56.4633 45.7077V45.5579H56.5132C56.5132 45.5267 56.3946 45.4518 56.4446 45.3145C56.507 45.071 56.507 44.8463 56.5507 44.6153C56.5507 44.6153 56.5944 44.6715 56.6069 44.7214C56.6194 44.7714 56.6069 44.6465 56.6069 44.6215C56.6069 44.5966 56.6069 44.5217 56.5569 44.5654C56.4508 44.3843 56.5569 44.1846 56.5569 44.0347C56.4446 44.0035 54.6842 43.4917 54.5531 43.4729C54.5557 43.4377 54.5664 43.4035 54.5843 43.373C54.5531 43.373 54.5219 43.4667 54.5344 43.5166H54.6093C54.6093 43.6227 54.5594 43.5166 54.5531 43.6415C54.4969 43.6415 54.4969 43.5416 54.4969 43.4542C54.4969 43.5291 54.4345 43.604 54.4969 43.6415C54.5594 43.6789 54.4283 43.6415 54.3908 43.7101C54.3534 43.7788 54.447 43.86 54.3908 43.9286C54.3097 44.0972 54.447 44.2033 54.3908 44.3594C54.3534 44.4155 54.3908 44.5279 54.3346 44.6278C54.3346 44.5966 54.397 44.5778 54.397 44.6278C54.397 44.6777 54.397 44.8213 54.3159 44.8962L54.3596 44.9774C54.3221 45.1459 54.266 45.6016 54.2223 46.0074C54.164 46.2985 54.0653 46.5801 53.9289 46.8439C53.7861 47.1211 53.6031 47.3756 53.3858 47.5992C53.1236 47.8801 52.9363 47.9862 52.9176 48.0237C52.9176 48.0237 52.9176 48.0237 52.8676 48.0237C52.8177 48.0237 52.8676 48.0861 52.8676 48.0861C52.7178 48.0861 52.8676 48.1298 52.6804 48.1236C52.4256 48.1074 52.1789 48.0281 51.9625 47.8926C51.7291 47.7682 51.5181 47.6057 51.3382 47.4119C51.1822 47.4119 51.1073 47.2184 50.9824 47.156C50.8492 47.0268 50.7375 46.8772 50.6516 46.7128C50.5205 46.5005 50.4143 46.2696 50.3644 46.2009C50.252 46.0823 50.3644 46.0635 50.3207 45.9449C50.2458 45.9949 50.1397 45.895 50.1147 45.8451C50.0462 45.7613 49.9856 45.6715 49.9337 45.5766H49.9836C49.9085 45.4663 49.8594 45.3404 49.84 45.2083C49.8435 44.9653 49.8098 44.7233 49.7402 44.4904L49.865 44.3157C49.865 44.3157 49.4218 44.3157 48.9411 44.3157C48.4605 44.3157 47.9298 44.4155 47.7675 44.6403H47.7176V44.7214C47.7176 44.8213 47.7738 44.8588 47.7176 44.8588V44.7277C47.7176 44.8275 47.6801 44.7277 47.6489 44.7277C47.6554 44.7669 47.6554 44.807 47.6489 44.8463C47.6489 44.8463 47.6489 44.8463 47.6489 44.8088C47.6489 44.7714 47.7301 44.9274 47.7176 44.9961C47.7051 45.0648 47.6364 44.9961 47.6552 45.1334C47.708 45.7784 47.864 46.4106 48.1171 47.0062C48.1171 47.0062 48.1171 47.0062 48.0797 47.0062C48.1795 47.181 48.2545 47.3495 48.3606 47.5118C48.373 47.5461 48.373 47.5836 48.3606 47.6179C48.3481 47.5742 48.9474 48.4919 48.9723 48.5044Z" fill="black"/>
<path d="M83.3495 43.7036C83.3091 43.7688 83.2936 43.8464 83.3058 43.9221C83.3283 43.8909 83.3439 43.8553 83.3514 43.8176C83.359 43.7799 83.3583 43.741 83.3495 43.7036Z" fill="black"/>
<path d="M90.2222 42.7612V42.8264C90.2254 42.8048 90.2254 42.7828 90.2222 42.7612Z" fill="black"/>
<path d="M84.6419 47.7178L84.7231 47.6741C84.8541 47.8364 84.6794 47.7865 84.8229 47.9238C84.9665 47.9238 85.0289 48.1735 85.1288 48.1735C85.1288 48.1735 85.185 48.2484 85.1288 48.2734C85.1975 48.2734 85.21 48.3358 85.2662 48.3608C85.3223 48.3858 85.2662 48.3608 85.2662 48.3109L85.3848 48.3858C85.3848 48.4357 85.3848 48.4794 85.3411 48.442C85.6402 48.7435 85.9782 49.0038 86.3461 49.216C86.7309 49.4507 87.1532 49.6176 87.5946 49.7092C87.5571 49.6468 87.4198 49.6468 87.3948 49.5531C87.5134 49.5531 87.5509 49.6093 87.6071 49.5531C87.6071 49.6842 87.838 49.628 87.9005 49.7716L87.9442 49.7092L87.9941 49.7591C88.1064 49.7655 88.2189 49.7655 88.3312 49.7591C88.3312 49.7591 88.3312 49.7591 88.6558 49.7591C88.7471 49.7545 88.8374 49.7377 88.9242 49.7092C89.0609 49.6466 89.203 49.5964 89.3487 49.5594C89.3175 49.5594 89.2364 49.5594 89.3113 49.5032C89.355 49.5594 89.511 49.3846 89.5672 49.4283C89.6234 49.472 89.8606 49.2784 89.7482 49.2472C89.8044 49.2472 89.9917 49.1723 89.9043 49.2472C89.9635 49.2238 90.0168 49.1876 90.0604 49.1411H89.973C90.1602 49.0038 90.2913 48.9851 90.3475 48.8415H90.2726C90.3662 48.7603 90.4349 48.6917 90.5223 48.7229L90.4474 48.8227C90.5731 48.7226 90.679 48.5998 90.7595 48.4607L90.7158 48.5044C90.7595 48.4045 90.9468 48.1486 91.1029 47.8801C91.2312 47.6895 91.3262 47.4784 91.3838 47.2559L91.2839 47.2933L91.3151 47.1373C91.3151 47.1373 91.4587 47.3058 91.4337 47.3121C91.6291 46.9688 91.7901 46.6071 91.9144 46.2321C91.9518 46.1073 91.9893 45.9887 92.0205 45.8701L92.0767 45.5642C92.0952 45.4289 92.1244 45.2953 92.1641 45.1647C92.2203 45.0585 92.2702 45.1647 92.2764 45.1647C92.2764 45.0273 92.2203 45.096 92.2452 44.9836C92.2702 44.8713 92.2952 44.9836 92.3014 44.9836C92.3076 44.9836 92.3326 44.89 92.3014 44.8775C92.2702 44.865 92.1953 44.8775 92.1391 44.915V44.7714H92.189C92.189 44.7402 92.0642 44.6715 92.1141 44.5279C92.1633 44.2993 92.1988 44.0679 92.2203 43.835C92.2203 43.835 92.264 43.8912 92.2764 43.9411C92.2889 43.9911 92.2764 43.86 92.3077 43.835C92.3389 43.8101 92.3076 43.7414 92.2515 43.7788C92.1516 43.5978 92.2889 43.4043 92.2515 43.2482C92.1453 43.2482 90.3787 42.7051 90.2539 42.6927C90.2471 42.6597 90.2471 42.6257 90.2539 42.5928C90.2539 42.5928 90.1977 42.6864 90.2102 42.7301H90.2789C90.2789 42.8425 90.2351 42.7301 90.2227 42.855C90.1665 42.855 90.1665 42.7551 90.1727 42.6739C90.1727 42.7488 90.1041 42.8175 90.1727 42.855C90.2414 42.8924 90.1041 42.855 90.0728 42.9236C90.0416 42.9923 90.129 43.0797 90.0728 43.1421C89.9917 43.3044 90.129 43.4168 90.0728 43.5666C90.0292 43.6165 90.0729 43.7351 90.0167 43.8288C90.0167 43.8288 90.0728 43.7788 90.0728 43.8288C90.0728 43.8787 90.0728 44.0285 89.9979 44.1034L90.0416 44.1784C90.0042 44.3531 89.948 44.8026 89.8981 45.2084C89.8406 45.4997 89.7418 45.7814 89.6047 46.0449C89.4604 46.3211 89.2775 46.5755 89.0616 46.8002C88.915 46.9499 88.7586 47.0897 88.5934 47.2184C88.5934 47.2184 88.5934 47.2184 88.5372 47.2184C88.481 47.2184 88.5372 47.2809 88.5372 47.2746C88.3936 47.2746 88.5372 47.3183 88.3499 47.3183C88.0978 47.2987 87.8539 47.2196 87.6383 47.0873C87.4017 46.9654 87.1899 46.8002 87.014 46.6004C86.858 46.6004 86.7831 46.4132 86.652 46.3507C86.5239 46.2195 86.4127 46.0727 86.3211 45.9138C86.19 45.7015 86.0902 45.4705 86.0402 45.3956C85.9278 45.2833 86.0402 45.2583 85.9965 45.1397C85.9154 45.1896 85.8155 45.0898 85.7905 45.0398C85.7026 44.9376 85.6252 44.8268 85.5595 44.709H85.6095C85.5369 44.595 85.4881 44.4676 85.4659 44.3344C85.4685 44.094 85.437 43.8544 85.3723 43.6228L85.4909 43.4417C85.4909 43.4417 85.0477 43.4417 84.5607 43.4417C84.0738 43.4417 83.5495 43.5416 83.3934 43.7726H83.3435V43.8538C83.3435 43.9536 83.3997 43.9848 83.3435 43.9911V43.8538C83.3435 43.9536 83.306 43.8912 83.2686 43.8538C83.272 43.8932 83.272 43.9329 83.2686 43.9724C83.2686 43.9724 83.2686 43.9724 83.2686 43.9411C83.2686 43.9099 83.3497 44.0535 83.3435 44.1222C83.3372 44.1908 83.2623 44.1222 83.2748 44.2595C83.3329 44.9036 83.4886 45.5351 83.7367 46.1322C83.7367 46.1322 83.7367 46.1322 83.7055 46.1322C83.789 46.3062 83.8828 46.4751 83.9864 46.6379C83.9974 46.6724 83.9974 46.7095 83.9864 46.744C84.0114 46.7877 84.6107 47.7116 84.6419 47.7178Z" fill="black"/>
<path d="M59.2974 51.9438C59.3545 52.0452 59.4334 52.1326 59.5283 52.1998C59.4801 52.0924 59.3993 52.0028 59.2974 51.9438Z" fill="black"/>
<path d="M80.4332 49.728L80.3721 49.8027C80.3963 49.7813 80.417 49.7561 80.4332 49.728Z" fill="black"/>
<path d="M64.809 55.3648L64.8652 55.2899C65.1399 55.4023 64.9027 55.4148 65.1711 55.5022C65.3209 55.4273 65.5956 55.6832 65.7079 55.6582C65.7079 55.6582 65.8328 55.7207 65.8078 55.7519C65.7829 55.7831 65.9452 55.7519 66.0326 55.8018C66.1199 55.8517 66.0326 55.8018 66.0013 55.7456L66.1949 55.7893C66.2573 55.8393 66.2635 55.883 66.1949 55.858C66.7481 56.0993 67.3151 56.3077 67.8928 56.4822C68.5028 56.665 69.1306 56.7822 69.7656 56.8318C69.6969 56.7694 69.5034 56.7881 69.4472 56.6945C69.6095 56.6633 69.6782 56.7382 69.7531 56.6945C69.7968 56.8318 70.0902 56.7569 70.2025 56.888L70.2525 56.8256L70.3274 56.8693C70.5843 56.835 70.8446 56.835 71.1014 56.8693C71.4573 56.8693 71.6196 56.7444 71.8131 56.7631C71.8131 56.7631 71.707 56.7631 71.8131 56.707C71.9192 56.6508 72.0503 56.6383 72.1002 56.707C72.1502 56.7756 72.4748 56.6633 72.3687 56.5884C72.4186 56.6258 72.6745 56.5883 72.531 56.6695C72.6073 56.6683 72.6831 56.6556 72.7557 56.632H72.6433C72.9305 56.5759 73.099 56.632 73.2676 56.501H73.1615C73.33 56.4635 73.4673 56.4323 73.5485 56.501L73.3799 56.5571C73.6123 56.5195 73.8388 56.4524 74.0541 56.3574H73.9667C74.1103 56.2762 74.5535 56.1264 74.9843 55.9391C75.3165 55.8067 75.6327 55.637 75.9269 55.4335H75.7895L75.983 55.2962C75.983 55.2962 75.983 55.5334 75.9331 55.5209C76.1703 55.4273 76.8695 55.0902 77.5312 54.7219C78.1929 54.3536 78.8359 53.9603 79.0356 53.8479C79.2354 53.7355 79.123 53.9166 79.123 53.9291C79.2978 53.7855 79.1667 53.8167 79.329 53.7168C79.379 53.7168 79.329 53.7668 79.329 53.7917C79.329 53.8167 79.4726 53.7106 79.4601 53.6856C79.4476 53.6606 79.354 53.6294 79.2853 53.6107L79.4976 53.4796V53.5295C79.5413 53.4983 79.5288 53.336 79.741 53.2174C80.0927 52.988 80.4304 52.7379 80.7523 52.4683C80.7523 52.4683 80.7148 52.562 80.6587 52.6306C80.705 52.5876 80.7576 52.5518 80.8147 52.5245C80.7024 52.5245 80.9271 52.3872 80.8522 52.4184C81.002 52.1312 81.3703 51.9564 81.4764 51.7067C81.4764 51.6568 81.2205 51.2074 80.9645 50.7766C80.7912 50.4692 80.6016 50.1712 80.3965 49.884C80.4286 49.8411 80.4689 49.805 80.5151 49.7778C80.4776 49.7778 80.3778 49.859 80.3403 49.9214L80.384 49.9776C80.2841 50.1212 80.3278 49.9776 80.2154 50.0962C80.1655 50.065 80.2654 49.9464 80.3465 49.8527C80.2654 49.9339 80.153 49.9838 80.1593 50.065C80.0656 50.1212 80.1156 50.0026 80.0032 50.065C79.9569 50.1679 79.8835 50.2564 79.791 50.3209C79.5537 50.4583 79.5413 50.6643 79.304 50.7766C79.2104 50.7766 79.1043 50.9514 78.9545 51.0263C78.9982 51.0263 79.0543 51.0263 78.9857 51.0763C78.8623 51.1642 78.733 51.2435 78.5986 51.3135L78.5237 51.4383C78.2553 51.6256 77.5936 52.0626 76.8882 52.5183C76.3325 52.8616 75.7572 53.1722 75.1653 53.4484C74.5628 53.7262 73.9358 53.9477 73.2925 54.1101C72.648 54.2743 71.9931 54.3953 71.3324 54.4722C71.1593 54.4421 70.9838 54.4275 70.808 54.4285C70.8954 54.4285 70.8642 54.4909 70.808 54.4846C70.3211 54.4846 70.7768 54.5283 70.2774 54.5346C69.7263 54.4882 69.1831 54.3729 68.6606 54.1912C68.1195 54.0443 67.5896 53.8586 67.075 53.6357C66.7683 53.564 66.4661 53.4744 66.1699 53.3672C65.864 53.2986 64.2971 52.512 63.9975 52.3622H64.035C63.7353 52.2686 63.8102 52.1999 63.6105 52.0626C63.6105 52.1624 63.3358 52.0626 63.2422 52.0626C63.002 51.9821 62.7665 51.8883 62.5368 51.7817V51.7442C62.3025 51.6438 62.0788 51.5204 61.8688 51.3759C61.5596 51.0844 61.23 50.8153 60.8825 50.5706L60.7265 50.271H60.6828C60.4401 50.4635 60.2107 50.672 59.9961 50.8952C59.6652 51.251 59.3718 51.6943 59.5217 52.0438L59.4842 52.0751L59.5966 52.15C59.7089 52.2623 59.8026 52.2561 59.7651 52.2935L59.5903 52.1625C59.7089 52.2686 59.5903 52.2249 59.5404 52.2124C59.5884 52.2492 59.6324 52.291 59.6715 52.3372C59.7089 52.3372 59.6715 52.3372 59.6715 52.2873C59.766 52.3187 59.8516 52.3722 59.9212 52.4434C60.0523 52.5432 59.8837 52.5183 60.0335 52.6306C60.8208 53.2435 61.6558 53.7925 62.5305 54.2724C62.5305 54.2724 62.5305 54.2724 62.4868 54.2724C62.7677 54.3972 63.005 54.5346 63.2671 54.6345C63.3049 54.6669 63.3312 54.7107 63.3421 54.7593C63.5823 54.8364 63.8161 54.9324 64.0412 55.0465L64.809 55.3648Z" fill="black"/>
<path opacity="0.09" d="M56.2211 46.7609C62.6508 40.8006 64.6654 32.5193 60.7208 28.264C56.7762 24.0087 48.3662 25.3909 41.9365 31.3511C35.5067 37.3113 33.4922 45.5927 37.4367 49.848C41.3813 54.1033 49.7914 52.7211 56.2211 46.7609Z" fill="#F3F3F3"/>
<path d="M92.8071 57.6309C95.9306 57.6309 98.4627 56.1524 98.4627 54.3286C98.4627 52.5048 95.9306 51.0264 92.8071 51.0264C89.6835 51.0264 87.1514 52.5048 87.1514 54.3286C87.1514 56.1524 89.6835 57.6309 92.8071 57.6309Z" fill="#EF8A99"/>
<path d="M51.5438 54.6594C51.6686 56.4822 49.234 58.0178 46.1191 58.0865C43.0041 58.1552 40.3635 56.7381 40.2449 54.9403C40.1263 53.1425 42.5546 51.5818 45.6758 51.5132C48.7971 51.4445 51.4252 52.8366 51.5438 54.6594Z" fill="#EF8A99"/>
</g>
<defs>
<clipPath id="clip0_619_5258">
<rect width="140" height="140" fill="white"/>
</clipPath>
</defs>
</svg>
